<svg width="24" height="24" viewBox="0 0 24 24" fill="none" xmlns="http://www.w3.org/2000/svg">
<path d="M3.31104 19.75L19.311 3.75" stroke="#FAFAFA" stroke-width="1.5" stroke-linecap="round"/>
<path d="M5.15541 3.82957C5.63363 3.39014 6.3687 3.39014 6.84692 3.82957C6.86343 3.84474 6.88507 3.86613 6.96114 3.9422L8.41933 5.4004C9.00333 5.9844 9.17036 6.86635 8.84034 7.62345C8.26388 8.94592 8.55563 10.4864 9.57573 11.5065L10.5044 12.4352C10.7973 12.7281 11.2722 12.7281 11.5651 12.4352C11.858 12.1423 11.858 11.6675 11.5651 11.3746L10.6364 10.4459C10.0524 9.86188 9.88536 8.97994 10.2154 8.22283C10.7918 6.90037 10.5001 5.35984 9.47999 4.33974L8.01066 2.87041C7.95093 2.81066 7.90492 2.76464 7.86183 2.72505C6.80974 1.75832 5.19259 1.75832 4.1405 2.72505C4.09741 2.76464 4.05142 2.81065 3.99169 2.87039L3.09419 3.76788C2.19108 4.671 1.81196 5.97292 2.08902 7.2197C2.84746 10.6326 4.52596 13.6849 6.85464 16.1067C7.1375 16.4008 7.60514 16.3952 7.8937 16.1066C8.19079 15.8095 8.18434 15.3273 7.89419 15.0235C5.77434 12.8034 4.24624 10.0125 3.5533 6.8943C3.3875 6.14816 3.61438 5.36902 4.15485 4.82855L5.0412 3.9422C5.11726 3.86614 5.1389 3.84474 5.15541 3.82957Z" fill="#FAFAFA"/>
<path d="M10.0998 16.9691C9.79087 16.7404 9.35913 16.7625 9.08735 17.0343C8.77211 17.3495 8.7974 17.8692 9.15481 18.1357C11.2286 19.6819 13.6376 20.8074 16.2594 21.3901C17.5062 21.6671 18.8081 21.288 19.7112 20.3849L20.6086 19.4875C20.6684 19.4277 20.7144 19.3817 20.754 19.3386C21.7208 18.2865 21.7208 16.6693 20.754 15.6173C20.7144 15.5741 20.6684 15.5281 20.6086 15.4684L19.1394 13.9991C18.1193 12.979 16.5787 12.6872 15.2563 13.2637C14.7733 13.4742 14.2396 13.4825 13.7648 13.3093C13.3925 13.1735 12.9462 13.1754 12.6659 13.4557C12.3571 13.7645 12.3677 14.2775 12.7494 14.4896C13.6893 15.0117 14.8371 15.0827 15.8556 14.6387C16.6127 14.3087 17.4947 14.4758 18.0787 15.0598L19.5369 16.518C19.6129 16.594 19.6343 16.6157 19.6495 16.6322C20.0889 17.1104 20.0889 17.8455 19.6495 18.3237C19.6343 18.3402 19.6129 18.3618 19.5369 18.4379L18.6505 19.3242C18.1101 19.8647 17.3309 20.0916 16.5848 19.9258C14.1942 19.3945 11.9959 18.3724 10.0998 16.9691Z" fill="#FAFAFA"/>
</svg>
