<svg width="24" height="24" viewBox="0 0 24 24" fill="none" xmlns="http://www.w3.org/2000/svg">
<path d="M8.75 10.75C8.75 11.3023 8.30228 11.75 7.75 11.75C7.19772 11.75 6.75 11.3023 6.75 10.75C6.75 10.1977 7.19772 9.75 7.75 9.75C8.30228 9.75 8.75 10.1977 8.75 10.75Z" fill="#FAFAFA"/>
<path d="M12.75 10.75C12.75 11.3023 12.3023 11.75 11.75 11.75C11.1977 11.75 10.75 11.3023 10.75 10.75C10.75 10.1977 11.1977 9.75 11.75 9.75C12.3023 9.75 12.75 10.1977 12.75 10.75Z" fill="#FAFAFA"/>
<path d="M16.75 10.75C16.75 11.3023 16.3023 11.75 15.75 11.75C15.1977 11.75 14.75 11.3023 14.75 10.75C14.75 10.1977 15.1977 9.75 15.75 9.75C16.3023 9.75 16.75 10.1977 16.75 10.75Z" fill="#FAFAFA"/>
<path d="M21.75 4.75C21.75 5.85457 20.8546 6.75 19.75 6.75C18.6454 6.75 17.75 5.85457 17.75 4.75C17.75 3.64543 18.6454 2.75 19.75 2.75C20.8546 2.75 21.75 3.64543 21.75 4.75Z" stroke="#FAFAFA" stroke-width="1.5"/>
<path d="M21.407 8.39173C21.8675 8.18186 22.4854 8.45493 22.4925 8.96097C22.5 9.48591 22.5 10.068 22.5 10.7164L22.5 12.0811C22.5002 13.6297 22.5004 14.5744 22.2677 15.3679C21.7167 17.2471 20.2471 18.7167 18.3679 19.2677C17.5744 19.5004 16.6297 19.5002 15.0811 19.5L14.3854 19.5L14.3251 19.5001C13.4579 19.5056 12.6132 19.7764 11.9043 20.2759L11.8551 20.3109L9.24441 22.1757C7.7399 23.2503 5.76288 21.6984 6.44954 19.9817C6.54183 19.751 6.37191 19.5 6.12341 19.5H5.52166C3.02441 19.5 1 17.4756 1 14.9783V10.7164C0.999995 9.34472 0.999992 8.26929 1.07061 7.40494C1.14252 6.52479 1.29138 5.79768 1.62671 5.13955C2.17798 4.05762 3.05762 3.17798 4.13955 2.62671C4.79768 2.29138 5.52479 2.14252 6.40494 2.07061C7.26929 1.99999 8.34472 2 9.71644 2H13.7836C14.4319 2 15.0141 2 15.539 2.00745C16.0451 2.01464 16.3181 2.6325 16.1083 3.09302C15.9978 3.33543 15.7616 3.51062 15.4952 3.507C14.9889 3.50013 14.4133 3.5 13.75 3.5H9.75C8.33749 3.5 7.32322 3.50058 6.52708 3.56563C5.7397 3.62996 5.23197 3.75359 4.82054 3.96322C4.02085 4.37068 3.37068 5.02085 2.96322 5.82054C2.75359 6.23197 2.62996 6.7397 2.56563 7.52708C2.50058 8.32322 2.5 9.33749 2.5 10.75V14.9783C2.5 16.6472 3.85284 18 5.52166 18H6.12341C7.43311 18 8.32867 19.3228 7.84226 20.5388C7.71197 20.8645 8.08709 21.159 8.37255 20.9551L10.9833 19.0903L11.0402 19.0497C11.9993 18.3739 13.1422 18.0076 14.3155 18.0001L14.3854 18H14.9342C16.6761 18 17.3863 17.9924 17.9458 17.8283C19.3348 17.421 20.421 16.3348 20.8283 14.9458C20.9924 14.3863 21 13.6761 21 11.9342V10.75C21 10.0867 20.9999 9.51114 20.993 9.0048C20.9894 8.73843 21.1646 8.50221 21.407 8.39173Z" fill="#FAFAFA"/>
</svg>
