<svg width="24" height="24" viewBox="0 0 24 24" fill="none" xmlns="http://www.w3.org/2000/svg">
<path d="M22 10C22 7.19974 22 5.79961 21.455 4.73005C20.9757 3.78924 20.2108 3.02433 19.27 2.54497C18.2004 2 16.8003 2 14 2H10C7.19974 2 5.79961 2 4.73005 2.54497C3.78924 3.02433 3.02433 3.78924 2.54497 4.73005C2 5.79961 2 7.19974 2 10V14.2283C2 16.3114 3.68863 18 5.77166 18H6.37341C7.15251 18 7.68525 18.7869 7.3959 19.5103C6.98743 20.5314 8.1635 21.4546 9.05848 20.8154L11.6692 18.9506C11.6958 18.9315 11.7092 18.922 11.7222 18.9128C12.5562 18.3251 13.5501 18.0066 14.5703 18.0001C14.5863 18 14.6027 18 14.6354 18H15.1842C16.8734 18 17.7179 18 18.4069 17.798C20.041 17.3188 21.3188 16.041 21.798 14.4069C22 13.7179 22 12.8734 22 11.1842V10Z" stroke="#FAFAFA" stroke-width="1.5"/>
<path d="M9 10C9 10.5523 8.55228 11 8 11C7.44772 11 7 10.5523 7 10C7 9.44772 7.44772 9 8 9C8.55228 9 9 9.44772 9 10Z" fill="#FAFAFA"/>
<path d="M13 10C13 10.5523 12.5523 11 12 11C11.4477 11 11 10.5523 11 10C11 9.44772 11.4477 9 12 9C12.5523 9 13 9.44772 13 10Z" fill="#FAFAFA"/>
<path d="M17 10C17 10.5523 16.5523 11 16 11C15.4477 11 15 10.5523 15 10C15 9.44772 15.4477 9 16 9C16.5523 9 17 9.44772 17 10Z" fill="#FAFAFA"/>
</svg>
