<svg width="24" height="24" viewBox="0 0 24 24" fill="none" xmlns="http://www.w3.org/2000/svg">
<path d="M14.8532 18.8449C16.6394 16.1283 16.339 12.4404 13.9521 10.0504C11.5451 7.64038 7.81971 7.35488 5.10034 9.19395M14.8532 18.8449C14.5961 19.2359 14.2957 19.6068 13.9521 19.9508C12.3638 21.5411 8.99563 22.9161 6.26196 21.2246C6.10983 21.1305 6.03377 21.0834 5.97625 21.0606C5.86629 21.017 5.78289 21.0044 5.66496 21.0135C5.60329 21.0183 5.53341 21.0364 5.39365 21.0727C4.51422 21.3009 4.0745 21.415 3.75772 21.3505C3.2079 21.2384 2.77821 20.8082 2.66631 20.2577C2.60184 19.9405 2.71581 19.5002 2.94375 18.6197C2.97998 18.4797 2.9981 18.4098 3.00285 18.3478C3.0119 18.2297 2.99904 18.1453 2.95528 18.0352C2.93232 17.9775 2.88538 17.9019 2.7915 17.7506C1.09634 15.0195 2.40825 11.7085 4.06419 10.0504C4.38764 9.72658 4.73491 9.44108 5.10034 9.19395M14.8532 18.8449L15 18.8198C15.6216 18.6705 16.2353 18.4232 16.8248 18.0585C17.0095 17.9441 17.1019 17.887 17.1717 17.8593C17.3052 17.8064 17.4065 17.791 17.5497 17.8021C17.6246 17.8079 17.7094 17.8299 17.8791 17.874C18.947 18.1511 19.481 18.2897 19.8656 18.2113C20.5333 18.0753 21.055 17.5528 21.1909 16.8843C21.2692 16.4992 21.1308 15.9646 20.854 14.8954C20.81 14.7254 20.788 14.6404 20.7823 14.5652C20.7713 14.4218 20.7869 14.3192 20.84 14.1856C20.8679 14.1155 20.9249 14.0237 21.0389 13.8401C23.0973 10.5236 21.5043 6.50314 19.4935 4.48982C16.1779 1.17006 10.8023 1.17006 7.48669 4.48982C6.1619 5.81628 5.36645 7.47204 5.10034 9.19395" stroke="#FAFAFA" stroke-width="1.5"/>
<path d="M11 15C11 15.5523 11.4477 16 12 16C12.5523 16 13 15.5523 13 15C13 14.4477 12.5523 14 12 14C11.4477 14 11 14.4477 11 15Z" fill="#FAFAFA"/>
<path d="M8 15C8 15.5523 8.44772 16 9 16C9.55228 16 10 15.5523 10 15C10 14.4477 9.55228 14 9 14C8.44772 14 8 14.4477 8 15Z" fill="#FAFAFA"/>
<path d="M5 15C5 15.5523 5.44772 16 6 16C6.55228 16 7 15.5523 7 15C7 14.4477 6.55228 14 6 14C5.44772 14 5 14.4477 5 15Z" fill="#FAFAFA"/>
</svg>
