<svg width="24" height="24" viewBox="0 0 24 24" fill="none" xmlns="http://www.w3.org/2000/svg">
<path d="M20.8026 4.60779C20.8026 5.71236 19.9072 6.60779 18.8026 6.60779C17.698 6.60779 16.8026 5.71236 16.8026 4.60779C16.8026 3.50322 17.698 2.60779 18.8026 2.60779C19.9072 2.60779 20.8026 3.50322 20.8026 4.60779Z" stroke="#FAFAFA" stroke-width="1.5"/>
<path fill-rule="evenodd" clip-rule="evenodd" d="M21.9571 8.30001C21.8154 7.88072 21.2838 7.77654 20.9076 8.00977C20.6159 8.19066 20.4611 8.54976 20.5675 8.87611C21.612 12.0812 20.8609 15.7438 18.3139 18.2907C17.2759 19.3288 15.6268 20.3187 13.7847 20.7593C11.9531 21.1975 9.9864 21.082 8.23974 20.0026L8.1918 19.9729C8.0248 19.8694 7.85988 19.7672 7.71297 19.709C7.44967 19.6047 7.21619 19.5694 6.93384 19.5913C6.77672 19.6034 6.61334 19.646 6.45662 19.6868L6.4154 19.6975C5.77618 19.8632 5.33333 19.9776 4.99294 20.0418C4.64907 20.1066 4.49461 20.102 4.41337 20.0854C3.92189 19.9854 3.53779 19.6013 3.43776 19.1098C3.42123 19.0286 3.41657 18.8741 3.48141 18.5303C3.5456 18.1899 3.65997 17.747 3.82564 17.1078L3.83636 17.0666C3.87723 16.9098 3.91987 16.7462 3.93196 16.5886C3.95365 16.3059 3.91781 16.0707 3.81289 15.8072C3.75426 15.66 3.65189 15.4957 3.54848 15.3298L3.51889 15.2823C2.43299 13.535 2.29824 11.5902 2.72478 9.77531C3.15392 7.94937 4.14374 6.29798 5.23246 5.20926C7.74229 2.69942 11.3356 1.93341 14.5068 2.91121C14.8348 3.01233 15.1914 2.8516 15.3676 2.55708C15.5948 2.17727 15.4821 1.64758 15.0606 1.51261C11.3483 0.323915 7.11782 1.20258 4.1718 4.1486C2.89212 5.42827 1.75958 7.32586 1.26457 9.43213C0.766964 11.5494 0.906287 13.9201 2.24487 16.0741C2.31416 16.1856 2.35834 16.2568 2.38987 16.3106C2.41072 16.3462 2.419 16.3625 2.42094 16.3663C2.43465 16.4014 2.43669 16.4144 2.437 16.4165C2.43733 16.4186 2.43945 16.4323 2.43648 16.4722C2.43604 16.4753 2.43401 16.4883 2.42725 16.5182C2.41663 16.5652 2.40069 16.627 2.37362 16.7314L2.36676 16.7579C2.20959 17.3643 2.08207 17.8563 2.00739 18.2523C1.93228 18.6506 1.89222 19.0371 1.9679 19.409C2.18794 20.4902 3.03298 21.3352 4.11424 21.5553C4.48608 21.631 4.87261 21.5909 5.2709 21.5158C5.66689 21.4411 6.15878 21.3136 6.76511 21.1565L6.79175 21.1496C6.89614 21.1225 6.95801 21.1066 7.00502 21.0959C7.03487 21.0892 7.04796 21.0871 7.05108 21.0867C7.09256 21.0836 7.10645 21.086 7.10645 21.086C7.10645 21.086 7.12081 21.0881 7.15625 21.1019C7.16019 21.1039 7.17696 21.1123 7.21282 21.1332C7.26709 21.1649 7.33895 21.2092 7.4512 21.2786C9.61435 22.6153 12.0112 22.7259 14.1337 22.2182C16.2456 21.713 18.141 20.585 19.3746 19.3514C22.3637 16.3623 23.2246 12.0508 21.9571 8.30001ZM7.05108 21.0867L7.0494 21.0868L7.05108 21.0867Z" fill="#FAFAFA"/>
<path d="M8.80264 11.6078C8.80264 12.1601 8.35493 12.6078 7.80264 12.6078C7.25036 12.6078 6.80264 12.1601 6.80264 11.6078C6.80264 11.0555 7.25036 10.6078 7.80264 10.6078C8.35493 10.6078 8.80264 11.0555 8.80264 11.6078Z" fill="#FAFAFA"/>
<path d="M12.8026 11.6078C12.8026 12.1601 12.3549 12.6078 11.8026 12.6078C11.2504 12.6078 10.8026 12.1601 10.8026 11.6078C10.8026 11.0555 11.2504 10.6078 11.8026 10.6078C12.3549 10.6078 12.8026 11.0555 12.8026 11.6078Z" fill="#FAFAFA"/>
<path d="M16.8026 11.6078C16.8026 12.1601 16.3549 12.6078 15.8026 12.6078C15.2504 12.6078 14.8026 12.1601 14.8026 11.6078C14.8026 11.0555 15.2504 10.6078 15.8026 10.6078C16.3549 10.6078 16.8026 11.0555 16.8026 11.6078Z" fill="#FAFAFA"/>
</svg>
