<svg width="24" height="24" viewBox="0 0 24 24" fill="none" xmlns="http://www.w3.org/2000/svg">
<path d="M8.60791 11.6079C8.60791 12.1602 8.16019 12.6079 7.60791 12.6079C7.05563 12.6079 6.60791 12.1602 6.60791 11.6079C6.60791 11.0556 7.05563 10.6079 7.60791 10.6079C8.16019 10.6079 8.60791 11.0556 8.60791 11.6079Z" fill="#FAFAFA"/>
<path d="M12.6079 11.6079C12.6079 12.1602 12.1602 12.6079 11.6079 12.6079C11.0556 12.6079 10.6079 12.1602 10.6079 11.6079C10.6079 11.0556 11.0556 10.6079 11.6079 10.6079C12.1602 10.6079 12.6079 11.0556 12.6079 11.6079Z" fill="#FAFAFA"/>
<path d="M16.6079 11.6079C16.6079 12.1602 16.1602 12.6079 15.6079 12.6079C15.0556 12.6079 14.6079 12.1602 14.6079 11.6079C14.6079 11.0556 15.0556 10.6079 15.6079 10.6079C16.1602 10.6079 16.6079 11.0556 16.6079 11.6079Z" fill="#FAFAFA"/>
<path d="M2.52563 4.60791C2.52563 5.71248 3.42107 6.60791 4.52563 6.60791C5.6302 6.60791 6.52563 5.71248 6.52563 4.60791C6.52563 3.50334 5.6302 2.60791 4.52563 2.60791C3.42107 2.60791 2.52563 3.50334 2.52563 4.60791Z" stroke="#FAFAFA" stroke-width="1.5"/>
<path d="M2.58059 8.05683C2.20387 7.83492 1.68311 7.94618 1.54563 8.36123C0.308065 12.0976 1.17572 16.3785 4.1486 19.3514C6.55689 21.7597 11.3579 23.7897 15.5609 21.5728C15.758 21.4688 15.9004 21.3937 16.0056 21.3396C16.058 21.3127 16.0975 21.2929 16.1275 21.2784C16.1423 21.2713 16.1534 21.2661 16.1616 21.2624L16.1731 21.2573C16.3471 21.1873 16.4307 21.1674 16.4932 21.1602C16.5556 21.1529 16.6416 21.153 16.8271 21.1812C16.8805 21.1893 16.9657 21.2103 17.2533 21.2848L17.2702 21.2892C17.6558 21.3891 17.9686 21.4702 18.2209 21.5241C18.4741 21.5782 18.7196 21.6174 18.9595 21.6088C20.4006 21.5569 21.5569 20.4006 21.6088 18.9595C21.6174 18.7196 21.5782 18.4741 21.5241 18.2209C21.4702 17.9686 21.3891 17.6557 21.2892 17.2702L21.2848 17.2533C21.2103 16.9658 21.1893 16.8805 21.1812 16.8273C21.1527 16.6403 21.1525 16.556 21.1594 16.4953C21.1664 16.4346 21.1856 16.3526 21.2555 16.1768L21.2604 16.1655C21.2641 16.1573 21.2693 16.146 21.2765 16.131C21.291 16.1007 21.3109 16.0606 21.3379 16.0076C21.3922 15.9009 21.4676 15.7565 21.5719 15.5567C22.6754 13.443 22.6884 11.1552 22.155 9.13853C21.6235 7.12933 20.537 5.3342 19.3514 4.1486C16.3785 1.17572 12.0976 0.308062 8.36121 1.54564C7.94616 1.68312 7.8349 2.20388 8.05681 2.5806C8.23368 2.88085 8.59731 3.04451 8.92928 2.93854C12.1216 1.91951 15.7579 2.67641 18.2907 5.20926C19.2869 6.20544 20.2403 7.76618 20.7048 9.52213C21.1674 11.2706 21.1325 13.1572 20.2422 14.8625L20.2037 14.9361C20.0322 15.2646 19.9144 15.49 19.8618 15.6222C19.7709 15.8508 19.6978 16.074 19.6691 16.325C19.6404 16.5761 19.6612 16.8101 19.6983 17.0533C19.7197 17.1937 19.7634 17.3621 19.8214 17.5855L19.8328 17.6297C19.9381 18.0361 20.0109 18.3175 20.0573 18.5343C20.1042 18.7539 20.1116 18.854 20.1097 18.9055C20.0861 19.5606 19.5606 20.0861 18.9055 20.1097C18.854 20.1116 18.7539 20.1042 18.5343 20.0573C18.3175 20.0109 18.0361 19.9381 17.6297 19.8328L17.5856 19.8214C17.3621 19.7634 17.1933 19.7196 17.0521 19.6982C16.8074 19.661 16.572 19.6409 16.3198 19.6702C16.0675 19.6996 15.8431 19.7733 15.6134 19.8657C15.4806 19.919 15.2576 20.0367 14.9336 20.2077L14.861 20.246C11.454 22.0431 7.35015 20.4316 5.20926 18.2907C2.67642 15.7579 1.91951 12.1216 2.93853 8.9293C3.0445 8.59733 2.88085 8.2337 2.58059 8.05683Z" fill="#FAFAFA"/>
</svg>
