<svg width="24" height="24" viewBox="0 0 24 24" fill="none" xmlns="http://www.w3.org/2000/svg">
<path d="M8.75 10.75C8.75 11.3023 8.30228 11.75 7.75 11.75C7.19772 11.75 6.75 11.3023 6.75 10.75C6.75 10.1977 7.19772 9.75 7.75 9.75C8.30228 9.75 8.75 10.1977 8.75 10.75Z" fill="#FAFAFA"/>
<path d="M12.75 10.75C12.75 11.3023 12.3023 11.75 11.75 11.75C11.1977 11.75 10.75 11.3023 10.75 10.75C10.75 10.1977 11.1977 9.75 11.75 9.75C12.3023 9.75 12.75 10.1977 12.75 10.75Z" fill="#FAFAFA"/>
<path d="M16.75 10.75C16.75 11.3023 16.3023 11.75 15.75 11.75C15.1977 11.75 14.75 11.3023 14.75 10.75C14.75 10.1977 15.1977 9.75 15.75 9.75C16.3023 9.75 16.75 10.1977 16.75 10.75Z" fill="#FAFAFA"/>
<path d="M20.75 4.75C20.75 5.85457 19.8546 6.75 18.75 6.75C17.6454 6.75 16.75 5.85457 16.75 4.75C16.75 3.64543 17.6454 2.75 18.75 2.75C19.8546 2.75 20.75 3.64543 20.75 4.75Z" stroke="#FAFAFA" stroke-width="1.5"/>
<path d="M15.1083 3.09302C15.3181 2.6325 15.0451 2.01464 14.539 2.00745C14.0141 2 13.4319 2 12.7836 2H10.7164C9.34472 2 8.26929 1.99999 7.40494 2.07061C6.52479 2.14252 5.79768 2.29138 5.13955 2.62671C4.05762 3.17798 3.17798 4.05762 2.62671 5.13955C2.29138 5.79769 2.14252 6.52479 2.07061 7.40494C1.99999 8.26927 2 9.34469 2 10.7164V14.9783C2 17.4756 4.02441 19.5 6.52166 19.5H7.12341C7.37191 19.5 7.54183 19.751 7.44954 19.9817C6.76288 21.6984 8.7399 23.2503 10.2444 22.1757L12.8551 20.3109L12.9043 20.2759C13.6132 19.7764 14.4579 19.5056 15.3251 19.5001L15.4004 19.5H15.4288C15.7139 19.5 15.8858 19.5 16.0219 19.4936C18.9838 19.3533 21.3533 16.9838 21.4936 14.0219C21.5 13.8858 21.5 13.7297 21.5 13.4732V10.7164C21.5 10.0681 21.5 9.48592 21.4925 8.96097C21.4854 8.45493 20.8675 8.18186 20.407 8.39173C20.1646 8.50221 19.9894 8.73843 19.993 9.0048C19.9999 9.51114 20 10.0867 20 10.75V13.4488C20 13.7371 19.9998 13.855 19.9952 13.951C19.8916 16.1402 18.1402 17.8916 15.951 17.9952C15.8553 17.9998 15.7221 18 15.4004 18L15.3155 18.0001C14.1422 18.0076 12.9993 18.3739 12.0402 19.0497L11.9833 19.0903L9.37255 20.9551C9.08709 21.159 8.71197 20.8645 8.84226 20.5388C9.32867 19.3228 8.43311 18 7.12341 18H6.52166C4.85284 18 3.5 16.6472 3.5 14.9783V10.75C3.5 9.33749 3.50058 8.32322 3.56563 7.52708C3.62996 6.7397 3.75359 6.23197 3.96322 5.82054C4.37068 5.02085 5.02085 4.37068 5.82054 3.96322C6.23197 3.75359 6.7397 3.62996 7.52708 3.56563C8.32322 3.50058 9.33749 3.5 10.75 3.5H12.75C13.4133 3.5 13.9889 3.50013 14.4952 3.507C14.7616 3.51062 14.9978 3.33543 15.1083 3.09302Z" fill="#FAFAFA"/>
</svg>
