<svg width="24" height="24" viewBox="0 0 24 24" fill="none" xmlns="http://www.w3.org/2000/svg">
<path d="M12.9943 4.75C13.4085 4.75 13.7443 4.41421 13.7443 4C13.7443 3.58579 13.4085 3.25 12.9943 3.25V4.75ZM5.4722 19.3573L5.84006 18.7037H5.84006L5.4722 19.3573ZM3.44613 10.8995L2.70326 10.7963L3.44613 10.8995ZM3.2714 16.8297L3.96938 16.5552H3.96938L3.2714 16.8297ZM21.6611 10.7963C21.6041 10.386 21.2253 10.0996 20.815 10.1566C20.4047 10.2136 20.1183 10.5924 20.1753 11.0026L21.6611 10.7963ZM21.0929 16.8297L21.7909 17.1041L21.0929 16.8297ZM18.8921 19.3573L18.5243 18.7037L18.8921 19.3573ZM6.67432 4.45483L6.36178 3.77306L6.67432 4.45483ZM4.1986 7L3.4989 6.72997H3.4989L4.1986 7ZM4.54262 6.31092L3.91032 5.90756L4.54262 6.31092ZM4.98976 7.7368L5.52009 7.20647L5.51066 7.19704L5.5009 7.18795L4.98976 7.7368ZM17.5182 10.3827C17.8176 10.0965 17.8284 9.62178 17.5423 9.3223C17.2561 9.02282 16.7814 9.01201 16.4819 9.29816L17.5182 10.3827ZM11.3701 4.75H12.9943V3.25H11.3701V4.75ZM12.9943 19.25H11.3701V20.75H12.9943V19.25ZM11.3701 19.25C9.77158 19.25 8.62041 19.2494 7.72459 19.1724C6.83615 19.0961 6.27664 18.9494 5.84006 18.7037L5.10434 20.0109C5.80973 20.4079 6.61387 20.5825 7.59622 20.6669C8.5712 20.7506 9.79798 20.75 11.3701 20.75V19.25ZM2.70326 10.7963C2.48699 12.3534 2.31758 13.5685 2.2664 14.5457C2.21483 15.5303 2.27721 16.3508 2.57342 17.1041L3.96938 16.5552C3.78605 16.089 3.71771 15.5146 3.76435 14.6241C3.81137 13.7262 3.96909 12.5859 4.189 11.0026L2.70326 10.7963ZM5.84006 18.7037C4.9879 18.2241 4.32721 17.4652 3.96938 16.5552L2.57342 17.1041C3.05754 18.3353 3.95142 19.362 5.10434 20.0109L5.84006 18.7037ZM20.1753 11.0026C20.3952 12.5859 20.553 13.7262 20.6 14.6241C20.6466 15.5146 20.5783 16.089 20.3949 16.5552L21.7909 17.1041C22.0871 16.3508 22.1495 15.5303 22.0979 14.5457C22.0467 13.5685 21.8773 12.3534 21.6611 10.7963L20.1753 11.0026ZM12.9943 20.75C14.5663 20.75 15.7931 20.7506 16.7681 20.6669C17.7505 20.5825 18.5546 20.4079 19.26 20.0109L18.5243 18.7037C18.0877 18.9494 17.5282 19.0961 16.6397 19.1724C15.7439 19.2494 14.5927 19.25 12.9943 19.25V20.75ZM20.3949 16.5552C20.0371 17.4653 19.3764 18.2241 18.5243 18.7037L19.26 20.0109C20.4129 19.362 21.3068 18.3353 21.7909 17.1041L20.3949 16.5552ZM11.3701 3.25C10.147 3.25 9.18759 3.24949 8.41101 3.30905C7.62506 3.36933 6.97033 3.49408 6.36178 3.77306L6.98686 5.13661C7.37048 4.96075 7.82909 4.85809 8.52571 4.80466C9.23169 4.75051 10.1241 4.75 11.3701 4.75V3.25ZM4.189 11.0026C4.45676 9.07477 4.60789 8.02255 4.89831 7.27003L3.4989 6.72997C3.13041 7.6848 2.95962 8.9505 2.70326 10.7963L4.189 11.0026ZM4.89831 7.27003C4.97993 7.05852 5.07053 6.87792 5.17492 6.71429L3.91032 5.90756C3.74648 6.1644 3.6124 6.43586 3.4989 6.72997L4.89831 7.27003ZM6.36178 3.77306C5.35634 4.23397 4.50518 4.97509 3.91032 5.90756L5.17492 6.71429C5.61459 6.02507 6.24371 5.47729 6.98686 5.13661L6.36178 3.77306ZM5.5009 7.18795L4.70974 6.45115L3.68746 7.54885L4.47862 8.28565L5.5009 7.18795ZM4.45943 8.26713C6.1111 9.9188 7.40208 11.212 8.5437 12.0831C9.70263 12.9673 10.7954 13.4868 12.0608 13.4868V11.9868C11.2552 11.9868 10.4791 11.673 9.45358 10.8905C8.41077 10.0949 7.20175 8.88813 5.52009 7.20647L4.45943 8.26713ZM16.4819 9.29816C14.4409 11.2483 13.3006 11.9868 12.0608 11.9868V13.4868C13.9736 13.4868 15.5174 12.2943 17.5182 10.3827L16.4819 9.29816ZM20.25 5C20.25 5.69036 19.6904 6.25 19 6.25V7.75C20.5188 7.75 21.75 6.51878 21.75 5H20.25ZM19 6.25C18.3097 6.25 17.75 5.69036 17.75 5H16.25C16.25 6.51878 17.4812 7.75 19 7.75V6.25ZM17.75 5C17.75 4.30964 18.3097 3.75 19 3.75V2.25C17.4812 2.25 16.25 3.48122 16.25 5H17.75ZM19 3.75C19.6904 3.75 20.25 4.30964 20.25 5H21.75C21.75 3.48122 20.5188 2.25 19 2.25V3.75Z" fill="#FAFAFA"/>
</svg>
