<svg width="24" height="24" viewBox="0 0 24 24" fill="none" xmlns="http://www.w3.org/2000/svg">
<path d="M21 10C21 7.19974 21 5.79961 20.455 4.73005C19.9757 3.78924 19.2108 3.02433 18.27 2.54497C17.2004 2 15.8003 2 13 2H11C8.19974 2 6.79961 2 5.73005 2.54497C4.78924 3.02433 4.02433 3.78924 3.54497 4.73005C3 5.79961 3 7.19974 3 10V14.2283C3 16.3114 4.68863 18 6.77166 18H7.37341C8.15251 18 8.68525 18.7869 8.3959 19.5103C7.98743 20.5314 9.1635 21.4546 10.0585 20.8154L12.6692 18.9506C12.6958 18.9315 12.7092 18.922 12.7222 18.9128C13.5562 18.3251 14.5501 18.0066 15.5703 18.0001C15.5863 18 15.6077 18 15.6504 18C15.9623 18 16.1183 18 16.2364 17.9944C18.812 17.8725 20.8725 15.812 20.9944 13.2364C21 13.1183 21 12.9785 21 12.6988V10Z" stroke="#FAFAFA" stroke-width="1.5"/>
<path d="M9 10C9 10.5523 8.55228 11 8 11C7.44772 11 7 10.5523 7 10C7 9.44772 7.44772 9 8 9C8.55228 9 9 9.44772 9 10Z" fill="#FAFAFA"/>
<path d="M13 10C13 10.5523 12.5523 11 12 11C11.4477 11 11 10.5523 11 10C11 9.44772 11.4477 9 12 9C12.5523 9 13 9.44772 13 10Z" fill="#FAFAFA"/>
<path d="M17 10C17 10.5523 16.5523 11 16 11C15.4477 11 15 10.5523 15 10C15 9.44772 15.4477 9 16 9C16.5523 9 17 9.44772 17 10Z" fill="#FAFAFA"/>
</svg>
