<svg width="24" height="24" viewBox="0 0 24 24" fill="none" xmlns="http://www.w3.org/2000/svg">
<path d="M4.50651 4.48982L3.97585 3.95982L4.50651 4.48982ZM16.5133 4.48982L15.9826 5.01982V5.01982L16.5133 4.48982ZM2.96111 13.8401L2.32387 14.2356L2.32387 14.2356L2.96111 13.8401ZM7.17524 18.0585L6.78061 18.6962L6.78061 18.6962L7.17524 18.0585ZM6.82831 17.8593L7.10474 17.1621L7.10474 17.1621L6.82831 17.8593ZM6.12086 17.874L6.30925 18.5999H6.30926L6.12086 17.874ZM6.45031 17.8021L6.39246 17.0544L6.45031 17.8021ZM3.14598 14.8954L2.41992 14.7074H2.41992L3.14598 14.8954ZM3.21774 14.5652L3.96555 14.6225L3.21774 14.5652ZM3.15998 14.1856L3.85687 13.9084L3.85687 13.9084L3.15998 14.1856ZM2.80909 16.8843L3.54406 16.735L2.80909 16.8843ZM4.13437 18.2113L3.98462 18.9462H3.98463L4.13437 18.2113ZM9 18.8198L8.82485 19.549L8.9112 19.5698H9V18.8198ZM10.0479 19.9508L10.5785 19.4208L10.0479 19.9508ZM19.9358 10.0504L20.4665 9.52044L19.9358 10.0504ZM10.0479 10.0504L9.5172 9.52044L10.0479 10.0504ZM17.738 21.2246L18.1327 21.8624L17.738 21.2246ZM18.0237 21.0606L17.7473 20.3634L18.0237 21.0606ZM18.6064 21.0727L18.7947 20.3467L18.6064 21.0727ZM18.335 21.0135L18.2772 21.7613L18.335 21.0135ZM21.0562 18.6197L21.7823 18.4318L21.0562 18.6197ZM20.9972 18.3478L20.2493 18.4051L20.9972 18.3478ZM21.2085 17.7506L21.8457 18.1461L21.2085 17.7506ZM21.0447 18.0352L20.3478 17.758L21.0447 18.0352ZM21.3337 20.2577L22.0687 20.4071L21.3337 20.2577ZM20.2423 21.3505L20.0925 20.6156L20.2423 21.3505ZM18 15.75C18.4142 15.75 18.75 15.4142 18.75 15C18.75 14.5858 18.4142 14.25 18 14.25V15.75ZM12 14.25C11.5858 14.25 11.25 14.5858 11.25 15C11.25 15.4142 11.5858 15.75 12 15.75V14.25ZM18.8997 9.19395L18.4795 9.81521L18.8997 9.19395ZM5.03718 5.01982C8.05979 1.99339 12.96 1.99339 15.9826 5.01982L17.044 3.95982C13.4354 0.346725 7.5844 0.346725 3.97585 3.95982L5.03718 5.01982ZM3.59834 13.4445C2.69525 11.9895 2.58115 10.368 2.93802 8.84766C3.29746 7.31632 4.1272 5.93094 5.03718 5.01982L3.97585 3.95982C2.87504 5.06202 1.90287 6.69355 1.47771 8.50489C1.04997 10.3272 1.16856 12.3742 2.32387 14.2356L3.59834 13.4445ZM7.56987 17.4207C7.41949 17.3276 7.25332 17.221 7.10474 17.1621L6.55187 18.5565C6.53294 18.549 6.53427 18.5471 6.58075 18.5742C6.62525 18.6002 6.68479 18.6369 6.78061 18.6962L7.56987 17.4207ZM6.30926 18.5999C6.39856 18.5768 6.4491 18.5637 6.48689 18.5552C6.52192 18.5472 6.52218 18.5488 6.50817 18.5499L6.39246 17.0544C6.23473 17.0666 6.07136 17.112 5.93246 17.148L6.30926 18.5999ZM7.10474 17.1621C6.8651 17.0671 6.6495 17.0345 6.39246 17.0544L6.50817 18.5499C6.52403 18.5487 6.53191 18.5487 6.53432 18.5488C6.5362 18.5488 6.53446 18.5488 6.53074 18.5483C6.52702 18.5477 6.52537 18.5472 6.52719 18.5477C6.52952 18.5483 6.53707 18.5506 6.55188 18.5565L7.10474 17.1621ZM3.87205 15.0833C3.9081 14.9441 3.95344 14.7806 3.96555 14.6225L2.46993 14.5079C2.47099 14.4941 2.47254 14.4945 2.46462 14.5295C2.45608 14.5674 2.44307 14.618 2.41992 14.7074L3.87205 15.0833ZM2.32387 14.2356C2.38303 14.3309 2.41961 14.3899 2.44546 14.4341C2.47234 14.4801 2.4705 14.4815 2.46308 14.4628L3.85687 13.9084C3.79766 13.7596 3.69117 13.5941 3.59834 13.4445L2.32387 14.2356ZM3.96555 14.6225C3.98526 14.3652 3.95225 14.1482 3.85687 13.9084L2.46308 14.4628C2.46888 14.4774 2.47118 14.4849 2.47188 14.4874C2.47244 14.4893 2.47196 14.488 2.47144 14.4846C2.47093 14.4812 2.47098 14.4798 2.47103 14.4818C2.47109 14.4844 2.47113 14.4923 2.46993 14.5079L3.96555 14.6225ZM2.41992 14.7074C2.28419 15.2317 2.17253 15.6615 2.10734 16.0076C2.04281 16.3502 2.00548 16.696 2.07412 17.0337L3.54406 16.735C3.53442 16.6875 3.52714 16.5735 3.58143 16.2852C3.63507 16.0004 3.73099 15.6282 3.87205 15.0833L2.41992 14.7074ZM5.93246 17.148C5.38819 17.2893 5.01659 17.3853 4.73226 17.439C4.44445 17.4933 4.33098 17.4859 4.28412 17.4764L3.98463 18.9462C4.32243 19.015 4.66827 18.9776 5.01056 18.9129C5.35634 18.8476 5.78564 18.7358 6.30925 18.5999L5.93246 17.148ZM2.07412 17.0337C2.26984 17.9967 3.02166 18.75 3.98462 18.9462L4.28412 17.4764C3.91181 17.4005 3.62009 17.109 3.54406 16.735L2.07412 17.0337ZM9.17515 18.0905C8.62842 17.9592 8.08916 17.742 7.56987 17.4207L6.78061 18.6962C7.44018 19.1043 8.12837 19.3818 8.82485 19.549L9.17515 18.0905ZM21.8457 18.1461C22.8194 16.5774 22.9175 14.8541 22.559 13.3267C22.203 11.8103 21.3899 10.445 20.4665 9.52044L19.4051 10.5804C20.1377 11.3139 20.8085 12.4331 21.0987 13.6695C21.3863 14.8949 21.2927 16.1927 20.5713 17.3551L21.8457 18.1461ZM9.5172 20.4808C10.4091 21.3739 11.7713 22.1843 13.2887 22.5478C14.8166 22.9137 16.5575 22.8371 18.1327 21.8624L17.3434 20.5868C16.1849 21.3036 14.8748 21.3852 13.6381 21.089C12.3909 20.7903 11.2749 20.1181 10.5785 19.4208L9.5172 20.4808ZM18.1327 21.8624C18.2122 21.8132 18.2595 21.784 18.2943 21.7637C18.3311 21.7422 18.3253 21.7479 18.3002 21.7578L17.7473 20.3634C17.6111 20.4174 17.4612 20.5139 17.3434 20.5868L18.1327 21.8624ZM18.7947 20.3467C18.6858 20.3185 18.5374 20.2769 18.3929 20.2657L18.2772 21.7613C18.2566 21.7597 18.2498 21.7569 18.2757 21.7627C18.3043 21.7692 18.3436 21.7794 18.418 21.7986L18.7947 20.3467ZM18.3002 21.7578C18.3091 21.7543 18.3111 21.7539 18.3081 21.7548C18.3045 21.7558 18.2976 21.7575 18.2886 21.7589C18.2796 21.7602 18.2725 21.7606 18.2688 21.7607C18.2656 21.7608 18.2676 21.7605 18.2772 21.7613L18.3929 20.2657C18.1611 20.2478 17.9634 20.2777 17.7473 20.3634L18.3002 21.7578ZM21.7823 18.4318C21.763 18.3573 21.7529 18.318 21.7465 18.2893C21.7406 18.2634 21.7434 18.2701 21.745 18.2905L20.2493 18.4051C20.2604 18.5499 20.3019 18.6984 20.3302 18.8077L21.7823 18.4318ZM20.5713 17.3551C20.4986 17.4723 20.4021 17.6215 20.3478 17.758L21.7416 18.3124C21.7317 18.3373 21.7262 18.343 21.7474 18.3067C21.7676 18.2722 21.7966 18.2253 21.8457 18.1461L20.5713 17.3551ZM21.745 18.2905C21.7442 18.2812 21.7445 18.2792 21.7444 18.2822C21.7443 18.2858 21.7439 18.2927 21.7426 18.3013C21.7413 18.31 21.7396 18.3167 21.7386 18.3201C21.7378 18.3231 21.7382 18.3211 21.7416 18.3124L20.3478 17.758C20.2618 17.9742 20.2316 18.1731 20.2493 18.4051L21.745 18.2905ZM20.3302 18.8077C20.4468 19.2582 20.5244 19.5596 20.5676 19.7888C20.6114 20.0214 20.6015 20.0948 20.5987 20.1083L22.0687 20.4071C22.1304 20.1034 22.0957 19.7981 22.0417 19.5112C21.987 19.2207 21.8936 18.8617 21.7823 18.4318L20.3302 18.8077ZM18.418 21.7986C18.8473 21.9101 19.206 22.0036 19.4962 22.0584C19.7829 22.1125 20.0882 22.1473 20.392 22.0854L20.0925 20.6156C20.0796 20.6182 20.0067 20.6282 19.7745 20.5844C19.5457 20.5412 19.2448 20.4635 18.7947 20.3467L18.418 21.7986ZM20.5987 20.1083C20.5467 20.3644 20.347 20.5637 20.0925 20.6156L20.392 22.0854C21.2372 21.9132 21.8969 21.252 22.0687 20.4071L20.5987 20.1083ZM18 14.25L12 14.25V15.75L18 15.75V14.25ZM9.5172 9.52044C6.88208 12.1589 6.54468 16.2242 8.50194 19.2291L9.75882 18.4104C8.18028 15.987 8.45454 12.7071 10.5785 10.5804L9.5172 9.52044ZM8.50194 19.2291C8.79082 19.6726 9.12936 20.0925 9.5172 20.4808L10.5785 19.4208C10.2645 19.1064 9.99139 18.7675 9.75882 18.4104L8.50194 19.2291ZM9 19.5698H9.13038V18.0698H9V19.5698ZM20.4665 9.52044C20.109 9.16253 19.7247 8.8465 19.3198 8.57268L18.4795 9.81521C18.8055 10.0357 19.1157 10.2906 19.4051 10.5804L20.4665 9.52044ZM19.3198 8.57268C16.3081 6.53595 12.183 6.85127 9.5172 9.52044L10.5785 10.5804C12.7268 8.4295 16.0524 8.17382 18.4795 9.81521L19.3198 8.57268ZM15.9826 5.01982C17.1911 6.22983 17.9158 7.73849 18.1585 9.30849L19.6409 9.0794C19.3513 7.20559 18.4851 5.40273 17.044 3.95982L15.9826 5.01982Z" fill="#FAFAFA"/>
</svg>
