<svg width="24" height="24" viewBox="0 0 24 24" fill="none" xmlns="http://www.w3.org/2000/svg">
<path d="M16.6041 19.5103L17.3005 19.2317L16.6041 19.5103ZM14.9415 20.8154L14.5056 21.4257L14.9415 20.8154ZM19.27 2.54497L18.9295 3.21322L19.27 2.54497ZM21.455 4.73005L20.7868 5.07054V5.07054L21.455 4.73005ZM6.73005 2.54497L7.07054 3.21322V3.21322L6.73005 2.54497ZM4.54497 4.73005L5.21322 5.07054L4.54497 4.73005ZM8.5205 20.3635L8.96034 20.971L8.5205 20.3635ZM8.56175 20.3337L8.99767 20.944L8.56175 20.3337ZM10.7769 19.6142L10.7818 20.3642L10.7769 19.6142ZM5.19681 20.8048L5.89446 21.0801L5.19681 20.8048ZM6.48993 21.8337L6.05009 21.2262L6.48993 21.8337ZM14.9956 15.8586L14.2465 15.8236L14.9956 15.8586ZM11.295 19.6097L11.2591 18.8606L11.295 19.6097ZM3.12337 7.42964L2.77921 6.76327L3.12337 7.42964ZM1.42386 9.15232L0.753761 8.81548L1.42386 9.15232ZM12.8766 7.42964L12.5325 8.09601L12.8766 7.42964ZM14.5761 9.15232L15.2462 8.81548L14.5761 9.15232ZM5 13.25C4.58579 13.25 4.25 13.5858 4.25 14C4.25 14.4142 4.58579 14.75 5 14.75V13.25ZM11 14.75C11.4142 14.75 11.75 14.4142 11.75 14C11.75 13.5858 11.4142 13.25 11 13.25V14.75ZM4.0404 7.13287L4.17398 7.87088L4.0404 7.13287ZM12.7481 19.2486L12.4286 18.57L12.7481 19.2486ZM12 2.75H14V1.25H12V2.75ZM21.25 10V14.2283H22.75V10H21.25ZM18.2283 17.25H17.6266V18.75H18.2283V17.25ZM17.6266 17.25C16.3169 17.25 15.4213 18.5728 15.9077 19.7888L17.3005 19.2317C17.2082 19.001 17.3781 18.75 17.6266 18.75V17.25ZM15.9077 19.7888C16.038 20.1145 15.6629 20.409 15.3774 20.2051L14.5056 21.4257C16.0101 22.5003 17.9871 20.9484 17.3005 19.2317L15.9077 19.7888ZM21.25 14.2283C21.25 15.8972 19.8972 17.25 18.2283 17.25V18.75C20.7256 18.75 22.75 16.7256 22.75 14.2283H21.25ZM14 2.75C15.4125 2.75 16.4268 2.75058 17.2229 2.81563C18.0103 2.87996 18.518 3.00359 18.9295 3.21322L19.6104 1.87671C18.9523 1.54138 18.2252 1.39252 17.3451 1.32061C16.4737 1.24942 15.3878 1.25 14 1.25V2.75ZM22.75 10C22.75 8.61224 22.7506 7.52632 22.6794 6.65494C22.6075 5.77479 22.4586 5.04768 22.1233 4.38955L20.7868 5.07054C20.9964 5.48197 21.12 5.9897 21.1844 6.77708C21.2494 7.57322 21.25 8.58749 21.25 10H22.75ZM18.9295 3.21322C19.7291 3.62068 20.3793 4.27085 20.7868 5.07054L22.1233 4.38955C21.572 3.30762 20.6924 2.42798 19.6104 1.87671L18.9295 3.21322ZM12 1.25C10.6122 1.25 9.52632 1.24942 8.65494 1.32061C7.77479 1.39252 7.04769 1.54138 6.38955 1.87671L7.07054 3.21322C7.48197 3.00359 7.9897 2.87996 8.77708 2.81563C9.57322 2.75058 10.5875 2.75 12 2.75V1.25ZM6.38955 1.87671C5.30762 2.42798 4.42798 3.30762 3.87671 4.38955L5.21322 5.07054C5.62068 4.27085 6.27085 3.62068 7.07054 3.21322L6.38955 1.87671ZM8.77778 6.25H7.22222V7.75H8.77778V6.25ZM0.25 13.3071V16.6406H1.75V13.3071H0.25ZM15.75 15.4348V13.3071H14.25V15.4348H15.75ZM3.93351 20.3641H4.40154V18.8641H3.93351V20.3641ZM6.92977 22.4412L8.96034 20.971L8.08066 19.756L6.05009 21.2262L6.92977 22.4412ZM8.96034 20.971C8.98178 20.9555 8.9899 20.9496 8.99767 20.944L8.12582 19.7234C8.11324 19.7324 8.10064 19.7416 8.08066 19.756L8.96034 20.971ZM10.8392 18.8641C10.8073 18.8641 10.7876 18.8641 10.772 18.8642L10.7818 20.3642C10.7912 20.3641 10.8047 20.3641 10.8392 20.3641V18.8641ZM8.99767 20.944C9.5211 20.5702 10.1437 20.3683 10.7818 20.3642L10.772 18.8642C9.82312 18.8704 8.89973 19.1707 8.12582 19.7234L8.99767 20.944ZM4.40154 20.3641C4.43527 20.3641 4.46435 20.378 4.48713 20.4121C4.51021 20.4467 4.51593 20.487 4.49917 20.5294L5.89446 21.0801C6.3081 20.0318 5.55185 18.8641 4.40154 18.8641V20.3641ZM4.49917 20.5294C3.92216 21.9916 5.59144 23.4102 6.92977 22.4412L6.05009 21.2262C6.01521 21.2515 5.99746 21.2503 5.9912 21.2499C5.97819 21.2492 5.95512 21.2431 5.93018 21.2232C5.90527 21.2034 5.89107 21.1798 5.88545 21.161C5.88158 21.1481 5.87698 21.1243 5.89446 21.0801L4.49917 20.5294ZM14.25 15.4348C14.25 15.6637 14.2498 15.7524 14.2465 15.8236L15.7448 15.8936C15.7502 15.7785 15.75 15.6468 15.75 15.4348H14.25ZM10.8392 20.3641C11.0719 20.3641 11.2163 20.3643 11.331 20.3588L11.2591 18.8606C11.1899 18.8639 11.0917 18.8641 10.8392 18.8641V20.3641ZM0.25 16.6406C0.25 18.6874 1.88962 20.3641 3.93351 20.3641V18.8641C2.73713 18.8641 1.75 17.8782 1.75 16.6406H0.25ZM1.75 13.3071C1.75 12.191 1.75057 11.3985 1.80056 10.7783C1.84987 10.1665 1.94359 9.78832 2.09397 9.48916L0.753761 8.81548C0.480278 9.35954 0.362065 9.95485 0.305408 10.6578C0.249432 11.3522 0.25 12.2154 0.25 13.3071H1.75ZM2.77921 6.76327C1.90555 7.21449 1.19712 7.93347 0.753761 8.81548L2.09397 9.48916C2.39629 8.88773 2.87771 8.40064 3.46753 8.09601L2.77921 6.76327ZM8.77778 7.75C9.87931 7.75 10.6597 7.7506 11.2701 7.80115C11.8714 7.85094 12.2408 7.94536 12.5325 8.09601L13.2208 6.76327C12.6806 6.48428 12.0896 6.36388 11.3939 6.30626C10.7073 6.2494 9.85423 6.25 8.77778 6.25V7.75ZM15.75 13.3071C15.75 12.2154 15.7506 11.3522 15.6946 10.6578C15.6379 9.95485 15.5197 9.35954 15.2462 8.81548L13.906 9.48916C14.0564 9.78832 14.1501 10.1665 14.1994 10.7783C14.2494 11.3985 14.25 12.191 14.25 13.3071H15.75ZM12.5325 8.09601C13.1223 8.40064 13.6037 8.88773 13.906 9.48916L15.2462 8.81548C14.8029 7.93347 14.0945 7.21449 13.2208 6.76327L12.5325 8.09601ZM5 14.75H11V13.25H5V14.75ZM7.22222 6.25C5.78087 6.25 4.72362 6.24702 3.90682 6.39486L4.17398 7.87088C4.82539 7.75298 5.71785 7.75 7.22222 7.75V6.25ZM3.90682 6.39486C3.49908 6.46866 3.12859 6.58282 2.77921 6.76327L3.46753 8.09601C3.65679 7.99827 3.87884 7.9243 4.17398 7.87088L3.90682 6.39486ZM4.78935 7.17261C4.84337 6.15438 4.96923 5.54941 5.21322 5.07054L3.87671 4.38955C3.48865 5.15118 3.34898 6.00903 3.29146 7.09313L4.78935 7.17261ZM14.2465 15.8236C14.1893 17.0474 13.459 18.085 12.4286 18.57L13.0675 19.9272C14.5921 19.2095 15.6613 17.6819 15.7448 15.8936L14.2465 15.8236ZM12.4286 18.57C12.0709 18.7385 11.6763 18.8405 11.2591 18.8606L11.331 20.3588C11.9486 20.3292 12.5355 20.1777 13.0675 19.9272L12.4286 18.57ZM15.3774 20.2051L13.184 18.6383L12.3121 19.8589L14.5056 21.4257L15.3774 20.2051Z" fill="#FAFAFA"/>
</svg>
