<svg width="24" height="24" viewBox="0 0 24 24" fill="none" xmlns="http://www.w3.org/2000/svg">
<path d="M19.0711 4.92893C21.2528 7.1107 23.1508 11.6407 21.1571 15.4596C20.9501 15.856 20.8466 16.0543 20.8087 16.1495C20.6478 16.5538 20.6242 16.7601 20.6897 17.1903C20.7052 17.2916 20.7397 17.4249 20.8088 17.6915C21.0161 18.4912 21.1197 18.8911 21.1092 19.1825C21.0715 20.2306 20.2306 21.0715 19.1825 21.1092C18.8911 21.1197 18.4912 21.0161 17.6915 20.8088C17.4248 20.7397 17.2915 20.7052 17.1896 20.6897C16.7594 20.6244 16.547 20.6491 16.1432 20.8115C16.0476 20.85 15.852 20.9531 15.4609 21.1594C11.6559 23.1664 7.20352 21.3457 4.92893 19.0711C1.02369 15.1658 1.02369 8.83418 4.92893 4.92893C8.83418 1.02369 15.1658 1.02369 19.0711 4.92893Z" stroke="#FAFAFA" stroke-width="1.5"/>
<path d="M8.85791 11.8579C8.85791 12.4102 8.41019 12.8579 7.85791 12.8579C7.30563 12.8579 6.85791 12.4102 6.85791 11.8579C6.85791 11.3056 7.30563 10.8579 7.85791 10.8579C8.41019 10.8579 8.85791 11.3056 8.85791 11.8579Z" fill="#FAFAFA"/>
<path d="M12.8579 11.8579C12.8579 12.4102 12.4102 12.8579 11.8579 12.8579C11.3056 12.8579 10.8579 12.4102 10.8579 11.8579C10.8579 11.3056 11.3056 10.8579 11.8579 10.8579C12.4102 10.8579 12.8579 11.3056 12.8579 11.8579Z" fill="#FAFAFA"/>
<path d="M16.8579 11.8579C16.8579 12.4102 16.4102 12.8579 15.8579 12.8579C15.3056 12.8579 14.8579 12.4102 14.8579 11.8579C14.8579 11.3056 15.3056 10.8579 15.8579 10.8579C16.4102 10.8579 16.8579 11.3056 16.8579 11.8579Z" fill="#FAFAFA"/>
</svg>
