<svg width="24" height="24" viewBox="0 0 24 24" fill="none" xmlns="http://www.w3.org/2000/svg">
<path d="M9.14684 18.8449C7.36061 16.1283 7.66095 12.4404 10.0479 10.0504C12.4549 7.64038 16.1803 7.35488 18.8997 9.19395M9.14684 18.8449C9.40395 19.2359 9.70429 19.6068 10.0479 19.9508C11.6362 21.5411 15.0044 22.9161 17.738 21.2246C17.8902 21.1305 17.9662 21.0834 18.0237 21.0606C18.1337 21.017 18.2171 21.0044 18.335 21.0135C18.3967 21.0183 18.4666 21.0364 18.6064 21.0727C19.4858 21.3009 19.9255 21.415 20.2423 21.3505C20.7921 21.2384 21.2218 20.8082 21.3337 20.2577C21.3982 19.9405 21.2842 19.5002 21.0562 18.6197C21.02 18.4797 21.0019 18.4098 20.9972 18.3478C20.9881 18.2297 21.001 18.1453 21.0447 18.0352C21.0677 17.9775 21.1146 17.9019 21.2085 17.7506C22.9037 15.0195 21.5918 11.7085 19.9358 10.0504C19.6124 9.72658 19.2651 9.44108 18.8997 9.19395M9.14684 18.8449L9 18.8198C8.3784 18.6705 7.76467 18.4232 7.17524 18.0585C6.99051 17.9441 6.89815 17.887 6.82831 17.8593C6.69478 17.8064 6.59351 17.791 6.45031 17.8021C6.37542 17.8079 6.29057 17.8299 6.12086 17.874C5.05298 18.1511 4.51904 18.2897 4.13437 18.2113C3.46674 18.0753 2.94496 17.5528 2.80909 16.8843C2.73081 16.4992 2.8692 15.9646 3.14598 14.8954C3.18998 14.7254 3.21198 14.6404 3.21774 14.5652C3.22873 14.4218 3.21312 14.3192 3.15998 14.1856C3.1321 14.1155 3.0751 14.0237 2.96111 13.8401C0.902703 10.5236 2.49573 6.50314 4.50651 4.48982C7.8221 1.17006 13.1977 1.17006 16.5133 4.48982C17.8381 5.81628 18.6336 7.47204 18.8997 9.19395" stroke="#FAFAFA" stroke-width="1.5"/>
<path d="M13 15C13 15.5523 12.5523 16 12 16C11.4477 16 11 15.5523 11 15C11 14.4477 11.4477 14 12 14C12.5523 14 13 14.4477 13 15Z" fill="#FAFAFA"/>
<path d="M16 15C16 15.5523 15.5523 16 15 16C14.4477 16 14 15.5523 14 15C14 14.4477 14.4477 14 15 14C15.5523 14 16 14.4477 16 15Z" fill="#FAFAFA"/>
<path d="M19 15C19 15.5523 18.5523 16 18 16C17.4477 16 17 15.5523 17 15C17 14.4477 17.4477 14 18 14C18.5523 14 19 14.4477 19 15Z" fill="#FAFAFA"/>
</svg>
