<svg width="24" height="24" viewBox="0 0 24 24" fill="none" xmlns="http://www.w3.org/2000/svg">
<path d="M20.0786 6.79014C20.4687 7.66325 20.634 8.8534 20.9182 10.8995C21.3544 14.0399 21.5725 15.6101 21.0929 16.8297C20.672 17.9003 19.8947 18.793 18.8921 19.3573C17.7502 20 16.1649 20 12.9943 20H11.3701C8.19947 20 6.61417 20 5.4722 19.3573C4.46966 18.793 3.69237 17.9003 3.2714 16.8297C2.79187 15.6101 3.00995 14.0399 3.44613 10.8995C3.71221 8.98369 3.87407 7.81829 4.21389 6.96093M20.0786 6.79014C20.0024 6.61965 19.9176 6.46125 19.8217 6.31092C19.3044 5.50008 18.5643 4.85563 17.69 4.45483C16.6978 4 15.4633 4 12.9943 4H11.3701C8.90101 4 7.66649 4 6.67432 4.45483C5.80003 4.85563 5.05988 5.50008 4.54262 6.31092C4.41545 6.51027 4.30786 6.72382 4.21389 6.96093M20.0786 6.79014L19.99 6.87868L19.1319 7.7368C15.7986 11.0701 14.1319 12.7368 12.0608 12.7368C9.98976 12.7368 8.32309 11.0701 4.98976 7.7368L4.21389 6.96093" stroke="#FAFAFA" stroke-width="1.5"/>
</svg>
