<svg width="24" height="24" viewBox="0 0 24 24" fill="none" xmlns="http://www.w3.org/2000/svg">
<path d="M20.8906 15.9277L21.5286 16.322L20.8906 15.9277ZM20.6563 16.3364L19.959 16.0602L20.6563 16.3364ZM20.6736 17.1696L21.3996 16.9814L20.6736 17.1696ZM20.589 16.7816L21.3368 16.7238L20.589 16.7816ZM17.1696 20.6736L16.9814 21.3996L17.1696 20.6736ZM16.7812 20.589L16.8386 19.8412L16.7812 20.589ZM15.9282 20.8913L16.3241 21.5283L15.9282 20.8913ZM16.3347 20.6571L16.6122 21.3538L16.3347 20.6571ZM19.5094 21.0704L19.3598 20.3354L19.5094 21.0704ZM21.0704 19.5094L20.3354 19.3598L21.0704 19.5094ZM7.85786 13.1079C7.44365 13.1079 7.10786 13.4437 7.10786 13.8579C7.10786 14.2721 7.44365 14.6079 7.85786 14.6079V13.1079ZM15.8579 14.6079C16.2721 14.6079 16.6079 14.2721 16.6079 13.8579C16.6079 13.4437 16.2721 13.1079 15.8579 13.1079V14.6079ZM7.85786 9.10788C7.44365 9.10788 7.10786 9.44367 7.10786 9.85788C7.10786 10.2721 7.44365 10.6079 7.85786 10.6079V9.10788ZM15.8579 10.6079C16.2721 10.6079 16.6079 10.2721 16.6079 9.85788C16.6079 9.44367 16.2721 9.10788 15.8579 9.10788V10.6079ZM5.45926 18.5407C1.84691 14.9284 1.84691 9.07161 5.45926 5.45926L4.3986 4.3986C0.200466 8.59674 0.200466 15.4033 4.3986 19.6014L5.45926 18.5407ZM5.45926 5.45926C9.07161 1.84691 14.9284 1.84691 18.5407 5.45926L19.6014 4.3986C15.4033 0.200466 8.59674 0.200466 4.3986 4.3986L5.45926 5.45926ZM15.5323 20.2543C13.785 21.3402 11.8402 21.475 10.0253 21.0484C8.19937 20.6193 6.54798 19.6295 5.45926 18.5407L4.3986 19.6014C5.67827 20.8811 7.57586 22.0136 9.68213 22.5086C11.7994 23.0062 14.1701 22.8669 16.3241 21.5283L15.5323 20.2543ZM18.5407 5.45926C19.5788 6.4973 20.5687 8.14644 21.0093 9.98851C21.4475 11.8201 21.332 13.7868 20.2526 15.5335L21.5286 16.322C22.8653 14.1588 22.9759 11.762 22.4682 9.63953C21.963 7.52758 20.835 5.63222 19.6014 4.3986L18.5407 5.45926ZM20.2526 15.5335C20.1393 15.7167 20.0227 15.8993 19.959 16.0602L21.3536 16.6125C21.3486 16.6252 21.3505 16.6166 21.3832 16.5604C21.4149 16.5061 21.4592 16.4342 21.5286 16.322L20.2526 15.5335ZM21.3996 16.9814C21.3725 16.877 21.3566 16.8152 21.3459 16.7682C21.3359 16.7239 21.3362 16.7165 21.3368 16.7238L19.8413 16.8394C19.8545 17.0103 19.9037 17.1887 19.9475 17.3578L21.3996 16.9814ZM19.959 16.0602C19.8547 16.3235 19.8194 16.557 19.8413 16.8394L21.3368 16.7238C21.3335 16.681 21.3358 16.6679 21.336 16.6668C21.3362 16.6656 21.3378 16.6524 21.3536 16.6125L19.959 16.0602ZM17.3578 19.9475C17.1886 19.9037 17.0101 19.8544 16.8386 19.8412L16.7239 21.3368C16.7166 21.3363 16.724 21.336 16.7682 21.3459C16.8152 21.3566 16.877 21.3725 16.9814 21.3996L17.3578 19.9475ZM16.3241 21.5283C16.4356 21.459 16.5068 21.4149 16.5606 21.3833C16.6162 21.3508 16.6247 21.3489 16.6122 21.3538L16.0572 19.9603C15.896 20.0245 15.7143 20.1412 15.5323 20.2543L16.3241 21.5283ZM16.8386 19.8412C16.5559 19.8195 16.3207 19.8554 16.0572 19.9603L16.6122 21.3538C16.6515 21.3382 16.665 21.3364 16.6666 21.3362C16.6683 21.3359 16.6817 21.3336 16.7239 21.3368L16.8386 19.8412ZM16.9814 21.3996C17.6 21.5599 18.1005 21.69 18.5023 21.7658C18.9006 21.8409 19.2871 21.881 19.659 21.8053L19.3598 20.3354C19.2786 20.352 19.1241 20.3566 18.7803 20.2918C18.4399 20.2276 17.997 20.1132 17.3578 19.9475L16.9814 21.3996ZM19.9475 17.3578C20.1132 17.997 20.2276 18.4399 20.2918 18.7803C20.3566 19.1241 20.352 19.2786 20.3354 19.3598L21.8053 19.659C21.881 19.2871 21.8409 18.9006 21.7658 18.5023C21.69 18.1005 21.5599 17.6 21.3996 16.9814L19.9475 17.3578ZM19.659 21.8053C20.7402 21.5852 21.5852 20.7402 21.8053 19.659L20.3354 19.3598C20.2354 19.8513 19.8513 20.2354 19.3598 20.3354L19.659 21.8053ZM7.85786 14.6079H15.8579V13.1079H7.85786V14.6079ZM7.85786 10.6079H15.8579V9.10788H7.85786V10.6079Z" fill="#FAFAFA"/>
</svg>
