<svg width="24" height="24" viewBox="0 0 24 24" fill="none" xmlns="http://www.w3.org/2000/svg">
<path d="M8.09562 20.8906L7.70135 21.5286L8.09562 20.8906ZM7.68699 20.6563L7.96312 19.959L7.68699 20.6563ZM6.85373 20.6736L7.0419 21.3996L6.85373 20.6736ZM7.24178 20.589L7.29956 21.3368L7.24178 20.589ZM3.34979 17.1696L2.62378 16.9814L3.34979 17.1696ZM3.43431 16.7812L4.18211 16.8386L3.43431 16.7812ZM3.13203 15.9282L2.49502 16.3241L3.13203 15.9282ZM3.36627 16.3347L2.6695 16.6122L3.36627 16.3347ZM2.95298 19.5094L3.68792 19.3598L2.95298 19.5094ZM4.51396 21.0704L4.66353 20.3354L4.51396 21.0704ZM8.05279 13.1078C7.63858 13.1078 7.30279 13.4436 7.30279 13.8578C7.30279 14.272 7.63858 14.6078 8.05279 14.6078V13.1078ZM16.0528 14.6078C16.467 14.6078 16.8028 14.272 16.8028 13.8578C16.8028 13.4436 16.467 13.1078 16.0528 13.1078V14.6078ZM8.05279 9.1078C7.63858 9.1078 7.30279 9.44359 7.30279 9.8578C7.30279 10.272 7.63858 10.6078 8.05279 10.6078V9.1078ZM16.0528 10.6078C16.467 10.6078 16.8028 10.272 16.8028 9.8578C16.8028 9.44359 16.467 9.1078 16.0528 9.1078V10.6078ZM5.48261 5.45926C9.09496 1.84691 14.9517 1.84691 18.5641 5.45926L19.6247 4.3986C15.4266 0.200466 8.62009 0.200466 4.42195 4.3986L5.48261 5.45926ZM18.5641 5.45926C22.1764 9.07161 22.1764 14.9284 18.5641 18.5407L19.6247 19.6014C23.8229 15.4033 23.8229 8.59674 19.6247 4.3986L18.5641 5.45926ZM3.76904 15.5323C2.68315 13.785 2.5484 11.8402 2.97494 10.0253C3.40407 8.19937 4.39389 6.54798 5.48261 5.45926L4.42195 4.3986C3.14228 5.67827 2.00974 7.57586 1.51472 9.68213C1.01712 11.7994 1.15644 14.1701 2.49502 16.3241L3.76904 15.5323ZM18.5641 18.5407C17.5261 19.5788 15.8769 20.5687 14.0348 21.0093C12.2032 21.4475 10.2366 21.332 8.4899 20.2526L7.70135 21.5286C9.8645 22.8653 12.2614 22.9759 14.3838 22.4682C16.4958 21.963 18.3911 20.835 19.6247 19.6014L18.5641 18.5407ZM8.4899 20.2526C8.30665 20.1393 8.12408 20.0227 7.96312 19.959L7.41086 21.3536C7.39817 21.3486 7.40673 21.3505 7.46297 21.3832C7.51725 21.4149 7.58911 21.4592 7.70135 21.5286L8.4899 20.2526ZM7.0419 21.3996C7.1463 21.3725 7.20817 21.3566 7.25518 21.3459C7.29944 21.3359 7.30684 21.3362 7.29956 21.3368L7.18399 19.8413C7.01304 19.8545 6.83467 19.9037 6.66555 19.9475L7.0419 21.3996ZM7.96312 19.959C7.69983 19.8547 7.46635 19.8194 7.18399 19.8413L7.29956 21.3368C7.34236 21.3335 7.35548 21.3358 7.3566 21.336C7.35771 21.3362 7.37094 21.3378 7.41086 21.3536L7.96312 19.959ZM4.0758 17.3578C4.11965 17.1886 4.16896 17.0101 4.18211 16.8386L2.68651 16.7239C2.68706 16.7166 2.68739 16.724 2.67741 16.7682C2.66678 16.8152 2.65085 16.877 2.62378 16.9814L4.0758 17.3578ZM2.49502 16.3241C2.56432 16.4356 2.6085 16.5068 2.64002 16.5606C2.67259 16.6162 2.67448 16.6247 2.6695 16.6122L4.06305 16.0572C3.99882 15.896 3.88211 15.7143 3.76904 15.5323L2.49502 16.3241ZM4.18211 16.8386C4.2038 16.5559 4.16796 16.3207 4.06305 16.0572L2.6695 16.6122C2.68515 16.6515 2.68692 16.665 2.68717 16.6666C2.68742 16.6683 2.68974 16.6817 2.68651 16.7239L4.18211 16.8386ZM2.62378 16.9814C2.46345 17.6 2.33331 18.1005 2.25755 18.5023C2.18244 18.9006 2.14238 19.2871 2.21805 19.659L3.68792 19.3598C3.67139 19.2786 3.66672 19.1241 3.73157 18.7803C3.79576 18.4399 3.91012 17.997 4.0758 17.3578L2.62378 16.9814ZM6.66555 19.9475C6.02634 20.1132 5.58349 20.2276 5.24309 20.2918C4.89922 20.3566 4.74477 20.352 4.66353 20.3354L4.36439 21.8053C4.73623 21.881 5.12276 21.8409 5.52105 21.7658C5.92283 21.69 6.42332 21.5599 7.0419 21.3996L6.66555 19.9475ZM2.21805 19.659C2.4381 20.7402 3.28313 21.5852 4.36439 21.8053L4.66353 20.3354C4.17205 20.2354 3.78794 19.8513 3.68792 19.3598L2.21805 19.659ZM8.05279 14.6078H16.0528V13.1078H8.05279V14.6078ZM8.05279 10.6078H16.0528V9.1078H8.05279V10.6078Z" fill="#FAFAFA"/>
</svg>
