<svg width="24" height="24" viewBox="0 0 24 24" fill="none" xmlns="http://www.w3.org/2000/svg">
<path d="M11.6692 18.9506L12.1051 19.5609L11.6692 18.9506ZM11.7222 18.9128L11.2902 18.2997L11.7222 18.9128ZM14.5703 18.0001L14.5751 18.7501L14.5703 18.0001ZM7.3959 19.5103L8.09226 19.7888L7.3959 19.5103ZM9.05848 20.8154L8.62255 20.2051H8.62255L9.05848 20.8154ZM21.798 14.4069L22.5177 14.6179L21.798 14.4069ZM18.4069 17.798L18.6179 18.5177L18.4069 17.798ZM4.73005 2.54497L5.07054 3.21322L4.73005 2.54497ZM2.54497 4.73005L3.21322 5.07054L2.54497 4.73005ZM19.27 2.54497L18.9295 3.21322L19.27 2.54497ZM21.455 4.73005L20.7868 5.07054L21.455 4.73005ZM8 11.75C7.58579 11.75 7.25 12.0858 7.25 12.5C7.25 12.9142 7.58579 13.25 8 13.25V11.75ZM16 13.25C16.4142 13.25 16.75 12.9142 16.75 12.5C16.75 12.0858 16.4142 11.75 16 11.75V13.25ZM8 7.25C7.58579 7.25 7.25 7.58579 7.25 8C7.25 8.41421 7.58579 8.75 8 8.75V7.25ZM16 8.75C16.4142 8.75 16.75 8.41421 16.75 8C16.75 7.58579 16.4142 7.25 16 7.25V8.75ZM14 1.25H10V2.75H14V1.25ZM1.25 10V14.2283H2.75V10H1.25ZM22.75 11.1842V10H21.25V11.1842H22.75ZM5.77166 18.75H6.37341V17.25H5.77166V18.75ZM9.49441 21.4257L12.1051 19.5609L11.2333 18.3403L8.62255 20.2051L9.49441 21.4257ZM14.6354 18.75H15.1842V17.25H14.6354V18.75ZM12.1051 19.5609C12.1325 19.5413 12.1436 19.5334 12.1543 19.5259L11.2902 18.2997C11.2747 18.3107 11.2592 18.3218 11.2333 18.3403L12.1051 19.5609ZM14.6354 17.25C14.6036 17.25 14.5845 17.25 14.5655 17.2501L14.5751 18.7501C14.5882 18.75 14.6018 18.75 14.6354 18.75V17.25ZM12.1543 19.5259C12.8632 19.0264 13.7079 18.7556 14.5751 18.7501L14.5655 17.2501C13.3922 17.2576 12.2493 17.6239 11.2902 18.2997L12.1543 19.5259ZM6.37341 18.75C6.62191 18.75 6.79183 19.001 6.69954 19.2317L8.09226 19.7888C8.57867 18.5728 7.68311 17.25 6.37341 17.25V18.75ZM6.69954 19.2317C6.01288 20.9484 7.9899 22.5003 9.49441 21.4257L8.62255 20.2051C8.33709 20.409 7.96197 20.1145 8.09226 19.7888L6.69954 19.2317ZM21.25 11.1842C21.25 12.9261 21.2424 13.6363 21.0783 14.1958L22.5177 14.6179C22.7576 13.7996 22.75 12.8206 22.75 11.1842H21.25ZM15.1842 18.75C16.8206 18.75 17.7996 18.7576 18.6179 18.5177L18.1958 17.0783C17.6363 17.2424 16.9261 17.25 15.1842 17.25V18.75ZM21.0783 14.1958C20.671 15.5848 19.5848 16.671 18.1958 17.0783L18.6179 18.5177C20.4971 17.9667 21.9667 16.4971 22.5177 14.6179L21.0783 14.1958ZM1.25 14.2283C1.25 16.7256 3.27441 18.75 5.77166 18.75V17.25C4.10284 17.25 2.75 15.8972 2.75 14.2283H1.25ZM10 1.25C8.61224 1.25 7.52632 1.24942 6.65494 1.32061C5.77479 1.39252 5.04768 1.54138 4.38955 1.87671L5.07054 3.21322C5.48197 3.00359 5.9897 2.87996 6.77708 2.81563C7.57322 2.75058 8.58749 2.75 10 2.75V1.25ZM2.75 10C2.75 8.58749 2.75058 7.57322 2.81563 6.77708C2.87996 5.9897 3.00359 5.48197 3.21322 5.07054L1.87671 4.38955C1.54138 5.04768 1.39252 5.77479 1.32061 6.65494C1.24942 7.52632 1.25 8.61224 1.25 10H2.75ZM4.38955 1.87671C3.30762 2.42798 2.42798 3.30762 1.87671 4.38955L3.21322 5.07054C3.62068 4.27085 4.27085 3.62068 5.07054 3.21322L4.38955 1.87671ZM14 2.75C15.4125 2.75 16.4268 2.75058 17.2229 2.81563C18.0103 2.87996 18.518 3.00359 18.9295 3.21322L19.6104 1.87671C18.9523 1.54138 18.2252 1.39252 17.3451 1.32061C16.4737 1.24942 15.3878 1.25 14 1.25V2.75ZM22.75 10C22.75 8.61224 22.7506 7.52632 22.6794 6.65494C22.6075 5.77479 22.4586 5.04768 22.1233 4.38955L20.7868 5.07054C20.9964 5.48197 21.12 5.9897 21.1844 6.77708C21.2494 7.57322 21.25 8.58749 21.25 10H22.75ZM18.9295 3.21322C19.7291 3.62068 20.3793 4.27085 20.7868 5.07054L22.1233 4.38955C21.572 3.30762 20.6924 2.42798 19.6104 1.87671L18.9295 3.21322ZM8 13.25H16V11.75H8V13.25ZM8 8.75H16V7.25H8V8.75Z" fill="#FAFAFA"/>
</svg>
