<svg width="24" height="24" viewBox="0 0 24 24" fill="none" xmlns="http://www.w3.org/2000/svg">
<path d="M19.0944 19.0711C16.8228 21.3427 12.0054 23.3067 8.09562 20.8906C7.87804 20.7561 7.76925 20.6889 7.68699 20.6563C7.52971 20.594 7.41043 20.576 7.24178 20.589C7.15356 20.5958 7.05362 20.6217 6.85373 20.6736C5.59593 20.9996 4.96704 21.1626 4.51396 21.0704C3.72759 20.9103 3.11302 20.2958 2.95298 19.5094C2.86078 19.0563 3.02378 18.4274 3.34979 17.1696C3.40161 16.9697 3.42752 16.8697 3.43431 16.7812C3.44725 16.6126 3.42886 16.4919 3.36627 16.3347C3.33344 16.2523 3.2663 16.1442 3.13203 15.9282C0.707556 12.0269 2.58389 7.29732 4.95228 4.92893C8.85752 1.02369 15.1892 1.02369 19.0944 4.92893C22.9997 8.83418 22.9997 15.1658 19.0944 19.0711Z" stroke="#FAFAFA" stroke-width="1.5"/>
<path d="M9.05273 11.8578C9.05273 12.4101 8.60502 12.8578 8.05273 12.8578C7.50045 12.8578 7.05273 12.4101 7.05273 11.8578C7.05273 11.3055 7.50045 10.8578 8.05273 10.8578C8.60502 10.8578 9.05273 11.3055 9.05273 11.8578Z" fill="#FAFAFA"/>
<path d="M13.0527 11.8578C13.0527 12.4101 12.605 12.8578 12.0527 12.8578C11.5004 12.8578 11.0527 12.4101 11.0527 11.8578C11.0527 11.3055 11.5004 10.8578 12.0527 10.8578C12.605 10.8578 13.0527 11.3055 13.0527 11.8578Z" fill="#FAFAFA"/>
<path d="M17.0527 11.8578C17.0527 12.4101 16.605 12.8578 16.0527 12.8578C15.5005 12.8578 15.0527 12.4101 15.0527 11.8578C15.0527 11.3055 15.5005 10.8578 16.0527 10.8578C16.605 10.8578 17.0527 11.3055 17.0527 11.8578Z" fill="#FAFAFA"/>
</svg>
