<svg width="24" height="24" viewBox="0 0 24 24" fill="none" xmlns="http://www.w3.org/2000/svg">
<path d="M4.92893 7.92893L5.45926 7.3986L4.92893 7.92893ZM3 6L3.53033 5.46967L3 6ZM4.06107 20.0451L4.50191 19.4383H4.50191L4.06107 20.0451ZM2.95491 18.9389L2.34815 19.3798L2.95491 18.9389ZM21.0451 18.9389L20.4383 18.4981V18.4981L21.0451 18.9389ZM19.9389 20.0451L19.4981 19.4383V19.4383L19.9389 20.0451ZM4.06107 3.95491L3.62023 3.34815L3.62023 3.34815L4.06107 3.95491ZM2.95491 5.06107L2.34815 4.62023L2.34815 4.62023L2.95491 5.06107ZM17.519 10.5158C17.818 10.2292 17.8281 9.75441 17.5414 9.45538C17.2548 9.15636 16.78 9.14631 16.481 9.43294L17.519 10.5158ZM22.7424 9.9651C22.7373 9.55092 22.3974 9.21931 21.9832 9.22443C21.569 9.22956 21.2374 9.56947 21.2425 9.98365L22.7424 9.9651ZM14.991 3.75715C15.4052 3.76212 15.745 3.43038 15.7499 3.0162C15.7549 2.60201 15.4232 2.26222 15.009 2.25726L14.991 3.75715ZM2.62103 5.62103L1.94538 5.29546L2.62103 5.62103ZM5.45926 7.3986L3.53033 5.46967L2.46967 6.53033L4.3986 8.45926L5.45926 7.3986ZM4.3986 8.45926C6.05028 10.1109 7.34126 11.4042 8.48288 12.2752C9.64181 13.1594 10.7345 13.6789 12 13.6789V12.1789C11.1944 12.1789 10.4183 11.8651 9.39275 11.0827C8.34994 10.287 7.14092 9.08026 5.45926 7.3986L4.3986 8.45926ZM11 3.75H13V2.25H11V3.75ZM13 20.25H11V21.75H13V20.25ZM11 20.25C9.10843 20.25 7.74999 20.249 6.69804 20.135C5.66013 20.0225 5.00992 19.8074 4.50191 19.4383L3.62024 20.6518C4.42656 21.2377 5.37094 21.5 6.53648 21.6263C7.68798 21.751 9.14184 21.75 11 21.75V20.25ZM1.25 12C1.25 13.8582 1.24897 15.312 1.37373 16.4635C1.50001 17.6291 1.76232 18.5734 2.34815 19.3798L3.56168 18.4981C3.19259 17.9901 2.97745 17.3399 2.865 16.302C2.75103 15.25 2.75 13.8916 2.75 12H1.25ZM4.50191 19.4383C4.14111 19.1762 3.82382 18.8589 3.56168 18.4981L2.34815 19.3798C2.70281 19.8679 3.13209 20.2972 3.62024 20.6518L4.50191 19.4383ZM21.25 12C21.25 13.8916 21.249 15.25 21.135 16.302C21.0225 17.3399 20.8074 17.9901 20.4383 18.4981L21.6518 19.3798C22.2377 18.5734 22.5 17.6291 22.6263 16.4635C22.751 15.312 22.75 13.8582 22.75 12H21.25ZM13 21.75C14.8582 21.75 16.312 21.751 17.4635 21.6263C18.6291 21.5 19.5734 21.2377 20.3798 20.6518L19.4981 19.4383C18.9901 19.8074 18.3399 20.0225 17.302 20.135C16.25 20.249 14.8916 20.25 13 20.25V21.75ZM20.4383 18.4981C20.1762 18.8589 19.8589 19.1762 19.4981 19.4383L20.3798 20.6518C20.8679 20.2972 21.2972 19.8679 21.6518 19.3798L20.4383 18.4981ZM11 2.25C9.14184 2.25 7.68798 2.24897 6.53648 2.37373C5.37094 2.50001 4.42656 2.76232 3.62023 3.34815L4.50191 4.56168C5.00992 4.19259 5.66013 3.97745 6.69804 3.865C7.74999 3.75103 9.10843 3.75 11 3.75V2.25ZM3.62023 3.34815C3.13209 3.70281 2.70281 4.13209 2.34815 4.62023L3.56168 5.50191C3.82382 5.14111 4.14111 4.82382 4.50191 4.56168L3.62023 3.34815ZM16.481 9.43294C14.403 11.4248 13.2532 12.1789 12 12.1789V13.6789C13.9309 13.6789 15.4872 12.4633 17.519 10.5158L16.481 9.43294ZM22.75 12C22.75 11.2553 22.75 10.5786 22.7424 9.9651L21.2425 9.98365C21.25 10.586 21.25 11.2528 21.25 12H22.75ZM13 3.75C13.7367 3.75 14.3952 3.75001 14.991 3.75715L15.009 2.25726C14.4025 2.24999 13.7343 2.25 13 2.25V3.75ZM21.25 5C21.25 5.69036 20.6904 6.25 20 6.25V7.75C21.5188 7.75 22.75 6.51878 22.75 5H21.25ZM20 6.25C19.3096 6.25 18.75 5.69036 18.75 5H17.25C17.25 6.51878 18.4812 7.75 20 7.75V6.25ZM18.75 5C18.75 4.30964 19.3096 3.75 20 3.75V2.25C18.4812 2.25 17.25 3.48122 17.25 5H18.75ZM20 3.75C20.6904 3.75 21.25 4.30964 21.25 5H22.75C22.75 3.48122 21.5188 2.25 20 2.25V3.75ZM2.75 12C2.75 10.3648 2.75049 9.12493 2.8255 8.13204C2.90037 7.14093 3.04588 6.46709 3.29668 5.9466L1.94538 5.29546C1.57515 6.06379 1.41014 6.95506 1.32976 8.01904C1.24951 9.08125 1.25 10.3864 1.25 12H2.75ZM3.29668 5.9466C3.37348 5.78722 3.46113 5.64031 3.56168 5.50191L2.34815 4.62023C2.19354 4.83304 2.06012 5.05734 1.94538 5.29546L3.29668 5.9466ZM3.53033 5.46967L3.15136 5.0907L2.0907 6.15136L2.46967 6.53033L3.53033 5.46967Z" fill="#FAFAFA"/>
</svg>
