<svg width="24" height="24" viewBox="0 0 24 24" fill="none" xmlns="http://www.w3.org/2000/svg">
<path d="M12.6692 18.9506L13.1051 19.5609L12.6692 18.9506ZM12.7222 18.9128L12.2902 18.2997L12.7222 18.9128ZM15.5703 18.0001L15.5751 18.7501L15.5703 18.0001ZM8.3959 19.5103L9.09226 19.7888L8.3959 19.5103ZM10.0585 20.8154L9.62255 20.2051H9.62255L10.0585 20.8154ZM20.9944 13.2364L20.2452 13.201L20.9944 13.2364ZM16.2364 17.9944L16.201 17.2452L16.2364 17.9944ZM5.73005 2.54497L6.07054 3.21322L5.73005 2.54497ZM3.54497 4.73005L4.21322 5.07054L3.54497 4.73005ZM18.27 2.54497L17.9295 3.21322L18.27 2.54497ZM20.455 4.73005L19.7868 5.07054L20.455 4.73005ZM7.46967 9.46967C7.17678 9.76256 7.17678 10.2374 7.46967 10.5303C7.76256 10.8232 8.23744 10.8232 8.53033 10.5303L7.46967 9.46967ZM16.5303 10.5303C16.8232 10.2374 16.8232 9.76256 16.5303 9.46967C16.2374 9.17678 15.7626 9.17678 15.4697 9.46967L16.5303 10.5303ZM12 10L11.2885 10.2372L12 10ZM13 1.25H11V2.75H13V1.25ZM2.25 10V14.2283H3.75V10H2.25ZM21.75 12.6988V10H20.25V12.6988H21.75ZM6.77166 18.75H7.37341V17.25H6.77166V18.75ZM10.4944 21.4257L13.1051 19.5609L12.2333 18.3403L9.62255 20.2051L10.4944 21.4257ZM13.1051 19.5609C13.1325 19.5413 13.1436 19.5334 13.1543 19.5259L12.2902 18.2997C12.2747 18.3107 12.2592 18.3218 12.2333 18.3403L13.1051 19.5609ZM15.6504 17.25C15.609 17.25 15.5846 17.25 15.5655 17.2501L15.5751 18.7501C15.5881 18.75 15.6063 18.75 15.6504 18.75V17.25ZM13.1543 19.5259C13.8632 19.0264 14.7079 18.7556 15.5751 18.7501L15.5655 17.2501C14.3922 17.2576 13.2493 17.6239 12.2902 18.2997L13.1543 19.5259ZM7.37341 18.75C7.62191 18.75 7.79183 19.001 7.69954 19.2317L9.09226 19.7888C9.57867 18.5728 8.68311 17.25 7.37341 17.25V18.75ZM7.69954 19.2317C7.01288 20.9484 8.9899 22.5003 10.4944 21.4257L9.62255 20.2051C9.33709 20.409 8.96197 20.1145 9.09226 19.7888L7.69954 19.2317ZM20.25 12.6988C20.25 12.9871 20.2498 13.105 20.2452 13.201L21.7436 13.2719C21.7502 13.1316 21.75 12.9699 21.75 12.6988H20.25ZM15.6504 18.75C15.9525 18.75 16.1313 18.7502 16.2719 18.7436L16.201 17.2452C16.1053 17.2498 15.9721 17.25 15.6504 17.25V18.75ZM20.2452 13.201C20.1416 15.3902 18.3902 17.1416 16.201 17.2452L16.2719 18.7436C19.2338 18.6033 21.6033 16.2338 21.7436 13.2719L20.2452 13.201ZM2.25 14.2283C2.25 16.7256 4.27441 18.75 6.77166 18.75V17.25C5.10284 17.25 3.75 15.8972 3.75 14.2283H2.25ZM11 1.25C9.61224 1.25 8.52632 1.24942 7.65494 1.32061C6.77479 1.39252 6.04768 1.54138 5.38955 1.87671L6.07054 3.21322C6.48197 3.00359 6.9897 2.87996 7.77708 2.81563C8.57322 2.75058 9.58749 2.75 11 2.75V1.25ZM3.75 10C3.75 8.58749 3.75058 7.57322 3.81563 6.77708C3.87996 5.9897 4.00359 5.48197 4.21322 5.07054L2.87671 4.38955C2.54138 5.04768 2.39252 5.77479 2.32061 6.65494C2.24942 7.52632 2.25 8.61224 2.25 10H3.75ZM5.38955 1.87671C4.30762 2.42798 3.42798 3.30762 2.87671 4.38955L4.21322 5.07054C4.62068 4.27085 5.27085 3.62068 6.07054 3.21322L5.38955 1.87671ZM13 2.75C14.4125 2.75 15.4268 2.75058 16.2229 2.81563C17.0103 2.87996 17.518 3.00359 17.9295 3.21322L18.6104 1.87671C17.9523 1.54138 17.2252 1.39252 16.3451 1.32061C15.4737 1.24942 14.3878 1.25 13 1.25V2.75ZM21.75 10C21.75 8.61224 21.7506 7.52632 21.6794 6.65494C21.6075 5.77479 21.4586 5.04768 21.1233 4.38955L19.7868 5.07054C19.9964 5.48197 20.12 5.9897 20.1844 6.77708C20.2494 7.57322 20.25 8.58749 20.25 10H21.75ZM17.9295 3.21322C18.7291 3.62068 19.3793 4.27085 19.7868 5.07054L21.1233 4.38955C20.572 3.30762 19.6924 2.42798 18.6104 1.87671L17.9295 3.21322ZM8.53033 10.5303L9.29426 9.7664L8.2336 8.70574L7.46967 9.46967L8.53033 10.5303ZM15.7664 11.2943L16.5303 10.5303L15.4697 9.46967L14.7057 10.2336L15.7664 11.2943ZM11.2885 10.2372C11.9242 12.1444 14.3448 12.7158 15.7664 11.2943L14.7057 10.2336C14.0726 10.8667 12.9946 10.6122 12.7115 9.76283L11.2885 10.2372ZM9.29426 9.7664C9.92735 9.13331 11.0054 9.38779 11.2885 10.2372L12.7115 9.76283C12.0758 7.8556 9.65517 7.28417 8.2336 8.70574L9.29426 9.7664Z" fill="#FAFAFA"/>
</svg>
