<svg width="24" height="24" viewBox="0 0 24 24" fill="none" xmlns="http://www.w3.org/2000/svg">
<path d="M2.60805 5.64824C2 6.93577 2 8.77405 2 12C2 15.7497 2 17.6246 2.95491 18.9389C3.26331 19.3634 3.6366 19.7367 4.06107 20.0451C5.3754 21 7.25027 21 11 21H13C16.7497 21 18.6246 21 19.9389 20.0451C20.3634 19.7367 20.7367 19.3634 21.0451 18.9389C22 17.6246 22 15.7497 22 12C22 8.75125 22 6.90985 21.379 5.62103M2.60805 5.64824C2.70677 5.4392 2.82153 5.24467 2.95491 5.06107C3.26331 4.6366 3.6366 4.26331 4.06107 3.95491C5.3754 3 7.25027 3 11 3H13C16.7497 3 18.6246 3 19.9389 3.95491C20.3634 4.26331 20.7367 4.6366 21.0451 5.06107C21.1727 5.23667 21.2832 5.42228 21.379 5.62103M2.60805 5.64824L3 6L4.92893 7.92893C8.26227 11.2623 9.92893 12.9289 12 12.9289C14.0711 12.9289 15.7377 11.2623 19.0711 7.92894L21 6L21.379 5.62103" stroke="#FAFAFA" stroke-width="1.5"/>
</svg>
