<svg width="24" height="24" viewBox="0 0 24 24" fill="none" xmlns="http://www.w3.org/2000/svg">
<path d="M11.37 19.25C10.9558 19.25 10.62 19.5858 10.62 20C10.62 20.4142 10.9558 20.75 11.37 20.75V19.25ZM20.9182 10.8995L20.1753 11.0026V11.0026L20.9182 10.8995ZM21.0929 16.8297L21.7909 17.1041L21.0929 16.8297ZM18.8921 19.3573L18.5242 18.7037L18.8921 19.3573ZM17.69 4.45483L18.0025 3.77306V3.77306L17.69 4.45483ZM19.8217 6.31092L19.1894 6.71429L19.8217 6.31092ZM6.67429 4.45483L6.36174 3.77306V3.77306L6.67429 4.45483ZM2.70322 10.7963C2.64624 11.2066 2.93264 11.5853 3.34292 11.6423C3.75319 11.6993 4.13198 11.4129 4.18896 11.0026L2.70322 10.7963ZM4.54259 6.31092L3.91029 5.90756L4.54259 6.31092ZM4.98972 7.7368L5.52005 7.20647L5.51062 7.19704L5.50086 7.18795L4.98972 7.7368ZM19.99 6.87868L19.4597 6.34835V6.34835L19.99 6.87868ZM19.1319 7.7368L18.6015 7.20647L18.6015 7.20647L19.1319 7.7368ZM2 17.25C1.58579 17.25 1.25 17.5858 1.25 18C1.25 18.4142 1.58579 18.75 2 18.75V17.25ZM8 18.75C8.41421 18.75 8.75 18.4142 8.75 18C8.75 17.5858 8.41421 17.25 8 17.25V18.75ZM2 14.25C1.58579 14.25 1.25 14.5858 1.25 15C1.25 15.4142 1.58579 15.75 2 15.75V14.25ZM5 15.75C5.41421 15.75 5.75 15.4142 5.75 15C5.75 14.5858 5.41421 14.25 5 14.25V15.75ZM11.37 4.75H12.9942V3.25H11.37V4.75ZM12.9942 19.25H11.37V20.75H12.9942V19.25ZM20.1753 11.0026C20.3952 12.5859 20.5529 13.7262 20.5999 14.6241C20.6466 15.5146 20.5782 16.089 20.3949 16.5552L21.7909 17.1041C22.0871 16.3508 22.1495 15.5303 22.0979 14.5457C22.0467 13.5685 21.8773 12.3534 21.661 10.7963L20.1753 11.0026ZM12.9942 20.75C14.5663 20.75 15.7931 20.7506 16.7681 20.6669C17.7504 20.5825 18.5546 20.4079 19.26 20.0109L18.5242 18.7037C18.0876 18.9494 17.5281 19.0961 16.6397 19.1724C15.7439 19.2494 14.5927 19.25 12.9942 19.25V20.75ZM20.3949 16.5552C20.0371 17.4652 19.3764 18.2241 18.5242 18.7037L19.26 20.0109C20.4129 19.362 21.3068 18.3353 21.7909 17.1041L20.3949 16.5552ZM12.9942 4.75C14.2402 4.75 15.1326 4.75051 15.8386 4.80466C16.5352 4.85809 16.9938 4.96075 17.3774 5.13661L18.0025 3.77306C17.394 3.49408 16.7392 3.36933 15.9533 3.30905C15.1767 3.24949 14.2173 3.25 12.9942 3.25V4.75ZM17.3774 5.13661C18.1206 5.47729 18.7497 6.02507 19.1894 6.71429L20.454 5.90756C19.8591 4.97509 19.0079 4.23397 18.0025 3.77306L17.3774 5.13661ZM11.37 3.25C10.147 3.25 9.18756 3.24949 8.41097 3.30905C7.62503 3.36933 6.9703 3.49408 6.36174 3.77306L6.98683 5.13661C7.37044 4.96075 7.82905 4.85809 8.52568 4.80466C9.23166 4.75051 10.124 4.75 11.37 4.75V3.25ZM4.18896 11.0026C4.45672 9.07477 4.60786 8.02255 4.89827 7.27003L3.49887 6.72997C3.13038 7.6848 2.95958 8.9505 2.70322 10.7963L4.18896 11.0026ZM4.89827 7.27003C4.9799 7.05852 5.0705 6.87792 5.17489 6.71429L3.91029 5.90756C3.74645 6.1644 3.61237 6.43586 3.49887 6.72997L4.89827 7.27003ZM6.36174 3.77306C5.35631 4.23397 4.50514 4.97509 3.91029 5.90756L5.17489 6.71429C5.61456 6.02507 6.24368 5.47729 6.98683 5.13661L6.36174 3.77306ZM5.50086 7.18795L4.70971 6.45115L3.68743 7.54885L4.47858 8.28565L5.50086 7.18795ZM19.4597 6.34835L18.6015 7.20647L19.6622 8.26713L20.5203 7.40901L19.4597 6.34835ZM4.45939 8.26713C6.11107 9.9188 7.40205 11.212 8.54367 12.0831C9.7026 12.9673 10.7953 13.4868 12.0608 13.4868V11.9868C11.2552 11.9868 10.479 11.673 9.45354 10.8905C8.41073 10.0949 7.20171 8.88813 5.52005 7.20647L4.45939 8.26713ZM18.6015 7.20647C16.9199 8.88813 15.7108 10.0949 14.668 10.8905C13.6425 11.673 12.8664 11.9868 12.0608 11.9868V13.4868C13.3262 13.4868 14.419 12.9673 15.5779 12.0831C16.7195 11.212 18.0105 9.9188 19.6622 8.26713L18.6015 7.20647ZM2 18.75H8V17.25H2V18.75ZM2 15.75H5V14.25H2V15.75ZM21.661 10.7963C21.384 8.80147 21.2078 7.47896 20.7633 6.48414L19.3938 7.09613C19.7296 7.84754 19.884 8.90537 20.1753 11.0026L21.661 10.7963ZM20.7633 6.48414C20.6729 6.282 20.5709 6.09084 20.454 5.90756L19.1894 6.71429C19.2642 6.83165 19.3317 6.9573 19.3938 7.09613L20.7633 6.48414ZM20.5203 7.40901L20.6088 7.32047L19.5482 6.25981L19.4597 6.34835L20.5203 7.40901Z" fill="#FAFAFA"/>
</svg>
