<svg width="24" height="24" viewBox="0 0 24 24" fill="none" xmlns="http://www.w3.org/2000/svg">
<path d="M4.92893 7.92893L5.45926 7.3986L4.92893 7.92893ZM3 6L2.46967 6.53033L3 6ZM11 20.25C10.5858 20.25 10.25 20.5858 10.25 21C10.25 21.4142 10.5858 21.75 11 21.75V20.25ZM21.0451 18.9389L20.4383 18.4981V18.4981L21.0451 18.9389ZM19.9389 20.0451L19.4981 19.4383V19.4383L19.9389 20.0451ZM19.9389 3.95491L20.3798 3.34815V3.34815L19.9389 3.95491ZM21.0451 5.06107L20.4383 5.50191V5.50191L21.0451 5.06107ZM4.06107 3.95491L3.62023 3.34815L3.62023 3.34815L4.06107 3.95491ZM1.25 12C1.25 12.4142 1.58579 12.75 2 12.75C2.41421 12.75 2.75 12.4142 2.75 12H1.25ZM2.95491 5.06107L2.34815 4.62023L2.34815 4.62023L2.95491 5.06107ZM1 18.25C0.585786 18.25 0.25 18.5858 0.25 19C0.25 19.4142 0.585786 19.75 1 19.75V18.25ZM7 19.75C7.41421 19.75 7.75 19.4142 7.75 19C7.75 18.5858 7.41421 18.25 7 18.25V19.75ZM1 15.25C0.585786 15.25 0.25 15.5858 0.25 16C0.25 16.4142 0.585786 16.75 1 16.75V15.25ZM4 16.75C4.41421 16.75 4.75 16.4142 4.75 16C4.75 15.5858 4.41421 15.25 4 15.25V16.75ZM2.62103 5.62103L1.94538 5.29546L2.62103 5.62103ZM5.45926 7.3986L3.65165 5.59099L2.59099 6.65165L4.3986 8.45926L5.45926 7.3986ZM20.3483 5.59099L18.5407 7.3986L19.6014 8.45926L21.409 6.65165L20.3483 5.59099ZM4.3986 8.45926C6.05028 10.1109 7.34126 11.4042 8.48288 12.2752C9.64181 13.1594 10.7345 13.6789 12 13.6789V12.1789C11.1944 12.1789 10.4183 11.8651 9.39275 11.0827C8.34994 10.287 7.14092 9.08026 5.45926 7.3986L4.3986 8.45926ZM18.5407 7.3986C16.8591 9.08026 15.6501 10.287 14.6072 11.0827C13.5817 11.8651 12.8056 12.1789 12 12.1789V13.6789C13.2655 13.6789 14.3582 13.1594 15.5171 12.2752C16.6587 11.4042 17.9497 10.1109 19.6014 8.45926L18.5407 7.3986ZM5.45926 7.3986L3.53033 5.46967L2.46967 6.53033L4.3986 8.45926L5.45926 7.3986ZM20.4697 5.46967L18.5407 7.3986L19.6014 8.45926L21.5303 6.53033L20.4697 5.46967ZM11 3.75H13V2.25H11V3.75ZM13 20.25H11V21.75H13V20.25ZM21.25 12C21.25 13.8916 21.249 15.25 21.135 16.302C21.0225 17.3399 20.8074 17.9901 20.4383 18.4981L21.6518 19.3798C22.2377 18.5734 22.5 17.6291 22.6263 16.4635C22.751 15.312 22.75 13.8582 22.75 12H21.25ZM13 21.75C14.8582 21.75 16.312 21.751 17.4635 21.6263C18.6291 21.5 19.5734 21.2377 20.3798 20.6518L19.4981 19.4383C18.9901 19.8074 18.3399 20.0225 17.302 20.135C16.25 20.249 14.8916 20.25 13 20.25V21.75ZM20.4383 18.4981C20.1762 18.8589 19.8589 19.1762 19.4981 19.4383L20.3798 20.6518C20.8679 20.2972 21.2972 19.8679 21.6518 19.3798L20.4383 18.4981ZM13 3.75C14.8916 3.75 16.25 3.75103 17.302 3.865C18.3399 3.97745 18.9901 4.19259 19.4981 4.56168L20.3798 3.34815C19.5734 2.76232 18.6291 2.50001 17.4635 2.37373C16.312 2.24897 14.8582 2.25 13 2.25V3.75ZM19.4981 4.56168C19.8589 4.82382 20.1762 5.14111 20.4383 5.50191L21.6518 4.62024C21.2972 4.13209 20.8679 3.70281 20.3798 3.34815L19.4981 4.56168ZM11 2.25C9.14184 2.25 7.68798 2.24897 6.53648 2.37373C5.37094 2.50001 4.42656 2.76232 3.62023 3.34815L4.50191 4.56168C5.00992 4.19259 5.66013 3.97745 6.69804 3.865C7.74999 3.75103 9.10843 3.75 11 3.75V2.25ZM3.62023 3.34815C3.13209 3.70281 2.70281 4.13209 2.34815 4.62023L3.56168 5.50191C3.82382 5.14111 4.14111 4.82382 4.50191 4.56168L3.62023 3.34815ZM1 19.75H7V18.25H1V19.75ZM1 16.75H4V15.25H1V16.75ZM2.75 12C2.75 10.3648 2.75049 9.12493 2.8255 8.13204C2.90037 7.14093 3.04588 6.46709 3.29668 5.9466L1.94538 5.29546C1.57515 6.06379 1.41014 6.95506 1.32976 8.01904C1.24951 9.08125 1.25 10.3864 1.25 12H2.75ZM3.29668 5.9466C3.37348 5.78722 3.46113 5.64031 3.56168 5.50191L2.34815 4.62023C2.19354 4.83304 2.06012 5.05734 1.94538 5.29546L3.29668 5.9466ZM3.53033 5.46967L3.15136 5.0907L2.0907 6.15136L2.46967 6.53033L3.53033 5.46967ZM22.75 12C22.75 10.3864 22.7505 9.08125 22.6702 8.01904C22.5899 6.95506 22.4248 6.06379 22.0546 5.29546L20.7033 5.9466C20.9541 6.46709 21.0996 7.14093 21.1745 8.13204C21.2495 9.12493 21.25 10.3648 21.25 12H22.75ZM22.0546 5.29546C21.9399 5.05734 21.8065 4.83304 21.6518 4.62024L20.4383 5.50191C20.5389 5.64031 20.6265 5.78722 20.7033 5.9466L22.0546 5.29546ZM21.5303 6.53033L21.9093 6.15136L20.8486 5.0907L20.4697 5.46967L21.5303 6.53033Z" fill="#FAFAFA"/>
</svg>
