<svg width="24" height="24" viewBox="0 0 24 24" fill="none" xmlns="http://www.w3.org/2000/svg">
<path d="M8 9C8 9.55228 8.44772 10 9 10C9.55228 10 10 9.55228 10 9C10 8.44772 9.55228 8 9 8C8.44772 8 8 8.44772 8 9Z" fill="#FAFAFA"/>
<path d="M14 15C14 15.5523 14.4477 16 15 16C15.5523 16 16 15.5523 16 15C16 14.4477 15.5523 14 15 14C14.4477 14 14 14.4477 14 15Z" fill="#FAFAFA"/>
<path d="M8.4696 14.4697C8.17671 14.7626 8.17671 15.2375 8.4696 15.5304C8.7625 15.8233 9.23737 15.8233 9.53026 15.5304L8.4696 14.4697ZM15.1871 9.87351C15.48 9.58062 15.48 9.10574 15.1871 8.81285C14.8942 8.51996 14.4194 8.51996 14.1265 8.81285L15.1871 9.87351ZM7.10448 20.9751L6.76215 21.6424L7.10448 20.9751ZM6.67504 20.7271L6.2683 21.3573L6.67504 20.7271ZM17.3248 20.7271L16.9181 20.097L17.3248 20.7271ZM16.8954 20.9751L17.2377 21.6424L16.8954 20.9751ZM22.2203 11.7521L22.9694 11.7149L22.2203 11.7521ZM22.2203 12.248L21.4712 12.2108L22.2203 12.248ZM16.8954 3.02499L17.2377 2.35767V2.35767L16.8954 3.02499ZM17.3248 3.27292L17.7316 2.6428L17.3248 3.27292ZM6.67504 3.27292L7.08179 3.90305L6.67504 3.27292ZM7.10448 3.02499L6.76215 2.35767V2.35767L7.10448 3.02499ZM1.77959 11.7521L2.52867 11.7893L1.77959 11.7521ZM1.77959 12.248L1.03051 12.2852L1.77959 12.248ZM9.53026 15.5304L15.1871 9.87351L14.1265 8.81285L8.4696 14.4697L9.53026 15.5304ZM11.9999 20.7763C10.7131 20.7763 9.7968 20.7756 9.06668 20.7104C8.35086 20.6464 7.86803 20.5239 7.44681 20.3078L6.76215 21.6424C7.41547 21.9775 8.10672 22.1306 8.93318 22.2044C9.74533 22.277 10.7394 22.2763 11.9999 22.2763V20.7763ZM3.10042 17.1382C3.73066 18.2298 4.22712 19.0911 4.69604 19.7581C5.17323 20.4369 5.65139 20.9591 6.2683 21.3573L7.08179 20.097C6.68405 19.8403 6.33648 19.4834 5.92318 18.8955C5.50162 18.2958 5.04285 17.5026 4.39945 16.3882L3.10042 17.1382ZM7.44681 20.3078C7.32172 20.2436 7.1999 20.1733 7.08179 20.097L6.2683 21.3573C6.4281 21.4604 6.59292 21.5556 6.76215 21.6424L7.44681 20.3078ZM19.6004 16.3882C18.957 17.5026 18.4983 18.2958 18.0767 18.8955C17.6634 19.4834 17.3158 19.8403 16.9181 20.097L17.7316 21.3573C18.3485 20.9591 18.8266 20.4369 19.3038 19.7581C19.7727 19.0911 20.2692 18.2298 20.8995 17.1382L19.6004 16.3882ZM11.9999 22.2763C13.2604 22.2763 14.2545 22.277 15.0667 22.2044C15.8932 22.1306 16.5844 21.9775 17.2377 21.6424L16.5531 20.3078C16.1318 20.5239 15.649 20.6464 14.9332 20.7104C14.2031 20.7756 13.2867 20.7763 11.9999 20.7763V22.2763ZM16.9181 20.097C16.8 20.1733 16.6781 20.2436 16.5531 20.3078L17.2377 21.6424C17.407 21.5556 17.5718 21.4604 17.7316 21.3573L16.9181 20.097ZM19.6004 7.61189C20.2438 8.72628 20.7014 9.52021 21.01 10.1851C21.3125 10.837 21.4477 11.3165 21.4712 11.7893L22.9694 11.7149C22.9329 10.9815 22.7199 10.3064 22.3706 9.55372C22.0274 8.81409 21.5297 7.95351 20.8995 6.86189L19.6004 7.61189ZM20.8995 17.1382C21.5297 16.0466 22.0274 15.186 22.3706 14.4463C22.7199 13.6937 22.9329 13.0185 22.9694 12.2852L21.4712 12.2108C21.4477 12.6836 21.3125 13.163 21.01 13.8149C20.7014 14.4799 20.2438 15.2738 19.6004 16.3882L20.8995 17.1382ZM21.4712 11.7893C21.4782 11.9297 21.4782 12.0704 21.4712 12.2108L22.9694 12.2852C22.9788 12.0952 22.9788 11.9049 22.9694 11.7149L21.4712 11.7893ZM11.9999 3.22375C13.2867 3.22375 14.2031 3.22444 14.9332 3.28968C15.649 3.35364 16.1318 3.47622 16.5531 3.6923L17.2377 2.35767C16.5844 2.02252 15.8931 1.86948 15.0667 1.79563C14.2545 1.72307 13.2604 1.72375 11.9999 1.72375V3.22375ZM20.8995 6.86189C20.2692 5.77027 19.7727 4.909 19.3038 4.24194C18.8266 3.56313 18.3485 3.04101 17.7316 2.6428L16.9181 3.90305C17.3158 4.15979 17.6634 4.51665 18.0767 5.10458C18.4983 5.70427 18.957 6.4975 19.6004 7.61189L20.8995 6.86189ZM16.5531 3.6923C16.6781 3.75647 16.8 3.8268 16.9181 3.90305L17.7316 2.6428C17.5718 2.53965 17.407 2.44449 17.2377 2.35767L16.5531 3.6923ZM4.39945 7.6119C5.04285 6.4975 5.50162 5.70427 5.92318 5.10458C6.33648 4.51665 6.68405 4.15979 7.08179 3.90305L6.26829 2.6428C5.65139 3.04101 5.17323 3.56314 4.69604 4.24195C4.22712 4.90901 3.73066 5.77028 3.10042 6.8619L4.39945 7.6119ZM11.9999 1.72375C10.7394 1.72375 9.74533 1.72307 8.93318 1.79564C8.10672 1.86948 7.41546 2.02252 6.76215 2.35767L7.44681 3.6923C7.86803 3.47622 8.35086 3.35364 9.06668 3.28968C9.7968 3.22444 10.7131 3.22375 11.9999 3.22375V1.72375ZM7.08179 3.90305C7.1999 3.82681 7.32173 3.75647 7.44681 3.6923L6.76215 2.35767C6.59292 2.44449 6.4281 2.53965 6.26829 2.6428L7.08179 3.90305ZM3.10042 6.8619C2.47017 7.95351 1.97252 8.8141 1.62929 9.55372C1.28001 10.3064 1.06692 10.9815 1.03051 11.7149L2.52867 11.7893C2.55214 11.3165 2.6874 10.837 2.98992 10.1851C3.29848 9.52021 3.75606 8.72629 4.39945 7.6119L3.10042 6.8619ZM4.39945 16.3882C3.75606 15.2738 3.29848 14.4799 2.98992 13.8149C2.6874 13.163 2.55214 12.6836 2.52867 12.2108L1.03051 12.2852C1.06692 13.0185 1.28001 13.6937 1.62929 14.4463C1.97252 15.186 2.47017 16.0466 3.10042 17.1382L4.39945 16.3882ZM1.03051 11.7149C1.02108 11.9049 1.02108 12.0952 1.03051 12.2852L2.52867 12.2108C2.52169 12.0704 2.52169 11.9297 2.52867 11.7893L1.03051 11.7149Z" fill="#FAFAFA"/>
</svg>
