<svg width="24" height="24" viewBox="0 0 24 24" fill="none" xmlns="http://www.w3.org/2000/svg">
<path d="M8 9C8 9.55228 8.44772 10 9 10C9.55228 10 10 9.55228 10 9C10 8.44772 9.55228 8 9 8C8.44772 8 8 8.44772 8 9Z" fill="#FAFAFA"/>
<path d="M14 15C14 15.5523 14.4477 16 15 16C15.5523 16 16 15.5523 16 15C16 14.4477 15.5523 14 15 14C14.4477 14 14 14.4477 14 15Z" fill="#FAFAFA"/>
<path d="M8.46958 14.4697C8.17669 14.7626 8.17669 15.2375 8.46958 15.5304C8.76248 15.8233 9.23735 15.8233 9.53024 15.5304L8.46958 14.4697ZM15.1871 9.87353C15.48 9.58064 15.48 9.10577 15.1871 8.81287C14.8942 8.51998 14.4193 8.51998 14.1264 8.81287L15.1871 9.87353ZM3.02486 7.1046L3.69218 7.44693L3.02486 7.1046ZM3.2728 6.67516L3.90293 7.08191L3.2728 6.67516ZM3.2728 17.325L3.90293 16.9182H3.90293L3.2728 17.325ZM3.02486 16.8955L3.69218 16.5532L3.02486 16.8955ZM12.2478 22.2204L12.285 22.9695L12.2478 22.2204ZM11.752 22.2204L11.7148 22.9695L11.752 22.2204ZM20.975 16.8955L20.3076 16.5532L20.975 16.8955ZM20.727 17.325L20.0969 16.9182L20.727 17.325ZM20.727 6.67516L20.0969 7.08191L20.727 6.67516ZM20.975 7.1046L20.3076 7.44693L20.975 7.1046ZM12.2478 1.77971L12.285 1.03063L12.2478 1.77971ZM11.752 1.77971L11.7148 1.03063L11.752 1.77971ZM9.53024 15.5304L15.1871 9.87353L14.1264 8.81287L8.46958 14.4697L9.53024 15.5304ZM3.22363 12.0001C3.22363 10.7133 3.22432 9.79692 3.28956 9.0668C3.35352 8.35098 3.4761 7.86815 3.69218 7.44693L2.35755 6.76227C2.0224 7.41559 1.86936 8.10684 1.79551 8.9333C1.72294 9.74545 1.72363 10.7396 1.72363 12.0001H3.22363ZM6.86177 3.10054C5.77015 3.73078 4.90888 4.22724 4.24182 4.69617C3.56301 5.17335 3.04089 5.65151 2.64268 6.26842L3.90293 7.08191C4.15967 6.68417 4.51653 6.3366 5.10446 5.9233C5.70414 5.50174 6.49738 5.04297 7.61177 4.39958L6.86177 3.10054ZM3.69218 7.44693C3.75635 7.32185 3.82668 7.20002 3.90293 7.08191L2.64268 6.26842C2.53952 6.42822 2.44436 6.59304 2.35755 6.76227L3.69218 7.44693ZM7.61177 19.6005C6.49738 18.9571 5.70414 18.4984 5.10446 18.0768C4.51653 17.6635 4.15967 17.3159 3.90293 16.9182L2.64268 17.7317C3.04089 18.3486 3.56301 18.8268 4.24182 19.3039C4.90888 19.7729 5.77015 20.2693 6.86177 20.8996L7.61177 19.6005ZM1.72363 12.0001C1.72363 13.2606 1.72294 14.2547 1.79551 15.0668C1.86936 15.8933 2.0224 16.5845 2.35755 17.2378L3.69218 16.5532C3.4761 16.132 3.35352 15.6491 3.28956 14.9333C3.22432 14.2032 3.22363 13.2868 3.22363 12.0001H1.72363ZM3.90293 16.9182C3.82668 16.8001 3.75635 16.6783 3.69218 16.5532L2.35755 17.2378C2.44436 17.4071 2.53952 17.5719 2.64268 17.7317L3.90293 16.9182ZM16.3881 19.6005C15.2737 20.2439 14.4797 20.7015 13.8148 21.0101C13.1629 21.3126 12.6835 21.4479 12.2107 21.4713L12.285 22.9695C13.0184 22.9331 13.6936 22.72 14.4462 22.3707C15.1859 22.0275 16.0464 21.5298 17.1381 20.8996L16.3881 19.6005ZM6.86177 20.8996C7.95339 21.5298 8.81397 22.0275 9.5536 22.3707C10.3063 22.72 10.9814 22.9331 11.7148 22.9695L11.7892 21.4713C11.3163 21.4479 10.8369 21.3126 10.185 21.0101C9.52009 20.7015 8.72616 20.2439 7.61177 19.6005L6.86177 20.8996ZM12.2107 21.4713C12.0702 21.4783 11.9296 21.4783 11.7892 21.4713L11.7148 22.9695C11.9048 22.9789 12.0951 22.9789 12.285 22.9695L12.2107 21.4713ZM20.7762 12.0001C20.7762 13.2868 20.7755 14.2032 20.7103 14.9333C20.6463 15.6491 20.5237 16.132 20.3076 16.5532L21.6423 17.2378C21.9774 16.5845 22.1305 15.8933 22.2043 15.0668C22.2769 14.2547 22.2762 13.2606 22.2762 12.0001H20.7762ZM17.1381 20.8996C18.2297 20.2693 19.0909 19.7729 19.758 19.3039C20.4368 18.8268 20.9589 18.3486 21.3571 17.7317L20.0969 16.9182C19.8402 17.3159 19.4833 17.6635 18.8954 18.0768C18.2957 18.4984 17.5024 18.9571 16.3881 19.6005L17.1381 20.8996ZM20.3076 16.5532C20.2435 16.6783 20.1731 16.8001 20.0969 16.9182L21.3571 17.7317C21.4603 17.5719 21.5555 17.4071 21.6423 17.2378L20.3076 16.5532ZM16.3881 4.39958C17.5024 5.04297 18.2957 5.50174 18.8954 5.9233C19.4833 6.3366 19.8402 6.68417 20.0969 7.08191L21.3571 6.26842C20.9589 5.65151 20.4368 5.17335 19.758 4.69617C19.0909 4.22724 18.2297 3.73078 17.1381 3.10054L16.3881 4.39958ZM22.2762 12.0001C22.2762 10.7396 22.2769 9.74545 22.2043 8.9333C22.1305 8.10684 21.9774 7.41559 21.6423 6.76227L20.3076 7.44693C20.5237 7.86815 20.6463 8.35098 20.7103 9.0668C20.7755 9.79692 20.7762 10.7133 20.7762 12.0001H22.2762ZM20.0969 7.08191C20.1731 7.20003 20.2435 7.32185 20.3076 7.44693L21.6423 6.76227C21.5555 6.59304 21.4603 6.42822 21.3571 6.26842L20.0969 7.08191ZM17.1381 3.10054C16.0464 2.47029 15.1859 1.97264 14.4462 1.62941C13.6936 1.28013 13.0184 1.06704 12.285 1.03063L12.2107 2.52879C12.6835 2.55226 13.1629 2.68753 13.8148 2.99004C14.4797 3.2986 15.2737 3.75618 16.3881 4.39958L17.1381 3.10054ZM7.61177 4.39958C8.72616 3.75618 9.52009 3.2986 10.185 2.99004C10.8369 2.68753 11.3163 2.55226 11.7892 2.52879L11.7148 1.03063C10.9814 1.06704 10.3063 1.28013 9.5536 1.62941C8.81397 1.97264 7.95339 2.47029 6.86177 3.10054L7.61177 4.39958ZM12.285 1.03063C12.0951 1.0212 11.9048 1.0212 11.7148 1.03063L11.7892 2.52879C11.9296 2.52182 12.0702 2.52182 12.2107 2.52879L12.285 1.03063Z" fill="#FAFAFA"/>
</svg>
