<svg width="24" height="24" viewBox="0 0 24 24" fill="none" xmlns="http://www.w3.org/2000/svg">
<path d="M8.46964 14.4696C8.17675 14.7625 8.17675 15.2374 8.46964 15.5303C8.76253 15.8232 9.23741 15.8232 9.5303 15.5303L8.46964 14.4696ZM15.1872 9.87344C15.48 9.58055 15.48 9.10567 15.1872 8.81278C14.8943 8.51989 14.4194 8.51989 14.1265 8.81278L15.1872 9.87344ZM5.59479 5.01894L5.41243 5.74644L5.59479 5.01894ZM9.15682 2.9624L9.87803 3.16823L9.15682 2.9624ZM2.75164 9.94342L2.21279 10.4651L2.75164 9.94342ZM2.75164 14.0565L2.21279 13.5348L2.75164 14.0565ZM5.59479 18.981L5.41243 18.2535L5.59479 18.981ZM9.15682 21.0375L9.87803 20.8317L9.15682 21.0375ZM14.8431 21.0375L14.1219 20.8317L14.8431 21.0375ZM18.4051 18.981L18.5875 18.2535L18.4051 18.981ZM21.2483 14.0565L21.7871 13.5348L21.2483 14.0565ZM21.2483 9.94342L21.7871 10.4651L21.2483 9.94342ZM18.4051 5.01894L18.5875 5.74644L18.4051 5.01894ZM14.8431 2.9624L14.1219 3.16823L14.8431 2.9624ZM9.5303 15.5303L15.1872 9.87344L14.1265 8.81278L8.46964 14.4696L9.5303 15.5303ZM5.41243 5.74644C7.3528 6.23281 9.32906 5.09182 9.87803 3.16823L8.43561 2.75658C8.1088 3.90174 6.93229 4.581 5.77714 4.29145L5.41243 5.74644ZM3.29049 9.42175C1.74633 7.82674 3.25904 5.20666 5.41243 5.74644L5.77714 4.29145C2.15995 3.38476 -0.381026 7.78586 2.21279 10.4651L3.29049 9.42175ZM3.29049 14.5782C4.68189 13.141 4.68189 10.859 3.29049 9.42175L2.21279 10.4651C3.04112 11.3207 3.04112 12.6792 2.21279 13.5348L3.29049 14.5782ZM5.41243 18.2535C3.25903 18.7933 1.74633 16.1732 3.29049 14.5782L2.21279 13.5348C-0.381027 16.2141 2.15995 20.6152 5.77714 19.7085L5.41243 18.2535ZM9.87803 20.8317C9.32906 18.9081 7.3528 17.7671 5.41243 18.2535L5.77714 19.7085C6.93229 19.4189 8.1088 20.0982 8.43561 21.2433L9.87803 20.8317ZM14.1219 20.8317C13.5127 22.9665 10.4873 22.9665 9.87803 20.8317L8.43561 21.2433C9.45899 24.8293 14.5409 24.8293 15.5643 21.2433L14.1219 20.8317ZM18.5875 18.2535C16.6471 17.7671 14.6709 18.9081 14.1219 20.8317L15.5643 21.2433C15.8911 20.0982 17.0676 19.4189 18.2228 19.7085L18.5875 18.2535ZM20.7094 14.5782C22.2536 16.1732 20.7409 18.7933 18.5875 18.2535L18.2228 19.7085C21.84 20.6152 24.381 16.2141 21.7871 13.5348L20.7094 14.5782ZM20.7094 9.42175C19.3181 10.859 19.3181 13.141 20.7094 14.5782L21.7871 13.5348C20.9588 12.6792 20.9588 11.3207 21.7871 10.4651L20.7094 9.42175ZM18.5875 5.74644C20.7409 5.20666 22.2536 7.82674 20.7094 9.42175L21.7871 10.4651C24.381 7.78586 21.84 3.38476 18.2228 4.29145L18.5875 5.74644ZM14.1219 3.16823C14.6709 5.09182 16.6471 6.23281 18.5875 5.74644L18.2228 4.29145C17.0676 4.581 15.8911 3.90174 15.5643 2.75658L14.1219 3.16823ZM15.5643 2.75658C14.5409 -0.829342 9.45899 -0.829342 8.43561 2.75658L9.87803 3.16823C10.4873 1.03344 13.5127 1.03344 14.1219 3.16823L15.5643 2.75658Z" fill="#FAFAFA"/>
<path d="M8 9C8 9.55228 8.44772 10 9 10C9.55228 10 10 9.55228 10 9C10 8.44772 9.55228 8 9 8C8.44772 8 8 8.44772 8 9Z" fill="#FAFAFA"/>
<path d="M14 15C14 15.5523 14.4477 16 15 16C15.5523 16 16 15.5523 16 15C16 14.4477 15.5523 14 15 14C14.4477 14 14 14.4477 14 15Z" fill="#FAFAFA"/>
</svg>
