<svg width="24" height="24" viewBox="0 0 24 24" fill="none" xmlns="http://www.w3.org/2000/svg">
<path d="M11.25 19C11.25 19.4142 11.5858 19.75 12 19.75C12.4142 19.75 12.75 19.4142 12.75 19L11.25 19ZM12.75 5C12.75 4.58579 12.4142 4.25 12 4.25C11.5858 4.25 11.25 4.58579 11.25 5H12.75ZM14.4377 8.45175C14.6448 8.81047 15.1035 8.93337 15.4622 8.72626C15.8209 8.51916 15.9438 8.06047 15.7367 7.70175L14.4377 8.45175ZM14.7116 7.42625L15.3611 7.05125L14.7116 7.42625ZM11.13 11.68L11.3889 10.9761L11.13 11.68ZM12.8701 12.32L13.129 11.6161L13.129 11.6161L12.8701 12.32ZM9.28847 16.5738L8.63895 16.9488H8.63895L9.28847 16.5738ZM9.56243 15.5483C9.35532 15.1895 8.89663 15.0666 8.53791 15.2737C8.17919 15.4808 8.05628 15.9395 8.26339 16.2983L9.56243 15.5483ZM13.3278 17.6561L12.9528 17.0066L13.3278 17.6561ZM10.6723 6.34391L11.0473 6.99343L10.6723 6.34391ZM5.06107 20.0451L5.50191 19.4383L5.06107 20.0451ZM3.95491 18.9389L4.56168 18.4981L3.95491 18.9389ZM20.0451 18.9389L19.4383 18.4981L20.0451 18.9389ZM18.9389 20.0451L18.4981 19.4383L18.9389 20.0451ZM18.9389 3.95491L18.4981 4.56168L18.9389 3.95491ZM20.0451 5.06107L19.4383 5.50191L20.0451 5.06107ZM5.06107 3.95491L5.50191 4.56168L5.06107 3.95491ZM3.95491 5.06107L4.56168 5.50191L3.95491 5.06107ZM15.7367 7.70175L15.3611 7.05125L14.0621 7.80125L14.4377 8.45175L15.7367 7.70175ZM9.93799 16.1988L9.56243 15.5483L8.26339 16.2983L8.63895 16.9488L9.93799 16.1988ZM12.6112 13.0239C14.3673 13.6699 14.5733 16.071 12.9528 17.0066L13.7028 18.3056C16.4247 16.7341 16.0787 12.7011 13.129 11.6161L12.6112 13.0239ZM10.2973 5.69439C7.57541 7.26586 7.92137 11.2989 10.8711 12.3839L11.3889 10.9761C9.63275 10.3301 9.42679 7.92902 11.0473 6.99343L10.2973 5.69439ZM12 20.25C10.1084 20.25 8.74999 20.249 7.69804 20.135C6.66013 20.0225 6.00992 19.8074 5.50191 19.4383L4.62023 20.6518C5.42656 21.2377 6.37094 21.5 7.53648 21.6263C8.68798 21.751 10.1418 21.75 12 21.75V20.25ZM2.25 12C2.25 13.8582 2.24897 15.312 2.37373 16.4635C2.50001 17.6291 2.76232 18.5734 3.34815 19.3798L4.56168 18.4981C4.19259 17.9901 3.97745 17.3399 3.865 16.302C3.75103 15.25 3.75 13.8916 3.75 12H2.25ZM5.50191 19.4383C5.14111 19.1762 4.82382 18.8589 4.56168 18.4981L3.34815 19.3798C3.70281 19.8679 4.13209 20.2972 4.62023 20.6518L5.50191 19.4383ZM20.25 12C20.25 13.8916 20.249 15.25 20.135 16.302C20.0225 17.3399 19.8074 17.9901 19.4383 18.4981L20.6518 19.3798C21.2377 18.5734 21.5 17.6291 21.6263 16.4635C21.751 15.312 21.75 13.8582 21.75 12H20.25ZM12 21.75C13.8582 21.75 15.312 21.751 16.4635 21.6263C17.6291 21.5 18.5734 21.2377 19.3798 20.6518L18.4981 19.4383C17.9901 19.8074 17.3399 20.0225 16.302 20.135C15.25 20.249 13.8916 20.25 12 20.25V21.75ZM19.4383 18.4981C19.1762 18.8589 18.8589 19.1762 18.4981 19.4383L19.3798 20.6518C19.8679 20.2972 20.2972 19.8679 20.6518 19.3798L19.4383 18.4981ZM12 3.75C13.8916 3.75 15.25 3.75103 16.302 3.865C17.3399 3.97745 17.9901 4.19259 18.4981 4.56168L19.3798 3.34815C18.5734 2.76232 17.6291 2.50001 16.4635 2.37373C15.312 2.24897 13.8582 2.25 12 2.25V3.75ZM21.75 12C21.75 10.1418 21.751 8.68798 21.6263 7.53648C21.5 6.37094 21.2377 5.42656 20.6518 4.62023L19.4383 5.50191C19.8074 6.00992 20.0225 6.66013 20.135 7.69804C20.249 8.74999 20.25 10.1084 20.25 12H21.75ZM18.4981 4.56168C18.8589 4.82382 19.1762 5.14111 19.4383 5.50191L20.6518 4.62023C20.2972 4.13209 19.8679 3.70281 19.3798 3.34815L18.4981 4.56168ZM12 2.25C10.1418 2.25 8.68798 2.24897 7.53648 2.37373C6.37094 2.50001 5.42656 2.76232 4.62023 3.34815L5.50191 4.56168C6.00992 4.19259 6.66013 3.97745 7.69804 3.865C8.74999 3.75103 10.1084 3.75 12 3.75V2.25ZM3.75 12C3.75 10.1084 3.75103 8.74999 3.865 7.69804C3.97745 6.66013 4.19259 6.00992 4.56168 5.50191L3.34815 4.62023C2.76232 5.42656 2.50001 6.37094 2.37373 7.53648C2.24897 8.68798 2.25 10.1418 2.25 12H3.75ZM4.62023 3.34815C4.13209 3.70281 3.70281 4.13209 3.34815 4.62023L4.56168 5.50191C4.82382 5.14111 5.14111 4.82382 5.50191 4.56168L4.62023 3.34815ZM15.3611 7.05125C14.6409 5.80371 13.3055 5.13444 11.9624 5.20191L12.0376 6.70002C12.8406 6.65969 13.6341 7.06 14.0621 7.80125L15.3611 7.05125ZM11.9624 5.20191C11.3932 5.2305 10.8225 5.39113 10.2973 5.69439L11.0473 6.99343C11.3619 6.81181 11.7005 6.71696 12.0376 6.70002L11.9624 5.20191ZM12.75 5.95097V5H11.25V5.95097H12.75ZM12.7501 12L12.75 5.95096L11.25 5.95097L11.2501 12L12.7501 12ZM10.8711 12.3839L11.7411 12.7039L12.259 11.2961L11.3889 10.9761L10.8711 12.3839ZM11.7411 12.7039L12.6112 13.0239L13.129 11.6161L12.259 11.2961L11.7411 12.7039ZM12.75 19L12.75 18.049L11.25 18.049L11.25 19L12.75 19ZM12.75 18.049L12.7501 12L11.2501 12L11.25 18.049L12.75 18.049ZM12.9528 17.0066C12.6382 17.1882 12.2996 17.2831 11.9624 17.3L12.0376 18.7981C12.6068 18.7695 13.1775 18.6089 13.7028 18.3056L12.9528 17.0066ZM11.9624 17.3C11.1595 17.3403 10.3659 16.94 9.93799 16.1988L8.63895 16.9488C9.3592 18.1963 10.6945 18.8655 12.0376 18.7981L11.9624 17.3Z" fill="#FAFAFA"/>
</svg>
