<svg width="24" height="24" viewBox="0 0 24 24" fill="none" xmlns="http://www.w3.org/2000/svg">
<path d="M11.25 19C11.25 19.4142 11.5858 19.75 12 19.75C12.4142 19.75 12.75 19.4142 12.75 19H11.25ZM12.75 5C12.75 4.58579 12.4142 4.25 12 4.25C11.5858 4.25 11.25 4.58579 11.25 5H12.75ZM14.4377 8.45175C14.6448 8.81047 15.1035 8.93338 15.4623 8.72627C15.821 8.51916 15.9439 8.06047 15.7368 7.70175L14.4377 8.45175ZM14.7117 7.42625L14.0622 7.80125V7.80125L14.7117 7.42625ZM11.1301 11.68L11.389 10.9761L11.389 10.9761L11.1301 11.68ZM12.8702 12.32L13.1291 11.6161L13.129 11.6161L12.8702 12.32ZM9.28853 16.5738L8.63901 16.9488H8.63902L9.28853 16.5738ZM9.56249 15.5483C9.35538 15.1895 8.89669 15.0666 8.53797 15.2737C8.17925 15.4808 8.05634 15.9395 8.26345 16.2983L9.56249 15.5483ZM13.3279 17.6561L12.9529 17.0066L13.3279 17.6561ZM10.6723 6.34391L11.0473 6.99343L10.6723 6.34391ZM21.25 12C21.25 17.1086 17.1086 21.25 12 21.25V22.75C17.9371 22.75 22.75 17.9371 22.75 12H21.25ZM12 21.25C6.89137 21.25 2.75 17.1086 2.75 12H1.25C1.25 17.9371 6.06294 22.75 12 22.75V21.25ZM2.75 12C2.75 6.89137 6.89137 2.75 12 2.75V1.25C6.06294 1.25 1.25 6.06294 1.25 12H2.75ZM12 2.75C17.1086 2.75 21.25 6.89137 21.25 12H22.75C22.75 6.06294 17.9371 1.25 12 1.25V2.75ZM15.7368 7.70175L15.3612 7.05125L14.0622 7.80125L14.4377 8.45175L15.7368 7.70175ZM9.93805 16.1988L9.56249 15.5483L8.26345 16.2983L8.63901 16.9488L9.93805 16.1988ZM12.6113 13.0239C14.3674 13.6699 14.5734 16.071 12.9529 17.0066L13.7029 18.3056C16.4247 16.7341 16.0788 12.7011 13.1291 11.6161L12.6113 13.0239ZM10.2973 5.6944C7.57547 7.26586 7.92143 11.2989 10.8712 12.3839L11.389 10.9761C9.63281 10.3301 9.42685 7.92902 11.0473 6.99343L10.2973 5.6944ZM12.75 19V18.049H11.25V19H12.75ZM12.75 18.049V12H11.25V18.049H12.75ZM12.9529 17.0066C12.6383 17.1882 12.2996 17.2831 11.9624 17.3L12.0376 18.7981C12.6068 18.7695 13.1776 18.6089 13.7029 18.3056L12.9529 17.0066ZM11.9624 17.3C11.1595 17.3403 10.366 16.94 9.93805 16.1988L8.63902 16.9488C9.35925 18.1962 10.6945 18.8655 12.0376 18.7981L11.9624 17.3ZM10.8711 12.3839L11.7411 12.7039L12.2589 11.2961L11.389 10.9761L10.8711 12.3839ZM11.7411 12.7039L12.6113 13.0239L13.129 11.6161L12.2589 11.2961L11.7411 12.7039ZM12.75 12L12.75 5.95097H11.25L11.25 12H12.75ZM12.75 5.95097V5H11.25V5.95097H12.75ZM15.3612 7.05125C14.6409 5.80369 13.3055 5.13442 11.9624 5.20192L12.0376 6.70003C12.8406 6.65968 13.6342 7.05999 14.0622 7.80125L15.3612 7.05125ZM11.9624 5.20192C11.3933 5.23052 10.8226 5.39115 10.2973 5.6944L11.0473 6.99343C11.3619 6.81182 11.7005 6.71697 12.0376 6.70003L11.9624 5.20192Z" fill="#FAFAFA"/>
</svg>
