<svg width="24" height="24" viewBox="0 0 24 24" fill="none" xmlns="http://www.w3.org/2000/svg">
<path d="M22 8.44444C22 5.98985 20.0102 4 17.5556 4H6.44444C3.98984 4 2 5.98985 2 8.44444C2 8.98773 2.31156 9.48288 2.80135 9.71798L3.28872 9.95192C5.00702 10.7767 5.00702 13.2233 3.28872 14.0481L2.80135 14.282C2.31156 14.5171 2 15.0123 2 15.5556C2 18.0102 3.98984 20 6.44444 20H17.5556C20.0102 20 22 18.0102 22 15.5556C22 15.0123 21.6884 14.5171 21.1986 14.282L20.7113 14.0481C18.993 13.2233 18.993 10.7767 20.7113 9.95192L21.1986 9.71798C21.6884 9.48288 22 8.98773 22 8.44444Z" stroke="#FAFAFA" stroke-width="1.5"/>
<path d="M10 4L10 20" stroke="#FAFAFA" stroke-width="1.5" stroke-linecap="round" stroke-dasharray="2 3"/>
</svg>
