<svg width="24" height="24" viewBox="0 0 24 24" fill="none" xmlns="http://www.w3.org/2000/svg">
<path d="M3.28872 14.0481L3.61327 14.7242H3.61327L3.28872 14.0481ZM3.28872 9.95192L3.61327 9.27578H3.61327L3.28872 9.95192ZM21.1986 14.282L21.5232 13.6059L21.1986 14.282ZM21.1986 9.71798L20.8741 9.04184L21.1986 9.71798ZM20.7113 9.95192L21.0358 10.6281L20.7113 9.95192ZM20.7113 14.0481L20.3867 14.7242L20.7113 14.0481ZM2.80135 9.71798L2.47681 10.3941H2.47681L2.80135 9.71798ZM2.80135 14.282L2.47681 13.6059H2.47681L2.80135 14.282ZM8.46967 14.4697C8.17678 14.7626 8.17678 15.2374 8.46967 15.5303C8.76256 15.8232 9.23744 15.8232 9.53033 15.5303L8.46967 14.4697ZM15.1872 9.87348C15.4801 9.58058 15.4801 9.10571 15.1872 8.81282C14.8943 8.51992 14.4194 8.51992 14.1265 8.81282L15.1872 9.87348ZM6.44444 4.75H17.5556V3.25H6.44444V4.75ZM17.5556 19.25H6.44444V20.75H17.5556V19.25ZM20.8741 9.04184L20.3867 9.27578L21.0358 10.6281L21.5232 10.3941L20.8741 9.04184ZM20.3867 14.7242L20.8741 14.9582L21.5232 13.6059L21.0358 13.3719L20.3867 14.7242ZM3.1259 14.9582L3.61327 14.7242L2.96417 13.3719L2.47681 13.6059L3.1259 14.9582ZM3.61327 9.27578L3.1259 9.04184L2.47681 10.3941L2.96417 10.6281L3.61327 9.27578ZM3.61327 14.7242C5.89884 13.6272 5.89883 10.3728 3.61327 9.27578L2.96417 10.6281C4.1152 11.1806 4.1152 12.8194 2.96417 13.3719L3.61327 14.7242ZM20.8741 14.9582C21.1038 15.0684 21.25 15.3007 21.25 15.5556H22.75C22.75 14.7238 22.273 13.9658 21.5232 13.6059L20.8741 14.9582ZM21.25 8.44444C21.25 8.69929 21.1038 8.93156 20.8741 9.04184L21.5232 10.3941C22.273 10.0342 22.75 9.27618 22.75 8.44444H21.25ZM20.3867 9.27578C18.1012 10.3728 18.1012 13.6272 20.3867 14.7242L21.0358 13.3719C19.8848 12.8194 19.8848 11.1806 21.0358 10.6281L20.3867 9.27578ZM6.44444 19.25C4.40406 19.25 2.75 17.5959 2.75 15.5556H1.25C1.25 18.4244 3.57563 20.75 6.44444 20.75V19.25ZM3.1259 9.04184C2.89615 8.93156 2.75 8.69929 2.75 8.44444H1.25C1.25 9.27618 1.72698 10.0342 2.47681 10.3941L3.1259 9.04184ZM17.5556 20.75C20.4244 20.75 22.75 18.4244 22.75 15.5556H21.25C21.25 17.5959 19.5959 19.25 17.5556 19.25V20.75ZM2.75 15.5556C2.75 15.3007 2.89615 15.0684 3.1259 14.9582L2.47681 13.6059C1.72698 13.9658 1.25 14.7238 1.25 15.5556H2.75ZM17.5556 4.75C19.5959 4.75 21.25 6.40406 21.25 8.44444H22.75C22.75 5.57563 20.4244 3.25 17.5556 3.25V4.75ZM6.44444 3.25C3.57563 3.25 1.25 5.57563 1.25 8.44444H2.75C2.75 6.40406 4.40406 4.75 6.44444 4.75V3.25ZM9.53033 15.5303L15.1872 9.87348L14.1265 8.81282L8.46967 14.4697L9.53033 15.5303Z" fill="#FAFAFA"/>
<path d="M8 9C8 9.55228 8.44772 10 9 10C9.55228 10 10 9.55228 10 9C10 8.44772 9.55228 8 9 8C8.44772 8 8 8.44772 8 9Z" fill="#FAFAFA"/>
<path d="M14 15C14 15.5523 14.4477 16 15 16C15.5523 16 16 15.5523 16 15C16 14.4477 15.5523 14 15 14C14.4477 14 14 14.4477 14 15Z" fill="#FAFAFA"/>
</svg>
