<svg width="24" height="24" viewBox="0 0 24 24" fill="none" xmlns="http://www.w3.org/2000/svg">
<path d="M11.9363 20L6.81997 20C5.34616 20 3.98553 19.2097 3.25531 17.9295L3.06796 17.601C3.01822 17.5138 2.97988 17.4206 2.9539 17.3236C2.8372 16.8881 2.9806 16.4243 3.32272 16.1306L3.84768 15.68C5.29396 14.4386 4.66073 12.0754 2.78752 11.7234L2.25621 11.6236C1.72226 11.5233 1.29316 11.1257 1.15254 10.6009C0.517247 8.22991 1.92428 5.79286 4.29524 5.15756V5.15756C5.70301 4.78035 6.4069 4.59174 6.99947 4.80742C7.2187 4.88722 7.42228 5.00475 7.601 5.15472C8.08407 5.56006 8.27268 6.26395 8.64989 7.67172L9.11001 9.38892L9.93632 12.5974M9.93632 20H18.4919C20.9465 20 22.9363 18.0102 22.9363 15.5556C22.9363 15.0123 22.6248 14.5171 22.135 14.282L21.6476 14.0481C19.9293 13.2233 19.9293 10.7767 21.6476 9.95192L22.135 9.71798C22.6248 9.48288 22.9363 8.98773 22.9363 8.44444C22.9363 5.98985 20.9465 4 18.4919 4H13.9363C12.0507 4 11.1079 4 10.5221 4.58579C9.93632 5.17157 9.93632 6.11438 9.93632 8V13" stroke="#FAFAFA" stroke-width="1.5" stroke-linecap="round"/>
<path d="M9.93628 8L9.93628 20" stroke="#FAFAFA" stroke-width="1.5" stroke-linecap="round" stroke-dasharray="2 3"/>
</svg>
