<svg width="24" height="24" viewBox="0 0 24 24" fill="none" xmlns="http://www.w3.org/2000/svg">
<path d="M2 8.44444C2 5.98985 3.98985 4 6.44444 4H17.5556C20.0102 4 22 5.98985 22 8.44444C22 8.98773 21.6884 9.48288 21.1986 9.71798L20.7113 9.95192C18.993 10.7767 18.993 13.2233 20.7113 14.0481L21.1986 14.282C21.6884 14.5171 22 15.0123 22 15.5556C22 18.0102 20.0102 20 17.5556 20H6.44444C3.98985 20 2 18.0102 2 15.5556C2 15.0123 2.31157 14.5171 2.80135 14.282L3.28872 14.0481C5.00702 13.2233 5.00702 10.7767 3.28872 9.95192L2.80135 9.71798C2.31157 9.48288 2 8.98773 2 8.44444Z" stroke="#FAFAFA" stroke-width="1.5"/>
<path d="M14 4L14 20" stroke="#FAFAFA" stroke-width="1.5" stroke-linecap="round" stroke-dasharray="2 3"/>
</svg>
