<svg width="49" height="24" viewBox="0 0 49 24" fill="none" xmlns="http://www.w3.org/2000/svg">
<rect width="49" height="24" rx="12" fill="#7A0925"/>
<g clip-path="url(#clip0_77_6336)">
<path d="M10.5855 10.7475L13.4139 13.576M10.5855 13.576L13.4139 10.7475M18.6663 12C18.6663 15.6819 15.6816 18.6667 11.9997 18.6667C8.31778 18.6667 5.33301 15.6819 5.33301 12C5.33301 8.3181 8.31778 5.33333 11.9997 5.33333C15.6816 5.33333 18.6663 8.3181 18.6663 12Z" stroke="#FFE6D5" stroke-width="1.5" stroke-linecap="round"/>
</g>
<path d="M25.272 16V7.24H26.448V16H25.272ZM26.208 12.1V11.044L29.964 11.032V12.088L26.208 12.1ZM26.208 8.296V7.24H30.168V8.296H26.208ZM35.4839 16V14.08H35.2919V11.86C35.2919 11.42 35.1759 11.088 34.9439 10.864C34.7199 10.64 34.3879 10.528 33.9479 10.528C33.6999 10.528 33.4439 10.532 33.1799 10.54C32.9159 10.548 32.6639 10.556 32.4239 10.564C32.1839 10.572 31.9759 10.584 31.7999 10.6V9.592C31.9759 9.576 32.1599 9.564 32.3519 9.556C32.5519 9.54 32.7559 9.532 32.9639 9.532C33.1719 9.524 33.3719 9.52 33.5639 9.52C34.2199 9.52 34.7559 9.6 35.1719 9.76C35.5879 9.912 35.8959 10.164 36.0959 10.516C36.2959 10.868 36.3959 11.344 36.3959 11.944V16H35.4839ZM33.3839 16.168C32.9039 16.168 32.4879 16.088 32.1359 15.928C31.7919 15.76 31.5239 15.52 31.3319 15.208C31.1479 14.896 31.0559 14.52 31.0559 14.08C31.0559 13.624 31.1559 13.244 31.3559 12.94C31.5639 12.636 31.8639 12.408 32.2559 12.256C32.6479 12.096 33.1199 12.016 33.6719 12.016H35.4119V12.88H33.6239C33.1599 12.88 32.8039 12.992 32.5559 13.216C32.3079 13.44 32.1839 13.728 32.1839 14.08C32.1839 14.432 32.3079 14.716 32.5559 14.932C32.8039 15.148 33.1599 15.256 33.6239 15.256C33.8959 15.256 34.1559 15.208 34.4039 15.112C34.6519 15.008 34.8559 14.84 35.0159 14.608C35.1839 14.368 35.2759 14.04 35.2919 13.624L35.6039 14.08C35.5639 14.536 35.4519 14.92 35.2679 15.232C35.0919 15.536 34.8439 15.768 34.5239 15.928C34.2119 16.088 33.8319 16.168 33.3839 16.168ZM38.8223 16V9.592H39.9743V16H38.8223ZM37.8383 10.504V9.592H39.9743V10.504H37.8383ZM39.1463 8.56C38.8903 8.56 38.6983 8.492 38.5703 8.356C38.4503 8.22 38.3903 8.048 38.3903 7.84C38.3903 7.632 38.4503 7.46 38.5703 7.324C38.6983 7.188 38.8903 7.12 39.1463 7.12C39.4023 7.12 39.5903 7.188 39.7103 7.324C39.8383 7.46 39.9023 7.632 39.9023 7.84C39.9023 8.048 39.8383 8.22 39.7103 8.356C39.5903 8.492 39.4023 8.56 39.1463 8.56ZM42.2737 16V7.24H43.4257V16H42.2737ZM41.3857 8.152V7.24H43.4257V8.152H41.3857Z" fill="#FFE6D5"/>
<defs>
<clipPath id="clip0_77_6336">
<rect width="16" height="16" fill="white" transform="translate(4 4)"/>
</clipPath>
</defs>
</svg>
