<svg width="24" height="24" viewBox="0 0 24 24" fill="none" xmlns="http://www.w3.org/2000/svg">
<path d="M7 7.75C7 8.99264 8.00736 10 9.25 10V11.5C7.17893 11.5 5.5 9.82107 5.5 7.75H7ZM9.25 10C10.4926 10 11.5 8.99264 11.5 7.75H13C13 9.82107 11.3211 11.5 9.25 11.5V10ZM11.5 7.75C11.5 6.50736 10.4926 5.5 9.25 5.5V4C11.3211 4 13 5.67893 13 7.75H11.5ZM9.25 5.5C8.00736 5.5 7 6.50736 7 7.75H5.5C5.5 5.67893 7.17893 4 9.25 4V5.5ZM12.25 14.5H6.25V13H12.25V14.5ZM6.25 19H12.25V20.5H6.25V19ZM12.25 19C13.4926 19 14.5 17.9926 14.5 16.75H16C16 18.8211 14.3211 20.5 12.25 20.5V19ZM4 16.75C4 17.9926 5.00736 19 6.25 19V20.5C4.17893 20.5 2.5 18.8211 2.5 16.75H4ZM6.25 14.5C5.00736 14.5 4 15.5074 4 16.75H2.5C2.5 14.6789 4.17893 13 6.25 13V14.5ZM12.25 13C14.3211 13 16 14.6789 16 16.75H14.5C14.5 15.5074 13.4926 14.5 12.25 14.5V13Z" fill="#FAFAFA"/>
<path d="M13.4979 10.3887C13.6556 10.1353 13.9515 10 14.25 10C15.4926 10 16.5 8.99264 16.5 7.75C16.5 6.50736 15.4926 5.5 14.25 5.5C13.9515 5.5 13.6556 5.36473 13.4979 5.11135C13.4909 5.10014 13.4839 5.08896 13.4768 5.07782C13.2142 4.66331 13.3473 4.0764 13.835 4.0227C13.9713 4.0077 14.1097 4 14.25 4C16.3211 4 18 5.67893 18 7.75C18 9.82107 16.3211 11.5 14.25 11.5C14.1097 11.5 13.9713 11.4923 13.835 11.4773C13.3473 11.4236 13.2142 10.8367 13.4768 10.4222C13.4839 10.411 13.4909 10.3999 13.4979 10.3887Z" fill="#FAFAFA"/>
<path d="M16.5417 18.3169C16.6552 18.1275 16.8556 18 17.0764 18H17.25C18.4926 18 19.5 16.9926 19.5 15.75C19.5 14.5074 18.4926 13.5 17.25 13.5H17.0764C16.8556 13.5 16.6552 13.3725 16.5417 13.1831C16.2646 12.7208 16.5653 12 17.1043 12H17.25C19.3211 12 21 13.6789 21 15.75C21 17.8211 19.3211 19.5 17.25 19.5H17.1043C16.5653 19.5 16.2646 18.7792 16.5417 18.3169Z" fill="#FAFAFA"/>
</svg>
