<svg width="24" height="24" viewBox="0 0 24 24" fill="none" xmlns="http://www.w3.org/2000/svg">
<path d="M16.6517 14.591C16.3588 14.2981 15.8839 14.2981 15.591 14.591C15.2981 14.8839 15.2981 15.3588 15.591 15.6517L16.6517 14.591ZM19.8337 19.8943C20.1266 20.1872 20.6014 20.1872 20.8943 19.8943C21.1872 19.6014 21.1872 19.1265 20.8943 18.8336L19.8337 19.8943ZM15.591 18.8336C15.2981 19.1265 15.2981 19.6014 15.591 19.8943C15.8839 20.1872 16.3588 20.1872 16.6517 19.8943L15.591 18.8336ZM20.8943 15.6516C21.1872 15.3588 21.1872 14.8839 20.8943 14.591C20.6014 14.2981 20.1266 14.2981 19.8337 14.591L20.8943 15.6516ZM14 13.75C14.4142 13.75 14.75 13.4142 14.75 13C14.75 12.5858 14.4142 12.25 14 12.25V13.75ZM14 21.75C14.4142 21.75 14.75 21.4142 14.75 21C14.75 20.5858 14.4142 20.25 14 20.25V21.75ZM14.25 6C14.25 7.79493 12.7949 9.25 11 9.25V10.75C13.6234 10.75 15.75 8.62335 15.75 6H14.25ZM11 9.25C9.20507 9.25 7.75 7.79493 7.75 6H6.25C6.25 8.62335 8.37665 10.75 11 10.75V9.25ZM7.75 6C7.75 4.20507 9.20507 2.75 11 2.75V1.25C8.37665 1.25 6.25 3.37665 6.25 6H7.75ZM11 2.75C12.7949 2.75 14.25 4.20507 14.25 6H15.75C15.75 3.37665 13.6234 1.25 11 1.25V2.75ZM15.591 15.6517L19.8337 19.8943L20.8943 18.8336L16.6517 14.591L15.591 15.6517ZM16.6517 19.8943L20.8943 15.6516L19.8337 14.591L15.591 18.8336L16.6517 19.8943ZM8 13.75H14V12.25H8V13.75ZM14 20.25H8V21.75H14V20.25ZM8 20.25C6.20507 20.25 4.75 18.7949 4.75 17H3.25C3.25 19.6234 5.37665 21.75 8 21.75V20.25ZM8 12.25C5.37665 12.25 3.25 14.3766 3.25 17H4.75C4.75 15.2051 6.20507 13.75 8 13.75V12.25Z" fill="#FAFAFA"/>
</svg>
