<svg width="24" height="24" viewBox="0 0 24 24" fill="none" xmlns="http://www.w3.org/2000/svg">
<path d="M5.06107 20.0451L4.62023 20.6518L5.06107 20.0451ZM3.95491 18.9389L3.34815 19.3798H3.34815L3.95491 18.9389ZM20.0451 18.9389L19.4383 18.4981L20.0451 18.9389ZM18.9389 20.0451L18.4981 19.4383L18.9389 20.0451ZM18.9389 3.95491L18.4981 4.56168L18.9389 3.95491ZM20.0451 5.06107L19.4383 5.50191L20.0451 5.06107ZM5.06107 3.95491L5.50191 4.56168L5.06107 3.95491ZM3.95491 5.06107L4.56168 5.50191L3.95491 5.06107ZM5.00344 19.8325L4.25408 19.8016L4.25344 19.8171V19.8325H5.00344ZM18.9905 19.7225L19.7401 19.6969L19.7396 19.6841L19.7388 19.6712L18.9905 19.7225ZM15.25 9C15.25 10.7949 13.7949 12.25 12 12.25V13.75C14.6234 13.75 16.75 11.6234 16.75 9H15.25ZM12 12.25C10.2051 12.25 8.75 10.7949 8.75 9H7.25C7.25 11.6234 9.37665 13.75 12 13.75V12.25ZM8.75 9C8.75 7.20507 10.2051 5.75 12 5.75V4.25C9.37665 4.25 7.25 6.37665 7.25 9H8.75ZM12 5.75C13.7949 5.75 15.25 7.20507 15.25 9H16.75C16.75 6.37665 14.6234 4.25 12 4.25V5.75ZM12 20.25C10.1084 20.25 8.74999 20.249 7.69804 20.135C6.66013 20.0225 6.00992 19.8074 5.50191 19.4383L4.62023 20.6518C5.42656 21.2377 6.37094 21.5 7.53648 21.6263C8.68798 21.751 10.1418 21.75 12 21.75V20.25ZM2.25 12C2.25 13.8582 2.24897 15.312 2.37373 16.4635C2.50001 17.6291 2.76232 18.5734 3.34815 19.3798L4.56168 18.4981C4.19259 17.9901 3.97745 17.3399 3.865 16.302C3.75103 15.25 3.75 13.8916 3.75 12H2.25ZM20.25 12C20.25 13.8916 20.249 15.25 20.135 16.302C20.0225 17.3399 19.8074 17.9901 19.4383 18.4981L20.6518 19.3798C21.2377 18.5734 21.5 17.6291 21.6263 16.4635C21.751 15.312 21.75 13.8582 21.75 12H20.25ZM12 21.75C13.8582 21.75 15.312 21.751 16.4635 21.6263C17.6291 21.5 18.5734 21.2377 19.3798 20.6518L18.4981 19.4383C17.9901 19.8074 17.3399 20.0225 16.302 20.135C15.25 20.249 13.8916 20.25 12 20.25V21.75ZM12 3.75C13.8916 3.75 15.25 3.75103 16.302 3.865C17.3399 3.97745 17.9901 4.19259 18.4981 4.56168L19.3798 3.34815C18.5734 2.76232 17.6291 2.50001 16.4635 2.37373C15.312 2.24897 13.8582 2.25 12 2.25V3.75ZM21.75 12C21.75 10.1418 21.751 8.68798 21.6263 7.53648C21.5 6.37094 21.2377 5.42656 20.6518 4.62023L19.4383 5.50191C19.8074 6.00992 20.0225 6.66013 20.135 7.69804C20.249 8.74999 20.25 10.1084 20.25 12H21.75ZM18.4981 4.56168C18.8589 4.82382 19.1762 5.14111 19.4383 5.50191L20.6518 4.62023C20.2972 4.13209 19.8679 3.70281 19.3798 3.34815L18.4981 4.56168ZM12 2.25C10.1418 2.25 8.68798 2.24897 7.53648 2.37373C6.37094 2.50001 5.42656 2.76232 4.62023 3.34815L5.50191 4.56168C6.00992 4.19259 6.66013 3.97745 7.69804 3.865C8.74999 3.75103 10.1084 3.75 12 3.75V2.25ZM3.75 12C3.75 10.1084 3.75103 8.74999 3.865 7.69804C3.97745 6.66013 4.19259 6.00992 4.56168 5.50191L3.34815 4.62023C2.76232 5.42656 2.50001 6.37094 2.37373 7.53648C2.24897 8.68798 2.25 10.1418 2.25 12H3.75ZM4.62023 3.34815C4.13209 3.70281 3.70281 4.13209 3.34815 4.62023L4.56168 5.50191C4.82382 5.14111 5.14111 4.82382 5.50191 4.56168L4.62023 3.34815ZM9 16.75H15V15.25H9V16.75ZM9 15.25C6.4431 15.25 4.35837 17.27 4.25408 19.8016L5.75281 19.8634C5.82413 18.1321 7.25085 16.75 9 16.75V15.25ZM5.50191 19.4383C5.4855 19.4264 5.46917 19.4144 5.45293 19.4022L4.55396 20.603C4.57592 20.6194 4.59801 20.6357 4.62023 20.6518L5.50191 19.4383ZM5.45293 19.4022C5.11235 19.1472 4.81189 18.8425 4.56168 18.4981L3.34815 19.3798C3.68667 19.8457 4.09317 20.258 4.55396 20.603L5.45293 19.4022ZM4.25344 19.8325V20.0026H5.75344V19.8325H4.25344ZM15 16.75C16.7188 16.75 18.1265 18.0848 18.2423 19.7738L19.7388 19.6712C19.5695 17.2009 17.5129 15.25 15 15.25V16.75ZM19.4383 18.4981C19.1888 18.8415 18.8894 19.1455 18.55 19.4L19.45 20.6C19.9092 20.2556 20.3143 19.8444 20.6518 19.3798L19.4383 18.4981ZM18.55 19.4C18.5328 19.4129 18.5155 19.4257 18.4981 19.4383L19.3798 20.6518C19.4033 20.6347 19.4267 20.6175 19.45 20.6L18.55 19.4ZM18.241 19.7481L18.2504 20.0256L19.7496 19.9744L19.7401 19.6969L18.241 19.7481Z" fill="#FAFAFA"/>
</svg>
