<svg width="24" height="24" viewBox="0 0 24 24" fill="none" xmlns="http://www.w3.org/2000/svg">
<path d="M13 13.75C13.4142 13.75 13.75 13.4142 13.75 13C13.75 12.5858 13.4142 12.25 13 12.25V13.75ZM13 21.75C13.4142 21.75 13.75 21.4142 13.75 21C13.75 20.5858 13.4142 20.25 13 20.25V21.75ZM22.5588 13.5003C22.8351 13.1917 22.8089 12.7175 22.5003 12.4412C22.1917 12.1649 21.7175 12.1911 21.4412 12.4997L22.5588 13.5003ZM18.6308 16.7632L18.0721 16.2629L18.6308 16.7632ZM12.8692 16.7632L13.4279 16.2629H13.4279L12.8692 16.7632ZM12.5588 15.2921C12.2825 14.9835 11.8083 14.9573 11.4997 15.2336C11.1911 15.5099 11.1649 15.984 11.4412 16.2926L12.5588 15.2921ZM13.25 6C13.25 7.79493 11.7949 9.25 10 9.25V10.75C12.6234 10.75 14.75 8.62335 14.75 6H13.25ZM10 9.25C8.20507 9.25 6.75 7.79493 6.75 6H5.25C5.25 8.62335 7.37665 10.75 10 10.75V9.25ZM6.75 6C6.75 4.20507 8.20507 2.75 10 2.75V1.25C7.37665 1.25 5.25 3.37665 5.25 6H6.75ZM10 2.75C11.7949 2.75 13.25 4.20507 13.25 6H14.75C14.75 3.37665 12.6234 1.25 10 1.25V2.75ZM7 13.75H13V12.25H7V13.75ZM13 20.25H7V21.75H13V20.25ZM7 20.25C5.20507 20.25 3.75 18.7949 3.75 17H2.25C2.25 19.6234 4.37665 21.75 7 21.75V20.25ZM7 12.25C4.37665 12.25 2.25 14.3766 2.25 17H3.75C3.75 15.2051 5.20507 13.75 7 13.75V12.25ZM21.4412 12.4997L18.0721 16.2629L19.1896 17.2635L22.5588 13.5003L21.4412 12.4997ZM13.4279 16.2629L12.5588 15.2921L11.4412 16.2926L12.3104 17.2634L13.4279 16.2629ZM18.0721 16.2629C17.3894 17.0254 16.9296 17.5363 16.5365 17.8667C16.1621 18.1814 15.9421 18.25 15.75 18.25V19.75C16.4361 19.75 16.989 19.4458 17.5016 19.0149C17.9957 18.5997 18.5372 17.9921 19.1896 17.2635L18.0721 16.2629ZM12.3104 17.2634C12.9628 17.9921 13.5043 18.5997 13.9984 19.0149C14.511 19.4458 15.0639 19.75 15.75 19.75V18.25C15.5579 18.25 15.3379 18.1814 14.9635 17.8667C14.5704 17.5363 14.1106 17.0254 13.4279 16.2629L12.3104 17.2634Z" fill="#FAFAFA"/>
</svg>
