<svg width="24" height="24" viewBox="0 0 24 24" fill="none" xmlns="http://www.w3.org/2000/svg">
<path d="M15 16.25C14.5858 16.25 14.25 16.5858 14.25 17C14.25 17.4142 14.5858 17.75 15 17.75V16.25ZM21 17.75C21.4142 17.75 21.75 17.4142 21.75 17C21.75 16.5858 21.4142 16.25 21 16.25V17.75ZM14 13.75C14.4142 13.75 14.75 13.4142 14.75 13C14.75 12.5858 14.4142 12.25 14 12.25V13.75ZM14 21.75C14.4142 21.75 14.75 21.4142 14.75 21C14.75 20.5858 14.4142 20.25 14 20.25V21.75ZM14.25 6C14.25 7.79493 12.7949 9.25 11 9.25V10.75C13.6234 10.75 15.75 8.62335 15.75 6H14.25ZM11 9.25C9.20507 9.25 7.75 7.79493 7.75 6H6.25C6.25 8.62335 8.37665 10.75 11 10.75V9.25ZM7.75 6C7.75 4.20507 9.20507 2.75 11 2.75V1.25C8.37665 1.25 6.25 3.37665 6.25 6H7.75ZM11 2.75C12.7949 2.75 14.25 4.20507 14.25 6H15.75C15.75 3.37665 13.6234 1.25 11 1.25V2.75ZM15 17.75H21V16.25H15V17.75ZM8 13.75H14V12.25H8V13.75ZM14 20.25H8V21.75H14V20.25ZM8 20.25C6.20507 20.25 4.75 18.7949 4.75 17H3.25C3.25 19.6234 5.37665 21.75 8 21.75V20.25ZM8 12.25C5.37665 12.25 3.25 14.3766 3.25 17H4.75C4.75 15.2051 6.20507 13.75 8 13.75V12.25Z" fill="#FAFAFA"/>
</svg>
