<svg width="24" height="24" viewBox="0 0 24 24" fill="none" xmlns="http://www.w3.org/2000/svg">
<path d="M16 11.25C15.5858 11.25 15.25 11.5858 15.25 12C15.25 12.4142 15.5858 12.75 16 12.75V11.25ZM22 12.75C22.4142 12.75 22.75 12.4142 22.75 12C22.75 11.5858 22.4142 11.25 22 11.25V12.75ZM12.25 7C12.25 8.79493 10.7949 10.25 9 10.25V11.75C11.6234 11.75 13.75 9.62335 13.75 7H12.25ZM9 10.25C7.20507 10.25 5.75 8.79493 5.75 7H4.25C4.25 9.62335 6.37665 11.75 9 11.75V10.25ZM5.75 7C5.75 5.20507 7.20507 3.75 9 3.75V2.25C6.37665 2.25 4.25 4.37665 4.25 7H5.75ZM9 3.75C10.7949 3.75 12.25 5.20507 12.25 7H13.75C13.75 4.37665 11.6234 2.25 9 2.25V3.75ZM6 14.75H12V13.25H6V14.75ZM12 21.25H6V22.75H12V21.25ZM6 21.25C4.20507 21.25 2.75 19.7949 2.75 18H1.25C1.25 20.6234 3.37665 22.75 6 22.75V21.25ZM15.25 18C15.25 19.7949 13.7949 21.25 12 21.25V22.75C14.6234 22.75 16.75 20.6234 16.75 18H15.25ZM12 14.75C13.7949 14.75 15.25 16.2051 15.25 18H16.75C16.75 15.3766 14.6234 13.25 12 13.25V14.75ZM6 13.25C3.37665 13.25 1.25 15.3766 1.25 18H2.75C2.75 16.2051 4.20507 14.75 6 14.75V13.25ZM16 12.75H22V11.25H16V12.75Z" fill="#FAFAFA"/>
</svg>
