<svg width="24" height="24" viewBox="0 0 24 24" fill="none" xmlns="http://www.w3.org/2000/svg">
<path d="M17.6517 8.59099C17.3588 8.2981 16.8839 8.2981 16.591 8.59099C16.2981 8.88388 16.2981 9.35876 16.591 9.65165L17.6517 8.59099ZM20.8337 13.8943C21.1266 14.1872 21.6014 14.1872 21.8943 13.8943C22.1872 13.6014 22.1872 13.1265 21.8943 12.8336L20.8337 13.8943ZM16.591 12.8336C16.2981 13.1265 16.2981 13.6014 16.591 13.8943C16.8839 14.1872 17.3588 14.1872 17.6517 13.8943L16.591 12.8336ZM21.8943 9.65165C22.1872 9.35876 22.1872 8.88388 21.8943 8.59099C21.6014 8.2981 21.1266 8.2981 20.8337 8.59099L21.8943 9.65165ZM12.25 6C12.25 7.79493 10.7949 9.25 9 9.25V10.75C11.6234 10.75 13.75 8.62335 13.75 6H12.25ZM9 9.25C7.20507 9.25 5.75 7.79493 5.75 6H4.25C4.25 8.62335 6.37665 10.75 9 10.75V9.25ZM5.75 6C5.75 4.20507 7.20507 2.75 9 2.75V1.25C6.37665 1.25 4.25 3.37665 4.25 6H5.75ZM9 2.75C10.7949 2.75 12.25 4.20507 12.25 6H13.75C13.75 3.37665 11.6234 1.25 9 1.25V2.75ZM6 13.75H12V12.25H6V13.75ZM12 20.25H6V21.75H12V20.25ZM6 20.25C4.20507 20.25 2.75 18.7949 2.75 17H1.25C1.25 19.6234 3.37665 21.75 6 21.75V20.25ZM15.25 17C15.25 18.7949 13.7949 20.25 12 20.25V21.75C14.6234 21.75 16.75 19.6234 16.75 17H15.25ZM12 13.75C13.7949 13.75 15.25 15.2051 15.25 17H16.75C16.75 14.3766 14.6234 12.25 12 12.25V13.75ZM6 12.25C3.37665 12.25 1.25 14.3766 1.25 17H2.75C2.75 15.2051 4.20507 13.75 6 13.75V12.25ZM16.591 9.65165L20.8337 13.8943L21.8943 12.8336L17.6517 8.59099L16.591 9.65165ZM17.6517 13.8943L21.8943 9.65165L20.8337 8.59099L16.591 12.8336L17.6517 13.8943Z" fill="#FAFAFA"/>
</svg>
