<svg width="24" height="24" viewBox="0 0 24 24" fill="none" xmlns="http://www.w3.org/2000/svg">
<path d="M3.02486 7.1046L3.69218 7.44693L3.02486 7.1046ZM3.2728 6.67516L3.90293 7.08191L3.2728 6.67516ZM7.23677 20.2501L6.86177 20.8996L7.23677 20.2501ZM3.2728 17.325L3.90293 16.9182L3.2728 17.325ZM3.02486 16.8955L3.69218 16.5532L3.02486 16.8955ZM16.7631 20.2501L17.1381 20.8996L16.7631 20.2501ZM12.2478 22.2204L12.285 22.9695L12.2478 22.2204ZM11.752 22.2204L11.7148 22.9695L11.752 22.2204ZM20.975 16.8955L20.3076 16.5532L20.975 16.8955ZM20.727 17.325L20.0969 16.9182L20.727 17.325ZM20.727 6.67516L20.0969 7.08191L20.727 6.67516ZM20.975 7.1046L20.3076 7.44693L20.975 7.1046ZM12.2478 1.77971L12.285 1.03063L12.2478 1.77971ZM11.752 1.77971L11.7148 1.03063L11.752 1.77971ZM18.8359 18.8628L18.1168 19.0757L18.1226 19.0953L18.1294 19.1145L18.8359 18.8628ZM5.15685 18.8869L4.43636 18.6786L4.42666 18.7121L4.42012 18.7464L5.15685 18.8869ZM5.13528 19L4.7297 19.6309L5.13528 19ZM15.2499 9.00006C15.2499 10.795 13.7948 12.2501 11.9999 12.2501V13.7501C14.6233 13.7501 16.7499 11.6234 16.7499 9.00006H15.2499ZM11.9999 12.2501C10.205 12.2501 8.74991 10.795 8.74991 9.00006H7.24991C7.24991 11.6234 9.37656 13.7501 11.9999 13.7501V12.2501ZM8.74991 9.00006C8.74991 7.20513 10.205 5.75006 11.9999 5.75006V4.25006C9.37656 4.25006 7.24991 6.3767 7.24991 9.00006H8.74991ZM11.9999 5.75006C13.7948 5.75006 15.2499 7.20513 15.2499 9.00006H16.7499C16.7499 6.3767 14.6233 4.25006 11.9999 4.25006V5.75006ZM3.22363 12.0001C3.22363 10.7133 3.22432 9.79692 3.28956 9.0668C3.35352 8.35098 3.4761 7.86815 3.69218 7.44693L2.35755 6.76227C2.0224 7.41559 1.86936 8.10684 1.79551 8.9333C1.72294 9.74545 1.72363 10.7396 1.72363 12.0001H3.22363ZM6.86177 3.10054C5.77015 3.73078 4.90888 4.22724 4.24182 4.69617C3.56301 5.17335 3.04089 5.65151 2.64268 6.26842L3.90293 7.08191C4.15967 6.68417 4.51653 6.3366 5.10446 5.9233C5.70414 5.50174 6.49738 5.04297 7.61177 4.39958L6.86177 3.10054ZM3.69218 7.44693C3.75635 7.32185 3.82668 7.20002 3.90293 7.08191L2.64268 6.26842C2.53952 6.42822 2.44436 6.59304 2.35755 6.76227L3.69218 7.44693ZM1.72363 12.0001C1.72363 13.2606 1.72294 14.2547 1.79551 15.0668C1.86936 15.8933 2.0224 16.5845 2.35755 17.2378L3.69218 16.5532C3.4761 16.132 3.35352 15.6491 3.28956 14.9333C3.22432 14.2032 3.22363 13.2868 3.22363 12.0001H1.72363ZM3.90293 16.9182C3.82668 16.8001 3.75635 16.6783 3.69218 16.5532L2.35755 17.2378C2.44436 17.4071 2.53952 17.5719 2.64268 17.7317L3.90293 16.9182ZM16.3881 19.6005C15.2737 20.2439 14.4797 20.7015 13.8148 21.0101C13.1629 21.3126 12.6835 21.4479 12.2107 21.4713L12.285 22.9695C13.0184 22.9331 13.6936 22.72 14.4462 22.3707C15.1859 22.0275 16.0464 21.5298 17.1381 20.8996L16.3881 19.6005ZM6.86177 20.8996C7.95339 21.5298 8.81397 22.0275 9.5536 22.3707C10.3063 22.72 10.9814 22.9331 11.7148 22.9695L11.7892 21.4713C11.3163 21.4479 10.8369 21.3126 10.185 21.0101C9.52009 20.7015 8.72616 20.2439 7.61177 19.6005L6.86177 20.8996ZM12.2107 21.4713C12.0702 21.4783 11.9296 21.4783 11.7892 21.4713L11.7148 22.9695C11.9048 22.9789 12.0951 22.9789 12.285 22.9695L12.2107 21.4713ZM20.7762 12.0001C20.7762 13.2868 20.7755 14.2032 20.7103 14.9333C20.6463 15.6491 20.5237 16.132 20.3076 16.5532L21.6423 17.2378C21.9774 16.5845 22.1305 15.8933 22.2043 15.0668C22.2769 14.2547 22.2762 13.2606 22.2762 12.0001H20.7762ZM20.3076 16.5532C20.2435 16.6783 20.1731 16.8001 20.0969 16.9182L21.3571 17.7317C21.4603 17.5719 21.5555 17.4071 21.6423 17.2378L20.3076 16.5532ZM16.3881 4.39958C17.5024 5.04297 18.2957 5.50174 18.8954 5.9233C19.4833 6.3366 19.8402 6.68417 20.0969 7.08191L21.3571 6.26842C20.9589 5.65151 20.4368 5.17335 19.758 4.69617C19.0909 4.22724 18.2297 3.73078 17.1381 3.10054L16.3881 4.39958ZM22.2762 12.0001C22.2762 10.7396 22.2769 9.74545 22.2043 8.9333C22.1305 8.10684 21.9774 7.41559 21.6423 6.76227L20.3076 7.44693C20.5237 7.86815 20.6463 8.35098 20.7103 9.0668C20.7755 9.79692 20.7762 10.7133 20.7762 12.0001H22.2762ZM20.0969 7.08191C20.1731 7.20003 20.2435 7.32185 20.3076 7.44693L21.6423 6.76227C21.5555 6.59304 21.4603 6.42822 21.3571 6.26842L20.0969 7.08191ZM17.1381 3.10054C16.0464 2.47029 15.1859 1.97264 14.4462 1.62941C13.6936 1.28013 13.0184 1.06704 12.285 1.03063L12.2107 2.52879C12.6835 2.55226 13.1629 2.68753 13.8148 2.99004C14.4797 3.2986 15.2737 3.75618 16.3881 4.39958L17.1381 3.10054ZM7.61177 4.39958C8.72616 3.75618 9.52009 3.2986 10.185 2.99004C10.8369 2.68753 11.3163 2.55226 11.7892 2.52879L11.7148 1.03063C10.9814 1.06704 10.3063 1.28013 9.5536 1.62941C8.81397 1.97264 7.95339 2.47029 6.86177 3.10054L7.61177 4.39958ZM12.285 1.03063C12.0951 1.0212 11.9048 1.0212 11.7148 1.03063L11.7892 2.52879C11.9296 2.52182 12.0702 2.52182 12.2107 2.52879L12.285 1.03063ZM8.99991 16.7501H14.9999V15.2501H8.99991V16.7501ZM14.9999 16.7501C16.4727 16.7501 17.7186 17.7304 18.1168 19.0757L19.5551 18.65C18.9735 16.685 17.1552 15.2501 14.9999 15.2501V16.7501ZM17.1381 20.8996C17.9935 20.4057 18.7046 19.9954 19.2873 19.6198L18.4747 18.359C17.9296 18.7103 17.2547 19.1002 16.3881 19.6005L17.1381 20.8996ZM19.2873 19.6198C20.2005 19.0313 20.8719 18.4835 21.3571 17.7317L20.0969 16.9182C19.7836 17.4036 19.3232 17.8122 18.4747 18.359L19.2873 19.6198ZM18.1294 19.1145L18.1745 19.241L19.5875 18.7378L19.5425 18.6112L18.1294 19.1145ZM8.99991 15.2501C6.83419 15.2501 5.00879 16.6988 4.43636 18.6786L5.87733 19.0952C6.26922 17.7399 7.51994 16.7501 8.99991 16.7501V15.2501ZM7.61177 19.6005C6.75368 19.1051 6.08339 18.7179 5.54085 18.3691L4.7297 19.6309C5.30901 20.0033 6.0145 20.4104 6.86177 20.8996L7.61177 19.6005ZM5.54085 18.3691C4.68236 17.8172 4.21826 17.4067 3.90293 16.9182L2.64268 17.7317C3.13094 18.4881 3.80768 19.0381 4.7297 19.6309L5.54085 18.3691ZM4.42012 18.7464L4.39855 18.8595L5.872 19.1405L5.89357 19.0274L4.42012 18.7464Z" fill="#FAFAFA"/>
</svg>
