<svg width="24" height="24" viewBox="0 0 24 24" fill="none" xmlns="http://www.w3.org/2000/svg">
<path d="M16 10.25C15.5858 10.25 15.25 10.5858 15.25 11C15.25 11.4142 15.5858 11.75 16 11.75V10.25ZM22 11.75C22.4142 11.75 22.75 11.4142 22.75 11C22.75 10.5858 22.4142 10.25 22 10.25V11.75ZM18.25 14C18.25 14.4142 18.5858 14.75 19 14.75C19.4142 14.75 19.75 14.4142 19.75 14H18.25ZM19.75 8C19.75 7.58579 19.4142 7.25 19 7.25C18.5858 7.25 18.25 7.58579 18.25 8H19.75ZM12.25 6C12.25 7.79493 10.7949 9.25 9 9.25V10.75C11.6234 10.75 13.75 8.62335 13.75 6H12.25ZM9 9.25C7.20507 9.25 5.75 7.79493 5.75 6H4.25C4.25 8.62335 6.37665 10.75 9 10.75V9.25ZM5.75 6C5.75 4.20507 7.20507 2.75 9 2.75V1.25C6.37665 1.25 4.25 3.37665 4.25 6H5.75ZM9 2.75C10.7949 2.75 12.25 4.20507 12.25 6H13.75C13.75 3.37665 11.6234 1.25 9 1.25V2.75ZM6 13.75H12V12.25H6V13.75ZM12 20.25H6V21.75H12V20.25ZM6 20.25C4.20507 20.25 2.75 18.7949 2.75 17H1.25C1.25 19.6234 3.37665 21.75 6 21.75V20.25ZM15.25 17C15.25 18.7949 13.7949 20.25 12 20.25V21.75C14.6234 21.75 16.75 19.6234 16.75 17H15.25ZM12 13.75C13.7949 13.75 15.25 15.2051 15.25 17H16.75C16.75 14.3766 14.6234 12.25 12 12.25V13.75ZM6 12.25C3.37665 12.25 1.25 14.3766 1.25 17H2.75C2.75 15.2051 4.20507 13.75 6 13.75V12.25ZM16 11.75H22V10.25H16V11.75ZM19.75 14V11H18.25V14H19.75ZM19.75 11V8H18.25V11H19.75Z" fill="#FAFAFA"/>
</svg>
