<svg width="24" height="24" viewBox="0 0 24 24" fill="none" xmlns="http://www.w3.org/2000/svg">
<path d="M8.79909 18.6744L8.25873 19.1945H8.25873L8.79909 18.6744ZM8.79119 18.6662L8.25371 19.1893L8.79119 18.6662ZM8.08008 18.3637L8.08422 17.6137L8.08008 18.3637ZM15.9199 18.3637L15.9158 17.6137L15.9199 18.3637ZM15.2009 18.6744L14.6605 18.1543L15.2009 18.6744ZM15.2088 18.6662L15.7463 19.1893L15.2088 18.6662ZM14.8819 19.0058L15.4223 19.5259L14.8819 19.0058ZM9.11805 19.0058L9.65842 18.4857H9.65842L9.11805 19.0058ZM12 21.1159V21.8659V21.1159ZM3.00029 13.4176L2.25033 13.4257L3.00029 13.4176ZM7.94604 18.3633L7.93795 19.1133L7.94604 18.3633ZM20.9997 13.4176L21.7497 13.4257L20.9997 13.4176ZM16.054 18.3633L16.0621 19.1133L16.054 18.3633ZM18.3962 2.61161L18.0368 3.26987L18.3962 2.61161ZM20.3884 4.60375L19.7301 4.96319L20.3884 4.60375ZM5.60375 2.61161L5.96319 3.26987L5.60375 2.61161ZM3.61161 4.60375L4.26987 4.96319L3.61161 4.60375ZM5.26973 17.553L4.85969 18.181L5.26973 17.553ZM18.7303 17.553L19.1403 18.181L18.7303 17.553ZM15.25 8C15.25 9.79493 13.7949 11.25 12 11.25V12.75C14.6234 12.75 16.75 10.6234 16.75 8H15.25ZM12 11.25C10.2051 11.25 8.75 9.79493 8.75 8H7.25C7.25 10.6234 9.37665 12.75 12 12.75V11.25ZM8.75 8C8.75 6.20507 10.2051 4.75 12 4.75V3.25C9.37665 3.25 7.25 5.37665 7.25 8H8.75ZM12 4.75C13.7949 4.75 15.25 6.20507 15.25 8H16.75C16.75 5.37665 14.6234 3.25 12 3.25V4.75ZM11.1818 2.75H12.8182V1.25H11.1818V2.75ZM20.25 10.1818V13.2949H21.75V10.1818H20.25ZM3.75 13.2949V10.1818H2.25V13.2949H3.75ZM14.6605 18.1543L14.3416 18.4857L15.4223 19.5259L15.7413 19.1945L14.6605 18.1543ZM9.65842 18.4857L9.33946 18.1543L8.25873 19.1945L8.57769 19.5259L9.65842 18.4857ZM9.33946 18.1543C9.33615 18.1508 9.33241 18.147 9.32868 18.1431L8.25371 19.1893C8.25359 19.1892 8.25372 19.1893 8.25452 19.1901C8.25543 19.1911 8.2566 19.1923 8.25873 19.1945L9.33946 18.1543ZM8.0687 19.1136C8.07173 19.1136 8.07342 19.1136 8.0747 19.1136C8.07584 19.1136 8.07605 19.1136 8.07593 19.1136L8.08422 17.6137C8.0789 17.6136 8.07361 17.6136 8.0687 17.6136V19.1136ZM9.32868 18.1431C9.00157 17.807 8.55323 17.6163 8.08422 17.6137L8.07593 19.1136C8.14293 19.114 8.20698 19.1413 8.25371 19.1893L9.32868 18.1431ZM15.9313 17.6136C15.9264 17.6136 15.9211 17.6136 15.9158 17.6137L15.9241 19.1136C15.924 19.1136 15.9242 19.1136 15.9253 19.1136C15.9266 19.1136 15.9283 19.1136 15.9313 19.1136V17.6136ZM15.7413 19.1945C15.7457 19.1899 15.7461 19.1895 15.7463 19.1893L14.6713 18.1431C14.6677 18.1469 14.6641 18.1506 14.6605 18.1543L15.7413 19.1945ZM15.9158 17.6137C15.4468 17.6163 14.9984 17.807 14.6713 18.1431L15.7463 19.1893C15.793 19.1413 15.8571 19.114 15.9241 19.1136L15.9158 17.6137ZM14.3416 18.4857C13.6496 19.2046 13.1826 19.6875 12.7872 20.0001C12.4088 20.2991 12.1884 20.3659 12 20.3659V21.8659C12.6625 21.8659 13.206 21.5811 13.7174 21.1768C14.2118 20.786 14.7603 20.2137 15.4223 19.5259L14.3416 18.4857ZM8.57769 19.5259C9.23971 20.2137 9.78823 20.7859 10.2826 21.1768C10.794 21.5811 11.3375 21.8659 12 21.8659V20.3659C11.8116 20.3659 11.5912 20.2991 11.2128 20.0001C10.8174 19.6875 10.3504 19.2046 9.65842 18.4857L8.57769 19.5259ZM2.25 13.2949C2.25 13.3568 2.24999 13.3936 2.25033 13.4257L3.75025 13.4095C3.75001 13.3876 3.75 13.3607 3.75 13.2949H2.25ZM8.0687 17.6136C8.00293 17.6136 7.97604 17.6136 7.95413 17.6134L7.93795 19.1133C7.97 19.1136 8.0069 19.1136 8.0687 19.1136V17.6136ZM20.25 13.2949C20.25 13.3607 20.25 13.3876 20.2498 13.4095L21.7497 13.4257C21.75 13.3936 21.75 13.3568 21.75 13.2949H20.25ZM15.9313 19.1136C15.9931 19.1136 16.03 19.1136 16.0621 19.1133L16.0459 17.6134C16.024 17.6136 15.9971 17.6136 15.9313 17.6136V19.1136ZM12.8182 2.75C14.3173 2.75 15.3938 2.75066 16.237 2.82366C17.0706 2.89583 17.6056 3.03442 18.0368 3.26987L18.7557 1.95335C18.0668 1.57719 17.2988 1.40998 16.3664 1.32925C15.4435 1.24934 14.291 1.25 12.8182 1.25V2.75ZM21.75 10.1818C21.75 8.70898 21.7507 7.55649 21.6708 6.63362C21.59 5.70118 21.4228 4.9332 21.0467 4.24432L19.7301 4.96319C19.9656 5.39438 20.1042 5.92944 20.1763 6.76301C20.2493 7.60616 20.25 8.68267 20.25 10.1818H21.75ZM18.0368 3.26987C18.7519 3.66033 19.3397 4.24811 19.7301 4.96319L21.0467 4.24432C20.5184 3.27685 19.7231 2.48162 18.7557 1.95335L18.0368 3.26987ZM11.1818 1.25C9.70897 1.25 8.55649 1.24934 7.63362 1.32925C6.70118 1.40998 5.9332 1.57719 5.24432 1.95335L5.96319 3.26987C6.39438 3.03442 6.92944 2.89583 7.76301 2.82366C8.60616 2.75066 9.68267 2.75 11.1818 2.75V1.25ZM3.75 10.1818C3.75 8.68267 3.75066 7.60616 3.82366 6.76301C3.89583 5.92944 4.03442 5.39438 4.26987 4.96319L2.95335 4.24432C2.57719 4.9332 2.40998 5.70118 2.32925 6.63362C2.24934 7.55648 2.25 8.70897 2.25 10.1818H3.75ZM5.24432 1.95335C4.27685 2.48162 3.48162 3.27685 2.95335 4.24432L4.26987 4.96319C4.66033 4.24811 5.24811 3.66033 5.96319 3.26987L5.24432 1.95335ZM9 15.75H15V14.25H9V15.75ZM9 14.25C6.98142 14.25 5.2587 15.5088 4.57056 17.2816L5.9689 17.8244C6.44057 16.6093 7.62086 15.75 9 15.75V14.25ZM2.25033 13.4257C2.27184 15.4183 3.30611 17.1666 4.85969 18.181L5.67978 16.9251C4.52838 16.1732 3.76613 14.881 3.75025 13.4095L2.25033 13.4257ZM4.85969 18.181C5.74659 18.7601 6.80376 19.1011 7.93795 19.1133L7.95413 17.6134C7.11403 17.6043 6.3345 17.3526 5.67978 16.9251L4.85969 18.181ZM15 15.75C16.3791 15.75 17.5594 16.6093 18.0311 17.8244L19.4294 17.2816C18.7413 15.5088 17.0186 14.25 15 14.25V15.75ZM20.2498 13.4095C20.2339 14.881 19.4716 16.1732 18.3202 16.9251L19.1403 18.181C20.6939 17.1666 21.7282 15.4183 21.7497 13.4257L20.2498 13.4095ZM18.3202 16.9251C17.6655 17.3526 16.886 17.6043 16.0459 17.6134L16.0621 19.1133C17.1962 19.1011 18.2534 18.7601 19.1403 18.181L18.3202 16.9251Z" fill="#FAFAFA"/>
</svg>
