<svg width="500" height="512" viewBox="0 0 500 512" fill="none" xmlns="http://www.w3.org/2000/svg">
<path fill-rule="evenodd" clip-rule="evenodd" d="M499.288 199.954C494.298 134.67 459.366 63.0971 391.963 43.4094C365.265 35.6253 333.724 38.822 313.623 58.041C338.065 34.6446 358.566 26.7948 391.895 23.4483C363.388 5.538 317.929 -3.96404 284.774 1.57312C271.102 3.829 256.815 9.6396 250.116 21.7393C243.417 9.6396 229.061 3.829 215.457 1.57312C182.303 -3.96404 136.843 5.538 108.406 23.4483C141.765 26.798 162.273 34.6594 186.746 58.1068C166.58 38.8293 135.066 35.6164 108.337 43.4094C40.866 63.0971 5.93404 134.67 0.943758 199.954C-1.31212 230.032 0.533599 260.657 5.86568 290.326C8.46336 304.613 11.8814 318.763 16.5982 332.572C18.7857 338.861 21.11 345.014 23.8444 351.098C25.1312 353.886 27.9319 359.113 30.2015 363.349L30.2025 363.351L30.2062 363.358C30.8285 364.519 31.4108 365.606 31.9108 366.547C33.2097 311.586 40.7293 278.568 73.8155 250.814C71.8293 254.963 71.5729 255.451 71.3945 255.79C71.2291 256.105 71.1308 256.292 69.7823 259.154C66.501 266.195 63.9717 273.509 61.7841 281.029C52.5556 311.996 52.6923 346.723 65.1338 377.075C79.0109 410.708 106.765 432.173 136.365 451.519C144.158 456.577 152.019 461.704 159.607 467.173C137.732 429.985 131.238 405.512 135.476 359.711C135.476 396.42 156.531 430.327 181.961 456.851C201.58 477.29 207.596 482.622 249.979 511.265C292.362 482.622 298.378 477.29 317.997 456.851C343.427 430.327 364.482 396.42 364.482 359.711C368.721 405.512 362.226 429.985 340.351 467.173C346.716 462.586 353.273 458.287 359.821 453.994L359.822 453.994C361.08 453.169 362.338 452.345 363.594 451.519C393.193 432.241 421.016 410.776 434.825 377.075C447.266 346.723 447.403 312.064 438.174 281.029C435.918 273.509 433.457 266.263 430.176 259.154C428.864 256.401 428.736 256.151 428.577 255.843C428.397 255.493 428.179 255.068 426.143 250.814C459.229 278.568 466.817 311.586 468.048 366.547C468.548 365.604 469.132 364.515 469.756 363.351C472.026 359.115 474.827 353.886 476.114 351.098C478.848 345.014 481.173 338.861 483.36 332.572C488.077 318.763 491.495 304.613 494.093 290.326C499.493 260.657 501.339 230.032 499.015 199.954H499.288ZM289.833 385.483C285.116 392.114 277.938 396.625 270.282 399.36C257.909 403.803 244.032 404.008 231.522 399.907C223.456 397.309 215.799 392.866 210.672 386.03C209.237 384.184 208.006 381.996 207.733 379.672C207.103 373.504 214.646 370.291 219.634 368.166C220.063 367.984 220.473 367.809 220.858 367.641C224.713 365.983 228.668 364.601 232.618 363.222L232.618 363.222L232.619 363.222C235.182 362.326 237.743 361.432 240.272 360.463C243.28 359.301 246.835 358.002 249.979 358.002C252.987 358.002 255.89 359.061 259.012 360.2C259.438 360.356 259.867 360.512 260.302 360.668C262.553 361.517 264.831 362.317 267.111 363.118L267.112 363.119C273.83 365.479 280.564 367.845 286.689 371.469C288.944 372.836 291.337 374.545 292.089 377.075C292.089 377.248 292.144 377.393 292.201 377.547L292.202 377.547C292.235 377.636 292.269 377.727 292.294 377.827C292.704 380.424 291.405 383.159 289.833 385.414V385.483ZM371.728 239.124C364.756 251.361 356.006 262.572 345.752 272.279C338.505 279.183 329.687 287.865 332.626 297.504C333.438 300.279 335.183 302.628 336.945 305C338.004 306.425 339.069 307.859 339.941 309.398C346.709 321.566 338.984 337.904 326.747 344.604C314.511 351.166 299.472 350.072 285.937 346.791C280.194 345.424 274.452 343.647 269.804 340.023C265.155 336.4 261.737 330.658 262.352 324.848C263.126 316.825 270.095 312.008 277.132 307.143C283.767 302.557 290.463 297.928 292.089 290.531C293.114 285.609 291.61 280.55 290.038 275.765C289.131 272.925 288.23 270.091 287.329 267.259L287.328 267.256C285.107 260.273 282.89 253.305 280.604 246.302L280.936 249.263L280.938 249.281C281.92 258.051 282.896 266.771 283.817 275.492C284.022 277.201 284.228 279.115 283.407 280.619C282.245 282.738 279.647 283.558 277.392 284.105C268.436 286.087 259.208 287.044 250.116 286.839C240.956 287.044 231.727 286.087 222.84 284.105C220.516 283.558 217.918 282.738 216.756 280.619C216.004 279.115 216.141 277.201 216.346 275.492C216.697 272.376 217.055 269.261 217.414 266.143L217.414 266.139C218.172 259.544 218.931 252.938 219.627 246.302C218.059 251.211 216.491 256.103 214.923 260.994L214.91 261.035C213.338 265.939 211.766 270.844 210.194 275.765L210.185 275.793C208.684 280.638 207.119 285.686 208.143 290.531C209.738 297.941 216.438 302.574 223.083 307.168C230.108 312.024 237.072 316.838 237.879 324.848C238.426 330.658 235.077 336.4 230.428 340.023C225.711 343.647 220.038 345.424 214.295 346.791C200.692 350.072 185.721 351.166 173.484 344.604C161.18 337.904 153.455 321.635 160.291 309.398C161.148 307.865 162.214 306.421 163.28 304.975C165.018 302.618 166.758 300.258 167.605 297.504C170.477 287.865 161.726 279.183 154.48 272.279C144.226 262.572 135.476 251.361 128.503 239.124C122.351 228.392 117.498 216.634 116.951 204.329C116.13 185.256 125.701 167.209 137.39 152.17C148.123 138.43 159.949 124.826 171.639 111.838C182.576 99.7381 195.633 100.08 211.082 101.994C224.071 103.566 237.059 104.387 250.116 104.387C263.173 104.387 276.229 103.566 289.081 101.994C304.53 100.08 317.656 99.7381 328.593 111.838C340.214 124.826 352.109 138.43 362.842 152.17C374.531 167.209 384.033 185.256 383.213 204.329C382.734 216.634 377.881 228.392 371.728 239.124ZM187.43 172.746L157.899 173.703C151.063 173.977 147.645 185.803 152.772 190.383L152.972 190.565C155.852 193.174 160.343 197.243 168.358 198.245C192.489 201.116 208.006 209.934 213.954 213.899C215.048 214.583 216.415 213.694 216.21 212.464L213.954 197.903C211.63 182.932 202.674 172.063 187.498 172.678L187.43 172.746ZM312.734 172.746L342.265 173.704L342.402 173.772C349.306 173.977 352.588 185.803 347.529 190.452C347.44 190.532 347.349 190.615 347.257 190.699C344.378 193.31 339.957 197.32 331.943 198.313C307.812 201.116 292.362 209.934 286.347 213.968C285.321 214.719 283.886 213.831 284.091 212.532L286.347 197.971C288.671 183 297.626 172.131 312.734 172.746Z" fill="#FCFDFD"/>
</svg>
