<svg width="24" height="24" viewBox="0 0 24 24" fill="none" xmlns="http://www.w3.org/2000/svg">
<path d="M5.06107 21.0451L5.50191 20.4383L5.06107 21.0451ZM3.95491 19.9389L4.56168 19.4981L3.95491 19.9389ZM20.0451 19.9389L19.4383 19.4981L20.0451 19.9389ZM18.9389 21.0451L19.3798 21.6518L18.9389 21.0451ZM18.9389 4.95492L19.3798 4.34815L18.9389 4.95492ZM20.0451 6.06107L19.4383 6.50191L20.0451 6.06107ZM5.06107 4.95492L5.50191 5.56168H5.50191L5.06107 4.95492ZM3.95491 6.06107L4.56168 6.50191L3.95491 6.06107ZM19.2178 16.0616L19.1005 15.3208H19.1005L19.2178 16.0616ZM15.0616 20.2178L14.3208 20.1005V20.1005L15.0616 20.2178ZM14.25 5C14.25 5.41421 14.5858 5.75 15 5.75C15.4142 5.75 15.75 5.41421 15.75 5H14.25ZM15.75 2C15.75 1.58579 15.4142 1.25 15 1.25C14.5858 1.25 14.25 1.58579 14.25 2H15.75ZM8.25 5C8.25 5.41421 8.58579 5.75 9 5.75C9.41421 5.75 9.75 5.41421 9.75 5H8.25ZM9.75 2C9.75 1.58579 9.41421 1.25 9 1.25C8.58579 1.25 8.25 1.58579 8.25 2H9.75ZM20.9711 16L21.7206 16.0257L20.9711 16ZM15 21.9711L15.0257 22.7206L15 21.9711ZM12 21.25C10.1084 21.25 8.74999 21.249 7.69804 21.135C6.66013 21.0225 6.00992 20.8074 5.50191 20.4383L4.62023 21.6518C5.42656 22.2377 6.37094 22.5 7.53648 22.6263C8.68798 22.751 10.1418 22.75 12 22.75V21.25ZM2.25 13C2.25 14.8582 2.24897 16.312 2.37373 17.4635C2.50001 18.6291 2.76232 19.5734 3.34815 20.3798L4.56168 19.4981C4.19259 18.9901 3.97745 18.3399 3.865 17.302C3.75103 16.25 3.75 14.8916 3.75 13H2.25ZM5.50191 20.4383C5.14111 20.1762 4.82382 19.8589 4.56168 19.4981L3.34815 20.3798C3.70281 20.8679 4.13209 21.2972 4.62023 21.6518L5.50191 20.4383ZM19.4383 19.4981C19.1762 19.8589 18.8589 20.1762 18.4981 20.4383L19.3798 21.6518C19.8679 21.2972 20.2972 20.8679 20.6518 20.3798L19.4383 19.4981ZM21.75 13C21.75 11.1418 21.751 9.68798 21.6263 8.53648C21.5 7.37094 21.2377 6.42656 20.6518 5.62023L19.4383 6.50191C19.8074 7.00992 20.0225 7.66013 20.135 8.69804C20.249 9.74999 20.25 11.1084 20.25 13H21.75ZM18.4981 5.56168C18.8589 5.82382 19.1762 6.14111 19.4383 6.50191L20.6518 5.62023C20.2972 5.13209 19.8679 4.70281 19.3798 4.34815L18.4981 5.56168ZM3.75 13C3.75 11.1084 3.75103 9.74999 3.865 8.69804C3.97745 7.66013 4.19259 7.00992 4.56168 6.50191L3.34815 5.62023C2.76232 6.42656 2.50001 7.37094 2.37373 8.53648C2.24897 9.68798 2.25 11.1418 2.25 13H3.75ZM4.62023 4.34815C4.13209 4.70281 3.70281 5.13209 3.34815 5.62023L4.56168 6.50191C4.82382 6.14111 5.14111 5.82382 5.50191 5.56168L4.62023 4.34815ZM19.1005 15.3208C16.6401 15.7105 14.7105 17.6401 14.3208 20.1005L15.8023 20.3352C16.0904 18.5166 17.5166 17.0904 19.3352 16.8023L19.1005 15.3208ZM9.75 5V4.02893H8.25V5H9.75ZM9.75 4.02893V2H8.25V4.02893H9.75ZM12 3.25C10.8352 3.25 9.83424 3.24991 8.97432 3.27937L9.02568 4.77849C9.85445 4.75009 10.8269 4.75 12 4.75V3.25ZM8.97432 3.27937C7.10087 3.34356 5.7239 3.5463 4.62023 4.34815L5.50191 5.56168C6.20746 5.04907 7.17075 4.84204 9.02568 4.77849L8.97432 3.27937ZM15.75 5V4.02893H14.25V5H15.75ZM15.75 4.02893V2H14.25V4.02893H15.75ZM12 4.75C13.1731 4.75 14.1456 4.75009 14.9743 4.77849L15.0257 3.27937C14.1658 3.24991 13.1648 3.25 12 3.25V4.75ZM14.9743 4.77849C16.8292 4.84204 17.7925 5.04907 18.4981 5.56168L19.3798 4.34815C18.2761 3.5463 16.8991 3.34356 15.0257 3.27937L14.9743 4.77849ZM20.9711 15.25C20.0888 15.25 19.5579 15.2484 19.1005 15.3208L19.3352 16.8023C19.647 16.7529 20.0338 16.75 20.9711 16.75L20.9711 15.25ZM20.25 13C20.25 14.1731 20.2499 15.1456 20.2215 15.9743L21.7206 16.0257C21.7501 15.1658 21.75 14.1648 21.75 13H20.25ZM20.2215 15.9743C20.158 17.8292 19.9509 18.7925 19.4383 19.4981L20.6518 20.3798C21.4537 19.2761 21.6564 17.8991 21.7206 16.0257L20.2215 15.9743ZM15.75 21.9711C15.75 21.0338 15.7529 20.647 15.8023 20.3352L14.3208 20.1005C14.2484 20.5579 14.25 21.0888 14.25 21.9711L15.75 21.9711ZM12 22.75C13.1648 22.75 14.1658 22.7501 15.0257 22.7206L14.9743 21.2215C14.1456 21.2499 13.1731 21.25 12 21.25V22.75ZM15.0257 22.7206C16.8991 22.6564 18.2761 22.4537 19.3798 21.6518L18.4981 20.4383C17.7925 20.9509 16.8292 21.158 14.9743 21.2215L15.0257 22.7206Z" fill="#FAFAFA"/>
<path d="M8 9C8 9.55228 7.55228 10 7 10C6.44772 10 6 9.55228 6 9C6 8.44772 6.44772 8 7 8C7.55228 8 8 8.44772 8 9Z" fill="#FAFAFA"/>
<path d="M8 13C8 13.5523 7.55228 14 7 14C6.44772 14 6 13.5523 6 13C6 12.4477 6.44772 12 7 12C7.55228 12 8 12.4477 8 13Z" fill="#FAFAFA"/>
<path d="M13 9C13 9.55228 12.5523 10 12 10C11.4477 10 11 9.55228 11 9C11 8.44772 11.4477 8 12 8C12.5523 8 13 8.44772 13 9Z" fill="#FAFAFA"/>
<path d="M13 13C13 13.5523 12.5523 14 12 14C11.4477 14 11 13.5523 11 13C11 12.4477 11.4477 12 12 12C12.5523 12 13 12.4477 13 13Z" fill="#FAFAFA"/>
<path d="M13 17C13 17.5523 12.5523 18 12 18C11.4477 18 11 17.5523 11 17C11 16.4477 11.4477 16 12 16C12.5523 16 13 16.4477 13 17Z" fill="#FAFAFA"/>
<path d="M18 9C18 9.55228 17.5523 10 17 10C16.4477 10 16 9.55228 16 9C16 8.44772 16.4477 8 17 8C17.5523 8 18 8.44772 18 9Z" fill="#FAFAFA"/>
<path d="M18 13C18 13.5523 17.5523 14 17 14C16.4477 14 16 13.5523 16 13C16 12.4477 16.4477 12 17 12C17.5523 12 18 12.4477 18 13Z" fill="#FAFAFA"/>
<path d="M8 17C8 17.5523 7.55228 18 7 18C6.44772 18 6 17.5523 6 17C6 16.4477 6.44772 16 7 16C7.55228 16 8 16.4477 8 17Z" fill="#FAFAFA"/>
</svg>
