<svg width="24" height="24" viewBox="0 0 24 24" fill="none" xmlns="http://www.w3.org/2000/svg">
<path d="M12.75 7C12.75 6.58579 12.4142 6.25 12 6.25C11.5858 6.25 11.25 6.58579 11.25 7H12.75ZM14.6517 10.5303C14.9446 10.2374 14.9446 9.76257 14.6517 9.46967C14.3588 9.17678 13.8839 9.17678 13.591 9.46967L14.6517 10.5303ZM2.53148 2.66435C2.20803 2.92311 2.15559 3.39507 2.41435 3.71852C2.67311 4.04197 3.14507 4.09441 3.46852 3.83565L2.53148 2.66435ZM5.96852 1.83565C6.29197 1.57689 6.34441 1.10493 6.08565 0.781479C5.82689 0.458032 5.35493 0.405591 5.03148 0.664348L5.96852 1.83565ZM20.5315 3.83565C20.8549 4.09441 21.3269 4.04197 21.5857 3.71852C21.8444 3.39507 21.792 2.92311 21.4685 2.66435L20.5315 3.83565ZM18.9685 0.664348C18.6451 0.405591 18.1731 0.458032 17.9143 0.781479C17.6556 1.10493 17.708 1.57689 18.0315 1.83565L18.9685 0.664348ZM11.25 7V12H12.75V7H11.25ZM13.591 9.46967L11.5555 11.5052L12.6161 12.5659L14.6517 10.5303L13.591 9.46967ZM21.25 12C21.25 17.1086 17.1086 21.25 12 21.25V22.75C17.9371 22.75 22.75 17.9371 22.75 12H21.25ZM12 21.25C6.89137 21.25 2.75 17.1086 2.75 12H1.25C1.25 17.9371 6.06294 22.75 12 22.75V21.25ZM2.75 12C2.75 6.89137 6.89137 2.75 12 2.75V1.25C6.06294 1.25 1.25 6.06294 1.25 12H2.75ZM12 2.75C17.1086 2.75 21.25 6.89137 21.25 12H22.75C22.75 6.06294 17.9371 1.25 12 1.25V2.75ZM3.46852 3.83565L5.96852 1.83565L5.03148 0.664348L2.53148 2.66435L3.46852 3.83565ZM21.4685 2.66435L18.9685 0.664348L18.0315 1.83565L20.5315 3.83565L21.4685 2.66435ZM11.5555 11.5052C11.9963 11.0644 12.7499 11.3765 12.75 11.9999L11.25 12.0001C11.2501 12.713 12.112 13.07 12.6161 12.5659L11.5555 11.5052Z" fill="#FAFAFA"/>
</svg>
