<svg width="24" height="24" viewBox="0 0 24 24" fill="none" xmlns="http://www.w3.org/2000/svg">
<path d="M12.75 8.25C12.75 7.83579 12.4142 7.5 12 7.5C11.5858 7.5 11.25 7.83579 11.25 8.25H12.75ZM9.4543 14.8568C9.17015 15.1582 9.18412 15.6329 9.4855 15.917C9.78689 16.2012 10.2616 16.1872 10.5457 15.8858L9.4543 14.8568ZM2.53148 2.66435C2.20803 2.92311 2.15559 3.39507 2.41435 3.71852C2.67311 4.04197 3.14507 4.09441 3.46852 3.83565L2.53148 2.66435ZM5.96852 1.83565C6.29197 1.57689 6.34441 1.10493 6.08565 0.781479C5.82689 0.458032 5.35493 0.405591 5.03148 0.664348L5.96852 1.83565ZM20.5315 3.83565C20.8549 4.09441 21.3269 4.04197 21.5857 3.71852C21.8444 3.39507 21.792 2.92311 21.4685 2.66435L20.5315 3.83565ZM18.9685 0.664348C18.6451 0.405591 18.1731 0.458032 17.9143 0.781479C17.6556 1.10493 17.708 1.57689 18.0315 1.83565L18.9685 0.664348ZM11.4552 13.8278L10.9095 13.3133L11.4552 13.8278ZM11.25 8.25V12.4558H12.75V8.25H11.25ZM10.5457 15.8858L12.0009 14.3423L10.9095 13.3133L9.4543 14.8568L10.5457 15.8858ZM3.46852 3.83565L5.96852 1.83565L5.03148 0.664348L2.53148 2.66435L3.46852 3.83565ZM21.4685 2.66435L18.9685 0.664348L18.0315 1.83565L20.5315 3.83565L21.4685 2.66435ZM21.25 12.25C21.25 17.3586 17.1086 21.5 12 21.5V23C17.9371 23 22.75 18.1871 22.75 12.25H21.25ZM12 21.5C6.89137 21.5 2.75 17.3586 2.75 12.25H1.25C1.25 18.1871 6.06294 23 12 23V21.5ZM2.75 12.25C2.75 7.14136 6.89137 3 12 3V1.5C6.06294 1.5 1.25 6.31294 1.25 12.25H2.75ZM12 3C17.1086 3 21.25 7.14136 21.25 12.25H22.75C22.75 6.31294 17.9371 1.5 12 1.5V3ZM11.25 12.4558C11.25 12.7746 11.1282 13.0814 10.9095 13.3133L12.0009 14.3423C12.482 13.832 12.75 13.1572 12.75 12.4558H11.25Z" fill="#FAFAFA"/>
</svg>
