<svg width="24" height="24" viewBox="0 0 24 24" fill="none" xmlns="http://www.w3.org/2000/svg">
<path d="M19 12C19 14.8003 19 16.2004 18.455 17.27C17.9757 18.2108 17.2108 18.9757 16.27 19.455C15.2004 20 13.8003 20 11 20C8.19974 20 6.79961 20 5.73005 19.455C4.78924 18.9757 4.02433 18.2108 3.54497 17.27C3 16.2004 3 14.8003 3 12C3 9.19974 3 7.79961 3.54497 6.73005C4.02433 5.78924 4.78924 5.02433 5.73005 4.54497C6.79961 4 8.19974 4 11 4C13.8003 4 15.2004 4 16.27 4.54497C17.2108 5.02433 17.9757 5.78924 18.455 6.73005C19 7.79961 19 9.19974 19 12ZM19 12H21M11 8V11.5C11 12.3284 11.6716 13 12.5 13V13H14M7 2H15M7 22H15" stroke="#FAFAFA" stroke-width="1.5" stroke-linecap="round"/>
</svg>
