<svg width="24" height="24" viewBox="0 0 24 24" fill="none" xmlns="http://www.w3.org/2000/svg">
<path d="M11 8V11.5C11 12.3284 11.6716 13 12.5 13V13H14M21 14V10M16.8818 4.91402C16.3859 2.67476 14.3886 1 12.0001 1H10.0001C7.61164 1 5.61434 2.67469 5.11837 4.91389M16.8818 4.91402C16.6878 4.77716 16.4834 4.65372 16.27 4.54497C15.2004 4 13.8003 4 11 4C8.19974 4 6.79961 4 5.73005 4.54497C5.51668 4.65368 5.31236 4.77708 5.11837 4.91389M16.8818 4.91402C17.5431 5.38044 18.0844 6.00267 18.455 6.73005C19 7.79961 19 9.19974 19 12C19 14.8003 19 16.2004 18.455 17.27C18.0844 17.9974 17.543 18.6197 16.8815 19.0862M5.11837 4.91389C4.45698 5.38033 3.91562 6.0026 3.54497 6.73005C3 7.79961 3 9.19974 3 12C3 14.8003 3 16.2004 3.54497 17.27C3.91556 17.9973 4.45682 18.6195 5.11808 19.0859M5.11808 19.0859C5.61398 21.3252 7.61132 23 9.99984 23H11.9998C14.3882 23 16.3855 21.3253 16.8815 19.0862M5.11808 19.0859C5.31216 19.2228 5.51658 19.3463 5.73005 19.455C6.79961 20 8.19974 20 11 20C13.8003 20 15.2004 20 16.27 19.455C16.4833 19.3463 16.6876 19.223 16.8815 19.0862" stroke="#FAFAFA" stroke-width="1.5" stroke-linecap="round"/>
</svg>
