<svg width="16" height="16" viewBox="0 0 16 16" fill="none" xmlns="http://www.w3.org/2000/svg">
<path d="M2 8.66663C4.4 3.33329 11.6 3.33329 14 8.66663" stroke="#E8E8E8" stroke-width="1.5" stroke-linecap="round" stroke-linejoin="round"/>
<path d="M8 11.3333C7.73736 11.3333 7.47728 11.2815 7.23463 11.181C6.99198 11.0805 6.7715 10.9332 6.58579 10.7475C6.40007 10.5617 6.25275 10.3413 6.15224 10.0986C6.05173 9.85597 6 9.5959 6 9.33325C6 9.07061 6.05173 8.81054 6.15224 8.56789C6.25275 8.32523 6.40007 8.10476 6.58579 7.91904C6.7715 7.73332 6.99198 7.586 7.23463 7.48549C7.47728 7.38498 7.73736 7.33325 8 7.33325C8.53043 7.33325 9.03914 7.54397 9.41421 7.91904C9.78929 8.29411 10 8.80282 10 9.33325C10 9.86369 9.78929 10.3724 9.41421 10.7475C9.03914 11.1225 8.53043 11.3333 8 11.3333Z" stroke="#E8E8E8" stroke-width="1.5" stroke-linecap="round" stroke-linejoin="round"/>
</svg>
