<svg width="16" height="16" viewBox="0 0 16 16" fill="none" xmlns="http://www.w3.org/2000/svg">
<path d="M3.37405 13.3634L3.81489 12.7566L3.37405 13.3634ZM2.63661 12.626L3.24337 12.1851L2.63661 12.626ZM13.3634 12.626L12.7566 12.1851L13.3634 12.626ZM12.626 13.3634L12.1851 12.7566L12.626 13.3634ZM12.626 2.63661L12.1851 3.24337L12.626 2.63661ZM13.3634 3.37405L12.7566 3.81489L13.3634 3.37405ZM3.37405 2.63661L3.81489 3.24337L3.37405 2.63661ZM2.63661 3.37405L3.24337 3.81489L2.63661 3.37405ZM8 13.25C6.73338 13.25 5.84366 13.249 5.15896 13.1748C4.48829 13.1021 4.10384 12.9666 3.81489 12.7566L2.93321 13.9702C3.52048 14.3968 4.19909 14.5796 4.99739 14.6661C5.78165 14.751 6.7668 14.75 8 14.75V13.25ZM1.25 8C1.25 9.2332 1.24897 10.2184 1.33394 11.0026C1.42043 11.8009 1.60317 12.4795 2.02985 13.0668L3.24337 12.1851C3.03344 11.8962 2.89788 11.5117 2.82521 10.841C2.75103 10.1563 2.75 9.26662 2.75 8H1.25ZM3.81489 12.7566C3.59558 12.5973 3.40271 12.4044 3.24337 12.1851L2.02985 13.0668C2.28171 13.4134 2.58656 13.7183 2.93321 13.9702L3.81489 12.7566ZM13.25 8C13.25 9.26662 13.249 10.1563 13.1748 10.841C13.1021 11.5117 12.9666 11.8962 12.7566 12.1851L13.9702 13.0668C14.3968 12.4795 14.5796 11.8009 14.6661 11.0026C14.751 10.2184 14.75 9.2332 14.75 8H13.25ZM8 14.75C9.2332 14.75 10.2184 14.751 11.0026 14.6661C11.8009 14.5796 12.4795 14.3968 13.0668 13.9702L12.1851 12.7566C11.8962 12.9666 11.5117 13.1021 10.841 13.1748C10.1563 13.249 9.26662 13.25 8 13.25V14.75ZM12.7566 12.1851C12.5973 12.4044 12.4044 12.5973 12.1851 12.7566L13.0668 13.9702C13.4134 13.7183 13.7183 13.4134 13.9702 13.0668L12.7566 12.1851ZM8 2.75C9.26662 2.75 10.1563 2.75103 10.841 2.82521C11.5117 2.89788 11.8962 3.03344 12.1851 3.24337L13.0668 2.02985C12.4795 1.60317 11.8009 1.42043 11.0026 1.33394C10.2184 1.24897 9.2332 1.25 8 1.25V2.75ZM14.75 8C14.75 6.7668 14.751 5.78165 14.6661 4.99739C14.5796 4.19909 14.3968 3.52048 13.9702 2.93321L12.7566 3.81489C12.9666 4.10384 13.1021 4.48829 13.1748 5.15896C13.249 5.84366 13.25 6.73338 13.25 8H14.75ZM12.1851 3.24337C12.4044 3.40271 12.5973 3.59558 12.7566 3.81489L13.9702 2.93321C13.7183 2.58656 13.4134 2.28171 13.0668 2.02985L12.1851 3.24337ZM8 1.25C6.7668 1.25 5.78165 1.24897 4.99739 1.33394C4.19909 1.42043 3.52048 1.60317 2.93321 2.02985L3.81489 3.24337C4.10384 3.03344 4.48829 2.89788 5.15896 2.82521C5.84366 2.75103 6.73338 2.75 8 2.75V1.25ZM2.75 8C2.75 6.73338 2.75103 5.84366 2.82521 5.15896C2.89788 4.48829 3.03344 4.10384 3.24337 3.81489L2.02985 2.93321C1.60317 3.52048 1.42043 4.19909 1.33394 4.99739C1.24897 5.78165 1.25 6.7668 1.25 8H2.75ZM2.93321 2.02985C2.58656 2.28171 2.28171 2.58656 2.02985 2.93321L3.24337 3.81489C3.40271 3.59558 3.59558 3.40271 3.81489 3.24337L2.93321 2.02985Z" fill="#FAFAFA"/>
<path fill-rule="evenodd" clip-rule="evenodd" d="M6.81481 6C7.06027 6 7.25926 6.23359 7.25926 6.52174L7.25926 13.4783C7.25926 13.7664 7.06027 14 6.81481 14C6.56935 14 6.37037 13.7664 6.37037 13.4783V6.52174C6.37037 6.23359 6.56935 6 6.81481 6ZM4.44444 8.08696C4.6899 8.08696 4.88889 8.32055 4.88889 8.6087L4.88889 13.4783C4.88889 13.7664 4.6899 14 4.44444 14C4.19898 14 4 13.7664 4 13.4783L4 8.6087C4 8.32055 4.19898 8.08696 4.44444 8.08696ZM11.5556 8.08696C11.801 8.08696 12 8.32055 12 8.6087V13.4783C12 13.7664 11.801 14 11.5556 14C11.3101 14 11.1111 13.7664 11.1111 13.4783V8.6087C11.1111 8.32055 11.3101 8.08696 11.5556 8.08696ZM9.18519 10.1739C9.43064 10.1739 9.62963 10.4075 9.62963 10.6957L9.62963 13.4783C9.62963 13.7664 9.43064 14 9.18519 14C8.93973 14 8.74074 13.7664 8.74074 13.4783L8.74074 10.6957C8.74074 10.4075 8.93973 10.1739 9.18519 10.1739Z" fill="white"/>
</svg>
