<svg width="16" height="16" viewBox="0 0 16 16" fill="none" xmlns="http://www.w3.org/2000/svg">
<g clip-path="url(#clip0_117_5929)">
<path d="M2.03328 6.20672C2.00494 6.12209 1.99388 6.03263 2.00076 5.94364C2.00764 5.85466 2.03232 5.76797 2.07333 5.6887C2.11434 5.60943 2.17085 5.5392 2.23951 5.48218C2.30817 5.42516 2.38757 5.3825 2.47302 5.35674C2.55847 5.33098 2.64823 5.32264 2.73696 5.33222C2.82569 5.34179 2.9116 5.36908 2.98959 5.41248C3.06758 5.45587 3.13606 5.51448 3.19098 5.58484C3.24589 5.65519 3.28612 5.73586 3.30928 5.82205C4.69995 10.4794 11.2973 10.4801 12.6893 5.82472C12.7142 5.74076 12.7555 5.66254 12.8107 5.59452C12.8658 5.5265 12.9339 5.47001 13.0109 5.42829C13.0879 5.38656 13.1724 5.36042 13.2595 5.35134C13.3466 5.34226 13.4347 5.35043 13.5186 5.37538C13.6026 5.40033 13.6808 5.44158 13.7488 5.49676C13.8168 5.55194 13.8733 5.61998 13.915 5.69699C13.9568 5.774 13.9829 5.85848 13.992 5.94559C14.0011 6.03271 13.9929 6.12076 13.9679 6.20472C13.7255 7.03891 13.3141 7.81431 12.7593 8.48272L13.6093 9.33338C13.7307 9.45912 13.7979 9.62752 13.7964 9.80232C13.7949 9.97712 13.7248 10.1443 13.6012 10.2679C13.4776 10.3915 13.3103 10.4616 13.1355 10.4632C12.9607 10.4647 12.7923 10.3975 12.6666 10.276L11.7926 9.40205C11.321 9.75785 10.7999 10.0429 10.2459 10.248L10.4839 11.1381C10.5093 11.2234 10.5174 11.313 10.5076 11.4015C10.4977 11.49 10.4703 11.5757 10.4268 11.6534C10.3834 11.7312 10.3248 11.7994 10.2545 11.8541C10.1842 11.9088 10.1037 11.9489 10.0177 11.972C9.93165 11.9951 9.84188 12.0007 9.75365 11.9885C9.66543 11.9763 9.58054 11.9465 9.50401 11.901C9.42747 11.8554 9.36084 11.795 9.30804 11.7233C9.25525 11.6516 9.21736 11.57 9.19661 11.4834L8.95395 10.5787C8.32261 10.672 7.67728 10.672 7.04595 10.5787L6.80328 11.4834C6.78253 11.57 6.74464 11.6516 6.69185 11.7233C6.63905 11.795 6.57242 11.8554 6.49588 11.901C6.41935 11.9465 6.33446 11.9763 6.24624 11.9885C6.15801 12.0007 6.06824 11.9951 5.98222 11.972C5.8962 11.9489 5.81567 11.9088 5.7454 11.8541C5.67512 11.7994 5.61652 11.7312 5.57306 11.6534C5.5296 11.5757 5.50215 11.49 5.49234 11.4015C5.48253 11.313 5.49056 11.2234 5.51595 11.1381L5.75395 10.248C5.19991 10.0427 4.67885 9.75742 4.20728 9.40138L3.33395 10.276C3.20894 10.4012 3.03933 10.4716 2.86242 10.4718C2.68551 10.4719 2.51579 10.4017 2.39061 10.2767C2.26543 10.1517 2.19503 9.9821 2.19491 9.80519C2.19478 9.62828 2.26494 9.45857 2.38995 9.33338L3.23995 8.48338C2.71728 7.85938 2.29995 7.10072 2.03195 6.20738L2.03328 6.20672Z" fill="#E8E8E8"/>
</g>
<defs>
<clipPath id="clip0_117_5929">
<rect width="16" height="16" fill="white"/>
</clipPath>
</defs>
</svg>
