<svg width="24" height="24" viewBox="0 0 24 24" fill="none" xmlns="http://www.w3.org/2000/svg">
<path d="M19.8969 8.79145C20.2866 9.66443 20.4519 10.8544 20.7359 12.8995C21.1721 16.0399 21.3902 17.6101 20.9107 18.8297C20.4897 19.9003 19.7124 20.793 18.7099 21.3573C17.5679 22 15.9826 22 12.812 22H11.1878C8.01722 22 6.43192 22 5.28995 21.3573C4.28741 20.793 3.51012 19.9003 3.08915 18.8297C2.60962 17.6101 2.8277 16.0399 3.26388 12.8995C3.52995 10.9837 3.69182 9.81829 4.03163 8.96093M19.8969 8.79145C19.8205 8.62046 19.7356 8.46163 19.6395 8.31092C19.1222 7.50008 18.382 6.85563 17.5078 6.45483C17.3463 6.38082 17.1785 6.31886 16.9999 6.26698M19.8969 8.79145L19.8078 8.87868L18.9496 9.7368C15.6163 13.0701 13.9496 14.7368 11.8786 14.7368C9.80751 14.7368 8.14084 13.0701 4.80751 9.7368L4.03163 8.96093M16.9999 6.26698C16.0812 6 14.8793 6 12.812 6H11.1878C9.12051 6 7.91867 6 6.99991 6.26698M16.9999 6.26698V6C16.9999 3.23858 14.7613 1 11.9999 1C9.23849 1 6.99991 3.23858 6.99991 6V6.26698M6.99991 6.26698C6.82136 6.31886 6.65351 6.38082 6.49207 6.45483C5.61778 6.85563 4.87763 7.50008 4.36037 8.31092C4.2332 8.51027 4.12561 8.72382 4.03163 8.96093" stroke="#FAFAFA" stroke-width="1.5"/>
</svg>
