<svg width="24" height="24" viewBox="0 0 24 24" fill="none" xmlns="http://www.w3.org/2000/svg">
<path d="M17 6C17 5.96072 16.9996 5.92155 16.9987 5.88248C16.9362 3.17534 14.7222 1 12 1C9.29866 1 7.09765 3.14225 7.00318 5.82056C7.00108 5.88012 7.00002 5.93993 7.00002 6M17 6H7.00002M17 6H18.3087C20.3944 6 21.4373 6 22.0335 6.66616C22.6298 7.33231 22.5146 8.36879 22.2843 10.4417L21.9884 13.1043C21.5183 17.3356 21.2832 19.4513 19.8594 20.7256C18.4356 22 16.2904 22 12 22C7.70962 22 5.56443 22 4.14063 20.7256C2.71683 19.4513 2.48176 17.3356 2.01161 13.1043L1.71577 10.4417C1.48544 8.36879 1.37028 7.33231 1.96652 6.66616C2.56276 6 3.60561 6 5.6913 6H7.00002M6.00002 10L6.60002 10.6C9.58236 13.5823 14.4177 13.5823 17.4 10.6L18 10" stroke="#FAFAFA" stroke-width="1.5" stroke-linecap="round"/>
</svg>
