<svg width="24" height="24" viewBox="0 0 24 24" fill="none" xmlns="http://www.w3.org/2000/svg">
<path d="M7.99991 11L8.39991 11.4C10.3881 13.3882 13.6117 13.3882 15.5999 11.4L15.9999 11M15.9999 6.08268V6C15.9999 3.79086 14.2091 2 11.9999 2C9.79077 2 7.99991 3.79086 7.99991 6V6.08268M15.9999 6.08268C15.2132 6 14.2107 6 12.812 6H11.1878C9.78914 6 8.78662 6 7.99991 6.08268M15.9999 6.08268C16.602 6.14596 17.0776 6.25766 17.5078 6.45483C18.382 6.85563 19.1222 7.50008 19.6395 8.31092C20.2265 9.23109 20.3963 10.4539 20.7359 12.8995C21.1721 16.0399 21.3902 17.6101 20.9107 18.8297C20.4897 19.9003 19.7124 20.793 18.7099 21.3573C17.5679 22 15.9826 22 12.812 22H11.1878C8.01722 22 6.43192 22 5.28995 21.3573C4.28741 20.793 3.51012 19.9003 3.08915 18.8297C2.60962 17.6101 2.8277 16.0399 3.26388 12.8995C3.60354 10.4539 3.77337 9.23109 4.36037 8.31092C4.87763 7.50008 5.61778 6.85563 6.49207 6.45483C6.92219 6.25766 7.39786 6.14596 7.99991 6.08268" stroke="#FAFAFA" stroke-width="1.5" stroke-linecap="round"/>
</svg>
