<svg width="24" height="24" viewBox="0 0 24 24" fill="none" xmlns="http://www.w3.org/2000/svg">
<path d="M15.9999 10V6.08268M7.99991 10V6.08268M7.99991 6.08268V5C7.99991 2.79086 9.79077 1 11.9999 1C14.2091 1 15.9999 2.79086 15.9999 5V6.08268M7.99991 6.08268C8.78662 6 9.78914 6 11.1878 6H12.812C14.2107 6 15.2132 6 15.9999 6.08268M7.99991 6.08268C7.39786 6.14596 6.92219 6.25766 6.49207 6.45483C5.61778 6.85563 4.87763 7.50008 4.36037 8.31092C3.77337 9.23109 3.60354 10.4539 3.26388 12.8995C2.8277 16.0399 2.60962 17.6101 3.08915 18.8297C3.51012 19.9003 4.28741 20.793 5.28995 21.3573C6.43192 22 8.01722 22 11.1878 22H12.812C15.9826 22 17.5679 22 18.7099 21.3573C19.7124 20.793 20.4897 19.9003 20.9107 18.8297C21.3902 17.6101 21.1721 16.0399 20.7359 12.8995C20.3963 10.4539 20.2265 9.23109 19.6395 8.31092C19.1222 7.50008 18.382 6.85563 17.5078 6.45483C17.0776 6.25766 16.602 6.14596 15.9999 6.08268" stroke="#FAFAFA" stroke-width="1.5" stroke-linecap="round"/>
</svg>
