<svg width="24" height="24" viewBox="0 0 24 24" fill="none" xmlns="http://www.w3.org/2000/svg">
<path d="M1.7276 1.81808C1.62713 1.41624 1.21993 1.17193 0.818082 1.2724C0.416238 1.37287 0.171926 1.78007 0.272397 2.18192L1.7276 1.81808ZM5.76564 16.7854L6.21646 16.186L5.76564 16.7854ZM3.02129 10.2517L3.75064 10.0769L3.02129 10.2517ZM5.58574 16.6435L6.06354 16.0654L5.58574 16.6435ZM22.0192 10.7425L22.7485 10.9173L22.0192 10.7425ZM19.8897 16.3575L19.3643 15.8223L19.8897 16.3575ZM19.0404 17.0273L19.4384 17.663L19.0404 17.0273ZM21.9421 6.75597L22.4568 6.21052L21.9421 6.75597ZM22.3038 7.21465L22.9542 6.8412L22.3038 7.21465ZM14.0001 10.25C13.5859 10.25 13.2501 10.5858 13.2501 11C13.2501 11.4142 13.5859 11.75 14.0001 11.75V10.25ZM17.0001 13.25C16.5859 13.25 16.2501 13.5858 16.2501 14C16.2501 14.4142 16.5859 14.75 17.0001 14.75V13.25ZM2.05273 6.96053H18.445V5.46053H2.05273V6.96053ZM13.0837 17.0395H12.5791V18.5395H13.0837V17.0395ZM3.75064 10.0769L2.78208 6.03572L1.32339 6.38533L2.29195 10.4265L3.75064 10.0769ZM2.78034 6.02861L1.7276 1.81808L0.272397 2.18192L1.32513 6.39244L2.78034 6.02861ZM12.5791 17.0395C10.7352 17.0395 9.41662 17.0383 8.38995 16.919C7.38226 16.8019 6.738 16.5783 6.21646 16.186L5.31482 17.3848C6.12828 17.9966 7.06459 18.275 8.21679 18.4089C9.35001 18.5406 10.7706 18.5395 12.5791 18.5395V17.0395ZM2.29195 10.4265C2.71343 12.1852 3.04339 13.5669 3.43559 14.6383C3.83435 15.7275 4.32336 16.5731 5.10793 17.2216L6.06354 16.0654C5.56052 15.6496 5.19292 15.0752 4.84416 14.1226C4.48885 13.152 4.18038 11.87 3.75064 10.0769L2.29195 10.4265ZM6.21646 16.186C6.16457 16.147 6.11359 16.1067 6.06354 16.0654L5.10793 17.2216C5.17564 17.2775 5.24462 17.332 5.31482 17.3848L6.21646 16.186ZM13.0837 18.5395C14.6483 18.5395 15.8774 18.5404 16.8659 18.4404C17.8695 18.3389 18.6953 18.1283 19.4384 17.663L18.6424 16.3917C18.1682 16.6885 17.5955 16.859 16.715 16.948C15.8194 17.0386 14.6788 17.0395 13.0837 17.0395V18.5395ZM19.3643 15.8223C19.145 16.0376 18.9029 16.2285 18.6424 16.3917L19.4384 17.663C19.7909 17.4423 20.1184 17.184 20.4151 16.8927L19.3643 15.8223ZM18.445 6.96053C19.4375 6.96053 20.1131 6.96185 20.6157 7.02318C21.106 7.08301 21.3071 7.18794 21.4273 7.30143L22.4568 6.21052C21.9991 5.77856 21.4246 5.61076 20.7974 5.53423C20.1826 5.4592 19.3986 5.46053 18.445 5.46053V6.96053ZM22.7485 10.9173C22.9708 9.99004 23.1548 9.22794 23.2251 8.61254C23.2969 7.98475 23.2676 7.38698 22.9542 6.8412L21.6534 7.5881C21.7357 7.7315 21.7909 7.95145 21.7348 8.44219C21.6773 8.94532 21.5212 9.60257 21.2898 10.5677L22.7485 10.9173ZM21.4273 7.30143C21.5163 7.38541 21.5925 7.482 21.6534 7.5881L22.9542 6.8412C22.8202 6.60776 22.6526 6.39527 22.4568 6.21052L21.4273 7.30143ZM21.0001 13.25H17.0001V14.75H21.0001V13.25ZM21.9575 10.25L14.0001 10.25V11.75L21.9575 11.75V10.25ZM21.2898 10.5677C21.269 10.6548 21.2484 10.7405 21.2281 10.8251L22.6868 11.1749C22.7071 11.0903 22.7277 11.0044 22.7485 10.9173L21.2898 10.5677ZM21.2281 10.8251C20.9305 12.0658 20.699 13.0133 20.4566 13.7717L21.8855 14.2283C22.148 13.4067 22.3925 12.4015 22.6868 11.1749L21.2281 10.8251ZM20.4566 13.7717C20.1309 14.791 19.8104 15.3844 19.3643 15.8223L20.4151 16.8927C21.1139 16.2067 21.5286 15.3453 21.8855 14.2283L20.4566 13.7717ZM21.0001 14.75H21.1711V13.25H21.0001V14.75Z" fill="#FAFAFA"/>
<path d="M10.4737 20.9474C10.4737 21.5288 10.0024 22 9.42104 22C8.83969 22 8.36841 21.5288 8.36841 20.9474C8.36841 20.3661 8.83969 19.8948 9.42104 19.8948C10.0024 19.8948 10.4737 20.3661 10.4737 20.9474Z" fill="#FAFAFA"/>
<path d="M16.7895 20.9474C16.7895 21.5288 16.3182 22 15.7368 22C15.1555 22 14.6842 21.5288 14.6842 20.9474C14.6842 20.3661 15.1555 19.8948 15.7368 19.8948C16.3182 19.8948 16.7895 20.3661 16.7895 20.9474Z" fill="#FAFAFA"/>
</svg>
