<svg width="24" height="24" viewBox="0 0 24 24" fill="none" xmlns="http://www.w3.org/2000/svg">
<path d="M5.76554 16.7854L6.21636 16.186L5.76554 16.7854ZM3.02119 10.2517L2.29184 10.4265L3.02119 10.2517ZM5.58563 16.6435L6.06344 16.0654L5.58563 16.6435ZM22.0191 10.7425L21.2897 10.5677L22.0191 10.7425ZM19.8896 16.3575L19.3642 15.8223L19.8896 16.3575ZM19.0403 17.0273L18.6423 16.3917L19.0403 17.0273ZM21.942 6.75598L22.4567 6.21052L21.942 6.75598ZM22.3037 7.21465L21.6533 7.5881L22.3037 7.21465ZM1.72761 1.8181C1.62715 1.41625 1.21994 1.17193 0.818098 1.27239C0.416252 1.37285 0.171932 1.78006 0.272393 2.1819L1.72761 1.8181ZM16 14.75C16.4142 14.75 16.75 14.4142 16.75 14C16.75 13.5858 16.4142 13.25 16 13.25V14.75ZM10 13.25C9.58579 13.25 9.25 13.5858 9.25 14C9.25 14.4142 9.58579 14.75 10 14.75V13.25ZM2.05263 6.96053H18.4449V5.46053H2.05263V6.96053ZM13.0836 17.0395H12.5789V18.5395H13.0836V17.0395ZM3.75053 10.0769L2.78198 6.03572L1.32329 6.38533L2.29184 10.4265L3.75053 10.0769ZM12.5789 17.0395C10.7351 17.0395 9.41652 17.0383 8.38985 16.919C7.38216 16.8019 6.7379 16.5783 6.21636 16.186L5.31472 17.3848C6.12818 17.9966 7.06449 18.275 8.21668 18.4089C9.3499 18.5406 10.7705 18.5395 12.5789 18.5395V17.0395ZM2.29184 10.4265C2.71333 12.1852 3.04329 13.5669 3.43548 14.6383C3.83425 15.7275 4.32325 16.5731 5.10783 17.2216L6.06344 16.0654C5.56041 15.6496 5.19281 15.0752 4.84406 14.1226C4.48874 13.152 4.18028 11.87 3.75053 10.0769L2.29184 10.4265ZM6.21636 16.186C6.16447 16.147 6.11349 16.1067 6.06344 16.0654L5.10783 17.2216C5.17553 17.2775 5.24451 17.332 5.31472 17.3848L6.21636 16.186ZM21.2897 10.5677C20.918 12.1188 20.6513 13.2278 20.3545 14.0777C20.0627 14.9132 19.7634 15.4304 19.3642 15.8223L20.415 16.8927C21.0407 16.2785 21.438 15.5245 21.7706 14.5723C22.0982 13.6343 22.3838 12.4388 22.7484 10.9173L21.2897 10.5677ZM13.0836 18.5395C14.6482 18.5395 15.8773 18.5404 16.8658 18.4404C17.8694 18.3389 18.6952 18.1283 19.4383 17.663L18.6423 16.3917C18.1681 16.6885 17.5954 16.859 16.7149 16.948C15.8193 17.0386 14.6787 17.0395 13.0836 17.0395V18.5395ZM19.3642 15.8223C19.1449 16.0376 18.9028 16.2285 18.6423 16.3917L19.4383 17.663C19.7908 17.4423 20.1183 17.184 20.415 16.8927L19.3642 15.8223ZM18.4449 6.96053C19.4374 6.96053 20.1129 6.96185 20.6156 7.02319C21.1059 7.08301 21.307 7.18794 21.4272 7.30143L22.4567 6.21052C21.999 5.77856 21.4245 5.61076 20.7973 5.53423C20.1825 5.45921 19.3985 5.46053 18.4449 5.46053V6.96053ZM22.7484 10.9173C22.9707 9.99004 23.1547 9.22794 23.225 8.61254C23.2968 7.98475 23.2675 7.38698 22.9541 6.8412L21.6533 7.5881C21.7356 7.7315 21.7908 7.95145 21.7347 8.44219C21.6772 8.94532 21.5211 9.60257 21.2897 10.5677L22.7484 10.9173ZM21.4272 7.30143C21.5162 7.38541 21.5924 7.482 21.6533 7.5881L22.9541 6.8412C22.8201 6.60776 22.6525 6.39527 22.4567 6.21052L21.4272 7.30143ZM2.78024 6.02863L1.72761 1.8181L0.272393 2.1819L1.32502 6.39243L2.78024 6.02863ZM16 13.25H10V14.75H16V13.25Z" fill="#FAFAFA"/>
<path d="M10.4737 20.9474C10.4737 21.5288 10.0024 22 9.42104 22C8.83969 22 8.36841 21.5288 8.36841 20.9474C8.36841 20.3661 8.83969 19.8948 9.42104 19.8948C10.0024 19.8948 10.4737 20.3661 10.4737 20.9474Z" fill="#FAFAFA"/>
<path d="M16.7895 20.9474C16.7895 21.5288 16.3182 22 15.7368 22C15.1555 22 14.6842 21.5288 14.6842 20.9474C14.6842 20.3661 15.1555 19.8948 15.7368 19.8948C16.3182 19.8948 16.7895 20.3661 16.7895 20.9474Z" fill="#FAFAFA"/>
</svg>
