<svg width="24" height="24" viewBox="0 0 24 24" fill="none" xmlns="http://www.w3.org/2000/svg">
<path d="M19.8716 11.5458L19.1526 11.3325L19.8716 11.5458ZM18.8891 14.8579L19.6081 15.0712V15.0712L18.8891 14.8579ZM5.11094 14.8579L5.82997 14.6446L5.11094 14.8579ZM4.12841 11.5458L3.40938 11.7591L3.40938 11.7591L4.12841 11.5458ZM8.98521 19.8049L9.1927 19.0841V19.0841L8.98521 19.8049ZM6.15544 17.6927L5.52349 18.0966L6.15544 17.6927ZM17.8446 17.6927L18.4765 18.0966H18.4765L17.8446 17.6927ZM15.0148 19.8049L14.8073 19.0841V19.0841L15.0148 19.8049ZM20.873 8.00001V7.25001H20.2841L20.1444 7.82204L20.873 8.00001ZM3.12703 8.00001V7.25001H2.17177L2.39845 8.17798L3.12703 8.00001ZM2 7.25001C1.58579 7.25001 1.25 7.5858 1.25 8.00001C1.25 8.41422 1.58579 8.75001 2 8.75001V7.25001ZM22 8.75001C22.4142 8.75001 22.75 8.41422 22.75 8.00001C22.75 7.5858 22.4142 7.25001 22 7.25001V8.75001ZM14.75 12C14.75 11.5858 14.4142 11.25 14 11.25C13.5858 11.25 13.25 11.5858 13.25 12H14.75ZM13.25 16C13.25 16.4142 13.5858 16.75 14 16.75C14.4142 16.75 14.75 16.4142 14.75 16H13.25ZM15.5304 3.46967C15.2375 3.17678 14.7626 3.17678 14.4697 3.46967C14.1768 3.76256 14.1768 4.23744 14.4697 4.53033L15.5304 3.46967ZM9.77297 4.53035C10.0659 4.23745 10.0659 3.76258 9.77297 3.46969C9.48008 3.17679 9.0052 3.17679 8.71231 3.46969L9.77297 4.53035ZM10.75 12C10.75 11.5858 10.4142 11.25 10 11.25C9.58579 11.25 9.25 11.5858 9.25 12H10.75ZM9.25 16C9.25 16.4142 9.58579 16.75 10 16.75C10.4142 16.75 10.75 16.4142 10.75 16H9.25ZM19.1526 11.3325L18.17 14.6446L19.6081 15.0712L20.5906 11.7591L19.1526 11.3325ZM5.82997 14.6446L4.84743 11.3325L3.40938 11.7591L4.39191 15.0712L5.82997 14.6446ZM12 19.25C10.3945 19.25 9.74417 19.2429 9.1927 19.0841L8.77772 20.5256C9.58199 20.7571 10.4896 20.75 12 20.75V19.25ZM4.39191 15.0712C4.82148 16.5192 5.07278 17.3914 5.52349 18.0966L6.7874 17.2888C6.47836 16.8052 6.28656 16.1837 5.82997 14.6446L4.39191 15.0712ZM9.1927 19.0841C8.19926 18.7981 7.34412 18.1598 6.7874 17.2888L5.52349 18.0966C6.2767 19.2751 7.43365 20.1386 8.77772 20.5256L9.1927 19.0841ZM18.17 14.6446C17.7134 16.1837 17.5216 16.8052 17.2126 17.2888L18.4765 18.0966C18.9272 17.3913 19.1785 16.5192 19.6081 15.0712L18.17 14.6446ZM12 20.75C13.5104 20.75 14.418 20.7571 15.2223 20.5256L14.8073 19.0841C14.2558 19.2429 13.6055 19.25 12 19.25V20.75ZM17.2126 17.2888C16.6559 18.1598 15.8007 18.7981 14.8073 19.0841L15.2223 20.5256C16.5663 20.1386 17.7233 19.2751 18.4765 18.0966L17.2126 17.2888ZM20.5906 11.7591C21.0122 10.3378 21.3609 9.16331 21.6016 8.17798L20.1444 7.82204C19.9143 8.76385 19.5779 9.89852 19.1526 11.3325L20.5906 11.7591ZM4.84743 11.3325C4.42205 9.89852 4.08566 8.76385 3.8556 7.82204L2.39845 8.17798C2.63913 9.1633 2.98776 10.3378 3.40938 11.7591L4.84743 11.3325ZM13.25 12V16H14.75V12H13.25ZM9.25 12V16H10.75V12H9.25ZM14.4697 4.53033L18.4697 8.53034L19.5304 7.46968L15.5304 3.46967L14.4697 4.53033ZM19 8.75001H21V7.25001H19V8.75001ZM21 8.75001H22V7.25001H21V8.75001ZM20.873 8.75001H21V7.25001H20.873V8.75001ZM2 8.75001H5.24265V7.25001H2V8.75001ZM5.24265 8.75001H19V7.25001H5.24265V8.75001ZM8.71231 3.46969L4.71232 7.46968L5.77298 8.53034L9.77297 4.53035L8.71231 3.46969ZM3.12703 8.75001H5.24265V7.25001H3.12703V8.75001Z" fill="#FAFAFA"/>
</svg>
