<svg width="24" height="24" viewBox="0 0 24 24" fill="none" xmlns="http://www.w3.org/2000/svg">
<path d="M6.99999 6C6.99999 3.23858 9.23856 1 12 1C14.7614 1 17 3.23858 17 6V6.0117M6.99999 6C7.62779 5.98808 8.33271 6 9.16033 6H14.8396C15.662 6 16.375 6 17 6.0117M6.99999 6C5.28113 6.03265 4.21822 6.16661 3.39197 6.62276C2.43086 7.15337 1.67195 7.98504 1.23103 8.98841M1.23103 8.98841L4.80758 12.565C8.14091 15.8983 9.80758 17.565 11.8786 17.565C13.9497 17.565 15.6164 15.8983 18.9497 12.5649L22.5824 8.93226C22.618 8.89664 22.6573 8.86491 22.6997 8.8376V8.8376M1.23103 8.98841C1.21745 9.01931 1.20418 9.05037 1.1912 9.0816C0.69682 10.2715 0.867633 11.8088 1.20926 14.8835C1.48888 17.4 1.62869 18.6583 2.20918 19.6079C2.72054 20.4444 3.46653 21.1121 4.35437 21.5279C5.36224 22 6.62827 22 9.16033 22H14.8396C17.3717 22 18.6377 22 19.6456 21.5279C20.5334 21.1121 21.2794 20.4444 21.7908 19.6079C22.3713 18.6583 22.5111 17.4 22.7907 14.8835C23.1323 11.8088 23.3032 10.2715 22.8088 9.0816C22.7745 8.99913 22.7381 8.91778 22.6997 8.8376M17 6.0117C18.726 6.04401 19.7798 6.16555 20.608 6.62276C21.5205 7.12655 22.2508 7.90174 22.6997 8.8376" stroke="#FAFAFA" stroke-width="1.5"/>
</svg>
