<svg width="24" height="24" viewBox="0 0 24 24" fill="none" xmlns="http://www.w3.org/2000/svg">
<path d="M19 8.75C19.4142 8.75 19.75 8.41421 19.75 8C19.75 7.58579 19.4142 7.25 19 7.25V8.75ZM6.78953 5.39785L6.26157 4.86516L6.26157 4.86516L6.78953 5.39785ZM8.72786 4.53269C9.02206 4.24111 9.02418 3.76624 8.73259 3.47204C8.44101 3.17784 7.96614 3.17573 7.67194 3.46731L8.72786 4.53269ZM17.4107 18.6022L17.9387 19.1348L17.4107 18.6022ZM15.4724 19.4673C15.1782 19.7589 15.1761 20.2338 15.4677 20.528C15.7592 20.8222 16.2341 20.8243 16.5283 20.5327L15.4724 19.4673ZM19.1844 16.2507L19.9284 16.3455V16.3455L19.1844 16.2507ZM5 15.25C4.58579 15.25 4.25 15.5858 4.25 16C4.25 16.4142 4.58579 16.75 5 16.75V15.25ZM19.1902 16.2L18.4441 16.1243L19.1902 16.2ZM5.25133 8.75H19V7.25H5.25133V8.75ZM7.31749 5.93054L8.72786 4.53269L7.67194 3.46731L6.26157 4.86516L7.31749 5.93054ZM6.26157 4.86516C5.71172 5.41012 5.25352 5.86265 4.92859 6.26724C4.59417 6.68367 4.3398 7.12131 4.27183 7.6545L5.75979 7.84416C5.77842 7.698 5.84854 7.51728 6.09813 7.20649C6.35723 6.88386 6.74259 6.50033 7.31749 5.93054L6.26157 4.86516ZM16.8828 18.0695L15.4724 19.4673L16.5283 20.5327L17.9387 19.1348L16.8828 18.0695ZM17.9387 19.1348C18.4885 18.5899 18.9467 18.1373 19.2717 17.7328C19.6061 17.3163 19.8605 16.8787 19.9284 16.3455L18.4405 16.1558C18.4218 16.302 18.3517 16.4827 18.1021 16.7935C17.843 17.1161 17.4577 17.4997 16.8828 18.0695L17.9387 19.1348ZM18.4441 16.1243C18.443 16.1348 18.4418 16.1453 18.4405 16.1558L19.9284 16.3455C19.9314 16.3222 19.934 16.299 19.9364 16.2757L18.4441 16.1243ZM19 15.25H5V16.75H19V15.25ZM19.9364 16.2757C19.9975 15.6728 19.502 15.25 19 15.25L19 16.75C18.7193 16.75 18.4053 16.507 18.4441 16.1243L19.9364 16.2757ZM5.25133 7.25C5.49659 7.25 5.80762 7.46894 5.75979 7.84416L4.27183 7.6545C4.1889 8.30512 4.72847 8.75 5.25133 8.75V7.25Z" fill="#FAFAFA"/>
</svg>
