<svg width="24" height="24" viewBox="0 0 24 24" fill="none" xmlns="http://www.w3.org/2000/svg">
<path d="M8.74988 4.99997C8.74988 4.58575 8.41409 4.24997 7.99988 4.24997C7.58566 4.24997 7.24988 4.58575 7.24988 4.99997L8.74988 4.99997ZM5.39772 17.2104L4.86503 17.7384H4.86503L5.39772 17.2104ZM4.53257 15.2721C4.24099 14.9779 3.76612 14.9758 3.47192 15.2674C3.17772 15.559 3.1756 16.0338 3.46719 16.328L4.53257 15.2721ZM18.602 6.58925L19.1347 6.06129V6.06129L18.602 6.58925ZM19.4672 8.52758C19.7588 8.82178 20.2336 8.8239 20.5278 8.53231C20.822 8.24073 20.8242 7.76586 20.5326 7.47166L19.4672 8.52758ZM16.2505 4.81553L16.3454 4.07155L16.3454 4.07155L16.2505 4.81553ZM15.2499 19C15.2499 19.4142 15.5857 19.75 15.9999 19.75C16.4141 19.75 16.7499 19.4142 16.7499 19H15.2499ZM16.1999 4.80974L16.1242 5.55591L16.1999 4.80974ZM7.99988 18.7486H7.24988H7.99988ZM8.74988 18.7486L8.74988 4.99997L7.24988 4.99997L7.24988 18.7486H8.74988ZM5.93042 16.6825L4.53257 15.2721L3.46719 16.328L4.86503 17.7384L5.93042 16.6825ZM4.86503 17.7384C5.41 18.2882 5.86253 18.7464 6.26712 19.0714C6.68354 19.4058 7.12119 19.6602 7.65438 19.7281L7.84404 18.2402C7.69788 18.2215 7.51716 18.1514 7.20637 17.9018C6.88374 17.6427 6.50021 17.2574 5.93042 16.6825L4.86503 17.7384ZM18.0693 7.1172L19.4672 8.52758L20.5326 7.47166L19.1347 6.06129L18.0693 7.1172ZM19.1347 6.06129C18.5898 5.51144 18.1372 5.05324 17.7326 4.72831C17.3162 4.39389 16.8786 4.13951 16.3454 4.07155L16.1557 5.55951C16.3019 5.57814 16.4826 5.64825 16.7934 5.89785C17.116 6.15695 17.4995 6.54231 18.0693 7.1172L19.1347 6.06129ZM16.1242 5.55591C16.1347 5.55698 16.1452 5.55818 16.1557 5.55951L16.3454 4.07155C16.3221 4.06859 16.2988 4.06593 16.2755 4.06356L16.1242 5.55591ZM15.2499 4.99996V19H16.7499V4.99996H15.2499ZM16.2755 4.06356C15.6727 4.00243 15.2499 4.49797 15.2499 4.99996L16.7499 4.99997C16.7499 5.28066 16.5069 5.59472 16.1242 5.55591L16.2755 4.06356ZM7.24988 18.7486C7.24988 18.5034 7.46881 18.1923 7.84404 18.2402L7.65438 19.7281C8.305 19.8111 8.74988 19.2715 8.74988 18.7486H7.24988Z" fill="#FAFAFA"/>
</svg>
