<svg width="24" height="24" viewBox="0 0 24 24" fill="none" xmlns="http://www.w3.org/2000/svg">
<path d="M12.75 8C12.75 7.58579 12.4142 7.25 12 7.25C11.5858 7.25 11.25 7.58579 11.25 8H12.75ZM16.5327 13.328C16.8243 13.0338 16.8222 12.5589 16.528 12.2673C16.2338 11.9757 15.7589 11.9778 15.4673 12.272L16.5327 13.328ZM14.6022 14.2104L15.1348 14.7383L14.6022 14.2104ZM9.39785 14.2104L8.86516 14.7383L9.39785 14.2104ZM8.53269 12.272C8.24111 11.9778 7.76624 11.9757 7.47204 12.2673C7.17784 12.5589 7.17573 13.0338 7.46731 13.328L8.53269 12.272ZM12.2507 15.9841L12.3455 16.7281L12.3455 16.7281L12.2507 15.9841ZM11.7493 15.9841L11.6545 16.7281L11.6545 16.7281L11.7493 15.9841ZM21.25 12C21.25 17.1086 17.1086 21.25 12 21.25V22.75C17.9371 22.75 22.75 17.9371 22.75 12H21.25ZM12 21.25C6.89137 21.25 2.75 17.1086 2.75 12H1.25C1.25 17.9371 6.06294 22.75 12 22.75V21.25ZM2.75 12C2.75 6.89137 6.89137 2.75 12 2.75V1.25C6.06294 1.25 1.25 6.06294 1.25 12H2.75ZM12 2.75C17.1086 2.75 21.25 6.89137 21.25 12H22.75C22.75 6.06294 17.9371 1.25 12 1.25V2.75ZM11.25 8V15.2H12.75V8H11.25ZM15.4673 12.272L14.0695 13.6824L15.1348 14.7383L16.5327 13.328L15.4673 12.272ZM9.93054 13.6824L8.53269 12.272L7.46731 13.328L8.86516 14.7383L9.93054 13.6824ZM14.0695 13.6824C13.4997 14.2573 13.1161 14.6427 12.7935 14.9018C12.4827 15.1514 12.302 15.2215 12.1558 15.2401L12.3455 16.7281C12.8787 16.6601 13.3163 16.4057 13.7328 16.0713C14.1373 15.7464 14.5899 15.2882 15.1348 14.7383L14.0695 13.6824ZM8.86516 14.7383C9.41012 15.2882 9.86265 15.7464 10.2672 16.0713C10.6837 16.4057 11.1213 16.6601 11.6545 16.7281L11.8442 15.2401C11.698 15.2215 11.5173 15.1514 11.2065 14.9018C10.8839 14.6427 10.5003 14.2573 9.93054 13.6824L8.86516 14.7383ZM12.1558 15.2401C12.1041 15.2467 12.052 15.25 12 15.25V16.75C12.1154 16.75 12.2308 16.7427 12.3455 16.7281L12.1558 15.2401ZM12 15.25C11.948 15.25 11.8959 15.2467 11.8442 15.2401L11.6545 16.7281C11.7692 16.7427 11.8846 16.75 12 16.75V15.25ZM11.25 15.2V16H12.75V15.2H11.25Z" fill="#FAFAFA"/>
</svg>
