<svg width="24" height="24" viewBox="0 0 24 24" fill="none" xmlns="http://www.w3.org/2000/svg">
<path d="M5.06107 20.0451L5.50191 19.4383L5.06107 20.0451ZM3.95491 18.9389L4.56168 18.4981L3.95491 18.9389ZM20.0451 18.9389L19.4383 18.4981L20.0451 18.9389ZM18.9389 20.0451L18.4981 19.4383L18.9389 20.0451ZM18.9389 3.95491L18.4981 4.56168L18.9389 3.95491ZM20.0451 5.06107L19.4383 5.50191L20.0451 5.06107ZM5.06107 3.95491L5.50191 4.56168L5.06107 3.95491ZM3.95491 5.06107L4.56168 5.50191L3.95491 5.06107ZM17.5327 10.528C17.8243 10.2338 17.8222 9.75889 17.528 9.46731C17.2338 9.17572 16.7589 9.17784 16.4673 9.47204L17.5327 10.528ZM15.2527 11.763L14.72 11.235L15.2527 11.763ZM8.74731 11.763L8.21462 12.2909L8.74731 11.763ZM7.53269 9.47204C7.24111 9.17784 6.76624 9.17573 6.47204 9.46731C6.17784 9.75889 6.17573 10.2338 6.46731 10.528L7.53269 9.47204ZM12.3133 13.9801L12.4082 14.7241L12.4082 14.7241L12.3133 13.9801ZM11.6867 13.9801L11.5918 14.7241H11.5918L11.6867 13.9801ZM12 20.25C10.1084 20.25 8.74999 20.249 7.69804 20.135C6.66013 20.0225 6.00992 19.8074 5.50191 19.4383L4.62023 20.6518C5.42656 21.2377 6.37094 21.5 7.53648 21.6263C8.68798 21.751 10.1418 21.75 12 21.75V20.25ZM2.25 12C2.25 13.8582 2.24897 15.312 2.37373 16.4635C2.50001 17.6291 2.76232 18.5734 3.34815 19.3798L4.56168 18.4981C4.19259 17.9901 3.97745 17.3399 3.865 16.302C3.75103 15.25 3.75 13.8916 3.75 12H2.25ZM5.50191 19.4383C5.14111 19.1762 4.82382 18.8589 4.56168 18.4981L3.34815 19.3798C3.70281 19.8679 4.13209 20.2972 4.62023 20.6518L5.50191 19.4383ZM20.25 12C20.25 13.8916 20.249 15.25 20.135 16.302C20.0225 17.3399 19.8074 17.9901 19.4383 18.4981L20.6518 19.3798C21.2377 18.5734 21.5 17.6291 21.6263 16.4635C21.751 15.312 21.75 13.8582 21.75 12H20.25ZM12 21.75C13.8582 21.75 15.312 21.751 16.4635 21.6263C17.6291 21.5 18.5734 21.2377 19.3798 20.6518L18.4981 19.4383C17.9901 19.8074 17.3399 20.0225 16.302 20.135C15.25 20.249 13.8916 20.25 12 20.25V21.75ZM19.4383 18.4981C19.1762 18.8589 18.8589 19.1762 18.4981 19.4383L19.3798 20.6518C19.8679 20.2972 20.2972 19.8679 20.6518 19.3798L19.4383 18.4981ZM12 3.75C13.8916 3.75 15.25 3.75103 16.302 3.865C17.3399 3.97745 17.9901 4.19259 18.4981 4.56168L19.3798 3.34815C18.5734 2.76232 17.6291 2.50001 16.4635 2.37373C15.312 2.24897 13.8582 2.25 12 2.25V3.75ZM21.75 12C21.75 10.1418 21.751 8.68798 21.6263 7.53648C21.5 6.37094 21.2377 5.42656 20.6518 4.62023L19.4383 5.50191C19.8074 6.00992 20.0225 6.66013 20.135 7.69804C20.249 8.74999 20.25 10.1084 20.25 12H21.75ZM18.4981 4.56168C18.8589 4.82382 19.1762 5.14111 19.4383 5.50191L20.6518 4.62023C20.2972 4.13209 19.8679 3.70281 19.3798 3.34815L18.4981 4.56168ZM12 2.25C10.1418 2.25 8.68798 2.24897 7.53648 2.37373C6.37094 2.50001 5.42656 2.76232 4.62023 3.34815L5.50191 4.56168C6.00992 4.19259 6.66013 3.97745 7.69804 3.865C8.74999 3.75103 10.1084 3.75 12 3.75V2.25ZM3.75 12C3.75 10.1084 3.75103 8.74999 3.865 7.69804C3.97745 6.66013 4.19259 6.00992 4.56168 5.50191L3.34815 4.62023C2.76232 5.42656 2.50001 6.37094 2.37373 7.53648C2.24897 8.68798 2.25 10.1418 2.25 12H3.75ZM4.62023 3.34815C4.13209 3.70281 3.70281 4.13209 3.34815 4.62023L4.56168 5.50191C4.82382 5.14111 5.14111 4.82382 5.50191 4.56168L4.62023 3.34815ZM16.4673 9.47204L14.72 11.235L15.7854 12.2909L17.5327 10.528L16.4673 9.47204ZM9.28 11.235L7.53269 9.47204L6.46731 10.528L8.21462 12.2909L9.28 11.235ZM14.72 11.235C14.0109 11.9505 13.5228 12.4413 13.1093 12.7734C12.7076 13.096 12.4496 13.2067 12.2185 13.2361L12.4082 14.7241C13.0263 14.6453 13.5412 14.3504 14.0485 13.9429C14.544 13.545 15.1011 12.9814 15.7854 12.2909L14.72 11.235ZM8.21462 12.2909C8.89892 12.9814 9.45597 13.545 9.95146 13.9429C10.4588 14.3504 10.9737 14.6453 11.5918 14.7241L11.7815 13.2361C11.5504 13.2067 11.2924 13.096 10.8907 12.7734C10.4772 12.4413 9.98914 11.9505 9.28 11.235L8.21462 12.2909ZM12.2185 13.2361C12.0734 13.2546 11.9266 13.2546 11.7815 13.2361L11.5918 14.7241C11.8629 14.7586 12.1371 14.7586 12.4082 14.7241L12.2185 13.2361Z" fill="#FAFAFA"/>
</svg>
