<svg width="24" height="24" viewBox="0 0 24 24" fill="none" xmlns="http://www.w3.org/2000/svg">
<path d="M5.06107 20.0451L5.50191 19.4383L5.06107 20.0451ZM3.95491 18.9389L4.56168 18.4981L3.95491 18.9389ZM20.0451 18.9389L19.4383 18.4981L20.0451 18.9389ZM18.9389 20.0451L18.4981 19.4383L18.9389 20.0451ZM18.9389 3.95491L18.4981 4.56168L18.9389 3.95491ZM20.0451 5.06107L19.4383 5.50191L20.0451 5.06107ZM5.06107 3.95491L5.50191 4.56168L5.06107 3.95491ZM3.95491 5.06107L4.56168 5.50191L3.95491 5.06107ZM12.75 8C12.75 7.58579 12.4142 7.25 12 7.25C11.5858 7.25 11.25 7.58579 11.25 8H12.75ZM16.5327 13.328C16.8243 13.0338 16.8222 12.5589 16.528 12.2673C16.2338 11.9757 15.7589 11.9778 15.4673 12.272L16.5327 13.328ZM14.6022 14.2104L14.0695 13.6824L14.6022 14.2104ZM9.39785 14.2104L8.86516 14.7383H8.86516L9.39785 14.2104ZM8.53269 12.272C8.24111 11.9778 7.76624 11.9757 7.47204 12.2673C7.17784 12.5589 7.17573 13.0338 7.46731 13.328L8.53269 12.272ZM12.2507 15.9841L12.3455 16.7281L12.3455 16.7281L12.2507 15.9841ZM11.7493 15.9841L11.6545 16.7281L11.6545 16.7281L11.7493 15.9841ZM12 20.25C10.1084 20.25 8.74999 20.249 7.69804 20.135C6.66013 20.0225 6.00992 19.8074 5.50191 19.4383L4.62023 20.6518C5.42656 21.2377 6.37094 21.5 7.53648 21.6263C8.68798 21.751 10.1418 21.75 12 21.75V20.25ZM2.25 12C2.25 13.8582 2.24897 15.312 2.37373 16.4635C2.50001 17.6291 2.76232 18.5734 3.34815 19.3798L4.56168 18.4981C4.19259 17.9901 3.97745 17.3399 3.865 16.302C3.75103 15.25 3.75 13.8916 3.75 12H2.25ZM5.50191 19.4383C5.14111 19.1762 4.82382 18.8589 4.56168 18.4981L3.34815 19.3798C3.70281 19.8679 4.13209 20.2972 4.62023 20.6518L5.50191 19.4383ZM20.25 12C20.25 13.8916 20.249 15.25 20.135 16.302C20.0225 17.3399 19.8074 17.9901 19.4383 18.4981L20.6518 19.3798C21.2377 18.5734 21.5 17.6291 21.6263 16.4635C21.751 15.312 21.75 13.8582 21.75 12H20.25ZM12 21.75C13.8582 21.75 15.312 21.751 16.4635 21.6263C17.6291 21.5 18.5734 21.2377 19.3798 20.6518L18.4981 19.4383C17.9901 19.8074 17.3399 20.0225 16.302 20.135C15.25 20.249 13.8916 20.25 12 20.25V21.75ZM19.4383 18.4981C19.1762 18.8589 18.8589 19.1762 18.4981 19.4383L19.3798 20.6518C19.8679 20.2972 20.2972 19.8679 20.6518 19.3798L19.4383 18.4981ZM12 3.75C13.8916 3.75 15.25 3.75103 16.302 3.865C17.3399 3.97745 17.9901 4.19259 18.4981 4.56168L19.3798 3.34815C18.5734 2.76232 17.6291 2.50001 16.4635 2.37373C15.312 2.24897 13.8582 2.25 12 2.25V3.75ZM21.75 12C21.75 10.1418 21.751 8.68798 21.6263 7.53648C21.5 6.37094 21.2377 5.42656 20.6518 4.62023L19.4383 5.50191C19.8074 6.00992 20.0225 6.66013 20.135 7.69804C20.249 8.74999 20.25 10.1084 20.25 12H21.75ZM18.4981 4.56168C18.8589 4.82382 19.1762 5.14111 19.4383 5.50191L20.6518 4.62023C20.2972 4.13209 19.8679 3.70281 19.3798 3.34815L18.4981 4.56168ZM12 2.25C10.1418 2.25 8.68798 2.24897 7.53648 2.37373C6.37094 2.50001 5.42656 2.76232 4.62023 3.34815L5.50191 4.56168C6.00992 4.19259 6.66013 3.97745 7.69804 3.865C8.74999 3.75103 10.1084 3.75 12 3.75V2.25ZM3.75 12C3.75 10.1084 3.75103 8.74999 3.865 7.69804C3.97745 6.66013 4.19259 6.00992 4.56168 5.50191L3.34815 4.62023C2.76232 5.42656 2.50001 6.37094 2.37373 7.53648C2.24897 8.68798 2.25 10.1418 2.25 12H3.75ZM4.62023 3.34815C4.13209 3.70281 3.70281 4.13209 3.34815 4.62023L4.56168 5.50191C4.82382 5.14111 5.14111 4.82382 5.50191 4.56168L4.62023 3.34815ZM15.4673 12.272L14.0695 13.6824L15.1348 14.7383L16.5327 13.328L15.4673 12.272ZM9.93054 13.6824L8.53269 12.272L7.46731 13.328L8.86516 14.7383L9.93054 13.6824ZM14.0695 13.6824C13.4997 14.2573 13.1161 14.6427 12.7935 14.9018C12.4827 15.1514 12.302 15.2215 12.1558 15.2401L12.3455 16.7281C12.8787 16.6601 13.3163 16.4057 13.7328 16.0713C14.1373 15.7464 14.5899 15.2882 15.1348 14.7383L14.0695 13.6824ZM8.86516 14.7383C9.41012 15.2882 9.86265 15.7464 10.2672 16.0713C10.6837 16.4057 11.1213 16.6601 11.6545 16.7281L11.8442 15.2401C11.698 15.2215 11.5173 15.1514 11.2065 14.9018C10.8839 14.6427 10.5003 14.2573 9.93054 13.6824L8.86516 14.7383ZM12.1558 15.2401C12.1041 15.2467 12.052 15.25 12 15.25V16.75C12.1154 16.75 12.2308 16.7427 12.3455 16.7281L12.1558 15.2401ZM12 15.25C11.948 15.25 11.8959 15.2467 11.8442 15.2401L11.6545 16.7281C11.7692 16.7427 11.8846 16.75 12 16.75V15.25ZM11.25 8V16H12.75V8H11.25Z" fill="#FAFAFA"/>
</svg>
