<svg width="24" height="24" viewBox="0 0 24 24" fill="none" xmlns="http://www.w3.org/2000/svg">
<path d="M12.75 3C12.75 2.58579 12.4142 2.25 12 2.25C11.5858 2.25 11.25 2.58579 11.25 3L12.75 3ZM11.25 14C11.25 14.4142 11.5858 14.75 12 14.75C12.4142 14.75 12.75 14.4142 12.75 14H11.25ZM14.8647 14V13.25V14ZM16.4495 17.22L15.8552 16.7625L16.4495 17.22ZM7.55056 17.22L8.14486 16.7625L7.55056 17.22ZM9.13537 14V14.75V14ZM10.4152 20.9413L9.82089 21.3987V21.3988L10.4152 20.9413ZM13.5848 20.9413L14.1791 21.3988L13.5848 20.9413ZM11.25 3L11.25 14H12.75L12.75 3L11.25 3ZM11.0095 20.4838L8.14486 16.7625L6.95625 17.6775L9.82089 21.3987L11.0095 20.4838ZM9.13537 14.75H14.8647V13.25H9.13537V14.75ZM15.8552 16.7625L12.9905 20.4838L14.1791 21.3988L17.0438 17.6775L15.8552 16.7625ZM14.8647 14.75C15.902 14.75 16.4879 15.9405 15.8552 16.7625L17.0438 17.6775C18.4358 15.8692 17.1467 13.25 14.8647 13.25V14.75ZM8.14486 16.7625C7.51211 15.9405 8.09807 14.75 9.13537 14.75V13.25C6.85331 13.25 5.56421 15.8692 6.95625 17.6775L8.14486 16.7625ZM9.82089 21.3988C10.9217 22.8288 13.0783 22.8288 14.1791 21.3988L12.9905 20.4838C12.4901 21.1338 11.5099 21.1338 11.0095 20.4838L9.82089 21.3988Z" fill="#FAFAFA"/>
</svg>
