<svg width="24" height="24" viewBox="0 0 24 24" fill="none" xmlns="http://www.w3.org/2000/svg">
<path d="M12.75 4C12.75 3.58579 12.4142 3.25 12 3.25C11.5858 3.25 11.25 3.58579 11.25 4L12.75 4ZM11.25 20C11.25 20.4142 11.5858 20.75 12 20.75C12.4142 20.75 12.75 20.4142 12.75 20H11.25ZM17.5327 16.528C17.8243 16.2338 17.8222 15.7589 17.528 15.4673C17.2338 15.1757 16.7589 15.1778 16.4673 15.472L17.5327 16.528ZM15.2527 17.763L14.72 17.235L15.2527 17.763ZM8.74731 17.763L9.28 17.235L8.74731 17.763ZM7.53269 15.472C7.24111 15.1778 6.76624 15.1757 6.47204 15.4673C6.17784 15.7589 6.17573 16.2338 6.46731 16.528L7.53269 15.472ZM12.3133 19.9801L12.4082 20.7241H12.4082L12.3133 19.9801ZM11.6867 19.9801L11.5918 20.7241H11.5918L11.6867 19.9801ZM11.25 4L11.25 20H12.75L12.75 4L11.25 4ZM16.4673 15.472L14.72 17.235L15.7854 18.2909L17.5327 16.528L16.4673 15.472ZM9.28 17.235L7.53269 15.472L6.46731 16.528L8.21462 18.2909L9.28 17.235ZM14.72 17.235C14.0109 17.9505 13.5228 18.4413 13.1093 18.7734C12.7076 19.096 12.4496 19.2067 12.2185 19.2361L12.4082 20.7241C13.0263 20.6453 13.5412 20.3504 14.0485 19.9429C14.544 19.545 15.1011 18.9814 15.7854 18.2909L14.72 17.235ZM8.21462 18.2909C8.89892 18.9814 9.45597 19.545 9.95146 19.9429C10.4588 20.3504 10.9737 20.6453 11.5918 20.7241L11.7815 19.2361C11.5504 19.2067 11.2924 19.096 10.8907 18.7734C10.4772 18.4413 9.98914 17.9505 9.28 17.235L8.21462 18.2909ZM12.2185 19.2361C12.0734 19.2546 11.9266 19.2546 11.7815 19.2361L11.5918 20.7241C11.8629 20.7586 12.1371 20.7586 12.4082 20.7241L12.2185 19.2361Z" fill="#FAFAFA"/>
</svg>
