<svg width="24" height="24" viewBox="0 0 24 24" fill="none" xmlns="http://www.w3.org/2000/svg">
<path d="M4.06107 21.2298L4.50191 20.623H4.50191L4.06107 21.2298ZM2.95491 20.1237L2.34815 20.5645L2.95491 20.1237ZM19.0451 20.1237L18.4383 19.6828L19.0451 20.1237ZM17.9389 21.2298L17.4981 20.623H17.4981L17.9389 21.2298ZM4.06107 5.13964L3.62023 4.53288H3.62023L4.06107 5.13964ZM2.95491 6.2458L2.34815 5.80496H2.34815L2.95491 6.2458ZM12.991 4.94188C13.4052 4.94684 13.745 4.61511 13.7499 4.20092C13.7549 3.78674 13.4232 3.44695 13.009 3.44199L12.991 4.94188ZM20.7427 11.1757C20.7378 10.7616 20.398 10.4298 19.9838 10.4348C19.5696 10.4397 19.2379 10.7795 19.2428 11.1937L20.7427 11.1757ZM10.0054 12.5036C9.71253 12.7965 9.71253 13.2714 10.0054 13.5643C10.2983 13.8572 10.7732 13.8572 11.0661 13.5643L10.0054 12.5036ZM15.4822 0.263165C15.0679 0.265014 14.7337 0.602295 14.7355 1.0165C14.7374 1.43071 15.0746 1.765 15.4888 1.76315L15.4822 0.263165ZM17.9676 1.00208L17.971 1.75208L17.9676 1.00208ZM22.5676 5.60208L21.8177 5.59874L22.5676 5.60208ZM21.8066 8.08088C21.8047 8.49509 22.139 8.83237 22.5532 8.83422C22.9674 8.83607 23.3047 8.50178 23.3066 8.08757L21.8066 8.08088ZM21.6138 1.51277L22.0729 0.919641L22.0729 0.91964L21.6138 1.51277ZM22.057 1.95589L22.6501 1.49687V1.49687L22.057 1.95589ZM21.8273 1.74245L21.3673 1.15009L21.3302 1.1789L21.297 1.21212L21.8273 1.74245ZM11 21.4347C9.10843 21.4347 7.74999 21.4337 6.69804 21.3197C5.66013 21.2073 5.00992 20.9921 4.50191 20.623L3.62024 21.8366C4.42656 22.4224 5.37094 22.6847 6.53648 22.811C7.68798 22.9358 9.14184 22.9347 11 22.9347V21.4347ZM1.25 13.1847C1.25 15.0429 1.24897 16.4967 1.37373 17.6483C1.50001 18.8138 1.76232 19.7582 2.34815 20.5645L3.56168 19.6828C3.19259 19.1748 2.97745 18.5246 2.865 17.4867C2.75103 16.4347 2.75 15.0763 2.75 13.1847H1.25ZM4.50191 20.623C4.14111 20.3609 3.82382 20.0436 3.56168 19.6828L2.34815 20.5645C2.70281 21.0526 3.13209 21.4819 3.62024 21.8366L4.50191 20.623ZM19.25 13.1847C19.25 15.0763 19.249 16.4347 19.135 17.4867C19.0225 18.5246 18.8074 19.1748 18.4383 19.6828L19.6518 20.5645C20.2377 19.7582 20.5 18.8138 20.6263 17.6483C20.751 16.4967 20.75 15.0429 20.75 13.1847H19.25ZM11 22.9347C12.8582 22.9347 14.312 22.9358 15.4635 22.811C16.6291 22.6847 17.5734 22.4224 18.3798 21.8366L17.4981 20.623C16.9901 20.9921 16.3399 21.2073 15.302 21.3197C14.25 21.4337 12.8916 21.4347 11 21.4347V22.9347ZM18.4383 19.6828C18.1762 20.0436 17.8589 20.3609 17.4981 20.623L18.3798 21.8366C18.8679 21.4819 19.2972 21.0526 19.6518 20.5645L18.4383 19.6828ZM11 3.43473C9.14184 3.43473 7.68798 3.4337 6.53648 3.55845C5.37094 3.68473 4.42656 3.94705 3.62023 4.53288L4.50191 5.7464C5.00992 5.37732 5.66013 5.16218 6.69804 5.04973C7.74999 4.93576 9.10843 4.93473 11 4.93473V3.43473ZM2.75 13.1847C2.75 11.2932 2.75103 9.93472 2.865 8.88277C2.97745 7.84486 3.19259 7.19464 3.56168 6.68664L2.34815 5.80496C1.76232 6.61129 1.50001 7.55567 1.37373 8.7212C1.24897 9.8727 1.25 11.3266 1.25 13.1847H2.75ZM3.62023 4.53288C3.13209 4.88754 2.70281 5.31682 2.34815 5.80496L3.56168 6.68664C3.82382 6.32584 4.14111 6.00854 4.50191 5.7464L3.62023 4.53288ZM11 4.93473C11.7367 4.93473 12.3952 4.93474 12.991 4.94188L13.009 3.44199C12.4025 3.43472 11.7343 3.43473 11 3.43473V4.93473ZM20.75 13.1847C20.75 12.4504 20.75 11.7823 20.7427 11.1757L19.2428 11.1937C19.25 11.7895 19.25 12.448 19.25 13.1847H20.75ZM15.4888 1.76315L17.971 1.75208L17.9643 0.252091L15.4822 0.263165L15.4888 1.76315ZM21.8177 5.59874L21.8066 8.08088L23.3066 8.08757L23.3176 5.60543L21.8177 5.59874ZM17.971 1.75208C18.9784 1.74758 19.6705 1.74563 20.1977 1.80321C20.7099 1.85914 20.9706 1.96333 21.1548 2.1059L22.0729 0.91964C21.5801 0.538279 21.0074 0.38271 20.3606 0.312072C19.7288 0.243083 18.9364 0.247754 17.9643 0.252091L17.971 1.75208ZM23.3176 5.60543C23.322 4.63334 23.3266 3.84089 23.2577 3.20915C23.187 2.56232 23.0314 1.98965 22.6501 1.49687L21.4638 2.41491C21.6064 2.59913 21.7106 2.85983 21.7665 3.37199C21.8241 3.89923 21.8221 4.59137 21.8177 5.59874L23.3176 5.60543ZM11.0661 13.5643L22.3576 2.27278L21.297 1.21212L10.0054 12.5036L11.0661 13.5643ZM21.1548 2.1059C21.2134 2.15122 21.2689 2.20021 21.3211 2.25254L22.3834 1.19357C22.286 1.09581 22.1822 1.0043 22.0729 0.919641L21.1548 2.1059ZM21.3211 2.25254C21.3719 2.30357 21.4196 2.35779 21.4638 2.41491L22.6501 1.49687C22.5675 1.3902 22.4785 1.28891 22.3834 1.19357L21.3211 2.25254ZM22.2873 2.3348L22.3123 2.31541L21.3922 1.1307L21.3673 1.15009L22.2873 2.3348Z" fill="#FAFAFA"/>
</svg>
