<svg width="24" height="24" viewBox="0 0 24 24" fill="none" xmlns="http://www.w3.org/2000/svg">
<path d="M16 12.75C16.4142 12.75 16.75 12.4142 16.75 12C16.75 11.5858 16.4142 11.25 16 11.25V12.75ZM10.672 16.5327C10.9662 16.8243 11.4411 16.8222 11.7327 16.528C12.0243 16.2338 12.0222 15.7589 11.728 15.4673L10.672 16.5327ZM9.78962 14.6022L10.3176 14.0695L9.78962 14.6022ZM9.78962 9.39785L9.26167 8.86516L9.78962 9.39785ZM11.728 8.53269C12.0222 8.24111 12.0243 7.76624 11.7327 7.47204C11.4411 7.17784 10.9662 7.17573 10.672 7.46731L11.728 8.53269ZM8.01591 12.2507L7.27193 12.3455V12.3455L8.01591 12.2507ZM8.01591 11.7493L7.27193 11.6545V11.6545L8.01591 11.7493ZM21.25 12C21.25 17.1086 17.1086 21.25 12 21.25V22.75C17.9371 22.75 22.75 17.9371 22.75 12H21.25ZM12 21.25C6.89137 21.25 2.75 17.1086 2.75 12H1.25C1.25 17.9371 6.06294 22.75 12 22.75V21.25ZM2.75 12C2.75 6.89137 6.89137 2.75 12 2.75V1.25C6.06294 1.25 1.25 6.06294 1.25 12H2.75ZM12 2.75C17.1086 2.75 21.25 6.89137 21.25 12H22.75C22.75 6.06294 17.9371 1.25 12 1.25V2.75ZM16 11.25H8.8V12.75H16V11.25ZM11.728 15.4673L10.3176 14.0695L9.26167 15.1348L10.672 16.5327L11.728 15.4673ZM10.3176 9.93054L11.728 8.53269L10.672 7.46731L9.26167 8.86516L10.3176 9.93054ZM10.3176 14.0695C9.74268 13.4997 9.35733 13.1161 9.09823 12.7935C8.84863 12.4827 8.77852 12.302 8.75989 12.1558L7.27193 12.3455C7.33989 12.8787 7.59426 13.3163 7.92869 13.7328C8.25361 14.1373 8.71182 14.5899 9.26167 15.1348L10.3176 14.0695ZM9.26167 8.86516C8.71182 9.41012 8.25362 9.86265 7.92869 10.2672C7.59427 10.6837 7.33989 11.1213 7.27193 11.6545L8.75989 11.8442C8.77852 11.698 8.84863 11.5173 9.09823 11.2065C9.35733 10.8839 9.74268 10.5003 10.3176 9.93054L9.26167 8.86516ZM8.75989 12.1558C8.7533 12.1041 8.75 12.052 8.75 12H7.25C7.25 12.1154 7.25731 12.2308 7.27193 12.3455L8.75989 12.1558ZM8.75 12C8.75 11.948 8.7533 11.8959 8.75989 11.8442L7.27193 11.6545C7.25731 11.7692 7.25 11.8846 7.25 12H8.75ZM8.8 11.25H8V12.75H8.8V11.25Z" fill="#FAFAFA"/>
</svg>
