<svg width="24" height="24" viewBox="0 0 24 24" fill="none" xmlns="http://www.w3.org/2000/svg">
<path d="M5.06107 20.0451L5.50191 19.4383L5.06107 20.0451ZM3.95491 18.9389L4.56168 18.4981L3.95491 18.9389ZM20.0451 18.9389L19.4383 18.4981L20.0451 18.9389ZM18.9389 20.0451L18.4981 19.4383L18.9389 20.0451ZM18.9389 3.95491L18.4981 4.56168L18.9389 3.95491ZM20.0451 5.06107L19.4383 5.50191L20.0451 5.06107ZM5.06107 3.95491L5.50191 4.56168L5.06107 3.95491ZM3.95491 5.06107L4.56168 5.50191L3.95491 5.06107ZM16 12.75C16.4142 12.75 16.75 12.4142 16.75 12C16.75 11.5858 16.4142 11.25 16 11.25V12.75ZM10.672 16.5327C10.9662 16.8243 11.4411 16.8222 11.7327 16.528C12.0243 16.2338 12.0222 15.7589 11.728 15.4673L10.672 16.5327ZM9.78962 14.6022L9.26167 15.1348L9.78962 14.6022ZM9.78962 9.39785L9.26167 8.86516H9.26167L9.78962 9.39785ZM11.728 8.53269C12.0222 8.24111 12.0243 7.76624 11.7327 7.47204C11.4411 7.17784 10.9662 7.17573 10.672 7.46731L11.728 8.53269ZM8.01591 12.2507L7.27193 12.3455V12.3455L8.01591 12.2507ZM8.01591 11.7493L7.27193 11.6545V11.6545L8.01591 11.7493ZM12 20.25C10.1084 20.25 8.74999 20.249 7.69804 20.135C6.66013 20.0225 6.00992 19.8074 5.50191 19.4383L4.62023 20.6518C5.42656 21.2377 6.37094 21.5 7.53648 21.6263C8.68798 21.751 10.1418 21.75 12 21.75V20.25ZM2.25 12C2.25 13.8582 2.24897 15.312 2.37373 16.4635C2.50001 17.6291 2.76232 18.5734 3.34815 19.3798L4.56168 18.4981C4.19259 17.9901 3.97745 17.3399 3.865 16.302C3.75103 15.25 3.75 13.8916 3.75 12H2.25ZM5.50191 19.4383C5.14111 19.1762 4.82382 18.8589 4.56168 18.4981L3.34815 19.3798C3.70281 19.8679 4.13209 20.2972 4.62023 20.6518L5.50191 19.4383ZM20.25 12C20.25 13.8916 20.249 15.25 20.135 16.302C20.0225 17.3399 19.8074 17.9901 19.4383 18.4981L20.6518 19.3798C21.2377 18.5734 21.5 17.6291 21.6263 16.4635C21.751 15.312 21.75 13.8582 21.75 12H20.25ZM12 21.75C13.8582 21.75 15.312 21.751 16.4635 21.6263C17.6291 21.5 18.5734 21.2377 19.3798 20.6518L18.4981 19.4383C17.9901 19.8074 17.3399 20.0225 16.302 20.135C15.25 20.249 13.8916 20.25 12 20.25V21.75ZM19.4383 18.4981C19.1762 18.8589 18.8589 19.1762 18.4981 19.4383L19.3798 20.6518C19.8679 20.2972 20.2972 19.8679 20.6518 19.3798L19.4383 18.4981ZM12 3.75C13.8916 3.75 15.25 3.75103 16.302 3.865C17.3399 3.97745 17.9901 4.19259 18.4981 4.56168L19.3798 3.34815C18.5734 2.76232 17.6291 2.50001 16.4635 2.37373C15.312 2.24897 13.8582 2.25 12 2.25V3.75ZM21.75 12C21.75 10.1418 21.751 8.68798 21.6263 7.53648C21.5 6.37094 21.2377 5.42656 20.6518 4.62023L19.4383 5.50191C19.8074 6.00992 20.0225 6.66013 20.135 7.69804C20.249 8.74999 20.25 10.1084 20.25 12H21.75ZM18.4981 4.56168C18.8589 4.82382 19.1762 5.14111 19.4383 5.50191L20.6518 4.62023C20.2972 4.13209 19.8679 3.70281 19.3798 3.34815L18.4981 4.56168ZM12 2.25C10.1418 2.25 8.68798 2.24897 7.53648 2.37373C6.37094 2.50001 5.42656 2.76232 4.62023 3.34815L5.50191 4.56168C6.00992 4.19259 6.66013 3.97745 7.69804 3.865C8.74999 3.75103 10.1084 3.75 12 3.75V2.25ZM3.75 12C3.75 10.1084 3.75103 8.74999 3.865 7.69804C3.97745 6.66013 4.19259 6.00992 4.56168 5.50191L3.34815 4.62023C2.76232 5.42656 2.50001 6.37094 2.37373 7.53648C2.24897 8.68798 2.25 10.1418 2.25 12H3.75ZM4.62023 3.34815C4.13209 3.70281 3.70281 4.13209 3.34815 4.62023L4.56168 5.50191C4.82382 5.14111 5.14111 4.82382 5.50191 4.56168L4.62023 3.34815ZM16 11.25H8.8V12.75H16V11.25ZM11.728 15.4673L10.3176 14.0695L9.26167 15.1348L10.672 16.5327L11.728 15.4673ZM10.3176 9.93054L11.728 8.53269L10.672 7.46731L9.26167 8.86516L10.3176 9.93054ZM10.3176 14.0695C9.74268 13.4997 9.35733 13.1161 9.09823 12.7935C8.84863 12.4827 8.77852 12.302 8.75989 12.1558L7.27193 12.3455C7.33989 12.8787 7.59426 13.3163 7.92869 13.7328C8.25361 14.1373 8.71182 14.5899 9.26167 15.1348L10.3176 14.0695ZM9.26167 8.86516C8.71182 9.41012 8.25362 9.86265 7.92869 10.2672C7.59427 10.6837 7.33989 11.1213 7.27193 11.6545L8.75989 11.8442C8.77852 11.698 8.84863 11.5173 9.09823 11.2065C9.35733 10.8839 9.74268 10.5003 10.3176 9.93054L9.26167 8.86516ZM8.75989 12.1558C8.7533 12.1041 8.75 12.052 8.75 12H7.25C7.25 12.1154 7.25731 12.2308 7.27193 12.3455L8.75989 12.1558ZM8.75 12C8.75 11.948 8.7533 11.8959 8.75989 11.8442L7.27193 11.6545C7.25731 11.7692 7.25 11.8846 7.25 12H8.75ZM8.8 11.25H8V12.75H8.8V11.25Z" fill="#FAFAFA"/>
</svg>
