<svg width="24" height="24" viewBox="0 0 24 24" fill="none" xmlns="http://www.w3.org/2000/svg">
<path d="M20 12.75C20.4142 12.75 20.75 12.4142 20.75 12C20.75 11.5858 20.4142 11.25 20 11.25V12.75ZM4 11.25C3.58579 11.25 3.25 11.5858 3.25 12C3.25 12.4142 3.58579 12.75 4 12.75V11.25ZM7.47204 17.5327C7.76624 17.8243 8.24111 17.8222 8.53269 17.528C8.82427 17.2338 8.82216 16.7589 8.52796 16.4673L7.47204 17.5327ZM6.23703 15.2527L6.76499 14.72H6.76499L6.23703 15.2527ZM6.23703 8.74731L5.70907 8.21462H5.70907L6.23703 8.74731ZM8.52796 7.53269C8.82216 7.24111 8.82428 6.76624 8.53269 6.47204C8.24111 6.17784 7.76624 6.17573 7.47204 6.46731L8.52796 7.53269ZM4.01989 12.3133L3.27591 12.4082L3.27591 12.4082L4.01989 12.3133ZM4.01989 11.6867L3.27591 11.5918L3.27591 11.5918L4.01989 11.6867ZM20 11.25H4V12.75H20V11.25ZM8.52796 16.4673L6.76499 14.72L5.70907 15.7854L7.47204 17.5327L8.52796 16.4673ZM6.76499 9.28L8.52796 7.53269L7.47204 6.46731L5.70907 8.21462L6.76499 9.28ZM6.76499 14.72C6.0495 14.0109 5.55869 13.5228 5.22659 13.1093C4.904 12.7076 4.79332 12.4496 4.76387 12.2185L3.27591 12.4082C3.35469 13.0263 3.64963 13.5412 4.05706 14.0485C4.45498 14.544 5.01863 15.1011 5.70907 15.7854L6.76499 14.72ZM5.70907 8.21462C5.01863 8.89892 4.45498 9.45597 4.05706 9.95146C3.64963 10.4588 3.3547 10.9737 3.27591 11.5918L4.76387 11.7815C4.79332 11.5504 4.904 11.2924 5.22659 10.8907C5.55869 10.4772 6.0495 9.98914 6.76499 9.28L5.70907 8.21462ZM4.76387 12.2185C4.74538 12.0734 4.74538 11.9266 4.76387 11.7815L3.27591 11.5918C3.24136 11.8629 3.24136 12.1371 3.27591 12.4082L4.76387 12.2185Z" fill="#FAFAFA"/>
</svg>
