<svg width="24" height="24" viewBox="0 0 24 24" fill="none" xmlns="http://www.w3.org/2000/svg">
<path d="M22 12.75C22.4142 12.75 22.75 12.4142 22.75 12C22.75 11.5858 22.4142 11.25 22 11.25V12.75ZM11 11.25C10.5858 11.25 10.25 11.5858 10.25 12C10.25 12.4142 10.5858 12.75 11 12.75V11.25ZM11 14.8647H10.25H11ZM7.78001 16.4495L8.2375 15.8552L7.78001 16.4495ZM7.78001 7.55056L8.2375 8.14486L7.78001 7.55056ZM11 9.13537H11.75H11ZM4.05873 10.4152L4.51622 11.0095L4.05873 10.4152ZM4.05873 13.5848L3.60123 14.1791L4.05873 13.5848ZM22 11.25L11 11.25V12.75L22 12.75V11.25ZM4.51622 11.0095L8.2375 8.14486L7.32251 6.95625L3.60123 9.82089L4.51622 11.0095ZM10.25 9.13537L10.25 14.8647H11.75V9.13537H10.25ZM8.2375 15.8552L4.51622 12.9905L3.60123 14.1791L7.32251 17.0438L8.2375 15.8552ZM10.25 14.8647C10.25 15.902 9.05947 16.4879 8.2375 15.8552L7.32251 17.0438C9.13083 18.4358 11.75 17.1467 11.75 14.8647H10.25ZM8.2375 8.14486C9.05947 7.51211 10.25 8.09807 10.25 9.13537H11.75C11.75 6.85331 9.13083 5.56421 7.32251 6.95625L8.2375 8.14486ZM3.60123 9.82089C2.17121 10.9217 2.17121 13.0783 3.60123 14.1791L4.51622 12.9905C3.86621 12.4901 3.86621 11.5099 4.51622 11.0095L3.60123 9.82089Z" fill="#FAFAFA"/>
</svg>
