<svg width="24" height="24" viewBox="0 0 24 24" fill="none" xmlns="http://www.w3.org/2000/svg">
<path d="M10 21V20.25V21ZM9 21V21.75V21ZM3 15H3.75H3ZM3 9H2.25H3ZM9 3V2.25V3ZM10 3V3.75V3ZM3.06156 7.21783L2.32079 7.1005L2.32079 7.1005L3.06156 7.21783ZM7.21783 3.06156L7.33515 3.80232L7.21783 3.06156ZM7.21783 20.9384L7.1005 21.6792H7.1005L7.21783 20.9384ZM3.06156 16.7822L2.32079 16.8995L2.32079 16.8995L3.06156 16.7822ZM13.4504 20.6C13.7816 20.3513 13.8484 19.8811 13.5997 19.5499C13.3509 19.2187 12.8808 19.1519 12.5496 19.4007L13.4504 20.6ZM12.5496 4.59931C12.8808 4.84808 13.3509 4.78126 13.5997 4.45007C13.8484 4.11888 13.7816 3.64873 13.4504 3.39996L12.5496 4.59931ZM7 11.25C6.58579 11.25 6.25 11.5858 6.25 12C6.25 12.4142 6.58579 12.75 7 12.75V11.25ZM20 12V12.75V12ZM17.466 7.41232C17.1414 7.15497 16.6697 7.20946 16.4123 7.53403C16.155 7.8586 16.2095 8.33034 16.534 8.58768L17.466 7.41232ZM18.763 9.39785L19.2289 8.81016L18.763 9.39785ZM18.763 14.6022L19.2289 15.1898L18.763 14.6022ZM16.534 15.4123C16.2095 15.6697 16.155 16.1414 16.4123 16.466C16.6697 16.7905 17.1414 16.845 17.466 16.5877L16.534 15.4123ZM20.9801 11.7493L21.7208 11.6313V11.6313L20.9801 11.7493ZM20.9801 12.2507L21.7208 12.3687V12.3687L20.9801 12.2507ZM21 12H21.75H21ZM10 20.25H9V21.75H10V20.25ZM3.75 15L3.75 9H2.25L2.25 15H3.75ZM9 3.75L10 3.75V2.25L9 2.25V3.75ZM3.75 9C3.75 8.04233 3.75233 7.65082 3.80232 7.33515L2.32079 7.1005C2.24767 7.56216 2.25 8.09965 2.25 9H3.75ZM9 2.25C8.09966 2.25 7.56216 2.24767 7.1005 2.32079L7.33515 3.80232C7.65082 3.75233 8.04233 3.75 9 3.75V2.25ZM3.80232 7.33515C4.09035 5.51661 5.51661 4.09035 7.33515 3.80232L7.1005 2.32079C4.64012 2.71048 2.71048 4.64012 2.32079 7.1005L3.80232 7.33515ZM9 20.25C8.04233 20.25 7.65082 20.2477 7.33515 20.1977L7.1005 21.6792C7.56216 21.7523 8.09965 21.75 9 21.75V20.25ZM2.25 15C2.25 15.9003 2.24767 16.4378 2.32079 16.8995L3.80232 16.6648C3.75233 16.3492 3.75 15.9577 3.75 15H2.25ZM7.33515 20.1977C5.51661 19.9096 4.09035 18.4834 3.80232 16.6648L2.32079 16.8995C2.71048 19.3599 4.64012 21.2895 7.1005 21.6792L7.33515 20.1977ZM10 21.75C11.2936 21.75 12.4894 21.3219 13.4504 20.6L12.5496 19.4007C11.8393 19.9342 10.9576 20.25 10 20.25V21.75ZM10 3.75C10.9576 3.75 11.8393 4.06583 12.5496 4.59931L13.4504 3.39996C12.4894 2.67806 11.2936 2.25 10 2.25V3.75ZM7 12.75L20 12.75V11.25L7 11.25V12.75ZM16.534 8.58768L18.297 9.98553L19.2289 8.81016L17.466 7.41232L16.534 8.58768ZM18.297 14.0145L16.534 15.4123L17.466 16.5877L19.2289 15.1898L18.297 14.0145ZM18.297 9.98553C19.0143 10.5543 19.5012 10.9418 19.8289 11.2682C20.1532 11.5913 20.2225 11.7612 20.2395 11.8673L21.7208 11.6313C21.6294 11.0582 21.2932 10.6096 20.8875 10.2055C20.4852 9.80475 19.9176 9.35616 19.2289 8.81016L18.297 9.98553ZM19.2289 15.1898C19.9175 14.6438 20.4852 14.1953 20.8875 13.7945C21.2932 13.3904 21.6294 12.9418 21.7208 12.3687L20.2395 12.1327C20.2225 12.2388 20.1532 12.4087 19.8289 12.7318C19.5012 13.0582 19.0143 13.4457 18.297 14.0145L19.2289 15.1898ZM20.2395 11.8673C20.2465 11.9117 20.25 11.9559 20.25 12H21.75C21.75 11.8766 21.7402 11.7534 21.7208 11.6313L20.2395 11.8673ZM20.25 12C20.25 12.0441 20.2465 12.0883 20.2395 12.1327L21.7208 12.3687C21.7402 12.2466 21.75 12.1234 21.75 12H20.25ZM20 12.75H21V11.25H20V12.75Z" fill="#FAFAFA"/>
</svg>
