<svg width="24" height="24" viewBox="0 0 24 24" fill="none" xmlns="http://www.w3.org/2000/svg">
<path d="M15.8861 12.4673C15.5919 12.7589 15.5898 13.2338 15.8814 13.528C16.173 13.8222 16.6478 13.8243 16.942 13.5327L15.8861 12.4673ZM17.8244 11.6022L18.3524 12.1348L17.8244 11.6022ZM17.8244 6.39785L18.3524 5.86516V5.86516L17.8244 6.39785ZM16.942 4.46731C16.6478 4.17573 16.173 4.17784 15.8814 4.47204C15.5898 4.76624 15.5919 5.24111 15.8861 5.53269L16.942 4.46731ZM19.5982 9.25067L20.3421 9.3455L20.3421 9.34549L19.5982 9.25067ZM19.5982 8.74933L20.3421 8.65451L20.3421 8.6545L19.5982 8.74933ZM18 19.75C18.4142 19.75 18.75 19.4142 18.75 19C18.75 18.5858 18.4142 18.25 18 18.25V19.75ZM16.942 13.5327L18.3524 12.1348L17.2965 11.0695L15.8861 12.4673L16.942 13.5327ZM18.3524 5.86516L16.942 4.46731L15.8861 5.53269L17.2965 6.93054L18.3524 5.86516ZM18.3524 12.1348C18.9022 11.5899 19.3604 11.1373 19.6854 10.7328C20.0198 10.3163 20.2742 9.87869 20.3421 9.3455L18.8542 9.15584C18.8355 9.302 18.7654 9.48272 18.5158 9.79351C18.2567 10.1161 17.8714 10.4997 17.2965 11.0695L18.3524 12.1348ZM17.2965 6.93054C17.8714 7.50033 18.2567 7.88386 18.5158 8.20649C18.7654 8.51728 18.8355 8.69801 18.8542 8.84416L20.3421 8.6545C20.2742 8.12131 20.0198 7.68366 19.6854 7.26724C19.3604 6.86265 18.9022 6.41011 18.3524 5.86516L17.2965 6.93054ZM19 8.25H10V9.75H19V8.25ZM10 19.75H18V18.25H10V19.75ZM4.25 14C4.25 17.1756 6.82436 19.75 10 19.75V18.25C7.65279 18.25 5.75 16.3472 5.75 14H4.25ZM10 8.25C6.82436 8.25 4.25 10.8244 4.25 14H5.75C5.75 11.6528 7.65279 9.75 10 9.75V8.25ZM20.3421 9.34549C20.3568 9.23079 20.3641 9.1154 20.3641 9L18.8641 9C18.8641 9.05205 18.8608 9.10409 18.8542 9.15584L20.3421 9.34549ZM20.3641 9C20.3641 8.88461 20.3568 8.76921 20.3421 8.65451L18.8542 8.84416C18.8608 8.89591 18.8641 8.94795 18.8641 9L20.3641 9ZM19 9.75H19.6141V8.25H19V9.75Z" fill="#FAFAFA"/>
</svg>
