<svg width="24" height="24" viewBox="0 0 24 24" fill="none" xmlns="http://www.w3.org/2000/svg">
<path d="M1.25 12C1.25 12.4142 1.58579 12.75 2 12.75C2.41421 12.75 2.75 12.4142 2.75 12H1.25ZM22.75 12C22.75 11.5858 22.4142 11.25 22 11.25C21.5858 11.25 21.25 11.5858 21.25 12H22.75ZM4.97015 18.0122C4.70077 17.6976 4.22731 17.6609 3.91266 17.9303C3.598 18.1996 3.5613 18.6731 3.83068 18.9878L4.97015 18.0122ZM19.0299 5.98776C19.2992 6.30241 19.7727 6.33911 20.0873 6.06973C20.402 5.80035 20.4387 5.3269 20.1693 5.01224L19.0299 5.98776ZM21.406 0.996654C21.4042 0.582444 21.0669 0.248159 20.6527 0.250007C20.2385 0.251856 19.9042 0.589137 19.906 1.00335L21.406 0.996654ZM20.6649 2.98571L21.4149 2.98237V2.98237L20.6649 2.98571ZM16.9849 6.66571L16.9815 7.41571L16.9849 6.66571ZM15.0025 5.90686C14.5883 5.90501 14.251 6.2393 14.2492 6.65351C14.2473 7.06772 14.5816 7.405 14.9958 7.40685L15.0025 5.90686ZM20.2563 5.90267L20.8494 6.36169V6.36169L20.2563 5.90267ZM19.9018 6.25717L20.3608 6.85029L20.3608 6.85029L19.9018 6.25717ZM2.51185 22.9229C2.5137 23.3371 2.85098 23.6714 3.26519 23.6696C3.6794 23.6677 4.01368 23.3305 4.01184 22.9162L2.51185 22.9229ZM3.25298 20.9339L2.50299 20.9372L3.25298 20.9339ZM6.93298 17.2539L6.93633 16.5039H6.93633L6.93298 17.2539ZM8.91535 18.0127C9.32956 18.0146 9.66684 17.6803 9.66869 17.2661C9.67054 16.8519 9.33625 16.5146 8.92204 16.5127L8.91535 18.0127ZM3.66153 18.0169L3.06841 17.5579L3.0684 17.5579L3.66153 18.0169ZM4.01603 17.6624L3.55701 17.0693H3.55701L4.01603 17.6624ZM12 1.25C6.06294 1.25 1.25 6.06294 1.25 12H2.75C2.75 6.89137 6.89137 2.75 12 2.75V1.25ZM12 22.75C17.9371 22.75 22.75 17.9371 22.75 12H21.25C21.25 17.1086 17.1086 21.25 12 21.25V22.75ZM3.83068 18.9878C5.80117 21.2894 8.73042 22.75 12 22.75V21.25C9.18698 21.25 6.66782 19.9952 4.97015 18.0122L3.83068 18.9878ZM20.1693 5.01224C18.1988 2.71058 15.2696 1.25 12 1.25V2.75C14.813 2.75 17.3322 4.00476 19.0299 5.98776L20.1693 5.01224ZM19.906 1.00335L19.9149 2.98906L21.4149 2.98237L21.406 0.996654L19.906 1.00335ZM16.9882 5.91572L15.0025 5.90686L14.9958 7.40685L16.9815 7.41571L16.9882 5.91572ZM19.9149 2.98906C19.9185 3.79848 19.9198 4.34217 19.8749 4.75351C19.8316 5.14976 19.7534 5.32713 19.6632 5.44365L20.8494 6.36169C21.1784 5.93661 21.308 5.44728 21.366 4.91635C21.4223 4.4005 21.4183 3.75651 21.4149 2.98237L19.9149 2.98906ZM16.9815 7.41571C17.7557 7.41916 18.3997 7.42317 18.9155 7.36684C19.4464 7.30886 19.9358 7.17926 20.3608 6.85029L19.4428 5.66404C19.3263 5.75421 19.1489 5.83243 18.7527 5.8757C18.3413 5.92062 17.7976 5.91933 16.9882 5.91572L16.9815 7.41571ZM19.6632 5.44365C19.5993 5.52615 19.5253 5.60019 19.4428 5.66404L20.3608 6.85029C20.5437 6.70875 20.7079 6.54459 20.8494 6.36169L19.6632 5.44365ZM4.01184 22.9162L4.00298 20.9305L2.50299 20.9372L2.51185 22.9229L4.01184 22.9162ZM6.92964 18.0039L8.91535 18.0127L8.92204 16.5127L6.93633 16.5039L6.92964 18.0039ZM4.00298 20.9305C3.99937 20.1211 3.99808 19.5774 4.043 19.1661C4.08627 18.7698 4.16448 18.5925 4.25466 18.4759L3.0684 17.5579C2.73944 17.983 2.60984 18.4723 2.55186 19.0032C2.49553 19.5191 2.49954 20.1631 2.50299 20.9372L4.00298 20.9305ZM6.93633 16.5039C6.16219 16.5004 5.5182 16.4964 5.00235 16.5528C4.47142 16.6107 3.98209 16.7403 3.55701 17.0693L4.47505 18.2555C4.59157 18.1654 4.76894 18.0872 5.16519 18.0439C5.57653 17.999 6.12022 18.0003 6.92964 18.0039L6.93633 16.5039ZM4.25466 18.4759C4.31851 18.3934 4.39255 18.3194 4.47505 18.2555L3.55701 17.0693C3.37411 17.2108 3.20995 17.375 3.06841 17.5579L4.25466 18.4759Z" fill="#FAFAFA"/>
</svg>
