<svg width="24" height="24" viewBox="0 0 24 24" fill="none" xmlns="http://www.w3.org/2000/svg">
<path d="M2.75 12C2.75 11.5858 2.41421 11.25 2 11.25C1.58579 11.25 1.25 11.5858 1.25 12H2.75ZM21.25 12C21.25 12.4142 21.5858 12.75 22 12.75C22.4142 12.75 22.75 12.4142 22.75 12H21.25ZM4.40041 5.5L4.94041 6.02048L4.95576 6.00456L4.97015 5.98776L4.40041 5.5ZM19.5996 18.5L20.1693 18.9878L20.1786 18.9769L20.1874 18.9658L19.5996 18.5ZM4.01269 1.00335C4.01454 0.589137 3.68025 0.251855 3.26604 0.250007C2.85183 0.248159 2.51455 0.582444 2.5127 0.996654L4.01269 1.00335ZM3.25384 2.98571L2.50384 2.98237L3.25384 2.98571ZM6.93384 6.66571L6.93718 7.41571H6.93718L6.93384 6.66571ZM8.9229 7.40685C9.33711 7.405 9.67139 7.06772 9.66954 6.65351C9.66769 6.2393 9.33041 5.90501 8.9162 5.90686L8.9229 7.40685ZM3.66238 5.90267L3.06926 6.36169L3.06926 6.36169L3.66238 5.90267ZM4.01688 6.25717L3.55786 6.85029L3.55786 6.85029L4.01688 6.25717ZM19.9069 22.9162C19.905 23.3305 20.2393 23.6677 20.6535 23.6696C21.0677 23.6714 21.405 23.3371 21.4069 22.9229L19.9069 22.9162ZM20.6657 20.9339L21.4157 20.9372L20.6657 20.9339ZM16.9857 17.2539L16.9824 16.5039L16.9857 17.2539ZM14.9967 16.5127C14.5824 16.5146 14.2482 16.8519 14.25 17.2661C14.2519 17.6803 14.5891 18.0146 15.0034 18.0127L14.9967 16.5127ZM20.2572 18.0169L20.8503 17.5579V17.5579L20.2572 18.0169ZM19.9027 17.6624L20.3617 17.0693H20.3617L19.9027 17.6624ZM3.82952 6.0923L3.29962 6.62306L3.82952 6.0923ZM12 21.25C6.89137 21.25 2.75 17.1086 2.75 12H1.25C1.25 17.9371 6.06294 22.75 12 22.75V21.25ZM12 2.75C17.1086 2.75 21.25 6.89137 21.25 12H22.75C22.75 6.06294 17.9371 1.25 12 1.25V2.75ZM4.97015 5.98776C6.66782 4.00476 9.18698 2.75 12 2.75V1.25C8.73042 1.25 5.80117 2.71058 3.83068 5.01224L4.97015 5.98776ZM19.0299 18.0122C17.3322 19.9952 14.813 21.25 12 21.25V22.75C15.2696 22.75 18.1988 21.2894 20.1693 18.9878L19.0299 18.0122ZM2.5127 0.996654L2.50384 2.98237L4.00383 2.98906L4.01269 1.00335L2.5127 0.996654ZM6.93718 7.41571L8.9229 7.40685L8.9162 5.90686L6.93049 5.91572L6.93718 7.41571ZM2.50384 2.98237C2.50039 3.75651 2.49638 4.4005 2.55271 4.91635C2.61069 5.44728 2.74029 5.93661 3.06926 6.36169L4.25551 5.44365C4.16534 5.32713 4.08712 5.14976 4.04385 4.75351C3.99893 4.34217 4.00022 3.79848 4.00383 2.98906L2.50384 2.98237ZM6.93049 5.91572C6.12107 5.91933 5.57739 5.92062 5.16604 5.8757C4.76979 5.83243 4.59242 5.75421 4.4759 5.66404L3.55786 6.85029C3.98294 7.17926 4.47227 7.30886 5.0032 7.36684C5.51905 7.42317 6.16304 7.41916 6.93718 7.41571L6.93049 5.91572ZM21.4069 22.9229L21.4157 20.9372L19.9157 20.9305L19.9069 22.9162L21.4069 22.9229ZM16.9824 16.5039L14.9967 16.5127L15.0034 18.0127L16.9891 18.0039L16.9824 16.5039ZM21.4157 20.9372C21.4192 20.1631 21.4232 19.5191 21.3668 19.0032C21.3089 18.4723 21.1793 17.983 20.8503 17.5579L19.664 18.4759C19.7542 18.5925 19.8324 18.7698 19.8757 19.1661C19.9206 19.5774 19.9193 20.1211 19.9157 20.9305L21.4157 20.9372ZM16.9891 18.0039C17.7985 18.0003 18.3422 17.999 18.7535 18.0439C19.1498 18.0872 19.3271 18.1654 19.4437 18.2555L20.3617 17.0693C19.9366 16.7403 19.4473 16.6107 18.9164 16.5528C18.4005 16.4964 17.7565 16.5004 16.9824 16.5039L16.9891 18.0039ZM3.06926 6.36169C3.14048 6.45372 3.21743 6.54101 3.29962 6.62306L4.35942 5.56154C4.32235 5.52454 4.28764 5.48517 4.25551 5.44365L3.06926 6.36169ZM3.29962 6.62306C3.38076 6.70408 3.467 6.77998 3.55786 6.85029L4.4759 5.66404C4.43491 5.63231 4.39601 5.59808 4.35942 5.56154L3.29962 6.62306ZM3.86042 4.97952L3.28952 5.57182L4.36952 6.61279L4.94041 6.02048L3.86042 4.97952ZM20.8503 17.5579C20.7885 17.4781 20.7225 17.4019 20.6524 17.3295L19.5748 18.3729C19.6064 18.4056 19.6362 18.4399 19.664 18.4759L20.8503 17.5579ZM20.6524 17.3295C20.5619 17.2361 20.4648 17.1491 20.3617 17.0693L19.4437 18.2555C19.4902 18.2915 19.534 18.3308 19.5748 18.3729L20.6524 17.3295ZM20.1874 18.9658L20.7015 18.317L19.5258 17.3855L19.0117 18.0342L20.1874 18.9658Z" fill="#FAFAFA"/>
</svg>
