<svg width="24" height="24" viewBox="0 0 24 24" fill="none" xmlns="http://www.w3.org/2000/svg">
<path d="M8 11.25C7.58579 11.25 7.25 11.5858 7.25 12C7.25 12.4142 7.58579 12.75 8 12.75V11.25ZM15.2 12V11.25V12ZM13.328 7.46731C13.0338 7.17572 12.5589 7.17784 12.2673 7.47204C11.9757 7.76624 11.9778 8.24111 12.272 8.53269L13.328 7.46731ZM14.2104 9.39785L13.6824 9.93054L14.2104 9.39785ZM14.2104 14.6022L13.6824 14.0695L14.2104 14.6022ZM12.272 15.4673C11.9778 15.7589 11.9757 16.2338 12.2673 16.528C12.5589 16.8222 13.0338 16.8243 13.328 16.5327L12.272 15.4673ZM15.9841 11.7493L16.7281 11.6545L16.7281 11.6545L15.9841 11.7493ZM15.9841 12.2507L16.7281 12.3455L16.7281 12.3455L15.9841 12.2507ZM16 12H16.75H16ZM21.25 12C21.25 17.1086 17.1086 21.25 12 21.25V22.75C17.9371 22.75 22.75 17.9371 22.75 12H21.25ZM12 21.25C6.89137 21.25 2.75 17.1086 2.75 12H1.25C1.25 17.9371 6.06294 22.75 12 22.75V21.25ZM2.75 12C2.75 6.89137 6.89137 2.75 12 2.75V1.25C6.06294 1.25 1.25 6.06294 1.25 12H2.75ZM12 2.75C17.1086 2.75 21.25 6.89137 21.25 12H22.75C22.75 6.06294 17.9371 1.25 12 1.25V2.75ZM8 12.75L15.2 12.75V11.25L8 11.25V12.75ZM12.272 8.53269L13.6824 9.93054L14.7383 8.86515L13.328 7.46731L12.272 8.53269ZM13.6824 14.0695L12.272 15.4673L13.328 16.5327L14.7383 15.1348L13.6824 14.0695ZM13.6824 9.93054C14.2573 10.5003 14.6427 10.8839 14.9018 11.2065C15.1514 11.5173 15.2215 11.698 15.2401 11.8442L16.7281 11.6545C16.6601 11.1213 16.4057 10.6837 16.0713 10.2672C15.7464 9.86265 15.2882 9.41012 14.7383 8.86515L13.6824 9.93054ZM14.7383 15.1348C15.2882 14.5899 15.7464 14.1373 16.0713 13.7328C16.4057 13.3163 16.6601 12.8787 16.7281 12.3455L15.2401 12.1558C15.2215 12.302 15.1514 12.4827 14.9018 12.7935C14.6427 13.1161 14.2573 13.4997 13.6824 14.0695L14.7383 15.1348ZM15.2401 11.8442C15.2467 11.8959 15.25 11.948 15.25 12H16.75C16.75 11.8846 16.7427 11.7692 16.7281 11.6545L15.2401 11.8442ZM15.25 12C15.25 12.052 15.2467 12.1041 15.2401 12.1558L16.7281 12.3455C16.7427 12.2308 16.75 12.1154 16.75 12H15.25ZM15.2 12.75H16V11.25H15.2V12.75Z" fill="#FAFAFA"/>
</svg>
