<svg width="24" height="24" viewBox="0 0 24 24" fill="none" xmlns="http://www.w3.org/2000/svg">
<path d="M3 11.25C2.58579 11.25 2.25 11.5858 2.25 12C2.25 12.4143 2.58579 12.75 3 12.75L3 11.25ZM14 12.75C14.4142 12.75 14.75 12.4143 14.75 12C14.75 11.5858 14.4142 11.25 14 11.25V12.75ZM14 9.1354H13.25H14ZM17.22 7.55059L17.6775 6.95628V6.95628L17.22 7.55059ZM17.22 16.4495L17.6775 17.0438L17.22 16.4495ZM14 14.8647H14.75H14ZM20.9413 13.5849L20.4838 12.9905L20.9413 13.5849ZM20.9413 10.4152L20.4838 11.0095L20.9413 10.4152ZM3 12.75L14 12.75V11.25L3 11.25L3 12.75ZM20.4838 12.9905L16.7625 15.8552L17.6775 17.0438L21.3988 14.1792L20.4838 12.9905ZM14.75 14.8647V9.1354H13.25V14.8647H14.75ZM16.7625 8.14489L20.4838 11.0095L21.3988 9.82093L17.6775 6.95628L16.7625 8.14489ZM14.75 9.1354C14.75 8.0981 15.9405 7.51214 16.7625 8.14489L17.6775 6.95628C15.8692 5.56424 13.25 6.85334 13.25 9.1354H14.75ZM16.7625 15.8552C15.9405 16.4879 14.75 15.902 14.75 14.8647H13.25C13.25 17.1467 15.8692 18.4358 17.6775 17.0438L16.7625 15.8552ZM21.3988 14.1792C22.8288 13.0783 22.8288 10.9218 21.3988 9.82093L20.4838 11.0095C21.1338 11.5099 21.1338 12.4902 20.4838 12.9905L21.3988 14.1792Z" fill="#FAFAFA"/>
</svg>
