<svg width="24" height="24" viewBox="0 0 24 24" fill="none" xmlns="http://www.w3.org/2000/svg">
<path d="M5.06107 20.0451L5.50191 19.4383L5.06107 20.0451ZM3.95491 18.9389L4.56168 18.4981L3.95491 18.9389ZM20.0451 18.9389L19.4383 18.4981L20.0451 18.9389ZM18.9389 20.0451L18.4981 19.4383L18.9389 20.0451ZM18.9389 3.95491L18.4981 4.56168L18.9389 3.95491ZM20.0451 5.06107L19.4383 5.50191L20.0451 5.06107ZM5.06107 3.95491L5.50191 4.56168L5.06107 3.95491ZM3.95491 5.06107L4.56168 5.50191L3.95491 5.06107ZM8 11.25C7.58579 11.25 7.25 11.5858 7.25 12C7.25 12.4142 7.58579 12.75 8 12.75V11.25ZM15.2 12V11.25V12ZM13.328 7.46731C13.0338 7.17572 12.5589 7.17784 12.2673 7.47204C11.9757 7.76624 11.9778 8.24111 12.272 8.53269L13.328 7.46731ZM14.2104 9.39785L13.6824 9.93054L14.2104 9.39785ZM14.2104 14.6022L13.6824 14.0695L14.2104 14.6022ZM12.272 15.4673C11.9778 15.7589 11.9757 16.2338 12.2673 16.528C12.5589 16.8222 13.0338 16.8243 13.328 16.5327L12.272 15.4673ZM15.9841 11.7493L16.7281 11.6545L16.7281 11.6545L15.9841 11.7493ZM15.9841 12.2507L16.7281 12.3455L16.7281 12.3455L15.9841 12.2507ZM16 12H16.75H16ZM12 20.25C10.1084 20.25 8.74999 20.249 7.69804 20.135C6.66013 20.0225 6.00992 19.8074 5.50191 19.4383L4.62023 20.6518C5.42656 21.2377 6.37094 21.5 7.53648 21.6263C8.68798 21.751 10.1418 21.75 12 21.75V20.25ZM2.25 12C2.25 13.8582 2.24897 15.312 2.37373 16.4635C2.50001 17.6291 2.76232 18.5734 3.34815 19.3798L4.56168 18.4981C4.19259 17.9901 3.97745 17.3399 3.865 16.302C3.75103 15.25 3.75 13.8916 3.75 12H2.25ZM5.50191 19.4383C5.14111 19.1762 4.82382 18.8589 4.56168 18.4981L3.34815 19.3798C3.70281 19.8679 4.13209 20.2972 4.62023 20.6518L5.50191 19.4383ZM20.25 12C20.25 13.8916 20.249 15.25 20.135 16.302C20.0225 17.3399 19.8074 17.9901 19.4383 18.4981L20.6518 19.3798C21.2377 18.5734 21.5 17.6291 21.6263 16.4635C21.751 15.312 21.75 13.8582 21.75 12H20.25ZM12 21.75C13.8582 21.75 15.312 21.751 16.4635 21.6263C17.6291 21.5 18.5734 21.2377 19.3798 20.6518L18.4981 19.4383C17.9901 19.8074 17.3399 20.0225 16.302 20.135C15.25 20.249 13.8916 20.25 12 20.25V21.75ZM19.4383 18.4981C19.1762 18.8589 18.8589 19.1762 18.4981 19.4383L19.3798 20.6518C19.8679 20.2972 20.2972 19.8679 20.6518 19.3798L19.4383 18.4981ZM12 3.75C13.8916 3.75 15.25 3.75103 16.302 3.865C17.3399 3.97745 17.9901 4.19259 18.4981 4.56168L19.3798 3.34815C18.5734 2.76232 17.6291 2.50001 16.4635 2.37373C15.312 2.24897 13.8582 2.25 12 2.25V3.75ZM21.75 12C21.75 10.1418 21.751 8.68798 21.6263 7.53648C21.5 6.37094 21.2377 5.42656 20.6518 4.62023L19.4383 5.50191C19.8074 6.00992 20.0225 6.66013 20.135 7.69804C20.249 8.74999 20.25 10.1084 20.25 12H21.75ZM18.4981 4.56168C18.8589 4.82382 19.1762 5.14111 19.4383 5.50191L20.6518 4.62023C20.2972 4.13209 19.8679 3.70281 19.3798 3.34815L18.4981 4.56168ZM12 2.25C10.1418 2.25 8.68798 2.24897 7.53648 2.37373C6.37094 2.50001 5.42656 2.76232 4.62023 3.34815L5.50191 4.56168C6.00992 4.19259 6.66013 3.97745 7.69804 3.865C8.74999 3.75103 10.1084 3.75 12 3.75V2.25ZM3.75 12C3.75 10.1084 3.75103 8.74999 3.865 7.69804C3.97745 6.66013 4.19259 6.00992 4.56168 5.50191L3.34815 4.62023C2.76232 5.42656 2.50001 6.37094 2.37373 7.53648C2.24897 8.68798 2.25 10.1418 2.25 12H3.75ZM4.62023 3.34815C4.13209 3.70281 3.70281 4.13209 3.34815 4.62023L4.56168 5.50191C4.82382 5.14111 5.14111 4.82382 5.50191 4.56168L4.62023 3.34815ZM8 12.75L15.2 12.75V11.25L8 11.25V12.75ZM12.272 8.53269L13.6824 9.93054L14.7383 8.86515L13.328 7.46731L12.272 8.53269ZM13.6824 14.0695L12.272 15.4673L13.328 16.5327L14.7383 15.1348L13.6824 14.0695ZM13.6824 9.93054C14.2573 10.5003 14.6427 10.8839 14.9018 11.2065C15.1514 11.5173 15.2215 11.698 15.2401 11.8442L16.7281 11.6545C16.6601 11.1213 16.4057 10.6837 16.0713 10.2672C15.7464 9.86265 15.2882 9.41012 14.7383 8.86515L13.6824 9.93054ZM14.7383 15.1348C15.2882 14.5899 15.7464 14.1373 16.0713 13.7328C16.4057 13.3163 16.6601 12.8787 16.7281 12.3455L15.2401 12.1558C15.2215 12.302 15.1514 12.4827 14.9018 12.7935C14.6427 13.1161 14.2573 13.4997 13.6824 14.0695L14.7383 15.1348ZM15.2401 11.8442C15.2467 11.8959 15.25 11.948 15.25 12H16.75C16.75 11.8846 16.7427 11.7692 16.7281 11.6545L15.2401 11.8442ZM15.25 12C15.25 12.052 15.2467 12.1041 15.2401 12.1558L16.7281 12.3455C16.7427 12.2308 16.75 12.1154 16.75 12H15.25ZM15.2 12.75H16V11.25H15.2V12.75Z" fill="#FAFAFA"/>
</svg>
