<svg width="24" height="24" viewBox="0 0 24 24" fill="none" xmlns="http://www.w3.org/2000/svg">
<path d="M2.75 12C2.75 11.5858 2.41421 11.25 2 11.25C1.58579 11.25 1.25 11.5858 1.25 12H2.75ZM5.99903 4L6.44953 4.59962L5.99903 4ZM4 5.99903L4.55483 6.50367L4.57849 6.47765L4.59962 6.44953L4 5.99903ZM4.01269 1.00335C4.01454 0.589137 3.68025 0.251855 3.26604 0.250007C2.85183 0.248159 2.51455 0.582444 2.5127 0.996654L4.01269 1.00335ZM3.25384 2.98571L2.50384 2.98237L3.25384 2.98571ZM6.93384 6.66571L6.93718 7.41571H6.93718L6.93384 6.66571ZM8.9229 7.40685C9.33711 7.405 9.67139 7.06772 9.66954 6.65351C9.66769 6.2393 9.33041 5.90501 8.9162 5.90686L8.9229 7.40685ZM3.66238 5.90267L3.06926 6.36169L3.06926 6.36169L3.66238 5.90267ZM4.01688 6.25717L3.55786 6.85029L3.55786 6.85029L4.01688 6.25717ZM1.25 12C1.25 17.9371 6.06294 22.75 12 22.75V21.25C6.89137 21.25 2.75 17.1086 2.75 12H1.25ZM12 22.75C17.9371 22.75 22.75 17.9371 22.75 12H21.25C21.25 17.1086 17.1086 21.25 12 21.25V22.75ZM22.75 12C22.75 6.06294 17.9371 1.25 12 1.25V2.75C17.1086 2.75 21.25 6.89137 21.25 12H22.75ZM12 1.25C9.58034 1.25 7.34544 2.05032 5.54852 3.40038L6.44953 4.59962C7.99559 3.43804 9.91636 2.75 12 2.75V1.25ZM5.54852 3.40038C4.73519 4.01145 4.01145 4.73519 3.40038 5.54852L4.59962 6.44953C5.12582 5.74916 5.74916 5.12582 6.44953 4.59962L5.54852 3.40038ZM2.5127 0.996654L2.50384 2.98237L4.00383 2.98906L4.01269 1.00335L2.5127 0.996654ZM6.93718 7.41571L8.9229 7.40685L8.9162 5.90686L6.93049 5.91572L6.93718 7.41571ZM2.50384 2.98237C2.50039 3.75651 2.49638 4.4005 2.55271 4.91635C2.61069 5.44728 2.74029 5.93661 3.06926 6.36169L4.25551 5.44365C4.16534 5.32713 4.08712 5.14976 4.04385 4.75351C3.99893 4.34217 4.00022 3.79848 4.00383 2.98906L2.50384 2.98237ZM6.93049 5.91572C6.12107 5.91933 5.57739 5.92062 5.16604 5.8757C4.76979 5.83243 4.59242 5.75421 4.4759 5.66404L3.55786 6.85029C3.98294 7.17926 4.47227 7.30886 5.0032 7.36684C5.51905 7.42317 6.16304 7.41916 6.93718 7.41571L6.93049 5.91572ZM3.06926 6.36169C3.15834 6.4768 3.25638 6.58449 3.36242 6.68379L4.38774 5.58893C4.33992 5.54415 4.2957 5.49558 4.25551 5.44365L3.06926 6.36169ZM3.36242 6.68379C3.42487 6.74227 3.49008 6.79784 3.55786 6.85029L4.4759 5.66404C4.44532 5.64037 4.4159 5.61531 4.38774 5.58893L3.36242 6.68379ZM3.44517 5.49438L3.32025 5.63172L4.42991 6.64101L4.55483 6.50367L3.44517 5.49438Z" fill="#FAFAFA"/>
</svg>
