<svg width="24" height="24" viewBox="0 0 24 24" fill="none" xmlns="http://www.w3.org/2000/svg">
<path d="M22.75 12C22.75 11.5858 22.4142 11.25 22 11.25C21.5858 11.25 21.25 11.5858 21.25 12H22.75ZM18.001 4L17.5505 4.59962L18.001 4ZM20 5.99903L19.4004 6.44953L19.431 6.49029L19.4669 6.52653L20 5.99903ZM21.4069 0.996654C21.405 0.582444 21.0677 0.248159 20.6535 0.250007C20.2393 0.251856 19.905 0.589137 19.9069 1.00335L21.4069 0.996654ZM20.6657 2.98571L21.4157 2.98237V2.98237L20.6657 2.98571ZM16.9857 6.66571L16.9824 7.41571L16.9857 6.66571ZM15.0034 5.90686C14.5891 5.90501 14.2519 6.2393 14.25 6.65351C14.2482 7.06772 14.5824 7.405 14.9967 7.40685L15.0034 5.90686ZM20.2572 5.90267L20.8503 6.36169V6.36169L20.2572 5.90267ZM19.9027 6.25717L20.3617 6.85029L20.3617 6.85029L19.9027 6.25717ZM20.0912 6.09117L20.6215 6.6215L20.0912 6.09117ZM21.25 12C21.25 17.1086 17.1086 21.25 12 21.25V22.75C17.9371 22.75 22.75 17.9371 22.75 12H21.25ZM12 21.25C6.89137 21.25 2.75 17.1086 2.75 12H1.25C1.25 17.9371 6.06294 22.75 12 22.75V21.25ZM2.75 12C2.75 6.89137 6.89137 2.75 12 2.75V1.25C6.06294 1.25 1.25 6.06294 1.25 12H2.75ZM12 2.75C14.0836 2.75 16.0044 3.43804 17.5505 4.59962L18.4515 3.40038C16.6546 2.05032 14.4197 1.25 12 1.25V2.75ZM17.5505 4.59962C18.2508 5.12582 18.8742 5.74916 19.4004 6.44953L20.5996 5.54852C19.9886 4.73519 19.2648 4.01145 18.4515 3.40038L17.5505 4.59962ZM19.9069 1.00335L19.9157 2.98906L21.4157 2.98237L21.4069 0.996654L19.9069 1.00335ZM16.9891 5.91572L15.0034 5.90686L14.9967 7.40685L16.9824 7.41571L16.9891 5.91572ZM19.9157 2.98906C19.9193 3.79848 19.9206 4.34217 19.8757 4.75351C19.8324 5.14976 19.7542 5.32713 19.664 5.44365L20.8503 6.36169C21.1793 5.93661 21.3089 5.44728 21.3668 4.91635C21.4232 4.4005 21.4192 3.75651 21.4157 2.98237L19.9157 2.98906ZM16.9824 7.41571C17.7565 7.41916 18.4005 7.42317 18.9164 7.36684C19.4473 7.30886 19.9366 7.17926 20.3617 6.85029L19.4437 5.66404C19.3271 5.75421 19.1498 5.83243 18.7535 5.8757C18.3422 5.92062 17.7985 5.91933 16.9891 5.91572L16.9824 7.41571ZM19.664 5.44365C19.6321 5.4849 19.5976 5.52404 19.5608 5.56084L20.6215 6.6215C20.7031 6.5399 20.7795 6.45314 20.8503 6.36169L19.664 5.44365ZM19.5608 5.56084C19.524 5.59764 19.4849 5.63211 19.4437 5.66404L20.3617 6.85029C20.4531 6.77952 20.5399 6.7031 20.6215 6.6215L19.5608 5.56084ZM19.4669 6.52653L19.558 6.61867L20.6243 5.56367L20.5331 5.47152L19.4669 6.52653Z" fill="#FAFAFA"/>
</svg>
