<svg width="24" height="24" viewBox="0 0 24 24" fill="none" xmlns="http://www.w3.org/2000/svg">
<path d="M7.75 5C7.75 4.58579 7.41421 4.25 7 4.25C6.58578 4.25 6.25 4.58579 6.25 5H7.75ZM7 18H7.75H7ZM3.58768 14.534C3.33034 14.2095 2.8586 14.155 2.53403 14.4123C2.20946 14.6697 2.15497 15.1414 2.41232 15.466L3.58768 14.534ZM4.39785 16.763L3.81016 17.2289L4.39785 16.763ZM9.60215 16.763L9.01447 16.297L9.60215 16.763ZM11.5877 15.466C11.845 15.1414 11.7905 14.6697 11.466 14.4123C11.1414 14.155 10.6697 14.2095 10.4123 14.534L11.5877 15.466ZM6.74933 18.9801L6.63133 19.7208L6.63133 19.7208L6.74933 18.9801ZM7.25067 18.9801L7.36867 19.7208L7.36867 19.7208L7.25067 18.9801ZM16.25 18C16.25 18.4142 16.5858 18.75 17 18.75C17.4142 18.75 17.75 18.4142 17.75 18H16.25ZM17 5H16.25H17ZM12.4123 7.53403C12.155 7.8586 12.2095 8.33034 12.534 8.58768C12.8586 8.84503 13.3303 8.79054 13.5877 8.46597L12.4123 7.53403ZM14.3978 6.23703L13.8102 5.77106L14.3978 6.23703ZM19.6022 6.23703L20.1898 5.77106L19.6022 6.23703ZM20.4123 8.46597C20.6697 8.79054 21.1414 8.84503 21.466 8.58768C21.7905 8.33034 21.845 7.8586 21.5877 7.53403L20.4123 8.46597ZM16.7493 4.01989L16.6313 3.27923L16.6313 3.27923L16.7493 4.01989ZM17.2507 4.01989L17.3687 3.27923L17.3687 3.27923L17.2507 4.01989ZM6.25 5L6.25 18H7.75L7.75 5H6.25ZM2.41232 15.466L3.81016 17.2289L4.98553 16.297L3.58768 14.534L2.41232 15.466ZM10.1898 17.2289L11.5877 15.466L10.4123 14.534L9.01447 16.297L10.1898 17.2289ZM3.81016 17.2289C4.35616 17.9176 4.80475 18.4852 5.20551 18.8875C5.60963 19.2932 6.05816 19.6294 6.63133 19.7208L6.86734 18.2395C6.76116 18.2225 6.59132 18.1532 6.26822 17.8289C5.94177 17.5012 5.55429 17.0143 4.98553 16.297L3.81016 17.2289ZM9.01447 16.297C8.44571 17.0143 8.05823 17.5012 7.73178 17.8289C7.40868 18.1532 7.23884 18.2225 7.13266 18.2395L7.36867 19.7208C7.94184 19.6294 8.39038 19.2932 8.79449 18.8875C9.19525 18.4852 9.64384 17.9175 10.1898 17.2289L9.01447 16.297ZM17.75 18L17.75 5H16.25L16.25 18H17.75ZM13.5877 8.46597L14.9855 6.703L13.8102 5.77106L12.4123 7.53403L13.5877 8.46597ZM19.0145 6.703L20.4123 8.46597L21.5877 7.53403L20.1898 5.77106L19.0145 6.703ZM14.9855 6.703C15.5543 5.98568 15.9418 5.49884 16.2682 5.17113C16.5913 4.84678 16.7612 4.77747 16.8673 4.76055L16.6313 3.27923C16.0582 3.37055 15.6096 3.70685 15.2055 4.11252C14.8047 4.51484 14.3562 5.08245 13.8102 5.77106L14.9855 6.703ZM20.1898 5.77106C19.6438 5.08245 19.1953 4.51484 18.7945 4.11252C18.3904 3.70685 17.9418 3.37055 17.3687 3.27923L17.1327 4.76055C17.2388 4.77747 17.4087 4.84678 17.7318 5.17113C18.0582 5.49884 18.4457 5.98568 19.0145 6.703L20.1898 5.77106ZM16.8673 4.76055C16.9117 4.75348 16.9559 4.75 17 4.75V3.25C16.8766 3.25 16.7534 3.25978 16.6313 3.27923L16.8673 4.76055ZM17 4.75C17.0441 4.75 17.0883 4.75348 17.1327 4.76055L17.3687 3.27923C17.2466 3.25978 17.1234 3.25 17 3.25V4.75ZM17.75 5V4H16.25V5H17.75ZM6.63133 19.7208C6.75344 19.7402 6.87661 19.75 7 19.75L7 18.25C6.95594 18.25 6.91168 18.2465 6.86734 18.2395L6.63133 19.7208ZM7 19.75C7.12338 19.75 7.24656 19.7402 7.36867 19.7208L7.13266 18.2395C7.08832 18.2465 7.04406 18.25 7 18.25L7 19.75ZM6.25 18V19H7.75V18H6.25Z" fill="#FAFAFA"/>
</svg>
