<svg width="24" height="24" viewBox="0 0 24 24" fill="none" xmlns="http://www.w3.org/2000/svg">
<path d="M9.41667 7.6665C9.41667 7.25229 9.08088 6.9165 8.66667 6.9165C8.25245 6.9165 7.91667 7.25229 7.91667 7.6665H9.41667ZM8.66667 16.3332H9.41667H8.66667ZM6.58768 13.8672C6.33034 13.5426 5.8586 13.4881 5.53403 13.7455C5.20946 14.0028 5.15497 14.4746 5.41232 14.7991L6.58768 13.8672ZM6.9319 15.5085L7.51958 15.0425H7.51958L6.9319 15.5085ZM10.4014 15.5085L10.9891 15.9745L10.9891 15.9745L10.4014 15.5085ZM11.921 14.7991C12.1784 14.4746 12.1239 14.0028 11.7993 13.7455C11.4747 13.4881 11.003 13.5426 10.7457 13.8672L11.921 14.7991ZM8.49956 16.9866L8.38155 17.7272L8.38155 17.7272L8.49956 16.9866ZM8.83378 16.9866L8.71577 16.2459H8.71577L8.83378 16.9866ZM14.5834 16.3333C14.5834 16.7475 14.9192 17.0833 15.3334 17.0833C15.7476 17.0833 16.0834 16.7475 16.0834 16.3333H14.5834ZM12.0791 9.2007C11.8217 9.52527 11.8762 9.997 12.2008 10.2544C12.5253 10.5117 12.9971 10.4572 13.2544 10.1326L12.0791 9.2007ZM13.5986 8.49135L13.011 8.02538H13.011L13.5986 8.49135ZM17.0682 8.49135L17.6559 8.02538L17.0682 8.49135ZM17.4124 10.1326C17.6697 10.4572 18.1415 10.5117 18.4661 10.2544C18.7906 9.997 18.8451 9.52527 18.5878 9.2007L17.4124 10.1326ZM15.1663 7.01326L15.0483 6.2726L15.0483 6.2726L15.1663 7.01326ZM15.5005 7.01326L15.6185 6.2726L15.6185 6.2726L15.5005 7.01326ZM5.06107 20.0451L5.50191 19.4383L5.06107 20.0451ZM3.95491 18.9389L4.56168 18.4981L3.95491 18.9389ZM20.0451 18.9389L19.4383 18.4981L20.0451 18.9389ZM18.9389 20.0451L18.4981 19.4383L18.9389 20.0451ZM18.9389 3.95491L18.4981 4.56168L18.9389 3.95491ZM20.0451 5.06107L19.4383 5.50191L20.0451 5.06107ZM5.06107 3.95491L5.50191 4.56168L5.06107 3.95491ZM3.95491 5.06107L4.56168 5.50191L3.95491 5.06107ZM8.66667 16.9998L8.66667 17.7498L8.66667 16.9998ZM7.91667 7.6665L7.91667 16.3332H9.41667L9.41667 7.6665H7.91667ZM5.41232 14.7991L6.34421 15.9745L7.51958 15.0425L6.58768 13.8672L5.41232 14.7991ZM10.9891 15.9745L11.921 14.7991L10.7457 13.8672L9.81375 15.0425L10.9891 15.9745ZM6.34421 15.9745C6.70442 16.4287 7.01366 16.8206 7.29323 17.1013C7.57613 17.3853 7.92161 17.654 8.38155 17.7272L8.61756 16.2459C8.61624 16.2457 8.61306 16.2451 8.60646 16.2426C8.59938 16.2398 8.58591 16.2337 8.5651 16.2207C8.52076 16.193 8.45384 16.1409 8.35593 16.0426C8.15068 15.8366 7.90255 15.5255 7.51958 15.0425L6.34421 15.9745ZM9.81375 15.0425C9.43079 15.5255 9.18265 15.8366 8.97741 16.0426C8.8795 16.1409 8.81257 16.193 8.76823 16.2207C8.74743 16.2337 8.73395 16.2398 8.72688 16.2426C8.72028 16.2451 8.71709 16.2457 8.71577 16.2459L8.95179 17.7272C9.41173 17.654 9.7572 17.3853 10.0401 17.1013C10.3197 16.8206 10.6289 16.4287 10.9891 15.9745L9.81375 15.0425ZM16.0834 16.3333V7.66667H14.5834V16.3333H16.0834ZM13.2544 10.1326L14.1863 8.95732L13.011 8.02538L12.0791 9.2007L13.2544 10.1326ZM16.4805 8.95732L17.4124 10.1326L18.5878 9.2007L17.6559 8.02538L16.4805 8.95732ZM14.1863 8.95732C14.5693 8.47433 14.8174 8.16323 15.0227 7.95719C15.1206 7.8589 15.1875 7.8068 15.2319 7.77913C15.2527 7.76614 15.2661 7.76005 15.2732 7.75728C15.2798 7.75469 15.283 7.75413 15.2843 7.75392L15.0483 6.2726C14.5884 6.34588 14.2429 6.61458 13.96 6.89858C13.6804 7.17922 13.3712 7.5711 13.011 8.02538L14.1863 8.95732ZM17.6559 8.02538C17.2957 7.5711 16.9864 7.17922 16.7069 6.89858C16.424 6.61458 16.0785 6.34588 15.6185 6.2726L15.3825 7.75392C15.3838 7.75413 15.387 7.75469 15.3936 7.75728C15.4007 7.76005 15.4142 7.76614 15.435 7.77913C15.4793 7.8068 15.5462 7.8589 15.6442 7.95719C15.8494 8.16323 16.0975 8.47432 16.4805 8.95732L17.6559 8.02538ZM12 20.25C10.1084 20.25 8.74999 20.249 7.69804 20.135C6.66013 20.0225 6.00992 19.8074 5.50191 19.4383L4.62023 20.6518C5.42656 21.2377 6.37094 21.5 7.53648 21.6263C8.68798 21.751 10.1418 21.75 12 21.75V20.25ZM2.25 12C2.25 13.8582 2.24897 15.312 2.37373 16.4635C2.50001 17.6291 2.76232 18.5734 3.34815 19.3798L4.56168 18.4981C4.19259 17.9901 3.97745 17.3399 3.865 16.302C3.75103 15.25 3.75 13.8916 3.75 12H2.25ZM5.50191 19.4383C5.14111 19.1762 4.82382 18.8589 4.56168 18.4981L3.34815 19.3798C3.70281 19.8679 4.13209 20.2972 4.62023 20.6518L5.50191 19.4383ZM20.25 12C20.25 13.8916 20.249 15.25 20.135 16.302C20.0225 17.3399 19.8074 17.9901 19.4383 18.4981L20.6518 19.3798C21.2377 18.5734 21.5 17.6291 21.6263 16.4635C21.751 15.312 21.75 13.8582 21.75 12H20.25ZM12 21.75C13.8582 21.75 15.312 21.751 16.4635 21.6263C17.6291 21.5 18.5734 21.2377 19.3798 20.6518L18.4981 19.4383C17.9901 19.8074 17.3399 20.0225 16.302 20.135C15.25 20.249 13.8916 20.25 12 20.25V21.75ZM19.4383 18.4981C19.1762 18.8589 18.8589 19.1762 18.4981 19.4383L19.3798 20.6518C19.8679 20.2972 20.2972 19.8679 20.6518 19.3798L19.4383 18.4981ZM12 3.75C13.8916 3.75 15.25 3.75103 16.302 3.865C17.3399 3.97745 17.9901 4.19259 18.4981 4.56168L19.3798 3.34815C18.5734 2.76232 17.6291 2.50001 16.4635 2.37373C15.312 2.24897 13.8582 2.25 12 2.25V3.75ZM21.75 12C21.75 10.1418 21.751 8.68798 21.6263 7.53648C21.5 6.37094 21.2377 5.42656 20.6518 4.62023L19.4383 5.50191C19.8074 6.00992 20.0225 6.66013 20.135 7.69804C20.249 8.74999 20.25 10.1084 20.25 12H21.75ZM18.4981 4.56168C18.8589 4.82382 19.1762 5.14111 19.4383 5.50191L20.6518 4.62023C20.2972 4.13209 19.8679 3.70281 19.3798 3.34815L18.4981 4.56168ZM12 2.25C10.1418 2.25 8.68798 2.24897 7.53648 2.37373C6.37094 2.50001 5.42656 2.76232 4.62023 3.34815L5.50191 4.56168C6.00992 4.19259 6.66013 3.97745 7.69804 3.865C8.74999 3.75103 10.1084 3.75 12 3.75V2.25ZM3.75 12C3.75 10.1084 3.75103 8.74999 3.865 7.69804C3.97745 6.66013 4.19259 6.00992 4.56168 5.50191L3.34815 4.62023C2.76232 5.42656 2.50001 6.37094 2.37373 7.53648C2.24897 8.68798 2.25 10.1418 2.25 12H3.75ZM4.62023 3.34815C4.13209 3.70281 3.70281 4.13209 3.34815 4.62023L4.56168 5.50191C4.82382 5.14111 5.14111 4.82382 5.50191 4.56168L4.62023 3.34815ZM15.2843 7.75392C15.3009 7.75127 15.3173 7.75 15.3334 7.75V6.25C15.2379 6.25 15.1427 6.25757 15.0483 6.2726L15.2843 7.75392ZM15.3334 7.75C15.3496 7.75 15.3659 7.75127 15.3825 7.75392L15.6185 6.2726C15.5242 6.25757 15.4289 6.25 15.3334 6.25V7.75ZM16.0834 7.66667V7H14.5834V7.66667H16.0834ZM8.38155 17.7272C8.47592 17.7423 8.57119 17.7498 8.66667 17.7498L8.66667 16.2498C8.65052 16.2498 8.63416 16.2486 8.61756 16.2459L8.38155 17.7272ZM8.66667 17.7498C8.76215 17.7498 8.85742 17.7423 8.95179 17.7272L8.71577 16.2459C8.69917 16.2486 8.68282 16.2498 8.66667 16.2498L8.66667 17.7498ZM7.91667 16.3332V16.9998H9.41667V16.3332H7.91667Z" fill="#FAFAFA"/>
</svg>
