<svg width="24" height="24" viewBox="0 0 24 24" fill="none" xmlns="http://www.w3.org/2000/svg">
<path d="M5.00005 9L5.00005 9.75H5.00005V9ZM6.00005 18.25C5.58584 18.25 5.25005 18.5858 5.25005 19C5.25005 19.4142 5.58584 19.75 6.00005 19.75V18.25ZM6.67204 13.5327C6.96624 13.8243 7.44111 13.8222 7.73269 13.528C8.02427 13.2338 8.02216 12.7589 7.72796 12.4673L6.67204 13.5327ZM5.78962 11.6022L5.26167 12.1348H5.26167L5.78962 11.6022ZM5.78962 6.39785L5.26167 5.86516L5.26167 5.86516L5.78962 6.39785ZM7.72796 5.53269C8.02216 5.24111 8.02427 4.76624 7.73269 4.47204C7.44111 4.17784 6.96624 4.17573 6.67204 4.46731L7.72796 5.53269ZM4.01591 9.25067L3.27193 9.34549L3.27193 9.3455L4.01591 9.25067ZM4.01591 8.74933L3.27193 8.6545L3.27193 8.65451L4.01591 8.74933ZM5.00005 9.75H14V8.25H5.00005V9.75ZM14 18.25H6.00005V19.75H14V18.25ZM18.25 14C18.25 16.3472 16.3473 18.25 14 18.25V19.75C17.1757 19.75 19.75 17.1756 19.75 14H18.25ZM14 9.75C16.3473 9.75 18.25 11.6528 18.25 14H19.75C19.75 10.8244 17.1757 8.25 14 8.25V9.75ZM7.72796 12.4673L6.31758 11.0695L5.26167 12.1348L6.67204 13.5327L7.72796 12.4673ZM6.31758 6.93054L7.72796 5.53269L6.67204 4.46731L5.26167 5.86516L6.31758 6.93054ZM6.31758 11.0695C5.74268 10.4997 5.35733 10.1161 5.09823 9.79351C4.84863 9.48272 4.77852 9.302 4.75989 9.15584L3.27193 9.3455C3.33989 9.87869 3.59427 10.3163 3.92869 10.7328C4.25361 11.1373 4.71182 11.5899 5.26167 12.1348L6.31758 11.0695ZM5.26167 5.86516C4.71182 6.41012 4.25362 6.86265 3.92869 7.26724C3.59427 7.68366 3.33989 8.12131 3.27193 8.6545L4.75989 8.84416C4.77852 8.698 4.84863 8.51728 5.09823 8.20649C5.35733 7.88386 5.74268 7.50033 6.31758 6.93054L5.26167 5.86516ZM4.75989 9.15584C4.7533 9.10409 4.75 9.05204 4.75 9H3.25C3.25 9.1154 3.25731 9.23079 3.27193 9.34549L4.75989 9.15584ZM4.75 9C4.75 8.94796 4.7533 8.89591 4.75989 8.84416L3.27193 8.65451C3.25731 8.76921 3.25 8.8846 3.25 9H4.75ZM5.00005 8.25L4 8.25L4 9.75L5.00005 9.75L5.00005 8.25Z" fill="#FAFAFA"/>
</svg>
