<svg width="24" height="24" viewBox="0 0 24 24" fill="none" xmlns="http://www.w3.org/2000/svg">
<path d="M11.25 20C11.25 20.4142 11.5858 20.75 12 20.75C12.4142 20.75 12.75 20.4142 12.75 20H11.25ZM12.75 4C12.75 3.58579 12.4142 3.25 12 3.25C11.5858 3.25 11.25 3.58579 11.25 4L12.75 4ZM6.46731 7.47204C6.17573 7.76624 6.17784 8.24111 6.47204 8.53269C6.76624 8.82427 7.24111 8.82216 7.53269 8.52796L6.46731 7.47204ZM8.74731 6.23703L8.21462 5.70907L8.74731 6.23703ZM15.2527 6.23703L14.72 6.76499L15.2527 6.23703ZM16.4673 8.52796C16.7589 8.82216 17.2338 8.82428 17.528 8.53269C17.8222 8.24111 17.8243 7.76624 17.5327 7.47204L16.4673 8.52796ZM11.6867 4.01989L11.5918 3.27591L11.5918 3.27591L11.6867 4.01989ZM12.3133 4.01989L12.4082 3.27591L12.4082 3.27591L12.3133 4.01989ZM12.75 20L12.75 4L11.25 4L11.25 20H12.75ZM7.53269 8.52796L9.28 6.76499L8.21462 5.70907L6.46731 7.47204L7.53269 8.52796ZM14.72 6.76499L16.4673 8.52796L17.5327 7.47204L15.7854 5.70907L14.72 6.76499ZM9.28 6.76499C9.98914 6.0495 10.4772 5.55869 10.8907 5.22659C11.2924 4.904 11.5504 4.79332 11.7815 4.76387L11.5918 3.27591C10.9737 3.35469 10.4588 3.64963 9.95146 4.05706C9.45597 4.45498 8.89892 5.01863 8.21462 5.70907L9.28 6.76499ZM15.7854 5.70907C15.1011 5.01863 14.544 4.45498 14.0485 4.05706C13.5412 3.64963 13.0263 3.3547 12.4082 3.27591L12.2185 4.76387C12.4496 4.79332 12.7076 4.904 13.1093 5.22659C13.5228 5.55869 14.0109 6.0495 14.72 6.76499L15.7854 5.70907ZM11.7815 4.76387C11.9266 4.74538 12.0734 4.74538 12.2185 4.76387L12.4082 3.27591C12.1371 3.24136 11.8629 3.24136 11.5918 3.27591L11.7815 4.76387Z" fill="#FAFAFA"/>
</svg>
