<svg width="24" height="24" viewBox="0 0 24 24" fill="none" xmlns="http://www.w3.org/2000/svg">
<path d="M11.25 22C11.25 22.4142 11.5858 22.75 12 22.75C12.4142 22.75 12.75 22.4142 12.75 22H11.25ZM12.75 11C12.75 10.5857 12.4142 10.25 12 10.25C11.5858 10.25 11.25 10.5857 11.25 11H12.75ZM9.13533 10.9999L9.13533 11.7499L9.13533 10.9999ZM7.55053 7.77992L6.95622 7.32242H6.95622L7.55053 7.77992ZM16.4494 7.77992L17.0437 7.32242L16.4494 7.77992ZM14.8646 10.9999V10.2499V10.9999ZM13.5848 4.05864L12.9905 4.51613L13.5848 4.05864ZM10.4152 4.05864L11.0095 4.51613L10.4152 4.05864ZM12.75 22L12.75 11H11.25L11.25 22H12.75ZM12.9905 4.51613L15.8551 8.23741L17.0437 7.32242L14.1791 3.60114L12.9905 4.51613ZM14.8646 10.2499L9.13533 10.2499L9.13533 11.7499L14.8646 11.7499V10.2499ZM8.14483 8.23741L11.0095 4.51613L9.82087 3.60114L6.95622 7.32242L8.14483 8.23741ZM9.13533 10.2499C8.09804 10.2499 7.51208 9.05937 8.14483 8.23741L6.95622 7.32242C5.56418 9.13073 6.85328 11.7499 9.13533 11.7499L9.13533 10.2499ZM15.8551 8.23741C16.4879 9.05937 15.9019 10.2499 14.8646 10.2499V11.7499C17.1467 11.7499 18.4358 9.13074 17.0437 7.32242L15.8551 8.23741ZM14.1791 3.60114C13.0783 2.17112 10.9217 2.17112 9.82087 3.60114L11.0095 4.51613C11.5099 3.86612 12.4901 3.86612 12.9905 4.51613L14.1791 3.60114Z" fill="#FAFAFA"/>
</svg>
