<svg width="24" height="24" viewBox="0 0 24 24" fill="none" xmlns="http://www.w3.org/2000/svg">
<path d="M11.25 16C11.25 16.4142 11.5858 16.75 12 16.75C12.4142 16.75 12.75 16.4142 12.75 16H11.25ZM7.46731 10.672C7.17573 10.9662 7.17784 11.4411 7.47204 11.7327C7.76624 12.0243 8.24111 12.0222 8.53269 11.728L7.46731 10.672ZM9.39785 9.78962L9.93054 10.3176L9.39785 9.78962ZM14.6022 9.78962L15.1348 9.26167V9.26167L14.6022 9.78962ZM15.4673 11.728C15.7589 12.0222 16.2338 12.0243 16.528 11.7327C16.8222 11.4411 16.8243 10.9662 16.5327 10.672L15.4673 11.728ZM11.7493 8.01591L11.6545 7.27193H11.6545L11.7493 8.01591ZM12.2507 8.01591L12.3455 7.27193H12.3455L12.2507 8.01591ZM12.75 8.01591C12.75 7.6017 12.4142 7.26591 12 7.26591C11.5858 7.26591 11.25 7.6017 11.25 8.01591H12.75ZM21.25 12C21.25 17.1086 17.1086 21.25 12 21.25V22.75C17.9371 22.75 22.75 17.9371 22.75 12H21.25ZM12 21.25C6.89137 21.25 2.75 17.1086 2.75 12H1.25C1.25 17.9371 6.06294 22.75 12 22.75V21.25ZM2.75 12C2.75 6.89137 6.89137 2.75 12 2.75V1.25C6.06294 1.25 1.25 6.06294 1.25 12H2.75ZM12 2.75C17.1086 2.75 21.25 6.89137 21.25 12H22.75C22.75 6.06294 17.9371 1.25 12 1.25V2.75ZM12.75 16V8.8H11.25V16H12.75ZM8.53269 11.728L9.93054 10.3176L8.86516 9.26167L7.46731 10.672L8.53269 11.728ZM14.0695 10.3176L15.4673 11.728L16.5327 10.672L15.1348 9.26167L14.0695 10.3176ZM9.93054 10.3176C10.5003 9.74268 10.8839 9.35733 11.2065 9.09823C11.5173 8.84863 11.698 8.77852 11.8442 8.75989L11.6545 7.27193C11.1213 7.33989 10.6837 7.59426 10.2672 7.92869C9.86265 8.25361 9.41012 8.71182 8.86516 9.26167L9.93054 10.3176ZM15.1348 9.26167C14.5899 8.71182 14.1373 8.25362 13.7328 7.92869C13.3163 7.59427 12.8787 7.33989 12.3455 7.27193L12.1558 8.75989C12.302 8.77852 12.4827 8.84863 12.7935 9.09823C13.1161 9.35733 13.4997 9.74268 14.0695 10.3176L15.1348 9.26167ZM11.8442 8.75989C11.9476 8.7467 12.0524 8.7467 12.1558 8.75989L12.3455 7.27193C12.1161 7.24269 11.8839 7.24269 11.6545 7.27193L11.8442 8.75989ZM12.75 8.8V8.01591H11.25V8.8H12.75Z" fill="#FAFAFA"/>
</svg>
