<svg width="24" height="24" viewBox="0 0 24 24" fill="none" xmlns="http://www.w3.org/2000/svg">
<path d="M5.06107 20.0451L5.50191 19.4383L5.06107 20.0451ZM3.95491 18.9389L4.56168 18.4981L3.95491 18.9389ZM20.0451 18.9389L19.4383 18.4981L20.0451 18.9389ZM18.9389 20.0451L18.4981 19.4383L18.9389 20.0451ZM18.9389 3.95491L18.4981 4.56168L18.9389 3.95491ZM20.0451 5.06107L19.4383 5.50191L20.0451 5.06107ZM5.06107 3.95491L5.50191 4.56168L5.06107 3.95491ZM3.95491 5.06107L4.56168 5.50191L3.95491 5.06107ZM11.25 16C11.25 16.4142 11.5858 16.75 12 16.75C12.4142 16.75 12.75 16.4142 12.75 16H11.25ZM7.46731 10.672C7.17573 10.9662 7.17784 11.4411 7.47204 11.7327C7.76624 12.0243 8.24111 12.0222 8.53269 11.728L7.46731 10.672ZM9.39785 9.78962L9.93054 10.3176L9.39785 9.78962ZM14.6022 9.78962L15.1348 9.26167V9.26167L14.6022 9.78962ZM15.4673 11.728C15.7589 12.0222 16.2338 12.0243 16.528 11.7327C16.8222 11.4411 16.8243 10.9662 16.5327 10.672L15.4673 11.728ZM11.7493 8.01591L11.6545 7.27193H11.6545L11.7493 8.01591ZM12.2507 8.01591L12.3455 7.27193H12.3455L12.2507 8.01591ZM12 8V7.25V8ZM12 20.25C10.1084 20.25 8.74999 20.249 7.69804 20.135C6.66013 20.0225 6.00992 19.8074 5.50191 19.4383L4.62023 20.6518C5.42656 21.2377 6.37094 21.5 7.53648 21.6263C8.68798 21.751 10.1418 21.75 12 21.75V20.25ZM2.25 12C2.25 13.8582 2.24897 15.312 2.37373 16.4635C2.50001 17.6291 2.76232 18.5734 3.34815 19.3798L4.56168 18.4981C4.19259 17.9901 3.97745 17.3399 3.865 16.302C3.75103 15.25 3.75 13.8916 3.75 12H2.25ZM5.50191 19.4383C5.14111 19.1762 4.82382 18.8589 4.56168 18.4981L3.34815 19.3798C3.70281 19.8679 4.13209 20.2972 4.62023 20.6518L5.50191 19.4383ZM20.25 12C20.25 13.8916 20.249 15.25 20.135 16.302C20.0225 17.3399 19.8074 17.9901 19.4383 18.4981L20.6518 19.3798C21.2377 18.5734 21.5 17.6291 21.6263 16.4635C21.751 15.312 21.75 13.8582 21.75 12H20.25ZM12 21.75C13.8582 21.75 15.312 21.751 16.4635 21.6263C17.6291 21.5 18.5734 21.2377 19.3798 20.6518L18.4981 19.4383C17.9901 19.8074 17.3399 20.0225 16.302 20.135C15.25 20.249 13.8916 20.25 12 20.25V21.75ZM19.4383 18.4981C19.1762 18.8589 18.8589 19.1762 18.4981 19.4383L19.3798 20.6518C19.8679 20.2972 20.2972 19.8679 20.6518 19.3798L19.4383 18.4981ZM12 3.75C13.8916 3.75 15.25 3.75103 16.302 3.865C17.3399 3.97745 17.9901 4.19259 18.4981 4.56168L19.3798 3.34815C18.5734 2.76232 17.6291 2.50001 16.4635 2.37373C15.312 2.24897 13.8582 2.25 12 2.25V3.75ZM21.75 12C21.75 10.1418 21.751 8.68798 21.6263 7.53648C21.5 6.37094 21.2377 5.42656 20.6518 4.62023L19.4383 5.50191C19.8074 6.00992 20.0225 6.66013 20.135 7.69804C20.249 8.74999 20.25 10.1084 20.25 12H21.75ZM18.4981 4.56168C18.8589 4.82382 19.1762 5.14111 19.4383 5.50191L20.6518 4.62023C20.2972 4.13209 19.8679 3.70281 19.3798 3.34815L18.4981 4.56168ZM12 2.25C10.1418 2.25 8.68798 2.24897 7.53648 2.37373C6.37094 2.50001 5.42656 2.76232 4.62023 3.34815L5.50191 4.56168C6.00992 4.19259 6.66013 3.97745 7.69804 3.865C8.74999 3.75103 10.1084 3.75 12 3.75V2.25ZM3.75 12C3.75 10.1084 3.75103 8.74999 3.865 7.69804C3.97745 6.66013 4.19259 6.00992 4.56168 5.50191L3.34815 4.62023C2.76232 5.42656 2.50001 6.37094 2.37373 7.53648C2.24897 8.68798 2.25 10.1418 2.25 12H3.75ZM4.62023 3.34815C4.13209 3.70281 3.70281 4.13209 3.34815 4.62023L4.56168 5.50191C4.82382 5.14111 5.14111 4.82382 5.50191 4.56168L4.62023 3.34815ZM12.75 16V8.8H11.25V16H12.75ZM8.53269 11.728L9.93054 10.3176L8.86516 9.26167L7.46731 10.672L8.53269 11.728ZM14.0695 10.3176L15.4673 11.728L16.5327 10.672L15.1348 9.26167L14.0695 10.3176ZM9.93054 10.3176C10.5003 9.74268 10.8839 9.35733 11.2065 9.09823C11.5173 8.84863 11.698 8.77852 11.8442 8.75989L11.6545 7.27193C11.1213 7.33989 10.6837 7.59426 10.2672 7.92869C9.86265 8.25361 9.41012 8.71182 8.86516 9.26167L9.93054 10.3176ZM15.1348 9.26167C14.5899 8.71182 14.1373 8.25362 13.7328 7.92869C13.3163 7.59427 12.8787 7.33989 12.3455 7.27193L12.1558 8.75989C12.302 8.77852 12.4827 8.84863 12.7935 9.09823C13.1161 9.35733 13.4997 9.74268 14.0695 10.3176L15.1348 9.26167ZM11.8442 8.75989C11.8959 8.7533 11.948 8.75 12 8.75V7.25C11.8846 7.25 11.7692 7.25731 11.6545 7.27193L11.8442 8.75989ZM12 8.75C12.052 8.75 12.1041 8.7533 12.1558 8.75989L12.3455 7.27193C12.2308 7.25731 12.1154 7.25 12 7.25V8.75ZM12.75 8.8V8H11.25V8.8H12.75Z" fill="#FAFAFA"/>
</svg>
