<svg width="852" height="176" viewBox="0 0 852 176" fill="none" xmlns="http://www.w3.org/2000/svg">
<g clip-path="url(#clip0_89_608)">
<path fill-rule="evenodd" clip-rule="evenodd" d="M171.777 68.85C170.044 46.3793 158.036 21.7407 134.837 14.9561C125.634 12.278 114.773 13.3748 107.839 20.0063C116.252 11.9464 123.314 9.21731 134.786 8.06954C125.022 1.89713 109.369 -1.34211 97.9728 0.54532C93.2819 1.3105 88.3616 3.32546 86.0416 7.48291C83.7217 3.32546 78.8014 1.3105 74.1105 0.54532C62.7148 -1.36762 47.0616 1.89713 37.2974 8.06954C48.7697 9.21731 55.8315 11.9464 64.2444 20.0063C57.3101 13.3748 46.4497 12.278 37.2464 14.9561C14.0725 21.7407 2.06494 46.3793 0.331357 68.85C-0.458952 79.2053 0.178394 89.7392 2.03944 99.9671C2.93173 104.89 4.10445 109.761 5.73605 114.505C6.47537 116.673 7.29118 118.79 8.23445 120.882C8.76852 122.048 10.0654 124.439 10.8925 125.964L11.0133 126.187C11.4467 107.287 14.047 95.9117 25.4428 86.347C24.7099 87.8998 24.6736 87.9694 24.608 88.0955C24.5572 88.1931 24.4888 88.3245 24.0661 89.2036C22.9189 91.6267 22.0776 94.1518 21.3128 96.7278C18.1516 107.389 18.177 119.326 22.46 129.783C27.2274 141.363 36.7876 148.76 46.9851 155.417C47.5185 155.768 48.054 156.117 48.5901 156.467C50.7441 157.874 52.908 159.287 54.9902 160.799C47.4695 148.02 45.226 139.578 46.6792 123.815C46.6792 136.44 53.9449 148.122 62.6638 157.253C69.4197 164.293 71.4847 166.129 86.0671 176C100.65 166.129 102.715 164.293 109.47 157.253C118.215 148.122 125.455 136.44 125.455 123.815C126.908 139.578 124.665 148.02 117.144 160.799C119.474 159.108 121.885 157.54 124.305 155.966C124.586 155.783 124.868 155.6 125.149 155.417C135.321 148.76 144.907 141.389 149.674 129.783C153.957 119.326 154.008 107.389 150.822 96.7278C150.057 94.1518 149.215 91.6267 148.068 89.2036C147.626 88.2718 147.571 88.1698 147.519 88.0716C147.457 87.9549 147.398 87.8436 146.691 86.347C158.087 95.9117 160.688 107.262 161.121 126.187L161.242 125.963L161.242 125.963C162.07 124.438 163.366 122.047 163.9 120.882C164.843 118.79 165.659 116.673 166.398 114.505C168.004 109.761 169.203 104.89 170.095 99.9671C171.956 89.7647 172.593 79.2308 171.803 68.85H171.777ZM99.7318 132.717C98.1257 134.987 95.6528 136.542 93.0015 137.486C88.744 139.017 83.9766 139.093 79.6682 137.69C76.8894 136.798 74.238 135.267 72.5044 132.921C71.9945 132.283 71.5866 131.543 71.5102 130.727C71.2949 128.573 73.9747 127.452 75.6962 126.732C75.7563 126.707 75.8153 126.683 75.8729 126.658C75.9239 126.637 75.9738 126.616 76.0226 126.595C77.2697 126.058 78.5498 125.612 79.8254 125.168L79.8256 125.168C80.7924 124.831 81.7567 124.495 82.702 124.121C83.7217 123.739 84.9454 123.279 86.0416 123.279C87.1465 123.279 88.2287 123.687 89.3736 124.118L89.5853 124.198C90.3219 124.474 91.066 124.737 91.8106 125C94.1585 125.83 96.5127 126.663 98.6611 127.921C99.4514 128.381 100.267 128.967 100.522 129.834C100.522 129.89 100.549 129.959 100.573 130.022L100.573 130.022C100.583 130.046 100.592 130.068 100.599 130.089C100.752 130.982 100.293 131.926 99.7573 132.717H99.7318ZM127.903 82.317C125.506 86.5255 122.472 90.3769 118.954 93.7182C116.456 96.0902 113.422 99.0744 114.442 102.39C114.711 103.342 115.316 104.146 115.925 104.955L115.925 104.955C116.295 105.447 116.667 105.941 116.966 106.471C119.311 110.68 116.634 116.291 112.428 118.586C108.221 120.831 103.046 120.474 98.3807 119.326C96.4176 118.841 94.4291 118.229 92.823 116.979C91.2169 115.73 90.0442 113.766 90.2736 111.751C90.5488 108.998 92.9382 107.343 95.3518 105.672C97.6346 104.091 99.939 102.496 100.497 99.9416C100.854 98.2582 100.318 96.4983 99.8083 94.8404C99.2603 93.1444 98.7249 91.4548 98.1896 89.7652C97.6542 88.0753 97.1188 86.3854 96.5706 84.6891C96.7506 86.2741 96.925 87.8534 97.0991 89.4298C97.2947 91.2018 97.49 92.9701 97.6923 94.7384C97.7688 95.325 97.8198 95.9882 97.5394 96.4983C97.157 97.2125 96.2392 97.493 95.4744 97.6971C92.3896 98.3857 89.2284 98.6918 86.0926 98.6408C82.9569 98.7173 79.7702 98.3857 76.7109 97.6971C75.8951 97.493 75.0283 97.2125 74.6204 96.4983C74.3655 95.9627 74.391 95.325 74.4674 94.7384C74.8499 91.3971 75.2323 88.0559 75.6147 84.6891C74.5184 88.0814 73.4477 91.4481 72.377 94.8404C71.8416 96.4983 71.3317 98.2582 71.6886 99.9416C72.2458 102.493 74.5527 104.089 76.8368 105.668C79.2559 107.341 81.6494 108.996 81.9117 111.751C82.1156 113.766 80.9429 115.73 79.3623 116.979C77.7561 118.229 75.7676 118.841 73.8046 119.326C69.1392 120.474 63.964 120.831 59.7575 118.586C55.5255 116.291 52.8742 110.68 55.2196 106.471C55.5198 105.938 55.89 105.442 56.2588 104.948C56.8607 104.141 57.4589 103.339 57.7435 102.39C58.7377 99.0744 55.704 96.0902 53.2311 93.7182C49.7129 90.3769 46.7047 86.5255 44.2827 82.317C42.1668 78.6187 40.5097 74.5888 40.3057 70.3293C40.0253 63.7743 43.314 57.5509 47.342 52.3732C51.0386 47.6546 55.0921 42.9615 59.1202 38.498C62.8678 34.3151 67.3802 34.4426 72.6829 35.1057C77.1443 35.6414 81.6312 35.9474 86.1181 35.9474C90.605 35.9474 95.092 35.6669 99.5279 35.1057C104.831 34.4426 109.369 34.3151 113.116 38.498C117.119 42.9615 121.198 47.6546 124.894 52.3732C128.922 57.5509 132.186 63.7743 131.905 70.3293C131.727 74.5633 130.07 78.6187 127.954 82.317H127.903ZM64.4994 59.4637L54.3274 59.7953C51.9564 59.8718 50.8092 63.9527 52.5683 65.5341L52.6987 65.6515C53.6956 66.5511 55.213 67.9203 57.922 68.2377C66.233 69.2324 71.5612 72.2676 73.6007 73.6449C73.9831 73.8745 74.442 73.5684 74.391 73.1348L73.6007 68.1357C72.7849 62.9835 69.7001 59.2341 64.4994 59.4637ZM107.584 59.4637L117.756 59.7953H117.731C120.102 59.8718 121.249 63.9272 119.49 65.5341C119.456 65.5641 119.422 65.5948 119.387 65.6261C118.391 66.5234 116.871 67.8926 114.136 68.2377C105.851 69.2324 100.522 72.2676 98.4573 73.6449C98.1004 73.8745 97.616 73.5684 97.6925 73.1348L98.4828 68.1357C99.2986 62.9835 102.383 59.2341 107.584 59.4637Z" fill="url(#paint0_linear_89_608)"/>
<g clip-path="url(#clip1_89_608)">
<path d="M283.967 120.271C278.376 124.306 271.51 126.312 263.345 126.312C257.754 126.312 252.85 125.358 248.632 123.475C244.39 121.592 240.835 118.926 237.941 115.502C235.048 112.078 232.89 108.067 231.443 103.493C229.996 98.92 229.285 93.9552 229.285 88.5746C229.285 83.1941 229.996 78.0825 231.443 73.5091C232.89 68.9356 234.999 64.9735 237.794 61.574C240.589 58.1989 244.071 55.5576 248.265 53.6744C252.458 51.7912 257.19 50.8373 262.462 50.8373C267.734 50.8373 272.491 51.7422 276.733 53.5276C280.976 55.313 284.458 57.9054 287.204 61.2805C289.95 64.6556 291.667 68.8378 292.353 73.8025H313.883C312.975 65.2426 310.352 57.8076 305.962 51.4488C301.573 45.0899 295.688 40.1251 288.332 36.5299C280.951 32.9592 272.344 31.1738 262.462 31.1738C252.58 31.1738 244.807 32.788 237.868 36.0163C230.953 39.2447 225.264 43.5491 220.826 48.9052C216.387 54.2613 213.101 60.2289 210.968 66.7834C208.835 73.3379 207.756 80.0146 207.756 86.7648V90.0421C207.756 96.2052 208.81 102.54 210.895 109.045C212.979 115.551 216.24 121.616 220.678 127.241C225.117 132.866 230.855 137.391 237.868 140.815C244.905 144.239 253.389 145.951 263.345 145.951C273.3 145.951 282.618 144.019 290.097 140.13C297.576 136.266 303.461 131.081 307.728 124.624C312.019 118.168 314.643 111.051 315.648 103.298H294.119C292.917 110.562 289.533 116.187 283.943 120.222L283.967 120.271Z" fill="#001427"/>
<path d="M389.432 65.1205C383.498 61.3052 376.142 59.373 367.388 59.373C360.718 59.373 354.808 60.547 349.683 62.8704C344.559 65.2183 340.292 68.3488 336.908 72.2619C333.524 76.1995 330.949 80.6507 329.208 85.6889C327.467 90.7026 326.585 95.9119 326.585 101.268V104.105C326.585 109.266 327.467 114.353 329.208 119.317C330.949 124.282 333.549 128.782 336.982 132.818C340.415 136.853 344.755 140.057 349.978 142.429C355.201 144.802 361.306 146 368.295 146C375.283 146 380.923 144.851 386.171 142.576C391.394 140.302 395.709 137.049 399.093 132.891C402.477 128.709 404.782 123.842 405.959 118.29H386.686C385.778 121.274 383.743 123.793 380.555 125.823C377.368 127.853 373.273 128.88 368.295 128.88C363.317 128.88 359.026 127.755 355.74 125.529C352.454 123.304 350.002 120.222 348.408 116.285C347.379 113.717 346.716 110.904 346.349 107.871H407.308V100.265C407.308 93.0994 405.812 86.4226 402.82 80.2105C399.829 73.9984 395.366 68.9847 389.432 65.1449V65.1205ZM355.716 79.7213C358.903 77.5936 362.802 76.5175 367.388 76.5175C371.973 76.5175 375.749 77.5202 378.741 79.5012C381.732 81.4823 383.988 84.3193 385.533 87.9878C386.416 90.0667 387.004 92.439 387.397 95.007H346.667C347.084 92.7325 347.673 90.6292 348.482 88.746C350.125 84.8573 352.528 81.8736 355.74 79.7213H355.716Z" fill="#001427"/>
<path d="M448.086 70.1829C444.31 74.7319 441.98 80.8707 441.049 88.5747V62.1854H424.595V143.138H445.364V101.097C445.364 94.0286 447.277 88.6236 451.127 84.8572C454.952 81.0908 460.371 79.1831 467.335 79.1831H473.024V61.1338H470.032C460.371 61.1338 453.039 64.142 448.062 70.1585L448.086 70.1829Z" fill="#001427"/>
<path d="M537.784 109.926C537.784 115.184 536.264 119.366 533.223 122.448C530.182 125.53 526.284 127.07 521.477 127.07C516.671 127.07 512.895 125.603 510.124 122.668C507.329 119.733 505.931 115.796 505.931 110.806V62.0635H485.162V109.021C485.162 121.25 487.712 130.421 492.788 136.535C497.864 142.65 505.146 145.707 514.612 145.707H515.519C521.796 145.707 526.995 144.337 531.139 141.598C535.283 138.859 538.421 134.774 540.555 129.296C541.168 127.706 541.683 125.97 542.124 124.136V143.163H558.578V62.0635H537.808V109.926H537.784Z" fill="#001427"/>
<path d="M573.364 34.3291V49.8349H583.515V143.163H604.309V49.8349V34.3291H583.515H573.364Z" fill="#001427"/>
<path d="M620.591 62.21V77.7158H631.945V143.163H652.738V77.7158V62.21H631.945H620.591Z" fill="#001427"/>
<path d="M639.571 52.5249C643.666 52.5249 646.657 51.4733 648.545 49.3944C650.433 47.3156 651.39 44.5764 651.39 41.2013C651.39 37.8262 650.433 35.2338 648.545 33.1549C646.657 31.0761 643.666 30.0244 639.571 30.0244C635.475 30.0244 632.459 31.0761 630.522 33.1549C628.585 35.2338 627.604 37.9241 627.604 41.2013C627.604 44.4786 628.585 47.3156 630.522 49.3944C632.459 51.4733 635.475 52.5249 639.571 52.5249Z" fill="#001427"/>
<path d="M748.174 71.9684C744.349 68.0553 739.69 64.9493 734.197 62.7237C728.704 60.4981 722.55 59.373 715.659 59.373C708.769 59.373 702.59 60.4981 697.048 62.7237C691.506 64.9493 686.823 68.0309 682.997 71.9684C679.172 75.906 676.254 80.3572 674.243 85.3954C672.257 90.4091 671.252 95.7163 671.252 101.268V104.399C671.252 109.877 672.233 115.086 674.17 120.051C676.107 125.016 678.976 129.443 682.777 133.331C686.553 137.22 691.187 140.302 696.68 142.576C702.148 144.851 708.499 146 715.659 146C722.819 146 729.023 144.851 734.491 142.576C739.96 140.302 744.594 137.22 748.395 133.331C752.171 129.443 755.04 125.04 757.002 120.051C758.939 115.086 759.92 109.852 759.92 104.399V101.268C759.92 95.6918 758.914 90.4091 756.928 85.3954C754.942 80.3817 752.024 75.906 748.174 71.9684ZM736.355 115.796C734.516 119.611 731.843 122.644 728.361 124.894C724.879 127.144 720.637 128.244 715.659 128.244C710.681 128.244 706.292 127.119 702.81 124.894C699.328 122.668 696.655 119.635 694.816 115.796C692.977 111.98 692.045 107.627 692.045 102.76C692.045 97.893 693.002 93.5151 694.89 89.6509C696.778 85.7622 699.5 82.7296 703.031 80.4795C706.562 78.2295 710.78 77.1289 715.659 77.1289C720.539 77.1289 724.732 78.2539 728.214 80.4795C731.696 82.7051 734.393 85.7622 736.281 89.6509C738.169 93.5396 739.126 97.893 739.126 102.76C739.126 107.627 738.194 111.98 736.355 115.796Z" fill="#001427"/>
<path d="M845.253 68.9847C840.275 62.7726 832.943 59.6665 823.282 59.6665H822.375C815.901 59.6665 810.482 61.0606 806.166 63.8487C801.826 66.6368 798.565 70.77 796.382 76.2973C795.647 78.1561 795.083 80.2349 794.592 82.3871V62.21H778.139V143.163H798.908V95.594C798.908 90.4335 800.477 86.2514 803.616 83.0719C806.755 79.8925 810.874 78.3028 815.95 78.3028C821.026 78.3028 824.729 79.8436 827.622 82.9252C830.516 86.0068 831.962 90.0422 831.962 95.007V143.163H852.732V96.7924C852.732 84.466 850.23 75.1968 845.253 68.9847Z" fill="#001427"/>
</g>
</g>
<defs>
<linearGradient id="paint0_linear_89_608" x1="171.934" y1="82.8799" x2="0.140465" y2="87.8137" gradientUnits="userSpaceOnUse">
<stop stop-color="#00C0FF"/>
<stop offset="1" stop-color="#0080FF"/>
</linearGradient>
<clipPath id="clip0_89_608">
<rect width="852" height="176" fill="white"/>
</clipPath>
<clipPath id="clip1_89_608">
<rect width="645" height="116" fill="white" transform="translate(207.731 30)"/>
</clipPath>
</defs>
</svg>
