<svg width="645" height="404" viewBox="0 0 645 404" fill="none" xmlns="http://www.w3.org/2000/svg">
<g clip-path="url(#clip0_89_708)">
<path fill-rule="evenodd" clip-rule="evenodd" d="M443.195 97.2832C440.755 65.5394 423.76 30.7182 390.991 21.1257C377.988 17.3276 362.629 18.9078 352.843 28.2508C364.736 16.8563 374.717 13.0304 390.935 11.3947C377.129 2.68937 355.005 -1.91279 338.87 0.776422C332.216 1.85765 325.285 4.71321 322.014 10.5629C318.742 4.68549 311.784 1.85765 305.158 0.776422C289.022 -1.91279 266.926 2.68937 253.092 11.3947C269.311 13.0304 279.291 16.8563 291.185 28.2508C281.398 18.8801 266.039 17.3276 253.037 21.1257C220.267 30.6905 203.272 65.5117 200.833 97.2832C199.724 111.921 200.611 126.809 203.245 141.253C204.52 148.212 206.183 155.087 208.457 161.797C209.51 164.846 210.647 167.84 211.978 170.807C212.782 172.526 214.75 176.185 215.915 178.32C216.525 151.594 220.212 135.542 236.292 122.041C235.363 123.981 235.217 124.272 235.134 124.439L235.134 124.439C235.051 124.605 235.03 124.647 234.351 126.088C232.743 129.526 231.551 133.075 230.47 136.707C225.978 151.788 226.062 168.644 232.105 183.421C238.842 199.806 252.371 210.23 266.76 219.629L267.44 220.07C271.014 222.391 274.604 224.722 278.071 227.225C267.453 209.149 264.265 197.228 266.344 174.965C266.344 192.82 276.602 209.315 288.967 222.235C298.504 232.188 301.443 234.766 322.042 248.711C342.64 234.766 345.579 232.188 355.116 222.235C367.481 209.315 377.739 192.82 377.739 174.965C379.818 197.228 376.63 209.149 366.012 227.225C369.479 224.722 373.069 222.391 376.644 220.07L377.323 219.629C391.712 210.23 405.241 199.806 411.978 183.421C418.022 168.644 418.105 151.788 413.613 136.707C412.532 133.075 411.34 129.498 409.732 126.088C409.053 124.647 409.032 124.605 408.949 124.439L408.949 124.438C408.866 124.272 408.72 123.98 407.791 122.041C423.899 135.542 427.559 151.594 428.169 178.32C428.432 177.825 428.742 177.249 429.073 176.634L429.073 176.634C430.168 174.601 431.488 172.148 432.105 170.807C433.436 167.84 434.573 164.846 435.626 161.797C437.9 155.087 439.591 148.212 440.838 141.253C443.472 126.837 444.359 111.949 443.25 97.2832H443.195ZM341.337 187.497C339.064 190.713 335.571 192.903 331.828 194.234C325.812 196.396 319.075 196.479 312.976 194.511C309.039 193.236 305.324 191.073 302.857 187.774C302.136 186.887 301.554 185.833 301.443 184.697C301.133 181.682 304.872 180.104 307.315 179.073C307.501 178.994 307.679 178.919 307.847 178.847C309.648 178.068 311.507 177.422 313.367 176.775L313.367 176.775C314.684 176.317 316.002 175.859 317.301 175.354C318.742 174.799 320.489 174.161 322.014 174.161C323.616 174.161 325.167 174.753 326.84 175.391L327.032 175.465C328.137 175.883 329.255 176.277 330.374 176.672C333.631 177.821 336.889 178.971 339.84 180.704C340.949 181.342 342.086 182.174 342.474 183.421C342.488 183.477 342.502 183.539 342.516 183.601C342.53 183.664 342.543 183.726 342.557 183.782C342.779 185.057 342.114 186.388 341.365 187.497H341.337ZM381.149 116.302C377.739 122.262 373.497 127.696 368.507 132.437C364.986 135.792 360.689 140.006 362.103 144.691C362.484 146.042 363.341 147.187 364.201 148.336C364.717 149.027 365.235 149.719 365.651 150.458C368.95 156.391 365.18 164.32 359.219 167.563C353.259 170.751 345.967 170.225 339.369 168.617C336.597 167.924 333.769 167.064 331.523 165.318C329.277 163.543 327.586 160.771 327.919 157.943C328.304 154.052 331.678 151.714 335.089 149.352C338.313 147.119 341.568 144.863 342.363 141.253C342.862 138.869 342.114 136.402 341.365 134.045C340.589 131.647 339.833 129.263 339.078 126.879L339.078 126.878C338.322 124.494 337.567 122.11 336.791 119.712C337.142 122.891 337.493 126.045 337.844 129.2L337.847 129.223L337.867 129.404C338.035 130.913 338.203 132.422 338.371 133.934L338.38 134.026C338.461 134.833 338.55 135.708 338.149 136.429C337.595 137.455 336.319 137.843 335.21 138.12C330.858 139.091 326.366 139.534 321.958 139.451C317.523 139.534 313.031 139.091 308.706 138.12C307.57 137.843 306.322 137.427 305.74 136.429C305.379 135.681 305.435 134.766 305.518 133.934C305.751 131.848 305.99 129.756 306.229 127.659L306.23 127.655C306.531 125.016 306.833 122.368 307.126 119.712C305.902 123.495 304.712 127.243 303.515 131.012C303.195 132.021 302.874 133.032 302.552 134.045C301.803 136.402 301.082 138.869 301.554 141.253C302.334 144.846 305.59 147.1 308.817 149.334C312.238 151.702 315.627 154.048 315.998 157.943C316.275 160.799 314.639 163.571 312.394 165.318C310.12 167.092 307.32 167.951 304.548 168.617C297.949 170.225 290.658 170.751 284.698 167.563C278.709 164.32 274.966 156.391 278.266 150.458C278.683 149.716 279.199 149.022 279.715 148.329L279.715 148.329C280.567 147.182 281.417 146.039 281.814 144.691C283.2 140.006 278.931 135.792 275.41 132.437C270.447 127.724 266.178 122.262 262.768 116.302C259.774 111.09 257.417 105.379 257.14 99.3625C256.752 90.1027 261.409 81.3143 267.093 73.9952C272.305 67.3137 278.071 60.6877 283.755 54.3667C289.078 48.4615 295.427 48.6555 302.94 49.5704C309.233 50.3467 315.582 50.7348 321.931 50.7348C328.279 50.7348 334.628 50.3467 340.894 49.5704C348.407 48.6555 354.783 48.4615 360.106 54.3667C365.762 60.66 371.529 67.3137 376.768 73.9952C382.452 81.3143 387.082 90.1027 386.694 99.3625C386.444 105.351 384.088 111.062 381.093 116.302H381.149ZM291.49 84.0312L277.129 84.5025C273.802 84.6134 272.166 90.38 274.634 92.6256L274.681 92.6688C276.069 93.9467 278.255 95.9581 282.202 96.4515C293.929 97.8377 301.47 102.135 304.381 104.076C304.908 104.408 305.574 103.992 305.49 103.355L304.381 96.2852C303.245 88.9938 298.892 83.6985 291.49 84.0312ZM352.455 84.0033L366.816 84.4746C370.17 84.5855 371.778 90.352 369.311 92.5977L369.233 92.6692C367.844 93.9483 365.688 95.9337 361.742 96.4235C350.015 97.8097 342.502 102.107 339.563 104.048C339.064 104.38 338.399 103.937 338.482 103.327L339.591 96.2572C340.755 88.9658 345.108 83.6983 352.455 84.0033Z" fill="url(#paint0_linear_89_708)"/>
<g clip-path="url(#clip1_89_708)">
<path d="M76.2356 378.271C70.6449 382.306 63.779 384.312 55.6135 384.312C50.0227 384.312 45.1185 383.358 40.9009 381.475C36.6588 379.592 33.1032 376.926 30.2097 373.502C27.3163 370.078 25.1584 366.067 23.7117 361.493C22.2649 356.92 21.5538 351.955 21.5538 346.575C21.5538 341.194 22.2649 336.083 23.7117 331.509C25.1584 326.936 27.2672 322.974 30.0626 319.574C32.858 316.199 36.34 313.558 40.5331 311.674C44.7262 309.791 49.4587 308.837 54.7307 308.837C60.0027 308.837 64.7598 309.742 69.0019 311.528C73.2441 313.313 76.7261 315.905 79.4724 319.281C82.2188 322.656 83.9352 326.838 84.6218 331.803H106.151C105.244 323.243 102.62 315.808 98.231 309.449C93.8417 303.09 87.9567 298.125 80.6004 294.53C73.2196 290.959 64.6127 289.174 54.7307 289.174C44.8488 289.174 37.0756 290.788 30.1362 294.016C23.2213 297.245 17.5324 301.549 13.0941 306.905C8.6558 312.261 5.36999 318.229 3.23666 324.783C1.10334 331.338 0.0244141 338.015 0.0244141 344.765V348.042C0.0244141 354.205 1.07882 360.54 3.1631 367.045C5.24738 373.551 8.50868 379.616 12.947 385.241C17.3853 390.866 23.1232 395.391 30.1362 398.815C37.1737 402.239 45.658 403.951 55.6135 403.951C65.569 403.951 74.887 402.019 82.3659 398.13C89.8448 394.266 95.7298 389.081 99.9965 382.624C104.288 376.168 106.911 369.051 107.917 361.298H86.3873C85.1858 368.562 81.8019 374.187 76.2111 378.222L76.2356 378.271Z" fill="#001427"/>
<path d="M181.701 323.12C175.766 319.305 168.41 317.373 159.656 317.373C152.986 317.373 147.077 318.547 141.952 320.87C136.827 323.218 132.56 326.349 129.177 330.262C125.793 334.2 123.218 338.651 121.477 343.689C119.736 348.703 118.853 353.912 118.853 359.268V362.105C118.853 367.266 119.736 372.353 121.477 377.317C123.218 382.282 125.817 386.782 129.25 390.818C132.683 394.853 137.023 398.057 142.246 400.429C147.469 402.802 153.575 404 160.563 404C167.552 404 173.192 402.851 178.439 400.576C183.662 398.302 187.978 395.049 191.362 390.891C194.746 386.709 197.051 381.842 198.228 376.29H178.954C178.047 379.274 176.012 381.793 172.824 383.823C169.636 385.853 165.541 386.88 160.563 386.88C155.586 386.88 151.295 385.755 148.009 383.529C144.723 381.304 142.271 378.222 140.677 374.285C139.647 371.717 138.985 368.904 138.617 365.871H199.576V358.265C199.576 351.099 198.081 344.423 195.089 338.21C192.097 331.998 187.635 326.985 181.701 323.145V323.12ZM147.984 337.721C151.172 335.594 155.071 334.517 159.656 334.517C164.242 334.517 168.018 335.52 171.009 337.501C174.001 339.482 176.257 342.319 177.802 345.988C178.684 348.067 179.273 350.439 179.665 353.007H138.936C139.353 350.733 139.941 348.629 140.751 346.746C142.393 342.857 144.796 339.874 148.009 337.721H147.984Z" fill="#001427"/>
<path d="M240.355 328.183C236.578 332.732 234.249 338.871 233.317 346.575V320.185H216.864V401.138H237.633V359.097C237.633 352.029 239.545 346.624 243.395 342.857C247.221 339.091 252.64 337.183 259.604 337.183H265.292V319.134H262.301C252.64 319.134 245.308 322.142 240.33 328.158L240.355 328.183Z" fill="#001427"/>
<path d="M330.052 367.926C330.052 373.184 328.532 377.366 325.492 380.448C322.451 383.53 318.552 385.07 313.746 385.07C308.94 385.07 305.164 383.603 302.393 380.668C299.597 377.733 298.2 373.796 298.2 368.806V320.063H277.43V367.021C277.43 379.25 279.981 388.421 285.056 394.535C290.132 400.65 297.415 403.707 306.88 403.707H307.787C314.065 403.707 319.263 402.337 323.407 399.598C327.551 396.859 330.69 392.774 332.823 387.296C333.436 385.706 333.951 383.97 334.393 382.136V401.163H350.846V320.063H330.077V367.926H330.052Z" fill="#001427"/>
<path d="M365.632 292.329V307.835H375.784V401.163H396.578V307.835V292.329H375.784H365.632Z" fill="#001427"/>
<path d="M412.86 320.21V335.716H424.213V401.163H445.007V335.716V320.21H424.213H412.86Z" fill="#001427"/>
<path d="M431.839 310.525C435.934 310.525 438.926 309.473 440.814 307.394C442.702 305.316 443.658 302.576 443.658 299.201C443.658 295.826 442.702 293.234 440.814 291.155C438.926 289.076 435.934 288.024 431.839 288.024C427.744 288.024 424.728 289.076 422.791 291.155C420.854 293.234 419.873 295.924 419.873 299.201C419.873 302.479 420.854 305.316 422.791 307.394C424.728 309.473 427.744 310.525 431.839 310.525Z" fill="#001427"/>
<path d="M540.443 329.968C536.617 326.055 531.958 322.949 526.466 320.724C520.973 318.498 514.818 317.373 507.928 317.373C501.037 317.373 494.858 318.498 489.316 320.724C483.775 322.949 479.091 326.031 475.266 329.968C471.441 333.906 468.523 338.357 466.512 343.395C464.526 348.409 463.52 353.716 463.52 359.268V362.399C463.52 367.877 464.501 373.086 466.438 378.051C468.375 383.016 471.244 387.443 475.045 391.331C478.821 395.22 483.456 398.302 488.949 400.576C494.417 402.851 500.768 404 507.928 404C515.088 404 521.292 402.851 526.76 400.576C532.228 398.302 536.863 395.22 540.663 391.331C544.44 387.443 547.308 383.04 549.27 378.051C551.207 373.086 552.188 367.852 552.188 362.399V359.268C552.188 353.692 551.183 348.409 549.197 343.395C547.21 338.382 544.292 333.906 540.443 329.968ZM528.623 373.796C526.784 377.611 524.112 380.644 520.63 382.894C517.148 385.144 512.906 386.244 507.928 386.244C502.95 386.244 498.561 385.119 495.079 382.894C491.597 380.668 488.924 377.635 487.085 373.796C485.246 369.98 484.314 365.627 484.314 360.76C484.314 355.893 485.27 351.515 487.158 347.651C489.047 343.762 491.768 340.73 495.299 338.48C498.831 336.229 503.048 335.129 507.928 335.129C512.807 335.129 517.001 336.254 520.483 338.48C523.964 340.705 526.662 343.762 528.55 347.651C530.438 351.54 531.394 355.893 531.394 360.76C531.394 365.627 530.463 369.98 528.623 373.796Z" fill="#001427"/>
<path d="M637.521 326.985C632.543 320.773 625.212 317.667 615.55 317.667H614.643C608.17 317.667 602.75 319.061 598.435 321.849C594.095 324.637 590.833 328.77 588.651 334.297C587.915 336.156 587.351 338.235 586.861 340.387V320.21H570.407V401.163H591.177V353.594C591.177 348.434 592.746 344.251 595.885 341.072C599.023 337.893 603.143 336.303 608.219 336.303C613.294 336.303 616.997 337.844 619.891 340.925C622.784 344.007 624.231 348.042 624.231 353.007V401.163H645V354.792C645 342.466 642.499 333.197 637.521 326.985Z" fill="#001427"/>
</g>
</g>
<defs>
<linearGradient id="paint0_linear_89_708" x1="443.433" y1="117.126" x2="200.566" y2="124.104" gradientUnits="userSpaceOnUse">
<stop stop-color="#00C0FF"/>
<stop offset="1" stop-color="#0080FF"/>
</linearGradient>
<clipPath id="clip0_89_708">
<rect width="645" height="404" fill="white"/>
</clipPath>
<clipPath id="clip1_89_708">
<rect width="645" height="116" fill="white" transform="translate(0 288)"/>
</clipPath>
</defs>
</svg>
