<svg width="24" height="24" viewBox="0 0 24 24" fill="none" xmlns="http://www.w3.org/2000/svg">
<path d="M16.0526 16.0813C13.7728 14.7419 12.6328 14.0723 12.2503 13.198C11.9166 12.4354 11.9166 11.5646 12.2503 10.802C12.6328 9.92772 13.7728 9.25805 16.0526 7.91873C18.3325 6.5794 19.4724 5.90974 20.4078 6.00978C21.2237 6.09703 21.9649 6.53245 22.4472 7.20778C23 7.98203 23 9.32135 23 12C23 14.6786 23 16.018 22.4472 16.7922C21.9649 17.4675 21.2237 17.903 20.4078 17.9902C19.4724 18.0903 18.3325 17.4206 16.0526 16.0813Z" stroke="#FAFAFA" stroke-width="1.5"/>
<path d="M5.05263 16.0813C2.77276 14.7419 1.63282 14.0723 1.25026 13.198C0.916579 12.4354 0.916579 11.5646 1.25026 10.802C1.63282 9.92772 2.77276 9.25805 5.05263 7.91873C7.3325 6.5794 8.47244 5.90974 9.40785 6.00978C10.2237 6.09703 10.9649 6.53245 11.4472 7.20778C12 7.98203 12 9.32135 12 12C12 14.6786 12 16.018 11.4472 16.7922C10.9649 17.4675 10.2237 17.903 9.40784 17.9902C8.47244 18.0903 7.3325 17.4206 5.05263 16.0813Z" stroke="#FAFAFA" stroke-width="1.5"/>
</svg>
