<svg width="24" height="24" viewBox="0 0 24 24" fill="none" xmlns="http://www.w3.org/2000/svg">
<path d="M2.75 12C2.75 11.5858 2.41421 11.25 2 11.25C1.58579 11.25 1.25 11.5858 1.25 12H2.75ZM5.99903 4L6.44953 4.59962L5.99903 4ZM4 5.99903L4.54705 6.51209L4.57504 6.48225L4.59962 6.44953L4 5.99903ZM4.01269 1.00335C4.01454 0.589137 3.68025 0.251855 3.26604 0.250007C2.85183 0.248159 2.51455 0.582444 2.5127 0.996654L4.01269 1.00335ZM3.25384 2.98571L2.50384 2.98237L3.25384 2.98571ZM6.93384 6.66571L6.93718 7.41571H6.93718L6.93384 6.66571ZM8.9229 7.40685C9.33711 7.405 9.67139 7.06772 9.66954 6.65351C9.66769 6.2393 9.33041 5.90501 8.9162 5.90686L8.9229 7.40685ZM3.66238 5.90267L3.06926 6.36169L3.06926 6.36169L3.66238 5.90267ZM4.01688 6.25717L3.55786 6.85029L3.55786 6.85029L4.01688 6.25717ZM14.76 9.75C15.1742 9.75 15.51 9.41421 15.51 9C15.51 8.58579 15.1742 8.25 14.76 8.25V9.75ZM9 16.25C8.58579 16.25 8.25 16.5858 8.25 17C8.25 17.4142 8.58579 17.75 9 17.75V16.25ZM1.25 12C1.25 17.9371 6.06294 22.75 12 22.75V21.25C6.89137 21.25 2.75 17.1086 2.75 12H1.25ZM12 22.75C17.9371 22.75 22.75 17.9371 22.75 12H21.25C21.25 17.1086 17.1086 21.25 12 21.25V22.75ZM22.75 12C22.75 6.06294 17.9371 1.25 12 1.25V2.75C17.1086 2.75 21.25 6.89137 21.25 12H22.75ZM12 1.25C9.58034 1.25 7.34544 2.05032 5.54852 3.40038L6.44953 4.59962C7.99559 3.43804 9.91636 2.75 12 2.75V1.25ZM5.54852 3.40038C4.73519 4.01145 4.01145 4.73519 3.40038 5.54852L4.59962 6.44953C5.12582 5.74916 5.74916 5.12582 6.44953 4.59962L5.54852 3.40038ZM2.5127 0.996654L2.50384 2.98237L4.00383 2.98906L4.01269 1.00335L2.5127 0.996654ZM6.93718 7.41571L8.9229 7.40685L8.9162 5.90686L6.93049 5.91572L6.93718 7.41571ZM2.50384 2.98237C2.50039 3.75651 2.49638 4.4005 2.55271 4.91635C2.61069 5.44728 2.74029 5.93661 3.06926 6.36169L4.25551 5.44365C4.16534 5.32713 4.08712 5.14976 4.04385 4.75351C3.99893 4.34217 4.00022 3.79848 4.00383 2.98906L2.50384 2.98237ZM6.93049 5.91572C6.12107 5.91933 5.57739 5.92062 5.16604 5.8757C4.76979 5.83243 4.59242 5.75421 4.4759 5.66404L3.55786 6.85029C3.98294 7.17926 4.47227 7.30886 5.0032 7.36684C5.51905 7.42317 6.16304 7.41916 6.93718 7.41571L6.93049 5.91572ZM14.76 8.25H11V9.75H14.76V8.25ZM8.25 11V12H9.75V11H8.25ZM10 13.75H14V12.25H10V13.75ZM14.25 14V15H15.75V14H14.25ZM13 16.25H9V17.75H13V16.25ZM14.25 15C14.25 15.6904 13.6904 16.25 13 16.25V17.75C14.5188 17.75 15.75 16.5188 15.75 15H14.25ZM14 13.75C14.1381 13.75 14.25 13.8619 14.25 14H15.75C15.75 13.0335 14.9665 12.25 14 12.25V13.75ZM8.25 12C8.25 12.9665 9.0335 13.75 10 13.75V12.25C9.86193 12.25 9.75 12.1381 9.75 12H8.25ZM11 8.25C9.48122 8.25 8.25 9.48122 8.25 11H9.75C9.75 10.3096 10.3096 9.75 11 9.75V8.25ZM3.06926 6.36169C3.15754 6.47576 3.25462 6.58255 3.35957 6.68112L4.38646 5.58773C4.33913 5.54328 4.29534 5.49511 4.25551 5.44365L3.06926 6.36169ZM3.35957 6.68112C3.42288 6.74058 3.48905 6.79704 3.55786 6.85029L4.4759 5.66404C4.44485 5.64001 4.41501 5.61454 4.38646 5.58773L3.35957 6.68112ZM3.45295 5.48596L3.32597 5.62135L4.42006 6.64749L4.54705 6.51209L3.45295 5.48596Z" fill="#FAFAFA"/>
</svg>
