<svg width="24" height="24" viewBox="0 0 24 24" fill="none" xmlns="http://www.w3.org/2000/svg">
<path d="M6.46967 10.4697C6.17678 10.7626 6.17678 11.2374 6.46967 11.5303C6.76256 11.8232 7.23744 11.8232 7.53033 11.5303L6.46967 10.4697ZM8.25 16C8.25 16.4142 8.58579 16.75 9 16.75C9.41421 16.75 9.75 16.4142 9.75 16H8.25ZM2.75 12C2.75 11.5858 2.41421 11.25 2 11.25C1.58579 11.25 1.25 11.5858 1.25 12H2.75ZM5.99903 4L6.44953 4.59962L5.99903 4ZM4 5.99903L4.54801 6.51107L4.57546 6.48168L4.59962 6.44953L4 5.99903ZM4.01269 1.00335C4.01454 0.589137 3.68025 0.251855 3.26604 0.250007C2.85183 0.248159 2.51455 0.582444 2.5127 0.996654L4.01269 1.00335ZM3.25384 2.98571L2.50384 2.98237L3.25384 2.98571ZM6.93384 6.66571L6.93718 7.41571H6.93718L6.93384 6.66571ZM8.9229 7.40685C9.33711 7.405 9.67139 7.06772 9.66954 6.65351C9.66769 6.2393 9.33041 5.90501 8.9162 5.90686L8.9229 7.40685ZM3.66238 5.90267L3.06926 6.36169L3.06926 6.36169L3.66238 5.90267ZM4.01688 6.25717L3.55786 6.85029L3.55786 6.85029L4.01688 6.25717ZM16.25 12V14H17.75V12H16.25ZM13.75 14V12H12.25V14H13.75ZM15 15.25C14.3096 15.25 13.75 14.6904 13.75 14H12.25C12.25 15.5188 13.4812 16.75 15 16.75V15.25ZM16.25 14C16.25 14.6904 15.6904 15.25 15 15.25V16.75C16.5188 16.75 17.75 15.5188 17.75 14H16.25ZM15 10.75C15.6904 10.75 16.25 11.3096 16.25 12H17.75C17.75 10.4812 16.5188 9.25 15 9.25V10.75ZM15 9.25C13.4812 9.25 12.25 10.4812 12.25 12H13.75C13.75 11.3096 14.3096 10.75 15 10.75V9.25ZM1.25 12C1.25 17.9371 6.06294 22.75 12 22.75V21.25C6.89137 21.25 2.75 17.1086 2.75 12H1.25ZM12 22.75C17.9371 22.75 22.75 17.9371 22.75 12H21.25C21.25 17.1086 17.1086 21.25 12 21.25V22.75ZM22.75 12C22.75 6.06294 17.9371 1.25 12 1.25V2.75C17.1086 2.75 21.25 6.89137 21.25 12H22.75ZM12 1.25C9.58034 1.25 7.34544 2.05032 5.54852 3.40038L6.44953 4.59962C7.99559 3.43804 9.91636 2.75 12 2.75V1.25ZM5.54852 3.40038C4.73519 4.01145 4.01145 4.73519 3.40038 5.54852L4.59962 6.44953C5.12582 5.74916 5.74916 5.12582 6.44953 4.59962L5.54852 3.40038ZM2.5127 0.996654L2.50384 2.98237L4.00383 2.98906L4.01269 1.00335L2.5127 0.996654ZM6.93718 7.41571L8.9229 7.40685L8.9162 5.90686L6.93049 5.91572L6.93718 7.41571ZM2.50384 2.98237C2.50039 3.75651 2.49638 4.4005 2.55271 4.91635C2.61069 5.44728 2.74029 5.93661 3.06926 6.36169L4.25551 5.44365C4.16534 5.32713 4.08712 5.14976 4.04385 4.75351C3.99893 4.34217 4.00022 3.79848 4.00383 2.98906L2.50384 2.98237ZM6.93049 5.91572C6.12107 5.91933 5.57739 5.92062 5.16604 5.8757C4.76979 5.83243 4.59242 5.75421 4.4759 5.66404L3.55786 6.85029C3.98294 7.17926 4.47227 7.30886 5.0032 7.36684C5.51905 7.42317 6.16304 7.41916 6.93718 7.41571L6.93049 5.91572ZM7.46967 9.46967L6.46967 10.4697L7.53033 11.5303L8.53033 10.5303L7.46967 9.46967ZM8.25 12V16H9.75V12H8.25ZM8.25 10.4142V10.5H9.75V10.4142H8.25ZM8.25 10.5V12H9.75V10.5H8.25ZM3.06926 6.36169C3.15764 6.47589 3.25484 6.58279 3.35992 6.68145L4.38661 5.58787C4.33922 5.54338 4.29538 5.49517 4.25551 5.44365L3.06926 6.36169ZM3.35992 6.68145C3.42312 6.74078 3.48917 6.79714 3.55786 6.85029L4.4759 5.66404C4.44491 5.64005 4.41512 5.61464 4.38661 5.58788L3.35992 6.68145ZM3.45199 5.48698L3.32526 5.62261L4.42127 6.64671L4.54801 6.51107L3.45199 5.48698ZM8.53033 10.5303C8.51193 10.5487 8.47953 10.5678 8.43995 10.5746C8.40447 10.5808 8.37429 10.5754 8.35137 10.5659C8.32845 10.5564 8.30331 10.5389 8.28257 10.5095C8.25944 10.4766 8.25 10.4402 8.25 10.4142H9.75C9.75 9.22416 8.31117 8.62817 7.46967 9.46967L8.53033 10.5303Z" fill="#FAFAFA"/>
</svg>
