<svg width="24" height="24" viewBox="0 0 24 24" fill="none" xmlns="http://www.w3.org/2000/svg">
<path d="M2 22.75L22 2.75" stroke="#FAFAFA" stroke-width="1.5" stroke-linecap="round"/>
<path d="M8.25 3.5C8.25 2.94772 8.69772 2.5 9.25 2.5H14.75C15.3023 2.5 15.75 2.94772 15.75 3.5V3.67857C15.75 4.96066 16.7893 6 18.0714 6C18.3502 6 18.6205 6.03588 18.8781 6.10327C19.2005 6.18759 19.5559 6.13343 19.7915 5.89783C20.1558 5.53353 20.0806 4.92065 19.5934 4.75313C19.1163 4.58907 18.6042 4.5 18.0714 4.5C17.6178 4.5 17.25 4.13223 17.25 3.67857V3.5C17.25 2.11929 16.1307 1 14.75 1H9.25C7.86929 1 6.75 2.11929 6.75 3.5V3.67857C6.75 4.13223 6.38223 4.5 5.92857 4.5C3.34467 4.5 1.25 6.59467 1.25 9.17857V13.7894C1.24999 15.3927 1.24999 16.6497 1.34547 17.6539C1.44279 18.6774 1.64457 19.5155 2.09732 20.2544C2.40763 20.7607 2.7935 21.2144 3.24001 21.6003C3.50512 21.8294 3.8983 21.791 4.14608 21.5433L4.78329 20.9061C4.79276 20.8966 4.79081 20.8807 4.77938 20.8737C4.20752 20.5233 3.72672 20.0425 3.37628 19.4706C3.09223 19.0071 2.92561 18.4257 2.83873 17.5119C2.75079 16.587 2.75 15.4012 2.75 13.75V9.17857C2.75 7.4231 4.1731 6 5.92857 6C7.21066 6 8.25 4.96066 8.25 3.67857V3.5Z" fill="#FAFAFA"/>
<path d="M6.73809 21.4113C6.54528 21.3929 6.3528 21.4579 6.21585 21.5948L6.14813 21.6625C5.70423 22.1064 5.9102 22.8361 6.53486 22.8986C6.5552 22.9006 6.57562 22.9026 6.59611 22.9045C7.60028 23 8.85722 23 10.4606 23H13.5394C15.1427 23 16.3997 23 17.4039 22.9045C18.4274 22.8072 19.2655 22.6054 20.0044 22.1527C20.7781 21.6786 21.4286 21.0281 21.9027 20.2544C22.3554 19.5155 22.5572 18.6774 22.6545 17.6539C22.75 16.6497 22.75 15.3928 22.75 13.7894V9.17857C22.75 8.32785 22.5229 7.53016 22.1261 6.8428C21.9021 6.45483 21.3763 6.43438 21.0595 6.75116C20.7867 7.024 20.7698 7.45405 20.9371 7.80173C21.1376 8.21831 21.25 8.68532 21.25 9.17857V13.75C21.25 15.4012 21.2492 16.587 21.1613 17.5119C21.0744 18.4257 20.9078 19.0071 20.6237 19.4706C20.2733 20.0425 19.7925 20.5233 19.2206 20.8737C18.7571 21.1578 18.1757 21.3244 17.2619 21.4113C16.337 21.4992 15.1512 21.5 13.5 21.5H10.5C8.84876 21.5 7.663 21.4992 6.73809 21.4113Z" fill="#FAFAFA"/>
<path d="M15.5041 12.3066C15.9247 11.886 16.6319 12.036 16.7094 12.6258C16.7362 12.8301 16.75 13.0384 16.75 13.25C16.75 15.8734 14.6234 18 12 18C11.7884 18 11.5801 17.9862 11.3758 17.9594C10.786 17.8819 10.636 17.1747 11.0566 16.7541C11.2534 16.5573 11.5349 16.4789 11.8128 16.4947C11.8747 16.4982 11.9372 16.5 12 16.5C13.7949 16.5 15.25 15.0449 15.25 13.25C15.25 13.1872 15.2482 13.1247 15.2447 13.0628C15.2289 12.7849 15.3073 12.5034 15.5041 12.3066Z" fill="#FAFAFA"/>
<path d="M15.0819 10.6075C15.3572 10.3322 15.3751 9.88516 15.0787 9.63268C14.2496 8.92633 13.1746 8.5 12 8.5C9.37665 8.5 7.25 10.6266 7.25 13.25C7.25 14.4246 7.67633 15.4996 8.38268 16.3287C8.63516 16.6251 9.08218 16.6072 9.35747 16.3319C9.66555 16.0238 9.63323 15.5193 9.37586 15.1678C8.98234 14.6302 8.75 13.9672 8.75 13.25C8.75 11.4551 10.2051 10 12 10C12.7172 10 13.3802 10.2323 13.9178 10.6259C14.2693 10.8832 14.7738 10.9156 15.0819 10.6075Z" fill="#FAFAFA"/>
</svg>
