<svg width="24" height="24" viewBox="0 0 24 24" fill="none" xmlns="http://www.w3.org/2000/svg">
<path d="M8.63238 2.99339L8.1341 2.43283V2.43283L8.63238 2.99339ZM15.3676 2.99339L15.8659 2.43283L15.3676 2.99339ZM15.1519 2.80161L14.6536 3.36217L15.1519 2.80161ZM8.84813 2.80161L9.3464 3.36217V3.36217L8.84813 2.80161ZM4.06107 21.045L4.50191 20.4383L4.06107 21.045ZM2.95491 19.9389L3.56168 19.498L2.95491 19.9389ZM21.0451 19.9389L20.4383 19.498L21.0451 19.9389ZM19.9389 21.045L19.4981 20.4383L19.9389 21.045ZM21.25 7.98488V12.9999H22.75V7.98488H21.25ZM13 21.2499H11V22.7499H13V21.2499ZM2.75 12.9999V7.98488H1.25V12.9999H2.75ZM14.6536 3.36217L14.8694 3.55395L15.8659 2.43283L15.6501 2.24105L14.6536 3.36217ZM9.13065 3.55395L9.3464 3.36217L8.34986 2.24105L8.1341 2.43283L9.13065 3.55395ZM5.98493 4.74995C7.14458 4.74995 8.26391 4.32438 9.13065 3.55395L8.1341 2.43283C7.54195 2.9592 6.77721 3.24995 5.98493 3.24995V4.74995ZM14.8694 3.55395C15.7361 4.32438 16.8554 4.74995 18.0151 4.74995V3.24995C17.2228 3.24995 16.4581 2.9592 15.8659 2.43283L14.8694 3.55395ZM15.6501 2.24105C13.5685 0.390678 10.4315 0.390678 8.34986 2.24105L9.3464 3.36217C10.8597 2.01697 13.1403 2.01697 14.6536 3.36217L15.6501 2.24105ZM11 21.2499C9.10843 21.2499 7.74999 21.2489 6.69804 21.1349C5.66013 21.0225 5.00992 20.8074 4.50191 20.4383L3.62023 21.6518C4.42656 22.2376 5.37094 22.4999 6.53648 22.6262C7.68798 22.751 9.14184 22.7499 11 22.7499V21.2499ZM1.25 12.9999C1.25 14.8581 1.24897 16.312 1.37373 17.4635C1.50001 18.629 1.76232 19.5734 2.34815 20.3797L3.56168 19.498C3.19259 18.99 2.97745 18.3398 2.865 17.3019C2.75103 16.25 2.75 14.8915 2.75 12.9999H1.25ZM4.50191 20.4383C4.14111 20.1761 3.82382 19.8588 3.56168 19.498L2.34815 20.3797C2.70281 20.8679 3.13209 21.2971 3.62023 21.6518L4.50191 20.4383ZM21.25 12.9999C21.25 14.8915 21.249 16.25 21.135 17.3019C21.0225 18.3398 20.8074 18.99 20.4383 19.498L21.6518 20.3797C22.2377 19.5734 22.5 18.629 22.6263 17.4635C22.751 16.312 22.75 14.8581 22.75 12.9999H21.25ZM13 22.7499C14.8582 22.7499 16.312 22.751 17.4635 22.6262C18.6291 22.4999 19.5734 22.2376 20.3798 21.6518L19.4981 20.4383C18.9901 20.8074 18.3399 21.0225 17.302 21.1349C16.25 21.2489 14.8916 21.2499 13 21.2499V22.7499ZM20.4383 19.498C20.1762 19.8588 19.8589 20.1761 19.4981 20.4383L20.3798 21.6518C20.8679 21.2971 21.2972 20.8679 21.6518 20.3797L20.4383 19.498ZM22.75 7.98488C22.75 5.36985 20.6301 3.24995 18.0151 3.24995V4.74995C19.8017 4.74995 21.25 6.19828 21.25 7.98488H22.75ZM2.75 7.98488C2.75 6.19828 4.19833 4.74995 5.98493 4.74995V3.24995C3.3699 3.24995 1.25 5.36985 1.25 7.98488H2.75ZM7.25 12.9999C7.25 15.6233 9.37665 17.7499 12 17.7499V16.2499C10.2051 16.2499 8.75 14.7949 8.75 12.9999H7.25ZM12 17.7499C14.6234 17.7499 16.75 15.6233 16.75 12.9999H15.25C15.25 14.7949 13.7949 16.2499 12 16.2499V17.7499ZM16.75 12.9999C16.75 10.3766 14.6234 8.24995 12 8.24995V9.74995C13.7949 9.74995 15.25 11.205 15.25 12.9999H16.75ZM12 8.24995C9.37665 8.24995 7.25 10.3766 7.25 12.9999H8.75C8.75 11.205 10.2051 9.74995 12 9.74995V8.24995Z" fill="#FAFAFA"/>
<path d="M17 8C17 8.55228 17.4477 9 18 9C18.5523 9 19 8.55228 19 8C19 7.44772 18.5523 7 18 7C17.4477 7 17 7.44772 17 8Z" fill="#FAFAFA"/>
</svg>
