<svg width="24" height="24" viewBox="0 0 24 24" fill="none" xmlns="http://www.w3.org/2000/svg">
<path d="M4.38751 20.7632L4.77938 20.1237L4.38751 20.7632ZM2.7368 19.1125L3.37628 18.7206H3.37628L2.7368 19.1125ZM21.2632 19.1125L20.6237 18.7206L21.2632 19.1125ZM19.6125 20.7632L19.2206 20.1237L19.6125 20.7632ZM21.25 8.42857V13H22.75V8.42857H21.25ZM13.5 20.75H10.5V22.25H13.5V20.75ZM2.75 13V8.42857H1.25V13H2.75ZM15.75 2.75V2.92857H17.25V2.75H15.75ZM8.25 2.92857V2.75H6.75V2.92857H8.25ZM8.25 2.75C8.25 2.19772 8.69772 1.75 9.25 1.75V0.25C7.86929 0.25 6.75 1.36929 6.75 2.75H8.25ZM14.75 1.75C15.3023 1.75 15.75 2.19772 15.75 2.75H17.25C17.25 1.36929 16.1307 0.25 14.75 0.25V1.75ZM5.92857 5.25C7.21066 5.25 8.25 4.21066 8.25 2.92857H6.75C6.75 3.38223 6.38223 3.75 5.92857 3.75V5.25ZM10.5 20.75C8.84876 20.75 7.663 20.7492 6.73809 20.6613C5.82434 20.5744 5.24291 20.4078 4.77938 20.1237L3.99563 21.4027C4.73445 21.8554 5.57256 22.0572 6.59611 22.1545C7.6085 22.2508 8.87781 22.25 10.5 22.25V20.75ZM1.25 13C1.25 14.6222 1.24921 15.8915 1.34547 16.9039C1.44279 17.9274 1.64457 18.7655 2.09732 19.5044L3.37628 18.7206C3.09223 18.2571 2.92561 17.6757 2.83873 16.7619C2.75079 15.837 2.75 14.6512 2.75 13H1.25ZM4.77938 20.1237C4.20752 19.7733 3.72672 19.2925 3.37628 18.7206L2.09732 19.5044C2.57144 20.2781 3.22194 20.9286 3.99563 21.4027L4.77938 20.1237ZM21.25 13C21.25 14.6512 21.2492 15.837 21.1613 16.7619C21.0744 17.6757 20.9078 18.2571 20.6237 18.7206L21.9027 19.5044C22.3554 18.7655 22.5572 17.9274 22.6545 16.9039C22.7508 15.8915 22.75 14.6222 22.75 13H21.25ZM13.5 22.25C15.1222 22.25 16.3915 22.2508 17.4039 22.1545C18.4274 22.0572 19.2655 21.8554 20.0044 21.4027L19.2206 20.1237C18.7571 20.4078 18.1757 20.5744 17.2619 20.6613C16.337 20.7492 15.1512 20.75 13.5 20.75V22.25ZM20.6237 18.7206C20.2733 19.2925 19.7925 19.7733 19.2206 20.1237L20.0044 21.4027C20.7781 20.9286 21.4286 20.2781 21.9027 19.5044L20.6237 18.7206ZM22.75 8.42857C22.75 5.84467 20.6553 3.75 18.0714 3.75V5.25C19.8269 5.25 21.25 6.6731 21.25 8.42857H22.75ZM18.0714 3.75C17.6178 3.75 17.25 3.38223 17.25 2.92857H15.75C15.75 4.21066 16.7893 5.25 18.0714 5.25V3.75ZM2.75 8.42857C2.75 6.6731 4.17309 5.25 5.92857 5.25V3.75C3.34467 3.75 1.25 5.84467 1.25 8.42857H2.75ZM7.25 12.5C7.25 15.1234 9.37665 17.25 12 17.25V15.75C10.2051 15.75 8.75 14.2949 8.75 12.5H7.25ZM12 17.25C14.6234 17.25 16.75 15.1234 16.75 12.5H15.25C15.25 14.2949 13.7949 15.75 12 15.75V17.25ZM16.75 12.5C16.75 9.87665 14.6234 7.75 12 7.75V9.25C13.7949 9.25 15.25 10.7051 15.25 12.5H16.75ZM12 7.75C9.37665 7.75 7.25 9.87665 7.25 12.5H8.75C8.75 10.7051 10.2051 9.25 12 9.25V7.75ZM9.25 1.75H14.75V0.25H9.25V1.75Z" fill="#FAFAFA"/>
<path d="M17 8.5C17 9.05228 17.4477 9.5 18 9.5C18.5523 9.5 19 9.05228 19 8.5C19 7.94772 18.5523 7.5 18 7.5C17.4477 7.5 17 7.94772 17 8.5Z" fill="#FAFAFA"/>
</svg>
