<svg width="24" height="24" viewBox="0 0 24 24" fill="none" xmlns="http://www.w3.org/2000/svg">
<path d="M2 22.1467L22 2.14673" stroke="#FAFAFA" stroke-width="1.5" stroke-linecap="round"/>
<path d="M15.6501 2.38778C13.5685 0.537406 10.4315 0.537406 8.34986 2.38778L8.1341 2.57956C7.54195 3.10593 6.77721 3.39668 5.98493 3.39668C3.3699 3.39668 1.25 5.51658 1.25 8.13161V13.1919C1.24999 15.0285 1.24999 16.4681 1.37373 17.6102C1.50001 18.7757 1.76232 19.7201 2.34815 20.5264C2.64594 20.9363 2.99633 21.3047 3.39001 21.6222C3.41372 21.6413 3.44813 21.6379 3.46967 21.6164L3.55774 21.5283C4.05317 21.0329 3.97351 20.2116 3.56168 19.6448C3.19259 19.1368 2.97745 18.4865 2.865 17.4486C2.75103 16.3967 2.75 15.0382 2.75 13.1467V8.13161C2.75 6.34501 4.19833 4.89668 5.98493 4.89668C7.14458 4.89668 8.26392 4.47111 9.13065 3.70068L9.3464 3.5089C10.8597 2.1637 13.1403 2.1637 14.6536 3.5089L14.8694 3.70068C15.7361 4.47111 16.8554 4.89668 18.0151 4.89668C18.4177 4.89668 18.8031 4.97023 19.1587 5.10464C19.4962 5.2322 19.8903 5.19572 20.1454 4.94061C20.4841 4.60192 20.4394 4.03535 20.0049 3.83383C19.3999 3.55327 18.7258 3.39668 18.0151 3.39668C17.2228 3.39668 16.4581 3.10593 15.8659 2.57956L15.6501 2.38778Z" fill="#FAFAFA"/>
<path d="M22.3129 6.14179C22.1113 5.70726 21.5448 5.66258 21.2061 6.00127C20.951 6.25638 20.9145 6.65051 21.042 6.98799C21.1764 7.34354 21.25 7.72899 21.25 8.13161V13.1467C21.25 15.0382 21.249 16.3967 21.135 17.4486C21.0225 18.4865 20.8074 19.1368 20.4383 19.6448C20.1762 20.0056 19.8589 20.3229 19.4981 20.585C18.9901 20.9541 18.3399 21.1692 17.302 21.2817C16.25 21.3956 14.8916 21.3967 13 21.3967H11C9.10843 21.3967 7.74999 21.3956 6.69804 21.2817C6.61289 21.2725 6.53035 21.2625 6.45028 21.2519C6.18212 21.2163 5.90895 21.2984 5.71767 21.4897C5.29157 21.9158 5.46518 22.6211 6.06094 22.7116C6.21529 22.735 6.37373 22.7553 6.53648 22.7729C7.67859 22.8967 9.11817 22.8967 10.9547 22.8967H13.0453C14.8818 22.8967 16.3214 22.8967 17.4635 22.7729C18.6291 22.6467 19.5734 22.3844 20.3798 21.7985C20.8679 21.4439 21.2972 21.0146 21.6518 20.5264C22.2377 19.7201 22.5 18.7757 22.6263 17.6102C22.75 16.4681 22.75 15.0285 22.75 13.192V8.13161C22.75 7.42089 22.5934 6.74674 22.3129 6.14179Z" fill="#FAFAFA"/>
<path d="M10.6209 16.5865C10.2313 16.976 10.3395 17.6326 10.8748 17.7626C11.2355 17.8502 11.6123 17.8967 12 17.8967C14.6234 17.8967 16.75 15.77 16.75 13.1467C16.75 12.759 16.7036 12.3822 16.6159 12.0215C16.4859 11.4862 15.8293 11.378 15.4398 11.7675C15.2224 11.9849 15.1551 12.3052 15.2056 12.6084C15.2348 12.7835 15.25 12.9633 15.25 13.1467C15.25 14.9416 13.7949 16.3967 12 16.3967C11.8166 16.3967 11.6368 16.3815 11.4617 16.3523C11.1585 16.3018 10.8382 16.3691 10.6209 16.5865Z" fill="#FAFAFA"/>
<path d="M14.7921 10.2939C14.5013 10.5847 14.0339 10.5785 13.6823 10.3654C13.1915 10.0679 12.6158 9.89668 12 9.89668C10.2051 9.89668 8.75 11.3518 8.75 13.1467C8.75 13.7624 8.92124 14.3382 9.21871 14.8289C9.43187 15.1806 9.43805 15.648 9.14727 15.9388C8.85191 16.2341 8.36662 16.2347 8.12474 15.8941C7.57387 15.1185 7.25 14.1704 7.25 13.1467C7.25 10.5233 9.37665 8.39668 12 8.39668C13.0238 8.39668 13.9719 8.72055 14.7475 9.27142C15.088 9.5133 15.0874 9.99858 14.7921 10.2939Z" fill="#FAFAFA"/>
</svg>
