<svg width="24" height="24" viewBox="0 0 24 24" fill="none" xmlns="http://www.w3.org/2000/svg">
<path d="M13.7257 12.0632L10.9034 17.3638C10.7646 17.6247 10.6951 17.7551 10.6185 17.8807C10.478 18.1107 10.3192 18.3291 10.1435 18.5335C10.0476 18.6451 9.94493 18.7514 9.73952 18.9638C7.91188 20.854 6.99806 21.7991 6.44145 21.9374C5.39691 22.1971 4.33419 21.5835 4.0368 20.5491C3.87833 19.9979 4.23989 18.7339 4.96301 16.2061C5.04428 15.922 5.08492 15.7799 5.13364 15.6411C5.22288 15.3867 5.33255 15.14 5.46157 14.9033C5.53199 14.7741 5.61022 14.6488 5.76667 14.3981L8.94601 9.30365M5.8167 4.89737C6.30916 4.27314 7.12884 4.00653 7.8943 4.2216L8.89726 4.50341C9.46268 4.66228 9.7454 4.74172 10.0311 4.73889C10.1476 4.73773 10.2637 4.72641 10.3782 4.70504C10.6591 4.65262 10.9236 4.51884 11.4525 4.25128C13.3486 3.29216 14.2966 2.8126 15.0815 3.06795C15.3075 3.14146 15.5186 3.25465 15.7048 3.40221C16.3518 3.91479 16.4756 4.95962 16.7232 7.04926L16.7723 7.46363C16.8404 8.03758 16.8744 8.32455 16.9841 8.58505C17.0147 8.65753 17.0494 8.72815 17.0883 8.79653C17.2279 9.0423 17.4347 9.24415 17.8483 9.64785L18.6527 10.433C19.2217 10.9884 19.4007 11.8315 19.1063 12.5701C18.6622 13.6846 17.3329 14.1458 16.2939 13.5459L6.37782 7.82089C5.33888 7.22105 5.07366 5.83923 5.8167 4.89737Z" stroke="#FAFAFA" stroke-width="1.5"/>
</svg>
