<svg width="24" height="24" viewBox="0 0 24 24" fill="none" xmlns="http://www.w3.org/2000/svg">
<path d="M2 3.06818C1.58579 3.06818 1.25 3.40397 1.25 3.81818C1.25 4.2324 1.58579 4.56818 2 4.56818V3.06818ZM22 20.9318C22.4142 20.9318 22.75 20.596 22.75 20.1818C22.75 19.7676 22.4142 19.4318 22 19.4318V20.9318ZM4.56818 2C4.56818 1.58579 4.2324 1.25 3.81818 1.25C3.40397 1.25 3.06818 1.58579 3.06818 2H4.56818ZM19.4319 22C19.4319 22.4142 19.7677 22.75 20.1819 22.75C20.5961 22.75 20.9319 22.4142 20.9319 22L19.4319 22ZM5.5 18.5L6.03033 19.0303H6.03033L5.5 18.5ZM22.0303 3.03033C22.3232 2.73744 22.3232 2.26256 22.0303 1.96967C21.7374 1.67678 21.2626 1.67678 20.9697 1.96967L22.0303 3.03033ZM3.81818 4.56818H10.1818V3.06818H3.81818V4.56818ZM19.4318 13.8182V20.1818H20.9318V13.8182H19.4318ZM20.1818 19.4318H13.8182V20.9318H20.1818V19.4318ZM4.56818 10.1818V3.81818H3.06818V10.1818H4.56818ZM13.8182 19.4318C11.44 19.4318 9.73173 19.4302 8.43176 19.2554C7.15336 19.0836 6.38263 18.7567 5.81298 18.187L4.75232 19.2477C5.64713 20.1425 6.78715 20.5478 8.23189 20.7421C9.65505 20.9334 11.4824 20.9318 13.8182 20.9318V19.4318ZM3.06818 10.1818C3.06818 12.5176 3.06659 14.345 3.25793 15.7681C3.45217 17.2128 3.85751 18.3529 4.75232 19.2477L5.81298 18.187C5.24332 17.6174 4.91643 16.8466 4.74455 15.5682C4.56977 14.2683 4.56818 12.56 4.56818 10.1818H3.06818ZM10.1818 4.56818C12.56 4.56818 14.2683 4.56977 15.5682 4.74455C16.8466 4.91643 17.6174 5.24332 18.187 5.81298L19.2477 4.75232C18.3529 3.85751 17.2128 3.45217 15.7681 3.25793C14.345 3.06659 12.5176 3.06818 10.1818 3.06818V4.56818ZM20.9318 13.8182C20.9318 11.4824 20.9334 9.65505 20.7421 8.23189C20.5478 6.78715 20.1425 5.64713 19.2477 4.75232L18.187 5.81298C18.7567 6.38263 19.0836 7.15336 19.2554 8.43176C19.4302 9.73174 19.4318 11.44 19.4318 13.8182H20.9318ZM2 4.56818H3.81818V3.06818H2V4.56818ZM22 19.4318H20.1818V20.9318H22V19.4318ZM3.06818 2V3.81818H4.56818V2H3.06818ZM20.9319 22L20.9318 20.1818L19.4318 20.1818L19.4319 22L20.9319 22ZM6.03033 19.0303L22.0303 3.03033L20.9697 1.96967L4.96967 17.9697L6.03033 19.0303ZM4.96967 17.9697L4.75232 18.187L5.81298 19.2477L6.03033 19.0303L4.96967 17.9697Z" fill="#FAFAFA"/>
</svg>
