<svg width="24" height="24" viewBox="0 0 24 24" fill="none" xmlns="http://www.w3.org/2000/svg">
<path d="M22.75 12C22.75 11.5858 22.4142 11.25 22 11.25C21.5858 11.25 21.25 11.5858 21.25 12H22.75ZM18.001 4L17.5505 4.59962L18.001 4ZM20 5.99903L19.4004 6.44953L19.4315 6.4909L19.4679 6.52761L20 5.99903ZM21.4873 0.996654C21.4854 0.582444 21.1482 0.248159 20.734 0.250007C20.3197 0.251856 19.9855 0.589137 19.9873 1.00335L21.4873 0.996654ZM20.7462 2.98571L21.4962 2.98237V2.98237L20.7462 2.98571ZM17.0662 6.66571L17.0628 7.41571L17.0662 6.66571ZM15.0838 5.90686C14.6696 5.90501 14.3323 6.2393 14.3305 6.65351C14.3286 7.06772 14.6629 7.405 15.0771 7.40685L15.0838 5.90686ZM20.3376 5.90267L20.9307 6.36169V6.36169L20.3376 5.90267ZM19.9831 6.25717L20.4421 6.85029L20.4421 6.85029L19.9831 6.25717ZM14.76 9.75C15.1742 9.75 15.51 9.41421 15.51 9C15.51 8.58579 15.1742 8.25 14.76 8.25V9.75ZM9 16.25C8.58579 16.25 8.25 16.5858 8.25 17C8.25 17.4142 8.58579 17.75 9 17.75V16.25ZM21.25 12C21.25 17.1086 17.1086 21.25 12 21.25V22.75C17.9371 22.75 22.75 17.9371 22.75 12H21.25ZM12 21.25C6.89137 21.25 2.75 17.1086 2.75 12H1.25C1.25 17.9371 6.06294 22.75 12 22.75V21.25ZM2.75 12C2.75 6.89137 6.89137 2.75 12 2.75V1.25C6.06294 1.25 1.25 6.06294 1.25 12H2.75ZM12 2.75C14.0836 2.75 16.0044 3.43804 17.5505 4.59962L18.4515 3.40038C16.6546 2.05032 14.4197 1.25 12 1.25V2.75ZM17.5505 4.59962C18.2508 5.12582 18.8742 5.74916 19.4004 6.44953L20.5996 5.54852C19.9886 4.73519 19.2648 4.01145 18.4515 3.40038L17.5505 4.59962ZM19.9873 1.00335L19.9962 2.98906L21.4962 2.98237L21.4873 0.996654L19.9873 1.00335ZM17.0695 5.91572L15.0838 5.90686L15.0771 7.40685L17.0628 7.41571L17.0695 5.91572ZM19.9962 2.98906C19.9998 3.79848 20.0011 4.34217 19.9562 4.75351C19.9129 5.14976 19.8347 5.32713 19.7445 5.44365L20.9307 6.36169C21.2597 5.93661 21.3893 5.44728 21.4473 4.91635C21.5036 4.4005 21.4996 3.75651 21.4962 2.98237L19.9962 2.98906ZM17.0628 7.41571C17.837 7.41916 18.481 7.42317 18.9968 7.36684C19.5277 7.30886 20.0171 7.17926 20.4421 6.85029L19.5241 5.66404C19.4076 5.75421 19.2302 5.83243 18.834 5.8757C18.4226 5.92062 17.8789 5.91933 17.0695 5.91572L17.0628 7.41571ZM14.76 8.25H11V9.75H14.76V8.25ZM8.25 11V12H9.75V11H8.25ZM10 13.75H14V12.25H10V13.75ZM14.25 14V15H15.75V14H14.25ZM13 16.25H9V17.75H13V16.25ZM14.25 15C14.25 15.6904 13.6904 16.25 13 16.25V17.75C14.5188 17.75 15.75 16.5188 15.75 15H14.25ZM14 13.75C14.1381 13.75 14.25 13.8619 14.25 14H15.75C15.75 13.0335 14.9665 12.25 14 12.25V13.75ZM8.25 12C8.25 12.9665 9.0335 13.75 10 13.75V12.25C9.86193 12.25 9.75 12.1381 9.75 12H8.25ZM11 8.25C9.48122 8.25 8.25 9.48122 8.25 11H9.75C9.75 10.3096 10.3096 9.75 11 9.75V8.25ZM19.7445 5.44365C19.7053 5.49423 19.6624 5.54163 19.616 5.58545L20.6458 6.67607C20.7487 6.57891 20.844 6.47382 20.9307 6.36169L19.7445 5.44365ZM19.616 5.58545C19.5867 5.61311 19.556 5.63933 19.5241 5.66404L20.4421 6.85029C20.5129 6.79553 20.5809 6.73738 20.6458 6.67607L19.616 5.58545ZM19.4679 6.52761L19.5988 6.65935L20.6629 5.60217L20.5321 5.47044L19.4679 6.52761Z" fill="#FAFAFA"/>
</svg>
