<svg width="24" height="24" viewBox="0 0 24 24" fill="none" xmlns="http://www.w3.org/2000/svg">
<path d="M7.94737 7.91873C10.2272 9.25805 11.3672 9.92772 11.7497 10.802C12.0834 11.5646 12.0834 12.4354 11.7497 13.198C11.3672 14.0723 10.2272 14.7419 7.94737 16.0813C5.6675 17.4206 4.52756 18.0903 3.59215 17.9902C2.77625 17.903 2.03506 17.4675 1.55285 16.7922C1 16.018 1 14.6786 1 12C1 9.32135 1 7.98203 1.55285 7.20778C2.03506 6.53245 2.77626 6.09703 3.59215 6.00978C4.52756 5.90974 5.6675 6.57941 7.94737 7.91873Z" stroke="#FAFAFA" stroke-width="1.5"/>
<path d="M18.9474 7.91873C21.2272 9.25805 22.3672 9.92772 22.7497 10.802C23.0834 11.5646 23.0834 12.4354 22.7497 13.198C22.3672 14.0723 21.2272 14.7419 18.9474 16.0813C16.6675 17.4206 15.5276 18.0903 14.5922 17.9902C13.7763 17.903 13.0351 17.4675 12.5528 16.7922C12 16.018 12 14.6786 12 12C12 9.32135 12 7.98203 12.5528 7.20778C13.0351 6.53245 13.7763 6.09703 14.5922 6.00978C15.5276 5.90974 16.6675 6.57941 18.9474 7.91873Z" stroke="#FAFAFA" stroke-width="1.5"/>
</svg>
