<svg width="24" height="24" viewBox="0 0 24 24" fill="none" xmlns="http://www.w3.org/2000/svg">
<path d="M6.46967 10.4697C6.17678 10.7626 6.17678 11.2374 6.46967 11.5303C6.76256 11.8232 7.23744 11.8232 7.53033 11.5303L6.46967 10.4697ZM8.25 16C8.25 16.4142 8.58579 16.75 9 16.75C9.41421 16.75 9.75 16.4142 9.75 16H8.25ZM22.75 12C22.75 11.5858 22.4142 11.25 22 11.25C21.5858 11.25 21.25 11.5858 21.25 12H22.75ZM18.001 4L17.5505 4.59962L18.001 4ZM20 5.99903L19.4004 6.44953L19.4215 6.47765L19.4452 6.50367L20 5.99903ZM21.4873 0.996654C21.4854 0.582444 21.1482 0.248159 20.734 0.250007C20.3197 0.251856 19.9855 0.589137 19.9873 1.00335L21.4873 0.996654ZM20.7462 2.98571L21.4962 2.98237V2.98237L20.7462 2.98571ZM17.0662 6.66571L17.0628 7.41571L17.0662 6.66571ZM15.0838 5.90686C14.6696 5.90501 14.3323 6.2393 14.3305 6.65351C14.3286 7.06772 14.6629 7.405 15.0771 7.40685L15.0838 5.90686ZM20.3376 5.90267L20.9307 6.36169V6.36169L20.3376 5.90267ZM19.9831 6.25717L20.4421 6.85029L20.4421 6.85029L19.9831 6.25717ZM8.25 10.4142V16H9.75V10.4142H8.25ZM16.25 12V14H17.75V12H16.25ZM13.75 14V12H12.25V14H13.75ZM15 15.25C14.3096 15.25 13.75 14.6904 13.75 14H12.25C12.25 15.5188 13.4812 16.75 15 16.75V15.25ZM16.25 14C16.25 14.6904 15.6904 15.25 15 15.25V16.75C16.5188 16.75 17.75 15.5188 17.75 14H16.25ZM15 10.75C15.6904 10.75 16.25 11.3096 16.25 12H17.75C17.75 10.4812 16.5188 9.25 15 9.25V10.75ZM15 9.25C13.4812 9.25 12.25 10.4812 12.25 12H13.75C13.75 11.3096 14.3096 10.75 15 10.75V9.25ZM21.25 12C21.25 17.1086 17.1086 21.25 12 21.25V22.75C17.9371 22.75 22.75 17.9371 22.75 12H21.25ZM12 21.25C6.89137 21.25 2.75 17.1086 2.75 12H1.25C1.25 17.9371 6.06294 22.75 12 22.75V21.25ZM2.75 12C2.75 6.89137 6.89137 2.75 12 2.75V1.25C6.06294 1.25 1.25 6.06294 1.25 12H2.75ZM12 2.75C14.0836 2.75 16.0044 3.43804 17.5505 4.59962L18.4515 3.40038C16.6546 2.05032 14.4197 1.25 12 1.25V2.75ZM17.5505 4.59962C18.2508 5.12582 18.8742 5.74916 19.4004 6.44953L20.5996 5.54852C19.9886 4.73519 19.2648 4.01145 18.4515 3.40038L17.5505 4.59962ZM19.9873 1.00335L19.9962 2.98906L21.4962 2.98237L21.4873 0.996654L19.9873 1.00335ZM17.0695 5.91572L15.0838 5.90686L15.0771 7.40685L17.0628 7.41571L17.0695 5.91572ZM19.9962 2.98906C19.9998 3.79848 20.0011 4.34217 19.9562 4.75351C19.9129 5.14976 19.8347 5.32713 19.7445 5.44365L20.9307 6.36169C21.2597 5.93661 21.3893 5.44728 21.4473 4.91635C21.5036 4.4005 21.4996 3.75651 21.4962 2.98237L19.9962 2.98906ZM17.0628 7.41571C17.837 7.41916 18.481 7.42317 18.9968 7.36684C19.5277 7.30886 20.0171 7.17926 20.4421 6.85029L19.5241 5.66404C19.4076 5.75421 19.2302 5.83243 18.834 5.8757C18.4226 5.92062 17.8789 5.91933 17.0695 5.91572L17.0628 7.41571ZM19.7445 5.44365C19.7043 5.49558 19.6601 5.54415 19.6123 5.58893L20.6376 6.68379C20.7436 6.58449 20.8417 6.4768 20.9307 6.36169L19.7445 5.44365ZM19.6123 5.58893C19.5841 5.61531 19.5547 5.64037 19.5241 5.66404L20.4421 6.85029C20.5099 6.79784 20.5751 6.74227 20.6376 6.68379L19.6123 5.58893ZM19.4452 6.50367L19.5701 6.64101L20.6797 5.63172L20.5548 5.49438L19.4452 6.50367ZM7.46967 9.46967L6.46967 10.4697L7.53033 11.5303L8.53033 10.5303L7.46967 9.46967ZM9.75 10.4142C9.75 9.22416 8.31117 8.62817 7.46967 9.46967L8.53033 10.5303C8.51193 10.5487 8.47953 10.5678 8.43995 10.5746C8.40447 10.5808 8.37429 10.5754 8.35137 10.5659C8.32845 10.5564 8.30331 10.5389 8.28257 10.5095C8.25944 10.4766 8.25 10.4402 8.25 10.4142H9.75Z" fill="#FAFAFA"/>
</svg>
