<svg width="24" height="24" viewBox="0 0 24 24" fill="none" xmlns="http://www.w3.org/2000/svg">
<path d="M3.25 18.25L20.25 1.25" stroke="#FAFAFA" stroke-width="1.5" stroke-linecap="round"/>
<path d="M7.98542 16.5752C7.62989 16.9308 7.70492 17.5272 8.16344 17.7335C8.97426 18.0984 9.85069 18.3433 10.7701 18.4457C10.9103 18.4614 11 18.609 11 18.75V20.0465C11 20.4222 10.7199 20.7345 10.3554 20.8256L9.5681 21.0224C9.16625 21.1229 8.92193 21.5301 9.02239 21.9319C9.12285 22.3337 9.53006 22.5781 9.9319 22.4776L10.7192 22.2808C11.396 22.1116 12.104 22.1116 12.7808 22.2808L13.5681 22.4776C13.9699 22.5781 14.3771 22.3337 14.4776 21.9319C14.5781 21.5301 14.3337 21.1229 13.9319 21.0224L13.1446 20.8256C12.7801 20.7345 12.5 20.4222 12.5 20.0465V18.75C12.5 18.609 12.5901 18.4613 12.7303 18.4457C17.1013 17.9584 20.5 14.2511 20.5 9.75C20.5 9.33579 20.1642 9 19.75 9C19.3358 9 19 9.33579 19 9.75C19 13.7541 15.7541 17 11.75 17C10.7376 17 9.77373 16.7925 8.89849 16.4177C8.58837 16.2849 8.22397 16.3367 7.98542 16.5752Z" fill="#FAFAFA"/>
<path d="M11.2917 13.269C10.8335 13.7271 11.0351 14.4906 11.683 14.4995C11.7053 14.4998 11.7276 14.5 11.75 14.5C14.3734 14.5 16.5 12.3734 16.5 9.75C16.5 9.12659 15.7463 8.81439 15.3055 9.2552L15.1339 9.42678C15.0482 9.5125 15 9.62877 15 9.75C15 11.5449 13.5449 13 11.75 13C11.6327 13 11.5184 13.0423 11.4355 13.1252L11.2917 13.269Z" fill="#FAFAFA"/>
<path d="M9.30003 11.8855C9.60232 12.232 9.66468 12.7747 9.33952 13.0998C9.08387 13.3555 8.67428 13.3878 8.41671 13.134C7.54218 12.2725 7 11.0746 7 9.75V5.75C7 3.12665 9.12665 1 11.75 1C14.3734 1 16.5 3.12665 16.5 5.75C16.5 5.87123 16.4518 5.9875 16.3661 6.07322L16.1945 6.2448C15.7537 6.68561 15 6.37341 15 5.75C15 3.95507 13.5449 2.5 11.75 2.5C9.95507 2.5 8.5 3.95507 8.5 5.75V9.75C8.5 10.5674 8.80179 11.3144 9.30003 11.8855Z" fill="#FAFAFA"/>
<path d="M6.51839 14.7693C6.82148 15.0851 6.8476 15.5917 6.53809 15.9013C6.26289 16.1764 5.81949 16.1954 5.54508 15.9194C3.97207 14.3374 3 12.1572 3 9.75C3 9.33579 3.33579 9 3.75 9C4.16421 9 4.5 9.33579 4.5 9.75C4.5 11.698 5.26829 13.4666 6.51839 14.7693Z" fill="#FAFAFA"/>
</svg>
