<svg width="24" height="24" viewBox="0 0 24 24" fill="none" xmlns="http://www.w3.org/2000/svg">
<path d="M20.75 10C20.75 9.58579 20.4142 9.25 20 9.25C19.5858 9.25 19.25 9.58579 19.25 10H20.75ZM4.75 10C4.75 9.58579 4.41421 9.25 4 9.25C3.58579 9.25 3.25 9.58579 3.25 10H4.75ZM12 21H11.25V21.0133L11.2505 21.0267L12 21ZM9.8181 21.2724C9.41625 21.3729 9.17193 21.7801 9.27239 22.1819C9.37285 22.5837 9.78006 22.8281 10.1819 22.7276L9.8181 21.2724ZM10.7873 21.8032L10.6054 21.0756L10.7873 21.8032ZM13.2127 21.8032L13.3946 21.0756L13.2127 21.8032ZM13.8181 22.7276C14.2199 22.8281 14.6271 22.5837 14.7276 22.1819C14.8281 21.7801 14.5837 21.3729 14.1819 21.2724L13.8181 22.7276ZM12.7372 5.78849C12.3442 5.6575 11.9195 5.86987 11.7885 6.26283C11.6575 6.65578 11.8699 7.08052 12.2628 7.21151L12.7372 5.78849ZM12.6187 6.53957L12.3815 7.25108L12.3815 7.25108L12.6187 6.53957ZM12.1819 8.77239C11.7801 8.67193 11.3729 8.91625 11.2724 9.3181C11.1719 9.71994 11.4163 10.1271 11.8181 10.2276L12.1819 8.77239ZM12.7873 9.69683L12.6054 10.4244L12.7873 9.69683ZM15.2127 9.69683L15.3946 10.4244L15.2127 9.69683ZM15.25 6V10H16.75V6H15.25ZM8.75 10V6H7.25V10H8.75ZM12 13.25C10.2051 13.25 8.75 11.7949 8.75 10H7.25C7.25 12.6234 9.37665 14.75 12 14.75V13.25ZM15.25 10C15.25 11.7949 13.7949 13.25 12 13.25V14.75C14.6234 14.75 16.75 12.6234 16.75 10H15.25ZM12 2.75C13.7949 2.75 15.25 4.20507 15.25 6H16.75C16.75 3.37665 14.6234 1.25 12 1.25V2.75ZM12 1.25C9.37665 1.25 7.25 3.37665 7.25 6H8.75C8.75 4.20507 10.2051 2.75 12 2.75V1.25ZM19.25 10C19.25 14.0041 16.0041 17.25 12 17.25V18.75C16.8325 18.75 20.75 14.8325 20.75 10H19.25ZM12 17.25C7.99594 17.25 4.75 14.0041 4.75 10H3.25C3.25 14.8325 7.16751 18.75 12 18.75V17.25ZM11.25 18V21H12.75V18H11.25ZM10.1819 22.7276L10.9692 22.5308L10.6054 21.0756L9.8181 21.2724L10.1819 22.7276ZM13.0308 22.5308L13.8181 22.7276L14.1819 21.2724L13.3946 21.0756L13.0308 22.5308ZM12.2628 7.21151L12.3815 7.25108L12.8559 5.82806L12.7372 5.78849L12.2628 7.21151ZM12.3815 7.25108C13.419 7.5969 14.5335 7.6397 15.5944 7.37447L15.2306 5.91926C14.4465 6.1153 13.6227 6.08366 12.8559 5.82806L12.3815 7.25108ZM11.8181 10.2276L12.6054 10.4244L12.9692 8.96922L12.1819 8.77239L11.8181 10.2276ZM15.3946 10.4244L16.1819 10.2276L15.8181 8.77239L15.0308 8.96922L15.3946 10.4244ZM12.6054 10.4244C13.5211 10.6533 14.479 10.6533 15.3946 10.4244L15.0308 8.96922C14.354 9.13842 13.646 9.13842 12.9692 8.96922L12.6054 10.4244ZM15.25 9.5V10H16.75V9.5H15.25ZM15.25 7.10555V9.5H16.75V7.10555H15.25ZM10.9692 22.5308C11.3141 22.4446 11.667 22.4023 12.0198 22.4039L12.0268 20.9039C11.5495 20.9017 11.072 20.9589 10.6054 21.0756L10.9692 22.5308ZM12.0198 22.4039C12.3594 22.4055 12.6988 22.4478 13.0308 22.5308L13.3946 21.0756C12.9455 20.9633 12.4862 20.9061 12.0268 20.9039L12.0198 22.4039ZM11.2505 21.0267L11.2737 21.6806L12.7728 21.6273L12.7495 20.9733L11.2505 21.0267ZM15.5944 7.37447C15.4195 7.41821 15.25 7.28589 15.25 7.10555H16.75C16.75 6.31003 16.0024 5.72632 15.2306 5.91926L15.5944 7.37447Z" fill="#FAFAFA"/>
</svg>
