<svg width="24" height="24" viewBox="0 0 24 24" fill="none" xmlns="http://www.w3.org/2000/svg">
<path d="M10 18.4782C10 20.135 8.65685 21.4782 7 21.4782C5.34315 21.4782 4 20.135 4 18.4782C4 16.8213 5.34315 15.4782 7 15.4782C8.65685 15.4782 10 16.8213 10 18.4782ZM10 18.4782V9.47816M20 15.4782C20 17.135 18.6569 18.4782 17 18.4782C15.3431 18.4782 14 17.135 14 15.4782C14 13.8213 15.3431 12.4782 17 12.4782C18.6569 12.4782 20 13.8213 20 15.4782ZM20 15.4782V6.47816M10 9.47816L20 6.47816M10 9.47816V5.98676C10 5.0938 10.592 4.30903 11.4506 4.06371L13.5 3.47816L18.0884 2.06633C19.0383 1.77405 20 2.48432 20 3.47816V6.47816" stroke="#FAFAFA" stroke-width="1.5" stroke-linecap="round"/>
</svg>
