<svg width="24" height="24" viewBox="0 0 24 24" fill="none" xmlns="http://www.w3.org/2000/svg">
<path d="M14.5 18.8437C14.5 20.0346 13.4926 21 12.25 21C11.0074 21 10 20.0346 10 18.8437C10 17.6529 11.0074 16.6875 12.25 16.6875C13.4926 16.6875 14.5 17.6529 14.5 18.8437ZM14.5 18.8437V12.375M22 16.6875C22 17.8783 20.9926 18.8437 19.75 18.8437C18.5074 18.8437 17.5 17.8783 17.5 16.6875C17.5 15.4966 18.5074 14.5312 19.75 14.5312C20.9926 14.5312 22 15.4966 22 16.6875ZM22 16.6875V10.2187M14.5 12.375L22 10.2187M14.5 12.375V9.8655C14.5 9.22368 14.944 8.65962 15.5879 8.4833L17.125 8.06243L20.5663 7.04767C21.2787 6.8376 22 7.34811 22 8.06243V10.2187M18 3H2M10 9H2M8 15H2M6 21H2" stroke="#FAFAFA" stroke-width="1.5" stroke-linecap="round"/>
</svg>
