<svg width="24" height="24" viewBox="0 0 24 24" fill="none" xmlns="http://www.w3.org/2000/svg">
<path d="M12.3739 8.38676L12.0188 9.04732H12.0188L12.3739 8.38676ZM11.7585 8.02316L11.2968 8.61418L11.7585 8.02316ZM10.9866 6.08807L11.7366 6.08164L10.9866 6.08807ZM11.0215 6.80204L11.7596 6.66894L11.0215 6.80204ZM19.5805 7.84427L20.3305 7.84426L19.5805 7.84427ZM19.4723 9.56437L18.7629 9.32106L19.4723 9.56437ZM15.6898 10.1697L16.045 9.50916L15.6898 10.1697ZM17.256 10.8891L17.1343 11.6291L17.256 10.8891ZM18.1848 5.51579L18.5383 4.85435L18.1848 5.51579ZM18.8126 5.88514L18.3505 6.47591L18.8126 5.88514ZM19.5506 7.11652L20.2895 6.98751L19.5506 7.11652ZM14.8645 3.74109L14.511 4.40253L14.8645 3.74109ZM13.2998 3.02634L13.1789 3.76653L13.2998 3.02634ZM11.0791 4.37033L11.791 4.60653L11.0791 4.37033ZM11.75 5.14798C11.75 4.73377 11.4142 4.39798 11 4.39798C10.5858 4.39798 10.25 4.73377 10.25 5.14798H11.75ZM11 17.148H11.75H11ZM14.511 4.40253L17.8312 6.17724L18.5383 4.85435L15.218 3.07965L14.511 4.40253ZM16.045 9.50916L12.7291 7.7262L12.0188 9.04732L15.3346 10.8303L16.045 9.50916ZM12.7291 7.7262C12.3845 7.54091 12.2921 7.4883 12.2202 7.43214L11.2968 8.61418C11.4932 8.76765 11.7216 8.88756 12.0188 9.04732L12.7291 7.7262ZM10.2367 6.0945C10.2395 6.43182 10.2392 6.68981 10.2834 6.93514L11.7596 6.66894C11.7434 6.57917 11.74 6.47288 11.7366 6.08164L10.2367 6.0945ZM12.2202 7.43214C11.9781 7.24299 11.8141 6.9713 11.7596 6.66894L10.2834 6.93514C10.4034 7.60034 10.7641 8.19806 11.2968 8.61418L12.2202 7.43214ZM18.8305 7.84428C18.8305 8.32026 18.8303 8.64955 18.8179 8.9002C18.8053 9.15354 18.7822 9.26481 18.7629 9.32106L20.1817 9.80768C20.2706 9.54852 20.3015 9.26797 20.316 8.97424C20.3307 8.6778 20.3305 8.30474 20.3305 7.84426L18.8305 7.84428ZM15.3346 10.8303C15.7402 11.0484 16.0686 11.2252 16.3367 11.3527C16.6023 11.479 16.864 11.5847 17.1343 11.6291L17.3777 10.149C17.319 10.1393 17.21 10.1071 16.981 9.99812C16.7543 9.89033 16.4642 9.73457 16.045 9.50916L15.3346 10.8303ZM18.7629 9.32106C18.565 9.89804 17.9796 10.2479 17.3777 10.149L17.1343 11.6291C18.4585 11.8468 19.7464 11.077 20.1817 9.80768L18.7629 9.32106ZM17.8312 6.17724C18.183 6.36526 18.2774 6.41872 18.3505 6.47591L19.2746 5.29436C19.0747 5.13804 18.8416 5.01644 18.5383 4.85435L17.8312 6.17724ZM20.3305 7.84426C20.3305 7.50041 20.3331 7.23747 20.2895 6.98751L18.8118 7.24553C18.8278 7.33697 18.8305 7.44541 18.8305 7.84428L20.3305 7.84426ZM18.3505 6.47591C18.5942 6.66652 18.7586 6.94074 18.8118 7.24553L20.2895 6.98751C20.1724 6.31698 19.8108 5.71369 19.2746 5.29436L18.3505 6.47591ZM15.218 3.07965C14.8125 2.86287 14.4841 2.68712 14.2164 2.56049C13.9513 2.43508 13.69 2.33015 13.4207 2.28615L13.1789 3.76653C13.2371 3.77605 13.3459 3.80808 13.575 3.91646C13.8016 4.02362 14.0918 4.17849 14.511 4.40253L15.218 3.07965ZM11.7366 6.08164C11.7325 5.60638 11.7299 5.27744 11.7401 5.02703C11.7503 4.77377 11.7724 4.66256 11.791 4.60653L10.3673 4.13414C10.2814 4.39317 10.2532 4.67327 10.2413 4.96633C10.2293 5.26224 10.2327 5.63464 10.2367 6.0945L11.7366 6.08164ZM13.4207 2.28615C12.0871 2.06832 10.7928 2.85163 10.3673 4.13414L11.791 4.60653C11.9844 4.02357 12.5727 3.66752 13.1789 3.76653L13.4207 2.28615ZM10.25 5.14798L10.25 17.148H11.75L11.75 5.14798H10.25ZM4.25 17.148C4.25 19.219 5.92893 20.898 8 20.898V19.398C6.75736 19.398 5.75 18.3906 5.75 17.148H4.25ZM8 20.898C10.0711 20.898 11.75 19.219 11.75 17.148H10.25C10.25 18.3906 9.24264 19.398 8 19.398V20.898ZM11.75 17.148C11.75 15.0769 10.0711 13.398 8 13.398V14.898C9.24264 14.898 10.25 15.9053 10.25 17.148H11.75ZM8 13.398C5.92893 13.398 4.25 15.0769 4.25 17.148H5.75C5.75 15.9053 6.75736 14.898 8 14.898V13.398Z" fill="#FAFAFA"/>
</svg>
