<svg width="24" height="24" viewBox="0 0 24 24" fill="none" xmlns="http://www.w3.org/2000/svg">
<path d="M6.55285 7.20778L5.94248 6.77195H5.94248L6.55285 7.20778ZM12.9474 7.91873L13.3273 7.27206L12.9474 7.91873ZM8.59216 6.00978L8.5124 5.26403L8.59216 6.00978ZM8.59215 17.9902L8.5124 18.736L8.59215 17.9902ZM6.55284 16.7922L7.16321 16.3564L6.55284 16.7922ZM16.7497 13.198L16.0626 12.8974L16.7497 13.198ZM16.7497 10.802L16.0626 11.1027L16.7497 10.802ZM19.75 6C19.75 5.58579 19.4142 5.25 19 5.25C18.5858 5.25 18.25 5.58579 18.25 6H19.75ZM18.25 18C18.25 18.4142 18.5858 18.75 19 18.75C19.4142 18.75 19.75 18.4142 19.75 18H18.25ZM6.75 12C6.75 10.6461 6.75073 9.68185 6.81608 8.95709C6.88183 8.22785 7.0056 7.86435 7.16322 7.64361L5.94248 6.77195C5.54725 7.32545 5.3946 8.01875 5.32214 8.82239C5.24927 9.63051 5.25 10.6752 5.25 12H6.75ZM13.3273 7.27206C12.2002 6.60998 11.31 6.08613 10.5842 5.74553C9.86233 5.4068 9.18921 5.19165 8.5124 5.26403L8.67191 6.75553C8.93051 6.72787 9.29506 6.79754 9.94698 7.10346C10.5949 7.40751 11.4146 7.88816 12.5675 8.5654L13.3273 7.27206ZM7.16322 7.64361C7.52255 7.14038 8.07177 6.81971 8.67191 6.75553L8.5124 5.26403C7.48075 5.37436 6.54757 5.92453 5.94248 6.77195L7.16322 7.64361ZM12.5675 15.4346C11.4146 16.1118 10.5949 16.5925 9.94698 16.8965C9.29506 17.2025 8.9305 17.2721 8.67191 17.2445L8.5124 18.736C9.18921 18.8083 9.86233 18.5932 10.5842 18.2545C11.31 17.9139 12.2002 17.39 13.3273 16.7279L12.5675 15.4346ZM5.25 12C5.25 13.3248 5.24927 14.3695 5.32214 15.1776C5.39459 15.9813 5.54725 16.6745 5.94248 17.228L7.16321 16.3564C7.0056 16.1356 6.88183 15.7722 6.81607 15.0429C6.75073 14.3181 6.75 13.3539 6.75 12H5.25ZM8.67191 17.2445C8.07177 17.1803 7.52255 16.8596 7.16321 16.3564L5.94248 17.228C6.54757 18.0755 7.48074 18.6256 8.5124 18.736L8.67191 17.2445ZM13.3273 16.7279C14.4544 16.0658 15.3452 15.5434 15.9978 15.0742C16.6481 14.6067 17.1633 14.1237 17.4368 13.4987L16.0626 12.8974C15.9536 13.1466 15.7076 13.4355 15.1223 13.8563C14.5393 14.2754 13.7202 14.7574 12.5675 15.4346L13.3273 16.7279ZM12.5675 8.5654C13.7202 9.24259 14.5393 9.72464 15.1223 10.1437C15.7076 10.5645 15.9536 10.8534 16.0626 11.1027L17.4368 10.5013C17.1633 9.8763 16.6481 9.39325 15.9978 8.92578C15.3452 8.45664 14.4544 7.9342 13.3273 7.27206L12.5675 8.5654ZM17.4368 13.4987C17.8544 12.5444 17.8544 11.4556 17.4368 10.5013L16.0626 11.1027C16.3125 11.6736 16.3125 12.3264 16.0626 12.8974L17.4368 13.4987ZM18.25 6V18H19.75V6H18.25Z" fill="#FAFAFA"/>
</svg>
