<svg width="24" height="24" viewBox="0 0 24 24" fill="none" xmlns="http://www.w3.org/2000/svg">
<path d="M12.1963 2H11.8115C6.39277 2 2 6.39277 2 11.8115V12.1962C2 16.7152 5.23178 20.5876 9.67788 21.396C11.2846 21.6881 12.6881 20.2846 12.396 18.6779L12 16.5C11.5164 13.8399 13.8399 11.5164 16.5 12L18.6779 12.396C20.2846 12.6881 21.6881 11.2846 21.396 9.67788C20.5876 5.23178 16.7152 2 12.1963 2Z" stroke="#FAFAFA" stroke-width="1.5"/>
<path d="M14 8C14 8.55228 13.5523 9 13 9C12.4477 9 12 8.55228 12 8C12 7.44772 12.4477 7 13 7C13.5523 7 14 7.44772 14 8Z" fill="#FAFAFA"/>
<path d="M10 7C10 7.55228 9.55228 8 9 8C8.44772 8 8 7.55228 8 7C8 6.44772 8.44772 6 9 6C9.55228 6 10 6.44772 10 7Z" fill="#FAFAFA"/>
<path d="M8 10C8 10.5523 7.55228 11 7 11C6.44772 11 6 10.5523 6 10C6 9.44772 6.44772 9 7 9C7.55228 9 8 9.44772 8 10Z" fill="#FAFAFA"/>
<path d="M9 14C9 14.5523 8.55228 15 8 15C7.44772 15 7 14.5523 7 14C7 13.4477 7.44772 13 8 13C8.55228 13 9 13.4477 9 14Z" fill="#FAFAFA"/>
</svg>
