<svg width="24" height="24" viewBox="0 0 24 24" fill="none" xmlns="http://www.w3.org/2000/svg">
<g clip-path="url(#clip0_20_6355)">
<path d="M12.3478 9.9259C13.0166 10.5947 13.0166 11.679 12.3478 12.3478C11.679 13.0166 10.5947 13.0166 9.9259 12.3478C9.25712 11.679 9.25712 10.5947 9.9259 9.9259C10.5947 9.25712 11.679 9.25712 12.3478 9.9259Z" fill="#FAFAFA"/>
<path d="M6.46361 16.4326L6.09307 17.0846H6.09307L6.46361 16.4326ZM4.14957 14.9224L3.62314 15.4566L4.14957 14.9224ZM2.78593 9.51652L3.53373 9.5739L2.78593 9.51652ZM2.74417 12.2794L3.48141 12.1417L2.74417 12.2794ZM14.6127 18.03L14.2131 17.3953L14.6127 18.03ZM8.34145 17.4996L8.71199 16.8476L8.34145 17.4996ZM10.5037 18.5853L10.287 19.3033L10.5037 18.5853ZM17.4995 8.34158L18.1516 7.97104L17.4995 8.34158ZM18.5851 10.5038L19.3031 10.2871L18.5851 10.5038ZM18.0299 14.6128L17.3952 14.2132L18.0299 14.6128ZM9.5164 2.78605L9.57378 3.53385L9.5164 2.78605ZM12.2793 2.74429L12.1416 3.48153L12.2793 2.74429ZM16.4324 6.46374L15.7804 6.83428L16.4324 6.46374ZM14.9222 4.14969L15.4564 3.62326L14.9222 4.14969ZM5.95631 3.32601L6.2513 4.01556V4.01556L5.95631 3.32601ZM3.32589 5.95643L4.01544 6.25142H4.01544L3.32589 5.95643ZM12.9179 19.0431L13.4482 18.5128L13.4482 18.5128L12.9179 19.0431ZM5.0069 3.94628C4.71401 3.65339 4.23913 3.65339 3.94624 3.94628C3.65335 4.23918 3.65335 4.71405 3.94624 5.00694L5.0069 3.94628ZM9.39547 10.4562C9.68836 10.7491 10.1632 10.7491 10.4561 10.4562C10.749 10.1633 10.749 9.6884 10.4561 9.39551L9.39547 10.4562ZM18.7523 12.6274L18.0092 12.5257L18.7523 12.6274ZM12.6272 18.7524L12.5255 18.0094L12.6272 18.7524ZM15.7804 6.83428L16.8474 8.71212L18.1516 7.97104L17.0845 6.0932L15.7804 6.83428ZM8.71199 16.8476L6.83415 15.7805L6.09307 17.0846L7.97091 18.1517L8.71199 16.8476ZM6.83415 15.7805C5.56648 15.0601 5.057 14.7636 4.676 14.3882L3.62314 15.4566C4.17813 16.0035 4.89934 16.4063 6.09307 17.0846L6.83415 15.7805ZM2.03812 9.45914C1.93308 10.8281 1.8638 11.6513 2.00693 12.4172L3.48141 12.1417C3.38315 11.6159 3.42217 11.0277 3.53373 9.5739L2.03812 9.45914ZM4.676 14.3882C4.05773 13.7789 3.64085 12.9949 3.48141 12.1417L2.00693 12.4172C2.22265 13.5716 2.78667 14.6323 3.62314 15.4566L4.676 14.3882ZM15.8789 15.879C14.9711 16.7869 14.5994 17.1521 14.2131 17.3953L15.0123 18.6647C15.5758 18.3099 16.0852 17.7941 16.9396 16.9397L15.8789 15.879ZM7.97091 18.1517C9.02141 18.7487 9.64951 19.1108 10.287 19.3033L10.7205 17.8673C10.2835 17.7353 9.82823 17.4819 8.71199 16.8476L7.97091 18.1517ZM16.8474 8.71212C17.4817 9.82835 17.7352 10.2836 17.8672 10.7206L19.3031 10.2871C19.1107 9.64963 18.7485 9.02153 18.1516 7.97104L16.8474 8.71212ZM16.9396 16.9397C17.7939 16.0853 18.3098 15.5759 18.6646 15.0124L17.3952 14.2132C17.152 14.5995 16.7867 14.9712 15.8789 15.879L16.9396 16.9397ZM9.57378 3.53385C11.0276 3.4223 11.6158 3.38327 12.1416 3.48153L12.4171 2.00705C11.6512 1.86392 10.828 1.9332 9.45902 2.03825L9.57378 3.53385ZM17.0845 6.0932C16.4062 4.89947 16.0034 4.17826 15.4564 3.62326L14.388 4.67612C14.7635 5.05712 15.06 5.56661 15.7804 6.83428L17.0845 6.0932ZM12.1416 3.48153C12.9948 3.64097 13.7788 4.05786 14.388 4.67612L15.4564 3.62326C14.6321 2.78679 13.5715 2.22277 12.4171 2.00705L12.1416 3.48153ZM9.45902 2.03825C7.6502 2.17704 6.56339 2.25055 5.66132 2.63646L6.2513 4.01556C6.86908 3.75128 7.64905 3.68154 9.57378 3.53385L9.45902 2.03825ZM3.53373 9.5739C3.68142 7.64917 3.75115 6.8692 4.01544 6.25142L2.63634 5.66144C2.25043 6.56351 2.17692 7.65032 2.03812 9.45914L3.53373 9.5739ZM5.66132 2.63646C4.30146 3.2182 3.21808 4.30159 2.63634 5.66144L4.01544 6.25142C4.44542 5.24631 5.24619 4.44555 6.2513 4.01556L5.66132 2.63646ZM14.624 19.6885L13.4482 18.5128L12.3875 19.5734L13.5633 20.7492L14.624 19.6885ZM18.5126 13.4484L19.6884 14.6241L20.749 13.5635L19.5732 12.3877L18.5126 13.4484ZM19.6884 19.6885C18.2899 21.087 16.0225 21.087 14.624 19.6885L13.5633 20.7492C15.5476 22.7335 18.7647 22.7335 20.749 20.7492L19.6884 19.6885ZM20.749 20.7492C22.7333 18.7649 22.7333 15.5478 20.749 13.5635L19.6884 14.6241C21.0868 16.0226 21.0868 18.29 19.6884 19.6885L20.749 20.7492ZM3.94624 5.00694L9.39547 10.4562L10.4561 9.39551L5.0069 3.94628L3.94624 5.00694ZM17.8672 10.7206C18.0457 11.3119 18.0912 11.9274 18.0092 12.5257L19.4954 12.7292C19.6062 11.9199 19.5447 11.0871 19.3031 10.2871L17.8672 10.7206ZM18.0092 12.5257C17.928 13.1189 17.7215 13.6949 17.3952 14.2132L18.6646 15.0124C19.106 14.3111 19.3855 13.5317 19.4954 12.7292L18.0092 12.5257ZM19.5732 12.3877L19.2826 12.0971L18.222 13.1578L18.5126 13.4484L19.5732 12.3877ZM14.2131 17.3953C13.6948 17.7216 13.1187 17.9281 12.5255 18.0094L12.729 19.4955C13.5315 19.3856 14.311 19.1062 15.0123 18.6647L14.2131 17.3953ZM12.5255 18.0094C11.9273 18.0913 11.3118 18.0458 10.7205 17.8673L10.287 19.3033C11.0869 19.5448 11.9198 19.6063 12.729 19.4955L12.5255 18.0094ZM13.4482 18.5128L13.1575 18.2221L12.0969 19.2828L12.3875 19.5734L13.4482 18.5128Z" fill="#FAFAFA"/>
</g>
<defs>
<clipPath id="clip0_20_6355">
<rect width="24" height="24" fill="white"/>
</clipPath>
</defs>
</svg>
