<svg width="24" height="24" viewBox="0 0 24 24" fill="none" xmlns="http://www.w3.org/2000/svg">
<path d="M13.4211 9.27915C14.8719 10.172 15.5973 10.6185 15.8407 11.2013C16.0531 11.7097 16.0531 12.2903 15.8407 12.7987C15.5973 13.3815 14.8719 13.828 13.4211 14.7208C11.9702 15.6137 11.2448 16.0602 10.6496 15.9935C10.1303 15.9353 9.65868 15.645 9.35181 15.1948C9 14.6786 9 13.7858 9 12C9 10.2142 9 9.32135 9.35181 8.80519C9.65868 8.35497 10.1303 8.06469 10.6496 8.00652C11.2448 7.93983 11.9702 8.38627 13.4211 9.27915Z" stroke="#FAFAFA" stroke-width="1.5"/>
<path d="M3 12C3 8.25027 3 6.3754 3.95491 5.06107C4.26331 4.6366 4.6366 4.26331 5.06107 3.95491C6.3754 3 8.25027 3 12 3C15.7497 3 17.6246 3 18.9389 3.95491C19.3634 4.26331 19.7367 4.6366 20.0451 5.06107C21 6.3754 21 8.25027 21 12C21 15.7497 21 17.6246 20.0451 18.9389C19.7367 19.3634 19.3634 19.7367 18.9389 20.0451C17.6246 21 15.7497 21 12 21C8.25027 21 6.3754 21 5.06107 20.0451C4.6366 19.7367 4.26331 19.3634 3.95491 18.9389C3 17.6246 3 15.7497 3 12Z" stroke="#FAFAFA" stroke-width="1.5"/>
</svg>
