<svg width="24" height="24" viewBox="0 0 24 24" fill="none" xmlns="http://www.w3.org/2000/svg">
<path d="M7.23677 3.75006C9.44278 2.47642 10.5458 1.8396 11.752 1.77971C11.9172 1.77151 12.0827 1.77151 12.2478 1.77971C13.454 1.8396 14.557 2.47642 16.7631 3.75006C18.9691 5.0237 20.0721 5.66052 20.727 6.67516C20.8167 6.81412 20.8995 6.95744 20.975 7.1046C21.5262 8.17914 21.5262 9.45278 21.5262 12.0001C21.5262 14.5473 21.5262 15.821 20.975 16.8955C20.8995 17.0427 20.8167 17.186 20.727 17.325C20.0721 18.3396 18.9691 18.9764 16.7631 20.2501C14.557 21.5237 13.454 22.1605 12.2478 22.2204C12.0827 22.2286 11.9172 22.2286 11.752 22.2204C10.5458 22.1605 9.44278 21.5237 7.23677 20.2501C5.03076 18.9764 3.92776 18.3396 3.2728 17.325C3.1831 17.186 3.10036 17.0427 3.02486 16.8955C2.47363 15.821 2.47363 14.5473 2.47363 12.0001C2.47363 9.45278 2.47363 8.17914 3.02486 7.1046C3.10036 6.95744 3.1831 6.81412 3.2728 6.67516C3.92776 5.66052 5.03076 5.0237 7.23677 3.75006Z" stroke="#FAFAFA" stroke-width="1.5"/>
<path d="M13.421 9.27921C14.8718 10.1721 15.5972 10.6185 15.8407 11.2014C16.053 11.7098 16.053 12.2903 15.8407 12.7987C15.5972 13.3816 14.8718 13.828 13.421 14.7209C11.9701 15.6138 11.2447 16.0602 10.6495 15.9935C10.1303 15.9354 9.65859 15.6451 9.35172 15.1949C8.99991 14.6787 8.99991 13.7858 8.99991 12.0001C8.99991 10.2143 8.99991 9.32141 9.35172 8.80524C9.65859 8.35503 10.1303 8.06475 10.6495 8.00658C11.2447 7.93989 11.9701 8.38633 13.421 9.27921Z" stroke="#FAFAFA" stroke-width="1.5"/>
</svg>
