<svg width="24" height="24" viewBox="0 0 24 24" fill="none" xmlns="http://www.w3.org/2000/svg">
<path d="M9.35181 8.80519L9.97155 9.22759L9.35181 8.80519ZM13.4211 9.27915L13.8141 8.64042L13.4211 9.27915ZM10.6496 8.00652L10.566 7.26118L10.6496 8.00652ZM10.6496 15.9935L10.566 16.7388L10.6496 15.9935ZM9.35181 15.1948L8.73207 15.6172L9.35181 15.1948ZM15.8407 12.7987L15.1487 12.5096L15.8407 12.7987ZM15.8407 11.2013L15.1487 11.4904L15.8407 11.2013ZM21.25 12C21.25 17.1086 17.1086 21.25 12 21.25V22.75C17.9371 22.75 22.75 17.9371 22.75 12H21.25ZM12 21.25C6.89137 21.25 2.75 17.1086 2.75 12H1.25C1.25 17.9371 6.06294 22.75 12 22.75V21.25ZM2.75 12C2.75 6.89137 6.89137 2.75 12 2.75V1.25C6.06294 1.25 1.25 6.06294 1.25 12H2.75ZM12 2.75C17.1086 2.75 21.25 6.89137 21.25 12H22.75C22.75 6.06294 17.9371 1.25 12 1.25V2.75ZM9.75 12C9.75 11.0932 9.75066 10.462 9.79121 9.9908C9.83227 9.51375 9.90747 9.32161 9.97155 9.22759L8.73207 8.38278C8.44434 8.80493 8.34363 9.31731 8.29674 9.86218C8.24934 10.413 8.25 11.121 8.25 12H9.75ZM13.8141 8.64042C13.1019 8.20207 12.5221 7.84429 12.0453 7.60993C11.5738 7.37812 11.0828 7.20329 10.566 7.26118L10.7331 8.75186C10.8116 8.74306 10.9809 8.7581 11.3836 8.95606C11.7811 9.15147 12.2894 9.46335 13.028 9.91788L13.8141 8.64042ZM9.97155 9.22759C10.1613 8.94918 10.4415 8.78452 10.7331 8.75186L10.566 7.26118C9.81915 7.34486 9.15604 7.76076 8.73207 8.38278L9.97155 9.22759ZM13.028 14.0821C12.2894 14.5366 11.7811 14.8485 11.3836 15.0439C10.9809 15.2419 10.8116 15.2569 10.7331 15.2481L10.566 16.7388C11.0828 16.7967 11.5738 16.6219 12.0453 16.3901C12.5221 16.1557 13.1019 15.7979 13.8141 15.3596L13.028 14.0821ZM8.25 12C8.25 12.879 8.24934 13.587 8.29674 14.1378C8.34363 14.6827 8.44434 15.1951 8.73207 15.6172L9.97155 14.7724C9.90747 14.6784 9.83227 14.4862 9.79121 14.0092C9.75066 13.538 9.75 12.9068 9.75 12H8.25ZM10.7331 15.2481C10.4415 15.2155 10.1613 15.0508 9.97155 14.7724L8.73207 15.6172C9.15604 16.2392 9.81914 16.6551 10.566 16.7388L10.7331 15.2481ZM13.8141 15.3596C14.5268 14.921 15.1069 14.5649 15.5349 14.2426C15.9627 13.9204 16.3337 13.5645 16.5328 13.0877L15.1487 12.5096C15.1044 12.6157 14.9909 12.7745 14.6325 13.0444C14.2742 13.3142 13.7662 13.6278 13.028 14.0821L13.8141 15.3596ZM13.028 9.91788C13.7662 10.3722 14.2742 10.6858 14.6325 10.9556C14.9909 11.2255 15.1044 11.3843 15.1487 11.4904L16.5328 10.9123C16.3337 10.4355 15.9627 10.0796 15.5349 9.7574C15.1069 9.43507 14.5268 9.07898 13.8141 8.64042L13.028 9.91788ZM16.5328 13.0877C16.8224 12.3944 16.8224 11.6056 16.5328 10.9123L15.1487 11.4904C15.2838 11.8138 15.2838 12.1862 15.1487 12.5096L16.5328 13.0877Z" fill="#FAFAFA"/>
</svg>
