<svg width="24" height="24" viewBox="0 0 24 24" fill="none" xmlns="http://www.w3.org/2000/svg">
<path d="M17.4472 16.7922L16.8368 16.3564L17.4472 16.7922ZM11.0526 16.0813L10.6727 16.7279L11.0526 16.0813ZM15.4078 17.9902L15.4876 18.736L15.4078 17.9902ZM15.4078 6.00978L15.4876 5.26403L15.4078 6.00978ZM17.4472 7.20778L18.0575 6.77195L17.4472 7.20778ZM7.25026 10.802L7.93736 11.1027L7.25026 10.802ZM7.25026 13.198L6.56316 13.4987L7.25026 13.198ZM5.75 6C5.75 5.58579 5.41421 5.25 5 5.25C4.58579 5.25 4.25 5.58579 4.25 6L5.75 6ZM4.25 18C4.25 18.4142 4.58579 18.75 5 18.75C5.41421 18.75 5.75 18.4142 5.75 18H4.25ZM17.25 12C17.25 13.3539 17.2493 14.3181 17.1839 15.0429C17.1182 15.7722 16.9944 16.1356 16.8368 16.3564L18.0575 17.2281C18.4528 16.6745 18.6054 15.9813 18.6779 15.1776C18.7507 14.3695 18.75 13.3248 18.75 12H17.25ZM10.6727 16.7279C11.7998 17.39 12.69 17.9139 13.4158 18.2545C14.1377 18.5932 14.8108 18.8083 15.4876 18.736L15.3281 17.2445C15.0695 17.2721 14.7049 17.2025 14.053 16.8965C13.4051 16.5925 12.5854 16.1118 11.4325 15.4346L10.6727 16.7279ZM16.8368 16.3564C16.4775 16.8596 15.9282 17.1803 15.3281 17.2445L15.4876 18.736C16.5193 18.6256 17.4524 18.0755 18.0575 17.2281L16.8368 16.3564ZM11.4325 8.5654C12.5854 7.88816 13.4051 7.40751 14.053 7.10346C14.7049 6.79754 15.0695 6.72787 15.3281 6.75553L15.4876 5.26403C14.8108 5.19165 14.1377 5.40679 13.4158 5.74553C12.69 6.08613 11.7998 6.60998 10.6727 7.27206L11.4325 8.5654ZM18.75 12C18.75 10.6752 18.7507 9.63051 18.6779 8.82239C18.6054 8.01875 18.4528 7.32546 18.0575 6.77195L16.8368 7.64361C16.9944 7.86436 17.1182 8.22785 17.1839 8.95709C17.2493 9.68185 17.25 10.6461 17.25 12H18.75ZM15.3281 6.75553C15.9282 6.81971 16.4775 7.14038 16.8368 7.64361L18.0575 6.77195C17.4524 5.92453 16.5193 5.37436 15.4876 5.26403L15.3281 6.75553ZM10.6727 7.27206C9.54562 7.93419 8.65478 8.45664 8.00218 8.92578C7.3519 9.39325 6.83666 9.8763 6.56316 10.5013L7.93736 11.1027C8.04642 10.8534 8.29244 10.5645 8.87773 10.1437C9.46071 9.72464 10.2798 9.24259 11.4325 8.5654L10.6727 7.27206ZM11.4325 15.4346C10.2798 14.7574 9.46071 14.2754 8.87773 13.8563C8.29243 13.4355 8.04642 13.1466 7.93736 12.8973L6.56316 13.4987C6.83666 14.1237 7.3519 14.6067 8.00217 15.0742C8.65478 15.5434 9.54562 16.0658 10.6727 16.7279L11.4325 15.4346ZM6.56316 10.5013C6.14561 11.4556 6.14561 12.5444 6.56316 13.4987L7.93736 12.8973C7.68755 12.3264 7.68755 11.6736 7.93736 11.1027L6.56316 10.5013ZM4.25 6L4.25 18H5.75L5.75 6L4.25 6Z" fill="#FAFAFA"/>
</svg>
