<svg width="24" height="24" viewBox="0 0 24 24" fill="none" xmlns="http://www.w3.org/2000/svg">
<path d="M5.06107 21.0451L5.50191 20.4383L5.06107 21.0451ZM3.95491 19.9389L4.56168 19.4981L3.95491 19.9389ZM20.0451 19.9389L19.4383 19.4981L20.0451 19.9389ZM18.9389 21.0451L18.4981 20.4383L18.9389 21.0451ZM18.9389 4.95491L19.3798 4.34815L18.9389 4.95491ZM20.0451 6.06107L19.4383 6.50191L20.0451 6.06107ZM5.06107 4.95491L5.50191 5.56168L5.06107 4.95491ZM3.95491 6.06107L4.56168 6.50191L3.95491 6.06107ZM16.75 2C16.75 1.58579 16.4142 1.25 16 1.25C15.5858 1.25 15.25 1.58579 15.25 2H16.75ZM14 13.25C13.5858 13.25 13.25 13.5858 13.25 14C13.25 14.4142 13.5858 14.75 14 14.75V13.25ZM18 14.75C18.4142 14.75 18.75 14.4142 18.75 14C18.75 13.5858 18.4142 13.25 18 13.25V14.75ZM14 16.25C13.5858 16.25 13.25 16.5858 13.25 17C13.25 17.4142 13.5858 17.75 14 17.75V16.25ZM18 17.75C18.4142 17.75 18.75 17.4142 18.75 17C18.75 16.5858 18.4142 16.25 18 16.25V17.75ZM3.08351 9L2.33592 8.94L3.08351 9ZM16 4.08351L15.94 4.83111L16 4.08351ZM12 21.25C10.1084 21.25 8.74999 21.249 7.69804 21.135C6.66013 21.0225 6.00992 20.8074 5.50191 20.4383L4.62023 21.6518C5.42656 22.2377 6.37094 22.5 7.53648 22.6263C8.68798 22.751 10.1418 22.75 12 22.75V21.25ZM2.25 13C2.25 14.8582 2.24897 16.312 2.37373 17.4635C2.50001 18.6291 2.76232 19.5734 3.34815 20.3798L4.56168 19.4981C4.19259 18.9901 3.97745 18.3399 3.865 17.302C3.75103 16.25 3.75 14.8916 3.75 13H2.25ZM5.50191 20.4383C5.14111 20.1762 4.82382 19.8589 4.56168 19.4981L3.34815 20.3798C3.70281 20.8679 4.13209 21.2972 4.62023 21.6518L5.50191 20.4383ZM20.25 13C20.25 14.8916 20.249 16.25 20.135 17.302C20.0225 18.3399 19.8074 18.9901 19.4383 19.4981L20.6518 20.3798C21.2377 19.5734 21.5 18.6291 21.6263 17.4635C21.751 16.312 21.75 14.8582 21.75 13H20.25ZM12 22.75C13.8582 22.75 15.312 22.751 16.4635 22.6263C17.6291 22.5 18.5734 22.2377 19.3798 21.6518L18.4981 20.4383C17.9901 20.8074 17.3399 21.0225 16.302 21.135C15.25 21.249 13.8916 21.25 12 21.25V22.75ZM19.4383 19.4981C19.1762 19.8589 18.8589 20.1762 18.4981 20.4383L19.3798 21.6518C19.8679 21.2972 20.2972 20.8679 20.6518 20.3798L19.4383 19.4981ZM18.4981 5.56168C18.8589 5.82382 19.1762 6.14111 19.4383 6.50191L20.6518 5.62023C20.2972 5.13209 19.8679 4.70281 19.3798 4.34815L18.4981 5.56168ZM12 3.25C10.1418 3.25 8.68798 3.24897 7.53648 3.37373C6.37094 3.50001 5.42656 3.76232 4.62023 4.34815L5.50191 5.56168C6.00992 5.19259 6.66013 4.97745 7.69804 4.865C8.74999 4.75103 10.1084 4.75 12 4.75V3.25ZM4.62023 4.34815C4.13209 4.70281 3.70281 5.13209 3.34815 5.62023L4.56168 6.50191C4.82382 6.14111 5.14111 5.82382 5.50191 5.56168L4.62023 4.34815ZM16.75 4V2H15.25V4H16.75ZM14 14.75H18V13.25H14V14.75ZM14 17.75H18V16.25H14V17.75ZM10.25 15.5C10.25 16.4665 9.4665 17.25 8.5 17.25V18.75C10.2949 18.75 11.75 17.2949 11.75 15.5H10.25ZM8.5 17.25C7.5335 17.25 6.75 16.4665 6.75 15.5H5.25C5.25 17.2949 6.70507 18.75 8.5 18.75V17.25ZM6.75 15.5C6.75 14.5335 7.5335 13.75 8.5 13.75V12.25C6.70507 12.25 5.25 13.7051 5.25 15.5H6.75ZM8.5 13.75C9.4665 13.75 10.25 14.5335 10.25 15.5H11.75C11.75 13.7051 10.2949 12.25 8.5 12.25V13.75ZM3.75 13C3.75 11.324 3.75055 10.0637 3.83111 9.06L2.33592 8.94C2.24945 10.0174 2.25 11.3472 2.25 13H3.75ZM3.83111 9.06C3.93163 7.8075 4.15077 7.06748 4.56168 6.50191L3.34815 5.62023C2.69696 6.51653 2.44466 7.58508 2.33592 8.94L3.83111 9.06ZM12 4.75C13.676 4.75 14.9363 4.75055 15.94 4.83111L16.06 3.33592C14.9826 3.24945 13.6528 3.25 12 3.25V4.75ZM15.94 4.83111C17.1925 4.93163 17.9325 5.15077 18.4981 5.56168L19.3798 4.34815C18.4835 3.69696 17.4149 3.44466 16.06 3.33592L15.94 4.83111ZM15.25 4V4.08351H16.75V4H15.25ZM20.9165 8.25H3.08351V9.75H20.9165V8.25ZM21.75 13C21.75 11.3472 21.7506 10.0174 21.6641 8.94L20.1689 9.06C20.2494 10.0637 20.25 11.324 20.25 13H21.75ZM21.6641 8.94C21.5553 7.58508 21.303 6.51653 20.6518 5.62023L19.4383 6.50191C19.8492 7.06748 20.0684 7.8075 20.1689 9.06L21.6641 8.94Z" fill="#FAFAFA"/>
</svg>
