<svg width="24" height="24" viewBox="0 0 24 24" fill="none" xmlns="http://www.w3.org/2000/svg">
<path d="M12 9.41421H12.75H12ZM11.25 15C11.25 15.4142 11.5858 15.75 12 15.75C12.4142 15.75 12.75 15.4142 12.75 15H11.25ZM11 9L11.5303 9.53033L11 9ZM9.46967 9.46967C9.17678 9.76256 9.17678 10.2374 9.46967 10.5303C9.76256 10.8232 10.2374 10.8232 10.5303 10.5303L9.46967 9.46967ZM7.49494 18.768L6.75504 18.6453L6.75504 18.6453L7.49494 18.768ZM3.53143 15.7768C3.65942 16.1708 4.08254 16.3864 4.47648 16.2584C4.87042 16.1304 5.08601 15.7073 4.95801 15.3133L3.53143 15.7768ZM19.7553 15.5451L19.042 15.3133L19.7553 15.5451ZM16.5451 18.7553L16.3133 18.042L16.5451 18.7553ZM20.4686 8.22315C20.3406 7.82921 19.9175 7.61362 19.5235 7.74162C19.1296 7.86962 18.914 8.29274 19.042 8.68668L20.4686 8.22315ZM7.45492 5.24472L7.22315 4.53142L7.45492 5.24472ZM4.24472 8.45492L3.53142 8.22315L4.24472 8.45492ZM15.7803 2.46967C15.4874 2.17678 15.0126 2.17678 14.7197 2.46967C14.4268 2.76256 14.4268 3.23744 14.7197 3.53033L15.7803 2.46967ZM16.4757 4.2257L15.9454 4.75603L16.4757 4.2257ZM16.4088 5.70102L15.9286 5.12486L15.9286 5.12486L16.4088 5.70102ZM14.5199 6.29883C14.2017 6.56401 14.1587 7.03693 14.4238 7.35514C14.689 7.67335 15.1619 7.71634 15.4801 7.45117L14.5199 6.29883ZM9.53033 17.5303C9.82322 17.2374 9.82322 16.7626 9.53033 16.4697C9.23744 16.1768 8.76256 16.1768 8.46967 16.4697L9.53033 17.5303ZM7.7743 18.2257L8.30464 18.756L7.7743 18.2257ZM7.84123 19.701L8.32137 19.1249L8.32136 19.1249L7.84123 19.701ZM8.76986 21.4512C9.08807 21.7163 9.56099 21.6733 9.82617 21.3551C10.0913 21.0369 10.0483 20.564 9.73014 20.2988L8.76986 21.4512ZM11.25 9.41421V15H12.75V9.41421H11.25ZM10.4697 8.46967L9.46967 9.46967L10.5303 10.5303L11.5303 9.53033L10.4697 8.46967ZM12.75 9.41421C12.75 8.22416 11.3112 7.62817 10.4697 8.46967L11.5303 9.53033C11.5119 9.54873 11.4795 9.56779 11.44 9.57464C11.4045 9.58079 11.3743 9.57542 11.3514 9.56593C11.3285 9.55643 11.3033 9.53889 11.2826 9.50945C11.2594 9.47662 11.25 9.44023 11.25 9.41421H12.75ZM13 18.25H11V19.75H13V18.25ZM11 18.25C9.11538 18.25 8.32762 18.2415 7.71758 18.0518L7.27229 19.4842C8.15477 19.7585 9.22772 19.75 11 19.75V18.25ZM3.25 12C3.25 13.8029 3.24075 14.8822 3.53143 15.7768L4.95801 15.3133C4.75925 14.7016 4.75 13.9197 4.75 12H3.25ZM19.25 12C19.25 13.9197 19.2407 14.7016 19.042 15.3133L20.4686 15.7768C20.7593 14.8822 20.75 13.8029 20.75 12H19.25ZM13 19.75C14.8029 19.75 15.8822 19.7593 16.7768 19.4686L16.3133 18.042C15.7016 18.2407 14.9197 18.25 13 18.25V19.75ZM19.042 15.3133C18.6216 16.6072 17.6072 17.6216 16.3133 18.042L16.7768 19.4686C18.5274 18.8998 19.8998 17.5274 20.4686 15.7768L19.042 15.3133ZM20.75 12C20.75 10.1971 20.7593 9.11777 20.4686 8.22315L19.042 8.68668C19.2407 9.29839 19.25 10.0803 19.25 12H20.75ZM11 4.25C9.19709 4.25 8.11777 4.24075 7.22315 4.53142L7.68668 5.95801C8.29839 5.75925 9.08034 5.75 11 5.75V4.25ZM4.75 12C4.75 10.0803 4.75925 9.29839 4.95801 8.68668L3.53142 8.22315C3.24075 9.11777 3.25 10.1971 3.25 12H4.75ZM7.22315 4.53142C5.47263 5.1002 4.1002 6.47263 3.53142 8.22315L4.95801 8.68668C5.37841 7.39282 6.39282 6.37841 7.68668 5.95801L7.22315 4.53142ZM14.7197 3.53033L15.9454 4.75603L17.006 3.69537L15.7803 2.46967L14.7197 3.53033ZM15.9286 5.12486L14.5199 6.29883L15.4801 7.45117L16.8889 6.27719L15.9286 5.12486ZM8.46967 16.4697L7.24397 17.6954L8.30464 18.756L9.53033 17.5303L8.46967 16.4697ZM7.36109 20.2772L8.76986 21.4512L9.73014 20.2988L8.32137 19.1249L7.36109 20.2772ZM7.24397 17.6954C6.97571 17.9636 6.81259 18.2982 6.75504 18.6453L8.23483 18.8907C8.24293 18.8419 8.26517 18.7955 8.30464 18.756L7.24397 17.6954ZM6.75504 18.6453C6.65774 19.2321 6.86232 19.8615 7.36109 20.2772L8.32136 19.1249C8.25098 19.0662 8.22036 18.978 8.23483 18.8907L6.75504 18.6453ZM11 5.75H16.5V4.25H11V5.75ZM15.9454 4.75603C15.9988 4.8095 16.0228 4.87876 16.018 4.94973L17.5146 5.05027C17.5471 4.5677 17.3796 4.06894 17.006 3.69537L15.9454 4.75603ZM16.018 4.94973C16.0135 5.01658 15.9839 5.07881 15.9286 5.12486L16.8889 6.27719C17.2732 5.95697 17.4839 5.5078 17.5146 5.05027L16.018 4.94973ZM16.5 5.75H16.7663V4.25H16.5V5.75Z" fill="#FAFAFA"/>
</svg>
