<svg width="24" height="24" viewBox="0 0 24 24" fill="none" xmlns="http://www.w3.org/2000/svg">
<path d="M12 9.41421H12.75H12ZM11.25 15C11.25 15.4142 11.5858 15.75 12 15.75C12.4142 15.75 12.75 15.4142 12.75 15H11.25ZM11 9L11.5303 9.53033L11 9ZM9.46967 9.46967C9.17678 9.76256 9.17678 10.2374 9.46967 10.5303C9.76256 10.8232 10.2374 10.8232 10.5303 10.5303L9.46967 9.46967ZM9.13054 18.9832L9.10546 19.7328H9.10547L9.13054 18.9832ZM3.53143 15.7768C3.65942 16.1708 4.08254 16.3864 4.47648 16.2584C4.87042 16.1304 5.08601 15.7073 4.95801 15.3133L3.53143 15.7768ZM19.7553 15.5451L19.042 15.3133L19.7553 15.5451ZM16.5451 18.7553L16.3133 18.042L16.5451 18.7553ZM20.4686 8.22315C20.3406 7.82921 19.9175 7.61362 19.5235 7.74162C19.1296 7.86962 18.914 8.29274 19.042 8.68668L20.4686 8.22315ZM7.45492 5.24472L7.22315 4.53142L7.45492 5.24472ZM4.24472 8.45492L3.53142 8.22315L4.24472 8.45492ZM15.25 4L14.7815 4.58565V4.58565L15.25 4ZM14.4685 2.41435C14.1451 2.15559 13.6731 2.20803 13.4143 2.53148C13.1556 2.85493 13.208 3.32689 13.5315 3.58565L14.4685 2.41435ZM9.5039 21.5625C9.81455 21.8365 10.2885 21.8067 10.5625 21.4961C10.8365 21.1854 10.8067 20.7115 10.4961 20.4375L9.5039 21.5625ZM8.72746 19.8776L8.23136 20.4401L8.23136 20.4401L8.72746 19.8776ZM11.25 9.41421V15H12.75V9.41421H11.25ZM10.4697 8.46967L9.46967 9.46967L10.5303 10.5303L11.5303 9.53033L10.4697 8.46967ZM12.75 9.41421C12.75 8.22416 11.3112 7.62817 10.4697 8.46967L11.5303 9.53033C11.5119 9.54873 11.4795 9.56779 11.44 9.57464C11.4045 9.58079 11.3743 9.57542 11.3514 9.56593C11.3285 9.55643 11.3033 9.53889 11.2826 9.50945C11.2594 9.47662 11.25 9.44023 11.25 9.41421H12.75ZM13 18.25H11V19.75H13V18.25ZM11 18.25C10.2336 18.25 9.64194 18.2499 9.15562 18.2336L9.10547 19.7328C9.62247 19.7501 10.2427 19.75 11 19.75V18.25ZM3.25 12C3.25 13.8029 3.24075 14.8822 3.53143 15.7768L4.95801 15.3133C4.75925 14.7016 4.75 13.9197 4.75 12H3.25ZM19.25 12C19.25 13.9197 19.2407 14.7016 19.042 15.3133L20.4686 15.7768C20.7593 14.8822 20.75 13.8029 20.75 12H19.25ZM13 19.75C14.8029 19.75 15.8822 19.7593 16.7768 19.4686L16.3133 18.042C15.7016 18.2407 14.9197 18.25 13 18.25V19.75ZM19.042 15.3133C18.6216 16.6072 17.6072 17.6216 16.3133 18.042L16.7768 19.4686C18.5274 18.8998 19.8998 17.5274 20.4686 15.7768L19.042 15.3133ZM20.75 12C20.75 10.1971 20.7593 9.11777 20.4686 8.22315L19.042 8.68668C19.2407 9.29839 19.25 10.0803 19.25 12H20.75ZM11 4.25C9.19709 4.25 8.11777 4.24075 7.22315 4.53142L7.68668 5.95801C8.29839 5.75925 9.08034 5.75 11 5.75V4.25ZM4.75 12C4.75 10.0803 4.75925 9.29839 4.95801 8.68668L3.53142 8.22315C3.24075 9.11777 3.25 10.1971 3.25 12H4.75ZM7.22315 4.53142C5.47263 5.1002 4.1002 6.47263 3.53142 8.22315L4.95801 8.68668C5.37841 7.39282 6.39282 6.37841 7.68668 5.95801L7.22315 4.53142ZM11 5.75H14.8992V4.25H11V5.75ZM15.7185 3.41435L14.4685 2.41435L13.5315 3.58565L14.7815 4.58565L15.7185 3.41435ZM14.8992 5.75C16.139 5.75 16.6866 4.18882 15.7185 3.41435L14.7815 4.58565C14.7571 4.56615 14.7303 4.52948 14.7182 4.48234C14.7074 4.4403 14.7117 4.40376 14.7214 4.37609C14.7311 4.34842 14.7506 4.31723 14.7853 4.29113C14.8241 4.26187 14.868 4.25 14.8992 4.25V5.75ZM10.4961 20.4375L9.22356 19.3152L8.23136 20.4401L9.5039 21.5625L10.4961 20.4375ZM9.15562 18.2336C8.52264 18.2125 8.14075 18.705 7.99702 19.0182C7.85742 19.3224 7.71246 19.9825 8.23136 20.4401L9.22356 19.3152C9.33557 19.414 9.36183 19.5328 9.3649 19.5876C9.36759 19.6356 9.35642 19.6523 9.36031 19.6438C9.36367 19.6365 9.36281 19.6451 9.34 19.6637C9.31653 19.6828 9.23578 19.7372 9.10546 19.7328L9.15562 18.2336Z" fill="#FAFAFA"/>
</svg>
