<svg width="24" height="24" viewBox="0 0 24 24" fill="none" xmlns="http://www.w3.org/2000/svg">
<path d="M3.53143 15.7768C3.65942 16.1708 4.08254 16.3864 4.47648 16.2584C4.87042 16.1304 5.08601 15.7073 4.95801 15.3133L3.53143 15.7768ZM7.45492 5.24472L7.22315 4.53142L7.45492 5.24472ZM4.24472 8.45492L4.95801 8.68668L4.24472 8.45492ZM11.265 2.32974C10.9638 2.04533 10.4891 2.05889 10.2047 2.36003C9.92033 2.66117 9.93389 3.13585 10.235 3.42026L11.265 2.32974ZM11.546 3.62675L11.031 4.17201L11.031 4.17201L11.546 3.62675ZM19.4686 7.76824C19.3406 7.3743 18.9175 7.15871 18.5235 7.28671C18.1296 7.41471 17.914 7.83783 18.042 8.23177L19.4686 7.76824ZM15.5451 18.3004L15.3133 17.5871L15.5451 18.3004ZM18.7553 15.0902L18.042 14.8584L18.7553 15.0902ZM11.735 21.2153C12.0362 21.4998 12.5109 21.4862 12.7953 21.1851C13.0797 20.8839 13.0661 20.4092 12.765 20.1248L11.735 21.2153ZM11.454 19.9183L11.969 19.3731H11.969L11.454 19.9183ZM12 9.41421H12.75H12ZM11.25 15C11.25 15.4142 11.5858 15.75 12 15.75C12.4142 15.75 12.75 15.4142 12.75 15H11.25ZM11 9L11.5303 9.53033L11 9ZM9.46967 9.46967C9.17678 9.76256 9.17678 10.2374 9.46967 10.5303C9.76256 10.8232 10.2374 10.8232 10.5303 10.5303L9.46967 9.46967ZM3.25 12C3.25 13.8029 3.24075 14.8822 3.53143 15.7768L4.95801 15.3133C4.75925 14.7016 4.75 13.9197 4.75 12H3.25ZM11 4.25C9.19709 4.25 8.11777 4.24075 7.22315 4.53142L7.68668 5.95801C8.29839 5.75925 9.08034 5.75 11 5.75V4.25ZM4.75 12C4.75 10.0803 4.75925 9.29839 4.95801 8.68668L3.53142 8.22315C3.24075 9.11777 3.25 10.1971 3.25 12H4.75ZM7.22315 4.53142C5.47263 5.1002 4.1002 6.47263 3.53142 8.22315L4.95801 8.68668C5.37841 7.39282 6.39282 6.37841 7.68668 5.95801L7.22315 4.53142ZM10.235 3.42026L11.031 4.17201L12.0609 3.08149L11.265 2.32974L10.235 3.42026ZM11 5.75C12.398 5.75 13.0773 4.04137 12.0609 3.08149L11.031 4.17201C11.0403 4.1808 11.0436 4.18644 11.0445 4.18808C11.0455 4.18992 11.046 4.19127 11.0463 4.19287C11.0471 4.1969 11.0475 4.20747 11.042 4.22153C11.0364 4.23558 11.0288 4.24293 11.0254 4.24532C11.0241 4.24627 11.0228 4.24694 11.0208 4.24759C11.0191 4.24817 11.0128 4.25 11 4.25V5.75ZM19.75 11.5451C19.75 9.74218 19.7593 8.66286 19.4686 7.76824L18.042 8.23177C18.2407 8.84348 18.25 9.62543 18.25 11.5451H19.75ZM12 19.2951C13.8029 19.2951 14.8822 19.3043 15.7768 19.0137L15.3133 17.5871C14.7016 17.7858 13.9197 17.7951 12 17.7951V19.2951ZM18.25 11.5451C18.25 13.4647 18.2407 14.2467 18.042 14.8584L19.4686 15.3219C19.7593 14.4273 19.75 13.348 19.75 11.5451H18.25ZM15.7768 19.0137C17.5274 18.4449 18.8998 17.0725 19.4686 15.3219L18.042 14.8584C17.6216 16.1523 16.6072 17.1667 15.3133 17.5871L15.7768 19.0137ZM12.765 20.1248L11.969 19.3731L10.9391 20.4636L11.735 21.2153L12.765 20.1248ZM12 17.7951C10.602 17.7951 9.92271 19.5037 10.9391 20.4636L11.969 19.3731C11.9597 19.3643 11.9564 19.3587 11.9555 19.357C11.9545 19.3552 11.954 19.3538 11.9537 19.3522C11.9529 19.3482 11.9525 19.3376 11.958 19.3236C11.9636 19.3095 11.9712 19.3022 11.9746 19.2998C11.9759 19.2988 11.9772 19.2981 11.9792 19.2975C11.9809 19.2969 11.9872 19.2951 12 19.2951V17.7951ZM11.25 9.41421V15H12.75V9.41421H11.25ZM10.4697 8.46967L9.46967 9.46967L10.5303 10.5303L11.5303 9.53033L10.4697 8.46967ZM12.75 9.41421C12.75 8.22416 11.3112 7.62817 10.4697 8.46967L11.5303 9.53033C11.5119 9.54873 11.4795 9.56779 11.44 9.57464C11.4045 9.58079 11.3743 9.57542 11.3514 9.56593C11.3285 9.55643 11.3033 9.53889 11.2826 9.50945C11.2594 9.47662 11.25 9.44023 11.25 9.41421H12.75Z" fill="#FAFAFA"/>
</svg>
