<svg width="24" height="24" viewBox="0 0 24 24" fill="none" xmlns="http://www.w3.org/2000/svg">
<path d="M4.61068 15.7511C4.72446 16.1013 5.10056 16.2929 5.45073 16.1791C5.8009 16.0653 5.99253 15.6892 5.87876 15.3391L4.61068 15.7511ZM8.45492 5.24472L8.2489 4.61068L8.45492 5.24472ZM5.24472 8.45492L4.61068 8.2489L5.24472 8.45492ZM12.4714 17.4714C12.7318 17.2111 12.7318 16.7889 12.4714 16.5286C12.2111 16.2682 11.7889 16.2682 11.5286 16.5286L12.4714 17.4714ZM10.7743 18.2257L11.2457 18.6971L10.7743 18.2257ZM10.8412 19.701L10.4144 20.2132L10.8412 19.701ZM11.8232 21.3871C12.1061 21.6229 12.5264 21.5846 12.7621 21.3018C12.9979 21.0189 12.9596 20.5986 12.6768 20.3629L11.8232 21.3871ZM13.7214 2.5286C13.4611 2.26825 13.0389 2.26825 12.7786 2.5286C12.5182 2.78895 12.5182 3.21106 12.7786 3.4714L13.7214 2.5286ZM14.4757 4.2257L14.9471 3.75429L14.4757 4.2257ZM14.4088 5.70102L13.982 5.18887V5.18888L14.4088 5.70102ZM12.5732 6.36285C12.2904 6.59856 12.2521 7.01894 12.4879 7.30179C12.7236 7.58464 13.1439 7.62286 13.4268 7.38715L12.5732 6.36285ZM13 19V19.6667V19ZM20.3918 7.80174C20.2823 7.45021 19.9086 7.254 19.557 7.36349C19.2055 7.47299 19.0093 7.84673 19.1188 8.19826L20.3918 7.80174ZM16.5451 18.7447L16.7591 19.3761L16.5451 18.7447ZM19.7553 15.396L20.3918 15.5943L19.7553 15.396ZM12 5.66667H14V4.33333H12V5.66667ZM4.33333 12C4.33333 13.8094 4.32511 14.8722 4.61068 15.7511L5.87876 15.3391C5.67489 14.7116 5.66667 13.9132 5.66667 12H4.33333ZM12 4.33333C10.1906 4.33333 9.1278 4.32511 8.2489 4.61068L8.66093 5.87876C9.28835 5.67489 10.0868 5.66667 12 5.66667V4.33333ZM5.66667 12C5.66667 10.0868 5.67489 9.28835 5.87876 8.66093L4.61068 8.2489C4.32511 9.1278 4.33333 10.1906 4.33333 12H5.66667ZM8.2489 4.61068C6.52376 5.17121 5.17121 6.52376 4.61068 8.2489L5.87876 8.66093C6.3074 7.3417 7.3417 6.3074 8.66093 5.87876L8.2489 4.61068ZM11.5286 16.5286L10.3029 17.7543L11.2457 18.6971L12.4714 17.4714L11.5286 16.5286ZM10.4144 20.2132L11.8232 21.3871L12.6768 20.3629L11.268 19.1889L10.4144 20.2132ZM12.7786 3.4714L14.0043 4.6971L14.9471 3.75429L13.7214 2.5286L12.7786 3.4714ZM13.982 5.18888L12.5732 6.36285L13.4268 7.38715L14.8356 6.21317L13.982 5.18888ZM13 18.3333H11V19.6667H13V18.3333ZM20.6667 11.698C20.6667 9.80644 20.6743 8.70868 20.3918 7.80174L19.1188 8.19826C19.3257 8.86262 19.3333 9.70644 19.3333 11.698H20.6667ZM13 19.6667C14.8075 19.6667 15.8756 19.6755 16.7591 19.3761L16.3311 18.1133C15.7082 18.3245 14.9151 18.3333 13 18.3333V19.6667ZM19.3333 11.698C19.3333 13.6896 19.3257 14.5334 19.1188 15.1978L20.3918 15.5943C20.6743 14.6874 20.6667 13.5896 20.6667 11.698H19.3333ZM16.7591 19.3761C18.4914 18.789 19.8364 17.3775 20.3918 15.5943L19.1188 15.1978C18.685 16.5903 17.6431 17.6686 16.3311 18.1133L16.7591 19.3761ZM10.3029 17.7543C9.94711 18.1101 9.78762 18.585 9.8185 19.0447L11.1488 18.9553C11.1425 18.8615 11.1745 18.7684 11.2457 18.6971L10.3029 17.7543ZM9.8185 19.0447C9.84778 19.4805 10.0485 19.9082 10.4144 20.2132L11.268 19.1889C11.1945 19.1276 11.1548 19.0439 11.1488 18.9553L9.8185 19.0447ZM11 18.3333H10.4837V19.6667H11V18.3333ZM14.0043 4.6971C14.0756 4.76836 14.1075 4.86148 14.1012 4.95531L15.4315 5.04469C15.4624 4.58498 15.3029 4.11008 14.9471 3.75429L14.0043 4.6971ZM14.1012 4.95531C14.0952 5.04387 14.0555 5.1276 13.982 5.18887L14.8356 6.21317C15.2015 5.90818 15.4022 5.48051 15.4315 5.04469L14.1012 4.95531ZM14 5.66667H14.7663V4.33333H14V5.66667Z" fill="#FAFAFA"/>
</svg>
