<svg width="24" height="24" viewBox="0 0 24 24" fill="none" xmlns="http://www.w3.org/2000/svg">
<path d="M11 16C11 16.5523 11.4477 17 12 17C12.5523 17 13 16.5523 13 16C13 15.4477 12.5523 15 12 15C11.4477 15 11 15.4477 11 16Z" fill="#FAFAFA"/>
<path d="M5.06107 22.0451L5.50191 21.4383L5.06107 22.0451ZM3.95491 20.9389L4.56168 20.4981L3.95491 20.9389ZM20.0451 20.9389L19.4383 20.4981L20.0451 20.9389ZM18.9389 22.0451L18.4981 21.4383L18.9389 22.0451ZM18.9389 1.95491L18.4981 2.56168L18.9389 1.95491ZM20.0451 3.06107L19.4383 3.50191L20.0451 3.06107ZM5.06107 1.95491L5.50191 2.56168L5.06107 1.95491ZM3.95491 3.06107L4.56168 3.50191L3.95491 3.06107ZM20.25 10V14H21.75V10H20.25ZM3.75 14V10H2.25V14H3.75ZM12 22.25C10.1084 22.25 8.74999 22.249 7.69804 22.135C6.66013 22.0225 6.00992 21.8074 5.50191 21.4383L4.62023 22.6518C5.42656 23.2377 6.37094 23.5 7.53648 23.6263C8.68798 23.751 10.1418 23.75 12 23.75V22.25ZM2.25 14C2.25 15.8582 2.24897 17.312 2.37373 18.4635C2.50001 19.6291 2.76232 20.5734 3.34815 21.3798L4.56168 20.4981C4.19259 19.9901 3.97745 19.3399 3.865 18.302C3.75103 17.25 3.75 15.8916 3.75 14H2.25ZM5.50191 21.4383C5.14111 21.1762 4.82382 20.8589 4.56168 20.4981L3.34815 21.3798C3.70281 21.8679 4.13209 22.2972 4.62023 22.6518L5.50191 21.4383ZM20.25 14C20.25 15.8916 20.249 17.25 20.135 18.302C20.0225 19.3399 19.8074 19.9901 19.4383 20.4981L20.6518 21.3798C21.2377 20.5734 21.5 19.6291 21.6263 18.4635C21.751 17.312 21.75 15.8582 21.75 14H20.25ZM12 23.75C13.8582 23.75 15.312 23.751 16.4635 23.6263C17.6291 23.5 18.5734 23.2377 19.3798 22.6518L18.4981 21.4383C17.9901 21.8074 17.3399 22.0225 16.302 22.135C15.25 22.249 13.8916 22.25 12 22.25V23.75ZM19.4383 20.4981C19.1762 20.8589 18.8589 21.1762 18.4981 21.4383L19.3798 22.6518C19.8679 22.2972 20.2972 21.8679 20.6518 21.3798L19.4383 20.4981ZM12 1.75C13.8916 1.75 15.25 1.75103 16.302 1.865C17.3399 1.97745 17.9901 2.19259 18.4981 2.56168L19.3798 1.34815C18.5734 0.762324 17.6291 0.500006 16.4635 0.373728C15.312 0.248971 13.8582 0.25 12 0.25V1.75ZM21.75 10C21.75 8.14184 21.751 6.68798 21.6263 5.53648C21.5 4.37094 21.2377 3.42656 20.6518 2.62023L19.4383 3.50191C19.8074 4.00992 20.0225 4.66013 20.135 5.69804C20.249 6.74999 20.25 8.10843 20.25 10H21.75ZM18.4981 2.56168C18.8589 2.82382 19.1762 3.14111 19.4383 3.50191L20.6518 2.62023C20.2972 2.13209 19.8679 1.70281 19.3798 1.34815L18.4981 2.56168ZM12 0.25C10.1418 0.25 8.68798 0.248971 7.53648 0.373728C6.37094 0.500006 5.42656 0.762324 4.62023 1.34815L5.50191 2.56168C6.00992 2.19259 6.66013 1.97745 7.69804 1.865C8.74999 1.75103 10.1084 1.75 12 1.75V0.25ZM3.75 10C3.75 8.10843 3.75103 6.74999 3.865 5.69805C3.97745 4.66013 4.19259 4.00992 4.56168 3.50191L3.34815 2.62023C2.76232 3.42656 2.50001 4.37094 2.37373 5.53648C2.24897 6.68798 2.25 8.14184 2.25 10H3.75ZM4.62023 1.34815C4.13209 1.70281 3.70281 2.13209 3.34815 2.62023L4.56168 3.50191C4.82382 3.14111 5.14111 2.82382 5.50191 2.56168L4.62023 1.34815ZM8.25 16C8.25 18.0711 9.92893 19.75 12 19.75V18.25C10.7574 18.25 9.75 17.2426 9.75 16H8.25ZM12 19.75C14.0711 19.75 15.75 18.0711 15.75 16H14.25C14.25 17.2426 13.2426 18.25 12 18.25V19.75ZM15.75 16C15.75 13.9289 14.0711 12.25 12 12.25V13.75C13.2426 13.75 14.25 14.7574 14.25 16H15.75ZM12 12.25C9.92893 12.25 8.25 13.9289 8.25 16H9.75C9.75 14.7574 10.7574 13.75 12 13.75V12.25ZM9.25 7C9.25 8.51878 10.4812 9.75 12 9.75V8.25C11.3096 8.25 10.75 7.69036 10.75 7H9.25ZM12 9.75C13.5188 9.75 14.75 8.51878 14.75 7H13.25C13.25 7.69036 12.6904 8.25 12 8.25V9.75ZM14.75 7C14.75 5.48122 13.5188 4.25 12 4.25V5.75C12.6904 5.75 13.25 6.30964 13.25 7H14.75ZM12 4.25C10.4812 4.25 9.25 5.48122 9.25 7H10.75C10.75 6.30964 11.3096 5.75 12 5.75V4.25Z" fill="#FAFAFA"/>
</svg>
