<svg width="24" height="24" viewBox="0 0 24 24" fill="none" xmlns="http://www.w3.org/2000/svg">
<g clip-path="url(#clip0_20_6353)">
<path d="M9 12C9 13.6569 10.3431 15 12 15C13.6569 15 15 13.6569 15 12C15 10.3431 13.6569 9 12 9C10.3431 9 9 10.3431 9 12Z" fill="#FAFAFA"/>
<path d="M18 5C18 4.44772 18.4477 4 19 4C19.5523 4 20 4.44772 20 5C20 5.55228 19.5523 6 19 6C18.4477 6 18 5.55228 18 5Z" fill="#FAFAFA"/>
<path d="M18 19C18 18.4477 18.4477 18 19 18C19.5523 18 20 18.4477 20 19C20 19.5523 19.5523 20 19 20C18.4477 20 18 19.5523 18 19Z" fill="#FAFAFA"/>
<path d="M4 5C4 4.44772 4.44772 4 5 4C5.55228 4 6 4.44772 6 5C6 5.55228 5.55228 6 5 6C4.44772 6 4 5.55228 4 5Z" fill="#FAFAFA"/>
<path d="M4 19C4 18.4477 4.44772 18 5 18C5.55228 18 6 18.4477 6 19C6 19.5523 5.55228 20 5 20C4.44772 20 4 19.5523 4 19Z" fill="#FAFAFA"/>
<path d="M11 1.75H13V0.25H11V1.75ZM22.25 11V13H23.75V11H22.25ZM13 22.25H11V23.75H13V22.25ZM1.75 13V11H0.25V13H1.75ZM11 22.25C8.62178 22.25 6.91356 22.2484 5.61358 22.0736C4.33517 21.9018 3.56445 21.5749 2.9948 21.0052L1.93414 22.0659C2.82895 22.9607 3.96897 23.366 5.41371 23.5603C6.83687 23.7516 8.66418 23.75 11 23.75V22.25ZM0.25 13C0.25 15.3358 0.248407 17.1631 0.439746 18.5863C0.633986 20.031 1.03933 21.1711 1.93414 22.0659L2.9948 21.0052C2.42514 20.4355 2.09825 19.6648 1.92637 18.3864C1.75159 17.0864 1.75 15.3782 1.75 13H0.25ZM22.25 13C22.25 15.3782 22.2484 17.0864 22.0736 18.3864C21.9018 19.6648 21.5749 20.4355 21.0052 21.0052L22.0659 22.0659C22.9607 21.1711 23.366 20.031 23.5603 18.5863C23.7516 17.1631 23.75 15.3358 23.75 13H22.25ZM13 23.75C15.3358 23.75 17.1631 23.7516 18.5863 23.5603C20.031 23.366 21.1711 22.9607 22.0659 22.0659L21.0052 21.0052C20.4355 21.5749 19.6648 21.9018 18.3864 22.0736C17.0864 22.2484 15.3782 22.25 13 22.25V23.75ZM13 1.75C15.3782 1.75 17.0864 1.75159 18.3864 1.92637C19.6648 2.09825 20.4355 2.42514 21.0052 2.9948L22.0659 1.93414C21.1711 1.03933 20.031 0.633986 18.5863 0.439746C17.1631 0.248407 15.3358 0.25 13 0.25V1.75ZM23.75 11C23.75 8.66418 23.7516 6.83687 23.5603 5.4137C23.366 3.96897 22.9607 2.82895 22.0659 1.93414L21.0052 2.9948C21.5749 3.56445 21.9018 4.33517 22.0736 5.61358C22.2484 6.91355 22.25 8.62177 22.25 11H23.75ZM11 0.25C8.66418 0.25 6.83687 0.248407 5.4137 0.439746C3.96897 0.633986 2.82895 1.03933 1.93414 1.93414L2.9948 2.9948C3.56445 2.42514 4.33517 2.09825 5.61358 1.92637C6.91355 1.75159 8.62177 1.75 11 1.75V0.25ZM1.75 11C1.75 8.62178 1.75159 6.91356 1.92637 5.61358C2.09825 4.33517 2.42514 3.56445 2.9948 2.9948L1.93414 1.93414C1.03933 2.82895 0.633986 3.96897 0.439746 5.41371C0.248407 6.83687 0.25 8.66418 0.25 11H1.75ZM5.25 12C5.25 15.7279 8.27208 18.75 12 18.75V17.25C9.1005 17.25 6.75 14.8995 6.75 12H5.25ZM12 18.75C15.7279 18.75 18.75 15.7279 18.75 12H17.25C17.25 14.8995 14.8995 17.25 12 17.25V18.75ZM18.75 12C18.75 8.27208 15.7279 5.25 12 5.25V6.75C14.8995 6.75 17.25 9.1005 17.25 12H18.75ZM12 5.25C8.27208 5.25 5.25 8.27208 5.25 12H6.75C6.75 9.1005 9.1005 6.75 12 6.75V5.25Z" fill="#FAFAFA"/>
</g>
<defs>
<clipPath id="clip0_20_6353">
<rect width="24" height="24" fill="white"/>
</clipPath>
</defs>
</svg>
