<svg width="24" height="24" viewBox="0 0 24 24" fill="none" xmlns="http://www.w3.org/2000/svg">
<path d="M10.2235 15.8978L10.4177 15.1733L10.2235 15.8978ZM8.10222 13.7765L8.82667 13.5823L8.10222 13.7765ZM15.8978 13.7765L15.1733 13.5823L15.8978 13.7765ZM13.7765 15.8978L13.5823 15.1733L13.7765 15.8978ZM13.7765 8.10222L13.5823 8.82667L13.7765 8.10222ZM15.8978 10.2235L15.1733 10.4177L15.8978 10.2235ZM10.2235 8.10222L10.4177 8.82667L10.2235 8.10222ZM8.10222 10.2235L8.82667 10.4177L8.10222 10.2235ZM21.25 12C21.25 17.1086 17.1086 21.25 12 21.25V22.75C17.9371 22.75 22.75 17.9371 22.75 12H21.25ZM12 21.25C6.89137 21.25 2.75 17.1086 2.75 12H1.25C1.25 17.9371 6.06294 22.75 12 22.75V21.25ZM2.75 12C2.75 6.89137 6.89137 2.75 12 2.75V1.25C6.06294 1.25 1.25 6.06294 1.25 12H2.75ZM12 2.75C17.1086 2.75 21.25 6.89137 21.25 12H22.75C22.75 6.06294 17.9371 1.25 12 1.25V2.75ZM12 15.25C11.0217 15.25 10.6797 15.2436 10.4177 15.1733L10.0294 16.6222C10.5303 16.7564 11.1183 16.75 12 16.75V15.25ZM7.25 12C7.25 12.8817 7.24356 13.4697 7.37778 13.9706L8.82667 13.5823C8.75644 13.3203 8.75 12.9783 8.75 12H7.25ZM10.4177 15.1733C9.6412 14.9653 9.03472 14.3588 8.82667 13.5823L7.37778 13.9706C7.72453 15.2647 8.73533 16.2755 10.0294 16.6222L10.4177 15.1733ZM15.25 12C15.25 12.9783 15.2436 13.3203 15.1733 13.5823L16.6222 13.9706C16.7564 13.4697 16.75 12.8817 16.75 12H15.25ZM12 16.75C12.8817 16.75 13.4697 16.7564 13.9706 16.6222L13.5823 15.1733C13.3203 15.2436 12.9783 15.25 12 15.25V16.75ZM15.1733 13.5823C14.9653 14.3588 14.3588 14.9653 13.5823 15.1733L13.9706 16.6222C15.2647 16.2755 16.2755 15.2647 16.6222 13.9706L15.1733 13.5823ZM12 8.75C12.9783 8.75 13.3203 8.75644 13.5823 8.82667L13.9706 7.37778C13.4697 7.24356 12.8817 7.25 12 7.25V8.75ZM16.75 12C16.75 11.1183 16.7564 10.5303 16.6222 10.0294L15.1733 10.4177C15.2436 10.6797 15.25 11.0217 15.25 12H16.75ZM13.5823 8.82667C14.3588 9.03472 14.9653 9.6412 15.1733 10.4177L16.6222 10.0294C16.2755 8.73533 15.2647 7.72453 13.9706 7.37778L13.5823 8.82667ZM12 7.25C11.1183 7.25 10.5303 7.24356 10.0294 7.37778L10.4177 8.82667C10.6797 8.75644 11.0217 8.75 12 8.75V7.25ZM8.75 12C8.75 11.0217 8.75644 10.6797 8.82667 10.4177L7.37778 10.0294C7.24356 10.5303 7.25 11.1183 7.25 12H8.75ZM10.0294 7.37778C8.73533 7.72453 7.72453 8.73533 7.37778 10.0294L8.82667 10.4177C9.03472 9.6412 9.6412 9.03472 10.4177 8.82667L10.0294 7.37778Z" fill="#FAFAFA"/>
</svg>
