<svg width="24" height="24" viewBox="0 0 24 24" fill="none" xmlns="http://www.w3.org/2000/svg">
<path d="M16.7926 7.71101C17 8.67676 17 9.97075 17 12C17 14.0287 17 15.3225 16.7928 16.2882M16.7926 7.71101C16.7138 7.34408 16.6051 7.02453 16.455 6.73005C15.9757 5.78924 15.2108 5.02433 14.27 4.54497C13.2004 4 11.8003 4 9 4C6.19974 4 4.79961 4 3.73005 4.54497C2.78924 5.02433 2.02433 5.78924 1.54497 6.73005C1 7.79961 1 9.19974 1 12C1 14.8003 1 16.2004 1.54497 17.27C2.02433 18.2108 2.78924 18.9757 3.73005 19.455C4.79961 20 6.19974 20 9 20C11.8003 20 13.2004 20 14.27 19.455C15.2108 18.9757 15.9757 18.2108 16.455 17.27C16.6052 16.9753 16.714 16.6555 16.7928 16.2882M16.7926 7.71101L17 7.62176L17.3984 7.44768C19.9262 6.34311 21.1902 5.79083 22.0951 6.38296C23 6.97508 23 8.3544 23 11.113V12.887C23 15.6456 23 17.0249 22.0951 17.617C21.1902 18.2092 19.9262 17.6569 17.3984 16.5523L17 16.3782L16.7928 16.2882M6 12C6 10.2142 6 9.32135 6.35181 8.80519C6.65868 8.35497 7.13034 8.06469 7.64955 8.00652C8.24481 7.93983 8.97022 8.38627 10.4211 9.27915C11.8719 10.172 12.5973 10.6185 12.8407 11.2013C13.0531 11.7097 13.0531 12.2903 12.8407 12.7987C12.5973 13.3815 11.8719 13.828 10.4211 14.7208C8.97022 15.6137 8.24481 16.0602 7.64955 15.9935C7.13034 15.9353 6.65868 15.645 6.35181 15.1948C6 14.6786 6 13.7858 6 12Z" stroke="#FAFAFA" stroke-width="1.5"/>
</svg>
