<svg width="24" height="24" viewBox="0 0 24 24" fill="none" xmlns="http://www.w3.org/2000/svg">
<path d="M8.96644 3.25C7.59472 3.25 6.51929 3.24999 5.65494 3.32061C4.7748 3.39252 4.04769 3.54138 3.38955 3.87671C2.30762 4.42798 1.42798 5.30762 0.876713 6.38955C0.541379 7.04768 0.392522 7.7748 0.320612 8.65494C0.249992 9.51929 0.249995 10.5947 0.25 11.9664V12.0336C0.249995 13.4053 0.249992 14.4807 0.320612 15.3451C0.392522 16.2252 0.541379 16.9523 0.876713 17.6104C0.900054 17.6563 0.923984 17.7017 0.948493 17.7468C1.17071 18.1555 1.71843 18.1914 2.04737 17.8624L2.10356 17.8062C2.333 17.5768 2.36053 17.2186 2.21322 16.9295C2.00359 16.518 1.87996 16.0103 1.81563 15.2229C1.75058 14.4268 1.75 13.4125 1.75 12C1.75 10.5875 1.75058 9.57322 1.81563 8.77708C1.87996 7.9897 2.00359 7.48197 2.21322 7.07054C2.62068 6.27085 3.27085 5.62068 4.07054 5.21322C4.48197 5.00359 4.9897 4.87996 5.77708 4.81563C6.57322 4.75058 7.58749 4.75 9 4.75C10.4125 4.75 11.4268 4.75058 12.2229 4.81563C13.0103 4.87996 13.518 5.00359 13.9295 5.21322C14.2186 5.36053 14.5768 5.333 14.8062 5.10356L14.8624 5.04737C15.1914 4.71843 15.1555 4.17071 14.7468 3.94849C14.7017 3.92398 14.6563 3.90005 14.6104 3.87671C13.9523 3.54138 13.2252 3.39252 12.3451 3.32061C11.4807 3.24999 10.4053 3.25 9.03356 3.25H8.96644Z" fill="#FAFAFA"/>
<path fill-rule="evenodd" clip-rule="evenodd" d="M17.0275 6.20959C16.8032 5.80537 16.2593 5.77184 15.9324 6.09874L15.9022 6.12892C15.656 6.37516 15.6287 6.76025 15.7868 7.07054C15.9964 7.48197 16.12 7.9897 16.1844 8.77708C16.2494 9.57322 16.25 10.5875 16.25 12C16.25 13.4125 16.2494 14.4268 16.1844 15.2229C16.12 16.0103 15.9964 16.518 15.7868 16.9295C15.3793 17.7291 14.7291 18.3793 13.9295 18.7868C13.518 18.9964 13.0103 19.12 12.2229 19.1844C11.4268 19.2494 10.4125 19.25 9 19.25C7.58749 19.25 6.57322 19.2494 5.77708 19.1844C4.9897 19.12 4.48197 18.9964 4.07054 18.7868C3.76025 18.6287 3.37516 18.656 3.12892 18.9022L3.09874 18.9324C2.77184 19.2593 2.80537 19.8032 3.20959 20.0275C3.26893 20.0605 3.32892 20.0924 3.38955 20.1233C4.04769 20.4586 4.77479 20.6075 5.65494 20.6794C6.51927 20.75 7.59469 20.75 8.96637 20.75H9.03358C10.4053 20.75 11.4807 20.75 12.3451 20.6794C13.2252 20.6075 13.9523 20.4586 14.6104 20.1233C15.6924 19.572 16.572 18.6924 17.1233 17.6104C17.2055 17.449 17.3977 17.3705 17.5638 17.4429C18.5944 17.8917 19.4515 18.2529 20.159 18.4448C20.9839 18.6686 21.7874 18.7147 22.5057 18.2446C23.2241 17.7746 23.5036 17.0198 23.6288 16.1743C23.7501 15.3556 23.75 14.2757 23.75 12.9502V11.0498C23.75 9.72425 23.7501 8.64436 23.6288 7.82567C23.5036 6.98019 23.2241 6.2254 22.5057 5.75537C21.7874 5.28534 20.9839 5.33144 20.159 5.55522C19.4515 5.74714 18.5944 6.10828 17.5638 6.55712C17.3977 6.62946 17.2055 6.55099 17.1233 6.38955C17.0924 6.32892 17.0605 6.26893 17.0275 6.20959ZM17.6987 15.8651C17.6573 15.847 17.6328 15.8037 17.6382 15.7589C17.6542 15.6247 17.6678 15.4869 17.6794 15.3451C17.75 14.4807 17.75 13.4053 17.75 12.0336V11.9664C17.75 10.5947 17.75 9.51927 17.6794 8.65494C17.6678 8.51314 17.6542 8.37532 17.6382 8.24112C17.6328 8.19625 17.6573 8.15303 17.6987 8.13494C18.9854 7.57271 19.873 7.18703 20.5517 7.0029C21.217 6.82242 21.4978 6.88845 21.6844 7.01054C21.871 7.13264 22.044 7.36358 22.145 8.04545C22.248 8.74113 22.25 9.70889 22.25 11.113V12.887C22.25 14.2911 22.248 15.2589 22.145 15.9546C22.044 16.6364 21.871 16.8674 21.6844 16.9895C21.4978 17.1116 21.217 17.1776 20.5517 16.9971C19.873 16.813 18.9854 16.4273 17.6987 15.8651Z" fill="#FAFAFA"/>
<path d="M18.9706 4L2 20.9706M9.0001 9H5.0001" stroke="#FAFAFA" stroke-width="1.5" stroke-linecap="round"/>
</svg>
