<svg width="24" height="24" viewBox="0 0 24 24" fill="none" xmlns="http://www.w3.org/2000/svg">
<path d="M9 9H5M16.7941 7.71794C17 8.68294 17 9.97559 17 12C17 14.024 17 15.3166 16.7942 16.2815M16.7941 7.71794C16.7152 7.3481 16.606 7.02638 16.455 6.73005C15.9757 5.78924 15.2108 5.02433 14.27 4.54497C13.2004 4 11.8003 4 9 4C6.19974 4 4.79961 4 3.73005 4.54497C2.78924 5.02433 2.02433 5.78924 1.54497 6.73005C1 7.79961 1 9.19974 1 12C1 14.8003 1 16.2004 1.54497 17.27C2.02433 18.2108 2.78924 18.9757 3.73005 19.455C4.79961 20 6.19974 20 9 20C11.8003 20 13.2004 20 14.27 19.455C15.2108 18.9757 15.9757 18.2108 16.455 17.27C16.6061 16.9735 16.7153 16.6516 16.7942 16.2815M16.7941 7.71794L17 7.62176L17.3984 7.44768C19.9262 6.34311 21.1902 5.79083 22.0951 6.38296C23 6.97508 23 8.3544 23 11.113V12.887C23 15.6456 23 17.0249 22.0951 17.617C21.1902 18.2092 19.9262 17.6569 17.3984 16.5523L17 16.3782L16.7942 16.2815" stroke="#FAFAFA" stroke-width="1.5" stroke-linecap="round"/>
</svg>
