<svg width="24" height="24" viewBox="0 0 24 24" fill="none" xmlns="http://www.w3.org/2000/svg">
<path d="M12.7499 7.99991C12.7499 7.5857 12.4141 7.24991 11.9999 7.24991C11.5857 7.24991 11.2499 7.5857 11.2499 7.99991H12.7499ZM11.2499 15.9999C11.2499 16.4141 11.5857 16.7499 11.9999 16.7499C12.4141 16.7499 12.7499 16.4141 12.7499 15.9999H11.2499ZM15.7499 8.99991C15.7499 8.5857 15.4141 8.24991 14.9999 8.24991C14.5857 8.24991 14.2499 8.5857 14.2499 8.99991H15.7499ZM14.2499 14.9999C14.2499 15.4141 14.5857 15.7499 14.9999 15.7499C15.4141 15.7499 15.7499 15.4141 15.7499 14.9999H14.2499ZM18.7499 10.9999C18.7499 10.5857 18.4141 10.2499 17.9999 10.2499C17.5857 10.2499 17.2499 10.5857 17.2499 10.9999H18.7499ZM17.2499 12.9999C17.2499 13.4141 17.5857 13.7499 17.9999 13.7499C18.4141 13.7499 18.7499 13.4141 18.7499 12.9999H17.2499ZM9.74994 8.99991C9.74994 8.5857 9.41415 8.24991 8.99994 8.24991C8.58572 8.24991 8.24994 8.5857 8.24994 8.99991H9.74994ZM8.24994 14.9999C8.24994 15.4141 8.58572 15.7499 8.99994 15.7499C9.41415 15.7499 9.74994 15.4141 9.74994 14.9999H8.24994ZM6.74994 10.9999C6.74994 10.5857 6.41415 10.2499 5.99994 10.2499C5.58572 10.2499 5.24994 10.5857 5.24994 10.9999H6.74994ZM5.24994 12.9999C5.24994 13.4141 5.58572 13.7499 5.99994 13.7499C6.41415 13.7499 6.74994 13.4141 6.74994 12.9999H5.24994ZM16.8954 3.02486L17.2377 2.35755V2.35755L16.8954 3.02486ZM17.3248 3.2728L16.9181 3.90293L17.3248 3.2728ZM6.67504 3.2728L6.2683 2.64268L6.67504 3.2728ZM7.10448 3.02486L6.76215 2.35755V2.35755L7.10448 3.02486ZM1.77959 12.2478L2.52867 12.2107L1.77959 12.2478ZM1.77959 11.752L1.03051 11.7148L1.77959 11.752ZM7.10448 20.975L6.76215 21.6423H6.76215L7.10448 20.975ZM6.67504 20.727L7.08179 20.0969L6.67504 20.727ZM17.3248 20.727L17.7316 21.3571L17.3248 20.727ZM16.8954 20.975L17.2377 21.6423L16.8954 20.975ZM22.2203 12.2479L22.9694 12.285L22.2203 12.2479ZM22.2203 11.752L21.4712 11.7892L22.2203 11.752ZM11.2499 7.99991V15.9999H12.7499V7.99991H11.2499ZM14.2499 8.99991V14.9999H15.7499V8.99991H14.2499ZM17.2499 10.9999V12.9999H18.7499V10.9999H17.2499ZM8.24994 8.99991L8.24994 14.9999H9.74994L9.74994 8.99991H8.24994ZM5.24994 10.9999L5.24994 12.9999H6.74994L6.74994 10.9999H5.24994ZM11.9999 3.22363C13.2867 3.22363 14.2031 3.22432 14.9332 3.28956C15.649 3.35352 16.1318 3.4761 16.5531 3.69218L17.2377 2.35755C16.5844 2.0224 15.8932 1.86936 15.0667 1.79551C14.2545 1.72294 13.2604 1.72363 11.9999 1.72363V3.22363ZM20.8995 6.86177C20.2692 5.77015 19.7727 4.90888 19.3038 4.24182C18.8266 3.56301 18.3485 3.04089 17.7316 2.64268L16.9181 3.90293C17.3158 4.15967 17.6634 4.51653 18.0767 5.10446C18.4983 5.70414 18.957 6.49738 19.6004 7.61177L20.8995 6.86177ZM16.5531 3.69218C16.6781 3.75635 16.8 3.82668 16.9181 3.90293L17.7316 2.64268C17.5718 2.53953 17.407 2.44437 17.2377 2.35755L16.5531 3.69218ZM4.39945 7.61177C5.04285 6.49738 5.50162 5.70414 5.92318 5.10446C6.33648 4.51653 6.68405 4.15967 7.08179 3.90293L6.2683 2.64268C5.65139 3.04089 5.17323 3.56301 4.69604 4.24182C4.22712 4.90888 3.73066 5.77015 3.10042 6.86177L4.39945 7.61177ZM11.9999 1.72363C10.7394 1.72363 9.74533 1.72294 8.93318 1.79551C8.10672 1.86936 7.41547 2.0224 6.76215 2.35755L7.44681 3.69218C7.86803 3.4761 8.35086 3.35352 9.06668 3.28956C9.7968 3.22432 10.7131 3.22363 11.9999 3.22363V1.72363ZM7.08179 3.90293C7.1999 3.82668 7.32173 3.75635 7.44681 3.69218L6.76215 2.35755C6.59292 2.44436 6.4281 2.53952 6.2683 2.64268L7.08179 3.90293ZM4.39945 16.3881C3.75606 15.2737 3.29848 14.4797 2.98992 13.8148C2.6874 13.1629 2.55214 12.6835 2.52867 12.2107L1.03051 12.285C1.06692 13.0184 1.28001 13.6936 1.62929 14.4462C1.97252 15.1859 2.47017 16.0464 3.10042 17.1381L4.39945 16.3881ZM3.10042 6.86177C2.47017 7.95339 1.97252 8.81397 1.62929 9.5536C1.28001 10.3063 1.06692 10.9814 1.03051 11.7148L2.52867 11.7892C2.55214 11.3163 2.6874 10.8369 2.98992 10.185C3.29848 9.52009 3.75606 8.72616 4.39945 7.61177L3.10042 6.86177ZM2.52867 12.2107C2.52169 12.0702 2.52169 11.9296 2.52867 11.7892L1.03051 11.7148C1.02108 11.9048 1.02108 12.0951 1.03051 12.285L2.52867 12.2107ZM11.9999 20.7762C10.7131 20.7762 9.7968 20.7755 9.06668 20.7103C8.35086 20.6463 7.86803 20.5237 7.44681 20.3076L6.76215 21.6423C7.41546 21.9774 8.10672 22.1305 8.93318 22.2043C9.74533 22.2769 10.7394 22.2762 11.9999 22.2762V20.7762ZM3.10042 17.1381C3.73066 18.2297 4.22712 19.0909 4.69604 19.758C5.17323 20.4368 5.65139 20.9589 6.26829 21.3571L7.08179 20.0969C6.68405 19.8402 6.33648 19.4833 5.92318 18.8954C5.50162 18.2957 5.04285 17.5024 4.39945 16.3881L3.10042 17.1381ZM7.44681 20.3076C7.32173 20.2435 7.1999 20.1731 7.08179 20.0969L6.26829 21.3571C6.42809 21.4603 6.59292 21.5555 6.76215 21.6423L7.44681 20.3076ZM19.6004 16.3881C18.957 17.5024 18.4983 18.2957 18.0767 18.8954C17.6634 19.4833 17.3158 19.8402 16.9181 20.0969L17.7316 21.3571C18.3485 20.9589 18.8266 20.4368 19.3038 19.758C19.7727 19.0909 20.2692 18.2297 20.8995 17.1381L19.6004 16.3881ZM11.9999 22.2762C13.2604 22.2762 14.2545 22.2769 15.0667 22.2043C15.8931 22.1305 16.5844 21.9774 17.2377 21.6423L16.5531 20.3076C16.1318 20.5237 15.649 20.6463 14.9332 20.7103C14.2031 20.7755 13.2867 20.7762 11.9999 20.7762V22.2762ZM16.9181 20.0969C16.8 20.1731 16.6781 20.2435 16.5531 20.3076L17.2377 21.6423C17.4069 21.5555 17.5718 21.4603 17.7316 21.3571L16.9181 20.0969ZM20.8995 17.1381C21.5297 16.0464 22.0274 15.1859 22.3706 14.4462C22.7199 13.6936 22.9329 13.0184 22.9694 12.285L21.4712 12.2107C21.4477 12.6835 21.3125 13.1629 21.01 13.8148C20.7014 14.4797 20.2438 15.2737 19.6004 16.3881L20.8995 17.1381ZM19.6004 7.61177C20.2438 8.72616 20.7014 9.52009 21.01 10.185C21.3125 10.8369 21.4477 11.3163 21.4712 11.7892L22.9694 11.7148C22.9329 10.9814 22.7199 10.3063 22.3706 9.5536C22.0274 8.81397 21.5297 7.95339 20.8995 6.86177L19.6004 7.61177ZM22.9694 12.285C22.9788 12.0951 22.9788 11.9048 22.9694 11.7148L21.4712 11.7892C21.4782 11.9296 21.4782 12.0702 21.4712 12.2107L22.9694 12.285Z" fill="#FAFAFA"/>
</svg>
