<svg width="24" height="24" viewBox="0 0 24 24" fill="none" xmlns="http://www.w3.org/2000/svg">
<path d="M12.7499 7.99993C12.7499 7.58572 12.4141 7.24993 11.9999 7.24993C11.5857 7.24993 11.2499 7.58572 11.2499 7.99993H12.7499ZM11.2499 15.9999C11.2499 16.4141 11.5857 16.7499 11.9999 16.7499C12.4141 16.7499 12.7499 16.4141 12.7499 15.9999H11.2499ZM15.7499 8.99993C15.7499 8.58572 15.4141 8.24993 14.9999 8.24993C14.5857 8.24993 14.2499 8.58572 14.2499 8.99993H15.7499ZM14.2499 14.9999C14.2499 15.4141 14.5857 15.7499 14.9999 15.7499C15.4141 15.7499 15.7499 15.4141 15.7499 14.9999H14.2499ZM18.7499 10.9999C18.7499 10.5857 18.4141 10.2499 17.9999 10.2499C17.5857 10.2499 17.2499 10.5857 17.2499 10.9999H18.7499ZM17.2499 12.9999C17.2499 13.4141 17.5857 13.7499 17.9999 13.7499C18.4141 13.7499 18.7499 13.4141 18.7499 12.9999H17.2499ZM9.74991 8.99993C9.74991 8.58572 9.41413 8.24993 8.99991 8.24993C8.5857 8.24993 8.24991 8.58572 8.24991 8.99993H9.74991ZM8.24991 14.9999C8.24991 15.4141 8.5857 15.7499 8.99991 15.7499C9.41413 15.7499 9.74991 15.4141 9.74991 14.9999H8.24991ZM6.74991 10.9999C6.74991 10.5857 6.41413 10.2499 5.99991 10.2499C5.5857 10.2499 5.24991 10.5857 5.24991 10.9999H6.74991ZM5.24991 12.9999C5.24991 13.4141 5.5857 13.7499 5.99991 13.7499C6.41413 13.7499 6.74991 13.4141 6.74991 12.9999H5.24991ZM20.975 16.8954L20.3076 16.5531L20.975 16.8954ZM20.727 17.3248L21.3571 17.7316L20.727 17.3248ZM20.727 6.67504L21.3571 6.26829L20.727 6.67504ZM20.975 7.10448L20.3076 7.44681L20.975 7.10448ZM11.752 1.77959L11.7148 1.03051L11.752 1.77959ZM12.2478 1.77959L12.2107 2.52867L12.2478 1.77959ZM3.02486 7.10448L3.69218 7.44681L3.02486 7.10448ZM3.2728 6.67504L2.64268 6.2683L2.64268 6.2683L3.2728 6.67504ZM3.2728 17.3248L2.64268 17.7316L3.2728 17.3248ZM3.02486 16.8954L3.69218 16.5531L3.02486 16.8954ZM11.752 22.2203L11.7892 21.4712L11.752 22.2203ZM12.2479 22.2203L12.285 22.9694L12.2479 22.2203ZM11.2499 7.99993V15.9999H12.7499V7.99993H11.2499ZM14.2499 8.99993V14.9999H15.7499V8.99993H14.2499ZM17.2499 10.9999V12.9999H18.7499V10.9999H17.2499ZM8.24991 8.99993L8.24991 14.9999H9.74991L9.74991 8.99993H8.24991ZM5.24991 10.9999L5.24991 12.9999H6.74991V10.9999H5.24991ZM20.7762 11.9999C20.7762 13.2867 20.7755 14.2031 20.7103 14.9332C20.6463 15.649 20.5237 16.1318 20.3076 16.5531L21.6423 17.2377C21.9774 16.5844 22.1305 15.8931 22.2043 15.0667C22.2769 14.2545 22.2762 13.2604 22.2762 11.9999H20.7762ZM17.1381 20.8995C18.2297 20.2692 19.0909 19.7727 19.758 19.3038C20.4368 18.8266 20.9589 18.3485 21.3571 17.7316L20.0969 16.9181C19.8402 17.3158 19.4833 17.6634 18.8954 18.0767C18.2957 18.4983 17.5024 18.957 16.3881 19.6004L17.1381 20.8995ZM20.3076 16.5531C20.2435 16.6781 20.1731 16.8 20.0969 16.9181L21.3571 17.7316C21.4603 17.5718 21.5555 17.4069 21.6423 17.2377L20.3076 16.5531ZM16.3881 4.39945C17.5024 5.04285 18.2957 5.50162 18.8954 5.92318C19.4833 6.33648 19.8402 6.68404 20.0969 7.08179L21.3571 6.26829C20.9589 5.65139 20.4368 5.17323 19.758 4.69604C19.0909 4.22712 18.2297 3.73066 17.1381 3.10042L16.3881 4.39945ZM22.2762 11.9999C22.2762 10.7394 22.2769 9.74533 22.2043 8.93318C22.1305 8.10672 21.9774 7.41546 21.6423 6.76215L20.3076 7.44681C20.5237 7.86803 20.6463 8.35086 20.7103 9.06668C20.7755 9.7968 20.7762 10.7131 20.7762 11.9999H22.2762ZM20.0969 7.08179C20.1731 7.1999 20.2435 7.32173 20.3076 7.44681L21.6423 6.76215C21.5555 6.59292 21.4603 6.42809 21.3571 6.26829L20.0969 7.08179ZM7.61177 4.39945C8.72616 3.75606 9.52009 3.29848 10.185 2.98992C10.8369 2.6874 11.3163 2.55214 11.7892 2.52867L11.7148 1.03051C10.9814 1.06692 10.3063 1.28001 9.5536 1.62929C8.81397 1.97252 7.95339 2.47017 6.86177 3.10042L7.61177 4.39945ZM17.1381 3.10042C16.0464 2.47017 15.1859 1.97252 14.4462 1.62929C13.6936 1.28001 13.0184 1.06692 12.285 1.03051L12.2107 2.52867C12.6835 2.55214 13.1629 2.6874 13.8148 2.98992C14.4797 3.29848 15.2737 3.75606 16.3881 4.39945L17.1381 3.10042ZM11.7892 2.52867C11.9296 2.52169 12.0702 2.52169 12.2107 2.52867L12.285 1.03051C12.0951 1.02108 11.9048 1.02108 11.7148 1.03051L11.7892 2.52867ZM3.22363 11.9999C3.22363 10.7131 3.22432 9.7968 3.28956 9.06668C3.35352 8.35086 3.4761 7.86803 3.69218 7.44681L2.35755 6.76215C2.0224 7.41547 1.86936 8.10672 1.79551 8.93318C1.72294 9.74533 1.72363 10.7394 1.72363 11.9999H3.22363ZM6.86177 3.10042C5.77015 3.73066 4.90888 4.22712 4.24182 4.69604C3.56301 5.17323 3.04089 5.65139 2.64268 6.2683L3.90293 7.08179C4.15967 6.68405 4.51653 6.33648 5.10446 5.92318C5.70414 5.50162 6.49738 5.04285 7.61177 4.39945L6.86177 3.10042ZM3.69218 7.44681C3.75635 7.32173 3.82668 7.1999 3.90293 7.08179L2.64268 6.2683C2.53952 6.4281 2.44436 6.59292 2.35755 6.76215L3.69218 7.44681ZM7.61177 19.6004C6.49738 18.957 5.70414 18.4983 5.10446 18.0767C4.51653 17.6634 4.15967 17.3158 3.90293 16.9181L2.64268 17.7316C3.04089 18.3485 3.56301 18.8266 4.24182 19.3038C4.90888 19.7727 5.77015 20.2692 6.86177 20.8995L7.61177 19.6004ZM1.72363 11.9999C1.72363 13.2604 1.72294 14.2545 1.79551 15.0667C1.86936 15.8932 2.0224 16.5844 2.35755 17.2377L3.69218 16.5531C3.4761 16.1318 3.35352 15.649 3.28956 14.9332C3.22432 14.2031 3.22363 13.2867 3.22363 11.9999H1.72363ZM3.90293 16.9181C3.82668 16.8 3.75635 16.6781 3.69218 16.5531L2.35755 17.2377C2.44437 17.407 2.53952 17.5718 2.64268 17.7316L3.90293 16.9181ZM6.86177 20.8995C7.95339 21.5297 8.81397 22.0274 9.5536 22.3706C10.3063 22.7199 10.9814 22.9329 11.7148 22.9694L11.7892 21.4712C11.3163 21.4477 10.8369 21.3125 10.185 21.01C9.52009 20.7014 8.72616 20.2438 7.61177 19.6004L6.86177 20.8995ZM16.3881 19.6004C15.2737 20.2438 14.4797 20.7014 13.8148 21.01C13.1629 21.3125 12.6835 21.4477 12.2107 21.4712L12.285 22.9694C13.0184 22.9329 13.6936 22.7199 14.4462 22.3706C15.1859 22.0274 16.0464 21.5297 17.1381 20.8995L16.3881 19.6004ZM11.7148 22.9694C11.9048 22.9788 12.0951 22.9788 12.285 22.9694L12.2107 21.4712C12.0702 21.4782 11.9296 21.4782 11.7892 21.4712L11.7148 22.9694Z" fill="#FAFAFA"/>
</svg>
