<svg width="24" height="24" viewBox="0 0 24 24" fill="none" xmlns="http://www.w3.org/2000/svg">
<path d="M20 15.7312L20.4 15.3312C20.4599 15.2714 20.4898 15.2415 20.5147 15.2158C22.4003 13.2754 22.4003 10.1871 20.5147 8.2467C20.4898 8.22102 20.4599 8.19109 20.4 8.13124L20 7.73124M8.91496 15.8919L9.91095 16.7128C12.3331 18.7091 13.5442 19.7072 14.5596 19.4113C14.7612 19.3525 14.9523 19.2624 15.1258 19.1442C16 18.5489 16 16.9795 16 13.8407V9.62183C16 6.48302 16 4.91362 15.1258 4.31825C14.9523 4.20008 14.7612 4.10997 14.5596 4.05122C13.5442 3.75525 12.3331 4.75339 9.91095 6.74968L8.91496 7.57056C8.72104 7.73038 8.62409 7.81029 8.52604 7.88335C7.72972 8.47675 6.77473 8.81958 5.78282 8.86812C5.66069 8.8741 5.53505 8.8741 5.28376 8.8741C5.02022 8.8741 4.88845 8.8741 4.7776 8.8865C3.84914 8.99039 3.11629 9.72323 3.0124 10.6517C3 10.7625 3 10.8943 3 11.1579V12.3046C3 12.5682 3 12.6999 3.0124 12.8108C3.11629 13.7392 3.84914 14.4721 4.7776 14.576C4.88845 14.5884 5.02022 14.5884 5.28376 14.5884C5.53505 14.5884 5.66069 14.5884 5.78282 14.5944C6.77473 14.6429 7.72972 14.9857 8.52604 15.5791C8.62409 15.6522 8.72104 15.7321 8.91496 15.8919Z" stroke="#FAFAFA" stroke-width="1.5" stroke-linecap="round"/>
</svg>
