<svg width="24" height="24" viewBox="0 0 24 24" fill="none" xmlns="http://www.w3.org/2000/svg">
<path d="M4.75 20L20.7499 4" stroke="#FAFAFA" stroke-width="1.5" stroke-linecap="round"/>
<path d="M11.138 7.59716C12.3658 6.58518 13.2306 5.87438 13.913 5.4439C14.6084 5.0052 14.9194 4.98739 15.0998 5.03997C15.2258 5.07669 15.3452 5.13301 15.4536 5.20687C15.6089 5.31265 15.793 5.56396 15.8967 6.3796C15.9492 6.792 15.975 7.28907 15.9877 7.89174C16.0017 8.55497 16.8018 8.88735 17.2709 8.41827C17.413 8.27613 17.4921 8.08248 17.4879 7.8815C17.4743 7.23222 17.4455 6.66831 17.3847 6.19033C17.2699 5.28774 17.0169 4.45666 16.298 3.96707C16.0594 3.80458 15.7967 3.68067 15.5195 3.5999C14.6845 3.35651 13.8822 3.68978 13.1127 4.17524C12.3398 4.66281 11.4018 5.43593 10.2282 6.40321L9.18797 7.26051C8.98851 7.4249 8.90785 7.49111 8.82791 7.55068C8.15104 8.05507 7.3393 8.34647 6.49617 8.38773C6.3966 8.3926 6.29225 8.39281 6.03377 8.39281L5.9922 8.3928C5.76938 8.39274 5.5977 8.39269 5.44421 8.40987C4.16758 8.55272 3.15992 9.56037 3.01707 10.837C2.9999 10.9905 2.99994 11.1622 3.00001 11.385V12.6149C2.99994 12.8377 2.9999 13.0094 3.01707 13.1629C3.15992 14.4395 4.16758 15.4472 5.44421 15.59C5.59771 15.6072 5.76939 15.6072 5.99221 15.6071L6.03377 15.6071C6.29225 15.6071 6.3966 15.6073 6.49617 15.6122C7.3393 15.6534 8.15104 15.9448 8.82791 16.4492C8.96136 16.5487 9.14704 16.5422 9.26472 16.4245L9.76151 15.9277C9.95528 15.7339 9.94394 15.4102 9.7242 15.2465C8.80843 14.564 7.71019 14.1698 6.56949 14.114C6.42886 14.1071 6.28609 14.1071 6.05402 14.1071H6.03377C5.74997 14.1071 5.66982 14.1059 5.61101 14.0993C5.03072 14.0344 4.5727 13.5764 4.50777 12.9961C4.50119 12.9373 4.50002 12.8571 4.50002 12.5733V11.4266C4.50002 11.1428 4.50119 11.0626 4.50777 11.0038C4.5727 10.4235 5.03072 9.9655 5.61101 9.90057C5.66982 9.89398 5.74997 9.89281 6.03377 9.89281H6.05403C6.28607 9.89282 6.42887 9.89282 6.56949 9.88594C7.71019 9.83011 8.80843 9.43587 9.7242 8.75345C9.83711 8.66932 9.94728 8.57851 10.1264 8.43091L11.138 7.59716Z" fill="#FAFAFA"/>
<path d="M11.8122 16.9572C11.5133 16.7124 11.0774 16.7331 10.8043 17.0063L10.2275 17.5831C10.2236 17.5869 10.2239 17.5932 10.2281 17.5967C11.4018 18.564 12.3398 19.3371 13.1127 19.8247C13.8822 20.3101 14.6845 20.6434 15.5195 20.4C15.7967 20.3192 16.0594 20.1953 16.298 20.0328C17.0169 19.5433 17.2699 18.7122 17.3847 17.8096C17.5 16.9031 17.5 15.6875 17.5 14.1666V12.1212C17.5 11.453 16.6922 11.1184 16.2197 11.5908C16.079 11.7315 16 11.9222 16 12.1212V14.1094C16 15.7005 15.9985 16.8199 15.8967 17.6203C15.793 18.436 15.6089 18.6873 15.4536 18.793C15.3452 18.8669 15.2258 18.9232 15.0998 18.9599C14.9194 19.0125 14.6084 18.9947 13.913 18.556C13.3628 18.2089 12.6941 17.6797 11.8122 16.9572Z" fill="#FAFAFA"/>
</svg>
