<svg width="24" height="24" viewBox="0 0 24 24" fill="none" xmlns="http://www.w3.org/2000/svg">
<path d="M6.91496 16.1607L7.39196 15.582H7.39196L6.91496 16.1607ZM6.52604 15.8479L6.0779 16.4493L6.52604 15.8479ZM3.78282 14.8632L3.74616 15.6123L3.78282 14.8632ZM3.78282 9.13692L3.74616 8.38782L3.78282 9.13692ZM6.91496 7.83936L7.39196 8.41812H7.39196L6.91496 7.83936ZM6.52604 8.15215L6.97418 8.75354L6.52604 8.15215ZM1.0124 13.0796L0.267056 13.163L1.0124 13.0796ZM2.7776 14.8448L2.6942 15.5901L2.7776 14.8448ZM13.1258 19.413L12.7036 18.7931L13.1258 19.413ZM7.91095 16.9816L7.43395 17.5604L7.91095 16.9816ZM12.5596 19.6801L12.3498 18.96L12.5596 19.6801ZM13.1258 4.58705L13.5479 3.96715L13.1258 4.58705ZM7.91095 7.01848L7.43395 6.43972H7.43395L7.91095 7.01848ZM12.5596 4.32002L12.3498 5.04006L12.5596 4.32002ZM1.0124 10.9205L0.267056 10.8371L1.0124 10.9205ZM2.7776 9.1553L2.6942 8.40995L2.7776 9.1553ZM17 11.25C16.5858 11.25 16.25 11.5858 16.25 12C16.25 12.4143 16.5858 12.75 17 12.75V11.25ZM23 12.75C23.4142 12.75 23.75 12.4143 23.75 12C23.75 11.5858 23.4142 11.25 23 11.25V12.75ZM19.25 15C19.25 15.4143 19.5858 15.75 20 15.75C20.4142 15.75 20.75 15.4143 20.75 15H19.25ZM20.75 9.00004C20.75 8.58582 20.4142 8.25004 20 8.25004C19.5858 8.25004 19.25 8.58582 19.25 9.00004H20.75ZM13.25 9.89062V14.1095H14.75V9.89062H13.25ZM1.75 12.5734V11.4267H0.25V12.5734H1.75ZM7.39196 8.41812L8.38796 7.59725L7.43395 6.43972L6.43796 7.26059L7.39196 8.41812ZM8.38796 16.4028L7.39196 15.582L6.43796 16.7395L7.43395 17.5604L8.38796 16.4028ZM7.39196 15.582C7.2036 15.4267 7.09034 15.3331 6.97418 15.2465L6.0779 16.4493C6.15784 16.5089 6.23849 16.5751 6.43796 16.7395L7.39196 15.582ZM3.28376 15.6072C3.54224 15.6072 3.64659 15.6074 3.74616 15.6123L3.81948 14.1141C3.6748 14.107 3.52786 14.1072 3.28376 14.1072V15.6072ZM6.97418 15.2465C6.05842 14.5641 4.96018 14.1699 3.81948 14.1141L3.74616 15.6123C4.58929 15.6535 5.40103 15.9449 6.0779 16.4493L6.97418 15.2465ZM3.28376 9.8929C3.52786 9.8929 3.6748 9.8931 3.81948 9.88602L3.74616 8.38782C3.64659 8.39269 3.54224 8.3929 3.28376 8.3929V9.8929ZM6.43796 7.26059C6.23849 7.42499 6.15783 7.49119 6.0779 7.55076L6.97418 8.75354C7.09034 8.66698 7.2036 8.57337 7.39196 8.41812L6.43796 7.26059ZM3.81948 9.88602C4.96018 9.8302 6.05842 9.43595 6.97418 8.75354L6.0779 7.55076C5.40103 8.05515 4.58929 8.34655 3.74616 8.38782L3.81948 9.88602ZM0.25 12.5734C0.25 12.8167 0.248827 13.0001 0.267056 13.163L1.75775 12.9962C1.75117 12.9374 1.75 12.8572 1.75 12.5734H0.25ZM3.28376 14.1072C2.99995 14.1072 2.9198 14.106 2.861 14.0994L2.6942 15.5901C2.8571 15.6084 3.04049 15.6072 3.28376 15.6072V14.1072ZM0.267056 13.163C0.409905 14.4396 1.41756 15.4473 2.6942 15.5901L2.861 14.0994C2.28071 14.0345 1.82268 13.5765 1.75775 12.9962L0.267056 13.163ZM13.25 14.1095C13.25 15.7006 13.2485 16.82 13.1467 17.6204C13.043 18.436 12.8589 18.6873 12.7036 18.7931L13.5479 20.0329C14.2668 19.5433 14.5199 18.7123 14.6347 17.8097C14.7515 16.8918 14.75 15.6571 14.75 14.1095H13.25ZM7.43395 17.5604C8.62824 18.5447 9.58011 19.3311 10.3627 19.8248C11.1322 20.3102 11.9345 20.6435 12.7695 20.4001L12.3498 18.96C12.1694 19.0126 11.8584 18.9948 11.163 18.5561C10.4806 18.1256 9.61583 17.4148 8.38796 16.4028L7.43395 17.5604ZM12.7036 18.7931C12.5952 18.867 12.4758 18.9233 12.3498 18.96L12.7695 20.4001C13.0467 20.3193 13.3093 20.1954 13.5479 20.0329L12.7036 18.7931ZM14.75 9.89062C14.75 8.34298 14.7515 7.10827 14.6347 6.19042C14.5199 5.28782 14.2668 4.45674 13.5479 3.96715L12.7036 5.20695C12.8589 5.31273 13.043 5.56404 13.1467 6.37969C13.2485 7.18007 13.25 8.29946 13.25 9.89062H14.75ZM8.38796 7.59725C9.61583 6.58526 10.4806 5.87447 11.163 5.44398C11.8584 5.00529 12.1694 4.98747 12.3498 5.04006L12.7695 3.59998C11.9345 3.35659 11.1322 3.68987 10.3627 4.17533C9.58011 4.66899 8.62824 5.45541 7.43395 6.43972L8.38796 7.59725ZM13.5479 3.96715C13.3093 3.80466 13.0467 3.68076 12.7695 3.59998L12.3498 5.04006C12.4758 5.07677 12.5952 5.1331 12.7036 5.20695L13.5479 3.96715ZM1.75 11.4267C1.75 11.1428 1.75117 11.0627 1.75775 11.0039L0.267056 10.8371C0.248827 11 0.25 11.1834 0.25 11.4267H1.75ZM3.28376 8.3929C3.04049 8.3929 2.8571 8.39172 2.6942 8.40995L2.861 9.90065C2.9198 9.89407 2.99995 9.8929 3.28376 9.8929V8.3929ZM1.75775 11.0039C1.82268 10.4236 2.28071 9.96558 2.861 9.90065L2.6942 8.40995C1.41756 8.5528 0.409905 9.56046 0.267056 10.8371L1.75775 11.0039ZM20.75 15V9.00004H19.25V15H20.75ZM17 12.75H20V11.25H17V12.75ZM20 12.75H23V11.25H20V12.75Z" fill="#FAFAFA"/>
</svg>
