<svg width="24" height="24" viewBox="0 0 24 24" fill="none" xmlns="http://www.w3.org/2000/svg">
<path d="M17 15.7312L17.4 15.3312C17.4599 15.2714 17.4898 15.2415 17.5147 15.2158C19.4003 13.2754 19.4003 10.1871 17.5147 8.2467C17.4898 8.22102 17.4599 8.19109 17.4 8.13124L17 7.73124M19 18.7312L19.7 18.0312C20.2973 17.434 20.5959 17.1354 20.8251 16.8611C23.3067 13.8914 23.3067 9.57109 20.8251 6.60138C20.5959 6.32712 20.2972 6.02848 19.7 5.43124L19 4.73124M6.91496 15.8919L7.91095 16.7128C10.3331 18.7091 11.5442 19.7072 12.5596 19.4113C12.7612 19.3525 12.9523 19.2624 13.1258 19.1442C14 18.5489 14 16.9795 14 13.8407V9.62183C14 6.48302 14 4.91362 13.1258 4.31825C12.9523 4.20008 12.7612 4.10997 12.5596 4.05122C11.5442 3.75525 10.3331 4.75339 7.91095 6.74968L6.91496 7.57056C6.72104 7.73038 6.62409 7.81029 6.52604 7.88335C5.72972 8.47675 4.77473 8.81958 3.78282 8.86812C3.66069 8.8741 3.53505 8.8741 3.28376 8.8741C3.02022 8.8741 2.88845 8.8741 2.7776 8.8865C1.84914 8.99039 1.11629 9.72323 1.0124 10.6517C1 10.7625 1 10.8943 1 11.1579V12.3046C1 12.5682 1 12.6999 1.0124 12.8108C1.11629 13.7392 1.84914 14.4721 2.7776 14.576C2.88845 14.5884 3.02022 14.5884 3.28376 14.5884C3.53505 14.5884 3.66069 14.5884 3.78282 14.5944C4.77473 14.6429 5.72972 14.9857 6.52604 15.5791C6.62409 15.6522 6.72104 15.7321 6.91496 15.8919Z" stroke="#FAFAFA" stroke-width="1.5" stroke-linecap="round"/>
</svg>
