<svg width="24" height="24" viewBox="0 0 24 24" fill="none" xmlns="http://www.w3.org/2000/svg">
<path d="M6 11.1579C6 10.8943 6 10.7625 6.0124 10.6517C6.11629 9.72323 6.84914 8.99039 7.7776 8.8865C7.88845 8.8741 8.02022 8.8741 8.28376 8.8741C8.53505 8.8741 8.66069 8.8741 8.78282 8.86812C9.77473 8.81958 10.7297 8.47675 11.526 7.88335C11.6241 7.81029 11.721 7.73038 11.915 7.57056L12.911 6.74968C15.3331 4.75339 16.5442 3.75525 17.5596 4.05122C17.7612 4.10997 17.9523 4.20008 18.1258 4.31825C19 4.91362 19 6.48302 19 9.62183V13.8407C19 16.9795 19 18.5489 18.1258 19.1442C17.9523 19.2624 17.7612 19.3525 17.5596 19.4113C16.5442 19.7072 15.3331 18.7091 12.911 16.7128L11.915 15.8919C11.721 15.7321 11.6241 15.6522 11.526 15.5791C10.7297 14.9857 9.77473 14.6429 8.78282 14.5944C8.66069 14.5884 8.53505 14.5884 8.28376 14.5884C8.02022 14.5884 7.88845 14.5884 7.7776 14.576C6.84914 14.4721 6.11629 13.7392 6.0124 12.8108C6 12.6999 6 12.5682 6 12.3046V11.1579Z" stroke="#FAFAFA" stroke-width="1.5"/>
</svg>
