<svg width="24" height="24" viewBox="0 0 24 24" fill="none" xmlns="http://www.w3.org/2000/svg">
<path d="M17.6386 9.92418C17.4495 9.58668 17.4672 9.15437 17.7407 8.88081C18.0559 8.56559 18.578 8.58592 18.8136 8.96435C20.1814 11.161 19.9277 14.0776 18.0526 16.0072C18.0239 16.0367 17.9906 16.07 17.9359 16.1247L17.5303 16.5303C17.2375 16.8232 16.7626 16.8232 16.4697 16.5303C16.1768 16.2374 16.1768 15.7625 16.4697 15.4696L16.8697 15.0696C16.9314 15.0079 16.9566 14.9827 16.9769 14.9618C18.3155 13.5843 18.5361 11.5261 17.6386 9.92418Z" fill="#FAFAFA"/>
<path d="M14.5303 9.96987C14.671 9.82921 14.7501 9.63828 14.7499 9.43936C14.7491 8.10114 14.7399 7.01717 14.6347 6.19033C14.5199 5.28774 14.2669 4.45666 13.548 3.96707C13.3094 3.80458 13.0467 3.68067 12.7695 3.5999C11.9345 3.35651 11.1322 3.68978 10.3627 4.17524C9.5898 4.66281 8.65177 5.43593 7.47816 6.40321L6.43797 7.26051C6.23851 7.4249 6.15785 7.49111 6.07791 7.55068C5.40104 8.05507 4.5893 8.34647 3.74617 8.38773C3.6466 8.3926 3.54225 8.39281 3.28377 8.39281L3.2422 8.3928C3.01938 8.39274 2.8477 8.39269 2.69421 8.40987C1.41758 8.55272 0.409921 9.56037 0.267071 10.837C0.249896 10.9905 0.249945 11.1622 0.250007 11.385V12.6149C0.249945 12.8377 0.249896 13.0094 0.267071 13.1629C0.409921 14.4395 1.41758 15.4472 2.69421 15.59C2.84771 15.6072 3.01939 15.6072 3.24221 15.6071L3.28377 15.6071C3.54225 15.6071 3.6466 15.6073 3.74617 15.6122C4.5893 15.6534 5.40104 15.9448 6.07791 16.4492C6.15785 16.5088 6.23851 16.575 6.43797 16.7394L6.6375 16.9038C6.93564 17.1496 7.37165 17.1286 7.64484 16.8554C7.95783 16.5424 7.93309 16.0278 7.59151 15.7463L7.37636 15.569C7.19728 15.4214 7.0871 15.3306 6.9742 15.2465C6.05843 14.564 4.96019 14.1698 3.81949 14.114C3.67886 14.1071 3.53609 14.1071 3.30402 14.1071H3.28377C2.99997 14.1071 2.91982 14.1059 2.86101 14.0993C2.28072 14.0344 1.8227 13.5764 1.75777 12.9961C1.75119 12.9373 1.75002 12.8571 1.75002 12.5733V11.4266C1.75002 11.1428 1.75119 11.0626 1.75777 11.0038C1.8227 10.4235 2.28072 9.9655 2.86101 9.90057C2.91982 9.89398 2.99997 9.89281 3.28377 9.89281H3.30403C3.53607 9.89282 3.67887 9.89282 3.81949 9.88594C4.96019 9.83011 6.05843 9.43587 6.9742 8.75345C7.08711 8.66932 7.19728 8.57851 7.37636 8.43091L8.38797 7.59716C9.61585 6.58518 10.4806 5.87438 11.163 5.4439C11.8584 5.0052 12.1694 4.98739 12.3498 5.03997C12.4758 5.07669 12.5952 5.13301 12.7036 5.20687C12.8589 5.31265 13.043 5.56396 13.1467 6.3796C13.2485 7.17999 13.25 8.29938 13.25 9.89054C13.25 10.3923 13.8567 10.6436 14.2114 10.2888L14.5303 9.96987Z" fill="#FAFAFA"/>
<path d="M13.25 13.6822C13.25 13.4833 13.329 13.2925 13.4697 13.1519C13.9422 12.6794 14.75 13.014 14.75 13.6822V14.1666C14.75 15.6875 14.75 16.9031 14.6347 17.8096C14.5199 18.7122 14.2669 19.5433 13.548 20.0328C13.3094 20.1953 13.0467 20.3192 12.7695 20.4C11.9345 20.6434 11.1322 20.3101 10.3627 19.8247C9.95063 19.5647 9.49164 19.2236 8.97504 18.8152C8.62615 18.5394 8.60063 18.0209 8.91511 17.7065C9.1871 17.4345 9.62002 17.413 9.92181 17.6515C10.4021 18.0311 10.8073 18.3316 11.163 18.556C11.8584 18.9947 12.1694 19.0125 12.3498 18.9599C12.4758 18.9232 12.5952 18.8669 12.7036 18.793C12.8589 18.6873 13.043 18.436 13.1467 17.6203C13.2485 16.8199 13.25 15.7005 13.25 14.1094V13.6822Z" fill="#FAFAFA"/>
<path d="M20.2496 7.35102C20.0034 7.05646 19.9974 6.62416 20.2688 6.35273L20.3038 6.3177C20.5988 6.0227 21.0846 6.01928 21.3558 6.33624C21.371 6.35398 21.3859 6.37161 21.4006 6.38917C24.1149 9.63729 24.1149 14.3626 21.4006 17.6107C21.1497 17.9109 20.8295 18.2311 20.266 18.7946L19.5303 19.5303C19.2375 19.8232 18.7626 19.8232 18.4697 19.5303C18.1768 19.2374 18.1768 18.7625 18.4697 18.4696L19.1697 17.7696C19.7784 17.1609 20.0473 16.891 20.2496 16.6489C22.4986 13.9576 22.4986 10.0423 20.2496 7.35102Z" fill="#FAFAFA"/>
<path d="M3.56104 20L19.561 4" stroke="#FAFAFA" stroke-width="1.5" stroke-linecap="round"/>
</svg>
