<svg width="24" height="24" viewBox="0 0 24 24" fill="none" xmlns="http://www.w3.org/2000/svg">
<path d="M19.2178 15.0616L19.1005 14.3208H19.1005L19.2178 15.0616ZM15.0616 19.2178L14.3208 19.1005V19.1005L15.0616 19.2178ZM5.06107 20.0451L5.50191 19.4383L5.06107 20.0451ZM3.95491 18.9389L4.56168 18.4981L3.95491 18.9389ZM20.0451 18.9389L20.6518 19.3798L20.0451 18.9389ZM18.9389 20.0451L19.3798 20.6518L18.9389 20.0451ZM18.9389 3.95491L18.4981 4.56168L18.9389 3.95491ZM20.0451 5.06107L19.4383 5.50191L20.0451 5.06107ZM5.06107 3.95491L5.50191 4.56168L5.06107 3.95491ZM3.95491 5.06107L4.56168 5.50191L3.95491 5.06107ZM20.9711 15L21.7206 15.0257L20.9711 15ZM15 20.9711L15.0257 21.7206L15 20.9711ZM8 11.25C7.58579 11.25 7.25 11.5858 7.25 12C7.25 12.4142 7.58579 12.75 8 12.75V11.25ZM16 12.75C16.4142 12.75 16.75 12.4142 16.75 12C16.75 11.5858 16.4142 11.25 16 11.25V12.75ZM10 7.25C9.58579 7.25 9.25 7.58579 9.25 8C9.25 8.41421 9.58579 8.75 10 8.75V7.25ZM14 8.75C14.4142 8.75 14.75 8.41421 14.75 8C14.75 7.58579 14.4142 7.25 14 7.25V8.75ZM19.1005 14.3208C16.6401 14.7105 14.7105 16.6401 14.3208 19.1005L15.8023 19.3352C16.0904 17.5166 17.5166 16.0904 19.3352 15.8023L19.1005 14.3208ZM12 20.25C10.1084 20.25 8.74999 20.249 7.69804 20.135C6.66013 20.0225 6.00992 19.8074 5.50191 19.4383L4.62023 20.6518C5.42656 21.2377 6.37094 21.5 7.53648 21.6263C8.68798 21.751 10.1418 21.75 12 21.75V20.25ZM2.25 12C2.25 13.8582 2.24897 15.312 2.37373 16.4635C2.50001 17.6291 2.76232 18.5734 3.34815 19.3798L4.56168 18.4981C4.19259 17.9901 3.97745 17.3399 3.865 16.302C3.75103 15.25 3.75 13.8916 3.75 12H2.25ZM5.50191 19.4383C5.14111 19.1762 4.82382 18.8589 4.56168 18.4981L3.34815 19.3798C3.70281 19.8679 4.13209 20.2972 4.62023 20.6518L5.50191 19.4383ZM19.4383 18.4981C19.1762 18.8589 18.8589 19.1762 18.4981 19.4383L19.3798 20.6518C19.8679 20.2972 20.2972 19.8679 20.6518 19.3798L19.4383 18.4981ZM12 3.75C13.8916 3.75 15.25 3.75103 16.302 3.865C17.3399 3.97745 17.9901 4.19259 18.4981 4.56168L19.3798 3.34815C18.5734 2.76232 17.6291 2.50001 16.4635 2.37373C15.312 2.24897 13.8582 2.25 12 2.25V3.75ZM21.75 12C21.75 10.1418 21.751 8.68798 21.6263 7.53648C21.5 6.37094 21.2377 5.42656 20.6518 4.62023L19.4383 5.50191C19.8074 6.00992 20.0225 6.66013 20.135 7.69804C20.249 8.74999 20.25 10.1084 20.25 12H21.75ZM18.4981 4.56168C18.8589 4.82382 19.1762 5.14111 19.4383 5.50191L20.6518 4.62023C20.2972 4.13209 19.8679 3.70281 19.3798 3.34815L18.4981 4.56168ZM12 2.25C10.1418 2.25 8.68798 2.24897 7.53648 2.37373C6.37094 2.50001 5.42656 2.76232 4.62023 3.34815L5.50191 4.56168C6.00992 4.19259 6.66013 3.97745 7.69804 3.865C8.74999 3.75103 10.1084 3.75 12 3.75V2.25ZM3.75 12C3.75 10.1084 3.75103 8.74999 3.865 7.69804C3.97745 6.66013 4.19259 6.00992 4.56168 5.50191L3.34815 4.62023C2.76232 5.42656 2.50001 6.37094 2.37373 7.53648C2.24897 8.68798 2.25 10.1418 2.25 12H3.75ZM4.62023 3.34815C4.13209 3.70281 3.70281 4.13209 3.34815 4.62023L4.56168 5.50191C4.82382 5.14111 5.14111 4.82382 5.50191 4.56168L4.62023 3.34815ZM20.25 12C20.25 13.1731 20.2499 14.1456 20.2215 14.9743L21.7206 15.0257C21.7501 14.1658 21.75 13.1648 21.75 12H20.25ZM20.2215 14.9743C20.158 16.8292 19.9509 17.7925 19.4383 18.4981L20.6518 19.3798C21.4537 18.2761 21.6564 16.8991 21.7206 15.0257L20.2215 14.9743ZM20.9711 14.25C20.0888 14.25 19.5579 14.2484 19.1005 14.3208L19.3352 15.8023C19.647 15.7529 20.0338 15.75 20.9711 15.75L20.9711 14.25ZM12 21.75C13.1648 21.75 14.1658 21.7501 15.0257 21.7206L14.9743 20.2215C14.1456 20.2499 13.1731 20.25 12 20.25V21.75ZM15.0257 21.7206C16.8991 21.6564 18.2761 21.4537 19.3798 20.6518L18.4981 19.4383C17.7925 19.9509 16.8292 20.158 14.9743 20.2215L15.0257 21.7206ZM15.75 20.9711C15.75 20.0338 15.7529 19.647 15.8023 19.3352L14.3208 19.1005C14.2484 19.5579 14.25 20.0888 14.25 20.9711L15.75 20.9711ZM8 12.75H16V11.25H8V12.75ZM10 8.75H14V7.25H10V8.75Z" fill="#FAFAFA"/>
</svg>
