<svg width="24" height="24" viewBox="0 0 24 24" fill="none" xmlns="http://www.w3.org/2000/svg">
<path d="M4.78217 8.93844L4.8995 9.67921H4.8995L4.78217 8.93844ZM8.93844 4.78217L9.67921 4.8995V4.8995L8.93844 4.78217ZM18.9389 20.0451L18.4981 19.4383L18.9389 20.0451ZM20.0451 18.9389L19.4383 18.4981L20.0451 18.9389ZM3.95491 18.9389L4.56168 18.4981L3.95491 18.9389ZM5.06107 20.0451L5.50191 19.4383L5.06107 20.0451ZM5.06107 3.95491L4.62024 3.34815L5.06107 3.95491ZM3.95491 5.06107L3.34815 4.62023L3.95491 5.06107ZM18.9389 3.95491L18.4981 4.56168L18.9389 3.95491ZM20.0451 5.06107L19.4383 5.50191L20.0451 5.06107ZM9 3.02893L8.97432 2.27937L9 3.02893ZM3.02893 9L2.27937 8.97432L3.02893 9ZM13.75 9C13.75 8.58579 13.4142 8.25 13 8.25C12.5858 8.25 12.25 8.58579 12.25 9H13.75ZM17.5327 14.328C17.8243 14.0338 17.8222 13.5589 17.528 13.2673C17.2338 12.9757 16.7589 12.9778 16.4673 13.272L17.5327 14.328ZM15.6022 15.2104L16.1348 15.7383L15.6022 15.2104ZM10.3978 15.2104L10.9305 14.6824L10.3978 15.2104ZM9.53269 13.272C9.24111 12.9778 8.76624 12.9757 8.47204 13.2673C8.17784 13.5589 8.17572 14.0338 8.46731 14.328L9.53269 13.272ZM13.2507 16.9841L13.3455 17.7281L13.3455 17.7281L13.2507 16.9841ZM12.7493 16.9841L12.6545 17.7281L12.6545 17.7281L12.7493 16.9841ZM4.8995 9.67921C7.35988 9.28952 9.28952 7.35988 9.67921 4.8995L8.19768 4.66485C7.90965 6.48339 6.48339 7.90965 4.66485 8.19768L4.8995 9.67921ZM12 21.75C13.8582 21.75 15.312 21.751 16.4635 21.6263C17.6291 21.5 18.5734 21.2377 19.3798 20.6518L18.4981 19.4383C17.9901 19.8074 17.3399 20.0225 16.302 20.135C15.25 20.249 13.8916 20.25 12 20.25V21.75ZM20.25 12C20.25 13.8916 20.249 15.25 20.135 16.302C20.0225 17.3399 19.8074 17.9901 19.4383 18.4981L20.6518 19.3798C21.2377 18.5734 21.5 17.6291 21.6263 16.4635C21.751 15.312 21.75 13.8582 21.75 12H20.25ZM19.3798 20.6518C19.8679 20.2972 20.2972 19.8679 20.6518 19.3798L19.4383 18.4981C19.1762 18.8589 18.8589 19.1762 18.4981 19.4383L19.3798 20.6518ZM2.25 12C2.25 13.8582 2.24897 15.312 2.37373 16.4635C2.50001 17.6291 2.76232 18.5734 3.34815 19.3798L4.56168 18.4981C4.19259 17.9901 3.97745 17.3399 3.865 16.302C3.75103 15.25 3.75 13.8916 3.75 12H2.25ZM12 20.25C10.1084 20.25 8.74999 20.249 7.69804 20.135C6.66013 20.0225 6.00992 19.8074 5.50191 19.4383L4.62024 20.6518C5.42656 21.2377 6.37094 21.5 7.53648 21.6263C8.68798 21.751 10.1418 21.75 12 21.75V20.25ZM3.34815 19.3798C3.70281 19.8679 4.13209 20.2972 4.62024 20.6518L5.50191 19.4383C5.14111 19.1762 4.82382 18.8589 4.56168 18.4981L3.34815 19.3798ZM4.62024 3.34815C4.13209 3.70281 3.70281 4.13209 3.34815 4.62023L4.56168 5.50191C4.82381 5.14111 5.14111 4.82382 5.50191 4.56168L4.62024 3.34815ZM12 3.75C13.8916 3.75 15.25 3.75103 16.302 3.865C17.3399 3.97745 17.9901 4.19259 18.4981 4.56168L19.3798 3.34815C18.5734 2.76232 17.6291 2.50001 16.4635 2.37373C15.312 2.24897 13.8582 2.25 12 2.25V3.75ZM21.75 12C21.75 10.1418 21.751 8.68798 21.6263 7.53648C21.5 6.37094 21.2377 5.42656 20.6518 4.62023L19.4383 5.50191C19.8074 6.00992 20.0225 6.66013 20.135 7.69804C20.249 8.74999 20.25 10.1084 20.25 12H21.75ZM18.4981 4.56168C18.8589 4.82382 19.1762 5.14111 19.4383 5.50191L20.6518 4.62023C20.2972 4.13209 19.8679 3.70281 19.3798 3.34815L18.4981 4.56168ZM12 2.25C10.8352 2.25 9.83424 2.24991 8.97432 2.27937L9.02568 3.77849C9.85445 3.75009 10.8269 3.75 12 3.75V2.25ZM8.97432 2.27937C7.10087 2.34355 5.7239 2.5463 4.62024 3.34815L5.50191 4.56168C6.20746 4.04907 7.17075 3.84204 9.02568 3.77849L8.97432 2.27937ZM8.25 3.02892C8.24999 3.96617 8.24707 4.35298 8.19768 4.66485L9.67921 4.8995C9.75165 4.44215 9.74999 3.91121 9.75 3.02893L8.25 3.02892ZM3.75 12C3.75 10.8269 3.75009 9.85445 3.77849 9.02568L2.27937 8.97432C2.24991 9.83424 2.25 10.8352 2.25 12H3.75ZM3.77849 9.02568C3.84204 7.17075 4.04907 6.20746 4.56168 5.50191L3.34815 4.62023C2.5463 5.7239 2.34356 7.10087 2.27937 8.97432L3.77849 9.02568ZM3.02893 9.75C3.91121 9.74999 4.44215 9.75165 4.8995 9.67921L4.66485 8.19768C4.35298 8.24707 3.96618 8.24999 3.02892 8.25L3.02893 9.75ZM12.25 9V16.2H13.75V9H12.25ZM16.4673 13.272L15.0695 14.6824L16.1348 15.7383L17.5327 14.328L16.4673 13.272ZM10.9305 14.6824L9.53269 13.272L8.46731 14.328L9.86516 15.7383L10.9305 14.6824ZM15.0695 14.6824C14.4997 15.2573 14.1161 15.6427 13.7935 15.9018C13.4827 16.1514 13.302 16.2215 13.1558 16.2401L13.3455 17.7281C13.8787 17.6601 14.3163 17.4057 14.7328 17.0713C15.1373 16.7464 15.5899 16.2882 16.1348 15.7383L15.0695 14.6824ZM9.86516 15.7383C10.4101 16.2882 10.8627 16.7464 11.2672 17.0713C11.6837 17.4057 12.1213 17.6601 12.6545 17.7281L12.8442 16.2401C12.698 16.2215 12.5173 16.1514 12.2065 15.9018C11.8839 15.6427 11.5003 15.2573 10.9305 14.6824L9.86516 15.7383ZM13.1558 16.2401C13.1041 16.2467 13.052 16.25 13 16.25V17.75C13.1154 17.75 13.2308 17.7427 13.3455 17.7281L13.1558 16.2401ZM13 16.25C12.948 16.25 12.8959 16.2467 12.8442 16.2401L12.6545 17.7281C12.7692 17.7427 12.8846 17.75 13 17.75V16.25ZM12.25 16.2V17H13.75V16.2H12.25Z" fill="#FAFAFA"/>
</svg>
