<svg width="24" height="24" viewBox="0 0 24 24" fill="none" xmlns="http://www.w3.org/2000/svg">
<path d="M4.78217 15.0616L4.8995 14.3208H4.8995L4.78217 15.0616ZM8.93844 19.2178L9.67921 19.1005V19.1005L8.93844 19.2178ZM5.06107 20.0451L4.62023 20.6518L5.06107 20.0451ZM3.95491 18.9389L4.56168 18.4981L3.95491 18.9389ZM20.0451 18.9389L19.4383 18.4981L20.0451 18.9389ZM18.9389 20.0451L18.4981 19.4383L18.9389 20.0451ZM18.9389 3.95491L18.4981 4.56168L18.9389 3.95491ZM20.0451 5.06107L19.4383 5.50191L20.0451 5.06107ZM5.06107 3.95491L5.50191 4.56168L5.06107 3.95491ZM3.95491 5.06107L4.56168 5.50191L3.95491 5.06107ZM3.02893 15L2.27937 15.0257L3.02893 15ZM9 20.9711L8.97432 21.7206L9 20.9711ZM13 15.25C12.5858 15.25 12.25 15.5858 12.25 16C12.25 16.4142 12.5858 16.75 13 16.75V15.25ZM16 16.75C16.4142 16.75 16.75 16.4142 16.75 16C16.75 15.5858 16.4142 15.25 16 15.25V16.75ZM8 11.25C7.58579 11.25 7.25 11.5858 7.25 12C7.25 12.4142 7.58579 12.75 8 12.75V11.25ZM16 12.75C16.4142 12.75 16.75 12.4142 16.75 12C16.75 11.5858 16.4142 11.25 16 11.25V12.75ZM13 7.25C12.5858 7.25 12.25 7.58579 12.25 8C12.25 8.41421 12.5858 8.75 13 8.75V7.25ZM16 8.75C16.4142 8.75 16.75 8.41421 16.75 8C16.75 7.58579 16.4142 7.25 16 7.25V8.75ZM4.66485 15.8023C6.48339 16.0904 7.90965 17.5166 8.19768 19.3352L9.67921 19.1005C9.28952 16.6401 7.35988 14.7105 4.8995 14.3208L4.66485 15.8023ZM5.50191 19.4383C5.14111 19.1762 4.82382 18.8589 4.56168 18.4981L3.34815 19.3798C3.70281 19.8679 4.13209 20.2972 4.62023 20.6518L5.50191 19.4383ZM20.25 12C20.25 13.8916 20.249 15.25 20.135 16.302C20.0225 17.3399 19.8074 17.9901 19.4383 18.4981L20.6518 19.3798C21.2377 18.5734 21.5 17.6291 21.6263 16.4635C21.751 15.312 21.75 13.8582 21.75 12H20.25ZM12 21.75C13.8582 21.75 15.312 21.751 16.4635 21.6263C17.6291 21.5 18.5734 21.2377 19.3798 20.6518L18.4981 19.4383C17.9901 19.8074 17.3399 20.0225 16.302 20.135C15.25 20.249 13.8916 20.25 12 20.25V21.75ZM19.4383 18.4981C19.1762 18.8589 18.8589 19.1762 18.4981 19.4383L19.3798 20.6518C19.8679 20.2972 20.2972 19.8679 20.6518 19.3798L19.4383 18.4981ZM12 3.75C13.8916 3.75 15.25 3.75103 16.302 3.865C17.3399 3.97745 17.9901 4.19259 18.4981 4.56168L19.3798 3.34815C18.5734 2.76232 17.6291 2.50001 16.4635 2.37373C15.312 2.24897 13.8582 2.25 12 2.25V3.75ZM21.75 12C21.75 10.1418 21.751 8.68798 21.6263 7.53648C21.5 6.37094 21.2377 5.42656 20.6518 4.62023L19.4383 5.50191C19.8074 6.00992 20.0225 6.66013 20.135 7.69804C20.249 8.74999 20.25 10.1084 20.25 12H21.75ZM18.4981 4.56168C18.8589 4.82382 19.1762 5.14111 19.4383 5.50191L20.6518 4.62023C20.2972 4.13209 19.8679 3.70281 19.3798 3.34815L18.4981 4.56168ZM12 2.25C10.1418 2.25 8.68798 2.24897 7.53648 2.37373C6.37094 2.50001 5.42656 2.76232 4.62023 3.34815L5.50191 4.56168C6.00992 4.19259 6.66013 3.97745 7.69804 3.865C8.74999 3.75103 10.1084 3.75 12 3.75V2.25ZM3.75 12C3.75 10.1084 3.75103 8.74999 3.865 7.69804C3.97745 6.66013 4.19259 6.00992 4.56168 5.50191L3.34815 4.62023C2.76232 5.42656 2.50001 6.37094 2.37373 7.53648C2.24897 8.68798 2.25 10.1418 2.25 12H3.75ZM4.62023 3.34815C4.13209 3.70281 3.70281 4.13209 3.34815 4.62023L4.56168 5.50191C4.82382 5.14111 5.14111 4.82382 5.50191 4.56168L4.62023 3.34815ZM2.25 12C2.25 13.1648 2.24991 14.1658 2.27937 15.0257L3.77849 14.9743C3.75009 14.1456 3.75 13.1731 3.75 12H2.25ZM2.27937 15.0257C2.34355 16.8991 2.5463 18.2761 3.34815 19.3798L4.56168 18.4981C4.04907 17.7925 3.84204 16.8292 3.77849 14.9743L2.27937 15.0257ZM3.02892 15.75C3.96618 15.75 4.35298 15.7529 4.66485 15.8023L4.8995 14.3208C4.44215 14.2484 3.91121 14.25 3.02893 14.25L3.02892 15.75ZM12 20.25C10.8269 20.25 9.85445 20.2499 9.02568 20.2215L8.97432 21.7206C9.83424 21.7501 10.8352 21.75 12 21.75V20.25ZM9.02568 20.2215C7.17075 20.158 6.20746 19.9509 5.50191 19.4383L4.62023 20.6518C5.7239 21.4537 7.10087 21.6564 8.97432 21.7206L9.02568 20.2215ZM9.75 20.9711C9.74999 20.0888 9.75165 19.5579 9.67921 19.1005L8.19768 19.3352C8.24707 19.647 8.24999 20.0338 8.25 20.9711L9.75 20.9711ZM13 16.75H16V15.25H13V16.75ZM8 12.75H16V11.25H8V12.75ZM13 8.75H16V7.25H13V8.75Z" fill="#FAFAFA"/>
</svg>
