<svg width="24" height="24" viewBox="0 0 24 24" fill="none" xmlns="http://www.w3.org/2000/svg">
<path d="M4.78217 8.93844L4.8995 9.67921H4.8995L4.78217 8.93844ZM8.93844 4.78217L9.67921 4.8995V4.8995L8.93844 4.78217ZM18.9389 20.0451L18.4981 19.4383L18.9389 20.0451ZM20.0451 18.9389L19.4383 18.4981L20.0451 18.9389ZM3.95491 18.9389L4.56168 18.4981L3.95491 18.9389ZM5.06107 20.0451L5.50191 19.4383L5.06107 20.0451ZM5.06107 3.95491L4.62024 3.34815L5.06107 3.95491ZM3.95491 5.06107L3.34815 4.62023L3.95491 5.06107ZM18.9389 3.95491L18.4981 4.56168L18.9389 3.95491ZM20.0451 5.06107L19.4383 5.50191L20.0451 5.06107ZM9 3.02893L8.97432 2.27937L9 3.02893ZM3.02893 9L2.27937 8.97432L3.02893 9ZM12.25 17C12.25 17.4142 12.5858 17.75 13 17.75C13.4142 17.75 13.75 17.4142 13.75 17H12.25ZM8.46731 11.672C8.17573 11.9662 8.17784 12.4411 8.47204 12.7327C8.76624 13.0243 9.24111 13.0222 9.53269 12.728L8.46731 11.672ZM10.3978 10.7896L10.9305 11.3176H10.9305L10.3978 10.7896ZM15.6022 10.7896L15.0695 11.3176L15.6022 10.7896ZM16.4673 12.728C16.7589 13.0222 17.2338 13.0243 17.528 12.7327C17.8222 12.4411 17.8243 11.9662 17.5327 11.672L16.4673 12.728ZM12.7493 9.01591L12.6545 8.27193H12.6545L12.7493 9.01591ZM13.2507 9.01591L13.3455 8.27193H13.3455L13.2507 9.01591ZM13 9V8.25V9ZM4.8995 9.67921C7.35988 9.28952 9.28952 7.35988 9.67921 4.8995L8.19768 4.66485C7.90965 6.48339 6.48339 7.90965 4.66485 8.19768L4.8995 9.67921ZM12 21.75C13.8582 21.75 15.312 21.751 16.4635 21.6263C17.6291 21.5 18.5734 21.2377 19.3798 20.6518L18.4981 19.4383C17.9901 19.8074 17.3399 20.0225 16.302 20.135C15.25 20.249 13.8916 20.25 12 20.25V21.75ZM20.25 12C20.25 13.8916 20.249 15.25 20.135 16.302C20.0225 17.3399 19.8074 17.9901 19.4383 18.4981L20.6518 19.3798C21.2377 18.5734 21.5 17.6291 21.6263 16.4635C21.751 15.312 21.75 13.8582 21.75 12H20.25ZM19.3798 20.6518C19.8679 20.2972 20.2972 19.8679 20.6518 19.3798L19.4383 18.4981C19.1762 18.8589 18.8589 19.1762 18.4981 19.4383L19.3798 20.6518ZM2.25 12C2.25 13.8582 2.24897 15.312 2.37373 16.4635C2.50001 17.6291 2.76232 18.5734 3.34815 19.3798L4.56168 18.4981C4.19259 17.9901 3.97745 17.3399 3.865 16.302C3.75103 15.25 3.75 13.8916 3.75 12H2.25ZM12 20.25C10.1084 20.25 8.74999 20.249 7.69804 20.135C6.66013 20.0225 6.00992 19.8074 5.50191 19.4383L4.62024 20.6518C5.42656 21.2377 6.37094 21.5 7.53648 21.6263C8.68798 21.751 10.1418 21.75 12 21.75V20.25ZM3.34815 19.3798C3.70281 19.8679 4.13209 20.2972 4.62024 20.6518L5.50191 19.4383C5.14111 19.1762 4.82382 18.8589 4.56168 18.4981L3.34815 19.3798ZM4.62024 3.34815C4.13209 3.70281 3.70281 4.13209 3.34815 4.62023L4.56168 5.50191C4.82381 5.14111 5.14111 4.82382 5.50191 4.56168L4.62024 3.34815ZM12 3.75C13.8916 3.75 15.25 3.75103 16.302 3.865C17.3399 3.97745 17.9901 4.19259 18.4981 4.56168L19.3798 3.34815C18.5734 2.76232 17.6291 2.50001 16.4635 2.37373C15.312 2.24897 13.8582 2.25 12 2.25V3.75ZM21.75 12C21.75 10.1418 21.751 8.68798 21.6263 7.53648C21.5 6.37094 21.2377 5.42656 20.6518 4.62023L19.4383 5.50191C19.8074 6.00992 20.0225 6.66013 20.135 7.69804C20.249 8.74999 20.25 10.1084 20.25 12H21.75ZM18.4981 4.56168C18.8589 4.82382 19.1762 5.14111 19.4383 5.50191L20.6518 4.62023C20.2972 4.13209 19.8679 3.70281 19.3798 3.34815L18.4981 4.56168ZM12 2.25C10.8352 2.25 9.83424 2.24991 8.97432 2.27937L9.02568 3.77849C9.85445 3.75009 10.8269 3.75 12 3.75V2.25ZM8.97432 2.27937C7.10087 2.34355 5.7239 2.5463 4.62024 3.34815L5.50191 4.56168C6.20746 4.04907 7.17075 3.84204 9.02568 3.77849L8.97432 2.27937ZM8.25 3.02892C8.24999 3.96617 8.24707 4.35298 8.19768 4.66485L9.67921 4.8995C9.75165 4.44215 9.74999 3.91121 9.75 3.02893L8.25 3.02892ZM3.75 12C3.75 10.8269 3.75009 9.85445 3.77849 9.02568L2.27937 8.97432C2.24991 9.83424 2.25 10.8352 2.25 12H3.75ZM3.77849 9.02568C3.84204 7.17075 4.04907 6.20746 4.56168 5.50191L3.34815 4.62023C2.5463 5.7239 2.34356 7.10087 2.27937 8.97432L3.77849 9.02568ZM3.02893 9.75C3.91121 9.74999 4.44215 9.75165 4.8995 9.67921L4.66485 8.19768C4.35298 8.24707 3.96618 8.24999 3.02892 8.25L3.02893 9.75ZM13.75 17V9.8H12.25V17H13.75ZM9.53269 12.728L10.9305 11.3176L9.86516 10.2617L8.46731 11.672L9.53269 12.728ZM15.0695 11.3176L16.4673 12.728L17.5327 11.672L16.1348 10.2617L15.0695 11.3176ZM10.9305 11.3176C11.5003 10.7427 11.8839 10.3573 12.2065 10.0982C12.5173 9.84863 12.698 9.77852 12.8442 9.75989L12.6545 8.27193C12.1213 8.33989 11.6837 8.59426 11.2672 8.92869C10.8627 9.25361 10.4101 9.71182 9.86516 10.2617L10.9305 11.3176ZM16.1348 10.2617C15.5899 9.71182 15.1373 9.25362 14.7328 8.92869C14.3163 8.59427 13.8787 8.33989 13.3455 8.27193L13.1558 9.75989C13.302 9.77852 13.4827 9.84863 13.7935 10.0982C14.1161 10.3573 14.4997 10.7427 15.0695 11.3176L16.1348 10.2617ZM12.8442 9.75989C12.8959 9.7533 12.948 9.75 13 9.75V8.25C12.8846 8.25 12.7692 8.25731 12.6545 8.27193L12.8442 9.75989ZM13 9.75C13.052 9.75 13.1041 9.7533 13.1558 9.75989L13.3455 8.27193C13.2308 8.25731 13.1154 8.25 13 8.25V9.75ZM13.75 9.8V9H12.25V9.8H13.75Z" fill="#FAFAFA"/>
</svg>
