<svg width="24" height="24" viewBox="0 0 24 24" fill="none" xmlns="http://www.w3.org/2000/svg">
<path d="M4.78217 7.93844L4.8995 8.67921H4.8995L4.78217 7.93844ZM8.93844 3.78217L9.67921 3.8995V3.8995L8.93844 3.78217ZM18.9389 21.0451L18.4981 20.4383L18.9389 21.0451ZM20.0451 19.9389L19.4383 19.4981L20.0451 19.9389ZM3.95491 19.9389L4.56168 19.4981L3.95491 19.9389ZM5.06107 21.0451L5.50191 20.4383L5.06107 21.0451ZM5.06107 2.95491L4.62024 2.34815L5.06107 2.95491ZM3.95491 4.06107L3.34815 3.62023L3.95491 4.06107ZM18.9389 2.95491L18.4981 3.56168L18.9389 2.95491ZM20.0451 4.06107L19.4383 4.50191L20.0451 4.06107ZM9 2.02893L8.97432 1.27937L9 2.02893ZM3.02893 8L2.27937 7.97432L3.02893 8ZM8 13.25C7.58579 13.25 7.25 13.5858 7.25 14C7.25 14.4142 7.58579 14.75 8 14.75V13.25ZM16 14.75C16.4142 14.75 16.75 14.4142 16.75 14C16.75 13.5858 16.4142 13.25 16 13.25V14.75ZM13 9.25C12.5858 9.25 12.25 9.58579 12.25 10C12.25 10.4142 12.5858 10.75 13 10.75V9.25ZM16 10.75C16.4142 10.75 16.75 10.4142 16.75 10C16.75 9.58579 16.4142 9.25 16 9.25V10.75ZM4.8995 8.67921C7.35988 8.28952 9.28952 6.35988 9.67921 3.8995L8.19768 3.66485C7.90965 5.48339 6.48339 6.90965 4.66485 7.19768L4.8995 8.67921ZM2.25 11V13H3.75V11H2.25ZM21.75 13V11H20.25V13H21.75ZM12 22.75C13.8582 22.75 15.312 22.751 16.4635 22.6263C17.6291 22.5 18.5734 22.2377 19.3798 21.6518L18.4981 20.4383C17.9901 20.8074 17.3399 21.0225 16.302 21.135C15.25 21.249 13.8916 21.25 12 21.25V22.75ZM20.25 13C20.25 14.8916 20.249 16.25 20.135 17.302C20.0225 18.3399 19.8074 18.9901 19.4383 19.4981L20.6518 20.3798C21.2377 19.5734 21.5 18.6291 21.6263 17.4635C21.751 16.312 21.75 14.8582 21.75 13H20.25ZM19.3798 21.6518C19.8679 21.2972 20.2972 20.8679 20.6518 20.3798L19.4383 19.4981C19.1762 19.8589 18.8589 20.1762 18.4981 20.4383L19.3798 21.6518ZM2.25 13C2.25 14.8582 2.24897 16.312 2.37373 17.4635C2.50001 18.6291 2.76232 19.5734 3.34815 20.3798L4.56168 19.4981C4.19259 18.9901 3.97745 18.3399 3.865 17.302C3.75103 16.25 3.75 14.8916 3.75 13H2.25ZM12 21.25C10.1084 21.25 8.74999 21.249 7.69804 21.135C6.66013 21.0225 6.00992 20.8074 5.50191 20.4383L4.62024 21.6518C5.42656 22.2377 6.37094 22.5 7.53648 22.6263C8.68798 22.751 10.1418 22.75 12 22.75V21.25ZM3.34815 20.3798C3.70281 20.8679 4.13209 21.2972 4.62024 21.6518L5.50191 20.4383C5.14111 20.1762 4.82381 19.8589 4.56168 19.4981L3.34815 20.3798ZM4.62024 2.34815C4.13209 2.70281 3.70281 3.13209 3.34815 3.62023L4.56168 4.50191C4.82381 4.14111 5.14111 3.82382 5.50191 3.56168L4.62024 2.34815ZM12 2.75C13.8916 2.75 15.25 2.75103 16.302 2.865C17.3399 2.97745 17.9901 3.19259 18.4981 3.56168L19.3798 2.34815C18.5734 1.76232 17.6291 1.50001 16.4635 1.37373C15.312 1.24897 13.8582 1.25 12 1.25V2.75ZM21.75 11C21.75 9.14184 21.751 7.68798 21.6263 6.53648C21.5 5.37094 21.2377 4.42656 20.6518 3.62023L19.4383 4.50191C19.8074 5.00992 20.0225 5.66013 20.135 6.69804C20.249 7.74999 20.25 9.10843 20.25 11H21.75ZM18.4981 3.56168C18.8589 3.82382 19.1762 4.14111 19.4383 4.50191L20.6518 3.62023C20.2972 3.13209 19.8679 2.70281 19.3798 2.34815L18.4981 3.56168ZM12 1.25C10.8352 1.25 9.83424 1.24991 8.97432 1.27937L9.02568 2.77849C9.85445 2.75009 10.8269 2.75 12 2.75V1.25ZM8.97432 1.27937C7.10087 1.34355 5.7239 1.5463 4.62024 2.34815L5.50191 3.56168C6.20746 3.04907 7.17075 2.84204 9.02568 2.77849L8.97432 1.27937ZM8.25 2.02892C8.24999 2.96617 8.24707 3.35298 8.19768 3.66485L9.67921 3.8995C9.75165 3.44215 9.74999 2.91121 9.75 2.02893L8.25 2.02892ZM3.75 11C3.75 9.82692 3.75009 8.85445 3.77849 8.02568L2.27937 7.97432C2.24991 8.83424 2.25 9.83522 2.25 11H3.75ZM3.77849 8.02568C3.84204 6.17075 4.04907 5.20746 4.56168 4.50191L3.34815 3.62023C2.5463 4.7239 2.34355 6.10087 2.27937 7.97432L3.77849 8.02568ZM3.02893 8.75C3.91121 8.74999 4.44215 8.75165 4.8995 8.67921L4.66485 7.19768C4.35298 7.24707 3.96618 7.24999 3.02892 7.25L3.02893 8.75ZM8 14.75H16V13.25H8V14.75ZM13 10.75H16V9.25H13V10.75Z" fill="#FAFAFA"/>
</svg>
