<svg width="24" height="24" viewBox="0 0 24 24" fill="none" xmlns="http://www.w3.org/2000/svg">
<path d="M19.2178 8.93844L19.1005 9.67921H19.1005L19.2178 8.93844ZM15.0616 4.78217L14.3208 4.8995V4.8995L15.0616 4.78217ZM5.06107 20.0451L5.50191 19.4383L5.06107 20.0451ZM3.95491 18.9389L4.56168 18.4981L3.95491 18.9389ZM20.0451 18.9389L19.4383 18.4981L20.0451 18.9389ZM18.9389 20.0451L18.4981 19.4383L18.9389 20.0451ZM18.9389 3.95491L19.3798 3.34815L18.9389 3.95491ZM20.0451 5.06107L20.6518 4.62023L20.0451 5.06107ZM5.06107 3.95491L5.50191 4.56168L5.06107 3.95491ZM3.95491 5.06107L4.56168 5.50191L3.95491 5.06107ZM15 3.02893L15.0257 2.27937L15 3.02893ZM20.9711 9L21.7206 8.97432L20.9711 9ZM10.25 17C10.25 17.4142 10.5858 17.75 11 17.75C11.4142 17.75 11.75 17.4142 11.75 17H10.25ZM6.46731 11.672C6.17573 11.9662 6.17784 12.4411 6.47204 12.7327C6.76624 13.0243 7.24111 13.0222 7.53269 12.728L6.46731 11.672ZM8.39785 10.7896L8.93054 11.3176H8.93054L8.39785 10.7896ZM13.6022 10.7896L13.0695 11.3176L13.6022 10.7896ZM14.4673 12.728C14.7589 13.0222 15.2338 13.0243 15.528 12.7327C15.8222 12.4411 15.8243 11.9662 15.5327 11.672L14.4673 12.728ZM10.7493 9.01591L10.6545 8.27193H10.6545L10.7493 9.01591ZM11.2507 9.01591L11.3455 8.27193H11.3455L11.2507 9.01591ZM11 9L11 8.25L11 9ZM19.3352 8.19768C17.5166 7.90965 16.0904 6.48339 15.8023 4.66485L14.3208 4.8995C14.7105 7.35988 16.6401 9.28952 19.1005 9.67921L19.3352 8.19768ZM12 20.25C10.1084 20.25 8.74999 20.249 7.69804 20.135C6.66013 20.0225 6.00992 19.8074 5.50191 19.4383L4.62023 20.6518C5.42656 21.2377 6.37094 21.5 7.53648 21.6263C8.68798 21.751 10.1418 21.75 12 21.75V20.25ZM2.25 12C2.25 13.8582 2.24897 15.312 2.37373 16.4635C2.50001 17.6291 2.76232 18.5734 3.34815 19.3798L4.56168 18.4981C4.19259 17.9901 3.97745 17.3399 3.865 16.302C3.75103 15.25 3.75 13.8916 3.75 12H2.25ZM5.50191 19.4383C5.14111 19.1762 4.82382 18.8589 4.56168 18.4981L3.34815 19.3798C3.70281 19.8679 4.13209 20.2972 4.62023 20.6518L5.50191 19.4383ZM20.25 12C20.25 13.8916 20.249 15.25 20.135 16.302C20.0225 17.3399 19.8074 17.9901 19.4383 18.4981L20.6518 19.3798C21.2377 18.5734 21.5 17.6291 21.6263 16.4635C21.751 15.312 21.75 13.8582 21.75 12H20.25ZM12 21.75C13.8582 21.75 15.312 21.751 16.4635 21.6263C17.6291 21.5 18.5734 21.2377 19.3798 20.6518L18.4981 19.4383C17.9901 19.8074 17.3399 20.0225 16.302 20.135C15.25 20.249 13.8916 20.25 12 20.25V21.75ZM19.4383 18.4981C19.1762 18.8589 18.8589 19.1762 18.4981 19.4383L19.3798 20.6518C19.8679 20.2972 20.2972 19.8679 20.6518 19.3798L19.4383 18.4981ZM18.4981 4.56168C18.8589 4.82382 19.1762 5.14111 19.4383 5.50191L20.6518 4.62023C20.2972 4.13209 19.8679 3.70281 19.3798 3.34815L18.4981 4.56168ZM12 2.25C10.1418 2.25 8.68798 2.24897 7.53648 2.37373C6.37094 2.50001 5.42656 2.76232 4.62023 3.34815L5.50191 4.56168C6.00992 4.19259 6.66013 3.97745 7.69804 3.865C8.74999 3.75103 10.1084 3.75 12 3.75V2.25ZM3.75 12C3.75 10.1084 3.75103 8.74999 3.865 7.69804C3.97745 6.66013 4.19259 6.00992 4.56168 5.50191L3.34815 4.62023C2.76232 5.42656 2.50001 6.37094 2.37373 7.53648C2.24897 8.68798 2.25 10.1418 2.25 12H3.75ZM4.62023 3.34815C4.13209 3.70281 3.70281 4.13209 3.34815 4.62023L4.56168 5.50191C4.82382 5.14111 5.14111 4.82382 5.50191 4.56168L4.62023 3.34815ZM12 3.75C13.1731 3.75 14.1456 3.75009 14.9743 3.77849L15.0257 2.27937C14.1658 2.24991 13.1648 2.25 12 2.25V3.75ZM14.9743 3.77849C16.8292 3.84204 17.7925 4.04907 18.4981 4.56168L19.3798 3.34815C18.2761 2.5463 16.8991 2.34355 15.0257 2.27937L14.9743 3.77849ZM14.25 3.02893C14.25 3.91121 14.2484 4.44215 14.3208 4.8995L15.8023 4.66485C15.7529 4.35298 15.75 3.96617 15.75 3.02892L14.25 3.02893ZM21.75 12C21.75 10.8352 21.7501 9.83424 21.7206 8.97432L20.2215 9.02568C20.2499 9.85445 20.25 10.8269 20.25 12H21.75ZM21.7206 8.97432C21.6564 7.10087 21.4537 5.7239 20.6518 4.62023L19.4383 5.50191C19.9509 6.20746 20.158 7.17075 20.2215 9.02568L21.7206 8.97432ZM20.9711 8.25C20.0338 8.24999 19.647 8.24707 19.3352 8.19768L19.1005 9.67921C19.5579 9.75165 20.0888 9.74999 20.9711 9.75L20.9711 8.25ZM11.75 17V9.8H10.25V17H11.75ZM7.53269 12.728L8.93054 11.3176L7.86516 10.2617L6.46731 11.672L7.53269 12.728ZM13.0695 11.3176L14.4673 12.728L15.5327 11.672L14.1348 10.2617L13.0695 11.3176ZM8.93054 11.3176C9.50033 10.7427 9.88386 10.3573 10.2065 10.0982C10.5173 9.84863 10.698 9.77852 10.8442 9.75989L10.6545 8.27193C10.1213 8.33989 9.68367 8.59426 9.26724 8.92869C8.86265 9.25361 8.41012 9.71182 7.86516 10.2617L8.93054 11.3176ZM14.1348 10.2617C13.5899 9.71182 13.1373 9.25362 12.7328 8.92869C12.3163 8.59427 11.8787 8.33989 11.3455 8.27193L11.1558 9.75989C11.302 9.77852 11.4827 9.84863 11.7935 10.0982C12.1161 10.3573 12.4997 10.7427 13.0695 11.3176L14.1348 10.2617ZM10.8442 9.75989C10.8959 9.7533 10.948 9.75 11 9.75L11 8.25C10.8846 8.25 10.7692 8.25731 10.6545 8.27193L10.8442 9.75989ZM11 9.75C11.052 9.75 11.1041 9.7533 11.1558 9.75989L11.3455 8.27193C11.2308 8.25731 11.1154 8.25 11 8.25L11 9.75ZM11.75 9.8C11.75 9.79948 11.75 9.79896 11.75 9.79843C11.75 9.79791 11.75 9.79739 11.75 9.79686C11.75 9.79634 11.75 9.79581 11.75 9.79528C11.75 9.79476 11.75 9.79423 11.75 9.7937C11.75 9.79317 11.75 9.79264 11.75 9.79211C11.75 9.79158 11.75 9.79105 11.75 9.79052C11.75 9.78998 11.75 9.78945 11.75 9.78891C11.75 9.78838 11.75 9.78784 11.75 9.78731C11.75 9.78677 11.75 9.78623 11.75 9.78569C11.75 9.78516 11.75 9.78462 11.75 9.78408C11.75 9.78354 11.75 9.78299 11.75 9.78245C11.75 9.78191 11.75 9.78136 11.75 9.78082C11.75 9.78028 11.75 9.77973 11.75 9.77918C11.75 9.77864 11.75 9.77809 11.75 9.77754C11.75 9.77699 11.75 9.77645 11.75 9.7759C11.75 9.77535 11.75 9.77479 11.75 9.77424C11.75 9.77369 11.75 9.77314 11.75 9.77258C11.75 9.77203 11.75 9.77148 11.75 9.77092C11.75 9.77037 11.75 9.76981 11.75 9.76925C11.75 9.76869 11.75 9.76814 11.75 9.76758C11.75 9.76702 11.75 9.76646 11.75 9.7659C11.75 9.76534 11.75 9.76477 11.75 9.76421C11.75 9.76365 11.75 9.76308 11.75 9.76252C11.75 9.76196 11.75 9.76139 11.75 9.76082C11.75 9.76026 11.75 9.75969 11.75 9.75912C11.75 9.75855 11.75 9.75799 11.75 9.75742C11.75 9.75685 11.75 9.75628 11.75 9.7557C11.75 9.75513 11.75 9.75456 11.75 9.75399C11.75 9.75341 11.75 9.75284 11.75 9.75227C11.75 9.75169 11.75 9.75112 11.75 9.75054C11.75 9.74996 11.75 9.74939 11.75 9.74881C11.75 9.74823 11.75 9.74765 11.75 9.74707C11.75 9.74649 11.75 9.74591 11.75 9.74533C11.75 9.74475 11.75 9.74416 11.75 9.74358C11.75 9.743 11.75 9.74241 11.75 9.74183C11.75 9.74124 11.75 9.74066 11.75 9.74007C11.75 9.73949 11.75 9.7389 11.75 9.73831C11.75 9.73772 11.75 9.73713 11.75 9.73655C11.75 9.73596 11.75 9.73537 11.75 9.73477C11.75 9.73418 11.75 9.73359 11.75 9.733C11.75 9.73241 11.75 9.73181 11.75 9.73122C11.75 9.73062 11.75 9.73003 11.75 9.72943C11.75 9.72884 11.75 9.72824 11.75 9.72764C11.75 9.72705 11.75 9.72645 11.75 9.72585C11.75 9.72525 11.75 9.72465 11.75 9.72405C11.75 9.72345 11.75 9.72285 11.75 9.72225C11.75 9.72165 11.75 9.72104 11.75 9.72044C11.75 9.71984 11.75 9.71923 11.75 9.71863C11.75 9.71802 11.75 9.71742 11.75 9.71681C11.75 9.71621 11.75 9.7156 11.75 9.71499C11.75 9.71438 11.75 9.71377 11.75 9.71317C11.75 9.71256 11.75 9.71195 11.75 9.71134C11.75 9.71073 11.75 9.71011 11.75 9.7095C11.75 9.70889 11.75 9.70828 11.75 9.70766C11.75 9.70705 11.75 9.70644 11.75 9.70582C11.75 9.70521 11.75 9.70459 11.75 9.70398C11.75 9.70336 11.75 9.70274 11.75 9.70213C11.75 9.70151 11.75 9.70089 11.75 9.70027C11.75 9.69965 11.75 9.69903 11.75 9.69841C11.75 9.69779 11.75 9.69717 11.75 9.69655C11.75 9.69593 11.75 9.69531 11.75 9.69468C11.75 9.69406 11.75 9.69344 11.75 9.69281C11.75 9.69219 11.75 9.69157 11.75 9.69094C11.75 9.69031 11.75 9.68969 11.75 9.68906C11.75 9.68844 11.75 9.68781 11.75 9.68718C11.75 9.68655 11.75 9.68592 11.75 9.68529C11.75 9.68467 11.75 9.68404 11.75 9.68341C11.75 9.68278 11.75 9.68214 11.75 9.68151C11.75 9.68088 11.75 9.68025 11.75 9.67962C11.75 9.67898 11.75 9.67835 11.75 9.67772C11.75 9.67708 11.75 9.67645 11.75 9.67581C11.75 9.67518 11.75 9.67454 11.75 9.6739C11.75 9.67327 11.75 9.67263 11.75 9.67199C11.75 9.67136 11.75 9.67072 11.75 9.67008C11.75 9.66944 11.75 9.6688 11.75 9.66816C11.75 9.66752 11.75 9.66688 11.75 9.66624C11.75 9.6656 11.75 9.66496 11.75 9.66431C11.75 9.66367 11.75 9.66303 11.75 9.66239C11.75 9.66174 11.75 9.6611 11.75 9.66045C11.75 9.65981 11.75 9.65917 11.75 9.65852C11.75 9.65787 11.75 9.65723 11.75 9.65658C11.75 9.65594 11.75 9.65529 11.75 9.65464C11.75 9.65399 11.75 9.65335 11.75 9.6527C11.75 9.65205 11.75 9.6514 11.75 9.65075C11.75 9.6501 11.75 9.64945 11.75 9.6488C11.75 9.64815 11.75 9.6475 11.75 9.64684C11.75 9.64619 11.75 9.64554 11.75 9.64489C11.75 9.64424 11.75 9.64358 11.75 9.64293C11.75 9.64227 11.75 9.64162 11.75 9.64097C11.75 9.64031 11.75 9.63966 11.75 9.639C11.75 9.63834 11.75 9.63769 11.75 9.63703C11.75 9.63638 11.75 9.63572 11.75 9.63506C11.75 9.6344 11.75 9.63375 11.75 9.63309C11.75 9.63243 11.75 9.63177 11.75 9.63111C11.75 9.63045 11.75 9.62979 11.75 9.62913C11.75 9.62847 11.75 9.62781 11.75 9.62715C11.75 9.62649 11.75 9.62583 11.75 9.62516C11.75 9.6245 11.75 9.62384 11.75 9.62318C11.75 9.62251 11.75 9.62185 11.75 9.62119C11.75 9.62052 11.75 9.61986 11.75 9.61919C11.75 9.61853 11.75 9.61786 11.75 9.6172C11.75 9.61653 11.75 9.61587 11.75 9.6152C11.75 9.61453 11.75 9.61387 11.75 9.6132C11.75 9.61253 11.75 9.61186 11.75 9.6112C11.75 9.61053 11.75 9.60986 11.75 9.60919C11.75 9.60852 11.75 9.60785 11.75 9.60718C11.75 9.60651 11.75 9.60584 11.75 9.60517C11.75 9.6045 11.75 9.60383 11.75 9.60316C11.75 9.60249 11.75 9.60182 11.75 9.60115C11.75 9.60048 11.75 9.5998 11.75 9.59913C11.75 9.59846 11.75 9.59779 11.75 9.59711C11.75 9.59644 11.75 9.59577 11.75 9.59509C11.75 9.59442 11.75 9.59374 11.75 9.59307C11.75 9.59239 11.75 9.59172 11.75 9.59104C11.75 9.59037 11.75 9.58969 11.75 9.58902C11.75 9.58834 11.75 9.58767 11.75 9.58699C11.75 9.58631 11.75 9.58564 11.75 9.58496C11.75 9.58428 11.75 9.5836 11.75 9.58293C11.75 9.58225 11.75 9.58157 11.75 9.58089C11.75 9.58021 11.75 9.57953 11.75 9.57885C11.75 9.57818 11.75 9.5775 11.75 9.57682C11.75 9.57614 11.75 9.57546 11.75 9.57478C11.75 9.5741 11.75 9.57341 11.75 9.57273C11.75 9.57205 11.75 9.57137 11.75 9.57069C11.75 9.57001 11.75 9.56933 11.75 9.56865C11.75 9.56796 11.75 9.56728 11.75 9.5666C11.75 9.56592 11.75 9.56523 11.75 9.56455C11.75 9.56387 11.75 9.56318 11.75 9.5625C11.75 9.56182 11.75 9.56113 11.75 9.56045C11.75 9.55976 11.75 9.55908 11.75 9.55839C11.75 9.55771 11.75 9.55703 11.75 9.55634C11.75 9.55566 11.75 9.55497 11.75 9.55428C11.75 9.5536 11.75 9.55291 11.75 9.55223C11.75 9.55154 11.75 9.55086 11.75 9.55017C11.75 9.54948 11.75 9.5488 11.75 9.54811C11.75 9.54742 11.75 9.54673 11.75 9.54605C11.75 9.54536 11.75 9.54467 11.75 9.54399C11.75 9.5433 11.75 9.54261 11.75 9.54192C11.75 9.54123 11.75 9.54054 11.75 9.53986C11.75 9.53917 11.75 9.53848 11.75 9.53779C11.75 9.5371 11.75 9.53641 11.75 9.53572C11.75 9.53503 11.75 9.53435 11.75 9.53366C11.75 9.53297 11.75 9.53228 11.75 9.53159C11.75 9.5309 11.75 9.53021 11.75 9.52952C11.75 9.52883 11.75 9.52814 11.75 9.52745C11.75 9.52675 11.75 9.52606 11.75 9.52537C11.75 9.52468 11.75 9.52399 11.75 9.5233C11.75 9.52261 11.75 9.52192 11.75 9.52123C11.75 9.52053 11.75 9.51984 11.75 9.51915C11.75 9.51846 11.75 9.51777 11.75 9.51708C11.75 9.51638 11.75 9.51569 11.75 9.515C11.75 9.51431 11.75 9.51362 11.75 9.51292C11.75 9.51223 11.75 9.51154 11.75 9.51085C11.75 9.51015 11.75 9.50946 11.75 9.50877C11.75 9.50808 11.75 9.50738 11.75 9.50669C11.75 9.506 11.75 9.5053 11.75 9.50461C11.75 9.50392 11.75 9.50322 11.75 9.50253C11.75 9.50184 11.75 9.50114 11.75 9.50045C11.75 9.49976 11.75 9.49906 11.75 9.49837C11.75 9.49768 11.75 9.49698 11.75 9.49629C11.75 9.49559 11.75 9.4949 11.75 9.49421C11.75 9.49351 11.75 9.49282 11.75 9.49213C11.75 9.49143 11.75 9.49074 11.75 9.49004C11.75 9.48935 11.75 9.48866 11.75 9.48796C11.75 9.48727 11.75 9.48657 11.75 9.48588C11.75 9.48518 11.75 9.48449 11.75 9.4838C11.75 9.4831 11.75 9.48241 11.75 9.48171C11.75 9.48102 11.75 9.48032 11.75 9.47963C11.75 9.47893 11.75 9.47824 11.75 9.47755C11.75 9.47685 11.75 9.47616 11.75 9.47546C11.75 9.47477 11.75 9.47407 11.75 9.47338C11.75 9.47268 11.75 9.47199 11.75 9.4713C11.75 9.4706 11.75 9.46991 11.75 9.46921C11.75 9.46852 11.75 9.46782 11.75 9.46713C11.75 9.46643 11.75 9.46574 11.75 9.46505C11.75 9.46435 11.75 9.46366 11.75 9.46296C11.75 9.46227 11.75 9.46158 11.75 9.46088C11.75 9.46019 11.75 9.45949 11.75 9.4588C11.75 9.4581 11.75 9.45741 11.75 9.45672C11.75 9.45602 11.75 9.45533 11.75 9.45463C11.75 9.45394 11.75 9.45325 11.75 9.45255C11.75 9.45186 11.75 9.45117 11.75 9.45047C11.75 9.44978 11.75 9.44908 11.75 9.44839C11.75 9.4477 11.75 9.447 11.75 9.44631C11.75 9.44562 11.75 9.44492 11.75 9.44423C11.75 9.44354 11.75 9.44284 11.75 9.44215C11.75 9.44146 11.75 9.44076 11.75 9.44007C11.75 9.43938 11.75 9.43869 11.75 9.43799C11.75 9.4373 11.75 9.43661 11.75 9.43592C11.75 9.43522 11.75 9.43453 11.75 9.43384C11.75 9.43315 11.75 9.43245 11.75 9.43176C11.75 9.43107 11.75 9.43038 11.75 9.42969C11.75 9.429 11.75 9.4283 11.75 9.42761C11.75 9.42692 11.75 9.42623 11.75 9.42554C11.75 9.42485 11.75 9.42416 11.75 9.42347C11.75 9.42277 11.75 9.42208 11.75 9.42139C11.75 9.4207 11.75 9.42001 11.75 9.41932C11.75 9.41863 11.75 9.41794 11.75 9.41725C11.75 9.41656 11.75 9.41587 11.75 9.41518C11.75 9.41449 11.75 9.4138 11.75 9.41311C11.75 9.41242 11.75 9.41173 11.75 9.41105C11.75 9.41036 11.75 9.40967 11.75 9.40898C11.75 9.40829 11.75 9.4076 11.75 9.40691C11.75 9.40623 11.75 9.40554 11.75 9.40485C11.75 9.40416 11.75 9.40347 11.75 9.40279C11.75 9.4021 11.75 9.40141 11.75 9.40073C11.75 9.40004 11.75 9.39935 11.75 9.39866C11.75 9.39798 11.75 9.39729 11.75 9.39661C11.75 9.39592 11.75 9.39523 11.75 9.39455C11.75 9.39386 11.75 9.39318 11.75 9.39249C11.75 9.39181 11.75 9.39112 11.75 9.39044C11.75 9.38975 11.75 9.38907 11.75 9.38838C11.75 9.3877 11.75 9.38702 11.75 9.38633C11.75 9.38565 11.75 9.38496 11.75 9.38428C11.75 9.3836 11.75 9.38291 11.75 9.38223C11.75 9.38155 11.75 9.38087 11.75 9.38018C11.75 9.3795 11.75 9.37882 11.75 9.37814C11.75 9.37746 11.75 9.37678 11.75 9.37609C11.75 9.37541 11.75 9.37473 11.75 9.37405C11.75 9.37337 11.75 9.37269 11.75 9.37201C11.75 9.37133 11.75 9.37065 11.75 9.36997C11.75 9.36929 11.75 9.36861 11.75 9.36794C11.75 9.36726 11.75 9.36658 11.75 9.3659C11.75 9.36522 11.75 9.36454 11.75 9.36387C11.75 9.36319 11.75 9.36251 11.75 9.36184C11.75 9.36116 11.75 9.36048 11.75 9.35981C11.75 9.35913 11.75 9.35845 11.75 9.35778C11.75 9.3571 11.75 9.35643 11.75 9.35575C11.75 9.35508 11.75 9.3544 11.75 9.35373C11.75 9.35306 11.75 9.35238 11.75 9.35171C11.75 9.35103 11.75 9.35036 11.75 9.34969C11.75 9.34902 11.75 9.34834 11.75 9.34767C11.75 9.347 11.75 9.34633 11.75 9.34566C11.75 9.34499 11.75 9.34431 11.75 9.34364C11.75 9.34297 11.75 9.3423 11.75 9.34163C11.75 9.34096 11.75 9.34029 11.75 9.33962C11.75 9.33896 11.75 9.33829 11.75 9.33762C11.75 9.33695 11.75 9.33628 11.75 9.33562C11.75 9.33495 11.75 9.33428 11.75 9.33361C11.75 9.33295 11.75 9.33228 11.75 9.33162C11.75 9.33095 11.75 9.33028 11.75 9.32962C11.75 9.32895 11.75 9.32829 11.75 9.32763C11.75 9.32696 11.75 9.3263 11.75 9.32563C11.75 9.32497 11.75 9.32431 11.75 9.32365C11.75 9.32298 11.75 9.32232 11.75 9.32166C11.75 9.321 11.75 9.32034 11.75 9.31968C11.75 9.31902 11.75 9.31836 11.75 9.3177C11.75 9.31704 11.75 9.31638 11.75 9.31572C11.75 9.31506 11.75 9.3144 11.75 9.31374C11.75 9.31309 11.75 9.31243 11.75 9.31177C11.75 9.31112 11.75 9.31046 11.75 9.3098C11.75 9.30915 11.75 9.30849 11.75 9.30784C11.75 9.30718 11.75 9.30653 11.75 9.30587C11.75 9.30522 11.75 9.30456 11.75 9.30391C11.75 9.30326 11.75 9.30261 11.75 9.30195C11.75 9.3013 11.75 9.30065 11.75 9.3C11.75 9.29935 11.75 9.2987 11.75 9.29805C11.75 9.2974 11.75 9.29675 11.75 9.2961C11.75 9.29545 11.75 9.2948 11.75 9.29415C11.75 9.29351 11.75 9.29286 11.75 9.29221C11.75 9.29156 11.75 9.29092 11.75 9.29027C11.75 9.28963 11.75 9.28898 11.75 9.28834C11.75 9.28769 11.75 9.28705 11.75 9.2864C11.75 9.28576 11.75 9.28512 11.75 9.28448C11.75 9.28383 11.75 9.28319 11.75 9.28255C11.75 9.28191 11.75 9.28127 11.75 9.28063C11.75 9.27999 11.75 9.27935 11.75 9.27871C11.75 9.27807 11.75 9.27743 11.75 9.27679C11.75 9.27615 11.75 9.27552 11.75 9.27488C11.75 9.27424 11.75 9.27361 11.75 9.27297C11.75 9.27234 11.75 9.2717 11.75 9.27107C11.75 9.27043 11.75 9.2698 11.75 9.26916C11.75 9.26853 11.75 9.2679 11.75 9.26727C11.75 9.26663 11.75 9.266 11.75 9.26537C11.75 9.26474 11.75 9.26411 11.75 9.26348C11.75 9.26285 11.75 9.26222 11.75 9.2616C11.75 9.26097 11.75 9.26034 11.75 9.25971C11.75 9.25909 11.75 9.25846 11.75 9.25783C11.75 9.25721 11.75 9.25658 11.75 9.25596C11.75 9.25533 11.75 9.25471 11.75 9.25409C11.75 9.25346 11.75 9.25284 11.75 9.25222C11.75 9.2516 11.75 9.25098 11.75 9.25035C11.75 9.24973 11.75 9.24911 11.75 9.2485C11.75 9.24788 11.75 9.24726 11.75 9.24664C11.75 9.24602 11.75 9.2454 11.75 9.24479C11.75 9.24417 11.75 9.24356 11.75 9.24294C11.75 9.24232 11.75 9.24171 11.75 9.2411C11.75 9.24048 11.75 9.23987 11.75 9.23926C11.75 9.23865 11.75 9.23803 11.75 9.23742C11.75 9.23681 11.75 9.2362 11.75 9.23559C11.75 9.23498 11.75 9.23437 11.75 9.23377C11.75 9.23316 11.75 9.23255 11.75 9.23194C11.75 9.23134 11.75 9.23073 11.75 9.23012C11.75 9.22952 11.75 9.22892 11.75 9.22831C11.75 9.22771 11.75 9.2271 11.75 9.2265C11.75 9.2259 11.75 9.2253 11.75 9.2247C11.75 9.2241 11.75 9.2235 11.75 9.2229C11.75 9.2223 11.75 9.2217 11.75 9.2211C11.75 9.2205 11.75 9.21991 11.75 9.21931C11.75 9.21871 11.75 9.21812 11.75 9.21752C11.75 9.21693 11.75 9.21634 11.75 9.21574C11.75 9.21515 11.75 9.21456 11.75 9.21396C11.75 9.21337 11.75 9.21278 11.75 9.21219C11.75 9.2116 11.75 9.21101 11.75 9.21042C11.75 9.20984 11.75 9.20925 11.75 9.20866C11.75 9.20807 11.75 9.20749 11.75 9.2069C11.75 9.20632 11.75 9.20573 11.75 9.20515C11.75 9.20457 11.75 9.20398 11.75 9.2034C11.75 9.20282 11.75 9.20224 11.75 9.20166C11.75 9.20108 11.75 9.2005 11.75 9.19992C11.75 9.19934 11.75 9.19876 11.75 9.19818C11.75 9.19761 11.75 9.19703 11.75 9.19646C11.75 9.19588 11.75 9.19531 11.75 9.19473C11.75 9.19416 11.75 9.19359 11.75 9.19301C11.75 9.19244 11.75 9.19187 11.75 9.1913C11.75 9.19073 11.75 9.19016 11.75 9.18959C11.75 9.18902 11.75 9.18846 11.75 9.18789C11.75 9.18732 11.75 9.18676 11.75 9.18619C11.75 9.18563 11.75 9.18506 11.75 9.1845C11.75 9.18394 11.75 9.18337 11.75 9.18281C11.75 9.18225 11.75 9.18169 11.75 9.18113C11.75 9.18057 11.75 9.18001 11.75 9.17945C11.75 9.1789 11.75 9.17834 11.75 9.17778C11.75 9.17723 11.75 9.17667 11.75 9.17612C11.75 9.17556 11.75 9.17501 11.75 9.17446C11.75 9.1739 11.75 9.17335 11.75 9.1728C11.75 9.17225 11.75 9.1717 11.75 9.17115C11.75 9.1706 11.75 9.17006 11.75 9.16951C11.75 9.16896 11.75 9.16842 11.75 9.16787C11.75 9.16733 11.75 9.16678 11.75 9.16624C11.75 9.1657 11.75 9.16515 11.75 9.16461C11.75 9.16407 11.75 9.16353 11.75 9.16299C11.75 9.16245 11.75 9.16191 11.75 9.16138C11.75 9.16084 11.75 9.1603 11.75 9.15977C11.75 9.15923 11.75 9.1587 11.75 9.15816C11.75 9.15763 11.75 9.1571 11.75 9.15657C11.75 9.15604 11.75 9.1555 11.75 9.15498C11.75 9.15445 11.75 9.15392 11.75 9.15339C11.75 9.15286 11.75 9.15234 11.75 9.15181C11.75 9.15128 11.75 9.15076 11.75 9.15024C11.75 9.14971 11.75 9.14919 11.75 9.14867C11.75 9.14815 11.75 9.14763 11.75 9.14711C11.75 9.14659 11.75 9.14607 11.75 9.14555C11.75 9.14503 11.75 9.14452 11.75 9.144C11.75 9.14349 11.75 9.14297 11.75 9.14246C11.75 9.14195 11.75 9.14143 11.75 9.14092C11.75 9.14041 11.75 9.1399 11.75 9.13939C11.75 9.13888 11.75 9.13838 11.75 9.13787C11.75 9.13736 11.75 9.13686 11.75 9.13635C11.75 9.13585 11.75 9.13534 11.75 9.13484C11.75 9.13434 11.75 9.13383 11.75 9.13333C11.75 9.13283 11.75 9.13233 11.75 9.13184C11.75 9.13134 11.75 9.13084 11.75 9.13034C11.75 9.12985 11.75 9.12935 11.75 9.12886C11.75 9.12836 11.75 9.12787 11.75 9.12738C11.75 9.12689 11.75 9.1264 11.75 9.12591C11.75 9.12542 11.75 9.12493 11.75 9.12444C11.75 9.12395 11.75 9.12347 11.75 9.12298C11.75 9.1225 11.75 9.12201 11.75 9.12153C11.75 9.12105 11.75 9.12056 11.75 9.12008C11.75 9.1196 11.75 9.11912 11.75 9.11864C11.75 9.11817 11.75 9.11769 11.75 9.11721C11.75 9.11674 11.75 9.11626 11.75 9.11579C11.75 9.11531 11.75 9.11484 11.75 9.11437C11.75 9.1139 11.75 9.11343 11.75 9.11296C11.75 9.11249 11.75 9.11202 11.75 9.11155C11.75 9.11109 11.75 9.11062 11.75 9.11015C11.75 9.10969 11.75 9.10923 11.75 9.10876C11.75 9.1083 11.75 9.10784 11.75 9.10738C11.75 9.10692 11.75 9.10646 11.75 9.106C11.75 9.10555 11.75 9.10509 11.75 9.10464C11.75 9.10418 11.75 9.10373 11.75 9.10327C11.75 9.10282 11.75 9.10237 11.75 9.10192C11.75 9.10147 11.75 9.10102 11.75 9.10057C11.75 9.10012 11.75 9.09968 11.75 9.09923C11.75 9.09878 11.75 9.09834 11.75 9.0979C11.75 9.09745 11.75 9.09701 11.75 9.09657C11.75 9.09613 11.75 9.09569 11.75 9.09525C11.75 9.09481 11.75 9.09438 11.75 9.09394C11.75 9.09351 11.75 9.09307 11.75 9.09264C11.75 9.09221 11.75 9.09177 11.75 9.09134C11.75 9.09091 11.75 9.09048 11.75 9.09005C11.75 9.08963 11.75 9.0892 11.75 9.08877C11.75 9.08835 11.75 9.08792 11.75 9.0875C11.75 9.08708 11.75 9.08665 11.75 9.08623C11.75 9.08581 11.75 9.08539 11.75 9.08498C11.75 9.08456 11.75 9.08414 11.75 9.08373C11.75 9.08331 11.75 9.0829 11.75 9.08248C11.75 9.08207 11.75 9.08166 11.75 9.08125C11.75 9.08084 11.75 9.08043 11.75 9.08002C11.75 9.07961 11.75 9.07921 11.75 9.0788C11.75 9.0784 11.75 9.07799 11.75 9.07759C11.75 9.07719 11.75 9.07679 11.75 9.07639C11.75 9.07599 11.75 9.07559 11.75 9.07519C11.75 9.07479 11.75 9.0744 11.75 9.074C11.75 9.07361 11.75 9.07322 11.75 9.07282C11.75 9.07243 11.75 9.07204 11.75 9.07165C11.75 9.07126 11.75 9.07088 11.75 9.07049C11.75 9.0701 11.75 9.06972 11.75 9.06933C11.75 9.06895 11.75 9.06857 11.75 9.06819C11.75 9.06781 11.75 9.06743 11.75 9.06705C11.75 9.06667 11.75 9.06629 11.75 9.06592C11.75 9.06554 11.75 9.06517 11.75 9.0648C11.75 9.06442 11.75 9.06405 11.75 9.06368C11.75 9.06331 11.75 9.06294 11.75 9.06258C11.75 9.06221 11.75 9.06184 11.75 9.06148C11.75 9.06112 11.75 9.06075 11.75 9.06039C11.75 9.06003 11.75 9.05967 11.75 9.05931C11.75 9.05895 11.75 9.05859 11.75 9.05824C11.75 9.05788 11.75 9.05753 11.75 9.05718C11.75 9.05682 11.75 9.05647 11.75 9.05612C11.75 9.05577 11.75 9.05542 11.75 9.05507C11.75 9.05473 11.75 9.05438 11.75 9.05404C11.75 9.05369 11.75 9.05335 11.75 9.05301C11.75 9.05267 11.75 9.05233 11.75 9.05199C11.75 9.05165 11.75 9.05131 11.75 9.05098C11.75 9.05064 11.75 9.05031 11.75 9.04997C11.75 9.04964 11.75 9.04931 11.75 9.04898C11.75 9.04865 11.75 9.04832 11.75 9.04799C11.75 9.04767 11.75 9.04734 11.75 9.04702C11.75 9.04669 11.75 9.04637 11.75 9.04605C11.75 9.04573 11.75 9.04541 11.75 9.04509C11.75 9.04478 11.75 9.04446 11.75 9.04414C11.75 9.04383 11.75 9.04352 11.75 9.0432C11.75 9.04289 11.75 9.04258 11.75 9.04227C11.75 9.04196 11.75 9.04166 11.75 9.04135C11.75 9.04104 11.75 9.04074 11.75 9.04044C11.75 9.04013 11.75 9.03983 11.75 9.03953C11.75 9.03923 11.75 9.03894 11.75 9.03864C11.75 9.03834 11.75 9.03805 11.75 9.03775C11.75 9.03746 11.75 9.03717 11.75 9.03688C11.75 9.03659 11.75 9.0363 11.75 9.03601C11.75 9.03572 11.75 9.03544 11.75 9.03515C11.75 9.03487 11.75 9.03459 11.75 9.0343C11.75 9.03402 11.75 9.03374 11.75 9.03347C11.75 9.03319 11.75 9.03291 11.75 9.03264C11.75 9.03236 11.75 9.03209 11.75 9.03182C11.75 9.03155 11.75 9.03128 11.75 9.03101C11.75 9.03074 11.75 9.03047 11.75 9.03021C11.75 9.02994 11.75 9.02968 11.75 9.02942C11.75 9.02915 11.75 9.02889 11.75 9.02863C11.75 9.02838 11.75 9.02812 11.75 9.02786C11.75 9.02761 11.75 9.02735 11.75 9.0271C11.75 9.02685 11.75 9.0266 11.75 9.02635C11.75 9.0261 11.75 9.02585 11.75 9.02561C11.75 9.02536 11.75 9.02512 11.75 9.02487C11.75 9.02463 11.75 9.02439 11.75 9.02415C11.75 9.02391 11.75 9.02367 11.75 9.02344C11.75 9.0232 11.75 9.02297 11.75 9.02273C11.75 9.0225 11.75 9.02227 11.75 9.02204C11.75 9.02181 11.75 9.02158 11.75 9.02136C11.75 9.02113 11.75 9.02091 11.75 9.02068C11.75 9.02046 11.75 9.02024 11.75 9.02002C11.75 9.0198 11.75 9.01958 11.75 9.01937C11.75 9.01915 11.75 9.01894 11.75 9.01873C11.75 9.01851 11.75 9.0183 11.75 9.01809C11.75 9.01788 11.75 9.01768 11.75 9.01747C11.75 9.01727 11.75 9.01706 11.75 9.01686C11.75 9.01666 11.75 9.01646 11.75 9.01626C11.75 9.01606 11.75 9.01586 11.75 9.01567C11.75 9.01547 11.75 9.01528 11.75 9.01508C11.75 9.01489 11.75 9.0147 11.75 9.01451C11.75 9.01432 11.75 9.01414 11.75 9.01395C11.75 9.01377 11.75 9.01358 11.75 9.0134C11.75 9.01322 11.75 9.01304 11.75 9.01286C11.75 9.01269 11.75 9.01251 11.75 9.01233C11.75 9.01216 11.75 9.01199 11.75 9.01182C11.75 9.01164 11.75 9.01148 11.75 9.01131C11.75 9.01114 11.75 9.01097 11.75 9.01081C11.75 9.01065 11.75 9.01048 11.75 9.01032C11.75 9.01016 11.75 9.01001 11.75 9.00985C11.75 9.00969 11.75 9.00954 11.75 9.00938C11.75 9.00923 11.75 9.00908 11.75 9.00893C11.75 9.00878 11.75 9.00863 11.75 9.00849C11.75 9.00834 11.75 9.0082 11.75 9.00805C11.75 9.00791 11.75 9.00777 11.75 9.00763C11.75 9.00749 11.75 9.00736 11.75 9.00722C11.75 9.00709 11.75 9.00695 11.75 9.00682C11.75 9.00669 11.75 9.00656 11.75 9.00643C11.75 9.0063 11.75 9.00618 11.75 9.00605C11.75 9.00593 11.75 9.00581 11.75 9.00569C11.75 9.00557 11.75 9.00545 11.75 9.00533C11.75 9.00522 11.75 9.0051 11.75 9.00499C11.75 9.00487 11.75 9.00476 11.75 9.00465C11.75 9.00454 11.75 9.00444 11.75 9.00433C11.75 9.00423 11.75 9.00412 11.75 9.00402C11.75 9.00392 11.75 9.00382 11.75 9.00372C11.75 9.00362 11.75 9.00353 11.75 9.00343C11.75 9.00334 11.75 9.00325 11.75 9.00316C11.75 9.00307 11.75 9.00298 11.75 9.00289C11.75 9.0028 11.75 9.00272 11.75 9.00264C11.75 9.00255 11.75 9.00247 11.75 9.00239C11.75 9.00231 11.75 9.00224 11.75 9.00216C11.75 9.00209 11.75 9.00201 11.75 9.00194C11.75 9.00187 11.75 9.0018 11.75 9.00173C11.75 9.00167 11.75 9.0016 11.75 9.00154C11.75 9.00147 11.75 9.00141 11.75 9.00135C11.75 9.00129 11.75 9.00124 11.75 9.00118C11.75 9.00112 11.75 9.00107 11.75 9.00102C11.75 9.00097 11.75 9.00092 11.75 9.00087C11.75 9.00082 11.75 9.00077 11.75 9.00073C11.75 9.00069 11.75 9.00064 11.75 9.0006C11.75 9.00056 11.75 9.00053 11.75 9.00049C11.75 9.00045 11.75 9.00042 11.75 9.00039C11.75 9.00035 11.75 9.00032 11.75 9.0003C11.75 9.00027 11.75 9.00024 11.75 9.00022C11.75 9.00019 11.75 9.00017 11.75 9.00015C11.75 9.00013 11.75 9.00011 11.75 9.0001C11.75 9.00008 11.75 9.00007 11.75 9.00005C11.75 9.00004 11.75 9.00003 11.75 9.00002C11.75 9.00002 11.75 9.00001 11.75 9.00001C11.75 9 11.75 9 11 9C10.25 9 10.25 9 10.25 9.00001C10.25 9.00001 10.25 9.00002 10.25 9.00002C10.25 9.00003 10.25 9.00004 10.25 9.00005C10.25 9.00007 10.25 9.00008 10.25 9.0001C10.25 9.00011 10.25 9.00013 10.25 9.00015C10.25 9.00017 10.25 9.00019 10.25 9.00022C10.25 9.00024 10.25 9.00027 10.25 9.0003C10.25 9.00032 10.25 9.00035 10.25 9.00039C10.25 9.00042 10.25 9.00045 10.25 9.00049C10.25 9.00053 10.25 9.00056 10.25 9.0006C10.25 9.00064 10.25 9.00069 10.25 9.00073C10.25 9.00077 10.25 9.00082 10.25 9.00087C10.25 9.00092 10.25 9.00097 10.25 9.00102C10.25 9.00107 10.25 9.00112 10.25 9.00118C10.25 9.00124 10.25 9.00129 10.25 9.00135C10.25 9.00141 10.25 9.00147 10.25 9.00154C10.25 9.0016 10.25 9.00167 10.25 9.00173C10.25 9.0018 10.25 9.00187 10.25 9.00194C10.25 9.00201 10.25 9.00209 10.25 9.00216C10.25 9.00224 10.25 9.00231 10.25 9.00239C10.25 9.00247 10.25 9.00255 10.25 9.00264C10.25 9.00272 10.25 9.0028 10.25 9.00289C10.25 9.00298 10.25 9.00307 10.25 9.00316C10.25 9.00325 10.25 9.00334 10.25 9.00343C10.25 9.00353 10.25 9.00362 10.25 9.00372C10.25 9.00382 10.25 9.00392 10.25 9.00402C10.25 9.00412 10.25 9.00423 10.25 9.00433C10.25 9.00444 10.25 9.00454 10.25 9.00465C10.25 9.00476 10.25 9.00487 10.25 9.00499C10.25 9.0051 10.25 9.00522 10.25 9.00533C10.25 9.00545 10.25 9.00557 10.25 9.00569C10.25 9.00581 10.25 9.00593 10.25 9.00605C10.25 9.00618 10.25 9.0063 10.25 9.00643C10.25 9.00656 10.25 9.00669 10.25 9.00682C10.25 9.00695 10.25 9.00709 10.25 9.00722C10.25 9.00736 10.25 9.00749 10.25 9.00763C10.25 9.00777 10.25 9.00791 10.25 9.00805C10.25 9.0082 10.25 9.00834 10.25 9.00849C10.25 9.00863 10.25 9.00878 10.25 9.00893C10.25 9.00908 10.25 9.00923 10.25 9.00938C10.25 9.00954 10.25 9.00969 10.25 9.00985C10.25 9.01001 10.25 9.01016 10.25 9.01032C10.25 9.01048 10.25 9.01065 10.25 9.01081C10.25 9.01097 10.25 9.01114 10.25 9.01131C10.25 9.01148 10.25 9.01164 10.25 9.01182C10.25 9.01199 10.25 9.01216 10.25 9.01233C10.25 9.01251 10.25 9.01269 10.25 9.01286C10.25 9.01304 10.25 9.01322 10.25 9.0134C10.25 9.01358 10.25 9.01377 10.25 9.01395C10.25 9.01414 10.25 9.01432 10.25 9.01451C10.25 9.0147 10.25 9.01489 10.25 9.01508C10.25 9.01528 10.25 9.01547 10.25 9.01567C10.25 9.01586 10.25 9.01606 10.25 9.01626C10.25 9.01646 10.25 9.01666 10.25 9.01686C10.25 9.01706 10.25 9.01727 10.25 9.01747C10.25 9.01768 10.25 9.01788 10.25 9.01809C10.25 9.0183 10.25 9.01851 10.25 9.01873C10.25 9.01894 10.25 9.01915 10.25 9.01937C10.25 9.01958 10.25 9.0198 10.25 9.02002C10.25 9.02024 10.25 9.02046 10.25 9.02068C10.25 9.02091 10.25 9.02113 10.25 9.02136C10.25 9.02158 10.25 9.02181 10.25 9.02204C10.25 9.02227 10.25 9.0225 10.25 9.02273C10.25 9.02297 10.25 9.0232 10.25 9.02344C10.25 9.02367 10.25 9.02391 10.25 9.02415C10.25 9.02439 10.25 9.02463 10.25 9.02487C10.25 9.02512 10.25 9.02536 10.25 9.02561C10.25 9.02585 10.25 9.0261 10.25 9.02635C10.25 9.0266 10.25 9.02685 10.25 9.0271C10.25 9.02735 10.25 9.02761 10.25 9.02786C10.25 9.02812 10.25 9.02838 10.25 9.02863C10.25 9.02889 10.25 9.02915 10.25 9.02942C10.25 9.02968 10.25 9.02994 10.25 9.03021C10.25 9.03047 10.25 9.03074 10.25 9.03101C10.25 9.03128 10.25 9.03155 10.25 9.03182C10.25 9.03209 10.25 9.03236 10.25 9.03264C10.25 9.03291 10.25 9.03319 10.25 9.03347C10.25 9.03374 10.25 9.03402 10.25 9.0343C10.25 9.03459 10.25 9.03487 10.25 9.03515C10.25 9.03544 10.25 9.03572 10.25 9.03601C10.25 9.0363 10.25 9.03659 10.25 9.03688C10.25 9.03717 10.25 9.03746 10.25 9.03775C10.25 9.03805 10.25 9.03834 10.25 9.03864C10.25 9.03894 10.25 9.03923 10.25 9.03953C10.25 9.03983 10.25 9.04013 10.25 9.04044C10.25 9.04074 10.25 9.04104 10.25 9.04135C10.25 9.04166 10.25 9.04196 10.25 9.04227C10.25 9.04258 10.25 9.04289 10.25 9.0432C10.25 9.04352 10.25 9.04383 10.25 9.04414C10.25 9.04446 10.25 9.04478 10.25 9.04509C10.25 9.04541 10.25 9.04573 10.25 9.04605C10.25 9.04637 10.25 9.04669 10.25 9.04702C10.25 9.04734 10.25 9.04767 10.25 9.04799C10.25 9.04832 10.25 9.04865 10.25 9.04898C10.25 9.04931 10.25 9.04964 10.25 9.04997C10.25 9.05031 10.25 9.05064 10.25 9.05098C10.25 9.05131 10.25 9.05165 10.25 9.05199C10.25 9.05233 10.25 9.05267 10.25 9.05301C10.25 9.05335 10.25 9.05369 10.25 9.05404C10.25 9.05438 10.25 9.05473 10.25 9.05507C10.25 9.05542 10.25 9.05577 10.25 9.05612C10.25 9.05647 10.25 9.05682 10.25 9.05718C10.25 9.05753 10.25 9.05788 10.25 9.05824C10.25 9.05859 10.25 9.05895 10.25 9.05931C10.25 9.05967 10.25 9.06003 10.25 9.06039C10.25 9.06075 10.25 9.06112 10.25 9.06148C10.25 9.06184 10.25 9.06221 10.25 9.06258C10.25 9.06294 10.25 9.06331 10.25 9.06368C10.25 9.06405 10.25 9.06442 10.25 9.0648C10.25 9.06517 10.25 9.06554 10.25 9.06592C10.25 9.06629 10.25 9.06667 10.25 9.06705C10.25 9.06743 10.25 9.06781 10.25 9.06819C10.25 9.06857 10.25 9.06895 10.25 9.06933C10.25 9.06972 10.25 9.0701 10.25 9.07049C10.25 9.07088 10.25 9.07126 10.25 9.07165C10.25 9.07204 10.25 9.07243 10.25 9.07282C10.25 9.07322 10.25 9.07361 10.25 9.074C10.25 9.0744 10.25 9.07479 10.25 9.07519C10.25 9.07559 10.25 9.07599 10.25 9.07639C10.25 9.07679 10.25 9.07719 10.25 9.07759C10.25 9.07799 10.25 9.0784 10.25 9.0788C10.25 9.07921 10.25 9.07961 10.25 9.08002C10.25 9.08043 10.25 9.08084 10.25 9.08125C10.25 9.08166 10.25 9.08207 10.25 9.08248C10.25 9.0829 10.25 9.08331 10.25 9.08373C10.25 9.08414 10.25 9.08456 10.25 9.08498C10.25 9.08539 10.25 9.08581 10.25 9.08623C10.25 9.08665 10.25 9.08708 10.25 9.0875C10.25 9.08792 10.25 9.08835 10.25 9.08877C10.25 9.0892 10.25 9.08963 10.25 9.09005C10.25 9.09048 10.25 9.09091 10.25 9.09134C10.25 9.09177 10.25 9.09221 10.25 9.09264C10.25 9.09307 10.25 9.09351 10.25 9.09394C10.25 9.09438 10.25 9.09481 10.25 9.09525C10.25 9.09569 10.25 9.09613 10.25 9.09657C10.25 9.09701 10.25 9.09745 10.25 9.0979C10.25 9.09834 10.25 9.09878 10.25 9.09923C10.25 9.09968 10.25 9.10012 10.25 9.10057C10.25 9.10102 10.25 9.10147 10.25 9.10192C10.25 9.10237 10.25 9.10282 10.25 9.10327C10.25 9.10373 10.25 9.10418 10.25 9.10464C10.25 9.10509 10.25 9.10555 10.25 9.106C10.25 9.10646 10.25 9.10692 10.25 9.10738C10.25 9.10784 10.25 9.1083 10.25 9.10876C10.25 9.10923 10.25 9.10969 10.25 9.11015C10.25 9.11062 10.25 9.11109 10.25 9.11155C10.25 9.11202 10.25 9.11249 10.25 9.11296C10.25 9.11343 10.25 9.1139 10.25 9.11437C10.25 9.11484 10.25 9.11531 10.25 9.11579C10.25 9.11626 10.25 9.11674 10.25 9.11721C10.25 9.11769 10.25 9.11817 10.25 9.11864C10.25 9.11912 10.25 9.1196 10.25 9.12008C10.25 9.12056 10.25 9.12105 10.25 9.12153C10.25 9.12201 10.25 9.1225 10.25 9.12298C10.25 9.12347 10.25 9.12395 10.25 9.12444C10.25 9.12493 10.25 9.12542 10.25 9.12591C10.25 9.1264 10.25 9.12689 10.25 9.12738C10.25 9.12787 10.25 9.12836 10.25 9.12886C10.25 9.12935 10.25 9.12985 10.25 9.13034C10.25 9.13084 10.25 9.13134 10.25 9.13184C10.25 9.13233 10.25 9.13283 10.25 9.13333C10.25 9.13383 10.25 9.13434 10.25 9.13484C10.25 9.13534 10.25 9.13585 10.25 9.13635C10.25 9.13686 10.25 9.13736 10.25 9.13787C10.25 9.13838 10.25 9.13888 10.25 9.13939C10.25 9.1399 10.25 9.14041 10.25 9.14092C10.25 9.14143 10.25 9.14195 10.25 9.14246C10.25 9.14297 10.25 9.14349 10.25 9.144C10.25 9.14452 10.25 9.14503 10.25 9.14555C10.25 9.14607 10.25 9.14659 10.25 9.14711C10.25 9.14763 10.25 9.14815 10.25 9.14867C10.25 9.14919 10.25 9.14971 10.25 9.15024C10.25 9.15076 10.25 9.15128 10.25 9.15181C10.25 9.15234 10.25 9.15286 10.25 9.15339C10.25 9.15392 10.25 9.15445 10.25 9.15498C10.25 9.1555 10.25 9.15604 10.25 9.15657C10.25 9.1571 10.25 9.15763 10.25 9.15816C10.25 9.1587 10.25 9.15923 10.25 9.15977C10.25 9.1603 10.25 9.16084 10.25 9.16138C10.25 9.16191 10.25 9.16245 10.25 9.16299C10.25 9.16353 10.25 9.16407 10.25 9.16461C10.25 9.16515 10.25 9.1657 10.25 9.16624C10.25 9.16678 10.25 9.16733 10.25 9.16787C10.25 9.16842 10.25 9.16896 10.25 9.16951C10.25 9.17006 10.25 9.1706 10.25 9.17115C10.25 9.1717 10.25 9.17225 10.25 9.1728C10.25 9.17335 10.25 9.1739 10.25 9.17446C10.25 9.17501 10.25 9.17556 10.25 9.17612C10.25 9.17667 10.25 9.17723 10.25 9.17778C10.25 9.17834 10.25 9.1789 10.25 9.17945C10.25 9.18001 10.25 9.18057 10.25 9.18113C10.25 9.18169 10.25 9.18225 10.25 9.18281C10.25 9.18337 10.25 9.18394 10.25 9.1845C10.25 9.18506 10.25 9.18563 10.25 9.18619C10.25 9.18676 10.25 9.18732 10.25 9.18789C10.25 9.18846 10.25 9.18902 10.25 9.18959C10.25 9.19016 10.25 9.19073 10.25 9.1913C10.25 9.19187 10.25 9.19244 10.25 9.19301C10.25 9.19359 10.25 9.19416 10.25 9.19473C10.25 9.19531 10.25 9.19588 10.25 9.19646C10.25 9.19703 10.25 9.19761 10.25 9.19818C10.25 9.19876 10.25 9.19934 10.25 9.19992C10.25 9.2005 10.25 9.20108 10.25 9.20166C10.25 9.20224 10.25 9.20282 10.25 9.2034C10.25 9.20398 10.25 9.20457 10.25 9.20515C10.25 9.20573 10.25 9.20632 10.25 9.2069C10.25 9.20749 10.25 9.20807 10.25 9.20866C10.25 9.20925 10.25 9.20984 10.25 9.21042C10.25 9.21101 10.25 9.2116 10.25 9.21219C10.25 9.21278 10.25 9.21337 10.25 9.21396C10.25 9.21456 10.25 9.21515 10.25 9.21574C10.25 9.21634 10.25 9.21693 10.25 9.21752C10.25 9.21812 10.25 9.21871 10.25 9.21931C10.25 9.21991 10.25 9.2205 10.25 9.2211C10.25 9.2217 10.25 9.2223 10.25 9.2229C10.25 9.2235 10.25 9.2241 10.25 9.2247C10.25 9.2253 10.25 9.2259 10.25 9.2265C10.25 9.2271 10.25 9.22771 10.25 9.22831C10.25 9.22892 10.25 9.22952 10.25 9.23012C10.25 9.23073 10.25 9.23134 10.25 9.23194C10.25 9.23255 10.25 9.23316 10.25 9.23377C10.25 9.23437 10.25 9.23498 10.25 9.23559C10.25 9.2362 10.25 9.23681 10.25 9.23742C10.25 9.23803 10.25 9.23865 10.25 9.23926C10.25 9.23987 10.25 9.24048 10.25 9.2411C10.25 9.24171 10.25 9.24232 10.25 9.24294C10.25 9.24356 10.25 9.24417 10.25 9.24479C10.25 9.2454 10.25 9.24602 10.25 9.24664C10.25 9.24726 10.25 9.24788 10.25 9.2485C10.25 9.24911 10.25 9.24973 10.25 9.25035C10.25 9.25098 10.25 9.2516 10.25 9.25222C10.25 9.25284 10.25 9.25346 10.25 9.25409C10.25 9.25471 10.25 9.25533 10.25 9.25596C10.25 9.25658 10.25 9.25721 10.25 9.25783C10.25 9.25846 10.25 9.25909 10.25 9.25971C10.25 9.26034 10.25 9.26097 10.25 9.2616C10.25 9.26222 10.25 9.26285 10.25 9.26348C10.25 9.26411 10.25 9.26474 10.25 9.26537C10.25 9.266 10.25 9.26663 10.25 9.26727C10.25 9.2679 10.25 9.26853 10.25 9.26916C10.25 9.2698 10.25 9.27043 10.25 9.27107C10.25 9.2717 10.25 9.27234 10.25 9.27297C10.25 9.27361 10.25 9.27424 10.25 9.27488C10.25 9.27552 10.25 9.27615 10.25 9.27679C10.25 9.27743 10.25 9.27807 10.25 9.27871C10.25 9.27935 10.25 9.27999 10.25 9.28063C10.25 9.28127 10.25 9.28191 10.25 9.28255C10.25 9.28319 10.25 9.28383 10.25 9.28448C10.25 9.28512 10.25 9.28576 10.25 9.2864C10.25 9.28705 10.25 9.28769 10.25 9.28834C10.25 9.28898 10.25 9.28963 10.25 9.29027C10.25 9.29092 10.25 9.29156 10.25 9.29221C10.25 9.29286 10.25 9.29351 10.25 9.29415C10.25 9.2948 10.25 9.29545 10.25 9.2961C10.25 9.29675 10.25 9.2974 10.25 9.29805C10.25 9.2987 10.25 9.29935 10.25 9.3C10.25 9.30065 10.25 9.3013 10.25 9.30195C10.25 9.30261 10.25 9.30326 10.25 9.30391C10.25 9.30456 10.25 9.30522 10.25 9.30587C10.25 9.30653 10.25 9.30718 10.25 9.30784C10.25 9.30849 10.25 9.30915 10.25 9.3098C10.25 9.31046 10.25 9.31112 10.25 9.31177C10.25 9.31243 10.25 9.31309 10.25 9.31374C10.25 9.3144 10.25 9.31506 10.25 9.31572C10.25 9.31638 10.25 9.31704 10.25 9.3177C10.25 9.31836 10.25 9.31902 10.25 9.31968C10.25 9.32034 10.25 9.321 10.25 9.32166C10.25 9.32232 10.25 9.32298 10.25 9.32365C10.25 9.32431 10.25 9.32497 10.25 9.32563C10.25 9.3263 10.25 9.32696 10.25 9.32763C10.25 9.32829 10.25 9.32895 10.25 9.32962C10.25 9.33028 10.25 9.33095 10.25 9.33162C10.25 9.33228 10.25 9.33295 10.25 9.33361C10.25 9.33428 10.25 9.33495 10.25 9.33562C10.25 9.33628 10.25 9.33695 10.25 9.33762C10.25 9.33829 10.25 9.33896 10.25 9.33962C10.25 9.34029 10.25 9.34096 10.25 9.34163C10.25 9.3423 10.25 9.34297 10.25 9.34364C10.25 9.34431 10.25 9.34499 10.25 9.34566C10.25 9.34633 10.25 9.347 10.25 9.34767C10.25 9.34834 10.25 9.34902 10.25 9.34969C10.25 9.35036 10.25 9.35103 10.25 9.35171C10.25 9.35238 10.25 9.35306 10.25 9.35373C10.25 9.3544 10.25 9.35508 10.25 9.35575C10.25 9.35643 10.25 9.3571 10.25 9.35778C10.25 9.35845 10.25 9.35913 10.25 9.35981C10.25 9.36048 10.25 9.36116 10.25 9.36184C10.25 9.36251 10.25 9.36319 10.25 9.36387C10.25 9.36454 10.25 9.36522 10.25 9.3659C10.25 9.36658 10.25 9.36726 10.25 9.36794C10.25 9.36861 10.25 9.36929 10.25 9.36997C10.25 9.37065 10.25 9.37133 10.25 9.37201C10.25 9.37269 10.25 9.37337 10.25 9.37405C10.25 9.37473 10.25 9.37541 10.25 9.37609C10.25 9.37678 10.25 9.37746 10.25 9.37814C10.25 9.37882 10.25 9.3795 10.25 9.38018C10.25 9.38087 10.25 9.38155 10.25 9.38223C10.25 9.38291 10.25 9.3836 10.25 9.38428C10.25 9.38496 10.25 9.38565 10.25 9.38633C10.25 9.38702 10.25 9.3877 10.25 9.38838C10.25 9.38907 10.25 9.38975 10.25 9.39044C10.25 9.39112 10.25 9.39181 10.25 9.39249C10.25 9.39318 10.25 9.39386 10.25 9.39455C10.25 9.39523 10.25 9.39592 10.25 9.39661C10.25 9.39729 10.25 9.39798 10.25 9.39866C10.25 9.39935 10.25 9.40004 10.25 9.40073C10.25 9.40141 10.25 9.4021 10.25 9.40279C10.25 9.40347 10.25 9.40416 10.25 9.40485C10.25 9.40554 10.25 9.40623 10.25 9.40691C10.25 9.4076 10.25 9.40829 10.25 9.40898C10.25 9.40967 10.25 9.41036 10.25 9.41105C10.25 9.41173 10.25 9.41242 10.25 9.41311C10.25 9.4138 10.25 9.41449 10.25 9.41518C10.25 9.41587 10.25 9.41656 10.25 9.41725C10.25 9.41794 10.25 9.41863 10.25 9.41932C10.25 9.42001 10.25 9.4207 10.25 9.42139C10.25 9.42208 10.25 9.42277 10.25 9.42347C10.25 9.42416 10.25 9.42485 10.25 9.42554C10.25 9.42623 10.25 9.42692 10.25 9.42761C10.25 9.4283 10.25 9.429 10.25 9.42969C10.25 9.43038 10.25 9.43107 10.25 9.43176C10.25 9.43245 10.25 9.43315 10.25 9.43384C10.25 9.43453 10.25 9.43522 10.25 9.43592C10.25 9.43661 10.25 9.4373 10.25 9.43799C10.25 9.43869 10.25 9.43938 10.25 9.44007C10.25 9.44076 10.25 9.44146 10.25 9.44215C10.25 9.44284 10.25 9.44354 10.25 9.44423C10.25 9.44492 10.25 9.44562 10.25 9.44631C10.25 9.447 10.25 9.4477 10.25 9.44839C10.25 9.44908 10.25 9.44978 10.25 9.45047C10.25 9.45117 10.25 9.45186 10.25 9.45255C10.25 9.45325 10.25 9.45394 10.25 9.45463C10.25 9.45533 10.25 9.45602 10.25 9.45672C10.25 9.45741 10.25 9.4581 10.25 9.4588C10.25 9.45949 10.25 9.46019 10.25 9.46088C10.25 9.46158 10.25 9.46227 10.25 9.46296C10.25 9.46366 10.25 9.46435 10.25 9.46505C10.25 9.46574 10.25 9.46643 10.25 9.46713C10.25 9.46782 10.25 9.46852 10.25 9.46921C10.25 9.46991 10.25 9.4706 10.25 9.4713C10.25 9.47199 10.25 9.47268 10.25 9.47338C10.25 9.47407 10.25 9.47477 10.25 9.47546C10.25 9.47616 10.25 9.47685 10.25 9.47755C10.25 9.47824 10.25 9.47893 10.25 9.47963C10.25 9.48032 10.25 9.48102 10.25 9.48171C10.25 9.48241 10.25 9.4831 10.25 9.4838C10.25 9.48449 10.25 9.48518 10.25 9.48588C10.25 9.48657 10.25 9.48727 10.25 9.48796C10.25 9.48866 10.25 9.48935 10.25 9.49004C10.25 9.49074 10.25 9.49143 10.25 9.49213C10.25 9.49282 10.25 9.49351 10.25 9.49421C10.25 9.4949 10.25 9.49559 10.25 9.49629C10.25 9.49698 10.25 9.49768 10.25 9.49837C10.25 9.49906 10.25 9.49976 10.25 9.50045C10.25 9.50114 10.25 9.50184 10.25 9.50253C10.25 9.50322 10.25 9.50392 10.25 9.50461C10.25 9.5053 10.25 9.506 10.25 9.50669C10.25 9.50738 10.25 9.50808 10.25 9.50877C10.25 9.50946 10.25 9.51015 10.25 9.51085C10.25 9.51154 10.25 9.51223 10.25 9.51292C10.25 9.51362 10.25 9.51431 10.25 9.515C10.25 9.51569 10.25 9.51638 10.25 9.51708C10.25 9.51777 10.25 9.51846 10.25 9.51915C10.25 9.51984 10.25 9.52053 10.25 9.52123C10.25 9.52192 10.25 9.52261 10.25 9.5233C10.25 9.52399 10.25 9.52468 10.25 9.52537C10.25 9.52606 10.25 9.52675 10.25 9.52745C10.25 9.52814 10.25 9.52883 10.25 9.52952C10.25 9.53021 10.25 9.5309 10.25 9.53159C10.25 9.53228 10.25 9.53297 10.25 9.53366C10.25 9.53435 10.25 9.53503 10.25 9.53572C10.25 9.53641 10.25 9.5371 10.25 9.53779C10.25 9.53848 10.25 9.53917 10.25 9.53986C10.25 9.54054 10.25 9.54123 10.25 9.54192C10.25 9.54261 10.25 9.5433 10.25 9.54399C10.25 9.54467 10.25 9.54536 10.25 9.54605C10.25 9.54673 10.25 9.54742 10.25 9.54811C10.25 9.5488 10.25 9.54948 10.25 9.55017C10.25 9.55086 10.25 9.55154 10.25 9.55223C10.25 9.55291 10.25 9.5536 10.25 9.55428C10.25 9.55497 10.25 9.55566 10.25 9.55634C10.25 9.55703 10.25 9.55771 10.25 9.55839C10.25 9.55908 10.25 9.55976 10.25 9.56045C10.25 9.56113 10.25 9.56182 10.25 9.5625C10.25 9.56318 10.25 9.56387 10.25 9.56455C10.25 9.56523 10.25 9.56592 10.25 9.5666C10.25 9.56728 10.25 9.56796 10.25 9.56865C10.25 9.56933 10.25 9.57001 10.25 9.57069C10.25 9.57137 10.25 9.57205 10.25 9.57273C10.25 9.57341 10.25 9.5741 10.25 9.57478C10.25 9.57546 10.25 9.57614 10.25 9.57682C10.25 9.5775 10.25 9.57818 10.25 9.57885C10.25 9.57953 10.25 9.58021 10.25 9.58089C10.25 9.58157 10.25 9.58225 10.25 9.58293C10.25 9.5836 10.25 9.58428 10.25 9.58496C10.25 9.58564 10.25 9.58631 10.25 9.58699C10.25 9.58767 10.25 9.58834 10.25 9.58902C10.25 9.58969 10.25 9.59037 10.25 9.59104C10.25 9.59172 10.25 9.59239 10.25 9.59307C10.25 9.59374 10.25 9.59442 10.25 9.59509C10.25 9.59577 10.25 9.59644 10.25 9.59711C10.25 9.59779 10.25 9.59846 10.25 9.59913C10.25 9.5998 10.25 9.60048 10.25 9.60115C10.25 9.60182 10.25 9.60249 10.25 9.60316C10.25 9.60383 10.25 9.6045 10.25 9.60517C10.25 9.60584 10.25 9.60651 10.25 9.60718C10.25 9.60785 10.25 9.60852 10.25 9.60919C10.25 9.60986 10.25 9.61053 10.25 9.6112C10.25 9.61186 10.25 9.61253 10.25 9.6132C10.25 9.61387 10.25 9.61453 10.25 9.6152C10.25 9.61587 10.25 9.61653 10.25 9.6172C10.25 9.61786 10.25 9.61853 10.25 9.61919C10.25 9.61986 10.25 9.62052 10.25 9.62119C10.25 9.62185 10.25 9.62251 10.25 9.62318C10.25 9.62384 10.25 9.6245 10.25 9.62516C10.25 9.62583 10.25 9.62649 10.25 9.62715C10.25 9.62781 10.25 9.62847 10.25 9.62913C10.25 9.62979 10.25 9.63045 10.25 9.63111C10.25 9.63177 10.25 9.63243 10.25 9.63309C10.25 9.63375 10.25 9.6344 10.25 9.63506C10.25 9.63572 10.25 9.63638 10.25 9.63703C10.25 9.63769 10.25 9.63834 10.25 9.639C10.25 9.63966 10.25 9.64031 10.25 9.64097C10.25 9.64162 10.25 9.64227 10.25 9.64293C10.25 9.64358 10.25 9.64424 10.25 9.64489C10.25 9.64554 10.25 9.64619 10.25 9.64684C10.25 9.6475 10.25 9.64815 10.25 9.6488C10.25 9.64945 10.25 9.6501 10.25 9.65075C10.25 9.6514 10.25 9.65205 10.25 9.6527C10.25 9.65335 10.25 9.65399 10.25 9.65464C10.25 9.65529 10.25 9.65594 10.25 9.65658C10.25 9.65723 10.25 9.65787 10.25 9.65852C10.25 9.65917 10.25 9.65981 10.25 9.66045C10.25 9.6611 10.25 9.66174 10.25 9.66239C10.25 9.66303 10.25 9.66367 10.25 9.66431C10.25 9.66496 10.25 9.6656 10.25 9.66624C10.25 9.66688 10.25 9.66752 10.25 9.66816C10.25 9.6688 10.25 9.66944 10.25 9.67008C10.25 9.67072 10.25 9.67136 10.25 9.67199C10.25 9.67263 10.25 9.67327 10.25 9.6739C10.25 9.67454 10.25 9.67518 10.25 9.67581C10.25 9.67645 10.25 9.67708 10.25 9.67772C10.25 9.67835 10.25 9.67898 10.25 9.67962C10.25 9.68025 10.25 9.68088 10.25 9.68151C10.25 9.68214 10.25 9.68278 10.25 9.68341C10.25 9.68404 10.25 9.68467 10.25 9.68529C10.25 9.68592 10.25 9.68655 10.25 9.68718C10.25 9.68781 10.25 9.68844 10.25 9.68906C10.25 9.68969 10.25 9.69031 10.25 9.69094C10.25 9.69157 10.25 9.69219 10.25 9.69281C10.25 9.69344 10.25 9.69406 10.25 9.69468C10.25 9.69531 10.25 9.69593 10.25 9.69655C10.25 9.69717 10.25 9.69779 10.25 9.69841C10.25 9.69903 10.25 9.69965 10.25 9.70027C10.25 9.70089 10.25 9.70151 10.25 9.70213C10.25 9.70274 10.25 9.70336 10.25 9.70398C10.25 9.70459 10.25 9.70521 10.25 9.70582C10.25 9.70644 10.25 9.70705 10.25 9.70766C10.25 9.70828 10.25 9.70889 10.25 9.7095C10.25 9.71011 10.25 9.71073 10.25 9.71134C10.25 9.71195 10.25 9.71256 10.25 9.71317C10.25 9.71377 10.25 9.71438 10.25 9.71499C10.25 9.7156 10.25 9.71621 10.25 9.71681C10.25 9.71742 10.25 9.71802 10.25 9.71863C10.25 9.71923 10.25 9.71984 10.25 9.72044C10.25 9.72104 10.25 9.72165 10.25 9.72225C10.25 9.72285 10.25 9.72345 10.25 9.72405C10.25 9.72465 10.25 9.72525 10.25 9.72585C10.25 9.72645 10.25 9.72705 10.25 9.72764C10.25 9.72824 10.25 9.72884 10.25 9.72943C10.25 9.73003 10.25 9.73062 10.25 9.73122C10.25 9.73181 10.25 9.73241 10.25 9.733C10.25 9.73359 10.25 9.73418 10.25 9.73477C10.25 9.73537 10.25 9.73596 10.25 9.73655C10.25 9.73713 10.25 9.73772 10.25 9.73831C10.25 9.7389 10.25 9.73949 10.25 9.74007C10.25 9.74066 10.25 9.74124 10.25 9.74183C10.25 9.74241 10.25 9.743 10.25 9.74358C10.25 9.74416 10.25 9.74475 10.25 9.74533C10.25 9.74591 10.25 9.74649 10.25 9.74707C10.25 9.74765 10.25 9.74823 10.25 9.74881C10.25 9.74939 10.25 9.74996 10.25 9.75054C10.25 9.75112 10.25 9.75169 10.25 9.75227C10.25 9.75284 10.25 9.75341 10.25 9.75399C10.25 9.75456 10.25 9.75513 10.25 9.7557C10.25 9.75628 10.25 9.75685 10.25 9.75742C10.25 9.75799 10.25 9.75855 10.25 9.75912C10.25 9.75969 10.25 9.76026 10.25 9.76082C10.25 9.76139 10.25 9.76196 10.25 9.76252C10.25 9.76308 10.25 9.76365 10.25 9.76421C10.25 9.76477 10.25 9.76534 10.25 9.7659C10.25 9.76646 10.25 9.76702 10.25 9.76758C10.25 9.76814 10.25 9.76869 10.25 9.76925C10.25 9.76981 10.25 9.77037 10.25 9.77092C10.25 9.77148 10.25 9.77203 10.25 9.77258C10.25 9.77314 10.25 9.77369 10.25 9.77424C10.25 9.77479 10.25 9.77535 10.25 9.7759C10.25 9.77645 10.25 9.77699 10.25 9.77754C10.25 9.77809 10.25 9.77864 10.25 9.77918C10.25 9.77973 10.25 9.78028 10.25 9.78082C10.25 9.78136 10.25 9.78191 10.25 9.78245C10.25 9.78299 10.25 9.78354 10.25 9.78408C10.25 9.78462 10.25 9.78516 10.25 9.78569C10.25 9.78623 10.25 9.78677 10.25 9.78731C10.25 9.78784 10.25 9.78838 10.25 9.78891C10.25 9.78945 10.25 9.78998 10.25 9.79052C10.25 9.79105 10.25 9.79158 10.25 9.79211C10.25 9.79264 10.25 9.79317 10.25 9.7937C10.25 9.79423 10.25 9.79476 10.25 9.79528C10.25 9.79581 10.25 9.79634 10.25 9.79686C10.25 9.79739 10.25 9.79791 10.25 9.79843C10.25 9.79896 10.25 9.79948 10.25 9.8H11.75Z" fill="#FAFAFA"/>
</svg>
