<svg width="24" height="24" viewBox="0 0 24 24" fill="none" xmlns="http://www.w3.org/2000/svg">
<path d="M19.2178 8.93844L19.1005 9.67921H19.1005L19.2178 8.93844ZM15.0616 4.78217L14.3208 4.8995V4.8995L15.0616 4.78217ZM5.06107 20.0451L5.50191 19.4383L5.06107 20.0451ZM3.95491 18.9389L4.56168 18.4981L3.95491 18.9389ZM20.0451 18.9389L19.4383 18.4981L20.0451 18.9389ZM18.9389 20.0451L18.4981 19.4383L18.9389 20.0451ZM18.9389 3.95491L19.3798 3.34815L18.9389 3.95491ZM20.0451 5.06107L20.6518 4.62023L20.0451 5.06107ZM5.06107 3.95491L5.50191 4.56168L5.06107 3.95491ZM3.95491 5.06107L4.56168 5.50191L3.95491 5.06107ZM15 3.02893L15.0257 2.27937L15 3.02893ZM20.9711 9L21.7206 8.97432L20.9711 9ZM11.75 9C11.75 8.58579 11.4142 8.25 11 8.25C10.5858 8.25 10.25 8.58579 10.25 9H11.75ZM15.5327 14.328C15.8243 14.0338 15.8222 13.5589 15.528 13.2673C15.2338 12.9757 14.7589 12.9778 14.4673 13.272L15.5327 14.328ZM13.6022 15.2104L14.1348 15.7383L13.6022 15.2104ZM8.39785 15.2104L8.93054 14.6824L8.39785 15.2104ZM7.53269 13.272C7.24111 12.9778 6.76624 12.9757 6.47204 13.2673C6.17784 13.5589 6.17572 14.0338 6.46731 14.328L7.53269 13.272ZM11.2507 16.9841L11.3455 17.7281L11.3455 17.7281L11.2507 16.9841ZM10.7493 16.9841L10.6545 17.7281L10.6545 17.7281L10.7493 16.9841ZM11 17V17.75V17ZM19.3352 8.19768C17.5166 7.90965 16.0904 6.48339 15.8023 4.66485L14.3208 4.8995C14.7105 7.35988 16.6401 9.28952 19.1005 9.67921L19.3352 8.19768ZM12 20.25C10.1084 20.25 8.74999 20.249 7.69804 20.135C6.66013 20.0225 6.00992 19.8074 5.50191 19.4383L4.62023 20.6518C5.42656 21.2377 6.37094 21.5 7.53648 21.6263C8.68798 21.751 10.1418 21.75 12 21.75V20.25ZM2.25 12C2.25 13.8582 2.24897 15.312 2.37373 16.4635C2.50001 17.6291 2.76232 18.5734 3.34815 19.3798L4.56168 18.4981C4.19259 17.9901 3.97745 17.3399 3.865 16.302C3.75103 15.25 3.75 13.8916 3.75 12H2.25ZM5.50191 19.4383C5.14111 19.1762 4.82382 18.8589 4.56168 18.4981L3.34815 19.3798C3.70281 19.8679 4.13209 20.2972 4.62023 20.6518L5.50191 19.4383ZM20.25 12C20.25 13.8916 20.249 15.25 20.135 16.302C20.0225 17.3399 19.8074 17.9901 19.4383 18.4981L20.6518 19.3798C21.2377 18.5734 21.5 17.6291 21.6263 16.4635C21.751 15.312 21.75 13.8582 21.75 12H20.25ZM12 21.75C13.8582 21.75 15.312 21.751 16.4635 21.6263C17.6291 21.5 18.5734 21.2377 19.3798 20.6518L18.4981 19.4383C17.9901 19.8074 17.3399 20.0225 16.302 20.135C15.25 20.249 13.8916 20.25 12 20.25V21.75ZM19.4383 18.4981C19.1762 18.8589 18.8589 19.1762 18.4981 19.4383L19.3798 20.6518C19.8679 20.2972 20.2972 19.8679 20.6518 19.3798L19.4383 18.4981ZM18.4981 4.56168C18.8589 4.82382 19.1762 5.14111 19.4383 5.50191L20.6518 4.62023C20.2972 4.13209 19.8679 3.70281 19.3798 3.34815L18.4981 4.56168ZM12 2.25C10.1418 2.25 8.68798 2.24897 7.53648 2.37373C6.37094 2.50001 5.42656 2.76232 4.62023 3.34815L5.50191 4.56168C6.00992 4.19259 6.66013 3.97745 7.69804 3.865C8.74999 3.75103 10.1084 3.75 12 3.75V2.25ZM3.75 12C3.75 10.1084 3.75103 8.74999 3.865 7.69804C3.97745 6.66013 4.19259 6.00992 4.56168 5.50191L3.34815 4.62023C2.76232 5.42656 2.50001 6.37094 2.37373 7.53648C2.24897 8.68798 2.25 10.1418 2.25 12H3.75ZM4.62023 3.34815C4.13209 3.70281 3.70281 4.13209 3.34815 4.62023L4.56168 5.50191C4.82382 5.14111 5.14111 4.82382 5.50191 4.56168L4.62023 3.34815ZM12 3.75C13.1731 3.75 14.1456 3.75009 14.9743 3.77849L15.0257 2.27937C14.1658 2.24991 13.1648 2.25 12 2.25V3.75ZM14.9743 3.77849C16.8292 3.84204 17.7925 4.04907 18.4981 4.56168L19.3798 3.34815C18.2761 2.5463 16.8991 2.34355 15.0257 2.27937L14.9743 3.77849ZM14.25 3.02893C14.25 3.91121 14.2484 4.44215 14.3208 4.8995L15.8023 4.66485C15.7529 4.35298 15.75 3.96617 15.75 3.02892L14.25 3.02893ZM21.75 12C21.75 10.8352 21.7501 9.83424 21.7206 8.97432L20.2215 9.02568C20.2499 9.85445 20.25 10.8269 20.25 12H21.75ZM21.7206 8.97432C21.6564 7.10087 21.4537 5.7239 20.6518 4.62023L19.4383 5.50191C19.9509 6.20746 20.158 7.17075 20.2215 9.02568L21.7206 8.97432ZM20.9711 8.25C20.0338 8.24999 19.647 8.24707 19.3352 8.19768L19.1005 9.67921C19.5579 9.75165 20.0888 9.74999 20.9711 9.75L20.9711 8.25ZM10.25 9V16.2H11.75V9H10.25ZM14.4673 13.272L13.0695 14.6824L14.1348 15.7383L15.5327 14.328L14.4673 13.272ZM8.93054 14.6824L7.53269 13.272L6.46731 14.328L7.86516 15.7383L8.93054 14.6824ZM13.0695 14.6824C12.4997 15.2573 12.1161 15.6427 11.7935 15.9018C11.4827 16.1514 11.302 16.2215 11.1558 16.2401L11.3455 17.7281C11.8787 17.6601 12.3163 17.4057 12.7328 17.0713C13.1373 16.7464 13.5899 16.2882 14.1348 15.7383L13.0695 14.6824ZM7.86516 15.7383C8.41012 16.2882 8.86265 16.7464 9.26724 17.0713C9.68366 17.4057 10.1213 17.6601 10.6545 17.7281L10.8442 16.2401C10.698 16.2215 10.5173 16.1514 10.2065 15.9018C9.88386 15.6427 9.50033 15.2573 8.93054 14.6824L7.86516 15.7383ZM11.1558 16.2401C11.1041 16.2467 11.052 16.25 11 16.25V17.75C11.1154 17.75 11.2308 17.7427 11.3455 17.7281L11.1558 16.2401ZM11 16.25C10.948 16.25 10.8959 16.2467 10.8442 16.2401L10.6545 17.7281C10.7692 17.7427 10.8846 17.75 11 17.75V16.25ZM10.25 16.2V17H11.75V16.2H10.25Z" fill="#FAFAFA"/>
</svg>
