<svg width="24" height="24" viewBox="0 0 24 24" fill="none" xmlns="http://www.w3.org/2000/svg">
<path d="M8 9.25C7.58579 9.25 7.25 9.58579 7.25 10C7.25 10.4142 7.58579 10.75 8 10.75V9.25ZM16 10.75C16.4142 10.75 16.75 10.4142 16.75 10C16.75 9.58579 16.4142 9.25 16 9.25V10.75ZM8 13.25C7.58579 13.25 7.25 13.5858 7.25 14C7.25 14.4142 7.58579 14.75 8 14.75V13.25ZM16 14.75C16.4142 14.75 16.75 14.4142 16.75 14C16.75 13.5858 16.4142 13.25 16 13.25V14.75ZM13 17.25C12.5858 17.25 12.25 17.5858 12.25 18C12.25 18.4142 12.5858 18.75 13 18.75V17.25ZM16 18.75C16.4142 18.75 16.75 18.4142 16.75 18C16.75 17.5858 16.4142 17.25 16 17.25V18.75ZM5.06107 21.0451L5.50191 20.4383L5.06107 21.0451ZM3.95491 19.9389L4.56168 19.4981L3.95491 19.9389ZM20.0451 19.9389L19.4383 19.4981L20.0451 19.9389ZM18.9389 21.0451L18.4981 20.4383L18.9389 21.0451ZM18.9389 2.95491L19.3798 2.34815L18.9389 2.95491ZM20.0451 4.06107L19.4383 4.50191L20.0451 4.06107ZM5.06107 2.95491L5.50191 3.56168L5.06107 2.95491ZM3.95491 4.06107L4.56168 4.50191L3.95491 4.06107ZM13.1461 6.59531L13.2635 7.33608L13.1461 6.59531ZM11.5818 6.59531L11.4645 7.33608L11.5818 6.59531ZM8 10.75H16V9.25H8V10.75ZM8 14.75H16V13.25H8V14.75ZM13 18.75H16V17.25H13V18.75ZM20.25 11V13H21.75V11H20.25ZM3.75 13V11H2.25V13H3.75ZM12 21.25C10.1084 21.25 8.74999 21.249 7.69804 21.135C6.66013 21.0225 6.00992 20.8074 5.50191 20.4383L4.62023 21.6518C5.42656 22.2377 6.37094 22.5 7.53648 22.6263C8.68798 22.751 10.1418 22.75 12 22.75V21.25ZM2.25 13C2.25 14.8582 2.24897 16.312 2.37373 17.4635C2.50001 18.6291 2.76232 19.5734 3.34815 20.3798L4.56168 19.4981C4.19259 18.9901 3.97745 18.3399 3.865 17.302C3.75103 16.25 3.75 14.8916 3.75 13H2.25ZM5.50191 20.4383C5.14111 20.1762 4.82382 19.8589 4.56168 19.4981L3.34815 20.3798C3.70281 20.8679 4.13209 21.2972 4.62023 21.6518L5.50191 20.4383ZM20.25 13C20.25 14.8916 20.249 16.25 20.135 17.302C20.0225 18.3399 19.8074 18.9901 19.4383 19.4981L20.6518 20.3798C21.2377 19.5734 21.5 18.6291 21.6263 17.4635C21.751 16.312 21.75 14.8582 21.75 13H20.25ZM12 22.75C13.8582 22.75 15.312 22.751 16.4635 22.6263C17.6291 22.5 18.5734 22.2377 19.3798 21.6518L18.4981 20.4383C17.9901 20.8074 17.3399 21.0225 16.302 21.135C15.25 21.249 13.8916 21.25 12 21.25V22.75ZM19.4383 19.4981C19.1762 19.8589 18.8589 20.1762 18.4981 20.4383L19.3798 21.6518C19.8679 21.2972 20.2972 20.8679 20.6518 20.3798L19.4383 19.4981ZM21.75 11C21.75 9.14184 21.751 7.68798 21.6263 6.53648C21.5 5.37094 21.2377 4.42656 20.6518 3.62023L19.4383 4.50191C19.8074 5.00992 20.0225 5.66013 20.135 6.69804C20.249 7.74999 20.25 9.10843 20.25 11H21.75ZM18.4981 3.56168C18.8589 3.82382 19.1762 4.14111 19.4383 4.50191L20.6518 3.62023C20.2972 3.13209 19.8679 2.70281 19.3798 2.34815L18.4981 3.56168ZM3.75 11C3.75 9.10843 3.75103 7.74999 3.865 6.69804C3.97745 5.66013 4.19259 5.00992 4.56168 4.50191L3.34815 3.62023C2.76232 4.42656 2.50001 5.37094 2.37373 6.53648C2.24897 7.68798 2.25 9.14184 2.25 11H3.75ZM4.62023 2.34815C4.13209 2.70281 3.70281 3.13209 3.34815 3.62023L4.56168 4.50191C4.82382 4.14111 5.14111 3.82382 5.50191 3.56168L4.62023 2.34815ZM13.0288 5.85454C12.5883 5.92431 12.1396 5.92431 11.6991 5.85454L11.4645 7.33608C12.0604 7.43047 12.6675 7.43047 13.2635 7.33608L13.0288 5.85454ZM17.9103 2.12083C16.6701 3.36015 15.7663 4.25006 14.9856 4.8649C14.2161 5.47095 13.6262 5.75993 13.0288 5.85454L13.2635 7.33608C14.2116 7.1859 15.0379 6.73301 15.9137 6.04333C16.7783 5.36245 17.7488 4.40277 18.9706 3.18187L17.9103 2.12083ZM12 2.75C13.6617 2.75 14.9149 2.75053 15.9149 2.82911C16.9124 2.9075 17.5844 3.05963 18.1028 3.32103L18.7782 1.98168C18.0049 1.59173 17.107 1.41817 16.0324 1.33372C14.9603 1.24947 13.6391 1.25 12 1.25V2.75ZM18.1028 3.32103C18.2431 3.3918 18.374 3.4715 18.4981 3.56168L19.3798 2.34815C19.1892 2.20967 18.9892 2.08809 18.7782 1.98168L18.1028 3.32103ZM5.5419 2.96653C6.83246 4.25703 7.84545 5.26842 8.73841 5.98311C9.64243 6.70666 10.489 7.18158 11.4645 7.33608L11.6991 5.85454C11.0846 5.75721 10.4781 5.45425 9.67572 4.81202C8.86225 4.16095 7.91543 3.21868 6.60254 1.90585L5.5419 2.96653ZM12 1.25C10.5637 1.25 9.37369 1.24973 8.38484 1.30572C7.39671 1.36167 6.55633 1.47576 5.82759 1.7272L6.31685 3.14517C6.85227 2.96043 7.53187 2.85642 8.46964 2.80332C9.40668 2.75027 10.5485 2.75 12 2.75V1.25ZM5.82759 1.7272C5.38699 1.87923 4.98789 2.08103 4.62023 2.34815L5.50191 3.56168C5.73848 3.3898 6.00284 3.25352 6.31685 3.14517L5.82759 1.7272Z" fill="#FAFAFA"/>
</svg>
