<svg width="24" height="24" viewBox="0 0 24 24" fill="none" xmlns="http://www.w3.org/2000/svg">
<path d="M19.2178 8.93844L19.1005 9.67921H19.1005L19.2178 8.93844ZM15.0616 4.78217L14.3208 4.8995V4.8995L15.0616 4.78217ZM5.06107 20.0451L5.50191 19.4383L5.06107 20.0451ZM3.95491 18.9389L4.56168 18.4981L3.95491 18.9389ZM20.0451 18.9389L19.4383 18.4981L20.0451 18.9389ZM18.9389 20.0451L18.4981 19.4383L18.9389 20.0451ZM18.9389 3.95491L19.3798 3.34815L18.9389 3.95491ZM20.0451 5.06107L20.6518 4.62023L20.0451 5.06107ZM5.06107 3.95491L5.50191 4.56168L5.06107 3.95491ZM3.95491 5.06107L4.56168 5.50191L3.95491 5.06107ZM15 3.02893L15.0257 2.27937L15 3.02893ZM20.9711 9L21.7206 8.97432L20.9711 9ZM8 15.25C7.58579 15.25 7.25 15.5858 7.25 16C7.25 16.4142 7.58579 16.75 8 16.75V15.25ZM11 16.75C11.4142 16.75 11.75 16.4142 11.75 16C11.75 15.5858 11.4142 15.25 11 15.25V16.75ZM8 11.25C7.58579 11.25 7.25 11.5858 7.25 12C7.25 12.4142 7.58579 12.75 8 12.75V11.25ZM16 12.75C16.4142 12.75 16.75 12.4142 16.75 12C16.75 11.5858 16.4142 11.25 16 11.25V12.75ZM8 7.25C7.58579 7.25 7.25 7.58579 7.25 8C7.25 8.41421 7.58579 8.75 8 8.75V7.25ZM11 8.75C11.4142 8.75 11.75 8.41421 11.75 8C11.75 7.58579 11.4142 7.25 11 7.25V8.75ZM19.3352 8.19768C17.5166 7.90965 16.0904 6.48339 15.8023 4.66485L14.3208 4.8995C14.7105 7.35988 16.6401 9.28952 19.1005 9.67921L19.3352 8.19768ZM12 20.25C10.1084 20.25 8.74999 20.249 7.69804 20.135C6.66013 20.0225 6.00992 19.8074 5.50191 19.4383L4.62023 20.6518C5.42656 21.2377 6.37094 21.5 7.53648 21.6263C8.68798 21.751 10.1418 21.75 12 21.75V20.25ZM2.25 12C2.25 13.8582 2.24897 15.312 2.37373 16.4635C2.50001 17.6291 2.76232 18.5734 3.34815 19.3798L4.56168 18.4981C4.19259 17.9901 3.97745 17.3399 3.865 16.302C3.75103 15.25 3.75 13.8916 3.75 12H2.25ZM5.50191 19.4383C5.14111 19.1762 4.82382 18.8589 4.56168 18.4981L3.34815 19.3798C3.70281 19.8679 4.13209 20.2972 4.62023 20.6518L5.50191 19.4383ZM20.25 12C20.25 13.8916 20.249 15.25 20.135 16.302C20.0225 17.3399 19.8074 17.9901 19.4383 18.4981L20.6518 19.3798C21.2377 18.5734 21.5 17.6291 21.6263 16.4635C21.751 15.312 21.75 13.8582 21.75 12H20.25ZM12 21.75C13.8582 21.75 15.312 21.751 16.4635 21.6263C17.6291 21.5 18.5734 21.2377 19.3798 20.6518L18.4981 19.4383C17.9901 19.8074 17.3399 20.0225 16.302 20.135C15.25 20.249 13.8916 20.25 12 20.25V21.75ZM19.4383 18.4981C19.1762 18.8589 18.8589 19.1762 18.4981 19.4383L19.3798 20.6518C19.8679 20.2972 20.2972 19.8679 20.6518 19.3798L19.4383 18.4981ZM18.4981 4.56168C18.8589 4.82382 19.1762 5.14111 19.4383 5.50191L20.6518 4.62023C20.2972 4.13209 19.8679 3.70281 19.3798 3.34815L18.4981 4.56168ZM12 2.25C10.1418 2.25 8.68798 2.24897 7.53648 2.37373C6.37094 2.50001 5.42656 2.76232 4.62023 3.34815L5.50191 4.56168C6.00992 4.19259 6.66013 3.97745 7.69804 3.865C8.74999 3.75103 10.1084 3.75 12 3.75V2.25ZM3.75 12C3.75 10.1084 3.75103 8.74999 3.865 7.69804C3.97745 6.66013 4.19259 6.00992 4.56168 5.50191L3.34815 4.62023C2.76232 5.42656 2.50001 6.37094 2.37373 7.53648C2.24897 8.68798 2.25 10.1418 2.25 12H3.75ZM4.62023 3.34815C4.13209 3.70281 3.70281 4.13209 3.34815 4.62023L4.56168 5.50191C4.82382 5.14111 5.14111 4.82382 5.50191 4.56168L4.62023 3.34815ZM12 3.75C13.1731 3.75 14.1456 3.75009 14.9743 3.77849L15.0257 2.27937C14.1658 2.24991 13.1648 2.25 12 2.25V3.75ZM14.9743 3.77849C16.8292 3.84204 17.7925 4.04907 18.4981 4.56168L19.3798 3.34815C18.2761 2.5463 16.8991 2.34355 15.0257 2.27937L14.9743 3.77849ZM14.25 3.02893C14.25 3.91121 14.2484 4.44215 14.3208 4.8995L15.8023 4.66485C15.7529 4.35298 15.75 3.96617 15.75 3.02892L14.25 3.02893ZM21.75 12C21.75 10.8352 21.7501 9.83424 21.7206 8.97432L20.2215 9.02568C20.2499 9.85445 20.25 10.8269 20.25 12H21.75ZM21.7206 8.97432C21.6564 7.10087 21.4537 5.7239 20.6518 4.62023L19.4383 5.50191C19.9509 6.20746 20.158 7.17075 20.2215 9.02568L21.7206 8.97432ZM20.9711 8.25C20.0338 8.24999 19.647 8.24707 19.3352 8.19768L19.1005 9.67921C19.5579 9.75165 20.0888 9.74999 20.9711 9.75L20.9711 8.25ZM8 16.75H11V15.25H8V16.75ZM8 12.75H16V11.25H8V12.75ZM8 8.75H11V7.25H8V8.75Z" fill="#FAFAFA"/>
</svg>
