<svg width="24" height="24" viewBox="0 0 24 24" fill="none" xmlns="http://www.w3.org/2000/svg">
<path d="M19.2178 7.93844L19.1005 8.67921H19.1005L19.2178 7.93844ZM15.0616 3.78217L14.3208 3.8995V3.8995L15.0616 3.78217ZM5.06107 21.0451L5.50191 20.4383L5.06107 21.0451ZM3.95491 19.9389L4.56168 19.4981L3.95491 19.9389ZM20.0451 19.9389L19.4383 19.4981L20.0451 19.9389ZM18.9389 21.0451L18.4981 20.4383L18.9389 21.0451ZM18.9389 2.95491L19.3798 2.34815L18.9389 2.95491ZM20.0451 4.06107L20.6518 3.62023L20.0451 4.06107ZM5.06107 2.95491L5.50191 3.56168L5.06107 2.95491ZM3.95491 4.06107L4.56168 4.50191L3.95491 4.06107ZM15 2.02893L15.0257 1.27937L15 2.02893ZM20.9711 8L21.7206 7.97432L20.9711 8ZM11.25 17C11.25 17.4142 11.5858 17.75 12 17.75C12.4142 17.75 12.75 17.4142 12.75 17H11.25ZM7.46731 11.672C7.17573 11.9662 7.17784 12.4411 7.47204 12.7327C7.76624 13.0243 8.24111 13.0222 8.53269 12.728L7.46731 11.672ZM9.39785 10.7896L9.93054 11.3176H9.93054L9.39785 10.7896ZM14.6022 10.7896L14.0695 11.3176L14.6022 10.7896ZM15.4673 12.728C15.7589 13.0222 16.2338 13.0243 16.528 12.7327C16.8222 12.4411 16.8243 11.9662 16.5327 11.672L15.4673 12.728ZM11.7493 9.01591L11.6545 8.27193H11.6545L11.7493 9.01591ZM12.2507 9.01591L12.3455 8.27193H12.3455L12.2507 9.01591ZM12 9V8.25V9ZM19.3352 7.19768C17.5166 6.90965 16.0904 5.48339 15.8023 3.66485L14.3208 3.8995C14.7105 6.35988 16.6401 8.28952 19.1005 8.67921L19.3352 7.19768ZM20.25 11V13H21.75V11H20.25ZM3.75 13V11H2.25V13H3.75ZM12 21.25C10.1084 21.25 8.74999 21.249 7.69804 21.135C6.66013 21.0225 6.00992 20.8074 5.50191 20.4383L4.62023 21.6518C5.42656 22.2377 6.37094 22.5 7.53648 22.6263C8.68798 22.751 10.1418 22.75 12 22.75V21.25ZM2.25 13C2.25 14.8582 2.24897 16.312 2.37373 17.4635C2.50001 18.6291 2.76232 19.5734 3.34815 20.3798L4.56168 19.4981C4.19259 18.9901 3.97745 18.3399 3.865 17.302C3.75103 16.25 3.75 14.8916 3.75 13H2.25ZM5.50191 20.4383C5.14111 20.1762 4.82382 19.8589 4.56168 19.4981L3.34815 20.3798C3.70281 20.8679 4.13209 21.2972 4.62023 21.6518L5.50191 20.4383ZM20.25 13C20.25 14.8916 20.249 16.25 20.135 17.302C20.0225 18.3399 19.8074 18.9901 19.4383 19.4981L20.6518 20.3798C21.2377 19.5734 21.5 18.6291 21.6263 17.4635C21.751 16.312 21.75 14.8582 21.75 13H20.25ZM12 22.75C13.8582 22.75 15.312 22.751 16.4635 22.6263C17.6291 22.5 18.5734 22.2377 19.3798 21.6518L18.4981 20.4383C17.9901 20.8074 17.3399 21.0225 16.302 21.135C15.25 21.249 13.8916 21.25 12 21.25V22.75ZM19.4383 19.4981C19.1762 19.8589 18.8589 20.1762 18.4981 20.4383L19.3798 21.6518C19.8679 21.2972 20.2972 20.8679 20.6518 20.3798L19.4383 19.4981ZM18.4981 3.56168C18.8589 3.82382 19.1762 4.14111 19.4383 4.50191L20.6518 3.62023C20.2972 3.13209 19.8679 2.70281 19.3798 2.34815L18.4981 3.56168ZM12 1.25C10.1418 1.25 8.68798 1.24897 7.53648 1.37373C6.37094 1.50001 5.42656 1.76232 4.62023 2.34815L5.50191 3.56168C6.00992 3.19259 6.66013 2.97745 7.69804 2.865C8.74999 2.75103 10.1084 2.75 12 2.75V1.25ZM3.75 11C3.75 9.10843 3.75103 7.74999 3.865 6.69804C3.97745 5.66013 4.19259 5.00992 4.56168 4.50191L3.34815 3.62023C2.76232 4.42656 2.50001 5.37094 2.37373 6.53648C2.24897 7.68798 2.25 9.14184 2.25 11H3.75ZM4.62023 2.34815C4.13209 2.70281 3.70281 3.13209 3.34815 3.62023L4.56168 4.50191C4.82382 4.14111 5.14111 3.82382 5.50191 3.56168L4.62023 2.34815ZM12 2.75C13.1731 2.75 14.1456 2.75009 14.9743 2.77849L15.0257 1.27937C14.1658 1.24991 13.1648 1.25 12 1.25V2.75ZM14.9743 2.77849C16.8292 2.84204 17.7925 3.04907 18.4981 3.56168L19.3798 2.34815C18.2761 1.5463 16.8991 1.34355 15.0257 1.27937L14.9743 2.77849ZM14.25 2.02893C14.25 2.91121 14.2484 3.44215 14.3208 3.8995L15.8023 3.66485C15.7529 3.35298 15.75 2.96617 15.75 2.02892L14.25 2.02893ZM21.75 11C21.75 9.83522 21.7501 8.83424 21.7206 7.97432L20.2215 8.02568C20.2499 8.85445 20.25 9.82692 20.25 11H21.75ZM21.7206 7.97432C21.6564 6.10087 21.4537 4.7239 20.6518 3.62023L19.4383 4.50191C19.9509 5.20746 20.158 6.17075 20.2215 8.02568L21.7206 7.97432ZM20.9711 7.25C20.0338 7.24999 19.647 7.24707 19.3352 7.19768L19.1005 8.67921C19.5579 8.75165 20.0888 8.74999 20.9711 8.75L20.9711 7.25ZM12.75 17V9.8H11.25V17H12.75ZM8.53269 12.728L9.93054 11.3176L8.86516 10.2617L7.46731 11.672L8.53269 12.728ZM14.0695 11.3176L15.4673 12.728L16.5327 11.672L15.1348 10.2617L14.0695 11.3176ZM9.93054 11.3176C10.5003 10.7427 10.8839 10.3573 11.2065 10.0982C11.5173 9.84863 11.698 9.77852 11.8442 9.75989L11.6545 8.27193C11.1213 8.33989 10.6837 8.59426 10.2672 8.92869C9.86265 9.25361 9.41012 9.71182 8.86516 10.2617L9.93054 11.3176ZM15.1348 10.2617C14.5899 9.71182 14.1373 9.25362 13.7328 8.92869C13.3163 8.59427 12.8787 8.33989 12.3455 8.27193L12.1558 9.75989C12.302 9.77852 12.4827 9.84863 12.7935 10.0982C13.1161 10.3573 13.4997 10.7427 14.0695 11.3176L15.1348 10.2617ZM11.8442 9.75989C11.8959 9.7533 11.948 9.75 12 9.75V8.25C11.8846 8.25 11.7692 8.25731 11.6545 8.27193L11.8442 9.75989ZM12 9.75C12.052 9.75 12.1041 9.7533 12.1558 9.75989L12.3455 8.27193C12.2308 8.25731 12.1154 8.25 12 8.25V9.75ZM12.75 9.8V9H11.25V9.8H12.75Z" fill="#FAFAFA"/>
</svg>
