<svg width="24" height="24" viewBox="0 0 24 24" fill="none" xmlns="http://www.w3.org/2000/svg">
<path d="M11.5312 19.0199L11.2583 18.3213L11.5312 19.0199ZM7.47478 19.7988L7.09978 20.4483L7.09978 20.4483L7.47478 19.7988ZM6.12116 15.8964L5.37971 16.0093L6.12116 15.8964ZM6.61146 13.2941L7.26098 13.6691L6.61146 13.2941ZM6.02731 14.5314L5.29028 14.3925H5.29028L6.02731 14.5314ZM13.5397 17.2941L14.1892 17.6691L13.5397 17.2941ZM12.7602 18.4186L13.249 18.9875H13.249L12.7602 18.4186ZM10.4099 6.71503L9.76038 6.34003L10.4099 6.71503ZM16.6886 10.34L12.8901 16.9191L14.1892 17.6691L17.9876 11.09L16.6886 10.34ZM7.26098 13.6691L11.0594 7.09003L9.76038 6.34003L5.96194 12.9191L7.26098 13.6691ZM11.2583 18.3213C10.1618 18.7497 9.41502 19.0394 8.83854 19.1741C8.28167 19.3042 8.02898 19.2527 7.84978 19.1493L7.09978 20.4483C7.75305 20.8255 8.45392 20.8044 9.17981 20.6348C9.88609 20.4698 10.7513 20.1298 11.8041 19.7184L11.2583 18.3213ZM5.37971 16.0093C5.5499 17.1267 5.68805 18.046 5.89829 18.7402C6.11436 19.4536 6.44651 20.0712 7.09978 20.4483L7.84978 19.1493C7.67059 19.0458 7.49965 18.8527 7.33389 18.3054C7.16229 17.7388 7.03986 16.9472 6.86261 15.7835L5.37971 16.0093ZM5.96194 12.9191C5.64012 13.4765 5.38246 13.9033 5.29028 14.3925L6.76434 14.6702C6.7983 14.49 6.88802 14.3151 7.26098 13.6691L5.96194 12.9191ZM6.86261 15.7835C6.7503 15.046 6.73039 14.8505 6.76434 14.6702L5.29028 14.3925C5.1981 14.8817 5.2828 15.373 5.37971 16.0093L6.86261 15.7835ZM12.8901 16.9191C12.5172 17.5651 12.4105 17.7303 12.2715 17.8498L13.249 18.9875C13.6266 18.6631 13.8674 18.2265 14.1892 17.6691L12.8901 16.9191ZM11.8041 19.7184C12.4036 19.4842 12.8714 19.3119 13.249 18.9875L12.2715 17.8498C12.1324 17.9693 11.953 18.0498 11.2583 18.3213L11.8041 19.7184ZM15.499 5.90045C16.3339 6.38245 16.8939 6.70761 17.2797 7.00537C17.6483 7.28983 17.7658 7.48144 17.8135 7.65945L19.2623 7.27123C19.0956 6.64904 18.6976 6.20485 18.1961 5.81785C17.7119 5.44416 17.0471 5.06221 16.249 4.60141L15.499 5.90045ZM17.9876 11.09C18.4484 10.2919 18.8331 9.62875 19.0657 9.06299C19.3065 8.47711 19.4291 7.89341 19.2623 7.27123L17.8135 7.65945C17.8612 7.83747 17.8553 8.06212 17.6783 8.49278C17.493 8.94357 17.1706 9.50517 16.6886 10.34L17.9876 11.09ZM16.249 4.60141C15.4509 4.1406 14.7877 3.7559 14.222 3.52337C13.6361 3.28257 13.0524 3.15997 12.4302 3.32668L12.8184 4.77557C12.9964 4.72787 13.2211 4.73376 13.6518 4.91076C14.1025 5.09604 14.6641 5.41844 15.499 5.90045L16.249 4.60141ZM11.0594 7.09003C11.5414 6.25517 11.8666 5.69516 12.1643 5.30931C12.4488 4.9407 12.6404 4.82327 12.8184 4.77557L12.4302 3.32668C11.808 3.49339 11.3638 3.89142 10.9768 4.39291C10.6031 4.87716 10.2212 5.54189 9.76038 6.34003L11.0594 7.09003ZM17.7131 10.0655L10.7849 6.06551L10.0349 7.36455L16.9631 11.3645L17.7131 10.0655Z" fill="#FAFAFA"/>
</svg>
