<svg width="24" height="24" viewBox="0 0 24 24" fill="none" xmlns="http://www.w3.org/2000/svg">
<path d="M9.53118 19.0199L9.25825 18.3213L9.53118 19.0199ZM5.47478 19.7988L5.09978 20.4483L5.09978 20.4483L5.47478 19.7988ZM4.12116 15.8964L3.37971 16.0093L4.12116 15.8964ZM4.61146 13.2941L5.26098 13.6691L4.61146 13.2941ZM4.02731 14.5314L3.29028 14.3925H3.29028L4.02731 14.5314ZM11.5397 17.2941L12.1892 17.6691L11.5397 17.2941ZM10.7602 18.4186L11.249 18.9875H11.249L10.7602 18.4186ZM8.4099 6.71503L7.76038 6.34003L8.4099 6.71503ZM19.4099 21.0009C19.8241 21.0009 20.1599 20.6651 20.1599 20.2509C20.1599 19.8367 19.8241 19.5009 19.4099 19.5009V21.0009ZM13.4099 19.5009C12.9957 19.5009 12.6599 19.8367 12.6599 20.2509C12.6599 20.6651 12.9957 21.0009 13.4099 21.0009V19.5009ZM14.6886 10.34L10.8901 16.9191L12.1892 17.6691L15.9876 11.09L14.6886 10.34ZM5.26098 13.6691L9.05942 7.09003L7.76038 6.34003L3.96194 12.9191L5.26098 13.6691ZM9.25825 18.3213C8.16178 18.7497 7.41502 19.0394 6.83854 19.1741C6.28167 19.3042 6.02898 19.2527 5.84978 19.1493L5.09978 20.4483C5.75305 20.8255 6.45392 20.8044 7.17981 20.6348C7.88609 20.4698 8.75129 20.1298 9.80411 19.7184L9.25825 18.3213ZM3.37971 16.0093C3.5499 17.1267 3.68805 18.046 3.89829 18.7402C4.11436 19.4536 4.44651 20.0712 5.09978 20.4483L5.84978 19.1493C5.67059 19.0458 5.49965 18.8527 5.33389 18.3054C5.16229 17.7388 5.03986 16.9472 4.86261 15.7835L3.37971 16.0093ZM3.96194 12.9191C3.64012 13.4765 3.38246 13.9033 3.29028 14.3925L4.76434 14.6702C4.7983 14.49 4.88802 14.3151 5.26098 13.6691L3.96194 12.9191ZM4.86261 15.7835C4.7503 15.046 4.73039 14.8505 4.76434 14.6702L3.29028 14.3925C3.1981 14.8817 3.2828 15.373 3.37971 16.0093L4.86261 15.7835ZM10.8901 16.9191C10.5172 17.5651 10.4105 17.7303 10.2715 17.8498L11.249 18.9875C11.6266 18.6631 11.8674 18.2265 12.1892 17.6691L10.8901 16.9191ZM9.80411 19.7184C10.4036 19.4842 10.8714 19.3119 11.249 18.9875L10.2715 17.8498C10.1324 17.9693 9.95303 18.0498 9.25825 18.3213L9.80411 19.7184ZM13.499 5.90045C14.3339 6.38245 14.8939 6.70761 15.2797 7.00537C15.6483 7.28983 15.7658 7.48144 15.8135 7.65945L17.2623 7.27123C17.0956 6.64904 16.6976 6.20485 16.1961 5.81785C15.7119 5.44416 15.0471 5.06221 14.249 4.60141L13.499 5.90045ZM15.9876 11.09C16.4484 10.2919 16.8331 9.62875 17.0657 9.06299C17.3065 8.47711 17.4291 7.89341 17.2623 7.27123L15.8135 7.65945C15.8612 7.83747 15.8553 8.06212 15.6783 8.49278C15.493 8.94357 15.1706 9.50517 14.6886 10.34L15.9876 11.09ZM14.249 4.60141C13.4509 4.1406 12.7877 3.7559 12.222 3.52337C11.6361 3.28257 11.0524 3.15997 10.4302 3.32668L10.8184 4.77557C10.9964 4.72787 11.2211 4.73376 11.6518 4.91076C12.1025 5.09604 12.6641 5.41844 13.499 5.90045L14.249 4.60141ZM9.05942 7.09003C9.54142 6.25517 9.86658 5.69516 10.1643 5.30931C10.4488 4.9407 10.6404 4.82327 10.8184 4.77557L10.4302 3.32668C9.80801 3.49339 9.36382 3.89142 8.97683 4.39291C8.60313 4.87716 8.22118 5.54189 7.76038 6.34003L9.05942 7.09003ZM15.7131 10.0655L8.7849 6.06551L8.0349 7.36455L14.9631 11.3645L15.7131 10.0655ZM19.4099 19.5009H13.4099V21.0009H19.4099V19.5009Z" fill="#FAFAFA"/>
</svg>
