<svg width="24" height="24" viewBox="0 0 24 24" fill="none" xmlns="http://www.w3.org/2000/svg">
<path d="M6.45492 20.7553L6.22315 21.4686H6.22315L6.45492 20.7553ZM3.24472 17.5451L3.95801 17.3133H3.95801L3.24472 17.5451ZM20.7553 17.5451L21.4686 17.7768L20.7553 17.5451ZM17.5451 20.7553L17.7768 21.4686H17.7768L17.5451 20.7553ZM12.6002 7.00325L12.5961 7.75324H12.5961L12.6002 7.00325ZM17.5451 7.24472L17.7768 6.53143L17.5451 7.24472ZM20.7553 10.4549L21.4686 10.2232V10.2232L20.7553 10.4549ZM8.9414 3.42442L8.57119 4.07668V4.07668L8.9414 3.42442ZM10.6399 5.42621L9.94561 5.7099L9.94564 5.70997L10.6399 5.42621ZM3.82344 3.16977L3.45324 2.5175L3.45324 2.5175L3.82344 3.16977ZM3.14405 3.97048L2.44977 3.6868L3.14405 3.97048ZM10.6493 5.44925L9.95505 5.73301L9.95506 5.73303L10.6493 5.44925ZM9 13.25C8.58579 13.25 8.25 13.5858 8.25 14C8.25 14.4142 8.58579 14.75 9 14.75V13.25ZM15 14.75C15.4142 14.75 15.75 14.4142 15.75 14C15.75 13.5858 15.4142 13.25 15 13.25V14.75ZM14 20.25H10V21.75H14V20.25ZM10 20.25C8.08034 20.25 7.29839 20.2407 6.68668 20.042L6.22315 21.4686C7.11777 21.7593 8.19709 21.75 10 21.75V20.25ZM2.25 12C2.25 12.9285 2.24994 14.1375 2.2809 15.2097C2.29637 15.7455 2.31981 16.256 2.35587 16.6854C2.39001 17.0919 2.44027 17.4963 2.53143 17.7768L3.95801 17.3133C3.9268 17.2173 3.8853 16.9729 3.85061 16.5599C3.81785 16.1698 3.7954 15.6901 3.78028 15.1664C3.75006 14.1197 3.75 12.9328 3.75 12H2.25ZM6.68668 20.042C5.39282 19.6216 4.37841 18.6072 3.95801 17.3133L2.53142 17.7768C3.1002 19.5274 4.47263 20.8998 6.22315 21.4686L6.68668 20.042ZM20.25 14C20.25 15.9197 20.2407 16.7016 20.042 17.3133L21.4686 17.7768C21.7593 16.8822 21.75 15.8029 21.75 14H20.25ZM14 21.75C15.8029 21.75 16.8822 21.7593 17.7768 21.4686L17.3133 20.042C16.7016 20.2407 15.9197 20.25 14 20.25V21.75ZM20.042 17.3133C19.6216 18.6072 18.6072 19.6216 17.3133 20.042L17.7768 21.4686C19.5274 20.8998 20.8998 19.5274 21.4686 17.7768L20.042 17.3133ZM12.5961 7.75324C13.566 7.75846 14.6485 7.77209 15.557 7.8073C16.0119 7.82493 16.4155 7.84769 16.7359 7.87662C17.0808 7.90776 17.2605 7.94084 17.3133 7.95801L17.7768 6.53143C17.5423 6.4552 17.2032 6.41271 16.8707 6.3827C16.5138 6.35047 16.0816 6.32651 15.6151 6.30843C14.681 6.27222 13.5784 6.2585 12.6042 6.25326L12.5961 7.75324ZM21.75 14C21.75 12.1971 21.7593 11.1178 21.4686 10.2232L20.042 10.6867C20.2407 11.2984 20.25 12.0803 20.25 14H21.75ZM17.3133 7.95801C18.6072 8.37841 19.6216 9.39282 20.042 10.6867L21.4686 10.2232C20.8998 8.47263 19.5274 7.1002 17.7768 6.53143L17.3133 7.95801ZM3.75 12V5.69388H2.25V12H3.75ZM5.28571 3.75C6.26886 3.75 6.95564 3.75073 7.49157 3.79991C8.01543 3.84799 8.32655 3.93784 8.57119 4.07668L9.3116 2.77216C8.80845 2.48658 8.26103 2.36422 7.62865 2.30619C7.00833 2.24927 6.24117 2.25 5.28571 2.25V3.75ZM8.57119 4.07668C9.15129 4.40593 9.64458 4.97318 9.94561 5.7099L11.3342 5.14252C10.9203 4.12975 10.2159 3.28542 9.3116 2.77216L8.57119 4.07668ZM5.28571 2.25C4.91184 2.25 4.58086 2.24927 4.30742 2.27436C4.02191 2.30056 3.73205 2.35926 3.45324 2.5175L4.19365 3.82203C4.21395 3.81051 4.26751 3.78432 4.44449 3.76808C4.63355 3.75073 4.88415 3.75 5.28571 3.75V2.25ZM3.75 5.69388C3.75 5.22692 3.75038 4.91317 3.76637 4.6711C3.78201 4.4345 3.81005 4.32337 3.83832 4.25417L2.44977 3.6868C2.334 3.97012 2.29002 4.26374 2.26964 4.57222C2.24962 4.87524 2.25 5.24692 2.25 5.69388H3.75ZM3.45324 2.5175C2.99425 2.77801 2.64914 3.19887 2.44977 3.6868L3.83832 4.25417C3.9249 4.0423 4.05887 3.89853 4.19365 3.82203L3.45324 2.5175ZM11.3436 5.16549L11.3341 5.14246L9.94564 5.70997L9.95505 5.73301L11.3436 5.16549ZM12.6042 6.25326C12.1339 6.25073 11.6232 5.84961 11.3435 5.16547L9.95506 5.73303C10.3539 6.70874 11.2733 7.74611 12.5961 7.75324L12.6042 6.25326ZM9 14.75H15V13.25H9V14.75Z" fill="#FAFAFA"/>
</svg>
