<svg width="24" height="24" viewBox="0 0 24 24" fill="none" xmlns="http://www.w3.org/2000/svg">
<path d="M9 12.25C8.58579 12.25 8.25 12.5858 8.25 13C8.25 13.4142 8.58579 13.75 9 13.75V12.25ZM15 13.75C15.4142 13.75 15.75 13.4142 15.75 13C15.75 12.5858 15.4142 12.25 15 12.25V13.75ZM11.25 16C11.25 16.4142 11.5858 16.75 12 16.75C12.4142 16.75 12.75 16.4142 12.75 16H11.25ZM12.75 10C12.75 9.58579 12.4142 9.25 12 9.25C11.5858 9.25 11.25 9.58579 11.25 10H12.75ZM5.06107 21.0451L5.50191 20.4383L5.06107 21.0451ZM3.95491 19.9389L4.56168 19.4981L3.95491 19.9389ZM20.0451 19.9389L19.4383 19.4981L20.0451 19.9389ZM18.9389 21.0451L18.4981 20.4383L18.9389 21.0451ZM18.9389 4.95491L18.4981 5.56168L18.9389 4.95491ZM20.0451 6.06107L19.4383 6.50191L20.0451 6.06107ZM5.06107 4.95491L5.50191 5.56168H5.50191L5.06107 4.95491ZM3.95491 6.06107L4.56168 6.50191L3.95491 6.06107ZM15.5451 1.24472L15.3134 1.95801L15.5451 1.24472ZM18.7553 4.45492L18.042 4.68668V4.68668L18.7553 4.45492ZM8.45497 1.24472L8.68673 1.95801L8.45497 1.24472ZM5.24477 4.45492L5.95806 4.68668L5.24477 4.45492ZM9 13.75H15V12.25H9V13.75ZM12.75 16V10H11.25V16H12.75ZM12 21.25C10.1084 21.25 8.74999 21.249 7.69804 21.135C6.66013 21.0225 6.00992 20.8074 5.50191 20.4383L4.62023 21.6518C5.42656 22.2377 6.37094 22.5 7.53648 22.6263C8.68798 22.751 10.1418 22.75 12 22.75V21.25ZM2.25 13C2.25 14.8582 2.24897 16.312 2.37373 17.4635C2.50001 18.6291 2.76232 19.5734 3.34815 20.3798L4.56168 19.4981C4.19259 18.9901 3.97745 18.3399 3.865 17.302C3.75103 16.25 3.75 14.8916 3.75 13H2.25ZM5.50191 20.4383C5.14111 20.1762 4.82382 19.8589 4.56168 19.4981L3.34815 20.3798C3.70281 20.8679 4.13209 21.2972 4.62023 21.6518L5.50191 20.4383ZM20.25 13C20.25 14.8916 20.249 16.25 20.135 17.302C20.0225 18.3399 19.8074 18.9901 19.4383 19.4981L20.6518 20.3798C21.2377 19.5734 21.5 18.6291 21.6263 17.4635C21.751 16.312 21.75 14.8582 21.75 13H20.25ZM12 22.75C13.8582 22.75 15.312 22.751 16.4635 22.6263C17.6291 22.5 18.5734 22.2377 19.3798 21.6518L18.4981 20.4383C17.9901 20.8074 17.3399 21.0225 16.302 21.135C15.25 21.249 13.8916 21.25 12 21.25V22.75ZM19.4383 19.4981C19.1762 19.8589 18.8589 20.1762 18.4981 20.4383L19.3798 21.6518C19.8679 21.2972 20.2972 20.8679 20.6518 20.3798L19.4383 19.4981ZM21.75 13C21.75 11.1418 21.751 9.68798 21.6263 8.53648C21.5 7.37094 21.2377 6.42656 20.6518 5.62023L19.4383 6.50191C19.8074 7.00992 20.0225 7.66013 20.135 8.69804C20.249 9.74999 20.25 11.1084 20.25 13H21.75ZM18.4981 5.56168C18.8589 5.82382 19.1762 6.14111 19.4383 6.50191L20.6518 5.62023C20.2972 5.13209 19.8679 4.70281 19.3798 4.34815L18.4981 5.56168ZM3.75 13C3.75 11.1084 3.75103 9.74999 3.865 8.69804C3.97745 7.66013 4.19259 7.00992 4.56168 6.50191L3.34815 5.62023C2.76232 6.42656 2.50001 7.37094 2.37373 8.53648C2.24897 9.68798 2.25 11.1418 2.25 13H3.75ZM4.62023 4.34815C4.13209 4.70281 3.70281 5.13209 3.34815 5.62023L4.56168 6.50191C4.82382 6.14111 5.14111 5.82382 5.50191 5.56168L4.62023 4.34815ZM12.0001 1.75C13.9197 1.75 14.7017 1.75925 15.3134 1.95801L15.7769 0.531425C14.8823 0.240747 13.803 0.25 12.0001 0.25V1.75ZM15.3134 1.95801C16.6072 2.37841 17.6216 3.39282 18.042 4.68668L19.4686 4.22315C18.8998 2.47263 17.5274 1.1002 15.7769 0.531425L15.3134 1.95801ZM12.0001 0.25C10.1971 0.25 9.11782 0.240747 8.22321 0.531425L8.68673 1.95801C9.29844 1.75925 10.0804 1.75 12.0001 1.75V0.25ZM8.22321 0.531425C6.47269 1.1002 5.10026 2.47263 4.53148 4.22315L5.95806 4.68668C6.37846 3.39282 7.39287 2.37841 8.68673 1.95801L8.22321 0.531425ZM5.86748 5.04567C5.89261 4.91348 5.9226 4.79583 5.95806 4.68668L4.53148 4.22315C4.47453 4.39842 4.42955 4.57785 4.39387 4.76553L5.86748 5.04567ZM12 3.25C10.1738 3.25 8.73872 3.24906 7.59818 3.36719C6.44603 3.48652 5.50714 3.73401 4.70441 4.28851L5.55694 5.52269C6.0652 5.17159 6.71896 4.96628 7.75271 4.85921C8.79808 4.75094 10.1422 4.75 12 4.75V3.25ZM4.70441 4.28851C4.67613 4.30805 4.64807 4.32793 4.62023 4.34815L5.50191 5.56168C5.52013 5.54844 5.53847 5.53545 5.55694 5.52269L4.70441 4.28851ZM19.6063 4.76563C19.5706 4.57791 19.5256 4.39845 19.4686 4.22315L18.042 4.68668C18.0775 4.79585 18.1075 4.91352 18.1326 5.04574L19.6063 4.76563ZM12 4.75C13.8579 4.75 15.202 4.75094 16.2474 4.85922C17.2811 4.9663 17.9349 5.17163 18.4432 5.52275L19.2957 4.28862C18.493 3.73405 17.5541 3.48655 16.4019 3.3672C15.2614 3.24906 13.8263 3.25 12 3.25V4.75ZM18.4432 5.52275C18.4616 5.53549 18.4799 5.54846 18.4981 5.56168L19.3798 4.34815C19.352 4.32797 19.324 4.30812 19.2957 4.28862L18.4432 5.52275Z" fill="#FAFAFA"/>
</svg>
