<svg width="24" height="24" viewBox="0 0 24 24" fill="none" xmlns="http://www.w3.org/2000/svg">
<path d="M5.06107 20.0451L5.50191 19.4383L5.06107 20.0451ZM3.95491 18.9389L4.56168 18.4981L3.95491 18.9389ZM20.0451 18.9389L19.4383 18.4981L20.0451 18.9389ZM18.9389 20.0451L18.4981 19.4383L18.9389 20.0451ZM18.9389 3.95491L18.4981 4.56168L18.9389 3.95491ZM20.0451 5.06107L19.4383 5.50191L20.0451 5.06107ZM5.06107 3.95491L5.50191 4.56168L5.06107 3.95491ZM3.95491 5.06107L4.56168 5.50191L3.95491 5.06107ZM13.1109 12V12.75V12ZM12 20.25C10.1084 20.25 8.74999 20.249 7.69804 20.135C6.66013 20.0225 6.00992 19.8074 5.50191 19.4383L4.62023 20.6518C5.42656 21.2377 6.37094 21.5 7.53648 21.6263C8.68798 21.751 10.1418 21.75 12 21.75V20.25ZM2.25 12C2.25 13.8582 2.24897 15.312 2.37373 16.4635C2.50001 17.6291 2.76232 18.5734 3.34815 19.3798L4.56168 18.4981C4.19259 17.9901 3.97745 17.3399 3.865 16.302C3.75103 15.25 3.75 13.8916 3.75 12H2.25ZM5.50191 19.4383C5.14111 19.1762 4.82382 18.8589 4.56168 18.4981L3.34815 19.3798C3.70281 19.8679 4.13209 20.2972 4.62023 20.6518L5.50191 19.4383ZM20.25 12C20.25 13.8916 20.249 15.25 20.135 16.302C20.0225 17.3399 19.8074 17.9901 19.4383 18.4981L20.6518 19.3798C21.2377 18.5734 21.5 17.6291 21.6263 16.4635C21.751 15.312 21.75 13.8582 21.75 12H20.25ZM12 21.75C13.8582 21.75 15.312 21.751 16.4635 21.6263C17.6291 21.5 18.5734 21.2377 19.3798 20.6518L18.4981 19.4383C17.9901 19.8074 17.3399 20.0225 16.302 20.135C15.25 20.249 13.8916 20.25 12 20.25V21.75ZM19.4383 18.4981C19.1762 18.8589 18.8589 19.1762 18.4981 19.4383L19.3798 20.6518C19.8679 20.2972 20.2972 19.8679 20.6518 19.3798L19.4383 18.4981ZM12 3.75C13.8916 3.75 15.25 3.75103 16.302 3.865C17.3399 3.97745 17.9901 4.19259 18.4981 4.56168L19.3798 3.34815C18.5734 2.76232 17.6291 2.50001 16.4635 2.37373C15.312 2.24897 13.8582 2.25 12 2.25V3.75ZM21.75 12C21.75 10.1418 21.751 8.68798 21.6263 7.53648C21.5 6.37094 21.2377 5.42656 20.6518 4.62023L19.4383 5.50191C19.8074 6.00992 20.0225 6.66013 20.135 7.69804C20.249 8.74999 20.25 10.1084 20.25 12H21.75ZM18.4981 4.56168C18.8589 4.82382 19.1762 5.14111 19.4383 5.50191L20.6518 4.62023C20.2972 4.13209 19.8679 3.70281 19.3798 3.34815L18.4981 4.56168ZM12 2.25C10.1418 2.25 8.68798 2.24897 7.53648 2.37373C6.37094 2.50001 5.42656 2.76232 4.62023 3.34815L5.50191 4.56168C6.00992 4.19259 6.66013 3.97745 7.69804 3.865C8.74999 3.75103 10.1084 3.75 12 3.75V2.25ZM3.75 12C3.75 10.1084 3.75103 8.74999 3.865 7.69804C3.97745 6.66013 4.19259 6.00992 4.56168 5.50191L3.34815 4.62023C2.76232 5.42656 2.50001 6.37094 2.37373 7.53648C2.24897 8.68798 2.25 10.1418 2.25 12H3.75ZM4.62023 3.34815C4.13209 3.70281 3.70281 4.13209 3.34815 4.62023L4.56168 5.50191C4.82382 5.14111 5.14111 4.82382 5.50191 4.56168L4.62023 3.34815ZM7.9165 8V12H9.4165V8H7.9165ZM7.9165 12V16H9.4165V12H7.9165ZM8.6665 12.75L13.1109 12.75V11.25L8.6665 11.25L8.6665 12.75ZM13.1109 12C13.1109 12.75 13.1114 12.75 13.1118 12.75C13.112 12.75 13.1124 12.75 13.1127 12.75C13.1133 12.75 13.114 12.75 13.1147 12.75C13.1161 12.75 13.1176 12.75 13.1193 12.75C13.1226 12.7499 13.1265 12.7499 13.1309 12.7498C13.1398 12.7496 13.1509 12.7494 13.164 12.7489C13.1902 12.7479 13.2248 12.7461 13.2665 12.7427C13.3497 12.736 13.4629 12.7231 13.5964 12.6981C13.8603 12.6486 14.2214 12.5484 14.5898 12.3412C15.3756 11.8991 16.0832 11.0276 16.0832 9.5H14.5832C14.5832 10.4724 14.1796 10.8509 13.8544 11.0338C13.6672 11.1391 13.4727 11.1951 13.32 11.2238C13.2451 11.2378 13.1847 11.2444 13.1464 11.2475C13.1273 11.2491 13.1141 11.2497 13.1078 11.2499C13.1046 11.25 13.1032 11.2501 13.1037 11.25C13.104 11.25 13.1047 11.25 13.1059 11.25C13.1065 11.25 13.1072 11.25 13.108 11.25C13.1085 11.25 13.1089 11.25 13.1094 11.25C13.1096 11.25 13.11 11.25 13.1101 11.25C13.1105 11.25 13.1109 11.25 13.1109 12ZM16.0832 9.5C16.0832 7.97244 15.3757 7.1009 14.5898 6.65884C13.8668 6.25216 13.1567 6.25 13.1109 6.25V7.75C13.0652 7.75 13.4662 7.74786 13.8544 7.96619C14.1796 8.14914 14.5832 8.5276 14.5832 9.5H16.0832ZM13.1109 6.25H9.6665V7.75H13.1109V6.25ZM9.6665 17.75H13.1109V16.25H9.6665V17.75ZM13.1109 17C13.1109 17.75 13.1114 17.75 13.1118 17.75C13.112 17.75 13.1124 17.75 13.1127 17.75C13.1133 17.75 13.114 17.75 13.1147 17.75C13.1161 17.75 13.1176 17.75 13.1193 17.75C13.1226 17.7499 13.1265 17.7499 13.1309 17.7498C13.1398 17.7496 13.1509 17.7494 13.164 17.7489C13.1902 17.7479 13.2248 17.7461 13.2665 17.7427C13.3497 17.736 13.4629 17.7231 13.5964 17.6981C13.8603 17.6486 14.2214 17.5484 14.5898 17.3412C15.3756 16.8991 16.0832 16.0276 16.0832 14.5H14.5832C14.5832 15.4724 14.1796 15.8509 13.8544 16.0338C13.6672 16.1391 13.4727 16.1951 13.32 16.2238C13.2451 16.2378 13.1847 16.2444 13.1464 16.2475C13.1273 16.2491 13.1141 16.2497 13.1078 16.2499C13.1046 16.25 13.1032 16.2501 13.1037 16.25C13.104 16.25 13.1047 16.25 13.1059 16.25C13.1065 16.25 13.1072 16.25 13.108 16.25C13.1085 16.25 13.1089 16.25 13.1094 16.25C13.1096 16.25 13.11 16.25 13.1101 16.25C13.1105 16.25 13.1109 16.25 13.1109 17ZM16.0832 14.5C16.0832 12.9724 15.3756 12.1009 14.5898 11.6588C14.2214 11.4516 13.8603 11.3514 13.5964 11.3019C13.4629 11.2769 13.3497 11.264 13.2665 11.2573C13.2248 11.2539 13.1902 11.2521 13.164 11.2511C13.1509 11.2506 13.1398 11.2504 13.1309 11.2502C13.1265 11.2501 13.1226 11.2501 13.1193 11.25C13.1176 11.25 13.1161 11.25 13.1147 11.25C13.114 11.25 13.1133 11.25 13.1127 11.25C13.1124 11.25 13.112 11.25 13.1118 11.25C13.1114 11.25 13.1109 11.25 13.1109 12C13.1109 12.75 13.1105 12.75 13.1101 12.75C13.11 12.75 13.1096 12.75 13.1094 12.75C13.1089 12.75 13.1085 12.75 13.108 12.75C13.1072 12.75 13.1065 12.75 13.1059 12.75C13.1047 12.75 13.104 12.75 13.1037 12.75C13.1032 12.7499 13.1046 12.75 13.1078 12.7501C13.1141 12.7503 13.1273 12.7509 13.1464 12.7525C13.1847 12.7556 13.2451 12.7622 13.32 12.7762C13.4727 12.8049 13.6672 12.8609 13.8544 12.9662C14.1796 13.1491 14.5832 13.5276 14.5832 14.5H16.0832ZM7.9165 16C7.9165 16.9665 8.70001 17.75 9.6665 17.75V16.25C9.52843 16.25 9.4165 16.1381 9.4165 16H7.9165ZM9.4165 8C9.4165 7.86193 9.52843 7.75 9.6665 7.75V6.25C8.70001 6.25 7.9165 7.0335 7.9165 8H9.4165ZM13.1109 16.25C13.1109 16.25 13.1109 17 13.1109 17.75C13.1109 17.75 13.1109 17.75 13.1109 17C13.1109 16.25 13.1109 16.25 13.1109 16.25C13.1109 17 13.1109 17.75 13.1109 17.75V16.25Z" fill="#FAFAFA"/>
</svg>
