<svg width="24" height="24" viewBox="0 0 24 24" fill="none" xmlns="http://www.w3.org/2000/svg">
<path d="M3 14.5C3 15.8807 4.11929 17 5.5 17C6.88071 17 8 15.8807 8 14.5V6.5C8 5.11929 6.88071 4 5.5 4C4.11929 4 3 5.11929 3 6.5V14.5Z" stroke="#FAFAFA" stroke-width="1.5"/>
<path d="M11.5754 19.81L9.34488 16.1854C8.74601 15.2123 8.44657 14.7257 8.26551 14.1925C8.21028 14.0298 8.16347 13.8644 8.12526 13.6969C8 13.1479 8 12.5766 8 11.4339V8C8 5.79086 9.79086 4 12 4H14.9098C16.8037 4 18.535 5.07001 19.382 6.76394L20.5305 9.06096C21.6651 11.3301 20.015 14 17.478 14H16.7882C15.0593 14 13.7371 15.5411 14 17.25L14.243 18.8298C14.3782 19.708 13.6987 20.5 12.8101 20.5C12.3067 20.5 11.8393 20.2388 11.5754 19.81Z" stroke="#FAFAFA" stroke-width="1.5"/>
</svg>
