<svg width="24" height="24" viewBox="0 0 24 24" fill="none" xmlns="http://www.w3.org/2000/svg">
<path d="M7 14C7.66667 15.2857 9.6 17 12 17C14.4 17 16.3333 15.2857 17 14M22 12C22 17.5228 17.5228 22 12 22C6.47715 22 2 17.5228 2 12C2 6.47715 6.47715 2 12 2C17.5228 2 22 6.47715 22 12Z" stroke="#FAFAFA" stroke-width="1.5" stroke-linecap="round"/>
<path d="M10 8C10 8.55228 9.55228 9 9 9C8.44772 9 8 8.55228 8 8C8 7.44772 8.44772 7 9 7C9.55228 7 10 7.44772 10 8Z" fill="#FAFAFA"/>
<path d="M16 8C16 8.55228 15.5523 9 15 9C14.4477 9 14 8.55228 14 8C14 7.44772 14.4477 7 15 7C15.5523 7 16 7.44772 16 8Z" fill="#FAFAFA"/>
</svg>
