<svg width="24" height="24" viewBox="0 0 24 24" fill="none" xmlns="http://www.w3.org/2000/svg">
<path d="M12 19C10.2988 19 8.832 17.6362 7.88467 16.384C7.43226 15.7861 7.89514 15 8.64496 15H15.355C16.1049 15 16.5677 15.7861 16.1153 16.384C15.168 17.6362 13.7012 19 12 19Z" stroke="#FAFAFA" stroke-width="1.5" stroke-linecap="round"/>
<path d="M22 12C22 17.5228 17.5228 22 12 22C6.47715 22 2 17.5228 2 12C2 6.47715 6.47715 2 12 2C17.5228 2 22 6.47715 22 12Z" stroke="#FAFAFA" stroke-width="1.5" stroke-linecap="round"/>
<path d="M17.5779 7.3246C16.9943 6.79563 16.3186 7.01872 15.9002 7.25465C15.6637 7.38796 15.3362 7.38796 15.0998 7.25465C14.6814 7.01873 14.0057 6.79563 13.4221 7.3246C12.0369 8.5803 14.4125 11 15.5 11C16.5875 11 18.9631 8.5803 17.5779 7.3246Z" stroke="#FAFAFA" stroke-width="1.5" stroke-linecap="round"/>
<path d="M10.5779 7.3246C9.99432 6.79563 9.31858 7.01872 8.90017 7.25465C8.66375 7.38796 8.33624 7.38796 8.09982 7.25465C7.68141 7.01873 7.00568 6.79563 6.42213 7.3246C5.03688 8.5803 7.41247 11 8.5 11C9.58754 11 11.9631 8.5803 10.5779 7.3246Z" stroke="#FAFAFA" stroke-width="1.5" stroke-linecap="round"/>
</svg>
