<svg width="24" height="24" viewBox="0 0 24 24" fill="none" xmlns="http://www.w3.org/2000/svg">
<path d="M8.79909 18.6744L9.33946 18.1543H9.33946L8.79909 18.6744ZM8.79119 18.6662L8.25371 19.1893L8.79119 18.6662ZM8.08008 18.3637L8.08422 17.6137L8.08008 18.3637ZM15.9199 18.3637L15.9158 17.6137L15.9199 18.3637ZM15.2009 18.6744L14.6605 18.1543L15.2009 18.6744ZM15.2088 18.6662L15.7463 19.1893L15.2088 18.6662ZM14.8819 19.0058L15.4223 19.5259L14.8819 19.0058ZM9.11805 19.0058L8.57769 19.5259H8.57769L9.11805 19.0058ZM3.00029 13.4176L2.25033 13.4257L3.00029 13.4176ZM7.94604 18.3633L7.93795 19.1133L7.94604 18.3633ZM20.9997 13.4176L21.7497 13.4257L20.9997 13.4176ZM16.054 18.3633L16.0621 19.1133L16.054 18.3633ZM18.3962 2.61161L18.7557 1.95335V1.95335L18.3962 2.61161ZM20.3884 4.60375L21.0467 4.24432L20.3884 4.60375ZM5.60375 2.61161L5.24432 1.95335V1.95335L5.60375 2.61161ZM3.61161 4.60375L2.95335 4.24432H2.95335L3.61161 4.60375ZM12.8003 6.57296L13.2021 7.20629L12.8003 6.57296ZM16.1557 6.73036L16.6912 6.20525H16.6912L16.1557 6.73036ZM7.84426 6.73036L8.37976 7.25547L7.84426 6.73036ZM11.1996 6.57297L11.6014 5.93964L11.1996 6.57297ZM11.1818 2.75H12.8182V1.25H11.1818V2.75ZM20.25 10.1818V13.2949H21.75V10.1818H20.25ZM3.75 13.2949V10.1818H2.25V13.2949H3.75ZM14.6605 18.1543L14.3416 18.4857L15.4223 19.5259L15.7413 19.1945L14.6605 18.1543ZM9.65842 18.4857L9.33946 18.1543L8.25873 19.1945L8.57769 19.5259L9.65842 18.4857ZM9.33946 18.1543C9.33615 18.1508 9.33241 18.1469 9.32868 18.1431L8.25371 19.1893C8.25359 19.1892 8.25372 19.1893 8.25452 19.1901C8.25543 19.1911 8.2566 19.1923 8.25873 19.1945L9.33946 18.1543ZM8.0687 19.1136C8.07173 19.1136 8.07342 19.1136 8.0747 19.1136C8.07584 19.1136 8.07605 19.1136 8.07593 19.1136L8.08422 17.6137C8.0789 17.6136 8.07361 17.6136 8.0687 17.6136V19.1136ZM9.32868 18.1431C9.00156 17.807 8.55323 17.6163 8.08422 17.6137L8.07593 19.1136C8.14293 19.114 8.20698 19.1413 8.25371 19.1893L9.32868 18.1431ZM15.9313 17.6136C15.9264 17.6136 15.9211 17.6136 15.9158 17.6137L15.9241 19.1136C15.924 19.1136 15.9242 19.1136 15.9253 19.1136C15.9266 19.1136 15.9283 19.1136 15.9313 19.1136V17.6136ZM15.7413 19.1945C15.7434 19.1923 15.7446 19.1911 15.7455 19.1901C15.7462 19.1893 15.7464 19.1892 15.7463 19.1893L14.6713 18.1431C14.6676 18.1469 14.6639 18.1508 14.6605 18.1543L15.7413 19.1945ZM15.9158 17.6137C15.4468 17.6163 14.9984 17.807 14.6713 18.1431L15.7463 19.1893C15.793 19.1413 15.8571 19.114 15.9241 19.1136L15.9158 17.6137ZM14.3416 18.4857C13.6496 19.2046 13.1826 19.6875 12.7872 20.0001C12.4088 20.2991 12.1884 20.3659 12 20.3659V21.8659C12.6625 21.8659 13.206 21.5811 13.7174 21.1768C14.2118 20.786 14.7603 20.2137 15.4223 19.5259L14.3416 18.4857ZM8.57769 19.5259C9.23971 20.2137 9.78823 20.7859 10.2826 21.1768C10.794 21.5811 11.3375 21.8659 12 21.8659V20.3659C11.8116 20.3659 11.5912 20.2991 11.2128 20.0001C10.8174 19.6875 10.3504 19.2046 9.65842 18.4857L8.57769 19.5259ZM2.25 13.2949C2.25 13.3568 2.24999 13.3936 2.25033 13.4257L3.75025 13.4095C3.75001 13.3876 3.75 13.3607 3.75 13.2949H2.25ZM8.0687 17.6136C8.00297 17.6136 7.97605 17.6136 7.95413 17.6134L7.93795 19.1133C7.96999 19.1136 8.00686 19.1136 8.0687 19.1136V17.6136ZM2.25033 13.4257C2.28408 16.5528 4.81085 19.0796 7.93795 19.1133L7.95413 17.6134C5.6428 17.5884 3.77519 15.7208 3.75025 13.4095L2.25033 13.4257ZM20.25 13.2949C20.25 13.3607 20.25 13.3876 20.2498 13.4095L21.7497 13.4257C21.75 13.3936 21.75 13.3568 21.75 13.2949H20.25ZM15.9313 19.1136C15.9931 19.1136 16.03 19.1136 16.0621 19.1133L16.0459 17.6134C16.024 17.6136 15.997 17.6136 15.9313 17.6136V19.1136ZM20.2498 13.4095C20.2248 15.7208 18.3572 17.5884 16.0459 17.6134L16.0621 19.1133C19.1891 19.0796 21.7159 16.5528 21.7497 13.4257L20.2498 13.4095ZM12.8182 2.75C14.3173 2.75 15.3938 2.75066 16.237 2.82366C17.0706 2.89583 17.6056 3.03442 18.0368 3.26986L18.7557 1.95335C18.0668 1.57719 17.2988 1.40998 16.3664 1.32925C15.4435 1.24934 14.291 1.25 12.8182 1.25V2.75ZM21.75 10.1818C21.75 8.70897 21.7507 7.55649 21.6708 6.63362C21.59 5.70118 21.4228 4.9332 21.0467 4.24432L19.7301 4.96319C19.9656 5.39438 20.1042 5.92944 20.1763 6.76301C20.2493 7.60616 20.25 8.68267 20.25 10.1818H21.75ZM18.0368 3.26986C18.7519 3.66033 19.3397 4.24811 19.7301 4.96319L21.0467 4.24432C20.5184 3.27685 19.7231 2.48162 18.7557 1.95335L18.0368 3.26986ZM11.1818 1.25C9.70897 1.25 8.55649 1.24934 7.63362 1.32925C6.70118 1.40998 5.9332 1.57719 5.24432 1.95335L5.96319 3.26986C6.39438 3.03442 6.92944 2.89583 7.76301 2.82366C8.60616 2.75066 9.68267 2.75 11.1818 2.75V1.25ZM3.75 10.1818C3.75 8.68267 3.75066 7.60616 3.82366 6.76301C3.89583 5.92944 4.03442 5.39438 4.26986 4.96319L2.95335 4.24432C2.57719 4.9332 2.40998 5.70118 2.32925 6.63362C2.24934 7.55648 2.25 8.70897 2.25 10.1818H3.75ZM5.24432 1.95335C4.27685 2.48162 3.48162 3.27685 2.95335 4.24432L4.26986 4.96319C4.66033 4.24811 5.24811 3.66033 5.96319 3.26986L5.24432 1.95335ZM13.2021 7.20629C13.5691 6.97346 13.9942 6.78463 14.4089 6.75427C14.7861 6.72666 15.1972 6.82401 15.6202 7.25547L16.6912 6.20525C15.9472 5.44651 15.099 5.19974 14.2994 5.25827C13.5374 5.31406 12.8684 5.64163 12.3986 5.93964L13.2021 7.20629ZM15.6202 7.25547C16.1308 7.77617 16.3067 8.4132 16.2347 9.14058C16.1605 9.89096 15.8194 10.7218 15.3035 11.5162C14.7906 12.3058 14.1351 13.0126 13.4941 13.5147C12.8204 14.0424 12.2841 14.25 12 14.25V15.75C12.8034 15.75 13.6767 15.2771 14.419 14.6956C15.194 14.0886 15.9609 13.2578 16.5614 12.3332C17.1589 11.4133 17.6221 10.3533 17.7274 9.28826C17.8351 8.20021 17.5659 7.0972 16.6912 6.20525L15.6202 7.25547ZM12 14.25C11.7159 14.25 11.1796 14.0424 10.5059 13.5147C9.86488 13.0126 9.20938 12.3058 8.69653 11.5162C8.18059 10.7218 7.83952 9.89096 7.76528 9.14058C7.69331 8.4132 7.86916 7.77617 8.37976 7.25547L7.30876 6.20525C6.43411 7.0972 6.16492 8.20021 6.27257 9.28826C6.37794 10.3533 6.84113 11.4133 7.43856 12.3332C8.03907 13.2578 8.80603 14.0886 9.58099 14.6956C10.3233 15.2771 11.1966 15.75 12 15.75V14.25ZM8.37976 7.25547C8.80285 6.82402 9.21387 6.72667 9.59105 6.75428C10.0058 6.78464 10.4309 6.97347 10.7979 7.20629L11.6014 5.93964C11.1316 5.64163 10.4626 5.31407 9.70056 5.25828C8.90102 5.19975 8.05278 5.44652 7.30876 6.20525L8.37976 7.25547ZM12.3986 5.93964C12.171 6.08402 11.829 6.08402 11.6014 5.93964L10.7979 7.20629C11.516 7.6618 12.484 7.6618 13.2021 7.20629L12.3986 5.93964Z" fill="#FAFAFA"/>
</svg>
