<svg width="24" height="24" viewBox="0 0 24 24" fill="none" xmlns="http://www.w3.org/2000/svg">
<path d="M12.6692 18.9506L13.1051 19.5609L12.6692 18.9506ZM12.7222 18.9128L12.2902 18.2997L12.7222 18.9128ZM15.5703 18.0001L15.5751 18.7501L15.5703 18.0001ZM8.3959 19.5103L9.09226 19.7888L8.3959 19.5103ZM10.0585 20.8154L9.62255 20.2051H9.62255L10.0585 20.8154ZM20.9944 13.2364L20.2452 13.201L20.9944 13.2364ZM16.2364 17.9944L16.201 17.2452L16.2364 17.9944ZM5.73005 2.54497L6.07054 3.21322L5.73005 2.54497ZM3.54497 4.73005L4.21322 5.07054L3.54497 4.73005ZM18.27 2.54497L17.9295 3.21322L18.27 2.54497ZM20.455 4.73005L19.7868 5.07054L20.455 4.73005ZM12.8003 6.57296L13.2021 7.20629L12.8003 6.57296ZM16.1557 6.73036L16.6912 6.20525H16.6912L16.1557 6.73036ZM7.84426 6.73036L8.37976 7.25547L7.84426 6.73036ZM11.1996 6.57297L11.6014 5.93964L11.1996 6.57297ZM13 1.25H11V2.75H13V1.25ZM2.25 10V14.2283H3.75V10H2.25ZM21.75 12.6988V10H20.25V12.6988H21.75ZM6.77166 18.75H7.37341V17.25H6.77166V18.75ZM10.4944 21.4257L13.1051 19.5609L12.2333 18.3403L9.62255 20.2051L10.4944 21.4257ZM13.1051 19.5609C13.1325 19.5413 13.1436 19.5334 13.1543 19.5259L12.2902 18.2997C12.2747 18.3107 12.2592 18.3218 12.2333 18.3403L13.1051 19.5609ZM15.6504 17.25C15.609 17.25 15.5846 17.25 15.5655 17.2501L15.5751 18.7501C15.5881 18.75 15.6063 18.75 15.6504 18.75V17.25ZM13.1543 19.5259C13.8632 19.0264 14.7079 18.7556 15.5751 18.7501L15.5655 17.2501C14.3922 17.2576 13.2493 17.6239 12.2902 18.2997L13.1543 19.5259ZM7.37341 18.75C7.62191 18.75 7.79183 19.001 7.69954 19.2317L9.09226 19.7888C9.57867 18.5728 8.68311 17.25 7.37341 17.25V18.75ZM7.69954 19.2317C7.01288 20.9484 8.9899 22.5003 10.4944 21.4257L9.62255 20.2051C9.33709 20.409 8.96197 20.1145 9.09226 19.7888L7.69954 19.2317ZM20.25 12.6988C20.25 12.9871 20.2498 13.105 20.2452 13.201L21.7436 13.2719C21.7502 13.1316 21.75 12.9699 21.75 12.6988H20.25ZM15.6504 18.75C15.9525 18.75 16.1313 18.7502 16.2719 18.7436L16.201 17.2452C16.1053 17.2498 15.9721 17.25 15.6504 17.25V18.75ZM20.2452 13.201C20.1416 15.3902 18.3902 17.1416 16.201 17.2452L16.2719 18.7436C19.2338 18.6033 21.6033 16.2338 21.7436 13.2719L20.2452 13.201ZM2.25 14.2283C2.25 16.7256 4.27441 18.75 6.77166 18.75V17.25C5.10284 17.25 3.75 15.8972 3.75 14.2283H2.25ZM11 1.25C9.61224 1.25 8.52632 1.24942 7.65494 1.32061C6.77479 1.39252 6.04768 1.54138 5.38955 1.87671L6.07054 3.21322C6.48197 3.00359 6.9897 2.87996 7.77708 2.81563C8.57322 2.75058 9.58749 2.75 11 2.75V1.25ZM3.75 10C3.75 8.58749 3.75058 7.57322 3.81563 6.77708C3.87996 5.9897 4.00359 5.48197 4.21322 5.07054L2.87671 4.38955C2.54138 5.04768 2.39252 5.77479 2.32061 6.65494C2.24942 7.52632 2.25 8.61224 2.25 10H3.75ZM5.38955 1.87671C4.30762 2.42798 3.42798 3.30762 2.87671 4.38955L4.21322 5.07054C4.62068 4.27085 5.27085 3.62068 6.07054 3.21322L5.38955 1.87671ZM13 2.75C14.4125 2.75 15.4268 2.75058 16.2229 2.81563C17.0103 2.87996 17.518 3.00359 17.9295 3.21322L18.6104 1.87671C17.9523 1.54138 17.2252 1.39252 16.3451 1.32061C15.4737 1.24942 14.3878 1.25 13 1.25V2.75ZM21.75 10C21.75 8.61224 21.7506 7.52632 21.6794 6.65494C21.6075 5.77479 21.4586 5.04768 21.1233 4.38955L19.7868 5.07054C19.9964 5.48197 20.12 5.9897 20.1844 6.77708C20.2494 7.57322 20.25 8.58749 20.25 10H21.75ZM17.9295 3.21322C18.7291 3.62068 19.3793 4.27085 19.7868 5.07054L21.1233 4.38955C20.572 3.30762 19.6924 2.42798 18.6104 1.87671L17.9295 3.21322ZM13.2021 7.20629C13.5691 6.97346 13.9942 6.78463 14.4089 6.75427C14.7861 6.72666 15.1972 6.82401 15.6202 7.25547L16.6912 6.20525C15.9472 5.44651 15.099 5.19974 14.2994 5.25827C13.5374 5.31406 12.8684 5.64163 12.3986 5.93964L13.2021 7.20629ZM15.6202 7.25547C16.1308 7.77617 16.3067 8.4132 16.2347 9.14058C16.1605 9.89096 15.8194 10.7218 15.3035 11.5162C14.7906 12.3058 14.1351 13.0126 13.4941 13.5147C12.8204 14.0424 12.2841 14.25 12 14.25V15.75C12.8034 15.75 13.6767 15.2771 14.419 14.6956C15.194 14.0886 15.9609 13.2578 16.5614 12.3332C17.1589 11.4133 17.6221 10.3533 17.7274 9.28826C17.8351 8.20021 17.5659 7.0972 16.6912 6.20525L15.6202 7.25547ZM12 14.25C11.7159 14.25 11.1796 14.0424 10.5059 13.5147C9.86488 13.0126 9.20938 12.3058 8.69653 11.5162C8.18059 10.7218 7.83952 9.89096 7.76528 9.14058C7.69331 8.4132 7.86916 7.77617 8.37976 7.25547L7.30876 6.20525C6.43411 7.0972 6.16492 8.20021 6.27257 9.28826C6.37794 10.3533 6.84113 11.4133 7.43856 12.3332C8.03907 13.2578 8.80603 14.0886 9.58099 14.6956C10.3233 15.2771 11.1966 15.75 12 15.75V14.25ZM8.37976 7.25547C8.80285 6.82402 9.21387 6.72667 9.59105 6.75428C10.0058 6.78464 10.4309 6.97347 10.7979 7.20629L11.6014 5.93964C11.1316 5.64163 10.4626 5.31407 9.70056 5.25828C8.90102 5.19975 8.05278 5.44652 7.30876 6.20525L8.37976 7.25547ZM12.3986 5.93964C12.171 6.08402 11.829 6.08402 11.6014 5.93964L10.7979 7.20629C11.516 7.6618 12.484 7.6618 13.2021 7.20629L12.3986 5.93964Z" fill="#FAFAFA"/>
</svg>
