<svg width="24" height="24" viewBox="0 0 24 24" fill="none" xmlns="http://www.w3.org/2000/svg">
<path d="M13.9999 7.88603C14.3226 8.83867 15.2481 9.48366 16.2924 9.48366M5.09779 7.01471C6.66983 7.01471 8.06308 6.00245 8.54887 4.50736C9.63512 1.16422 14.3648 1.16422 15.451 4.50736C15.9368 6.00245 17.3301 7.01471 18.9021 7.01471C22.4173 7.01471 23.8788 11.5129 21.035 13.579C19.7632 14.5031 19.231 16.1409 19.7168 17.636C20.803 20.9792 16.9767 23.7592 14.1328 21.693C12.861 20.769 11.1389 20.769 9.86706 21.693C7.02322 23.7592 3.19685 20.9792 4.2831 17.636C4.76889 16.1409 4.23671 14.5031 2.96491 13.579C0.121064 11.5129 1.58261 7.01471 5.09779 7.01471Z" stroke="#FAFAFA" stroke-width="1.5" stroke-linecap="round"/>
</svg>
