<svg width="56" height="24" viewBox="0 0 56 24" fill="none" xmlns="http://www.w3.org/2000/svg">
<rect width="56" height="24" rx="12" fill="#3B6103"/>
<g clip-path="url(#clip0_77_6338)">
<path d="M15.333 10L13.0869 12.5088C12.1968 13.5029 11.7518 14 11.1663 14C10.5809 14 10.1358 13.5029 9.24579 12.5088L8.66634 11.8616M18.6663 12C18.6663 15.6819 15.6816 18.6667 11.9997 18.6667C8.31778 18.6667 5.33301 15.6819 5.33301 12C5.33301 8.3181 8.31778 5.33334 11.9997 5.33334C15.6816 5.33334 18.6663 8.3181 18.6663 12Z" stroke="#F4FCCE" stroke-width="1.5" stroke-linecap="round"/>
</g>
<path d="M26.208 12.952V11.92H28.164C28.58 11.92 28.924 11.84 29.196 11.68C29.468 11.512 29.672 11.288 29.808 11.008C29.952 10.728 30.024 10.416 30.024 10.072C30.024 9.72 29.952 9.404 29.808 9.124C29.672 8.844 29.468 8.624 29.196 8.464C28.924 8.304 28.58 8.224 28.164 8.224H26.208V7.192H27.948C28.668 7.192 29.268 7.308 29.748 7.54C30.236 7.764 30.604 8.084 30.852 8.5C31.1 8.916 31.224 9.408 31.224 9.976V10.168C31.224 10.728 31.1 11.22 30.852 11.644C30.604 12.06 30.236 12.384 29.748 12.616C29.268 12.84 28.668 12.952 27.948 12.952H26.208ZM25.272 16V7.192H26.448V16H25.272ZM36.5855 16V14.08H36.3935V11.86C36.3935 11.42 36.2775 11.088 36.0455 10.864C35.8215 10.64 35.4895 10.528 35.0495 10.528C34.8015 10.528 34.5455 10.532 34.2815 10.54C34.0175 10.548 33.7655 10.556 33.5255 10.564C33.2855 10.572 33.0775 10.584 32.9015 10.6V9.592C33.0775 9.576 33.2615 9.564 33.4535 9.556C33.6535 9.54 33.8575 9.532 34.0655 9.532C34.2735 9.524 34.4735 9.52 34.6655 9.52C35.3215 9.52 35.8575 9.6 36.2735 9.76C36.6895 9.912 36.9975 10.164 37.1975 10.516C37.3975 10.868 37.4975 11.344 37.4975 11.944V16H36.5855ZM34.4855 16.168C34.0055 16.168 33.5895 16.088 33.2375 15.928C32.8935 15.76 32.6255 15.52 32.4335 15.208C32.2495 14.896 32.1575 14.52 32.1575 14.08C32.1575 13.624 32.2575 13.244 32.4575 12.94C32.6655 12.636 32.9655 12.408 33.3575 12.256C33.7495 12.096 34.2215 12.016 34.7735 12.016H36.5135V12.88H34.7255C34.2615 12.88 33.9055 12.992 33.6575 13.216C33.4095 13.44 33.2855 13.728 33.2855 14.08C33.2855 14.432 33.4095 14.716 33.6575 14.932C33.9055 15.148 34.2615 15.256 34.7255 15.256C34.9975 15.256 35.2575 15.208 35.5055 15.112C35.7535 15.008 35.9575 14.84 36.1175 14.608C36.2855 14.368 36.3775 14.04 36.3935 13.624L36.7055 14.08C36.6655 14.536 36.5535 14.92 36.3695 15.232C36.1935 15.536 35.9455 15.768 35.6255 15.928C35.3135 16.088 34.9335 16.168 34.4855 16.168ZM41.7118 16.192C40.8718 16.192 40.2198 16.012 39.7558 15.652C39.2998 15.292 39.0638 14.8 39.0478 14.176H40.1278C40.1438 14.424 40.2678 14.66 40.4998 14.884C40.7398 15.1 41.1438 15.208 41.7118 15.208C42.2238 15.208 42.6158 15.108 42.8878 14.908C43.1598 14.7 43.2958 14.448 43.2958 14.152C43.2958 13.888 43.1958 13.684 42.9958 13.54C42.7958 13.388 42.4718 13.288 42.0238 13.24L41.3278 13.168C40.7198 13.104 40.2238 12.924 39.8398 12.628C39.4558 12.324 39.2638 11.9 39.2638 11.356C39.2638 10.948 39.3678 10.6 39.5758 10.312C39.7838 10.016 40.0718 9.792 40.4398 9.64C40.8078 9.48 41.2318 9.4 41.7118 9.4C42.4318 9.4 43.0158 9.56 43.4638 9.88C43.9118 10.2 44.1438 10.676 44.1598 11.308H43.0798C43.0718 11.052 42.9518 10.836 42.7198 10.66C42.4958 10.476 42.1598 10.384 41.7118 10.384C41.2638 10.384 40.9238 10.476 40.6918 10.66C40.4598 10.844 40.3438 11.076 40.3438 11.356C40.3438 11.596 40.4238 11.788 40.5838 11.932C40.7518 12.076 41.0238 12.168 41.3998 12.208L42.0958 12.28C42.7838 12.352 43.3358 12.544 43.7518 12.856C44.1678 13.16 44.3758 13.592 44.3758 14.152C44.3758 14.552 44.2598 14.908 44.0278 15.22C43.8038 15.524 43.4918 15.764 43.0918 15.94C42.6918 16.108 42.2318 16.192 41.7118 16.192ZM48.1454 16.192C47.3054 16.192 46.6534 16.012 46.1894 15.652C45.7334 15.292 45.4974 14.8 45.4814 14.176H46.5614C46.5774 14.424 46.7014 14.66 46.9334 14.884C47.1734 15.1 47.5774 15.208 48.1454 15.208C48.6574 15.208 49.0494 15.108 49.3214 14.908C49.5934 14.7 49.7294 14.448 49.7294 14.152C49.7294 13.888 49.6294 13.684 49.4294 13.54C49.2294 13.388 48.9054 13.288 48.4574 13.24L47.7614 13.168C47.1534 13.104 46.6574 12.924 46.2734 12.628C45.8894 12.324 45.6974 11.9 45.6974 11.356C45.6974 10.948 45.8014 10.6 46.0094 10.312C46.2174 10.016 46.5054 9.792 46.8734 9.64C47.2414 9.48 47.6654 9.4 48.1454 9.4C48.8654 9.4 49.4494 9.56 49.8974 9.88C50.3454 10.2 50.5774 10.676 50.5934 11.308H49.5134C49.5054 11.052 49.3854 10.836 49.1534 10.66C48.9294 10.476 48.5934 10.384 48.1454 10.384C47.6974 10.384 47.3574 10.476 47.1254 10.66C46.8934 10.844 46.7774 11.076 46.7774 11.356C46.7774 11.596 46.8574 11.788 47.0174 11.932C47.1854 12.076 47.4574 12.168 47.8334 12.208L48.5294 12.28C49.2174 12.352 49.7694 12.544 50.1854 12.856C50.6014 13.16 50.8094 13.592 50.8094 14.152C50.8094 14.552 50.6934 14.908 50.4614 15.22C50.2374 15.524 49.9254 15.764 49.5254 15.94C49.1254 16.108 48.6654 16.192 48.1454 16.192Z" fill="#F4FCCE"/>
<defs>
<clipPath id="clip0_77_6338">
<rect width="16" height="16" fill="white" transform="translate(4 4)"/>
</clipPath>
</defs>
</svg>
