<svg width="24" height="24" viewBox="0 0 24 24" fill="none" xmlns="http://www.w3.org/2000/svg">
<path d="M13.6328 14.5219L14.5818 10.9802C15.1059 9.02413 13.9451 7.01356 11.9891 6.48944C10.033 5.96532 8.02248 7.12612 7.49836 9.08216L5.12585 17.9365C4.60173 19.8925 5.76253 21.9031 7.71857 22.4272C8.6168 22.6679 9.52652 22.5533 10.2985 22.1695C10.7723 21.934 11.1942 21.5971 11.5298 21.1788M11.0401 10.0312L10.0911 13.5729C9.56696 15.5289 10.7278 17.5395 12.6838 18.0636C14.6398 18.5877 16.6504 17.4269 17.1745 15.4709L19.547 6.61658C20.0712 4.66054 18.9104 2.64997 16.9543 2.12585C16.0561 1.88517 15.1464 1.99979 14.3744 2.38356C13.9006 2.61907 13.4787 2.95595 13.1431 3.37429" stroke="#FAFAFA" stroke-width="1.5" stroke-linecap="round"/>
</svg>
