<svg width="24" height="24" viewBox="0 0 24 24" fill="none" xmlns="http://www.w3.org/2000/svg">
<path d="M6.21783 17.9384L6.1005 18.6792L6.21783 17.9384ZM2.06156 13.7822L1.32079 13.8995L2.06156 13.7822ZM17.9384 13.7822L17.1977 13.6648L17.9384 13.7822ZM13.7822 17.9384L13.6648 17.1977L13.7822 17.9384ZM13.7822 6.06156L13.6648 6.80232L13.7822 6.06156ZM17.9384 10.2178L18.6792 10.1005L17.9384 10.2178ZM6.21783 6.06156L6.1005 5.32079L6.21783 6.06156ZM2.06156 10.2178L1.32079 10.1005L2.06156 10.2178ZM9.97777 9.43956C10.2205 9.10394 10.1453 8.63507 9.80964 8.39231C9.47402 8.14955 9.00515 8.22482 8.76239 8.56044L9.97777 9.43956ZM8.81815 9.76305L8.21046 9.32349L8.81815 9.76305ZM11.1446 14.3164L10.5442 13.867L10.5442 13.867L11.1446 14.3164ZM10.0325 14.5506C9.78429 14.8822 9.85189 15.3522 10.1835 15.6004C10.5151 15.8486 10.9851 15.781 11.2334 15.4494L10.0325 14.5506ZM9.98831 12.0303L9.9863 12.7803L9.98831 12.0303ZM11.7261 12.2616L11.2184 12.8136V12.8136L11.7261 12.2616ZM11.9971 12.7973L12.7427 12.7167V12.7167L11.9971 12.7973ZM8.00357 11.2726L8.74831 11.1839L8.00357 11.2726ZM8.27697 11.8023L8.78164 11.2475L8.27697 11.8023ZM8 6.75H12V5.25H8V6.75ZM12 17.25H8V18.75H12V17.25ZM8 17.25C7.04233 17.25 6.65082 17.2477 6.33515 17.1977L6.1005 18.6792C6.56216 18.7523 7.09965 18.75 8 18.75V17.25ZM1.25 12C1.25 12.9003 1.24767 13.4378 1.32079 13.8995L2.80232 13.6648C2.75233 13.3492 2.75 12.9577 2.75 12H1.25ZM6.33515 17.1977C4.51661 16.9096 3.09035 15.4834 2.80232 13.6648L1.32079 13.8995C1.71048 16.3599 3.64012 18.2895 6.1005 18.6792L6.33515 17.1977ZM17.25 12C17.25 12.9577 17.2477 13.3492 17.1977 13.6648L18.6792 13.8995C18.7523 13.4378 18.75 12.9003 18.75 12H17.25ZM12 18.75C12.9003 18.75 13.4378 18.7523 13.8995 18.6792L13.6648 17.1977C13.3492 17.2477 12.9577 17.25 12 17.25V18.75ZM12 6.75C12.9577 6.75 13.3492 6.75233 13.6648 6.80232L13.8995 5.32079C13.4378 5.24767 12.9003 5.25 12 5.25V6.75ZM18.75 12C18.75 11.0997 18.7523 10.5622 18.6792 10.1005L17.1977 10.3352C17.2477 10.6508 17.25 11.0423 17.25 12H18.75ZM8 5.25C7.09965 5.25 6.56216 5.24767 6.1005 5.32079L6.33515 6.80232C6.65082 6.75233 7.04233 6.75 8 6.75V5.25ZM2.75 12C2.75 11.0423 2.75233 10.6508 2.80232 10.3352L1.32079 10.1005C1.24767 10.5622 1.25 11.0997 1.25 12H2.75ZM6.1005 5.32079C3.64012 5.71048 1.71048 7.64012 1.32079 10.1005L2.80232 10.3352C3.09035 8.51661 4.51661 7.09035 6.33515 6.80232L6.1005 5.32079ZM18 9.75H19V8.25H18V9.75ZM20.25 11V13H21.75V11H20.25ZM19 14.25H18V15.75H19V14.25ZM20.25 13C20.25 13.6904 19.6904 14.25 19 14.25V15.75C20.5188 15.75 21.75 14.5188 21.75 13H20.25ZM19 9.75C19.6904 9.75 20.25 10.3096 20.25 11H21.75C21.75 9.48122 20.5188 8.25 19 8.25V9.75ZM8.76239 8.56044L8.21046 9.32349L9.42584 10.2026L9.97777 9.43956L8.76239 8.56044ZM10.5442 13.867L10.0325 14.5506L11.2334 15.4494L11.745 14.7659L10.5442 13.867ZM9.9863 12.7803C10.5 12.7817 10.8271 12.7835 11.0596 12.8077C11.3035 12.8331 11.2812 12.8713 11.2184 12.8136L12.2339 11.7096C11.924 11.4246 11.5297 11.3485 11.2149 11.3157C10.8887 11.2818 10.4705 11.2816 9.99032 11.2803L9.9863 12.7803ZM11.745 14.7659C12.031 14.3838 12.2815 14.0508 12.4496 13.7705C12.6118 13.5002 12.7882 13.1377 12.7427 12.7167L11.2514 12.8779C11.2418 12.7891 11.2882 12.7906 11.1632 12.9989C11.0442 13.1974 10.8505 13.4578 10.5442 13.867L11.745 14.7659ZM11.2184 12.8136C11.2378 12.8314 11.2489 12.8544 11.2514 12.8779L12.7427 12.7167C12.7009 12.3299 12.5196 11.9724 12.2339 11.7096L11.2184 12.8136ZM8.21046 9.32349C7.9358 9.70319 7.69455 10.0351 7.53326 10.3143C7.37705 10.5848 7.20929 10.9453 7.25883 11.3613L8.74831 11.1839C8.75864 11.2706 8.71358 11.2699 8.83216 11.0646C8.94566 10.8681 9.1313 10.6098 9.42584 10.2026L8.21046 9.32349ZM9.99032 11.2803C9.48525 11.279 9.16455 11.2772 8.93653 11.2534C8.69839 11.2286 8.71995 11.1914 8.78164 11.2475L7.77229 12.3571C8.08032 12.6373 8.46922 12.7128 8.78099 12.7453C9.10289 12.7789 9.5147 12.779 9.9863 12.7803L9.99032 11.2803ZM7.25883 11.3613C7.3045 11.7447 7.4873 12.0978 7.77229 12.3571L8.78164 11.2475C8.76229 11.2299 8.75107 11.2071 8.74831 11.1839L7.25883 11.3613ZM13.6648 6.80232C15.1204 7.03287 16.3252 7.99279 16.8956 9.29994L18.2704 8.70006C17.4989 6.93208 15.8696 5.63283 13.8995 5.32079L13.6648 6.80232ZM16.8956 9.29994C17.0375 9.62517 17.1402 9.97211 17.1977 10.3352L18.6792 10.1005C18.6016 9.61032 18.4627 9.14074 18.2704 8.70006L16.8956 9.29994ZM18 8.25H17.583V9.75H18V8.25ZM17.1977 13.6648C17.1402 14.0279 17.0375 14.3748 16.8956 14.7001L18.2704 15.2999C18.4627 14.8593 18.6016 14.3897 18.6792 13.8995L17.1977 13.6648ZM16.8956 14.7001C16.3252 16.0072 15.1204 16.9671 13.6648 17.1977L13.8995 18.6792C15.8696 18.3672 17.4989 17.0679 18.2704 15.2999L16.8956 14.7001ZM18 14.25H17.583V15.75H18V14.25Z" fill="#FAFAFA"/>
</svg>
