<svg width="24" height="24" viewBox="0 0 24 24" fill="none" xmlns="http://www.w3.org/2000/svg">
<path d="M6.08179 10C6.08179 9.44772 6.5295 9 7.08179 9H9.08179C9.63407 9 10.0818 9.44772 10.0818 10V12C10.0818 12.5523 9.63407 13 9.08179 13H7.08179C6.5295 13 6.08179 12.5523 6.08179 12V10Z" fill="#FAFAFA"/>
<path d="M8.68508 22.9598L8.59021 23.7038L8.68508 22.9598ZM4.25991 18.068L3.52011 18.1913L4.25991 18.068ZM4.52916 19.4392L5.24742 19.2234L4.52916 19.4392ZM15.9039 18.068L15.1641 17.9447L15.9039 18.068ZM15.6346 19.4392L14.9164 19.2234L15.6346 19.4392ZM11.4787 22.9598L11.5736 23.7038L11.4787 22.9598ZM13.6977 5.23602L13.9254 4.52142L13.6977 5.23602ZM16.7667 12.8912L16.0269 12.7679L16.7667 12.8912ZM17.1283 9.28579L17.8706 9.17866L17.1283 9.28579ZM6.46615 5.23602L6.23844 4.52142L6.46615 5.23602ZM3.3971 12.8912L4.13689 12.7679L3.3971 12.8912ZM3.03548 9.28579L2.29317 9.17866L3.03548 9.28579ZM7.3319 12C7.3319 12.4142 7.66769 12.75 8.0819 12.75C8.49612 12.75 8.8319 12.4142 8.8319 12H7.3319ZM8.08191 6H8.83191H8.08191ZM9.41108 3.33541C9.59633 3.70589 10.0468 3.85606 10.4173 3.67082C10.7878 3.48558 10.938 3.03507 10.7527 2.66459L9.41108 3.33541ZM10.0291 2.89443L10.6999 2.55902V2.55902L10.0291 2.89443ZM10.0291 1.10557L9.3583 0.770162L9.3583 0.770163L10.0291 1.10557ZM10.7527 1.33541C10.938 0.964928 10.7878 0.514423 10.4173 0.32918C10.0468 0.143938 9.59633 0.294105 9.41109 0.664589L10.7527 1.33541ZM5.41108 2.66459C5.22584 3.03507 5.37601 3.48558 5.74649 3.67082C6.11698 3.85606 6.56748 3.70589 6.75273 3.33541L5.41108 2.66459ZM6.13469 2.89443L5.46387 2.55902L5.46387 2.55902L6.13469 2.89443ZM6.13469 1.10557L5.46387 1.44098L5.46387 1.44098L6.13469 1.10557ZM6.75273 0.66459C6.56748 0.294106 6.11698 0.143938 5.74649 0.32918C5.37601 0.514421 5.22584 0.964926 5.41108 1.33541L6.75273 0.66459ZM13.4111 2.66459C13.2258 3.03507 13.376 3.48557 13.7465 3.67082C14.117 3.85606 14.5675 3.7059 14.7527 3.33541L13.4111 2.66459ZM14.1347 2.89443L14.8055 3.22984L14.8055 3.22984L14.1347 2.89443ZM14.1347 1.10557L13.4639 1.44098L13.4639 1.44098L14.1347 1.10557ZM14.7527 0.664591C14.5675 0.294107 14.117 0.143938 13.7465 0.329179C13.376 0.51442 13.2258 0.964925 13.4111 1.33541L14.7527 0.664591ZM8.08191 5.01877L8.05529 4.26924L8.08191 5.01877ZM4.99971 17.9447L4.13689 12.7679L2.6573 13.0145L3.52011 18.1913L4.99971 17.9447ZM10.0819 22.25C9.33876 22.25 9.03601 22.2485 8.77995 22.2159L8.59021 23.7038C8.96406 23.7515 9.38256 23.75 10.0819 23.75V22.25ZM3.52011 18.1913C3.63509 18.8812 3.70242 19.2942 3.81091 19.6551L5.24742 19.2234C5.17312 18.9762 5.12188 18.6778 4.99971 17.9447L3.52011 18.1913ZM8.77995 22.2159C7.11479 22.0035 5.73062 20.831 5.24742 19.2234L3.81091 19.6551C4.46464 21.8301 6.33734 23.4165 8.59021 23.7038L8.77995 22.2159ZM15.1641 17.9447C15.0419 18.6778 14.9907 18.9762 14.9164 19.2234L16.3529 19.6551C16.4614 19.2942 16.5287 18.8812 16.6437 18.1913L15.1641 17.9447ZM10.0819 23.75C10.7812 23.75 11.1997 23.7515 11.5736 23.7038L11.3839 22.2159C11.1278 22.2485 10.8251 22.25 10.0819 22.25V23.75ZM14.9164 19.2234C14.4332 20.831 13.049 22.0035 11.3839 22.2159L11.5736 23.7038C13.8265 23.4165 15.6992 21.8301 16.3529 19.6551L14.9164 19.2234ZM10.0819 5.75C12.0594 5.75 12.8691 5.75914 13.47 5.95062L13.9254 4.52142C13.0449 4.24086 11.9379 4.25 10.0819 4.25V5.75ZM13.47 5.95062C15.021 6.44487 16.1535 7.7817 16.386 9.39292L17.8706 9.17866C17.556 6.99877 16.0239 5.19012 13.9254 4.52142L13.47 5.95062ZM4.13689 12.7679C3.8118 10.8173 3.68771 10.0171 3.77779 9.39292L2.29317 9.17866C2.16117 10.0933 2.35218 11.1837 2.6573 13.0145L4.13689 12.7679ZM6.23844 4.52142C4.13993 5.19012 2.60777 6.99877 2.29317 9.17866L3.77779 9.39292C4.01032 7.7817 5.14279 6.44487 6.69386 5.95062L6.23844 4.52142ZM19.3319 14C19.3319 15.2426 18.3245 16.25 17.0819 16.25V17.75C19.153 17.75 20.8319 16.0711 20.8319 14H19.3319ZM17.0819 11.75C18.3245 11.75 19.3319 12.7574 19.3319 14H20.8319C20.8319 11.9289 19.153 10.25 17.0819 10.25V11.75ZM8.8319 12L8.83191 6H7.33191L7.3319 12H8.8319ZM10.7527 2.66459L10.6999 2.55902L9.3583 3.22984L9.41108 3.33541L10.7527 2.66459ZM10.6999 1.44098L10.7527 1.33541L9.41109 0.664589L9.3583 0.770162L10.6999 1.44098ZM10.6999 2.55902C10.524 2.20711 10.524 1.79289 10.6999 1.44098L9.3583 0.770163C8.9712 1.54436 8.9712 2.45564 9.3583 3.22984L10.6999 2.55902ZM6.75273 3.33541L6.80551 3.22984L5.46387 2.55902L5.41108 2.66459L6.75273 3.33541ZM6.80551 0.770162L6.75273 0.66459L5.41108 1.33541L5.46387 1.44098L6.80551 0.770162ZM6.80551 3.22984C7.19261 2.45564 7.19261 1.54436 6.80551 0.770162L5.46387 1.44098C5.63983 1.79289 5.63983 2.20711 5.46387 2.55902L6.80551 3.22984ZM14.7527 3.33541L14.8055 3.22984L13.4639 2.55901L13.4111 2.66459L14.7527 3.33541ZM14.8055 0.770163L14.7527 0.664591L13.4111 1.33541L13.4639 1.44098L14.8055 0.770163ZM14.8055 3.22984C15.1926 2.45564 15.1926 1.54436 14.8055 0.770162L13.4639 1.44098C13.6398 1.79289 13.6398 2.20711 13.4639 2.55902L14.8055 3.22984ZM17.5065 13.0145C17.6341 12.2488 17.7386 11.6227 17.809 11.1003L16.3225 10.8997C16.2558 11.3939 16.1559 11.9939 16.0269 12.7679L17.5065 13.0145ZM17.809 11.1003C17.911 10.3442 17.9519 9.74155 17.8706 9.17866L16.386 9.39292C16.4364 9.74231 16.4202 10.1756 16.3225 10.8997L17.809 11.1003ZM17.0819 10.25H17.0658V11.75H17.0819V10.25ZM17.0819 16.25C16.8251 16.25 16.5799 16.2073 16.352 16.1292L15.8656 17.5481C16.248 17.6792 16.6575 17.75 17.0819 17.75V16.25ZM16.0269 12.7679L15.369 16.7154L16.8486 16.962L17.5065 13.0145L16.0269 12.7679ZM15.369 16.7154L15.1641 17.9447L16.6437 18.1913L16.8486 16.962L15.369 16.7154ZM10.0819 4.25C9.26262 4.25 8.60032 4.24989 8.05529 4.26924L8.10852 5.7683C8.6209 5.75011 9.25266 5.75 10.0819 5.75V4.25ZM8.05529 4.26924C7.33543 4.2948 6.7601 4.35519 6.23844 4.52142L6.69386 5.95062C7.01652 5.8478 7.42694 5.7925 8.10852 5.7683L8.05529 4.26924ZM8.83191 6V5.01877H7.33191V6H8.83191Z" fill="#FAFAFA"/>
</svg>
