<svg width="24" height="24" viewBox="0 0 24 24" fill="none" xmlns="http://www.w3.org/2000/svg">
<path d="M8.68508 20.9598L8.59021 21.7038L8.68508 20.9598ZM4.25991 16.068L4.99971 15.9447L4.25991 16.068ZM4.52916 17.4392L5.24742 17.2234L4.52916 17.4392ZM15.9039 16.068L16.6437 16.1913L15.9039 16.068ZM15.6346 17.4392L14.9164 17.2234L15.6346 17.4392ZM11.4787 20.9598L11.5736 21.7038L11.4787 20.9598ZM13.6977 3.23602L13.9254 2.52142L13.6977 3.23602ZM16.7667 10.8912L16.0269 10.7679L16.7667 10.8912ZM17.1283 7.28579L17.8706 7.17866L17.1283 7.28579ZM6.46615 3.23602L6.23844 2.52142L6.46615 3.23602ZM3.3971 10.8912L2.6573 11.0145L3.3971 10.8912ZM3.03548 7.28579L2.29317 7.17866L3.03548 7.28579ZM6.38519 16.0391C6.45712 16.447 6.84611 16.7194 7.25403 16.6475C7.66195 16.5755 7.93433 16.1865 7.8624 15.7786L6.38519 16.0391ZM6.82051 9.86976C6.74858 9.46184 6.35959 9.18947 5.95167 9.26139C5.54375 9.33332 5.27137 9.72232 5.3433 10.1302L6.82051 9.86976ZM16.0269 10.7679L15.1641 15.9447L16.6437 16.1913L17.5065 11.0145L16.0269 10.7679ZM4.99971 15.9447L4.13689 10.7679L2.6573 11.0145L3.52011 16.1913L4.99971 15.9447ZM10.0819 20.25C9.33876 20.25 9.03601 20.2485 8.77995 20.2159L8.59021 21.7038C8.96406 21.7515 9.38256 21.75 10.0819 21.75V20.25ZM3.52011 16.1913C3.63509 16.8812 3.70242 17.2942 3.81091 17.6551L5.24742 17.2234C5.17312 16.9762 5.12188 16.6778 4.99971 15.9447L3.52011 16.1913ZM8.77995 20.2159C7.11479 20.0035 5.73062 18.831 5.24742 17.2234L3.81091 17.6551C4.46464 19.8301 6.33734 21.4165 8.59021 21.7038L8.77995 20.2159ZM15.1641 15.9447C15.0419 16.6778 14.9907 16.9762 14.9164 17.2234L16.3529 17.6551C16.4614 17.2942 16.5287 16.8812 16.6437 16.1913L15.1641 15.9447ZM10.0819 21.75C10.7812 21.75 11.1997 21.7515 11.5736 21.7038L11.3839 20.2159C11.1278 20.2485 10.8251 20.25 10.0819 20.25V21.75ZM14.9164 17.2234C14.4332 18.831 13.049 20.0035 11.3839 20.2159L11.5736 21.7038C13.8265 21.4165 15.6992 19.8301 16.3529 17.6551L14.9164 17.2234ZM10.0819 3.75C12.0594 3.75 12.8691 3.75914 13.47 3.95062L13.9254 2.52142C13.0449 2.24086 11.9379 2.25 10.0819 2.25V3.75ZM17.5065 11.0145C17.8116 9.18374 18.0026 8.09328 17.8706 7.17866L16.386 7.39292C16.4761 8.01711 16.352 8.81729 16.0269 10.7679L17.5065 11.0145ZM13.47 3.95062C15.021 4.44487 16.1535 5.7817 16.386 7.39292L17.8706 7.17866C17.556 4.99877 16.0239 3.19012 13.9254 2.52142L13.47 3.95062ZM10.0819 2.25C8.22594 2.25 7.11892 2.24086 6.23844 2.52142L6.69386 3.95062C7.29474 3.75914 8.10444 3.75 10.0819 3.75V2.25ZM4.13689 10.7679C3.8118 8.81729 3.68771 8.01711 3.77779 7.39292L2.29317 7.17866C2.16117 8.09328 2.35218 9.18374 2.6573 11.0145L4.13689 10.7679ZM6.23844 2.52142C4.13993 3.19012 2.60777 4.99877 2.29317 7.17866L3.77779 7.39292C4.01032 5.7817 5.14279 4.44487 6.69386 3.95062L6.23844 2.52142ZM19.3319 12C19.3319 13.2426 18.3245 14.25 17.0819 14.25V15.75C19.153 15.75 20.8319 14.0711 20.8319 12H19.3319ZM17.0819 9.75C18.3245 9.75 19.3319 10.7574 19.3319 12H20.8319C20.8319 9.92893 19.153 8.25 17.0819 8.25V9.75ZM17.0819 14.25C16.8176 14.25 16.5655 14.2047 16.3318 14.1222L15.832 15.5364C16.2239 15.675 16.645 15.75 17.0819 15.75V14.25ZM7.8624 15.7786L6.82051 9.86976L5.3433 10.1302L6.38519 16.0391L7.8624 15.7786Z" fill="#FAFAFA"/>
</svg>
