<svg width="24" height="24" viewBox="0 0 24 24" fill="none" xmlns="http://www.w3.org/2000/svg">
<path d="M12.0001 7V13M12.0001 21C7.45289 21 5.17931 21 3.86498 20.0451C2.71857 19.2122 1.97942 17.9319 1.8313 16.5226C1.66148 14.9069 2.79827 12.938 5.07186 9C7.34544 5.06204 8.48223 3.09306 9.96638 2.43227C11.2609 1.85591 12.7392 1.85591 14.0337 2.43227C15.5179 3.09306 16.6547 5.06204 18.9283 9C21.2018 12.938 22.3386 14.9069 22.1688 16.5226C22.0207 17.9319 21.2816 19.2122 20.1351 20.0451C18.8208 21 16.5472 21 12.0001 21Z" stroke="#FAFAFA" stroke-width="1.5" stroke-linecap="round"/>
<path d="M13 16C13 16.5523 12.5523 17 12 17C11.4477 17 11 16.5523 11 16C11 15.4477 11.4477 15 12 15C12.5523 15 13 15.4477 13 16Z" fill="#FAFAFA"/>
</svg>
