<svg width="24" height="24" viewBox="0 0 24 24" fill="none" xmlns="http://www.w3.org/2000/svg">
<path d="M18.5172 12.7795L19.26 12.8829L18.5172 12.7795ZM18.2549 14.6645L18.9977 14.7679L18.2549 14.6645ZM5.74514 14.6645L6.48798 14.5611L5.74514 14.6645ZM5.4828 12.7795L4.73996 12.8829L5.4828 12.7795ZM9.18365 21.7368L8.89206 22.4278L9.18365 21.7368ZM6.47508 18.5603L7.17907 18.3017L6.47508 18.5603ZM17.5249 18.5603L18.2289 18.819V18.819L17.5249 18.5603ZM14.8164 21.7368L14.5248 21.0458H14.5248L14.8164 21.7368ZM5.74664 8.92906C5.70746 8.5167 5.34142 8.21418 4.92906 8.25336C4.5167 8.29254 4.21418 8.65858 4.25336 9.07094L5.74664 8.92906ZM19.7466 9.07094C19.7858 8.65858 19.4833 8.29254 19.0709 8.25336C18.6586 8.21418 18.2925 8.5167 18.2534 8.92906L19.7466 9.07094ZM20 7.75C20.4142 7.75 20.75 7.41421 20.75 7C20.75 6.58579 20.4142 6.25 20 6.25V7.75ZM4 6.25C3.58579 6.25 3.25 6.58579 3.25 7C3.25 7.41421 3.58579 7.75 4 7.75V6.25ZM9.25 18C9.25 18.4142 9.58579 18.75 10 18.75C10.4142 18.75 10.75 18.4142 10.75 18H9.25ZM10.75 10C10.75 9.58579 10.4142 9.25 10 9.25C9.58579 9.25 9.25 9.58579 9.25 10H10.75ZM13.25 18C13.25 18.4142 13.5858 18.75 14 18.75C14.4142 18.75 14.75 18.4142 14.75 18H13.25ZM14.75 10C14.75 9.58579 14.4142 9.25 14 9.25C13.5858 9.25 13.25 9.58579 13.25 10H14.75ZM16 7V7.75H16.75V7H16ZM8 7H7.25V7.75H8V7ZM17.7744 12.6761L17.512 14.5611L18.9977 14.7679L19.26 12.8829L17.7744 12.6761ZM6.48798 14.5611L6.22564 12.6761L4.73996 12.8829L5.0023 14.7679L6.48798 14.5611ZM12 21.25C10.4708 21.25 9.92544 21.2358 9.47524 21.0458L8.89206 22.4278C9.68914 22.7642 10.6056 22.75 12 22.75V21.25ZM5.0023 14.7679C5.282 16.7777 5.43406 17.9017 5.77109 18.819L7.17907 18.3017C6.91156 17.5736 6.77851 16.6488 6.48798 14.5611L5.0023 14.7679ZM9.47524 21.0458C8.55279 20.6566 7.69496 19.7058 7.17907 18.3017L5.77109 18.819C6.3857 20.4918 7.48205 21.8328 8.89206 22.4278L9.47524 21.0458ZM17.512 14.5611C17.2215 16.6488 17.0884 17.5736 16.8209 18.3017L18.2289 18.819C18.5659 17.9017 18.718 16.7777 18.9977 14.7679L17.512 14.5611ZM12 22.75C13.3944 22.75 14.3109 22.7642 15.1079 22.4278L14.5248 21.0458C14.0746 21.2358 13.5292 21.25 12 21.25V22.75ZM16.8209 18.3017C16.305 19.7058 15.4472 20.6566 14.5248 21.0458L15.1079 22.4278C16.5179 21.8328 17.6143 20.4918 18.2289 18.819L16.8209 18.3017ZM6.22564 12.6761C6.00352 11.08 5.83766 9.88703 5.74664 8.92906L4.25336 9.07094C4.34819 10.069 4.51961 11.2995 4.73996 12.8829L6.22564 12.6761ZM19.26 12.8829C19.4804 11.2995 19.6518 10.069 19.7466 9.07094L18.2534 8.92906C18.1623 9.88702 17.9965 11.08 17.7744 12.6761L19.26 12.8829ZM20 6.25H4V7.75H20V6.25ZM10.75 18V10H9.25V18H10.75ZM14.75 18V10H13.25V18H14.75ZM15.25 6V7H16.75V6H15.25ZM16 6.25H8V7.75H16V6.25ZM8.75 7V6H7.25V7H8.75ZM12 2.75C13.7949 2.75 15.25 4.20507 15.25 6H16.75C16.75 3.37665 14.6234 1.25 12 1.25V2.75ZM12 1.25C9.37665 1.25 7.25 3.37665 7.25 6H8.75C8.75 4.20507 10.2051 2.75 12 2.75V1.25Z" fill="#FAFAFA"/>
</svg>
