<svg width="24" height="24" viewBox="0 0 24 24" fill="none" xmlns="http://www.w3.org/2000/svg">
<path d="M7.23702 3.74993C9.44303 2.47629 10.546 1.83947 11.7522 1.77959C11.9174 1.77139 12.0829 1.77139 12.2481 1.77959C13.4543 1.83947 14.5573 2.47629 16.7633 3.74993C18.9693 5.02358 20.0723 5.6604 20.7273 6.67504C20.817 6.814 20.8997 6.95732 20.9752 7.10448C21.5264 8.17901 21.5264 9.45265 21.5264 11.9999C21.5264 14.5472 21.5264 15.8209 20.9752 16.8954C20.8997 17.0425 20.817 17.1859 20.7273 17.3248C20.0723 18.3395 18.9693 18.9763 16.7633 20.2499C14.5573 21.5236 13.4543 22.1604 12.2481 22.2203C12.0829 22.2285 11.9174 22.2285 11.7522 22.2203C10.546 22.1604 9.44303 21.5236 7.23702 20.2499C5.03101 18.9763 3.928 18.3395 3.27305 17.3248C3.18335 17.1859 3.1006 17.0425 3.02511 16.8954C2.47388 15.8209 2.47388 14.5472 2.47388 11.9999C2.47388 9.45265 2.47388 8.17901 3.02511 7.10448C3.1006 6.95732 3.18335 6.814 3.27305 6.67504C3.928 5.6604 5.03101 5.02358 7.23702 3.74993Z" stroke="#FAFAFA" stroke-width="1.5"/>
<path d="M10.0161 11.1038C10.2192 10.6107 10.6108 10.219 11.104 10.016L13.7808 8.91374C14.6028 8.57529 15.4247 9.39723 15.0863 10.2192L13.984 12.896C13.7809 13.3892 13.3893 13.7808 12.8962 13.9839L10.2193 15.0861C9.39735 15.4246 8.57541 14.6026 8.91386 13.7807L10.0161 11.1038Z" stroke="#FAFAFA" stroke-width="1.5"/>
</svg>
