<svg width="24" height="24" viewBox="0 0 24 24" fill="none" xmlns="http://www.w3.org/2000/svg">
<path d="M3.73005 18.455L4.07054 17.7868L3.73005 18.455ZM1.54497 16.27L2.21322 15.9295L1.54497 16.27ZM22.455 16.27L21.7868 15.9295L22.455 16.27ZM20.27 18.455L19.9295 17.7868L20.27 18.455ZM20.27 3.54497L19.9295 4.21322L20.27 3.54497ZM22.455 5.73005L21.7868 6.07054L22.455 5.73005ZM3.73005 3.54497L4.07054 4.21322L3.73005 3.54497ZM1.54497 5.73005L2.21322 6.07054L1.54497 5.73005ZM7.8181 22.2724C7.41625 22.3729 7.17193 22.7801 7.27239 23.1819C7.37285 23.5837 7.78006 23.8281 8.1819 23.7276L7.8181 22.2724ZM9.57465 22.6063L9.39274 21.8787L9.57465 22.6063ZM14.4254 22.6063L14.6073 21.8787L14.4254 22.6063ZM15.8181 23.7276C16.2199 23.8281 16.6271 23.5837 16.7276 23.1819C16.8281 22.7801 16.5837 22.3729 16.1819 22.2724L15.8181 23.7276ZM12.75 19C12.75 18.5858 12.4142 18.25 12 18.25C11.5858 18.25 11.25 18.5858 11.25 19H12.75ZM12 15.25C11.5858 15.25 11.25 15.5858 11.25 16C11.25 16.4142 11.5858 16.75 12 16.75V15.25ZM18 16.75C18.4142 16.75 18.75 16.4142 18.75 16C18.75 15.5858 18.4142 15.25 18 15.25V16.75ZM12 22.3078V23.0578V22.3078ZM9 3.75H15V2.25H9V3.75ZM15 18.25H9V19.75H15V18.25ZM9 18.25C7.58749 18.25 6.57322 18.2494 5.77708 18.1844C4.9897 18.12 4.48197 17.9964 4.07054 17.7868L3.38955 19.1233C4.04768 19.4586 4.77479 19.6075 5.65494 19.6794C6.52632 19.7506 7.61224 19.75 9 19.75V18.25ZM0.25 11C0.25 12.3878 0.249417 13.4737 0.320612 14.3451C0.392522 15.2252 0.541378 15.9523 0.876713 16.6104L2.21322 15.9295C2.00359 15.518 1.87996 15.0103 1.81563 14.2229C1.75058 13.4268 1.75 12.4125 1.75 11H0.25ZM4.07054 17.7868C3.27085 17.3793 2.62068 16.7291 2.21322 15.9295L0.876713 16.6104C1.42798 17.6924 2.30762 18.572 3.38955 19.1233L4.07054 17.7868ZM22.25 11C22.25 12.4125 22.2494 13.4268 22.1844 14.2229C22.12 15.0103 21.9964 15.518 21.7868 15.9295L23.1233 16.6104C23.4586 15.9523 23.6075 15.2252 23.6794 14.3451C23.7506 13.4737 23.75 12.3878 23.75 11H22.25ZM15 19.75C16.3878 19.75 17.4737 19.7506 18.3451 19.6794C19.2252 19.6075 19.9523 19.4586 20.6104 19.1233L19.9295 17.7868C19.518 17.9964 19.0103 18.12 18.2229 18.1844C17.4268 18.2494 16.4125 18.25 15 18.25V19.75ZM21.7868 15.9295C21.3793 16.7291 20.7291 17.3793 19.9295 17.7868L20.6104 19.1233C21.6924 18.572 22.572 17.6924 23.1233 16.6104L21.7868 15.9295ZM15 3.75C16.4125 3.75 17.4268 3.75058 18.2229 3.81563C19.0103 3.87996 19.518 4.00359 19.9295 4.21322L20.6104 2.87671C19.9523 2.54138 19.2252 2.39252 18.3451 2.32061C17.4737 2.24942 16.3878 2.25 15 2.25V3.75ZM23.75 11C23.75 9.61224 23.7506 8.52632 23.6794 7.65494C23.6075 6.77479 23.4586 6.04768 23.1233 5.38955L21.7868 6.07054C21.9964 6.48197 22.12 6.9897 22.1844 7.77708C22.2494 8.57322 22.25 9.58749 22.25 11H23.75ZM19.9295 4.21322C20.7291 4.62068 21.3793 5.27085 21.7868 6.07054L23.1233 5.38955C22.572 4.30762 21.6924 3.42798 20.6104 2.87671L19.9295 4.21322ZM9 2.25C7.61224 2.25 6.52632 2.24942 5.65494 2.32061C4.77479 2.39252 4.04768 2.54138 3.38955 2.87671L4.07054 4.21322C4.48197 4.00359 4.9897 3.87996 5.77708 3.81563C6.57322 3.75058 7.58749 3.75 9 3.75V2.25ZM1.75 11C1.75 9.58749 1.75058 8.57322 1.81563 7.77708C1.87996 6.9897 2.00359 6.48197 2.21322 6.07054L0.876713 5.38955C0.541378 6.04768 0.392522 6.77479 0.320612 7.65494C0.249417 8.52632 0.25 9.61224 0.25 11H1.75ZM3.38955 2.87671C2.30762 3.42798 1.42798 4.30762 0.876713 5.38955L2.21322 6.07054C2.62068 5.27085 3.27085 4.62068 4.07054 4.21322L3.38955 2.87671ZM8.1819 23.7276L9.75655 23.3339L9.39274 21.8787L7.8181 22.2724L8.1819 23.7276ZM14.2435 23.3339L15.8181 23.7276L16.1819 22.2724L14.6073 21.8787L14.2435 23.3339ZM12.75 22V19H11.25V22H12.75ZM12 16.75L18 16.75V15.25L12 15.25V16.75ZM9.75655 23.3339C10.493 23.1498 11.2465 23.0578 12 23.0578V21.5578C11.1243 21.5578 10.2487 21.6648 9.39274 21.8787L9.75655 23.3339ZM12 23.0578C12.7535 23.0578 13.507 23.1498 14.2435 23.3339L14.6073 21.8787C13.7513 21.6648 12.8757 21.5578 12 21.5578V23.0578ZM11.25 22V22.3078H12.75V22H11.25Z" fill="#FAFAFA"/>
<path d="M8 16C8 16.5523 7.55228 17 7 17C6.44772 17 6 16.5523 6 16C6 15.4477 6.44772 15 7 15C7.55228 15 8 15.4477 8 16Z" fill="#FAFAFA"/>
</svg>
