<svg width="24" height="24" viewBox="0 0 24 24" fill="none" xmlns="http://www.w3.org/2000/svg">
<path d="M18.6884 3.4634L19.0037 2.78291L18.6884 3.4634ZM20.827 5.35133L21.4631 4.95403L20.827 5.35133ZM3.17319 5.35133L2.53707 4.95403L3.17319 5.35133ZM5.3118 3.4634L4.99647 2.78291L5.3118 3.4634ZM4.22948 18.3673L4.59466 17.7122H4.59466L4.22948 18.3673ZM2.0285 15.874L1.33317 16.1551L2.0285 15.874ZM19.7707 18.3673L19.4055 17.7122L19.7707 18.3673ZM21.9717 15.874L22.667 16.1551L21.9717 15.874ZM7.8182 22.2724C7.41635 22.3729 7.17203 22.7801 7.27249 23.1819C7.37295 23.5837 7.78016 23.8281 8.182 23.7276L7.8182 22.2724ZM9.57474 22.6063L9.39284 21.8787L9.57474 22.6063ZM14.4255 22.6063L14.6074 21.8787L14.4255 22.6063ZM15.8182 23.7276C16.22 23.8281 16.6272 23.5837 16.7277 23.1819C16.8282 22.7801 16.5838 22.3729 16.182 22.2724L15.8182 23.7276ZM12.7501 19C12.7501 18.5858 12.4143 18.25 12.0001 18.25C11.5859 18.25 11.2501 18.5858 11.2501 19H12.7501ZM12.0001 22.3078V23.0578V22.3078ZM13.9378 18.25H10.0624V19.75H13.9378V18.25ZM10.0624 3.75H13.9378V2.25H10.0624V3.75ZM13.9378 3.75C15.1996 3.75 16.1035 3.75052 16.818 3.8057C17.5232 3.86016 17.9866 3.9648 18.3731 4.14389L19.0037 2.78291C18.3902 2.4986 17.7284 2.37154 16.9335 2.31015C16.1478 2.24948 15.1765 2.25 13.9378 2.25V3.75ZM22.6203 9.9147C22.4666 8.68564 22.3467 7.72169 22.189 6.94964C22.0295 6.16844 21.8214 5.52758 21.4631 4.95403L20.1909 5.74863C20.4165 6.10991 20.5778 6.55673 20.7193 7.24975C20.8627 7.95193 20.9754 8.84876 21.1319 10.1007L22.6203 9.9147ZM18.3731 4.14389C19.122 4.49093 19.7536 5.04854 20.1909 5.74863L21.4631 4.95403C20.8716 4.00685 20.017 3.25244 19.0037 2.78291L18.3731 4.14389ZM2.86834 10.1007C3.02484 8.84876 3.13747 7.95193 3.28085 7.24975C3.42236 6.55673 3.58367 6.10991 3.80932 5.74863L2.53707 4.95403C2.17885 5.52758 1.9707 6.16844 1.81118 6.94964C1.65353 7.72169 1.53356 8.68564 1.37993 9.9147L2.86834 10.1007ZM10.0624 2.25C8.82374 2.25 7.85235 2.24948 7.06671 2.31015C6.27175 2.37154 5.61002 2.4986 4.99647 2.78291L5.62713 4.14389C6.01361 3.9648 6.47698 3.86016 7.18221 3.8057C7.89675 3.75052 8.80062 3.75 10.0624 3.75V2.25ZM3.80932 5.74863C4.24657 5.04854 4.87822 4.49093 5.62713 4.14389L4.99647 2.78291C3.98323 3.25244 3.12864 4.00685 2.53707 4.95403L3.80932 5.74863ZM10.0624 18.25C8.48329 18.25 7.34645 18.2494 6.461 18.1736C5.58312 18.0986 5.02888 17.9542 4.59466 17.7122L3.8643 19.0224C4.56511 19.413 5.36138 19.5851 6.33319 19.6682C7.29745 19.7506 8.50953 19.75 10.0624 19.75V18.25ZM1.37993 9.9147C1.18732 11.4555 1.03634 12.6582 0.998568 13.6252C0.960495 14.5998 1.03244 15.4113 1.33317 16.1551L2.72383 15.5929C2.5375 15.132 2.46303 14.5642 2.49742 13.6838C2.53211 12.7958 2.67248 11.6676 2.86834 10.1007L1.37993 9.9147ZM4.59466 17.7122C3.7475 17.2399 3.08735 16.4921 2.72383 15.5929L1.33317 16.1551C1.825 17.3717 2.71814 18.3834 3.8643 19.0224L4.59466 17.7122ZM13.9378 19.75C15.4907 19.75 16.7027 19.7506 17.667 19.6682C18.6388 19.5851 19.4351 19.413 20.1359 19.0224L19.4055 17.7122C18.9713 17.9542 18.4171 18.0986 17.5392 18.1736C16.6537 18.2494 15.5169 18.25 13.9378 18.25V19.75ZM21.1319 10.1007C21.3277 11.6676 21.4681 12.7958 21.5028 13.6838C21.5372 14.5642 21.4627 15.132 21.2764 15.5929L22.667 16.1551C22.9678 15.4113 23.0397 14.5998 23.0016 13.6252C22.9639 12.6582 22.8129 11.4555 22.6203 9.9147L21.1319 10.1007ZM20.1359 19.0224C21.2821 18.3834 22.1752 17.3717 22.667 16.1551L21.2764 15.5929C20.9128 16.4921 20.2527 17.2399 19.4055 17.7122L20.1359 19.0224ZM8.182 23.7276L9.75665 23.3339L9.39284 21.8787L7.8182 22.2724L8.182 23.7276ZM14.2436 23.3339L15.8182 23.7276L16.182 22.2724L14.6074 21.8787L14.2436 23.3339ZM12.7501 22V19H11.2501V22H12.7501ZM9.75665 23.3339C10.4931 23.1498 11.2466 23.0578 12.0001 23.0578V21.5578C11.1244 21.5578 10.2488 21.6648 9.39284 21.8787L9.75665 23.3339ZM12.0001 23.0578C12.7536 23.0578 13.5071 23.1498 14.2436 23.3339L14.6074 21.8787C13.7514 21.6648 12.8758 21.5578 12.0001 21.5578V23.0578ZM11.2501 22V22.3078H12.7501V22H11.2501Z" fill="#FAFAFA"/>
</svg>
