<svg width="24" height="24" viewBox="0 0 24 24" fill="none" xmlns="http://www.w3.org/2000/svg">
<path d="M12 4.25C11.5858 4.25 11.25 4.58579 11.25 5C11.25 5.41421 11.5858 5.75 12 5.75V4.25ZM20 5.75C20.4142 5.75 20.75 5.41421 20.75 5C20.75 4.58579 20.4142 4.25 20 4.25V5.75ZM12 18.25C11.5858 18.25 11.25 18.5858 11.25 19C11.25 19.4142 11.5858 19.75 12 19.75V18.25ZM20 19.75C20.4142 19.75 20.75 19.4142 20.75 19C20.75 18.5858 20.4142 18.25 20 18.25V19.75ZM12 12.75C12.4142 12.75 12.75 12.4142 12.75 12C12.75 11.5858 12.4142 11.25 12 11.25V12.75ZM4 11.25C3.58579 11.25 3.25 11.5858 3.25 12C3.25 12.4142 3.58579 12.75 4 12.75L4 11.25ZM12 5.75L20 5.75V4.25L12 4.25V5.75ZM12 19.75H20V18.25H12V19.75ZM12 11.25L4 11.25L4 12.75L12 12.75V11.25ZM3.25 5C3.25 6.51878 4.48122 7.75 6 7.75V6.25C5.30964 6.25 4.75 5.69036 4.75 5H3.25ZM6 7.75C7.51878 7.75 8.75 6.51878 8.75 5H7.25C7.25 5.69036 6.69036 6.25 6 6.25V7.75ZM8.75 5C8.75 3.48122 7.51878 2.25 6 2.25V3.75C6.69036 3.75 7.25 4.30964 7.25 5H8.75ZM6 2.25C4.48122 2.25 3.25 3.48122 3.25 5H4.75C4.75 4.30964 5.30964 3.75 6 3.75V2.25ZM3.25 19C3.25 20.5188 4.48122 21.75 6 21.75V20.25C5.30964 20.25 4.75 19.6904 4.75 19H3.25ZM6 21.75C7.51878 21.75 8.75 20.5188 8.75 19H7.25C7.25 19.6904 6.69036 20.25 6 20.25V21.75ZM8.75 19C8.75 17.4812 7.51878 16.25 6 16.25V17.75C6.69036 17.75 7.25 18.3096 7.25 19H8.75ZM6 16.25C4.48122 16.25 3.25 17.4812 3.25 19H4.75C4.75 18.3096 5.30964 17.75 6 17.75V16.25ZM20.75 12C20.75 10.4812 19.5188 9.25 18 9.25V10.75C18.6904 10.75 19.25 11.3096 19.25 12H20.75ZM18 9.25C16.4812 9.25 15.25 10.4812 15.25 12H16.75C16.75 11.3096 17.3096 10.75 18 10.75V9.25ZM15.25 12C15.25 13.5188 16.4812 14.75 18 14.75V13.25C17.3096 13.25 16.75 12.6904 16.75 12H15.25ZM18 14.75C19.5188 14.75 20.75 13.5188 20.75 12H19.25C19.25 12.6904 18.6904 13.25 18 13.25V14.75Z" fill="#FAFAFA"/>
</svg>
