<svg width="24" height="24" viewBox="0 0 24 24" fill="none" xmlns="http://www.w3.org/2000/svg">
<path d="M18.4832 18.4989L17.8596 18.0823L18.4832 18.4989ZM5.99987 6.01558L5.58319 5.39197L5.99987 6.01558ZM9.0164 4.72012L8.85109 3.98856L9.0164 4.72012ZM19.7787 15.4824L19.0471 15.3171L19.7787 15.4824ZM17.4442 2.18389L17.1571 2.8768L17.4442 2.18389ZM22.3149 7.05465L23.0078 6.76764L22.3149 7.05465ZM19.4657 10.4988V11.2488V10.4988ZM18.5 10.4988V9.7488V10.4988ZM14 5.9988H13.25H14ZM14 5.03307H14.75H14ZM19.0471 15.3171C18.8253 16.2989 18.4245 17.2368 17.8596 18.0823L19.1068 18.9156C19.7744 17.9165 20.2481 16.8079 20.5102 15.6477L19.0471 15.3171ZM17.8596 18.0823C16.9531 19.439 15.6646 20.4964 14.1571 21.1208L14.7312 22.5066C16.5127 21.7687 18.0355 20.519 19.1068 18.9156L17.8596 18.0823ZM14.1571 21.1208C12.6497 21.7452 10.9909 21.9086 9.39051 21.5903L9.09787 23.0615C10.9892 23.4377 12.9496 23.2446 14.7312 22.5066L14.1571 21.1208ZM9.39051 21.5903C7.79016 21.272 6.32016 20.4862 5.16637 19.3324L4.10571 20.3931C5.46927 21.7567 7.20656 22.6853 9.09787 23.0615L9.39051 21.5903ZM5.16637 19.3324C4.01259 18.1787 3.22685 16.7086 2.90853 15.1083L1.43735 15.4009C1.81355 17.2922 2.74215 19.0295 4.10571 20.3931L5.16637 19.3324ZM2.90853 15.1083C2.5902 13.508 2.75357 11.8492 3.378 10.3417L1.99218 9.76764C1.25422 11.5492 1.06114 13.5096 1.43735 15.4009L2.90853 15.1083ZM3.378 10.3417C4.00242 8.83417 5.05984 7.5457 6.41655 6.63918L5.58319 5.39197C3.97981 6.46332 2.73013 7.98606 1.99218 9.76764L3.378 10.3417ZM6.41655 6.63918C7.26198 6.07428 8.19995 5.67351 9.1817 5.45167L8.85109 3.98856C7.69088 4.25073 6.58234 4.72436 5.58319 5.39197L6.41655 6.63918ZM10.25 6.4988V8.4988H11.75V6.4988H10.25ZM16 14.2488H18V12.7488H16V14.2488ZM10.25 8.4988C10.25 11.6744 12.8244 14.2488 16 14.2488V12.7488C13.6528 12.7488 11.75 10.846 11.75 8.4988H10.25ZM9.1817 5.45167C9.67431 5.34036 10.25 5.74902 10.25 6.4988H11.75C11.75 5.03945 10.5133 3.61296 8.85109 3.98856L9.1817 5.45167ZM20.5102 15.6477C20.8858 13.9855 19.4594 12.7488 18 12.7488V14.2488C18.7498 14.2488 19.1584 14.8245 19.0471 15.3171L20.5102 15.6477ZM17.1571 2.8768C18.1581 3.2914 19.0676 3.89909 19.8336 4.66517L20.8943 3.60451C19.9889 2.69914 18.9141 1.98096 17.7312 1.49098L17.1571 2.8768ZM19.8336 4.66517C20.5997 5.43125 21.2074 6.34073 21.622 7.34166L23.0078 6.76764C22.5178 5.58471 21.7997 4.50988 20.8943 3.60451L19.8336 4.66517ZM19.4657 9.7488H18.5V11.2488H19.4657V9.7488ZM14.75 5.9988V5.03307H13.25V5.9988H14.75ZM21.622 7.34166C21.8737 7.94934 21.7342 8.51071 21.3404 8.95635C20.9297 9.42115 20.24 9.7488 19.4657 9.7488V11.2488C20.6434 11.2488 21.7518 10.756 22.4644 9.94961C23.194 9.12401 23.5031 7.96331 23.0078 6.76764L21.622 7.34166ZM18.5 9.7488C16.4289 9.7488 14.75 8.06987 14.75 5.9988H13.25C13.25 8.8983 15.6005 11.2488 18.5 11.2488V9.7488ZM17.7312 1.49098C16.5355 0.995713 15.3748 1.30483 14.5492 2.03438C13.7428 2.747 13.25 3.85542 13.25 5.03307H14.75C14.75 4.2588 15.0777 3.56914 15.5425 3.15841C15.9881 2.76461 16.5495 2.62509 17.1571 2.8768L17.7312 1.49098Z" fill="#FAFAFA"/>
</svg>
