<svg width="24" height="24" viewBox="0 0 24 24" fill="none" xmlns="http://www.w3.org/2000/svg">
<path d="M3.73005 19.455L4.07054 18.7868L3.73005 19.455ZM1.54497 17.27L2.21322 16.9295L1.54497 17.27ZM22.455 17.27L21.7868 16.9295L22.455 17.27ZM20.27 19.455L19.9295 18.7868L20.27 19.455ZM20.27 4.54497L19.9295 5.21322L20.27 4.54497ZM22.455 6.73005L21.7868 7.07054L22.455 6.73005ZM3.73005 4.54497L4.07054 5.21322L3.73005 4.54497ZM1.54497 6.73005L2.21322 7.07054L1.54497 6.73005ZM8 14.25C7.58579 14.25 7.25 14.5858 7.25 15C7.25 15.4142 7.58579 15.75 8 15.75V14.25ZM16 15.75C16.4142 15.75 16.75 15.4142 16.75 15C16.75 14.5858 16.4142 14.25 16 14.25V15.75ZM16 8.25C15.5858 8.25 15.25 8.58579 15.25 9C15.25 9.41421 15.5858 9.75 16 9.75V8.25ZM20 9.75C20.4142 9.75 20.75 9.41421 20.75 9C20.75 8.58579 20.4142 8.25 20 8.25V9.75ZM9 4.75H15V3.25H9V4.75ZM15 19.25H9V20.75H15V19.25ZM9 19.25C7.58749 19.25 6.57322 19.2494 5.77708 19.1844C4.9897 19.12 4.48197 18.9964 4.07054 18.7868L3.38955 20.1233C4.04768 20.4586 4.77479 20.6075 5.65494 20.6794C6.52632 20.7506 7.61224 20.75 9 20.75V19.25ZM0.25 12C0.25 13.3878 0.249417 14.4737 0.320612 15.3451C0.392522 16.2252 0.541378 16.9523 0.876713 17.6104L2.21322 16.9295C2.00359 16.518 1.87996 16.0103 1.81563 15.2229C1.75058 14.4268 1.75 13.4125 1.75 12H0.25ZM4.07054 18.7868C3.27085 18.3793 2.62068 17.7291 2.21322 16.9295L0.876713 17.6104C1.42798 18.6924 2.30762 19.572 3.38955 20.1233L4.07054 18.7868ZM22.25 12C22.25 13.4125 22.2494 14.4268 22.1844 15.2229C22.12 16.0103 21.9964 16.518 21.7868 16.9295L23.1233 17.6104C23.4586 16.9523 23.6075 16.2252 23.6794 15.3451C23.7506 14.4737 23.75 13.3878 23.75 12H22.25ZM15 20.75C16.3878 20.75 17.4737 20.7506 18.3451 20.6794C19.2252 20.6075 19.9523 20.4586 20.6104 20.1233L19.9295 18.7868C19.518 18.9964 19.0103 19.12 18.2229 19.1844C17.4268 19.2494 16.4125 19.25 15 19.25V20.75ZM21.7868 16.9295C21.3793 17.7291 20.7291 18.3793 19.9295 18.7868L20.6104 20.1233C21.6924 19.572 22.572 18.6924 23.1233 17.6104L21.7868 16.9295ZM15 4.75C16.4125 4.75 17.4268 4.75058 18.2229 4.81563C19.0103 4.87996 19.518 5.00359 19.9295 5.21322L20.6104 3.87671C19.9523 3.54138 19.2252 3.39252 18.3451 3.32061C17.4737 3.24942 16.3878 3.25 15 3.25V4.75ZM23.75 12C23.75 10.6122 23.7506 9.52632 23.6794 8.65494C23.6075 7.77479 23.4586 7.04768 23.1233 6.38955L21.7868 7.07054C21.9964 7.48197 22.12 7.9897 22.1844 8.77708C22.2494 9.57322 22.25 10.5875 22.25 12H23.75ZM19.9295 5.21322C20.7291 5.62068 21.3793 6.27085 21.7868 7.07054L23.1233 6.38955C22.572 5.30762 21.6924 4.42798 20.6104 3.87671L19.9295 5.21322ZM9 3.25C7.61224 3.25 6.52632 3.24942 5.65494 3.32061C4.77479 3.39252 4.04768 3.54138 3.38955 3.87671L4.07054 5.21322C4.48197 5.00359 4.9897 4.87996 5.77708 4.81563C6.57322 4.75058 7.58749 4.75 9 4.75V3.25ZM1.75 12C1.75 10.5875 1.75058 9.57322 1.81563 8.77708C1.87996 7.9897 2.00359 7.48197 2.21322 7.07054L0.876713 6.38955C0.541378 7.04768 0.392522 7.77479 0.320612 8.65494C0.249417 9.52632 0.25 10.6122 0.25 12H1.75ZM3.38955 3.87671C2.30762 4.42798 1.42798 5.30762 0.876713 6.38955L2.21322 7.07054C2.62068 6.27085 3.27085 5.62068 4.07054 5.21322L3.38955 3.87671ZM8 15.75H16V14.25H8V15.75ZM16 9.75L20 9.75V8.25L16 8.25V9.75Z" fill="#FAFAFA"/>
<path d="M6 15C6 15.5523 5.55228 16 5 16C4.44772 16 4 15.5523 4 15C4 14.4477 4.44772 14 5 14C5.55228 14 6 14.4477 6 15Z" fill="#FAFAFA"/>
<path d="M20 15C20 15.5523 19.5523 16 19 16C18.4477 16 18 15.5523 18 15C18 14.4477 18.4477 14 19 14C19.5523 14 20 14.4477 20 15Z" fill="#FAFAFA"/>
<path d="M10 9C10 9.55228 9.55228 10 9 10C8.44772 10 8 9.55228 8 9C8 8.44772 8.44772 8 9 8C9.55228 8 10 8.44772 10 9Z" fill="#FAFAFA"/>
<path d="M14 9C14 9.55228 13.5523 10 13 10C12.4477 10 12 9.55228 12 9C12 8.44772 12.4477 8 13 8C13.5523 8 14 8.44772 14 9Z" fill="#FAFAFA"/>
<path d="M6 9C6 9.55228 5.55228 10 5 10C4.44772 10 4 9.55228 4 9C4 8.44772 4.44772 8 5 8C5.55228 8 6 8.44772 6 9Z" fill="#FAFAFA"/>
</svg>
