<svg width="24" height="24" viewBox="0 0 24 24" fill="none" xmlns="http://www.w3.org/2000/svg">
<path d="M3.67988 10.8577L4.05488 10.2082H4.05488L3.67988 10.8577ZM3.48914 10.742L3.05229 11.3516H3.05229L3.48914 10.742ZM3.2681 9.32089L3.91762 9.69589L3.2681 9.32089ZM3.16076 9.51644L2.47761 9.20691L3.16076 9.51644ZM18.8566 18.3209L19.5061 18.6959L18.8566 18.3209ZM18.7409 18.5116L19.3505 18.9485L18.7409 18.5116ZM17.3198 18.7327L17.6948 18.0832L17.3198 18.7327ZM17.5153 18.84L17.2058 19.5232L17.5153 18.84ZM15.9741 7.56344L15.5991 8.21296L15.9741 7.56344ZM17.3092 8.37319L17.7461 7.76356L17.3092 8.37319ZM19.6079 16.9521L20.2911 17.2616L19.6079 16.9521ZM14.0255 6.43844L14.4005 5.78892L14.0255 6.43844ZM12.6567 5.68707L12.9663 5.00393L12.6567 5.68707ZM4.07785 7.98578L4.68748 8.42263L4.07785 7.98578ZM17.4991 2.67071L17.1241 3.32023V3.32023L17.4991 2.67071ZM19.3292 9.50083L19.9788 9.87583V9.87583L19.3292 9.50083ZM10.669 4.50083L11.3185 4.87583L11.3185 4.87583L10.669 4.50083ZM19.0234 10.0305L19.602 10.5077L19.6417 10.4596L19.6729 10.4055L19.0234 10.0305ZM10.4998 14.7952L10.8748 14.1457L10.8748 14.1457L10.4998 14.7952ZM5.85031 21.3484C5.6432 21.7071 5.76611 22.1658 6.12483 22.3729C6.48354 22.58 6.94224 22.4571 7.14934 22.0984L5.85031 21.3484ZM10.3317 5.08505L10.2714 5.83263L10.3317 5.08505ZM10.4688 14.7773L10.0938 15.4268L10.0938 15.4268L10.4688 14.7773ZM13.6505 7.08796L15.5991 8.21296L16.3491 6.91392L14.4005 5.78892L13.6505 7.08796ZM4.05488 10.2082C4.00241 10.1779 3.9712 10.1598 3.94786 10.1458C3.92571 10.1325 3.92251 10.1299 3.926 10.1324L3.05229 11.3516C3.12972 11.4071 3.2198 11.4581 3.30488 11.5072L4.05488 10.2082ZM2.61858 8.94589C2.56946 9.03097 2.51693 9.12014 2.47761 9.20691L3.84391 9.82597C3.84213 9.82988 3.84358 9.82599 3.85611 9.8034C3.86932 9.7796 3.88733 9.74836 3.91762 9.69589L2.61858 8.94589ZM3.926 10.1324C3.82906 10.0629 3.79468 9.93461 3.84391 9.82597L2.47761 9.20691C2.13305 9.96737 2.37366 10.8653 3.05229 11.3516L3.926 10.1324ZM18.207 17.9459C18.1767 17.9984 18.1587 18.0296 18.1447 18.0529C18.1314 18.0751 18.1287 18.0783 18.1312 18.0748L19.3505 18.9485C19.406 18.871 19.457 18.781 19.5061 18.6959L18.207 17.9459ZM16.9448 19.3822C17.0298 19.4313 17.119 19.4838 17.2058 19.5232L17.8249 18.1569C17.8288 18.1586 17.8249 18.1572 17.8023 18.1447C17.7785 18.1315 17.7472 18.1134 17.6948 18.0832L16.9448 19.3822ZM18.1312 18.0748C18.0618 18.1717 17.9335 18.2061 17.8249 18.1569L17.2058 19.5232C17.9663 19.8677 18.8642 19.6271 19.3505 18.9485L18.1312 18.0748ZM15.5991 8.21296C16.3183 8.62818 16.6303 8.80939 16.8724 8.98283L17.7461 7.76356C17.4291 7.53638 17.0374 7.3113 16.3491 6.91392L15.5991 8.21296ZM19.5061 18.6959C19.9034 18.0076 20.1301 17.6169 20.2911 17.2616L18.9248 16.6425C18.8019 16.9138 18.6223 17.2267 18.207 17.9459L19.5061 18.6959ZM14.4005 5.78892C13.7123 5.39155 13.3215 5.16489 12.9663 5.00393L12.3472 6.37022C12.6184 6.49311 12.9314 6.67274 13.6505 7.08796L14.4005 5.78892ZM3.91762 9.69589C4.33284 8.97671 4.51405 8.66466 4.68748 8.42263L3.46821 7.54892C3.24103 7.86594 3.01595 8.25762 2.61858 8.94589L3.91762 9.69589ZM17.1241 3.32023C19.1568 4.49383 19.8533 7.09309 18.6797 9.12583L19.9788 9.87583C21.5666 7.12565 20.6243 3.60901 17.8741 2.02119L17.1241 3.32023ZM11.3185 4.87583C12.4921 2.84309 15.0914 2.14662 17.1241 3.32023L17.8741 2.02119C15.1239 0.433371 11.6073 1.37565 10.0195 4.12583L11.3185 4.87583ZM18.6797 9.12583L18.3739 9.65551L19.6729 10.4055L19.9788 9.87583L18.6797 9.12583ZM9.85031 14.4202L5.85031 21.3484L7.14934 22.0984L11.1493 15.1702L9.85031 14.4202ZM10.9812 5.46005L11.3185 4.87583L10.0195 4.12583L9.68216 4.71005L10.9812 5.46005ZM12.9663 5.00393C12.1338 4.62676 11.2633 4.4077 10.3919 4.33748L10.2714 5.83263C10.9731 5.88918 11.6747 6.06553 12.3472 6.37022L12.9663 5.00393ZM10.3919 4.33748C7.74327 4.124 5.08943 5.28651 3.46821 7.54892L4.68748 8.42263C5.99432 6.59895 8.13403 5.66036 10.2714 5.83263L10.3919 4.33748ZM16.8724 8.98283C17.4694 9.41064 17.9708 9.92697 18.3696 10.5027L19.6027 9.64864C19.1075 8.93362 18.4851 8.29312 17.7461 7.76356L16.8724 8.98283ZM18.3696 10.5027C19.5928 12.2687 19.8523 14.5955 18.9248 16.6425L20.2911 17.2616C21.4417 14.7221 21.1185 11.8371 19.6027 9.64864L18.3696 10.5027ZM18.4448 9.5533L18.4076 9.59846L19.5648 10.5529L19.602 10.5077L18.4448 9.5533ZM17.6948 18.0832L10.8748 14.1457L10.1248 15.4447L16.9448 19.3822L17.6948 18.0832ZM10.8748 14.1457L10.8438 14.1277L10.0938 15.4268L10.1248 15.4447L10.8748 14.1457ZM10.8438 14.1277L4.05488 10.2082L3.30488 11.5072L10.0938 15.4268L10.8438 14.1277Z" fill="#FAFAFA"/>
</svg>
