<svg width="24" height="24" viewBox="0 0 24 24" fill="none" xmlns="http://www.w3.org/2000/svg">
<path d="M4.25 21C4.25 21.4142 4.58579 21.75 5 21.75C5.41421 21.75 5.75 21.4142 5.75 21H4.25ZM18.2189 6.28703L17.794 5.669V5.669L18.2189 6.28703ZM17.9376 6.48039L18.3625 7.09842L18.3625 7.09842L17.9376 6.48039ZM17.9376 10.5196L18.3625 9.90158L18.3625 9.90158L17.9376 10.5196ZM18.2189 10.713L17.794 11.331L17.794 11.331L18.2189 10.713ZM5.75 21L5.75 5H4.25L4.25 21H5.75ZM7 3.75H17.1979V2.25H7V3.75ZM17.1979 13.25H5V14.75H17.1979V13.25ZM17.794 5.669L17.5127 5.86235L18.3625 7.09842L18.6438 6.90507L17.794 5.669ZM17.5127 11.1376L17.794 11.331L18.6438 10.0949L18.3625 9.90158L17.5127 11.1376ZM17.794 11.331C18.0794 11.5273 18.25 11.8515 18.25 12.1979H19.75C19.75 11.3576 19.3363 10.571 18.6438 10.0949L17.794 11.331ZM18.25 4.80206C18.25 5.1485 18.0794 5.47274 17.794 5.669L18.6438 6.90507C19.3363 6.42896 19.75 5.64245 19.75 4.80206H18.25ZM17.5127 5.86235C15.6628 7.13421 15.6628 9.86579 17.5127 11.1376L18.3625 9.90158C17.3795 9.22575 17.3795 7.77425 18.3625 7.09842L17.5127 5.86235ZM17.1979 14.75C18.6074 14.75 19.75 13.6074 19.75 12.1979H18.25C18.25 12.779 17.779 13.25 17.1979 13.25V14.75ZM17.1979 3.75C17.779 3.75 18.25 4.22102 18.25 4.80206H19.75C19.75 3.3926 18.6074 2.25 17.1979 2.25V3.75ZM5.75 5C5.75 4.50739 5.75159 4.21339 5.77992 4.00266C5.79291 3.90611 5.8082 3.85774 5.81716 3.83596C5.81924 3.83092 5.82085 3.8276 5.82186 3.82567C5.82286 3.82376 5.82341 3.82292 5.82347 3.82283C5.82351 3.82277 5.82335 3.823 5.82307 3.82335C5.82279 3.8237 5.82277 3.82368 5.82322 3.82322L4.76256 2.76256C4.45354 3.07159 4.34109 3.44731 4.2933 3.80279C4.24841 4.1367 4.25 4.5498 4.25 5H5.75ZM7 2.25C6.5498 2.25 6.1367 2.24841 5.80279 2.2933C5.44731 2.34109 5.07159 2.45354 4.76256 2.76256L5.82322 3.82322C5.82368 3.82277 5.8237 3.82279 5.82335 3.82307C5.823 3.82335 5.82277 3.82351 5.82283 3.82347C5.82292 3.82341 5.82376 3.82286 5.82567 3.82186C5.82761 3.82085 5.83092 3.81923 5.83597 3.81716C5.85775 3.8082 5.90611 3.79291 6.00266 3.77992C6.21339 3.75159 6.50739 3.75 7 3.75V2.25Z" fill="#FAFAFA"/>
</svg>
