<svg width="24" height="24" viewBox="0 0 24 24" fill="none" xmlns="http://www.w3.org/2000/svg">
<path d="M19.5304 17.4698C19.2375 17.1769 18.7626 17.1769 18.4697 17.4698C18.1768 17.7626 18.1768 18.2375 18.4697 18.5304L19.5304 17.4698ZM22.4696 22.5304C22.7625 22.8233 23.2374 22.8233 23.5303 22.5304C23.8232 22.2375 23.8232 21.7626 23.5303 21.4697L22.4696 22.5304ZM18.4697 18.5304L22.4696 22.5304L23.5303 21.4697L19.5304 17.4698L18.4697 18.5304ZM11 18.25C6.44365 18.25 2.75 14.5563 2.75 10H1.25C1.25 15.3848 5.61522 19.75 11 19.75V18.25ZM19.25 10C19.25 14.5563 15.5563 18.25 11 18.25V19.75C16.3848 19.75 20.75 15.3848 20.75 10H19.25ZM11 1.75C15.5563 1.75 19.25 5.44365 19.25 10H20.75C20.75 4.61522 16.3848 0.25 11 0.25V1.75ZM11 0.25C5.61522 0.25 1.25 4.61522 1.25 10H2.75C2.75 5.44365 6.44365 1.75 11 1.75V0.25Z" fill="#FAFAFA"/>
</svg>
