<svg width="24" height="24" viewBox="0 0 24 24" fill="none" xmlns="http://www.w3.org/2000/svg">
<path d="M3.44718 15.1991L4.0933 14.8182L3.44718 15.1991ZM3.59267 10.3951L4.2134 10.816L3.59267 10.3951ZM11.2173 15.0999L10.5589 14.7407L11.2173 15.0999ZM12.7825 15.0999L13.4409 14.7407L12.7825 15.0999ZM20.5527 15.1991L19.9066 14.8182L20.5527 15.1991ZM20.4072 10.3951L19.7865 10.816L20.4072 10.3951ZM15.1785 2.685L15.7993 2.26404L15.1785 2.685ZM8.82131 2.685L9.44203 3.10595L8.82131 2.685ZM11.2499 20.9979C11.2499 21.4121 11.5857 21.7479 11.9999 21.7479C12.4142 21.7479 12.7499 21.4121 12.7499 20.9979H11.2499ZM12.7499 18.9979C12.7499 18.5837 12.4142 18.2479 11.9999 18.2479C11.5857 18.2479 11.2499 18.5837 11.2499 18.9979H12.7499ZM14.2499 22.9979C14.2499 23.4121 14.5857 23.7479 14.9999 23.7479C15.4142 23.7479 15.7499 23.4121 15.7499 22.9979H14.2499ZM15.7499 20.9979C15.7499 20.5837 15.4142 20.2479 14.9999 20.2479C14.5857 20.2479 14.2499 20.5837 14.2499 20.9979H15.7499ZM8.24995 22.9979C8.24995 23.4121 8.58573 23.7479 8.99995 23.7479C9.41416 23.7479 9.74995 23.4121 9.74995 22.9979H8.24995ZM9.74994 20.9979C9.74994 20.5837 9.41416 20.2479 8.99994 20.2479C8.58573 20.2479 8.24994 20.5837 8.24994 20.9979H9.74994ZM14.5578 3.10595L19.7865 10.816L21.0279 9.97412L15.7993 2.26404L14.5578 3.10595ZM4.2134 10.816L9.44203 3.10595L8.20058 2.26406L2.97195 9.97413L4.2134 10.816ZM4.0933 14.8182C3.35937 13.5731 3.4048 12.0084 4.2134 10.816L2.97195 9.97413C1.83533 11.6502 1.77516 13.8394 2.80106 15.5799L4.0933 14.8182ZM10.5589 14.7407C9.18504 17.2593 5.56023 17.307 4.0933 14.8182L2.80106 15.5799C4.84932 19.055 9.93447 19.0178 11.8758 15.4591L10.5589 14.7407ZM13.4409 14.7407C12.8188 13.6002 11.1811 13.6002 10.5589 14.7407L11.8758 15.4591C11.9294 15.3608 12.0705 15.3608 12.1241 15.4591L13.4409 14.7407ZM19.9066 14.8182C18.4397 17.307 14.8148 17.2593 13.4409 14.7407L12.1241 15.4591C14.0654 19.0178 19.1506 19.055 21.1988 15.5799L19.9066 14.8182ZM19.7865 10.816C20.5951 12.0084 20.6405 13.5731 19.9066 14.8182L21.1988 15.5799C22.2247 13.8394 22.1645 11.6502 21.0279 9.97412L19.7865 10.816ZM15.7993 2.26404C13.9781 -0.421354 10.0217 -0.421346 8.20058 2.26406L9.44203 3.10595C10.6681 1.29802 13.3318 1.29801 14.5578 3.10595L15.7993 2.26404ZM12.7499 20.9979V18.9979H11.2499V20.9979H12.7499ZM15.7499 22.9979V20.9979H14.2499V22.9979H15.7499ZM9.74995 22.9979L9.74994 20.9979H8.24994L8.24995 22.9979H9.74995Z" fill="#FAFAFA"/>
</svg>
