<svg width="24" height="24" viewBox="0 0 24 24" fill="none" xmlns="http://www.w3.org/2000/svg">
<path d="M12 17V22M12 17C13.3627 17 14.5981 16.4548 15.5 15.5707M12 17C10.6373 17 9.40188 16.4548 8.5 15.5707M10 22H14M7 12H2M7 12C7 10.6013 7.57432 9.33675 8.5 8.42928M7 12C7 13.3987 7.57432 14.6633 8.5 15.5707M2 10L2 14M17 12H22M17 12C17 10.6013 16.4257 9.33675 15.5 8.42928M17 12C17 13.3987 16.4257 14.6633 15.5 15.5707M22 14V10M12 7V2M12 7C10.6373 7 9.40188 7.54516 8.5 8.42928M12 7C13.3627 7 14.5981 7.54516 15.5 8.42928M10 2L14 2M19.6565 19.6569L15.9998 16L15.5 15.5707M18.2426 21.0711L21.0711 18.2426M4.41444 4.41422L8.00005 7.99984L8.5 8.42928M5.82865 3.00001L3.00022 5.82843M19.657 4.4142L16.0002 7.99998L15.5 8.42928M18.2426 3.00001L21.0711 5.82843M4.41478 19.6569L8.00023 16L8.5 15.5707M5.82865 21.0711L3.00022 18.2426" stroke="#FAFAFA" stroke-width="1.5" stroke-linecap="round"/>
</svg>
