<svg width="24" height="24" viewBox="0 0 24 24" fill="none" xmlns="http://www.w3.org/2000/svg">
<path d="M19.3588 18.2982C19.0659 18.0053 18.591 18.0053 18.2981 18.2982C18.0052 18.5911 18.0052 19.066 18.2981 19.3589L19.3588 18.2982ZM22.298 23.3588C22.5909 23.6517 23.0658 23.6517 23.3587 23.3588C23.6516 23.0659 23.6516 22.5911 23.3587 22.2982L22.298 23.3588ZM8 10.25C7.58579 10.25 7.25 10.5858 7.25 11C7.25 11.4142 7.58579 11.75 8 11.75V10.25ZM14 11.75C14.4142 11.75 14.75 11.4142 14.75 11C14.75 10.5858 14.4142 10.25 14 10.25V11.75ZM10.25 14C10.25 14.4142 10.5858 14.75 11 14.75C11.4142 14.75 11.75 14.4142 11.75 14H10.25ZM11.75 8C11.75 7.58579 11.4142 7.25 11 7.25C10.5858 7.25 10.25 7.58579 10.25 8H11.75ZM18.2981 19.3589L22.298 23.3588L23.3587 22.2982L19.3588 18.2982L18.2981 19.3589ZM8 11.75H14V10.25H8V11.75ZM11.75 14V8H10.25V14H11.75ZM11 19.25C6.44365 19.25 2.75 15.5563 2.75 11H1.25C1.25 16.3848 5.61522 20.75 11 20.75V19.25ZM19.25 11C19.25 15.5563 15.5563 19.25 11 19.25V20.75C16.3848 20.75 20.75 16.3848 20.75 11H19.25ZM11 2.75C15.5563 2.75 19.25 6.44365 19.25 11H20.75C20.75 5.61522 16.3848 1.25 11 1.25V2.75ZM11 1.25C5.61522 1.25 1.25 5.61522 1.25 11H2.75C2.75 6.44365 6.44365 2.75 11 2.75V1.25Z" fill="#FAFAFA"/>
</svg>
