<svg width="24" height="24" viewBox="0 0 24 24" fill="none" xmlns="http://www.w3.org/2000/svg">
<path d="M14.7808 19.7005L14.1906 19.2377L14.7808 19.7005ZM9.21921 19.7005L8.62903 20.1633L9.21921 19.7005ZM12 22.0055V21.2555V22.0055ZM10.5303 7.46967C10.2374 7.17678 9.76256 7.17678 9.46967 7.46967C9.17678 7.76256 9.17678 8.23744 9.46967 8.53033L10.5303 7.46967ZM13.7123 12.773C14.0052 13.0659 14.4801 13.0659 14.773 12.773C15.0659 12.4801 15.0659 12.0052 14.773 11.7123L13.7123 12.773ZM9.46967 11.7123C9.17678 12.0052 9.17678 12.4801 9.46967 12.773C9.76256 13.0659 10.2374 13.0659 10.5303 12.773L9.46967 11.7123ZM14.773 8.53033C15.0659 8.23744 15.0659 7.76256 14.773 7.46967C14.4801 7.17678 14.0052 7.17678 13.7123 7.46967L14.773 8.53033ZM19.25 9.6087C19.25 10.8352 18.6104 12.4764 17.6037 14.256C16.6137 16.0063 15.3342 17.7794 14.1906 19.2377L15.371 20.1633C16.5371 18.6762 17.8672 16.837 18.9094 14.9945C19.9349 13.1814 20.75 11.2494 20.75 9.6087H19.25ZM9.80938 19.2377C8.66578 17.7794 7.38628 16.0063 6.39625 14.256C5.38962 12.4764 4.75 10.8352 4.75 9.6087H3.25C3.25 11.2494 4.06511 13.1814 5.09064 14.9945C6.13277 16.837 7.46288 18.6762 8.62903 20.1633L9.80938 19.2377ZM4.75 9.6087C4.75 5.21571 8.04678 1.75 12 1.75V0.25C7.11666 0.25 3.25 4.49277 3.25 9.6087H4.75ZM12 1.75C15.9532 1.75 19.25 5.21571 19.25 9.6087H20.75C20.75 4.49277 16.8833 0.25 12 0.25V1.75ZM14.1906 19.2377C13.5717 20.027 13.1641 20.5426 12.7992 20.8741C12.4664 21.1764 12.2442 21.2555 12 21.2555V22.7555C12.7291 22.7555 13.2948 22.4504 13.8078 21.9844C14.2886 21.5476 14.7849 20.9107 15.371 20.1633L14.1906 19.2377ZM8.62903 20.1633C9.21511 20.9107 9.71136 21.5476 10.1922 21.9844C10.7052 22.4504 11.2709 22.7555 12 22.7555V21.2555C11.7558 21.2555 11.5336 21.1764 11.2008 20.8741C10.8359 20.5426 10.4283 20.027 9.80938 19.2377L8.62903 20.1633ZM9.46967 8.53033L11.591 10.6517L12.6517 9.59099L10.5303 7.46967L9.46967 8.53033ZM11.591 10.6517L13.7123 12.773L14.773 11.7123L12.6517 9.59099L11.591 10.6517ZM10.5303 12.773L12.6517 10.6517L11.591 9.59099L9.46967 11.7123L10.5303 12.773ZM12.6517 10.6517L14.773 8.53033L13.7123 7.46967L11.591 9.59099L12.6517 10.6517Z" fill="#FAFAFA"/>
</svg>
