<svg width="24" height="24" viewBox="0 0 24 24" fill="none" xmlns="http://www.w3.org/2000/svg">
<path d="M8 12H7.25H8ZM16 12H16.75H16ZM12 16V16.75V16ZM14.0694 21.7856L14.2238 22.5195L14.0694 21.7856ZM9.9306 21.7856L9.77616 22.5195L9.9306 21.7856ZM2.73861 8.22119L2.04429 7.93761H2.04429L2.73861 8.22119ZM2.21438 14.0694L1.48045 14.2238L2.21438 14.0694ZM9.9306 2.21438L9.77616 1.48045L9.9306 2.21438ZM14.0694 2.21438L14.2238 1.48046L14.0694 2.21438ZM21.1808 8.25728L21.3985 8.97499L21.1808 8.25728ZM2.81797 8.25692L3.03567 7.53921L2.81797 8.25692ZM20.5681 8.50731C21.0075 9.58399 21.25 10.7627 21.25 12H22.75C22.75 10.5651 22.4685 9.19407 21.9569 7.94055L20.5681 8.50731ZM21.25 12C21.25 12.6573 21.1816 13.2978 21.0517 13.915L22.5195 14.2238C22.6707 13.5057 22.75 12.7617 22.75 12H21.25ZM21.0517 13.915C20.3002 17.4862 17.4862 20.3002 13.915 21.0517L14.2238 22.5195C18.377 21.6456 21.6456 18.377 22.5195 14.2238L21.0517 13.915ZM13.915 21.0517C13.2978 21.1816 12.6573 21.25 12 21.25V22.75C12.7617 22.75 13.5057 22.6707 14.2238 22.5195L13.915 21.0517ZM12 21.25C11.3427 21.25 10.7022 21.1816 10.085 21.0517L9.77616 22.5195C10.4943 22.6707 11.2383 22.75 12 22.75V21.25ZM2.75 12C2.75 10.7618 2.99289 9.58215 3.43293 8.50478L2.04429 7.93761C1.53198 9.19193 1.25 10.564 1.25 12H2.75ZM10.085 21.0517C6.51382 20.3002 3.69976 17.4862 2.94831 13.915L1.48045 14.2238C2.35435 18.377 5.62305 21.6456 9.77616 22.5195L10.085 21.0517ZM2.94831 13.915C2.81844 13.2978 2.75 12.6573 2.75 12H1.25C1.25 12.7617 1.32934 13.5057 1.48045 14.2238L2.94831 13.915ZM3.43293 8.50478C4.57824 5.70064 7.06086 3.58466 10.085 2.94831L9.77616 1.48045C6.25736 2.22088 3.37486 4.6799 2.04429 7.93761L3.43293 8.50478ZM10.085 2.94831C10.7022 2.81844 11.3427 2.75 12 2.75V1.25C11.2383 1.25 10.4943 1.32934 9.77616 1.48045L10.085 2.94831ZM12 2.75C12.6573 2.75 13.2978 2.81844 13.915 2.94831L14.2238 1.48046C13.5057 1.32934 12.7617 1.25 12 1.25V2.75ZM13.915 2.94831C16.9401 3.58485 19.4233 5.70192 20.5681 8.50731L21.9569 7.94055C20.6269 4.68138 17.7437 2.22111 14.2238 1.48046L13.915 2.94831ZM13.3549 2.44237C13.6308 3.30712 14.6522 6.63305 15.0708 9.68885L16.557 9.48526C16.1197 6.29348 15.064 2.86407 14.7839 1.9864L13.3549 2.44237ZM15.0708 9.68885C15.183 10.5078 15.25 11.2943 15.25 12H16.75C16.75 11.2056 16.6751 10.3476 16.557 9.48526L15.0708 9.68885ZM20.9632 7.53956C19.8657 7.87243 17.8043 8.45704 15.6778 8.84951L15.95 10.3246C18.1556 9.91754 20.2773 9.31505 21.3985 8.97499L20.9632 7.53956ZM15.6778 8.84951C14.3878 9.0876 13.0997 9.25 12 9.25V10.75C13.2292 10.75 14.6179 10.5705 15.95 10.3246L15.6778 8.84951ZM15.25 12C15.25 13.0455 15.1032 14.2621 14.8836 15.4899L16.3602 15.7539C16.5874 14.4833 16.75 13.1698 16.75 12H15.25ZM14.8836 15.4899C14.4025 18.1811 13.5941 20.808 13.3549 21.5576L14.7839 22.0136C15.0294 21.2443 15.8615 18.5432 16.3602 15.7539L14.8836 15.4899ZM21.5576 13.3549C20.808 13.5941 18.1811 14.4025 15.4899 14.8836L15.7539 16.3602C18.5432 15.8615 21.2443 15.0294 22.0136 14.7839L21.5576 13.3549ZM15.4899 14.8836C14.2621 15.1032 13.0455 15.25 12 15.25V16.75C13.1698 16.75 14.4833 16.5874 15.7539 16.3602L15.4899 14.8836ZM12 15.25C10.9545 15.25 9.73787 15.1032 8.51007 14.8836L8.24606 16.3602C9.51671 16.5874 10.8302 16.75 12 16.75V15.25ZM8.51007 14.8836C5.81886 14.4025 3.19197 13.5941 2.44237 13.3549L1.9864 14.7839C2.75568 15.0294 5.45684 15.8615 8.24606 16.3602L8.51007 14.8836ZM7.25 12C7.25 13.1698 7.41258 14.4833 7.63977 15.7539L9.11636 15.4899C8.89683 14.2621 8.75 13.0455 8.75 12H7.25ZM7.63977 15.7539C8.13848 18.5432 8.97063 21.2443 9.21609 22.0136L10.6451 21.5576C10.4059 20.808 9.59754 18.1811 9.11636 15.4899L7.63977 15.7539ZM9.21609 1.9864C8.93604 2.86407 7.8803 6.29348 7.44304 9.48526L8.92916 9.68885C9.34779 6.63305 10.3692 3.30712 10.6451 2.44237L9.21609 1.9864ZM7.44304 9.48526C7.32491 10.3476 7.25 11.2056 7.25 12H8.75C8.75 11.2943 8.81697 10.5078 8.92916 9.68885L7.44304 9.48526ZM12 9.25C10.9003 9.25 9.61224 9.0876 8.32222 8.84951L8.04998 10.3246C9.38211 10.5705 10.7708 10.75 12 10.75V9.25ZM8.32222 8.84951C6.1949 8.4569 4.13286 7.87202 3.03567 7.53921L2.60027 8.97463C3.72115 9.31462 5.84361 9.9174 8.04998 10.3246L8.32222 8.84951ZM20.9169 7.55831C20.9302 7.55142 20.946 7.54476 20.9632 7.53956L21.3985 8.97499C21.4725 8.95255 21.5421 8.92382 21.6081 8.88955L20.9169 7.55831ZM2.34732 8.86103C2.42503 8.90856 2.50939 8.94706 2.60027 8.97463L3.03567 7.53921C3.07033 7.54972 3.10229 7.56448 3.1299 7.58136L2.34732 8.86103Z" fill="#FAFAFA"/>
</svg>
