<svg width="24" height="24" viewBox="0 0 24 24" fill="none" xmlns="http://www.w3.org/2000/svg">
<path d="M7 14.8571L8.46033 11.8801C9.19794 10.3764 11.3658 10.4498 12 12C12.6342 13.5502 14.8021 13.6236 15.5397 12.1199L17 9.14286M12 21C8.25027 21 6.3754 21 5.06107 20.0451C4.6366 19.7367 4.26331 19.3634 3.95491 18.9389C3 17.6246 3 15.7497 3 12C3 8.25027 3 6.3754 3.95491 5.06107C4.26331 4.6366 4.6366 4.26331 5.06107 3.95491C6.3754 3 8.25027 3 12 3C15.7497 3 17.6246 3 18.9389 3.95491C19.3634 4.26331 19.7367 4.6366 20.0451 5.06107C21 6.3754 21 8.25027 21 12C21 15.7497 21 17.6246 20.0451 18.9389C19.7367 19.3634 19.3634 19.7367 18.9389 20.0451C17.6246 21 15.7497 21 12 21Z" stroke="#FAFAFA" stroke-width="1.5" stroke-linecap="round"/>
</svg>
