<svg width="24" height="24" viewBox="0 0 24 24" fill="none" xmlns="http://www.w3.org/2000/svg">
<path d="M6.99994 14.8572L8.46027 11.8801C9.19787 10.3764 11.3658 10.4499 11.9999 12C12.6341 13.5502 14.802 13.6236 15.5396 12.1199L16.9999 9.14289M11.9999 21.5263C9.45265 21.5263 8.17901 21.5263 7.10448 20.9751C6.95732 20.8996 6.814 20.8168 6.67504 20.7271C5.6604 20.0722 5.02358 18.9692 3.74994 16.7632C2.47629 14.5572 1.83947 13.4542 1.77959 12.248C1.77139 12.0828 1.77139 11.9173 1.77959 11.7521C1.83947 10.5459 2.47629 9.44291 3.74993 7.2369C5.02357 5.03088 5.6604 3.92788 6.67504 3.27292C6.814 3.18323 6.95732 3.10048 7.10448 3.02499C8.17901 2.47376 9.45265 2.47375 11.9999 2.47375C14.5472 2.47375 15.8209 2.47375 16.8954 3.02499C17.0425 3.10048 17.1859 3.18323 17.3248 3.27292C18.3395 3.92788 18.9763 5.03088 20.2499 7.23689C21.5236 9.4429 22.1604 10.5459 22.2203 11.7521C22.2285 11.9173 22.2285 12.0828 22.2203 12.248C22.1604 13.4542 21.5236 14.5572 20.2499 16.7632C18.9763 18.9692 18.3395 20.0722 17.3248 20.7271C17.1859 20.8168 17.0425 20.8996 16.8954 20.9751C15.8209 21.5263 14.5472 21.5263 11.9999 21.5263Z" stroke="#FAFAFA" stroke-width="1.5" stroke-linecap="round"/>
</svg>
