<svg width="24" height="24" viewBox="0 0 24 24" fill="none" xmlns="http://www.w3.org/2000/svg">
<mask id="path-1-outside-1_20_6006" maskUnits="userSpaceOnUse" x="2" y="1" width="21" height="21" fill="black">
<rect fill="white" x="2" y="1" width="21" height="21"/>
<path d="M19 4C19 4.55228 19.4477 5 20 5C20.5523 5 21 4.55228 21 4C21 3.44772 20.5523 3 20 3C19.4477 3 19 3.44772 19 4Z"/>
</mask>
<path d="M15 3.75C15.4142 3.75 15.75 3.41421 15.75 3C15.75 2.58579 15.4142 2.25 15 2.25V3.75ZM21.75 9C21.75 8.58579 21.4142 8.25 21 8.25C20.5858 8.25 20.25 8.58579 20.25 9H21.75ZM5.06107 20.0451L4.62023 20.6518L4.62024 20.6518L5.06107 20.0451ZM3.95491 18.9389L4.56168 18.4981H4.56168L3.95491 18.9389ZM18.9389 20.0451L19.3798 20.6518H19.3798L18.9389 20.0451ZM20.0451 18.9389L20.6518 19.3798V19.3798L20.0451 18.9389ZM3.95491 5.06107L3.34815 4.62023L3.34815 4.62023L3.95491 5.06107ZM5.06107 3.95491L4.62023 3.34815L4.62023 3.34815L5.06107 3.95491ZM6.32665 14.5268C6.14423 14.8987 6.29782 15.3481 6.6697 15.5305C7.04158 15.7129 7.49093 15.5593 7.67335 15.1874L6.32665 14.5268ZM8.46033 11.8801L9.13368 12.2104L8.46033 11.8801ZM15.5397 12.1199L16.213 12.4502L15.5397 12.1199ZM17.6734 9.47316C17.8558 9.10127 17.7022 8.65192 17.3303 8.46951C16.9584 8.28709 16.5091 8.44068 16.3266 8.81256L17.6734 9.47316ZM12 12L11.3058 12.284L12 12ZM12 3.75H15V2.25H12V3.75ZM20.25 9V12H21.75V9H20.25ZM12 20.25C10.1084 20.25 8.74999 20.249 7.69804 20.135C6.66013 20.0225 6.00992 19.8074 5.50191 19.4383L4.62024 20.6518C5.42656 21.2377 6.37094 21.5 7.53648 21.6263C8.68798 21.751 10.1418 21.75 12 21.75V20.25ZM2.25 12C2.25 13.8582 2.24897 15.312 2.37373 16.4635C2.50001 17.6291 2.76232 18.5734 3.34815 19.3798L4.56168 18.4981C4.19259 17.9901 3.97745 17.3399 3.865 16.302C3.75103 15.25 3.75 13.8916 3.75 12H2.25ZM5.50191 19.4383C5.14111 19.1762 4.82382 18.8589 4.56168 18.4981L3.34815 19.3798C3.70281 19.8679 4.13209 20.2972 4.62023 20.6518L5.50191 19.4383ZM12 21.75C13.8582 21.75 15.312 21.751 16.4635 21.6263C17.6291 21.5 18.5734 21.2377 19.3798 20.6518L18.4981 19.4383C17.9901 19.8074 17.3399 20.0225 16.302 20.135C15.25 20.249 13.8916 20.25 12 20.25V21.75ZM20.25 12C20.25 13.8916 20.249 15.25 20.135 16.302C20.0225 17.3399 19.8074 17.9901 19.4383 18.4981L20.6518 19.3798C21.2377 18.5734 21.5 17.6291 21.6263 16.4635C21.751 15.312 21.75 13.8582 21.75 12H20.25ZM19.3798 20.6518C19.8679 20.2972 20.2972 19.8679 20.6518 19.3798L19.4383 18.4981C19.1762 18.8589 18.8589 19.1762 18.4981 19.4383L19.3798 20.6518ZM3.75 12C3.75 10.1084 3.75103 8.74999 3.865 7.69805C3.97745 6.66013 4.19259 6.00992 4.56168 5.50191L3.34815 4.62023C2.76232 5.42656 2.50001 6.37094 2.37373 7.53648C2.24897 8.68798 2.25 10.1418 2.25 12H3.75ZM12 2.25C10.1418 2.25 8.68798 2.24897 7.53648 2.37373C6.37094 2.50001 5.42656 2.76232 4.62023 3.34815L5.50191 4.56168C6.00992 4.19259 6.66013 3.97745 7.69805 3.865C8.74999 3.75103 10.1084 3.75 12 3.75V2.25ZM4.56168 5.50191C4.82382 5.14111 5.14111 4.82382 5.50191 4.56168L4.62023 3.34815C4.13209 3.70281 3.70281 4.13209 3.34815 4.62023L4.56168 5.50191ZM7.67335 15.1874L9.13368 12.2104L7.78698 11.5498L6.32665 14.5268L7.67335 15.1874ZM16.213 12.4502L17.6734 9.47316L16.3266 8.81256L14.8663 11.7896L16.213 12.4502ZM11.3058 12.284C12.185 14.433 15.1904 14.5348 16.213 12.4502L14.8663 11.7896C14.4137 12.7124 13.0833 12.6673 12.6942 11.716L11.3058 12.284ZM9.13368 12.2104C9.58632 11.2876 10.9167 11.3327 11.3058 12.284L12.6942 11.716C11.815 9.56698 8.80955 9.46517 7.78698 11.5498L9.13368 12.2104ZM17.5 4C17.5 5.38071 18.6193 6.5 20 6.5V3.5C20.2761 3.5 20.5 3.72386 20.5 4H17.5ZM20 6.5C21.3807 6.5 22.5 5.38071 22.5 4H19.5C19.5 3.72386 19.7239 3.5 20 3.5V6.5ZM22.5 4C22.5 2.61929 21.3807 1.5 20 1.5V4.5C19.7239 4.5 19.5 4.27614 19.5 4H22.5ZM20 1.5C18.6193 1.5 17.5 2.61929 17.5 4H20.5C20.5 4.27614 20.2761 4.5 20 4.5V1.5Z" fill="#FAFAFA" mask="url(#path-1-outside-1_20_6006)"/>
</svg>
