<svg width="24" height="24" viewBox="0 0 24 24" fill="none" xmlns="http://www.w3.org/2000/svg">
<path d="M9.84776 8.76537L9.15485 8.47835L9.84776 8.76537ZM9.84776 5.23463L9.15485 5.52165L9.84776 5.23463ZM14 6.25C13.5858 6.25 13.25 6.58579 13.25 7C13.25 7.41421 13.5858 7.75 14 7.75V6.25ZM20 7.75C20.4142 7.75 20.75 7.41421 20.75 7C20.75 6.58579 20.4142 6.25 20 6.25V7.75ZM16.25 10C16.25 10.4142 16.5858 10.75 17 10.75C17.4142 10.75 17.75 10.4142 17.75 10H16.25ZM17.75 4C17.75 3.58579 17.4142 3.25 17 3.25C16.5858 3.25 16.25 3.58579 16.25 4H17.75ZM9.84776 18.7654L9.15485 18.4784L9.84776 18.7654ZM9.84776 15.2346L9.15485 15.5216L9.84776 15.2346ZM19.8478 18.7654L19.1549 18.4784L19.8478 18.7654ZM19.8478 15.2346L19.1549 15.5216L19.8478 15.2346ZM7 9.25C6.5238 9.25 6.20421 9.24959 5.95674 9.23271C5.71601 9.21628 5.5988 9.18681 5.52165 9.15485L4.94762 10.5407C5.23801 10.661 5.53754 10.7076 5.85464 10.7292C6.165 10.7504 6.54432 10.75 7 10.75V9.25ZM3.25 7C3.25 7.45568 3.24959 7.835 3.27077 8.14536C3.29241 8.46246 3.33905 8.76199 3.45933 9.05238L4.84515 8.47835C4.81319 8.4012 4.78372 8.28399 4.76729 8.04326C4.75041 7.79579 4.75 7.4762 4.75 7H3.25ZM5.52165 9.15485C5.21536 9.02798 4.97202 8.78464 4.84515 8.47835L3.45933 9.05238C3.73844 9.72621 4.27379 10.2616 4.94762 10.5407L5.52165 9.15485ZM9.25 7C9.25 7.4762 9.24959 7.79579 9.23271 8.04326C9.21628 8.28399 9.18681 8.4012 9.15485 8.47835L10.5407 9.05238C10.661 8.76199 10.7076 8.46246 10.7292 8.14536C10.7504 7.835 10.75 7.45568 10.75 7H9.25ZM7 10.75C7.45568 10.75 7.835 10.7504 8.14536 10.7292C8.46246 10.7076 8.76199 10.661 9.05238 10.5407L8.47835 9.15485C8.4012 9.18681 8.28399 9.21628 8.04326 9.23271C7.79579 9.24959 7.4762 9.25 7 9.25V10.75ZM9.15485 8.47835C9.02798 8.78464 8.78464 9.02798 8.47835 9.15485L9.05238 10.5407C9.72621 10.2616 10.2616 9.72621 10.5407 9.05238L9.15485 8.47835ZM7 4.75C7.4762 4.75 7.79579 4.75041 8.04326 4.76729C8.28399 4.78372 8.4012 4.81319 8.47835 4.84515L9.05238 3.45933C8.76199 3.33905 8.46246 3.29241 8.14536 3.27077C7.835 3.24959 7.45568 3.25 7 3.25V4.75ZM10.75 7C10.75 6.54432 10.7504 6.165 10.7292 5.85464C10.7076 5.53754 10.661 5.23801 10.5407 4.94762L9.15485 5.52165C9.18681 5.5988 9.21628 5.71601 9.23271 5.95674C9.24959 6.20421 9.25 6.5238 9.25 7H10.75ZM8.47835 4.84515C8.78464 4.97202 9.02798 5.21536 9.15485 5.52165L10.5407 4.94762C10.2616 4.27379 9.72621 3.73844 9.05238 3.45933L8.47835 4.84515ZM7 3.25C6.54432 3.25 6.165 3.24959 5.85464 3.27077C5.53754 3.29241 5.23801 3.33905 4.94762 3.45933L5.52165 4.84515C5.5988 4.81319 5.71601 4.78372 5.95674 4.76729C6.20421 4.75041 6.5238 4.75 7 4.75V3.25ZM4.75 7C4.75 6.5238 4.75041 6.20421 4.76729 5.95674C4.78372 5.71601 4.81319 5.5988 4.84515 5.52165L3.45933 4.94762C3.33905 5.23801 3.29241 5.53754 3.27077 5.85464C3.24959 6.165 3.25 6.54432 3.25 7H4.75ZM4.94762 3.45933C4.27379 3.73844 3.73844 4.27379 3.45933 4.94762L4.84515 5.52165C4.97202 5.21536 5.21536 4.97202 5.52165 4.84515L4.94762 3.45933ZM14 7.75H20V6.25H14V7.75ZM17.75 10V4H16.25V10H17.75ZM7 19.25C6.5238 19.25 6.20421 19.2496 5.95674 19.2327C5.71601 19.2163 5.5988 19.1868 5.52165 19.1549L4.94762 20.5407C5.23801 20.661 5.53754 20.7076 5.85464 20.7292C6.165 20.7504 6.54432 20.75 7 20.75V19.25ZM3.25 17C3.25 17.4557 3.24959 17.835 3.27077 18.1454C3.29241 18.4625 3.33905 18.762 3.45933 19.0524L4.84515 18.4784C4.81319 18.4012 4.78372 18.284 4.76729 18.0433C4.75041 17.7958 4.75 17.4762 4.75 17H3.25ZM5.52165 19.1549C5.21536 19.028 4.97202 18.7846 4.84515 18.4784L3.45933 19.0524C3.73844 19.7262 4.27379 20.2616 4.94762 20.5407L5.52165 19.1549ZM9.25 17C9.25 17.4762 9.24959 17.7958 9.23271 18.0433C9.21628 18.284 9.18681 18.4012 9.15485 18.4784L10.5407 19.0524C10.661 18.762 10.7076 18.4625 10.7292 18.1454C10.7504 17.835 10.75 17.4557 10.75 17H9.25ZM7 20.75C7.45568 20.75 7.835 20.7504 8.14536 20.7292C8.46246 20.7076 8.76199 20.661 9.05238 20.5407L8.47835 19.1549C8.4012 19.1868 8.28399 19.2163 8.04326 19.2327C7.79579 19.2496 7.4762 19.25 7 19.25V20.75ZM9.15485 18.4784C9.02798 18.7846 8.78464 19.028 8.47835 19.1549L9.05238 20.5407C9.72621 20.2616 10.2616 19.7262 10.5407 19.0524L9.15485 18.4784ZM7 14.75C7.4762 14.75 7.79579 14.7504 8.04326 14.7673C8.28399 14.7837 8.4012 14.8132 8.47835 14.8451L9.05238 13.4593C8.76199 13.339 8.46246 13.2924 8.14536 13.2708C7.835 13.2496 7.45568 13.25 7 13.25V14.75ZM10.75 17C10.75 16.5443 10.7504 16.165 10.7292 15.8546C10.7076 15.5375 10.661 15.238 10.5407 14.9476L9.15485 15.5216C9.18681 15.5988 9.21628 15.716 9.23271 15.9567C9.24959 16.2042 9.25 16.5238 9.25 17H10.75ZM8.47835 14.8451C8.78464 14.972 9.02798 15.2154 9.15485 15.5216L10.5407 14.9476C10.2616 14.2738 9.72621 13.7384 9.05238 13.4593L8.47835 14.8451ZM7 13.25C6.54432 13.25 6.165 13.2496 5.85464 13.2708C5.53754 13.2924 5.23801 13.339 4.94762 13.4593L5.52165 14.8451C5.5988 14.8132 5.71601 14.7837 5.95674 14.7673C6.20421 14.7504 6.5238 14.75 7 14.75V13.25ZM4.75 17C4.75 16.5238 4.75041 16.2042 4.76729 15.9567C4.78372 15.716 4.81319 15.5988 4.84515 15.5216L3.45933 14.9476C3.33905 15.238 3.29241 15.5375 3.27077 15.8546C3.24959 16.165 3.25 16.5443 3.25 17H4.75ZM4.94762 13.4593C4.27379 13.7384 3.73844 14.2738 3.45933 14.9476L4.84515 15.5216C4.97202 15.2154 5.21536 14.972 5.52165 14.8451L4.94762 13.4593ZM17 19.25C16.5238 19.25 16.2042 19.2496 15.9567 19.2327C15.716 19.2163 15.5988 19.1868 15.5216 19.1549L14.9476 20.5407C15.238 20.661 15.5375 20.7076 15.8546 20.7292C16.165 20.7504 16.5443 20.75 17 20.75V19.25ZM13.25 17C13.25 17.4557 13.2496 17.835 13.2708 18.1454C13.2924 18.4625 13.339 18.762 13.4593 19.0524L14.8451 18.4784C14.8132 18.4012 14.7837 18.284 14.7673 18.0433C14.7504 17.7958 14.75 17.4762 14.75 17H13.25ZM15.5216 19.1549C15.2154 19.028 14.972 18.7846 14.8451 18.4784L13.4593 19.0524C13.7384 19.7262 14.2738 20.2616 14.9476 20.5407L15.5216 19.1549ZM19.25 17C19.25 17.4762 19.2496 17.7958 19.2327 18.0433C19.2163 18.284 19.1868 18.4012 19.1549 18.4784L20.5407 19.0524C20.661 18.762 20.7076 18.4625 20.7292 18.1454C20.7504 17.835 20.75 17.4557 20.75 17H19.25ZM17 20.75C17.4557 20.75 17.835 20.7504 18.1454 20.7292C18.4625 20.7076 18.762 20.661 19.0524 20.5407L18.4784 19.1549C18.4012 19.1868 18.284 19.2163 18.0433 19.2327C17.7958 19.2496 17.4762 19.25 17 19.25V20.75ZM19.1549 18.4784C19.028 18.7846 18.7846 19.028 18.4784 19.1549L19.0524 20.5407C19.7262 20.2616 20.2616 19.7262 20.5407 19.0524L19.1549 18.4784ZM17 14.75C17.4762 14.75 17.7958 14.7504 18.0433 14.7673C18.284 14.7837 18.4012 14.8132 18.4784 14.8451L19.0524 13.4593C18.762 13.339 18.4625 13.2924 18.1454 13.2708C17.835 13.2496 17.4557 13.25 17 13.25V14.75ZM20.75 17C20.75 16.5443 20.7504 16.165 20.7292 15.8546C20.7076 15.5375 20.661 15.238 20.5407 14.9476L19.1549 15.5216C19.1868 15.5988 19.2163 15.716 19.2327 15.9567C19.2496 16.2042 19.25 16.5238 19.25 17H20.75ZM18.4784 14.8451C18.7846 14.972 19.028 15.2154 19.1549 15.5216L20.5407 14.9476C20.2616 14.2738 19.7262 13.7384 19.0524 13.4593L18.4784 14.8451ZM17 13.25C16.5443 13.25 16.165 13.2496 15.8546 13.2708C15.5375 13.2924 15.238 13.339 14.9476 13.4593L15.5216 14.8451C15.5988 14.8132 15.716 14.7837 15.9567 14.7673C16.2042 14.7504 16.5238 14.75 17 14.75V13.25ZM14.75 17C14.75 16.5238 14.7504 16.2042 14.7673 15.9567C14.7837 15.716 14.8132 15.5988 14.8451 15.5216L13.4593 14.9476C13.339 15.238 13.2924 15.5375 13.2708 15.8546C13.2496 16.165 13.25 16.5443 13.25 17H14.75ZM14.9476 13.4593C14.2738 13.7384 13.7384 14.2738 13.4593 14.9476L14.8451 15.5216C14.972 15.2154 15.2154 14.972 15.5216 14.8451L14.9476 13.4593Z" fill="#FAFAFA"/>
</svg>
