<svg width="24" height="24" viewBox="0 0 24 24" fill="none" xmlns="http://www.w3.org/2000/svg">
<path d="M15.1701 21.6444L14.6899 22.2205L15.1701 21.6444ZM14.2313 20.8619L14.7115 20.2858H14.7115L14.2313 20.8619ZM9.76871 20.8619L9.28852 20.2858H9.28852L9.76871 20.8619ZM8.82993 21.6444L9.31013 22.2205H9.31013L8.82993 21.6444ZM17.9996 14.3125L17.2498 14.2998L17.2496 14.307L17.2496 14.3142L17.9996 14.3125ZM18 14.2916L17.4377 13.7953L18 14.2916ZM6.0004 14.2921L6.56267 13.7958L6.0004 14.2921ZM4.75 9C4.75 4.99594 7.99594 1.75 12 1.75V0.25C7.16751 0.25 3.25 4.16751 3.25 9H4.75ZM12 1.75C16.0041 1.75 19.25 4.99594 19.25 9H20.75C20.75 4.16751 16.8325 0.25 12 0.25V1.75ZM17.25 14.8346V20.3787H18.75V14.8346H17.25ZM6.75 20.3787V14.8346H5.25V20.3787H6.75ZM15.6503 21.0683L14.7115 20.2858L13.7511 21.438L14.6899 22.2205L15.6503 21.0683ZM9.28852 20.2858L8.34973 21.0683L9.31013 22.2205L10.2489 21.438L9.28852 20.2858ZM14.7115 20.2858C14.1938 19.8543 13.7533 19.4854 13.3595 19.2324C12.9476 18.9679 12.5142 18.7807 12 18.7807V20.2807C12.12 20.2807 12.2698 20.3153 12.5489 20.4945C12.846 20.6853 13.204 20.982 13.7511 21.438L14.7115 20.2858ZM10.2489 21.438C10.796 20.982 11.154 20.6853 11.4511 20.4945C11.7302 20.3153 11.88 20.2807 12 20.2807V18.7807C11.4858 18.7807 11.0524 18.9679 10.6405 19.2324C10.2467 19.4854 9.80619 19.8543 9.28852 20.2858L10.2489 21.438ZM5.25 20.3787C5.25 21.1346 5.24796 21.7892 5.32055 22.2768C5.39181 22.7554 5.57441 23.3562 6.19277 23.6328L6.80519 22.2635C6.92457 22.3169 6.85768 22.4151 6.8042 22.0559C6.75204 21.7055 6.75 21.1869 6.75 20.3787H5.25ZM8.34973 21.0683C7.7198 21.5933 7.31089 21.9317 7.0001 22.1232C6.67835 22.3215 6.69524 22.2143 6.80519 22.2635L6.19277 23.6328C6.8017 23.9052 7.3734 23.6551 7.78705 23.4002C8.21167 23.1385 8.71874 22.7134 9.31013 22.2205L8.34973 21.0683ZM17.25 20.3787C17.25 21.1869 17.248 21.7055 17.1958 22.0559C17.1423 22.4151 17.0754 22.3169 17.1948 22.2635L17.8072 23.6328C18.4256 23.3562 18.6082 22.7554 18.6795 22.2768C18.752 21.7892 18.75 21.1346 18.75 20.3787H17.25ZM14.6899 22.2205C15.2813 22.7134 15.7883 23.1385 16.2129 23.4002C16.6266 23.6551 17.1983 23.9052 17.8072 23.6328L17.1948 22.2635C17.3048 22.2143 17.3216 22.3215 16.9999 22.1232C16.6891 21.9317 16.2802 21.5933 15.6503 21.0683L14.6899 22.2205ZM18.75 14.8346C18.75 14.6501 18.75 14.4756 18.7496 14.3109L17.2496 14.3142C17.25 14.4769 17.25 14.6497 17.25 14.8346H18.75ZM19.25 9C19.25 10.8392 18.5661 12.5168 17.4377 13.7953L18.5623 14.7879C19.9233 13.2459 20.75 11.2186 20.75 9H19.25ZM17.4377 13.7953C16.1081 15.3017 14.1653 16.25 12 16.25V17.75C14.6135 17.75 16.9601 16.6033 18.5623 14.7879L17.4377 13.7953ZM18.7495 14.3252L18.7499 14.3044L17.2501 14.2789L17.2498 14.2998L18.7495 14.3252ZM6.75 14.8346C6.75 14.642 6.75 14.4625 6.7504 14.2939L5.2504 14.2903C5.25 14.4611 5.25 14.6424 5.25 14.8346H6.75ZM12 16.25C9.83492 16.25 7.89222 15.3019 6.56267 13.7958L5.43813 14.7884C7.04034 16.6035 9.38674 17.75 12 17.75V16.25ZM6.56267 13.7958C5.43402 12.5172 4.75 10.8394 4.75 9H3.25C3.25 11.2188 4.07685 13.2464 5.43813 14.7884L6.56267 13.7958Z" fill="#FAFAFA"/>
</svg>
