<svg width="24" height="24" viewBox="0 0 24 24" fill="none" xmlns="http://www.w3.org/2000/svg">
<path d="M5.36187 13.9422L6.0576 13.6621V13.6621L5.36187 13.9422ZM9.16768 17.1666L8.86793 17.8541L9.16768 17.1666ZM6.43474 15.5804L6.96955 15.0546L6.43474 15.5804ZM18.6383 13.9422L17.9426 13.6621L18.6383 13.9422ZM14.8325 17.1666L15.1323 17.8541L14.8325 17.1666ZM17.5655 15.5804L18.1003 16.1062L17.5655 15.5804ZM18.7554 5.45492L18.0421 5.68668L18.7554 5.45492ZM15.5452 2.24472L15.3134 2.95801L15.5452 2.24472ZM5.24482 5.45492L5.95812 5.68668L5.24482 5.45492ZM8.45502 2.24472L8.68678 2.95801L8.45502 2.24472ZM2.33264 11.6072L1.87705 12.203L1.8877 12.2111L1.89864 12.2189L2.33264 11.6072ZM21.6677 11.6072L22.1017 12.2189L22.1126 12.2111L22.1233 12.203L21.6677 11.6072ZM11.2501 22C11.2501 22.4142 11.5859 22.75 12.0001 22.75C12.4143 22.75 12.7501 22.4142 12.7501 22H11.2501ZM16.0001 22.75C16.4143 22.75 16.7501 22.4142 16.7501 22C16.7501 21.5858 16.4143 21.25 16.0001 21.25V22.75ZM8.00011 21.25C7.58589 21.25 7.25011 21.5858 7.25011 22C7.25011 22.4142 7.58589 22.75 8.00011 22.75V21.25ZM18.8864 6L18.1468 6.1246L18.8864 6ZM19.2173 13.3459L19.6513 13.9575L19.2173 13.3459ZM4.78862 13.3498L4.35461 13.9615L4.78862 13.3498ZM18.2501 9V10.3004H19.7501V9H18.2501ZM5.75011 10.3004V9H4.25011V10.3004H5.75011ZM14.5328 16.4791C14.0066 16.7085 13.5001 16.9052 13.0504 17.0434C12.5897 17.1849 12.2361 17.25 12.0001 17.25V18.75C12.4583 18.75 12.9797 18.6343 13.491 18.4772C14.0134 18.3167 14.5759 18.0966 15.1323 17.8541L14.5328 16.4791ZM12.0001 17.25C11.7641 17.25 11.4105 17.1849 10.9498 17.0434C10.5002 16.9052 9.99361 16.7085 9.46742 16.4791L8.86793 17.8541C9.42429 18.0966 9.98686 18.3167 10.5092 18.4772C11.0206 18.6343 11.5419 18.75 12.0001 18.75V17.25ZM9.46742 16.4791C8.07096 15.8702 7.52902 15.6236 6.96955 15.0546L5.89994 16.1062C6.69873 16.9187 7.52599 17.269 8.86793 17.8541L9.46742 16.4791ZM4.66613 14.2223C4.92162 14.8569 5.42031 15.6184 5.89994 16.1062L6.96955 15.0546C6.62856 14.7078 6.23924 14.1133 6.0576 13.6621L4.66613 14.2223ZM15.1323 17.8541C16.4742 17.269 17.3015 16.9187 18.1003 16.1062L17.0307 15.0546C16.4712 15.6236 15.9293 15.8702 14.5328 16.4791L15.1323 17.8541ZM17.9426 13.6621C17.761 14.1133 17.3717 14.7078 17.0307 15.0546L18.1003 16.1062C18.5799 15.6184 19.0786 14.8569 19.3341 14.2223L17.9426 13.6621ZM12.0001 2.75C13.9198 2.75 14.7017 2.75925 15.3134 2.95801L15.777 1.53142C14.8823 1.24075 13.803 1.25 12.0001 1.25V2.75ZM19.4687 5.22315C18.8999 3.47263 17.5275 2.1002 15.777 1.53142L15.3134 2.95801C16.6073 3.37841 17.6217 4.39282 18.0421 5.68668L19.4687 5.22315ZM12.0001 1.25C10.1972 1.25 9.11787 1.24075 8.22326 1.53142L8.68678 2.95801C9.2985 2.75925 10.0805 2.75 12.0001 2.75V1.25ZM5.95812 5.68668C6.37852 4.39282 7.39292 3.37841 8.68678 2.95801L8.22326 1.53142C6.47274 2.1002 5.10031 3.47263 4.53153 5.22315L5.95812 5.68668ZM5.22262 12.7382L2.76665 10.9956L1.89864 12.2189L4.35461 13.9615L5.22262 12.7382ZM2.78823 11.0115C0.984156 9.63188 1.95977 6.75 4.23088 6.75V5.25C0.525335 5.25 -1.06647 9.95207 1.87705 12.203L2.78823 11.0115ZM4.23088 6.75H5.00024V5.25H4.23088V6.75ZM19.6513 13.9575L22.1017 12.2189L21.2337 10.9956L18.7833 12.7342L19.6513 13.9575ZM22.1233 12.203C25.0668 9.95207 23.475 5.25 19.7695 5.25V6.75C22.0406 6.75 23.0162 9.63188 21.2121 11.0115L22.1233 12.203ZM19.7695 5.25H19.0001V6.75H19.7695V5.25ZM11.2501 18V22H12.7501V18H11.2501ZM16.0001 21.25H8.00011V22.75H16.0001V21.25ZM5.75011 9C5.75011 7.52815 5.75272 6.7222 5.8534 6.1246L4.37424 5.8754C4.24749 6.6278 4.25011 7.58853 4.25011 9H5.75011ZM5.8534 6.1246C5.88124 5.95935 5.91582 5.81685 5.95812 5.68668L4.53153 5.22315C4.46349 5.43257 4.4126 5.64772 4.37424 5.8754L5.8534 6.1246ZM5.00024 6.75H5.11382V5.25H5.00024V6.75ZM4.25011 10.3004C4.25011 11.8535 4.2428 12.8826 4.52256 13.8132L5.95905 13.3814C5.75741 12.7106 5.75011 11.9404 5.75011 10.3004H4.25011ZM4.52256 13.8132C4.56413 13.9515 4.61175 14.0872 4.66613 14.2223L6.0576 13.6621C6.0201 13.569 5.98751 13.476 5.95905 13.3814L4.52256 13.8132ZM18.2501 10.3004C18.2501 11.9475 18.2427 12.7174 18.0387 13.3896L19.474 13.8252C19.7575 12.891 19.7501 11.8599 19.7501 10.3004H18.2501ZM18.0387 13.3896C18.0108 13.4814 17.979 13.5717 17.9426 13.6621L19.3341 14.2223C19.3869 14.0912 19.4333 13.9593 19.474 13.8252L18.0387 13.3896ZM19.7501 9C19.7501 7.58853 19.7527 6.6278 19.626 5.87541L18.1468 6.1246C18.2475 6.7222 18.2501 7.52815 18.2501 9H19.7501ZM19.626 5.87541C19.5876 5.64771 19.5367 5.43257 19.4687 5.22315L18.0421 5.68668C18.0844 5.81685 18.119 5.95935 18.1468 6.1246L19.626 5.87541ZM19.0001 5.25H18.8864V6.75H19.0001V5.25ZM18.7833 12.7342C18.6801 12.8074 18.5698 12.87 18.454 12.9211L19.0587 14.2937C19.2671 14.2019 19.4657 14.0893 19.6513 13.9575L18.7833 12.7342ZM4.35461 13.9615C4.54274 14.095 4.74578 14.2061 4.95963 14.2926L5.52198 12.902C5.41617 12.8592 5.3157 12.8042 5.22262 12.7382L4.35461 13.9615Z" fill="#FAFAFA"/>
</svg>
