<svg width="24" height="24" viewBox="0 0 24 24" fill="none" xmlns="http://www.w3.org/2000/svg">
<path d="M6.67082 9.66459C6.48558 9.29411 6.03507 9.14394 5.66459 9.32918C5.29411 9.51442 5.14394 9.96493 5.32918 10.3354L6.67082 9.66459ZM6.10557 10.2111L6.77639 9.87574V9.87574L6.10557 10.2111ZM6.10557 13.7889L6.77639 14.1243L6.10557 13.7889ZM5.32918 13.6646C5.14394 14.0351 5.29411 14.4856 5.66459 14.6708C6.03507 14.8561 6.48558 14.7059 6.67082 14.3354L5.32918 13.6646ZM10.6708 9.66459C10.4856 9.29411 10.0351 9.14394 9.66459 9.32918C9.29411 9.51442 9.14394 9.96493 9.32918 10.3354L10.6708 9.66459ZM10.1056 10.2111L9.43475 10.5466L9.43475 10.5466L10.1056 10.2111ZM10.1056 13.7889L9.43475 13.4534L9.43475 13.4534L10.1056 13.7889ZM9.32918 13.6646C9.14394 14.0351 9.29411 14.4856 9.66459 14.6708C10.0351 14.8561 10.4856 14.7059 10.6708 14.3354L9.32918 13.6646ZM14.6708 9.66459C14.4856 9.29411 14.0351 9.14394 13.6646 9.32918C13.2941 9.51442 13.1439 9.96493 13.3292 10.3354L14.6708 9.66459ZM14.1056 10.2111L13.4348 10.5466V10.5466L14.1056 10.2111ZM14.1056 13.7889L13.4348 13.4534V13.4534L14.1056 13.7889ZM13.3292 13.6646C13.1439 14.0351 13.2941 14.4856 13.6646 14.6708C14.0351 14.8561 14.4856 14.7059 14.6708 14.3354L13.3292 13.6646ZM6.21783 17.9384L6.1005 18.6792L6.21783 17.9384ZM2.06156 13.7822L1.32079 13.8995L2.06156 13.7822ZM17.9384 13.7822L17.1977 13.6648L17.9384 13.7822ZM13.7822 17.9384L13.6648 17.1977L13.7822 17.9384ZM13.7822 6.06156L13.6648 6.80232L13.7822 6.06156ZM17.9384 10.2178L18.6792 10.1005L17.9384 10.2178ZM6.21783 6.06156L6.1005 5.32079L6.21783 6.06156ZM2.06156 10.2178L1.32079 10.1005L2.06156 10.2178ZM5.32918 10.3354L5.43475 10.5466L6.77639 9.87574L6.67082 9.66459L5.32918 10.3354ZM5.43475 13.4534L5.32918 13.6646L6.67082 14.3354L6.77639 14.1243L5.43475 13.4534ZM5.43475 10.5466C5.89223 11.4615 5.89223 12.5385 5.43475 13.4534L6.77639 14.1243C7.44502 12.787 7.44502 11.213 6.77639 9.87574L5.43475 10.5466ZM9.32918 10.3354L9.43475 10.5466L10.7764 9.87574L10.6708 9.66459L9.32918 10.3354ZM9.43475 13.4534L9.32918 13.6646L10.6708 14.3354L10.7764 14.1243L9.43475 13.4534ZM9.43475 10.5466C9.89223 11.4615 9.89223 12.5385 9.43475 13.4534L10.7764 14.1243C11.445 12.787 11.445 11.213 10.7764 9.87574L9.43475 10.5466ZM13.3292 10.3354L13.4348 10.5466L14.7764 9.87574L14.6708 9.66459L13.3292 10.3354ZM13.4348 13.4534L13.3292 13.6646L14.6708 14.3354L14.7764 14.1243L13.4348 13.4534ZM13.4348 10.5466C13.8922 11.4615 13.8922 12.5385 13.4348 13.4534L14.7764 14.1243C15.445 12.787 15.445 11.213 14.7764 9.87574L13.4348 10.5466ZM8 6.75H12V5.25H8V6.75ZM12 17.25H8V18.75H12V17.25ZM8 17.25C7.04233 17.25 6.65082 17.2477 6.33515 17.1977L6.1005 18.6792C6.56216 18.7523 7.09965 18.75 8 18.75V17.25ZM1.25 12C1.25 12.9003 1.24767 13.4378 1.32079 13.8995L2.80232 13.6648C2.75233 13.3492 2.75 12.9577 2.75 12H1.25ZM6.33515 17.1977C4.51661 16.9096 3.09035 15.4834 2.80232 13.6648L1.32079 13.8995C1.71048 16.3599 3.64012 18.2895 6.1005 18.6792L6.33515 17.1977ZM17.25 12C17.25 12.9577 17.2477 13.3492 17.1977 13.6648L18.6792 13.8995C18.7523 13.4378 18.75 12.9003 18.75 12H17.25ZM12 18.75C12.9003 18.75 13.4378 18.7523 13.8995 18.6792L13.6648 17.1977C13.3492 17.2477 12.9577 17.25 12 17.25V18.75ZM12 6.75C12.9577 6.75 13.3492 6.75233 13.6648 6.80232L13.8995 5.32079C13.4378 5.24767 12.9003 5.25 12 5.25V6.75ZM18.75 12C18.75 11.0997 18.7523 10.5622 18.6792 10.1005L17.1977 10.3352C17.2477 10.6508 17.25 11.0423 17.25 12H18.75ZM8 5.25C7.09965 5.25 6.56216 5.24767 6.1005 5.32079L6.33515 6.80232C6.65082 6.75233 7.04233 6.75 8 6.75V5.25ZM2.75 12C2.75 11.0423 2.75233 10.6508 2.80232 10.3352L1.32079 10.1005C1.24767 10.5622 1.25 11.0997 1.25 12H2.75ZM6.1005 5.32079C3.64012 5.71048 1.71048 7.64012 1.32079 10.1005L2.80232 10.3352C3.09035 8.51661 4.51661 7.09035 6.33515 6.80232L6.1005 5.32079ZM20.25 11V13H21.75V11H20.25ZM20.25 13C20.25 13.6904 19.6904 14.25 19 14.25V15.75C20.5188 15.75 21.75 14.5188 21.75 13H20.25ZM19 9.75C19.6904 9.75 20.25 10.3096 20.25 11H21.75C21.75 9.48122 20.5188 8.25 19 8.25V9.75ZM13.6648 6.80232C15.1204 7.03287 16.3252 7.99279 16.8956 9.29994L18.2704 8.70006C17.4989 6.93208 15.8696 5.63283 13.8995 5.32079L13.6648 6.80232ZM16.8956 9.29994C17.0375 9.62517 17.1402 9.97211 17.1977 10.3352L18.6792 10.1005C18.6016 9.61032 18.4627 9.14074 18.2704 8.70006L16.8956 9.29994ZM17.1977 13.6648C17.1402 14.0279 17.0375 14.3748 16.8956 14.7001L18.2704 15.2999C18.4627 14.8593 18.6016 14.3897 18.6792 13.8995L17.1977 13.6648ZM16.8956 14.7001C16.3252 16.0072 15.1204 16.9671 13.6648 17.1977L13.8995 18.6792C15.8696 18.3672 17.4989 17.0679 18.2704 15.2999L16.8956 14.7001ZM17.583 9.75H19V8.25H17.583V9.75ZM19 14.25H17.583V15.75H19V14.25Z" fill="#FAFAFA"/>
</svg>
