<svg width="24" height="24" viewBox="0 0 24 24" fill="none" xmlns="http://www.w3.org/2000/svg">
<path d="M13.9793 19.6965L14.4674 19.1271L13.9793 19.6965ZM12.6663 18.7484L12.4164 19.4556L12.6663 18.7484ZM10.0207 19.6965L10.5088 20.266L10.0207 19.6965ZM11.3337 18.7484L11.5836 19.4556L11.3337 18.7484ZM5.34196 20.77L4.72019 21.1894L5.34196 20.77ZM7.22986 21.6383L7.14367 20.8933L7.22986 21.6383ZM18.658 20.77L19.2798 21.1894L18.658 20.77ZM16.7701 21.6383L16.8563 20.8933L16.7701 21.6383ZM15.5451 3.24472L15.3133 3.95801L15.5451 3.24472ZM18.7553 6.45492L18.042 6.68668L18.7553 6.45492ZM8.45492 3.24472L8.68668 3.95801L8.45492 3.24472ZM5.24472 6.45492L5.95801 6.68668L5.24472 6.45492ZM9 8.25C8.58579 8.25 8.25 8.58579 8.25 9C8.25 9.41421 8.58579 9.75 9 9.75V8.25ZM15 9.75C15.4142 9.75 15.75 9.41421 15.75 9C15.75 8.58579 15.4142 8.25 15 8.25V9.75ZM18.25 10V17.3874H19.75V10H18.25ZM5.75 17.3874V10H4.25V17.3874H5.75ZM14.4674 19.1271C13.8767 18.6208 13.4326 18.2237 12.9162 18.0413L12.4164 19.4556C12.6038 19.5218 12.8004 19.6739 13.4912 20.266L14.4674 19.1271ZM10.5088 20.266C11.1996 19.6739 11.3962 19.5218 11.5836 19.4556L11.0838 18.0413C10.5674 18.2237 10.1233 18.6208 9.5326 19.1271L10.5088 20.266ZM12.9162 18.0413C12.3234 17.8318 11.6766 17.8318 11.0838 18.0413L11.5836 19.4556C11.853 19.3604 12.147 19.3604 12.4164 19.4556L12.9162 18.0413ZM4.25 17.3874C4.25 18.333 4.24944 19.0872 4.29506 19.6664C4.33947 20.2302 4.43393 20.765 4.72019 21.1894L5.96372 20.3506C5.90802 20.268 5.8315 20.0701 5.79043 19.5486C5.75056 19.0425 5.75 18.3588 5.75 17.3874H4.25ZM9.5326 19.1271C8.79499 19.7593 8.27558 20.2038 7.86535 20.5029C7.44269 20.8111 7.24261 20.8818 7.14367 20.8933L7.31606 22.3833C7.82456 22.3245 8.29209 22.0482 8.74909 21.715C9.21852 21.3727 9.7908 20.8814 10.5088 20.266L9.5326 19.1271ZM4.72019 21.1894C5.2946 22.0409 6.2957 22.5014 7.31606 22.3833L7.14367 20.8933C6.67986 20.9469 6.22482 20.7376 5.96372 20.3506L4.72019 21.1894ZM18.25 17.3874C18.25 18.3588 18.2494 19.0425 18.2096 19.5486C18.1685 20.0701 18.092 20.268 18.0363 20.3506L19.2798 21.1894C19.5661 20.765 19.6605 20.2302 19.7049 19.6664C19.7506 19.0872 19.75 18.333 19.75 17.3874H18.25ZM13.4912 20.266C14.2092 20.8814 14.7815 21.3727 15.2509 21.715C15.7079 22.0482 16.1754 22.3245 16.6839 22.3833L16.8563 20.8933C16.7574 20.8818 16.5573 20.8111 16.1346 20.5029C15.7244 20.2038 15.205 19.7593 14.4674 19.1271L13.4912 20.266ZM18.0363 20.3506C17.7752 20.7376 17.3201 20.9469 16.8563 20.8933L16.6839 22.3833C17.7043 22.5014 18.7054 22.041 19.2798 21.1894L18.0363 20.3506ZM12 3.75C13.9197 3.75 14.7016 3.75925 15.3133 3.95801L15.7768 2.53142C14.8822 2.24075 13.8029 2.25 12 2.25V3.75ZM19.75 10C19.75 8.19709 19.7593 7.11777 19.4686 6.22315L18.042 6.68668C18.2407 7.29839 18.25 8.08034 18.25 10H19.75ZM15.3133 3.95801C16.6072 4.37841 17.6216 5.39282 18.042 6.68668L19.4686 6.22315C18.8998 4.47263 17.5274 3.1002 15.7768 2.53142L15.3133 3.95801ZM12 2.25C10.1971 2.25 9.11777 2.24075 8.22315 2.53142L8.68668 3.95801C9.29839 3.75925 10.0803 3.75 12 3.75V2.25ZM5.75 10C5.75 8.08034 5.75925 7.29839 5.95801 6.68668L4.53142 6.22315C4.24075 7.11777 4.25 8.19709 4.25 10H5.75ZM8.22315 2.53142C6.47263 3.1002 5.1002 4.47263 4.53142 6.22315L5.95801 6.68668C6.37841 5.39282 7.39282 4.37841 8.68668 3.95801L8.22315 2.53142ZM9 9.75H15V8.25H9V9.75Z" fill="#FAFAFA"/>
</svg>
