<svg width="24" height="24" viewBox="0 0 24 24" fill="none" xmlns="http://www.w3.org/2000/svg">
<path d="M5 10C5 8.13872 5 7.20808 5.24472 6.45492C5.73931 4.93273 6.93273 3.73931 8.45492 3.24472C9.20808 3 10.1387 3 12 3C13.8613 3 14.7919 3 15.5451 3.24472C17.0673 3.73931 18.2607 4.93273 18.7553 6.45492C19 7.20808 19 8.13872 19 10V17.3874C19 19.3045 19 20.2631 18.658 20.77C18.2403 21.3893 17.5122 21.7242 16.7701 21.6383C16.1627 21.568 15.4349 20.9442 13.9793 19.6965C13.3386 19.1474 13.0182 18.8728 12.6663 18.7484C12.2352 18.5961 11.7648 18.5961 11.3337 18.7484C10.9818 18.8728 10.6614 19.1474 10.0207 19.6965C8.5651 20.9442 7.8373 21.568 7.22986 21.6383C6.48778 21.7242 5.75971 21.3893 5.34196 20.77C5 20.2631 5 19.3045 5 17.3874V10Z" stroke="#FAFAFA" stroke-width="1.5"/>
</svg>
