<svg width="24" height="24" viewBox="0 0 24 24" fill="none" xmlns="http://www.w3.org/2000/svg">
<path d="M5.75 10C5.75 8.08034 5.75925 7.29839 5.95801 6.68668C6.37841 5.39282 7.39282 4.37841 8.68668 3.95801C9.29839 3.75925 10.0803 3.75 12 3.75C13.9197 3.75 14.7016 3.75925 15.3133 3.95801C16.6072 4.37841 17.6216 5.39282 18.042 6.68668C18.2407 7.29839 18.25 8.08034 18.25 10V17.3874C18.25 18.3588 18.2494 19.0425 18.2096 19.5486C18.1685 20.0701 18.092 20.268 18.0363 20.3506C17.7752 20.7376 17.3201 20.9469 16.8563 20.8933C16.7574 20.8818 16.5573 20.8111 16.1346 20.5029C15.7244 20.2038 15.205 19.7593 14.4674 19.1271C14.4339 19.0984 14.4008 19.07 14.3682 19.042C13.8261 18.5764 13.4033 18.2134 12.9162 18.0413C12.3234 17.8318 11.6766 17.8318 11.0838 18.0413C10.5967 18.2134 10.1739 18.5764 9.63182 19.042C9.59919 19.07 9.56613 19.0984 9.5326 19.1271C8.79499 19.7593 8.27558 20.2038 7.86535 20.5029C7.44269 20.8111 7.24261 20.8818 7.14367 20.8933C6.67986 20.9469 6.22482 20.7376 5.96372 20.3506C5.90802 20.268 5.8315 20.0701 5.79043 19.5486C5.75056 19.0425 5.75 18.3588 5.75 17.3874V10Z" stroke="#FAFAFA" stroke-width="1.5" stroke-linecap="round"/>
</svg>
