<svg width="24" height="24" viewBox="0 0 24 24" fill="none" xmlns="http://www.w3.org/2000/svg">
<path d="M4.99993 11.0782V13.6266C4.99993 15.4879 4.99993 16.4185 5.24465 17.1717C5.73924 18.6939 6.93266 19.8873 8.45485 20.3819C9.20801 20.6266 10.1387 20.6266 11.9999 20.6266C13.8612 20.6266 14.7919 20.6266 15.545 20.3819C17.0672 19.8873 18.2606 18.6939 18.7552 17.1717C18.9999 16.4185 18.9999 15.4879 18.9999 13.6266V11.0815M18.9999 11.0815C18.0427 11.4695 16.8601 11.8909 15.4528 12.3935L13.3454 13.1462C12.6794 13.384 12.3465 13.5029 12 13.5029C11.6536 13.5029 11.3206 13.384 10.6547 13.1462L8.54728 12.3935C4.14662 10.8218 1.94629 10.036 1.94629 8.62656C1.94629 7.21713 4.14662 6.43129 8.54728 4.8596L10.6547 4.10695C11.3206 3.8691 11.6536 3.75018 12 3.75018C12.3465 3.75018 12.6794 3.8691 13.3454 4.10695L15.4528 4.8596C19.8535 6.43129 22.0538 7.21713 22.0538 8.62656C22.0538 9.58527 21.0361 10.2563 18.9999 11.0815Z" stroke="#FAFAFA" stroke-width="1.5"/>
<path fill-rule="evenodd" clip-rule="evenodd" d="M8.23248 4.17557L10.4024 3.40058C10.4355 3.38877 10.4682 3.37707 10.5005 3.3655C11.0703 3.16147 11.5208 3.00012 12 3.00012C12.4793 3.00012 12.9298 3.16147 13.4996 3.36551C13.5319 3.37707 13.5646 3.38877 13.5977 3.40058L15.7676 4.17557C17.9151 4.94254 19.603 5.54533 20.7481 6.13771C21.855 6.71026 22.8038 7.44621 22.8038 8.6265C22.8038 9.80679 21.855 10.5427 20.7481 11.1153C19.603 11.7077 17.9151 12.3105 15.7676 13.0774L13.5977 13.8524C13.5646 13.8642 13.5319 13.8759 13.4996 13.8875C12.9298 14.0915 12.4793 14.2529 12 14.2529C11.5208 14.2529 11.0703 14.0915 10.5005 13.8875C10.4682 13.8759 10.4355 13.8642 10.4024 13.8524L8.23247 13.0774C6.08493 12.3105 4.39712 11.7077 3.25195 11.1153C2.14511 10.5427 1.19629 9.80679 1.19629 8.6265C1.19629 7.44621 2.14511 6.71026 3.25195 6.13771C4.39712 5.54533 6.08494 4.94254 8.23248 4.17557ZM3.94113 7.47002C2.84763 8.03567 2.69629 8.39736 2.69629 8.6265C2.69629 8.85564 2.84763 9.21733 3.94113 9.78298C4.98519 10.3231 6.57621 10.8931 8.79954 11.6872L10.9069 12.4398C11.622 12.6952 11.8135 12.7529 12 12.7529C12.1865 12.7529 12.3781 12.6952 13.0931 12.4398L15.2005 11.6872C17.4239 10.8931 19.0149 10.3231 20.059 9.78298C21.1524 9.21733 21.3038 8.85564 21.3038 8.6265C21.3038 8.39736 21.1524 8.03567 20.059 7.47002C19.0149 6.92994 17.4239 6.3599 15.2005 5.56584L13.0931 4.81319C12.3781 4.55781 12.1865 4.50012 12 4.50012C11.8135 4.50012 11.622 4.55781 10.9069 4.81319L8.79954 5.56584C6.57621 6.3599 4.98519 6.92994 3.94113 7.47002ZM1.99993 16.3765C1.58572 16.3765 1.19629 16.0524 1.19629 15.6382V8.6265C1.19629 8.21229 1.58572 7.8765 1.99993 7.8765C2.41415 7.8765 2.69629 8.21229 2.69629 8.6265L2.74993 9.85306V15.6265C2.74993 16.0407 2.41415 16.3765 1.99993 16.3765Z" fill="#FAFAFA"/>
</svg>
