<svg width="24" height="24" viewBox="0 0 24 24" fill="none" xmlns="http://www.w3.org/2000/svg">
<path d="M9 9L9.33531 7.99408C10.0389 5.88332 12.8236 5.43143 14.1585 7.21138C14.9405 8.25403 14.886 9.70175 14.0277 10.6826L13.1085 11.7331C12.3939 12.5498 12 13.5982 12 14.6834V15M22 12C22 17.5228 17.5228 22 12 22C6.47715 22 2 17.5228 2 12C2 6.47715 6.47715 2 12 2C17.5228 2 22 6.47715 22 12Z" stroke="#FAFAFA" stroke-width="1.5" stroke-linecap="round"/>
<path d="M13 18C13 18.5523 12.5523 19 12 19C11.4477 19 11 18.5523 11 18C11 17.4477 11.4477 17 12 17C12.5523 17 13 17.4477 13 18Z" fill="#FAFAFA"/>
</svg>
