<svg width="24" height="24" viewBox="0 0 24 24" fill="none" xmlns="http://www.w3.org/2000/svg">
<path d="M10 2V1.25V2ZM14 2V2.75V2ZM18 6H17.25H18ZM6 6H5.25H6ZM6.58579 2.58579L6.05546 2.05546L6.05546 2.05546L6.58579 2.58579ZM2 15.5H2.75H2ZM2.13815 12.8328L1.40887 12.6577L2.13815 12.8328ZM8.5 9V8.25V9ZM5.83277 9.13815L6.00786 9.86743L5.83277 9.13815ZM8.5 22V22.75V22ZM5.83277 21.8618L5.65769 22.5911L5.83277 21.8618ZM2.13815 18.1672L2.86743 17.9921L2.13815 18.1672ZM22 15.5H21.25H22ZM21.8618 18.1672L22.5911 18.3423L21.8618 18.1672ZM15.5 22V21.25V22ZM18.1672 21.8619L17.9921 21.1326L18.1672 21.8619ZM21.8618 12.8328L21.1326 13.0079L21.8618 12.8328ZM15.5 9V9.75V9ZM18.1672 9.13815L18.3423 8.40887L18.1672 9.13815ZM10.75 5C10.75 4.58579 10.4142 4.25 10 4.25C9.58579 4.25 9.25 4.58579 9.25 5H10.75ZM9.25 7C9.25 7.41421 9.58579 7.75 10 7.75C10.4142 7.75 10.75 7.41421 10.75 7H9.25ZM14.75 5C14.75 4.58579 14.4142 4.25 14 4.25C13.5858 4.25 13.25 4.58579 13.25 5H14.75ZM13.25 7C13.25 7.41421 13.5858 7.75 14 7.75C14.4142 7.75 14.75 7.41421 14.75 7H13.25ZM20.1031 13.2995L19.9861 12.5587L20.1031 13.2995ZM4.88791 13.3582L4.99916 12.6165H4.99916L4.88791 13.3582ZM2.5 13L2.38473 13.7411L2.38875 13.7417L2.5 13ZM2.11429 12.94L1.37964 12.7891L2.11429 12.94ZM10 2.75L14 2.75V1.25L10 1.25V2.75ZM17.25 6V9H18.75V6H17.25ZM6.75 9V6H5.25V9H6.75ZM10 1.25C9.07839 1.25 8.31174 1.24841 7.70552 1.32991C7.07773 1.41432 6.51093 1.59999 6.05546 2.05546L7.11612 3.11612C7.24643 2.9858 7.44393 2.87858 7.90539 2.81654C8.38843 2.75159 9.03599 2.75 10 2.75V1.25ZM6.75 6C6.75 5.03599 6.75159 4.38843 6.81654 3.90539C6.87858 3.44393 6.9858 3.24643 7.11612 3.11612L6.05546 2.05546C5.59999 2.51093 5.41432 3.07773 5.32991 3.70552C5.24841 4.31174 5.25 5.07839 5.25 6H6.75ZM14 2.75C14.964 2.75 15.6116 2.75159 16.0946 2.81654C16.5561 2.87858 16.7536 2.9858 16.8839 3.11612L17.9445 2.05546C17.4891 1.59999 16.9223 1.41432 16.2945 1.32991C15.6883 1.24841 14.9216 1.25 14 1.25V2.75ZM18.75 6C18.75 5.07839 18.7516 4.31174 18.6701 3.70552C18.5857 3.07773 18.4 2.51093 17.9445 2.05546L16.8839 3.11612C17.0142 3.24643 17.1214 3.44393 17.1835 3.90539C17.2484 4.38843 17.25 5.03599 17.25 6H18.75ZM15.5 21.25H8.5V22.75H15.5V21.25ZM8.5 9.75L15.5 9.75V8.25L8.5 8.25V9.75ZM2.86743 13.0079C3.24051 11.4538 4.45385 10.2405 6.00786 9.86743L5.65769 8.40887C3.55521 8.91363 1.91363 10.5552 1.40887 12.6577L2.86743 13.0079ZM8.5 21.25C7.06216 21.25 6.47522 21.2448 6.00786 21.1326L5.65769 22.5911C6.3412 22.7552 7.14879 22.75 8.5 22.75V21.25ZM1.25 15.5C1.25 16.8512 1.24478 17.6588 1.40887 18.3423L2.86743 17.9921C2.75522 17.5248 2.75 16.9378 2.75 15.5H1.25ZM6.00786 21.1326C4.45385 20.7595 3.24051 19.5462 2.86743 17.9921L1.40887 18.3423C1.91363 20.4448 3.55521 22.0864 5.65769 22.5911L6.00786 21.1326ZM21.25 15.5C21.25 16.9378 21.2448 17.5248 21.1326 17.9921L22.5911 18.3423C22.7552 17.6588 22.75 16.8512 22.75 15.5H21.25ZM15.5 22.75C16.8512 22.75 17.6588 22.7552 18.3423 22.5911L17.9921 21.1326C17.5248 21.2448 16.9378 21.25 15.5 21.25V22.75ZM21.1326 17.9921C20.7595 19.5462 19.5462 20.7595 17.9921 21.1326L18.3423 22.5911C20.4448 22.0864 22.0864 20.4448 22.5911 18.3423L21.1326 17.9921ZM22.5911 12.6577C22.0864 10.5552 20.4448 8.91363 18.3423 8.40887L17.9921 9.86743C19.5462 10.2405 20.7595 11.4538 21.1326 13.0079L22.5911 12.6577ZM9.25 5V7H10.75V5H9.25ZM13.25 5V7H14.75V5H13.25ZM4.99916 12.6165L2.61126 12.2583L2.38875 13.7417L4.77665 14.0999L4.99916 12.6165ZM19.9861 12.5587C15.0226 13.3424 9.9685 13.3619 4.99916 12.6165L4.77665 14.0999C9.89734 14.868 15.1054 14.8479 20.22 14.0403L19.9861 12.5587ZM2.75 15.5C2.75 14.1534 2.75388 13.5536 2.84894 13.091L1.37964 12.7891C1.24612 13.4389 1.25 14.2284 1.25 15.5H2.75ZM2.84894 13.091C2.85478 13.0625 2.86094 13.0349 2.86743 13.0079L1.40887 12.6577C1.39844 12.7011 1.38871 12.7449 1.37964 12.7891L2.84894 13.091ZM2.61527 12.2589L2.22956 12.1989L1.99902 13.6811L2.38473 13.7411L2.61527 12.2589ZM21.7834 12.2749L19.9861 12.5587L20.22 14.0403L22.0174 13.7565L21.7834 12.2749ZM22.75 15.5C22.75 14.283 22.7531 13.5087 22.6381 12.8807L21.1627 13.1508C21.2469 13.6109 21.25 14.2162 21.25 15.5H22.75ZM22.6381 12.8807C22.6243 12.8052 22.6087 12.731 22.5911 12.6577L21.1326 13.0079C21.1435 13.0534 21.1535 13.1008 21.1627 13.1508L22.6381 12.8807ZM15.5 9.75C16.7967 9.75 17.4011 9.75325 17.8617 9.83965L18.1383 8.36536C17.5059 8.24675 16.7282 8.25 15.5 8.25V9.75ZM17.8617 9.83965C17.9071 9.84816 17.9504 9.8574 17.9921 9.86743L18.3423 8.40887C18.2751 8.39274 18.2072 8.3783 18.1383 8.36536L17.8617 9.83965ZM17.25 9V9.10251H18.75V9H17.25ZM8.5 8.25C7.27177 8.25 6.49413 8.24675 5.86174 8.36536L6.13826 9.83965C6.59889 9.75325 7.20326 9.75 8.5 9.75V8.25ZM5.86174 8.36536C5.79276 8.3783 5.72489 8.39274 5.65769 8.40887L6.00786 9.86743C6.04963 9.8574 6.09292 9.84816 6.13826 9.83965L5.86174 8.36536ZM5.25 9V9.1025H6.75V9H5.25Z" fill="#FAFAFA"/>
</svg>
