<svg width="24" height="24" viewBox="0 0 24 24" fill="none" xmlns="http://www.w3.org/2000/svg">
<path d="M10 1V0.25V1ZM14 1V1.75V1ZM18 5H17.25H18ZM6 5H5.25H6ZM6.58579 1.58579L6.05546 1.05546L6.05546 1.05546L6.58579 1.58579ZM2.3806 11.0866L1.68769 10.7996L2.3806 11.0866ZM9.5 8V7.25V8ZM5.08658 8.3806L4.79957 7.68769L5.08658 8.3806ZM9.5 23V23.75V23ZM5.08658 22.6194L4.79957 23.3123L5.08658 22.6194ZM2.3806 19.9134L1.68769 20.2004L2.3806 19.9134ZM22 15.5H22.75H22ZM21.6194 19.9134L22.3123 20.2004L21.6194 19.9134ZM14.5 23V22.25V23ZM18.9134 22.6194L19.2004 23.3123L18.9134 22.6194ZM21.6194 11.0866L22.3123 10.7996L21.6194 11.0866ZM14.5 8V8.75V8ZM18.9134 8.3806L19.2004 7.68769L18.9134 8.3806ZM10.75 4C10.75 3.58579 10.4142 3.25 10 3.25C9.58579 3.25 9.25 3.58579 9.25 4H10.75ZM9.25 6C9.25 6.41421 9.58579 6.75 10 6.75C10.4142 6.75 10.75 6.41421 10.75 6H9.25ZM14.75 4C14.75 3.58579 14.4142 3.25 14 3.25C13.5858 3.25 13.25 3.58579 13.25 4H14.75ZM13.25 6C13.25 6.41421 13.5858 6.75 14 6.75C14.4142 6.75 14.75 6.41421 14.75 6H13.25ZM20.1031 13.2995L19.9861 12.5587L20.1031 13.2995ZM4.88791 13.3582L4.99916 12.6165H4.99916L4.88791 13.3582ZM2.5 13L2.38135 13.7406L2.38875 13.7417L2.5 13ZM6 8.13132L6.12076 8.87154L6 8.13132ZM18 8.13132L17.8792 8.87154L18 8.13132ZM2.03755 12.9259L1.28873 12.8839L2.03755 12.9259ZM10 1.75L14 1.75V0.25L10 0.25V1.75ZM17.25 5V8H18.75V5H17.25ZM6.75 8V5H5.25V8H6.75ZM10 0.25C9.07839 0.25 8.31174 0.248407 7.70552 0.329911C7.07773 0.414316 6.51093 0.599986 6.05546 1.05546L7.11612 2.11612C7.24643 1.9858 7.44393 1.87858 7.90539 1.81654C8.38843 1.75159 9.03599 1.75 10 1.75V0.25ZM6.75 5C6.75 4.03599 6.75159 3.38843 6.81654 2.90539C6.87858 2.44393 6.9858 2.24643 7.11612 2.11612L6.05546 1.05546C5.59999 1.51093 5.41432 2.07773 5.32991 2.70552C5.24841 3.31174 5.25 4.07839 5.25 5H6.75ZM14 1.75C14.964 1.75 15.6116 1.75159 16.0946 1.81654C16.5561 1.87858 16.7536 1.9858 16.8839 2.11612L17.9445 1.05546C17.4891 0.599987 16.9223 0.414316 16.2945 0.329911C15.6883 0.248407 14.9216 0.25 14 0.25V1.75ZM18.75 5C18.75 4.07839 18.7516 3.31174 18.6701 2.70552C18.5857 2.07773 18.4 1.51093 17.9445 1.05546L16.8839 2.11612C17.0142 2.24643 17.1214 2.44393 17.1835 2.90539C17.2484 3.38843 17.25 4.03599 17.25 5H18.75ZM14.5 22.25H9.5V23.75H14.5V22.25ZM9.5 8.75L14.5 8.75V7.25L9.5 7.25V8.75ZM3.07351 11.3736C3.50486 10.3322 4.33223 9.50486 5.3736 9.07351L4.79957 7.68769C3.39066 8.27128 2.27128 9.39066 1.68769 10.7996L3.07351 11.3736ZM9.5 22.25C8.32488 22.25 7.48111 22.2496 6.81527 22.2042C6.15618 22.1592 5.7264 22.0726 5.37359 21.9265L4.79957 23.3123C5.36562 23.5468 5.9777 23.6505 6.71317 23.7007C7.4419 23.7504 8.34541 23.75 9.5 23.75V22.25ZM1.25 15.5C1.25 16.6546 1.24959 17.5581 1.29931 18.2868C1.3495 19.0223 1.45323 19.6344 1.68769 20.2004L3.07351 19.6264C2.92737 19.2736 2.84081 18.8438 2.79584 18.1847C2.75041 17.5189 2.75 16.6751 2.75 15.5H1.25ZM5.37359 21.9265C4.33223 21.4951 3.50486 20.6678 3.07351 19.6264L1.68769 20.2004C2.27128 21.6093 3.39066 22.7287 4.79957 23.3123L5.37359 21.9265ZM21.25 15.5C21.25 16.6751 21.2496 17.5189 21.2042 18.1847C21.1592 18.8438 21.0726 19.2736 20.9265 19.6264L22.3123 20.2004C22.5468 19.6344 22.6505 19.0223 22.7007 18.2868C22.7504 17.5581 22.75 16.6546 22.75 15.5H21.25ZM14.5 23.75C15.6546 23.75 16.5581 23.7504 17.2868 23.7007C18.0223 23.6505 18.6344 23.5468 19.2004 23.3123L18.6264 21.9265C18.2736 22.0726 17.8438 22.1592 17.1847 22.2042C16.5189 22.2496 15.6751 22.25 14.5 22.25V23.75ZM20.9265 19.6264C20.4951 20.6678 19.6678 21.4951 18.6264 21.9265L19.2004 23.3123C20.6093 22.7287 21.7287 21.6093 22.3123 20.2004L20.9265 19.6264ZM22.3123 10.7996C21.7287 9.39066 20.6093 8.27128 19.2004 7.68769L18.6264 9.07351C19.6678 9.50486 20.4951 10.3322 20.9265 11.3736L22.3123 10.7996ZM9.25 4V6H10.75V4H9.25ZM13.25 4V6H14.75V4H13.25ZM4.99916 12.6165L2.61126 12.2583L2.38875 13.7417L4.77665 14.0999L4.99916 12.6165ZM19.9861 12.5587C15.0226 13.3424 9.9685 13.3619 4.99916 12.6165L4.77665 14.0999C9.89734 14.868 15.1054 14.8479 20.22 14.0403L19.9861 12.5587ZM9.5 7.25C7.89452 7.25 6.75913 7.24757 5.87924 7.39111L6.12076 8.87154C6.85085 8.75243 7.83742 8.75 9.5 8.75V7.25ZM5.87924 7.39111C5.49165 7.45434 5.13767 7.54765 4.79957 7.68769L5.3736 9.07351C5.58425 8.98625 5.82291 8.92013 6.12076 8.87154L5.87924 7.39111ZM5.25 8V8.13132H6.75V8H5.25ZM14.5 8.75C16.1626 8.75 17.1492 8.75243 17.8792 8.87154L18.1208 7.39111C17.2409 7.24757 16.1055 7.25 14.5 7.25V8.75ZM17.8792 8.87154C18.1771 8.92013 18.4157 8.98625 18.6264 9.07351L19.2004 7.68769C18.8623 7.54765 18.5084 7.45434 18.1208 7.39111L17.8792 8.87154ZM17.25 8V8.13132H18.75V8H17.25ZM21.8497 12.2644L19.9861 12.5587L20.22 14.0403L22.0837 13.7461L21.8497 12.2644ZM22.75 15.5C22.75 14.4728 22.7502 13.6461 22.7157 12.9672L21.2177 13.0433C21.2498 13.6755 21.25 14.4584 21.25 15.5H22.75ZM22.7157 12.9672C22.6724 12.1154 22.5726 11.4279 22.3123 10.7996L20.9265 11.3736C21.0894 11.767 21.1775 12.2534 21.2177 13.0433L22.7157 12.9672ZM2.75 15.5C2.75 14.4154 2.75027 13.6118 2.78638 12.9679L1.28873 12.8839C1.24973 13.5795 1.25 14.4316 1.25 15.5H2.75ZM2.78638 12.9679C2.82821 12.2218 2.91603 11.7538 3.07351 11.3736L1.68769 10.7996C1.43572 11.4079 1.33432 12.0708 1.28873 12.8839L2.78638 12.9679ZM2.61864 12.2594L2.15619 12.1854L1.91891 13.6665L2.38136 13.7406L2.61864 12.2594Z" fill="#FAFAFA"/>
</svg>
