<svg width="24" height="24" viewBox="0 0 24 24" fill="none" xmlns="http://www.w3.org/2000/svg">
<path d="M6.08658 21.5657L5.78803 22.2537L6.08658 21.5657ZM3.3806 18.7309L2.68314 19.0067L3.3806 18.7309ZM20.6194 18.7309L21.3169 19.0067L20.6194 18.7309ZM17.9134 21.5657L18.212 22.2537L17.9134 21.5657ZM3 11.4645L3.74706 11.5309L3.78376 11.1177L3.45337 10.867L3 11.4645ZM19.5 6.96446V6.21446H19.5L19.5 6.96446ZM12.7678 5.85355L13.2981 6.38388L12.7678 5.85355ZM14.8891 3.73223L15.4194 4.26256L14.8891 3.73223ZM18.4246 3.73223L17.8943 4.26256L18.4246 3.73223ZM18.6835 6.96445L18.6835 7.71445L19.0663 7.71442L19.2909 7.40446L18.6835 6.96445ZM11.3891 5.85357L10.8588 6.3839L11.3891 5.85357ZM9.26778 3.73225L8.73745 4.26258L9.26778 3.73225ZM5.73225 3.73225L6.26258 4.26258L5.73225 3.73225ZM12 20.9645H12.75H12ZM2.96752 11.4398L2.50739 12.0321L2.96752 11.4398ZM20.9354 11.5116L20.5043 10.8979L20.9354 11.5116ZM10.5 21.2145C9.3244 21.2145 8.48204 21.214 7.81769 21.1665C7.1608 21.1196 6.73463 21.0294 6.38514 20.8777L5.78803 22.2537C6.3574 22.5008 6.97308 22.61 7.71075 22.6627C8.44097 22.7149 9.34589 22.7145 10.5 22.7145V21.2145ZM2.25003 14.1073C2.25003 15.3179 2.24965 16.2616 2.29918 17.0221C2.3491 17.7887 2.45201 18.4221 2.68314 19.0067L4.07806 18.4551C3.92859 18.0771 3.84122 17.619 3.79601 16.9246C3.75039 16.2242 3.75003 15.3375 3.75003 14.1073H2.25003ZM6.38514 20.8777C5.34904 20.4281 4.51518 19.5607 4.07806 18.4551L2.68314 19.0067C3.26097 20.4681 4.37384 21.6401 5.78803 22.2537L6.38514 20.8777ZM20.25 14.1073C20.25 15.3374 20.2496 16.2242 20.204 16.9246C20.1588 17.619 20.0714 18.0771 19.9219 18.4551L21.3169 19.0067C21.548 18.4221 21.6509 17.7887 21.7008 17.0221C21.7504 16.2616 21.75 15.3178 21.75 14.1073H20.25ZM13.5 22.7145C14.6541 22.7145 15.559 22.7149 16.2893 22.6627C17.0269 22.61 17.6426 22.5008 18.212 22.2537L17.6149 20.8777C17.2654 21.0294 16.8392 21.1196 16.1823 21.1665C15.518 21.214 14.6756 21.2145 13.5 21.2145V22.7145ZM19.9219 18.4551C19.4848 19.5607 18.651 20.4281 17.6149 20.8777L18.212 22.2537C19.6262 21.6401 20.739 20.4681 21.3169 19.0067L19.9219 18.4551ZM3.75003 14.1073C3.75003 12.6341 3.68176 12.2657 3.74706 11.5309L2.25294 11.3981C2.18076 12.2105 2.25003 12.8214 2.25003 14.1073H3.75003ZM19.5 7.71446C20.4665 7.71446 21.25 8.49796 21.25 9.46446H22.75C22.75 7.66954 21.2949 6.21446 19.5 6.21446V7.71446ZM4.5 6.21446C2.70507 6.21446 1.25 7.66954 1.25 9.46446H2.75C2.75 8.49796 3.5335 7.71446 4.5 7.71446V6.21446ZM13.2981 6.38388L15.4194 4.26256L14.3588 3.2019L12.2374 5.32322L13.2981 6.38388ZM15.4194 4.26256C16.1028 3.57915 17.2109 3.57915 17.8943 4.26256L18.955 3.2019C17.6857 1.9327 15.628 1.9327 14.3588 3.2019L15.4194 4.26256ZM12.2374 5.32322C11.9239 5.63678 11.4446 6.14706 11.2762 6.76812L12.7238 7.16083C12.7761 6.96806 12.9726 6.70934 13.2981 6.38388L12.2374 5.32322ZM17.8943 4.26256C18.5102 4.87851 18.5714 5.84078 18.0761 6.52443L19.2909 7.40446C20.2117 6.13337 20.1003 4.34725 18.955 3.2019L17.8943 4.26256ZM11.9194 5.32324L9.79811 3.20192L8.73745 4.26258L10.8588 6.3839L11.9194 5.32324ZM9.79811 3.20192C8.52891 1.93271 6.47112 1.93271 5.20192 3.20192L6.26258 4.26258C6.94599 3.57916 8.05403 3.57916 8.73745 4.26258L9.79811 3.20192ZM10.8588 6.3839C11.0598 6.58497 11.189 6.83942 11.2762 7.16083L12.7238 6.76812C12.5903 6.2757 12.3574 5.76118 11.9194 5.32324L10.8588 6.3839ZM5.20192 3.20192C4.05657 4.34726 3.94516 6.13339 4.86601 7.40447L6.08074 6.52445C5.58546 5.8408 5.64663 4.87853 6.26258 4.26258L5.20192 3.20192ZM11.25 6.96448L11.25 20.9645H12.75L12.75 6.96448H11.25ZM5.47338 7.71446L12 7.71448L12 6.21448L5.47338 6.21446L5.47338 7.71446ZM4.5 11.2145C4.09497 11.2145 3.72397 11.0778 3.42766 10.8476L2.50739 12.0321C3.05758 12.4595 3.75007 12.7145 4.5 12.7145V11.2145ZM3.42766 10.8476C3.01395 10.5262 2.75 10.0263 2.75 9.46446H1.25C1.25 10.5091 1.74367 11.4388 2.50739 12.0321L3.42766 10.8476ZM3.45337 10.867L3.42089 10.8424L2.51415 12.0373L2.54663 12.0619L3.45337 10.867ZM13.5 21.2145H12V22.7145H13.5V21.2145ZM12 21.2145H10.5V22.7145H12V21.2145ZM11.25 20.9645L11.25 21.9645H12.75L12.75 20.9645H11.25ZM19.5 11.2145H12V12.7145H19.5V11.2145ZM12 11.2145H4.5V12.7145H12V11.2145ZM21.25 9.46446C21.25 10.0564 20.9568 10.58 20.5043 10.8979L21.3665 12.1253C22.2017 11.5386 22.75 10.5656 22.75 9.46446H21.25ZM20.5043 10.8979C20.2202 11.0974 19.8749 11.2145 19.5 11.2145V12.7145C20.1934 12.7145 20.8381 12.4965 21.3665 12.1253L20.5043 10.8979ZM21.75 14.1073C21.75 12.7624 21.7505 12.2318 21.6826 11.4469L20.1882 11.5762C20.2495 12.2851 20.25 12.7495 20.25 14.1073H21.75ZM12 7.71448L18.4246 7.71446L18.4246 6.21446L12 6.21448L12 7.71448ZM18.4247 7.71446L18.6835 7.71445L18.6834 6.21445L18.4246 6.21446L18.4247 7.71446ZM18.4246 7.71446L19.5 7.71446L19.5 6.21446L18.4246 6.21446L18.4246 7.71446ZM5.47338 6.21446H4.5V7.71446H5.47338V6.21446ZM4.5 7.71446L8.25 7.71447L8.25 6.21447L4.5 6.21446L4.5 7.71446ZM8.25 7.71447L12 7.71448L12 6.21448L8.25 6.21447L8.25 7.71447ZM5.47337 7.71446L8.25 7.71447L8.25 6.21447L5.47338 6.21446L5.47337 7.71446ZM12 7.71448L18.6835 7.71445L18.6835 6.21445L12 6.21448L12 7.71448Z" fill="#FAFAFA"/>
</svg>
