<svg width="24" height="24" viewBox="0 0 24 24" fill="none" xmlns="http://www.w3.org/2000/svg">
<path d="M6.08658 20.6013L5.78803 21.2893L6.08658 20.6013ZM3.3806 17.7664L2.68314 18.0422L3.3806 17.7664ZM20.6194 17.7664L21.3169 18.0422L20.6194 17.7664ZM17.9134 20.6013L18.212 21.2893L17.9134 20.6013ZM12 20H12.75H12ZM3.04233 10.5313L2.60455 11.1403H2.60455L3.04233 10.5313ZM10.5 20.25C9.3244 20.25 8.48204 20.2496 7.81769 20.2021C7.1608 20.1551 6.73463 20.0649 6.38514 19.9133L5.78803 21.2893C6.3574 21.5364 6.97308 21.6455 7.71075 21.6983C8.44097 21.7504 9.34589 21.75 10.5 21.75V20.25ZM2.25 13.1429C2.25 14.3534 2.24963 15.2971 2.29916 16.0577C2.34909 16.8243 2.45201 17.4576 2.68314 18.0422L4.07806 17.4907C3.92859 17.1126 3.84121 16.6545 3.79599 15.9602C3.75037 15.2597 3.75 14.373 3.75 13.1429H2.25ZM6.38514 19.9133C5.34904 19.4637 4.51518 18.5962 4.07806 17.4907L2.68314 18.0422C3.26097 19.5036 4.37384 20.6756 5.78803 21.2893L6.38514 19.9133ZM20.25 13.1429C20.25 14.373 20.2496 15.2597 20.204 15.9602C20.1588 16.6545 20.0714 17.1126 19.9219 17.4907L21.3169 18.0422C21.548 17.4576 21.6509 16.8243 21.7008 16.0577C21.7504 15.2971 21.75 14.3534 21.75 13.1429H20.25ZM13.5 21.75C14.6541 21.75 15.559 21.7504 16.2893 21.6983C17.0269 21.6455 17.6426 21.5364 18.212 21.2893L17.6149 19.9133C17.2654 20.0649 16.8392 20.1551 16.1823 20.2021C15.518 20.2496 14.6756 20.25 13.5 20.25V21.75ZM19.9219 17.4907C19.4848 18.5962 18.651 19.4637 17.6149 19.9133L18.212 21.2893C19.6262 20.6756 20.739 19.5036 21.3169 18.0422L19.9219 17.4907ZM3.75 13.1429C3.75 11.6696 3.68173 11.3013 3.74703 10.5664L2.25291 10.4336C2.18073 11.246 2.25 11.857 2.25 13.1429H3.75ZM19.5 6.75C20.4665 6.75 21.25 7.5335 21.25 8.5H22.75C22.75 6.70507 21.2949 5.25 19.5 5.25V6.75ZM4.5 5.25C2.70507 5.25 1.25 6.70507 1.25 8.5H2.75C2.75 7.5335 3.5335 6.75 4.5 6.75V5.25ZM11.25 6L11.25 20H12.75L12.75 6H11.25ZM14 5.25H12V6.75H14V5.25ZM12.75 6V4H11.25V6H12.75ZM15.25 4C15.25 4.69036 14.6904 5.25 14 5.25V6.75C15.5188 6.75 16.75 5.51878 16.75 4H15.25ZM14 2.75C14.6904 2.75 15.25 3.30964 15.25 4H16.75C16.75 2.48122 15.5188 1.25 14 1.25V2.75ZM14 1.25C12.4812 1.25 11.25 2.48122 11.25 4H12.75C12.75 3.30964 13.3096 2.75 14 2.75V1.25ZM10 6.75H12V5.25H10V6.75ZM7.25 4C7.25 5.51878 8.48122 6.75 10 6.75V5.25C9.30964 5.25 8.75 4.69036 8.75 4H7.25ZM10 1.25C8.48122 1.25 7.25 2.48122 7.25 4H8.75C8.75 3.30964 9.30964 2.75 10 2.75V1.25ZM10 2.75C10.6904 2.75 11.25 3.30964 11.25 4H12.75C12.75 2.48122 11.5188 1.25 10 1.25V2.75ZM4.5 6.75H12V5.25H4.5V6.75ZM12 6.75H19.5V5.25H12V6.75ZM13.5 20.25H12V21.75H13.5V20.25ZM12 20.25H10.5V21.75H12V20.25ZM11.25 20L11.25 21H12.75L12.75 20H11.25ZM19.5 10.25H12V11.75H19.5V10.25ZM12 10.25H4.5V11.75H12V10.25ZM4.5 10.25C4.11829 10.25 3.76714 10.1287 3.48011 9.92231L2.60455 11.1403C3.13821 11.5239 3.79381 11.75 4.5 11.75V10.25ZM3.48011 9.92231C3.03646 9.60339 2.75 9.08516 2.75 8.5H1.25C1.25 9.58837 1.78572 10.5516 2.60455 11.1403L3.48011 9.92231ZM21.25 8.5C21.25 9.09197 20.9568 9.61554 20.5043 9.93341L21.3665 11.1608C22.2017 10.5742 22.75 9.60116 22.75 8.5H21.25ZM20.5043 9.93341C20.2202 10.133 19.8749 10.25 19.5 10.25V11.75C20.1934 11.75 20.8381 11.532 21.3665 11.1608L20.5043 9.93341ZM21.75 13.1429C21.75 11.7979 21.7505 11.2674 21.6826 10.4825L20.1882 10.6118C20.2495 11.3207 20.25 11.7851 20.25 13.1429H21.75Z" fill="#FAFAFA"/>
</svg>
