<svg width="24" height="24" viewBox="0 0 24 24" fill="none" xmlns="http://www.w3.org/2000/svg">
<path d="M8.00001 22.4063C9.00322 22.5279 10.2763 22.5279 12 22.5279C13.7237 22.5279 14.9968 22.5279 16 22.4063M8.00001 22.4063C7.08473 22.2955 6.39406 22.0834 5.79064 21.678C5.68918 21.6098 5.59025 21.5379 5.49405 21.4625C4.2949 20.5222 3.78559 18.9547 2.76696 15.8197C1.74832 12.6846 1.23901 11.1171 1.65645 9.65157C1.68994 9.534 1.72773 9.41771 1.76974 9.30291C2.29344 7.87189 3.62685 6.90311 6.29367 4.96556C8.96048 3.028 10.2939 2.05923 11.8167 2.00336C11.9389 1.99888 12.0611 1.99888 12.1833 2.00336C13.7061 2.05923 15.0395 3.028 17.7063 4.96556C20.3732 6.90311 21.7066 7.87189 22.2303 9.30291C22.2723 9.41771 22.3101 9.534 22.3436 9.65157C22.761 11.1171 22.2517 12.6846 21.2331 15.8197C20.2144 18.9547 19.7051 20.5222 18.506 21.4625C18.4098 21.5379 18.3108 21.6098 18.2094 21.678C17.606 22.0834 16.9153 22.2955 16 22.4063M8.00001 22.4063V22.3197V18.8197C8.00001 16.6105 9.79087 14.8197 12 14.8197C14.2091 14.8197 16 16.6105 16 18.8197V22.3197V22.4063" stroke="#FAFAFA" stroke-width="1.5"/>
</svg>
