<svg width="24" height="24" viewBox="0 0 24 24" fill="none" xmlns="http://www.w3.org/2000/svg">
<path d="M2.76696 15.8197L3.48025 15.5879L2.76696 15.8197ZM1.65645 9.65157L2.37776 9.85703L1.65645 9.65157ZM6.29367 4.96556L5.85283 4.3588L6.29367 4.96556ZM1.76974 9.30291L2.47405 9.56067L1.76974 9.30291ZM5.79064 21.678L5.37234 22.3005L5.79064 21.678ZM5.49405 21.4625L5.03126 22.0527L5.49405 21.4625ZM21.2331 15.8197L20.5198 15.5879L21.2331 15.8197ZM18.506 21.4625L18.9687 22.0527L18.506 21.4625ZM18.2094 21.678L18.6277 22.3005L18.2094 21.678ZM17.7063 4.96556L18.1472 4.3588L17.7063 4.96556ZM22.2303 9.30291L21.526 9.56067L22.2303 9.30291ZM22.3436 9.65157L21.6222 9.85703L22.3436 9.65157ZM12.1833 2.00336L12.1558 2.75286L12.1833 2.00336ZM11.8167 2.00336L11.8442 2.75286L11.8167 2.00336ZM10 17.0697C9.58579 17.0697 9.25001 17.4054 9.25001 17.8197C9.25001 18.2339 9.58579 18.5697 10 18.5697V17.0697ZM14 18.5697C14.4142 18.5697 14.75 18.2339 14.75 17.8197C14.75 17.4054 14.4142 17.0697 14 17.0697V18.5697ZM3.48025 15.5879C2.96589 14.0049 2.5995 12.874 2.40725 11.9558C2.21861 11.055 2.21454 10.4301 2.37776 9.85703L0.935142 9.44611C0.680922 10.3386 0.722785 11.2303 0.939095 12.2633C1.1518 13.2791 1.54938 14.4994 2.05366 16.0514L3.48025 15.5879ZM5.85283 4.3588C4.53261 5.31799 3.49365 6.07158 2.7245 6.76835C1.94232 7.47693 1.38435 8.17368 1.06542 9.04515L2.47405 9.56067C2.67883 9.00112 3.04942 8.49798 3.73157 7.88002C4.42676 7.25026 5.38791 6.55068 6.73451 5.57232L5.85283 4.3588ZM2.37776 9.85703C2.40622 9.7571 2.43834 9.65824 2.47405 9.56067L1.06542 9.04515C1.01711 9.17717 0.973652 9.31091 0.935142 9.44611L2.37776 9.85703ZM12 21.7779C10.3355 21.7779 9.14673 21.7768 8.21414 21.676C7.29905 21.577 6.70349 21.3878 6.20894 21.0555L5.37234 22.3005C6.1426 22.8181 7.00355 23.0538 8.05284 23.1673C9.08464 23.2789 10.3681 23.2779 12 23.2779V21.7779ZM2.05366 16.0514C2.55794 17.6034 2.95359 18.8244 3.37858 19.7712C3.81077 20.7341 4.301 21.4801 5.03126 22.0527L5.95684 20.8723C5.48796 20.5046 5.12396 19.9967 4.74704 19.157C4.36292 18.3012 3.9946 17.1709 3.48025 15.5879L2.05366 16.0514ZM6.20894 21.0555C6.12269 20.9975 6.0386 20.9364 5.95684 20.8723L5.03126 22.0527C5.14189 22.1394 5.25566 22.2221 5.37234 22.3005L6.20894 21.0555ZM20.5198 15.5879C20.0054 17.1709 19.6371 18.3012 19.253 19.157C18.8761 19.9967 18.5121 20.5046 18.0432 20.8723L18.9687 22.0527C19.699 21.4801 20.1892 20.7341 20.6214 19.7712C21.0464 18.8244 21.4421 17.6034 21.9464 16.0514L20.5198 15.5879ZM12 23.2779C13.6319 23.2779 14.9154 23.2789 15.9472 23.1673C16.9965 23.0538 17.8574 22.8181 18.6277 22.3005L17.7911 21.0555C17.2965 21.3878 16.701 21.577 15.7859 21.676C14.8533 21.7768 13.6645 21.7779 12 21.7779V23.2779ZM18.0432 20.8723C17.9614 20.9364 17.8773 20.9975 17.7911 21.0555L18.6277 22.3005C18.7444 22.2221 18.8581 22.1394 18.9687 22.0527L18.0432 20.8723ZM17.2655 5.57232C18.6121 6.55068 19.5733 7.25026 20.2684 7.88002C20.9506 8.49798 21.3212 9.00112 21.526 9.56067L22.9346 9.04515C22.6157 8.17368 22.0577 7.47693 21.2755 6.76835C20.5064 6.07158 19.4674 5.31799 18.1472 4.3588L17.2655 5.57232ZM21.9464 16.0514C22.4506 14.4994 22.8482 13.2791 23.0609 12.2633C23.2772 11.2303 23.3191 10.3386 23.0649 9.44611L21.6222 9.85703C21.7855 10.4301 21.7814 11.055 21.5928 11.9558C21.4005 12.874 21.0341 14.0049 20.5198 15.5879L21.9464 16.0514ZM21.526 9.56067C21.5617 9.65824 21.5938 9.75709 21.6222 9.85703L23.0649 9.44611C23.0264 9.31091 22.9829 9.17717 22.9346 9.04515L21.526 9.56067ZM18.1472 4.3588C16.827 3.3996 15.7892 2.64436 14.8889 2.12818C13.9733 1.60323 13.1382 1.28789 12.2108 1.25387L12.1558 2.75286C12.7512 2.7747 13.3443 2.97167 14.1428 3.42948C14.9566 3.89603 15.9189 4.59396 17.2655 5.57232L18.1472 4.3588ZM6.73451 5.57232C8.0811 4.59396 9.04345 3.89603 9.85722 3.42948C10.6557 2.97167 11.2488 2.7747 11.8442 2.75286L11.7892 1.25387C10.8618 1.28789 10.0268 1.60323 9.11115 2.12818C8.21081 2.64436 7.17305 3.3996 5.85283 4.3588L6.73451 5.57232ZM12.2108 1.25387C12.0703 1.24871 11.9297 1.24871 11.7892 1.25387L11.8442 2.75286C11.948 2.74905 12.052 2.74905 12.1558 2.75286L12.2108 1.25387ZM10 18.5697H14V17.0697H10V18.5697Z" fill="#FAFAFA"/>
</svg>
