<svg width="24" height="24" viewBox="0 0 24 24" fill="none" xmlns="http://www.w3.org/2000/svg">
<path d="M3 12C3 8.25027 3 6.3754 3.95491 5.06107C4.26331 4.6366 4.6366 4.26331 5.06107 3.95491C6.3754 3 8.25027 3 12 3C15.7497 3 17.6246 3 18.9389 3.95491C19.3634 4.26331 19.7367 4.6366 20.0451 5.06107C21 6.3754 21 8.25027 21 12C21 15.7497 21 17.6246 20.0451 18.9389C19.7367 19.3634 19.3634 19.7367 18.9389 20.0451C17.6246 21 15.7497 21 12 21C8.25027 21 6.3754 21 5.06107 20.0451C4.6366 19.7367 4.26331 19.3634 3.95491 18.9389C3 17.6246 3 15.7497 3 12Z" stroke="#FAFAFA" stroke-width="1.5"/>
<path d="M9 12C9 12.5523 8.55228 13 8 13C7.44772 13 7 12.5523 7 12C7 11.4477 7.44772 11 8 11C8.55228 11 9 11.4477 9 12Z" fill="#FAFAFA"/>
<path d="M13 12C13 12.5523 12.5523 13 12 13C11.4477 13 11 12.5523 11 12C11 11.4477 11.4477 11 12 11C12.5523 11 13 11.4477 13 12Z" fill="#FAFAFA"/>
<path d="M17 12C17 12.5523 16.5523 13 16 13C15.4477 13 15 12.5523 15 12C15 11.4477 15.4477 11 16 11C16.5523 11 17 11.4477 17 12Z" fill="#FAFAFA"/>
</svg>
