<svg width="24" height="24" viewBox="0 0 24 24" fill="none" xmlns="http://www.w3.org/2000/svg">
<path d="M6 9H6.75H6ZM6.06156 7.21783L5.32079 7.1005L6.06156 7.21783ZM10.2178 3.06156L10.1005 2.32079L10.2178 3.06156ZM10.2178 20.9384L10.1005 21.6792L10.2178 20.9384ZM6 15H5.25H6ZM6.06156 16.7822L5.32079 16.8995L6.06156 16.7822ZM18 15H18.75H18ZM17.9384 16.7822L18.6792 16.8995L17.9384 16.7822ZM13.7822 20.9384L13.8995 21.6792L13.7822 20.9384ZM18 9H17.25H18ZM17.9384 7.21783L18.6792 7.1005L17.9384 7.21783ZM13.7822 3.06156L13.8995 2.32079L13.7822 3.06156ZM6 16H5.25H6ZM11 11V10.25V11ZM11.25 9C11.25 9.41422 11.5858 9.75 12 9.75C12.4142 9.75 12.75 9.41422 12.75 9H11.25ZM17.25 9V15H18.75V9H17.25ZM6.75 15L6.75 9H5.25L5.25 15H6.75ZM6.75 9C6.75 8.04233 6.75233 7.65082 6.80233 7.33515L5.32079 7.1005C5.24767 7.56216 5.25 8.09965 5.25 9H6.75ZM12 2.25C11.0997 2.25 10.5622 2.24767 10.1005 2.32079L10.3352 3.80232C10.6508 3.75233 11.0423 3.75 12 3.75V2.25ZM6.80233 7.33515C7.09035 5.51661 8.51661 4.09035 10.3352 3.80232L10.1005 2.32079C7.64012 2.71048 5.71048 4.64012 5.32079 7.1005L6.80233 7.33515ZM12 20.25C11.0423 20.25 10.6508 20.2477 10.3352 20.1977L10.1005 21.6792C10.5622 21.7523 11.0997 21.75 12 21.75V20.25ZM5.25 15C5.25 15.9003 5.24767 16.4378 5.32079 16.8995L6.80233 16.6648C6.75233 16.3492 6.75 15.9577 6.75 15H5.25ZM10.3352 20.1977C8.51661 19.9096 7.09035 18.4834 6.80233 16.6648L5.32079 16.8995C5.71048 19.3599 7.64012 21.2895 10.1005 21.6792L10.3352 20.1977ZM17.25 15C17.25 15.9577 17.2477 16.3492 17.1977 16.6648L18.6792 16.8995C18.7523 16.4378 18.75 15.9003 18.75 15H17.25ZM12 21.75C12.9003 21.75 13.4378 21.7523 13.8995 21.6792L13.6648 20.1977C13.3492 20.2477 12.9577 20.25 12 20.25V21.75ZM17.1977 16.6648C16.9096 18.4834 15.4834 19.9096 13.6648 20.1977L13.8995 21.6792C16.3599 21.2895 18.2895 19.3599 18.6792 16.8995L17.1977 16.6648ZM18.75 9C18.75 8.09966 18.7523 7.56216 18.6792 7.1005L17.1977 7.33515C17.2477 7.65082 17.25 8.04233 17.25 9H18.75ZM12 3.75C12.9577 3.75 13.3492 3.75233 13.6648 3.80232L13.8995 2.32079C13.4378 2.24767 12.9003 2.25 12 2.25V3.75ZM18.6792 7.1005C18.2895 4.64012 16.3599 2.71048 13.8995 2.32079L13.6648 3.80232C15.4834 4.09035 16.9096 5.51661 17.1977 7.33515L18.6792 7.1005ZM13 20.25L11 20.25L11 21.75L13 21.75L13 20.25ZM11 11.75H13V10.25H11V11.75ZM6.75 16C6.75 13.6528 8.65279 11.75 11 11.75V10.25C7.82436 10.25 5.25 12.8244 5.25 16H6.75ZM11 20.25C8.65279 20.25 6.75 18.3472 6.75 16H5.25C5.25 19.1756 7.82436 21.75 11 21.75V20.25ZM17.25 16C17.25 18.3472 15.3472 20.25 13 20.25V21.75C16.1756 21.75 18.75 19.1756 18.75 16H17.25ZM18.75 16C18.75 12.8244 16.1756 10.25 13 10.25V11.75C15.3472 11.75 17.25 13.6528 17.25 16H18.75ZM12.75 9L12.75 3L11.25 3L11.25 9H12.75Z" fill="#FAFAFA"/>
</svg>
