<svg width="24" height="24" viewBox="0 0 24 24" fill="none" xmlns="http://www.w3.org/2000/svg">
<path d="M15.1831 2.61489C14.4812 2.22405 13.671 2 12.8029 2H11.0999C8.15552 2 5.87737 4.58064 6.24258 7.50234L6.32194 8.13719C6.46808 9.30631 6.04102 10.4741 5.17514 11.2731C3.99242 12.3645 3.66383 14.1016 4.36619 15.5496L4.46954 15.7627C5.13331 17.1311 6.52054 18 8.04144 18H16.2623C17.5656 18 18.7785 17.3342 19.4783 16.2347C20.4661 14.6826 20.2045 12.6465 18.8564 11.3945L18.8125 11.3538C18.3991 10.9698 18.0805 10.5067 17.8697 10C17.7836 9.79308 17.7154 9.5789 17.6662 9.35988M9.18317 21L9.48317 21.4C10.8332 23.2 13.5332 23.2 14.8832 21.4L15.1832 21" stroke="#FAFAFA" stroke-width="1.5" stroke-linecap="round"/>
<path d="M19.1831 6C19.1831 7.10457 18.2877 8 17.1831 8C16.0785 8 15.1831 7.10457 15.1831 6C15.1831 4.89543 16.0785 4 17.1831 4C18.2877 4 19.1831 4.89543 19.1831 6Z" fill="#FAFAFA"/>
</svg>
