<svg width="24" height="24" viewBox="0 0 24 24" fill="none" xmlns="http://www.w3.org/2000/svg">
<path d="M9.18336 21L9.48336 21.4C10.8334 23.2 13.5334 23.2 14.8834 21.4L15.1834 21M4.36619 15.5496L4.46954 15.7627C5.13331 17.1311 6.52054 18 8.04144 18H16.2623C17.5656 18 18.7785 17.3342 19.4783 16.2347C20.4661 14.6826 20.2045 12.6465 18.8564 11.3945L18.8125 11.3538C17.8972 10.5038 17.4466 9.26543 17.6015 8.02598L17.6662 7.50905C18.0318 4.58379 15.7509 2 12.8029 2H11.0999C8.15552 2 5.87737 4.58064 6.24258 7.50234L6.32194 8.13719C6.46808 9.30631 6.04102 10.4741 5.17514 11.2731C3.99242 12.3645 3.66383 14.1016 4.36619 15.5496Z" stroke="#FAFAFA" stroke-width="1.5" stroke-linecap="round"/>
</svg>
