<svg width="24" height="24" viewBox="0 0 24 24" fill="none" xmlns="http://www.w3.org/2000/svg">
<path d="M1.99994 12L1.25747 12.1061L1.26472 12.1568L1.27879 12.206L1.99994 12ZM8.42323 5.41035L8.11863 6.09571H8.11863L8.42323 5.41035ZM8.95421 5.64635L9.25882 4.96099L9.25882 4.96099L8.95421 5.64635ZM10.9617 6.41942L10.8059 7.15307L10.9617 6.41942ZM15.0457 5.64635L14.7411 4.96099V4.96099L15.0457 5.64635ZM13.0382 6.41942L13.194 7.15307L13.0382 6.41942ZM15.5599 17.5377L16.1908 17.1321L16.1908 17.1321L15.5599 17.5377ZM8.29462 17.7638L7.66374 17.3582L8.29462 17.7638ZM3.44214 17.0477L4.16328 16.8417L3.44214 17.0477ZM21.3905 16.2662L20.648 16.1601L21.3905 16.2662ZM22.2236 10.4344L22.966 10.5405L22.2236 10.4344ZM8.66899 17.1815L9.29988 17.587L8.66899 17.1815ZM15.3309 17.1815L14.7 17.587L14.7 17.587L15.3309 17.1815ZM15.5766 5.41035L15.8812 6.09571L15.5766 5.41035ZM1.77629 10.4344L1.03382 10.5405L1.77629 10.4344ZM4.99994 10.25C4.58572 10.25 4.24994 10.5858 4.24994 11C4.24994 11.4142 4.58572 11.75 4.99994 11.75V10.25ZM8.99994 11.75C9.41415 11.75 9.74994 11.4142 9.74994 11C9.74994 10.5858 9.41415 10.25 8.99994 10.25V11.75ZM6.24994 13C6.24994 13.4142 6.58572 13.75 6.99994 13.75C7.41415 13.75 7.74994 13.4142 7.74994 13H6.24994ZM7.74994 9C7.74994 8.58579 7.41415 8.25 6.99994 8.25C6.58572 8.25 6.24994 8.58579 6.24994 9H7.74994ZM4.16328 16.8417L2.72108 11.794L1.27879 12.206L2.72099 17.2537L4.16328 16.8417ZM2.7424 11.8939L2.51875 10.3284L1.03382 10.5405L1.25747 12.1061L2.7424 11.8939ZM8.03811 16.7759L7.66374 17.3582L8.92551 18.1694L9.29988 17.587L8.03811 16.7759ZM16.1908 17.1321L15.9618 16.7759L14.7 17.587L14.929 17.9433L16.1908 17.1321ZM8.11863 6.09571L8.64961 6.3317L9.25882 4.96099L8.72784 4.725L8.11863 6.09571ZM15.3503 6.3317L15.8812 6.09571L15.272 4.725L14.7411 4.96099L15.3503 6.3317ZM6.48956 5.75C7.05079 5.75 7.60577 5.86778 8.11863 6.09571L8.72784 4.725C8.02319 4.41182 7.26066 4.25 6.48956 4.25V5.75ZM8.64961 6.3317C9.61675 6.76155 10.1979 7.024 10.8059 7.15307L11.1174 5.68577C10.6992 5.597 10.2841 5.41669 9.25882 4.96099L8.64961 6.3317ZM14.7411 4.96099C13.7157 5.41669 13.3006 5.597 12.8825 5.68577L13.194 7.15307C13.802 7.024 14.3831 6.76155 15.3503 6.3317L14.7411 4.96099ZM10.8059 7.15307C11.5932 7.32019 12.4067 7.32019 13.194 7.15307L12.8825 5.68577C12.3006 5.80929 11.6993 5.80929 11.1174 5.68577L10.8059 7.15307ZM18.2383 18.25C17.4101 18.25 16.6387 17.8288 16.1908 17.1321L14.929 17.9433C15.6529 19.0693 16.8997 19.75 18.2383 19.75V18.25ZM7.66374 17.3582C7.30645 17.914 6.69107 18.25 6.03035 18.25V19.75C7.20147 19.75 8.29222 19.1545 8.92551 18.1694L7.66374 17.3582ZM2.72099 17.2537C3.14316 18.7313 4.49366 19.75 6.03035 19.75V18.25C5.16338 18.25 4.40146 17.6753 4.16328 16.8417L2.72099 17.2537ZM20.648 16.1601C20.4767 17.3593 19.4497 18.25 18.2383 18.25V19.75C20.1962 19.75 21.8561 18.3104 22.1329 16.3722L20.648 16.1601ZM22.966 10.5405C23.4403 7.22043 20.8641 4.25 17.5103 4.25V5.75C19.9513 5.75 21.8263 7.91195 21.4811 10.3284L22.966 10.5405ZM9.29988 17.587C10.5634 15.6216 13.4365 15.6216 14.7 17.587L15.9618 16.7759C14.1078 13.8919 9.89208 13.8919 8.03811 16.7759L9.29988 17.587ZM15.8812 6.09571C16.3941 5.86778 16.9491 5.75 17.5103 5.75V4.25C16.7392 4.25 15.9767 4.41182 15.272 4.725L15.8812 6.09571ZM2.51875 10.3284C2.17354 7.91195 4.04859 5.75 6.48956 5.75V4.25C3.13577 4.25 0.559525 7.22043 1.03382 10.5405L2.51875 10.3284ZM7.74994 13V9H6.24994V13H7.74994ZM21.4811 10.3284L20.648 16.1601L22.1329 16.3722L22.966 10.5405L21.4811 10.3284ZM4.99994 11.75H6.99994V10.25H4.99994V11.75ZM6.99994 11.75H8.99994V10.25H6.99994V11.75Z" fill="#FAFAFA"/>
<path d="M18 9C18 9.55228 17.5523 10 17 10C16.4477 10 16 9.55228 16 9C16 8.44772 16.4477 8 17 8C17.5523 8 18 8.44772 18 9Z" fill="#FAFAFA"/>
<path d="M16 11C16 11.5523 15.5523 12 15 12C14.4477 12 14 11.5523 14 11C14 10.4477 14.4477 10 15 10C15.5523 10 16 10.4477 16 11Z" fill="#FAFAFA"/>
<path d="M20 11C20 11.5523 19.5523 12 19 12C18.4477 12 18 11.5523 18 11C18 10.4477 18.4477 10 19 10C19.5523 10 20 10.4477 20 11Z" fill="#FAFAFA"/>
<path d="M18 13C18 13.5523 17.5523 14 17 14C16.4477 14 16 13.5523 16 13C16 12.4477 16.4477 12 17 12C17.5523 12 18 12.4477 18 13Z" fill="#FAFAFA"/>
</svg>
