<svg width="24" height="24" viewBox="0 0 24 24" fill="none" xmlns="http://www.w3.org/2000/svg">
<g clip-path="url(#clip0_20_6024)">
<path d="M8.45492 18.7553L8.68668 18.042L8.45492 18.7553ZM5.24472 15.5451L5.95801 15.3133L5.24472 15.5451ZM18.7553 15.5451L18.042 15.3133L18.7553 15.5451ZM15.5451 18.7553L15.3133 18.042L15.5451 18.7553ZM15.5451 5.24472L15.3133 5.95801L15.5451 5.24472ZM18.7553 8.45492L18.042 8.68668L18.7553 8.45492ZM8.45492 5.24472L8.68668 5.95801L8.45492 5.24472ZM5.24472 8.45492L5.95801 8.68668L5.24472 8.45492ZM1 11.25C0.585786 11.25 0.25 11.5858 0.25 12C0.25 12.4142 0.585786 12.75 1 12.75V11.25ZM12.75 1C12.75 0.585786 12.4142 0.25 12 0.25C11.5858 0.25 11.25 0.585786 11.25 1H12.75ZM11.25 23C11.25 23.4142 11.5858 23.75 12 23.75C12.4142 23.75 12.75 23.4142 12.75 23H11.25ZM23 12.75C23.4142 12.75 23.75 12.4142 23.75 12C23.75 11.5858 23.4142 11.25 23 11.25V12.75ZM12 18.25C10.0803 18.25 9.29839 18.2407 8.68668 18.042L8.22315 19.4686C9.11777 19.7593 10.1971 19.75 12 19.75V18.25ZM4.25 12C4.25 13.8029 4.24075 14.8822 4.53143 15.7768L5.95801 15.3133C5.75925 14.7016 5.75 13.9197 5.75 12H4.25ZM8.68668 18.042C7.39282 17.6216 6.37841 16.6072 5.95801 15.3133L4.53143 15.7768C5.1002 17.5274 6.47263 18.8998 8.22315 19.4686L8.68668 18.042ZM18.25 12C18.25 13.9197 18.2407 14.7016 18.042 15.3133L19.4686 15.7768C19.7593 14.8822 19.75 13.8029 19.75 12H18.25ZM12 19.75C13.8029 19.75 14.8822 19.7593 15.7768 19.4686L15.3133 18.042C14.7016 18.2407 13.9197 18.25 12 18.25V19.75ZM18.042 15.3133C17.6216 16.6072 16.6072 17.6216 15.3133 18.042L15.7768 19.4686C17.5274 18.8998 18.8998 17.5274 19.4686 15.7768L18.042 15.3133ZM12 5.75C13.9197 5.75 14.7016 5.75925 15.3133 5.95801L15.7768 4.53143C14.8822 4.24075 13.8029 4.25 12 4.25V5.75ZM19.75 12C19.75 10.1971 19.7593 9.11777 19.4686 8.22315L18.042 8.68668C18.2407 9.29839 18.25 10.0803 18.25 12H19.75ZM15.3133 5.95801C16.6072 6.37841 17.6216 7.39282 18.042 8.68668L19.4686 8.22315C18.8998 6.47263 17.5274 5.1002 15.7768 4.53143L15.3133 5.95801ZM12 4.25C10.1971 4.25 9.11777 4.24075 8.22315 4.53143L8.68668 5.95801C9.29839 5.75925 10.0803 5.75 12 5.75V4.25ZM5.75 12C5.75 10.0803 5.75925 9.29839 5.95801 8.68668L4.53143 8.22315C4.24075 9.11777 4.25 10.1971 4.25 12H5.75ZM8.22315 4.53143C6.47263 5.1002 5.1002 6.47263 4.53143 8.22315L5.95801 8.68668C6.37841 7.39282 7.39282 6.37841 8.68668 5.95801L8.22315 4.53143ZM5 11.25H1V12.75H5V11.25ZM12.75 5V1H11.25V5H12.75ZM12.75 23V19H11.25V23H12.75ZM23 11.25H19V12.75H23V11.25Z" fill="#FAFAFA"/>
<path d="M10.25 12C10.25 12.9665 11.0335 13.75 12 13.75C12.9665 13.75 13.75 12.9665 13.75 12C13.75 11.0335 12.9665 10.25 12 10.25C11.0335 10.25 10.25 11.0335 10.25 12Z" stroke="#FAFAFA" stroke-width="1.5"/>
</g>
<defs>
<clipPath id="clip0_20_6024">
<rect width="24" height="24" fill="white"/>
</clipPath>
</defs>
</svg>
