<svg width="24" height="24" viewBox="0 0 24 24" fill="none" xmlns="http://www.w3.org/2000/svg">
<path d="M16.73 14.545L17.0705 15.2132L16.73 14.545ZM14.545 16.73L15.2132 17.0705L14.545 16.73ZM12 21.25C6.89137 21.25 2.75 17.1086 2.75 12H1.25C1.25 17.9371 6.06294 22.75 12 22.75V21.25ZM2.75 12C2.75 6.89137 6.89137 2.75 12 2.75V1.25C6.06294 1.25 1.25 6.06294 1.25 12H2.75ZM12 2.75C17.1086 2.75 21.25 6.89137 21.25 12H22.75C22.75 6.06294 17.9371 1.25 12 1.25V2.75ZM16.3896 13.8767C15.3076 14.428 14.428 15.3076 13.8767 16.3896L15.2132 17.0705C15.6207 16.2709 16.2709 15.6207 17.0705 15.2132L16.3896 13.8767ZM21.7999 13.25C20.4766 13.2502 19.4341 13.2528 18.5913 13.326C17.7398 13.3999 17.0319 13.5494 16.3896 13.8767L17.0705 15.2132C17.4719 15.0087 17.9653 14.8859 18.7209 14.8204C19.4853 14.754 20.4558 14.7502 21.8001 14.75L21.7999 13.25ZM21.25 12C21.25 12.6345 21.1862 13.2534 21.065 13.8508L22.535 14.1492C22.6761 13.4542 22.75 12.7353 22.75 12H21.25ZM21.065 13.8508C20.3295 17.4739 17.4739 20.3295 13.8508 21.065L14.1492 22.535C18.3626 21.6797 21.6797 18.3626 22.535 14.1492L21.065 13.8508ZM13.8508 21.065C13.2534 21.1862 12.6345 21.25 12 21.25V22.75C12.7353 22.75 13.4542 22.6761 14.1492 22.535L13.8508 21.065ZM14.75 21.8001C14.7502 20.4558 14.754 19.4853 14.8204 18.7209C14.8859 17.9653 15.0087 17.4719 15.2132 17.0705L13.8767 16.3896C13.5494 17.0319 13.3999 17.7398 13.326 18.5913C13.2528 19.4341 13.2502 20.4766 13.25 21.7999L14.75 21.8001Z" fill="#FAFAFA"/>
</svg>
