<svg width="24" height="24" viewBox="0 0 24 24" fill="none" xmlns="http://www.w3.org/2000/svg">
<path d="M10.8718 2.87493C12.7548 2.28121 13.6963 1.98435 14.5166 2.00064C16.2319 2.0347 17.8099 2.94576 18.697 4.41418C19.1213 5.11646 19.3349 6.08025 19.7623 8.00783C19.9282 8.75645 20.0112 9.13076 20.0371 9.50123C20.0908 10.2681 19.9669 11.0371 19.6751 11.7483C19.5341 12.0919 19.3378 12.4212 18.9451 13.0798L16.4869 17.2027C15.5956 18.6976 15.1499 19.4451 14.6006 19.9449C13.3849 21.0511 11.7031 21.4891 10.1023 21.1165C9.37889 20.9481 8.62522 20.513 7.11788 19.6427C5.61054 18.7725 4.85687 18.3373 4.34938 17.7951C3.22628 16.595 2.76472 14.9196 3.1148 13.3136C3.27299 12.588 3.6975 11.8283 4.54651 10.3088L6.88793 6.11862C7.26197 5.44924 7.44899 5.11455 7.67605 4.82067C8.14608 4.21233 8.75007 3.72056 9.44106 3.3836C9.77486 3.22082 10.1405 3.10552 10.8718 2.87493Z" stroke="#FAFAFA" stroke-width="1.5"/>
<path d="M11.9063 7.58122C11.423 8.41823 11.7098 9.48852 12.5468 9.97177C13.3838 10.455 14.4541 10.1682 14.9373 9.33122C15.4206 8.49421 15.1338 7.42393 14.2968 6.94068C13.4598 6.45743 12.3895 6.74421 11.9063 7.58122Z" stroke="#FAFAFA" stroke-width="1.5"/>
</svg>
