<svg width="24" height="24" viewBox="0 0 24 24" fill="none" xmlns="http://www.w3.org/2000/svg">
<path d="M4.46967 21.4697C4.17678 21.7626 4.17678 22.2374 4.46967 22.5303C4.76256 22.8232 5.23744 22.8232 5.53033 22.5303L4.46967 21.4697ZM7 20L6.47611 19.4632L6.46967 19.4697L7 20ZM17 20L16.4547 20.5149L16.4621 20.5227L16.4697 20.5303L17 20ZM18.4697 22.5303C18.7626 22.8232 19.2374 22.8232 19.5303 22.5303C19.8232 22.2374 19.8232 21.7626 19.5303 21.4697L18.4697 22.5303ZM4.73005 19.455L5.07054 18.7868L4.73005 19.455ZM2.54497 17.27L3.21322 16.9295L2.54497 17.27ZM21.455 17.27L20.7868 16.9295L21.455 17.27ZM19.27 19.455L18.9295 18.7868L19.27 19.455ZM14 4V3.25V4ZM19.27 4.54497L18.9295 5.21322L19.27 4.54497ZM21.455 6.73005L20.7868 7.07054L21.455 6.73005ZM10 4V3.25V4ZM4.73005 4.54497L5.07054 5.21322L4.73005 4.54497ZM2.54497 6.73005L3.21322 7.07054L2.54497 6.73005ZM12 4V4.75V4ZM15.5303 1.53033C15.8232 1.23744 15.8232 0.762563 15.5303 0.46967C15.2374 0.176777 14.7626 0.176777 14.4697 0.46967L15.5303 1.53033ZM9.53033 0.46967C9.23744 0.176777 8.76256 0.176777 8.46967 0.46967C8.17678 0.762563 8.17678 1.23744 8.46967 1.53033L9.53033 0.46967ZM7.04632 19.9548L7.08987 19.2061L7.04632 19.9548ZM5.53033 22.5303L7.53033 20.5303L6.46967 19.4697L4.46967 21.4697L5.53033 22.5303ZM16.4697 20.5303L18.4697 22.5303L19.5303 21.4697L17.5303 19.4697L16.4697 20.5303ZM14 19.25H10V20.75H14V19.25ZM1.25 12C1.25 13.3878 1.24942 14.4737 1.32061 15.3451C1.39252 16.2252 1.54138 16.9523 1.87671 17.6104L3.21322 16.9295C3.00359 16.518 2.87996 16.0103 2.81563 15.2229C2.75058 14.4268 2.75 13.4125 2.75 12H1.25ZM5.07054 18.7868C4.27085 18.3793 3.62068 17.7291 3.21322 16.9295L1.87671 17.6104C2.42798 18.6924 3.30762 19.572 4.38955 20.1233L5.07054 18.7868ZM21.25 12C21.25 13.4125 21.2494 14.4268 21.1844 15.2229C21.12 16.0103 20.9964 16.518 20.7868 16.9295L22.1233 17.6104C22.4586 16.9523 22.6075 16.2252 22.6794 15.3451C22.7506 14.4737 22.75 13.3878 22.75 12H21.25ZM20.7868 16.9295C20.3793 17.7291 19.7291 18.3793 18.9295 18.7868L19.6104 20.1233C20.6924 19.572 21.572 18.6924 22.1233 17.6104L20.7868 16.9295ZM14 4.75C15.4125 4.75 16.4268 4.75058 17.2229 4.81563C18.0103 4.87996 18.518 5.00359 18.9295 5.21322L19.6104 3.87671C18.9523 3.54138 18.2252 3.39252 17.3451 3.32061C16.4737 3.24942 15.3878 3.25 14 3.25V4.75ZM22.75 12C22.75 10.6122 22.7506 9.52632 22.6794 8.65494C22.6075 7.77479 22.4586 7.04768 22.1233 6.38955L20.7868 7.07054C20.9964 7.48197 21.12 7.9897 21.1844 8.77708C21.2494 9.57322 21.25 10.5875 21.25 12H22.75ZM18.9295 5.21322C19.7291 5.62068 20.3793 6.27085 20.7868 7.07054L22.1233 6.38955C21.572 5.30762 20.6924 4.42798 19.6104 3.87671L18.9295 5.21322ZM10 3.25C8.61224 3.25 7.52632 3.24942 6.65494 3.32061C5.77479 3.39252 5.04768 3.54138 4.38955 3.87671L5.07054 5.21322C5.48197 5.00359 5.9897 4.87996 6.77708 4.81563C7.57322 4.75058 8.58749 4.75 10 4.75V3.25ZM2.75 12C2.75 10.5875 2.75058 9.57322 2.81563 8.77708C2.87996 7.9897 3.00359 7.48197 3.21322 7.07054L1.87671 6.38955C1.54138 7.04768 1.39252 7.77479 1.32061 8.65494C1.24942 9.52632 1.25 10.6122 1.25 12H2.75ZM4.38955 3.87671C3.30762 4.42798 2.42798 5.30762 1.87671 6.38955L3.21322 7.07054C3.62068 6.27085 4.27085 5.62068 5.07054 5.21322L4.38955 3.87671ZM12.5303 4.53033L15.5303 1.53033L14.4697 0.46967L11.4697 3.46967L12.5303 4.53033ZM12.5303 3.46967L9.53033 0.46967L8.46967 1.53033L11.4697 4.53033L12.5303 3.46967ZM10 4.75L12 4.75V3.25L10 3.25V4.75ZM12 4.75L14 4.75V3.25L12 3.25V4.75ZM10 19.25C8.77046 19.25 7.84054 19.2497 7.08987 19.2061L7.00278 20.7035C7.80686 20.7503 8.78691 20.75 10 20.75V19.25ZM7.08987 19.2061C6.12088 19.1497 5.53573 19.0238 5.07054 18.7868L4.38955 20.1233C5.13053 20.5008 5.96173 20.643 7.00278 20.7035L7.08987 19.2061ZM7.52385 20.5367L7.57017 20.4915L6.52247 19.4181L6.47615 19.4633L7.52385 20.5367ZM14 20.75C15.2149 20.75 16.196 20.7503 17.0008 20.7033L16.9134 19.2059C16.1622 19.2497 15.2314 19.25 14 19.25V20.75ZM17.0008 20.7033C18.0402 20.6426 18.8703 20.5004 19.6104 20.1233L18.9295 18.7868C18.4648 19.0235 17.8805 19.1494 16.9134 19.2059L17.0008 20.7033ZM17.5453 19.4851L17.5024 19.4397L16.4118 20.4695L16.4547 20.5149L17.5453 19.4851Z" fill="#FAFAFA"/>
</svg>
