<svg width="24" height="24" viewBox="0 0 24 24" fill="none" xmlns="http://www.w3.org/2000/svg">
<path d="M16 8.99996L12.5364 13.1562C11.8244 14.0107 11.4683 14.4379 11 14.4379C10.5316 14.4379 10.1756 14.0107 9.46353 13.1562L7.99997 11.4M5.59479 5.01894C7.14254 5.40691 8.71893 4.49678 9.15682 2.9624C9.97313 0.10205 14.0268 0.10205 14.8431 2.9624C15.281 4.49678 16.8574 5.40691 18.4051 5.01894C21.2904 4.29571 23.3173 7.8063 21.2483 9.94342C20.1384 11.0898 20.1384 12.9101 21.2483 14.0565C23.3173 16.1936 21.2904 19.7042 18.4051 18.981C16.8574 18.593 15.281 19.5031 14.8431 21.0375C14.0268 23.8979 9.97313 23.8979 9.15682 21.0375C8.71893 19.5031 7.14254 18.593 5.59479 18.981C2.70949 19.7042 0.682652 16.1936 2.75164 14.0565C3.8615 12.9101 3.8615 11.0898 2.75164 9.94342C0.682653 7.8063 2.70949 4.29571 5.59479 5.01894Z" stroke="#FAFAFA" stroke-width="1.5" stroke-linecap="round"/>
</svg>
