<svg width="24" height="24" viewBox="0 0 24 24" fill="none" xmlns="http://www.w3.org/2000/svg">
<path d="M16 16.2007L15.6 15.8007C13.6118 13.8125 10.3882 13.8125 8.4 15.8007L8 16.2007M19 12.2007L18.3 11.5007C14.8206 8.02132 9.1794 8.02132 5.7 11.5007L5 12.2007M23 8.20071L21.9 7.10071C16.4324 1.6331 7.56762 1.6331 2.1 7.10071L1 8.20071" stroke="#FAFAFA" stroke-width="1.5" stroke-linecap="round"/>
<path d="M13 20C13 20.5523 12.5523 21 12 21C11.4477 21 11 20.5523 11 20C11 19.4477 11.4477 19 12 19C12.5523 19 13 19.4477 13 20Z" fill="#FAFAFA"/>
</svg>
