<svg width="47" height="16" viewBox="0 0 47 16" fill="none" xmlns="http://www.w3.org/2000/svg">
<path d="M2.6665 4.66667C2.6665 4.04542 2.6665 3.73479 2.768 3.48976C2.90332 3.16306 3.16289 2.90349 3.48959 2.76817C3.73462 2.66667 4.04525 2.66667 4.6665 2.66667C5.28776 2.66667 5.59839 2.66667 5.84342 2.76817C6.17012 2.90349 6.42968 3.16306 6.56501 3.48976C6.6665 3.73479 6.6665 4.04542 6.6665 4.66667C6.6665 5.28793 6.6665 5.59855 6.56501 5.84358C6.42968 6.17029 6.17012 6.42985 5.84342 6.56518C5.59839 6.66667 5.28776 6.66667 4.6665 6.66667C4.04525 6.66667 3.73462 6.66667 3.48959 6.56518C3.16289 6.42985 2.90332 6.17029 2.768 5.84358C2.6665 5.59855 2.6665 5.28793 2.6665 4.66667Z" stroke="#00C0FF" stroke-width="1.5"/>
<path d="M9.33317 4.66667C9.33317 4.04542 9.33317 3.73479 9.43466 3.48976C9.56999 3.16306 9.82956 2.90349 10.1563 2.76817C10.4013 2.66667 10.7119 2.66667 11.3332 2.66667C11.9544 2.66667 12.2651 2.66667 12.5101 2.76817C12.8368 2.90349 13.0964 3.16306 13.2317 3.48976C13.3332 3.73479 13.3332 4.04542 13.3332 4.66667C13.3332 5.28793 13.3332 5.59855 13.2317 5.84358C13.0964 6.17029 12.8368 6.42985 12.5101 6.56518C12.2651 6.66667 11.9544 6.66667 11.3332 6.66667C10.7119 6.66667 10.4013 6.66667 10.1563 6.56518C9.82956 6.42985 9.56999 6.17029 9.43466 5.84358C9.33317 5.59855 9.33317 5.28793 9.33317 4.66667Z" stroke="#00C0FF" stroke-width="1.5"/>
<path d="M2.6665 11.3333C2.6665 10.7121 2.6665 10.4015 2.768 10.1564C2.90332 9.82972 3.16289 9.57016 3.48959 9.43483C3.73462 9.33334 4.04525 9.33334 4.6665 9.33334C5.28776 9.33334 5.59839 9.33334 5.84342 9.43483C6.17012 9.57016 6.42968 9.82972 6.56501 10.1564C6.6665 10.4015 6.6665 10.7121 6.6665 11.3333C6.6665 11.9546 6.6665 12.2652 6.56501 12.5102C6.42968 12.837 6.17012 13.0965 5.84342 13.2318C5.59839 13.3333 5.28776 13.3333 4.6665 13.3333C4.04525 13.3333 3.73462 13.3333 3.48959 13.2318C3.16289 13.0965 2.90332 12.837 2.768 12.5102C2.6665 12.2652 2.6665 11.9546 2.6665 11.3333Z" stroke="#00C0FF" stroke-width="1.5"/>
<path d="M9.33317 11.3333C9.33317 10.7121 9.33317 10.4015 9.43466 10.1564C9.56999 9.82972 9.82956 9.57016 10.1563 9.43483C10.4013 9.33334 10.7119 9.33334 11.3332 9.33334C11.9544 9.33334 12.2651 9.33334 12.5101 9.43483C12.8368 9.57016 13.0964 9.82972 13.2317 10.1564C13.3332 10.4015 13.3332 10.7121 13.3332 11.3333C13.3332 11.9546 13.3332 12.2652 13.2317 12.5102C13.0964 12.837 12.8368 13.0965 12.5101 13.2318C12.2651 13.3333 11.9544 13.3333 11.3332 13.3333C10.7119 13.3333 10.4013 13.3333 10.1563 13.2318C9.82956 13.0965 9.56999 12.837 9.43466 12.5102C9.33317 12.2652 9.33317 11.9546 9.33317 11.3333Z" stroke="#00C0FF" stroke-width="1.5"/>
<path d="M21.272 12V3.24H22.832L25.424 9.084H25.616L28.196 3.24H29.768V12H28.592V4.524L28.676 4.548L26.192 10.188H24.752L22.256 4.548L22.352 4.524V12H21.272ZM36.0191 12V10.08H35.8271V7.86C35.8271 7.42 35.7111 7.088 35.4791 6.864C35.2551 6.64 34.9231 6.528 34.4831 6.528C34.2351 6.528 33.9791 6.532 33.7151 6.54C33.4511 6.548 33.1991 6.556 32.9591 6.564C32.7191 6.572 32.5111 6.584 32.3351 6.6V5.592C32.5111 5.576 32.6951 5.564 32.8871 5.556C33.0871 5.54 33.2911 5.532 33.4991 5.532C33.7071 5.524 33.9071 5.52 34.0991 5.52C34.7551 5.52 35.2911 5.6 35.7071 5.76C36.1231 5.912 36.4311 6.164 36.6311 6.516C36.8311 6.868 36.9311 7.344 36.9311 7.944V12H36.0191ZM33.9191 12.168C33.4391 12.168 33.0231 12.088 32.6711 11.928C32.3271 11.76 32.0591 11.52 31.8671 11.208C31.6831 10.896 31.5911 10.52 31.5911 10.08C31.5911 9.624 31.6911 9.244 31.8911 8.94C32.0991 8.636 32.3991 8.408 32.7911 8.256C33.1831 8.096 33.6551 8.016 34.2071 8.016H35.9471V8.88H34.1591C33.6951 8.88 33.3391 8.992 33.0911 9.216C32.8431 9.44 32.7191 9.728 32.7191 10.08C32.7191 10.432 32.8431 10.716 33.0911 10.932C33.3391 11.148 33.6951 11.256 34.1591 11.256C34.4311 11.256 34.6911 11.208 34.9391 11.112C35.1871 11.008 35.3911 10.84 35.5511 10.608C35.7191 10.368 35.8111 10.04 35.8271 9.624L36.1391 10.08C36.0991 10.536 35.9871 10.92 35.8031 11.232C35.6271 11.536 35.3791 11.768 35.0591 11.928C34.7471 12.088 34.3671 12.168 33.9191 12.168ZM39.0454 14.4V5.592H39.9574V8.364L39.7414 8.34C39.7814 7.652 39.9254 7.092 40.1734 6.66C40.4294 6.22 40.7614 5.896 41.1694 5.688C41.5774 5.48 42.0214 5.376 42.5014 5.376C42.9654 5.376 43.3854 5.464 43.7614 5.64C44.1454 5.816 44.4734 6.056 44.7454 6.36C45.0174 6.664 45.2254 7.016 45.3694 7.416C45.5134 7.816 45.5854 8.24 45.5854 8.688V8.904C45.5854 9.352 45.5094 9.776 45.3574 10.176C45.2054 10.576 44.9894 10.928 44.7094 11.232C44.4374 11.536 44.1094 11.776 43.7254 11.952C43.3494 12.128 42.9334 12.216 42.4774 12.216C42.0214 12.216 41.5854 12.116 41.1694 11.916C40.7534 11.716 40.4094 11.392 40.1374 10.944C39.8654 10.496 39.7094 9.908 39.6694 9.18L40.1974 10.14V14.4H39.0454ZM42.2974 11.208C42.7294 11.208 43.1054 11.108 43.4254 10.908C43.7454 10.7 43.9934 10.416 44.1694 10.056C44.3454 9.688 44.4334 9.268 44.4334 8.796C44.4334 8.316 44.3454 7.896 44.1694 7.536C43.9934 7.176 43.7454 6.896 43.4254 6.696C43.1054 6.488 42.7294 6.384 42.2974 6.384C41.9134 6.384 41.5574 6.472 41.2294 6.648C40.9014 6.816 40.6374 7.064 40.4374 7.392C40.2454 7.712 40.1494 8.1 40.1494 8.556V9.108C40.1494 9.548 40.2494 9.924 40.4494 10.236C40.6494 10.548 40.9134 10.788 41.2414 10.956C41.5694 11.124 41.9214 11.208 42.2974 11.208Z" fill="#00C0FF"/>
</svg>
