<svg width="103" height="16" viewBox="0 0 103 16" fill="none" xmlns="http://www.w3.org/2000/svg">
<g clip-path="url(#clip0_223_755)">
<path d="M11.3335 6.00001L9.08738 8.5088C8.19733 9.50294 7.7523 10 7.16683 10C6.58136 10 6.13633 9.50294 5.24628 8.50879L4.66683 7.86159M14.6668 8.00001C14.6668 11.6819 11.6821 14.6667 8.00016 14.6667C4.31826 14.6667 1.3335 11.6819 1.3335 8.00001C1.3335 4.31811 4.31826 1.33334 8.00016 1.33334C11.6821 1.33334 14.6668 4.31811 14.6668 8.00001Z" stroke="#E8E8E8" stroke-width="1.5" stroke-linecap="round"/>
</g>
<path d="M25.184 12.216C24.504 12.216 23.888 12.104 23.336 11.88C22.784 11.656 22.308 11.34 21.908 10.932C21.516 10.524 21.212 10.044 20.996 9.492C20.78 8.932 20.672 8.324 20.672 7.668V7.404C20.672 6.844 20.768 6.304 20.96 5.784C21.16 5.256 21.444 4.784 21.812 4.368C22.188 3.944 22.644 3.612 23.18 3.372C23.716 3.124 24.32 3 24.992 3C25.72 3 26.368 3.14 26.936 3.42C27.504 3.692 27.96 4.076 28.304 4.572C28.648 5.06 28.848 5.628 28.904 6.276H27.704C27.648 5.788 27.488 5.384 27.224 5.064C26.96 4.736 26.632 4.492 26.24 4.332C25.856 4.164 25.44 4.08 24.992 4.08C24.536 4.08 24.116 4.164 23.732 4.332C23.348 4.492 23.016 4.724 22.736 5.028C22.464 5.332 22.252 5.696 22.1 6.12C21.948 6.544 21.872 7.02 21.872 7.548C21.872 8.148 21.952 8.676 22.112 9.132C22.28 9.58 22.512 9.956 22.808 10.26C23.104 10.556 23.452 10.78 23.852 10.932C24.26 11.084 24.704 11.16 25.184 11.16C25.864 11.16 26.46 11.024 26.972 10.752C27.492 10.472 27.884 10.112 28.148 9.672L27.716 11.1V8.496H28.82V10.584C28.428 11.096 27.924 11.496 27.308 11.784C26.692 12.072 25.984 12.216 25.184 12.216ZM24.872 8.736V7.752H29.564V8.736H24.872ZM31.1487 12V3.24H32.3007V12H31.1487ZM30.2607 4.152V3.24H32.3007V4.152H30.2607ZM37.4623 12.216C36.9023 12.216 36.4103 12.12 35.9863 11.928C35.5623 11.736 35.2023 11.484 34.9062 11.172C34.6183 10.852 34.3983 10.496 34.2463 10.104C34.1023 9.712 34.0303 9.312 34.0303 8.904V8.688C34.0303 8.28 34.1063 7.88 34.2583 7.488C34.4103 7.088 34.6343 6.732 34.9303 6.42C35.2263 6.1 35.5863 5.848 36.0103 5.664C36.4343 5.472 36.9183 5.376 37.4623 5.376C38.0063 5.376 38.4903 5.472 38.9143 5.664C39.3383 5.848 39.6983 6.1 39.9943 6.42C40.2903 6.732 40.5143 7.088 40.6663 7.488C40.8183 7.88 40.8943 8.28 40.8943 8.688V8.904C40.8943 9.312 40.8183 9.712 40.6663 10.104C40.5223 10.496 40.3023 10.852 40.0063 11.172C39.7183 11.484 39.3623 11.736 38.9383 11.928C38.5143 12.12 38.0223 12.216 37.4623 12.216ZM37.4623 11.184C37.9423 11.184 38.3503 11.08 38.6863 10.872C39.0303 10.656 39.2903 10.368 39.4662 10.008C39.6502 9.648 39.7422 9.244 39.7422 8.796C39.7422 8.34 39.6502 7.932 39.4662 7.572C39.2823 7.212 39.0183 6.928 38.6743 6.72C38.3383 6.512 37.9343 6.408 37.4623 6.408C36.9983 6.408 36.5943 6.512 36.2503 6.72C35.9063 6.928 35.6423 7.212 35.4583 7.572C35.2743 7.932 35.1823 8.34 35.1823 8.796C35.1823 9.244 35.2703 9.648 35.4463 10.008C35.6303 10.368 35.8903 10.656 36.2263 10.872C36.5703 11.08 36.9823 11.184 37.4623 11.184ZM46.0036 12.216C45.4756 12.216 45.0036 12.1 44.5876 11.868C44.1796 11.636 43.8556 11.3 43.6156 10.86C43.3756 10.412 43.2436 9.876 43.2196 9.252H43.5316V12H42.6196V3.24H43.7716V7.5L43.3636 8.376C43.3956 7.68 43.5356 7.112 43.7836 6.672C44.0316 6.232 44.3556 5.908 44.7556 5.7C45.1636 5.484 45.6116 5.376 46.0996 5.376C46.5556 5.376 46.9716 5.464 47.3476 5.64C47.7236 5.808 48.0476 6.044 48.3196 6.348C48.5916 6.644 48.7996 6.992 48.9436 7.392C49.0876 7.784 49.1596 8.208 49.1596 8.664V8.88C49.1596 9.336 49.0836 9.764 48.9316 10.164C48.7876 10.564 48.5756 10.92 48.2956 11.232C48.0156 11.536 47.6796 11.776 47.2876 11.952C46.9036 12.128 46.4756 12.216 46.0036 12.216ZM45.8716 11.208C46.3036 11.208 46.6796 11.104 46.9996 10.896C47.3196 10.688 47.5676 10.404 47.7436 10.044C47.9196 9.676 48.0076 9.252 48.0076 8.772C48.0076 8.292 47.9156 7.872 47.7316 7.512C47.5556 7.152 47.3076 6.876 46.9876 6.684C46.6676 6.484 46.2956 6.384 45.8716 6.384C45.4876 6.384 45.1316 6.472 44.8036 6.648C44.4756 6.816 44.2116 7.064 44.0116 7.392C43.8196 7.712 43.7236 8.1 43.7236 8.556V9.108C43.7236 9.548 43.8236 9.924 44.0236 10.236C44.2236 10.548 44.4876 10.788 44.8156 10.956C45.1436 11.124 45.4956 11.208 45.8716 11.208ZM54.7691 12V10.08H54.5771V7.86C54.5771 7.42 54.4611 7.088 54.2291 6.864C54.0051 6.64 53.6731 6.528 53.2331 6.528C52.9851 6.528 52.7291 6.532 52.4651 6.54C52.2011 6.548 51.9491 6.556 51.7091 6.564C51.4691 6.572 51.2611 6.584 51.0851 6.6V5.592C51.2611 5.576 51.4451 5.564 51.6371 5.556C51.8371 5.54 52.0411 5.532 52.2491 5.532C52.4571 5.524 52.6571 5.52 52.8491 5.52C53.5051 5.52 54.0411 5.6 54.4571 5.76C54.8731 5.912 55.1811 6.164 55.3811 6.516C55.5811 6.868 55.6811 7.344 55.6811 7.944V12H54.7691ZM52.6691 12.168C52.1891 12.168 51.7731 12.088 51.4211 11.928C51.0771 11.76 50.8091 11.52 50.6171 11.208C50.4331 10.896 50.3411 10.52 50.3411 10.08C50.3411 9.624 50.4411 9.244 50.6411 8.94C50.8491 8.636 51.1491 8.408 51.5411 8.256C51.9331 8.096 52.4051 8.016 52.9571 8.016H54.6971V8.88H52.9091C52.4451 8.88 52.0891 8.992 51.8411 9.216C51.5931 9.44 51.4691 9.728 51.4691 10.08C51.4691 10.432 51.5931 10.716 51.8411 10.932C52.0891 11.148 52.4451 11.256 52.9091 11.256C53.1811 11.256 53.4411 11.208 53.6891 11.112C53.9371 11.008 54.1411 10.84 54.3011 10.608C54.4691 10.368 54.5611 10.04 54.5771 9.624L54.8891 10.08C54.8491 10.536 54.7371 10.92 54.5531 11.232C54.3771 11.536 54.1291 11.768 53.8091 11.928C53.4971 12.088 53.1171 12.168 52.6691 12.168ZM57.8674 12V3.24H59.0194V12H57.8674ZM56.9794 4.152V3.24H59.0194V4.152H56.9794ZM66.9715 12.216C66.2435 12.216 65.6235 12.096 65.1115 11.856C64.5995 11.616 64.2075 11.284 63.9355 10.86C63.6635 10.436 63.5275 9.956 63.5275 9.42H64.7035C64.7035 9.684 64.7715 9.948 64.9075 10.212C65.0515 10.476 65.2875 10.696 65.6155 10.872C65.9515 11.048 66.4035 11.136 66.9715 11.136C67.4995 11.136 67.9315 11.06 68.2675 10.908C68.6035 10.748 68.8515 10.544 69.0115 10.296C69.1715 10.04 69.2515 9.764 69.2515 9.468C69.2515 9.108 69.0955 8.812 68.7835 8.58C68.4715 8.34 68.0155 8.192 67.4155 8.136L66.4435 8.052C65.6675 7.988 65.0475 7.748 64.5835 7.332C64.1195 6.916 63.8875 6.368 63.8875 5.688C63.8875 5.152 64.0155 4.684 64.2715 4.284C64.5355 3.884 64.8995 3.572 65.3635 3.348C65.8275 3.116 66.3675 3 66.9835 3C67.5915 3 68.1275 3.112 68.5915 3.336C69.0555 3.56 69.4155 3.876 69.6715 4.284C69.9355 4.684 70.0675 5.164 70.0675 5.724H68.8915C68.8915 5.444 68.8235 5.18 68.6875 4.932C68.5595 4.684 68.3555 4.48 68.0755 4.32C67.7955 4.16 67.4315 4.08 66.9835 4.08C66.5515 4.08 66.1915 4.156 65.9035 4.308C65.6235 4.46 65.4115 4.66 65.2675 4.908C65.1315 5.148 65.0635 5.408 65.0635 5.688C65.0635 6.008 65.1875 6.292 65.4355 6.54C65.6835 6.788 66.0515 6.932 66.5395 6.972L67.5115 7.056C68.1115 7.104 68.6275 7.232 69.0595 7.44C69.4995 7.64 69.8355 7.912 70.0675 8.256C70.3075 8.592 70.4275 8.996 70.4275 9.468C70.4275 10.004 70.2835 10.48 69.9955 10.896C69.7075 11.312 69.3035 11.636 68.7835 11.868C68.2635 12.1 67.6595 12.216 66.9715 12.216ZM74.7289 12.072C74.2489 12.072 73.8329 12.004 73.4809 11.868C73.1369 11.732 72.8689 11.5 72.6769 11.172C72.4929 10.836 72.4009 10.384 72.4009 9.816V3.648H73.5049V9.96C73.5049 10.304 73.5969 10.572 73.7809 10.764C73.9729 10.948 74.2409 11.04 74.5849 11.04H75.7129V12.072H74.7289ZM71.2969 6.456V5.592H75.7129V6.456H71.2969ZM81.1948 12V10.08H81.0028V7.86C81.0028 7.42 80.8868 7.088 80.6548 6.864C80.4308 6.64 80.0988 6.528 79.6588 6.528C79.4108 6.528 79.1548 6.532 78.8908 6.54C78.6268 6.548 78.3748 6.556 78.1348 6.564C77.8948 6.572 77.6868 6.584 77.5108 6.6V5.592C77.6868 5.576 77.8708 5.564 78.0628 5.556C78.2628 5.54 78.4668 5.532 78.6748 5.532C78.8828 5.524 79.0828 5.52 79.2748 5.52C79.9308 5.52 80.4668 5.6 80.8828 5.76C81.2988 5.912 81.6068 6.164 81.8068 6.516C82.0068 6.868 82.1068 7.344 82.1068 7.944V12H81.1948ZM79.0948 12.168C78.6148 12.168 78.1988 12.088 77.8468 11.928C77.5028 11.76 77.2348 11.52 77.0428 11.208C76.8588 10.896 76.7668 10.52 76.7668 10.08C76.7668 9.624 76.8668 9.244 77.0668 8.94C77.2748 8.636 77.5748 8.408 77.9668 8.256C78.3588 8.096 78.8308 8.016 79.3828 8.016H81.1228V8.88H79.3348C78.8708 8.88 78.5148 8.992 78.2668 9.216C78.0188 9.44 77.8948 9.728 77.8948 10.08C77.8948 10.432 78.0188 10.716 78.2668 10.932C78.5148 11.148 78.8708 11.256 79.3348 11.256C79.6068 11.256 79.8668 11.208 80.1148 11.112C80.3628 11.008 80.5668 10.84 80.7268 10.608C80.8948 10.368 80.9868 10.04 81.0028 9.624L81.3148 10.08C81.2748 10.536 81.1628 10.92 80.9788 11.232C80.8028 11.536 80.5548 11.768 80.2348 11.928C79.9228 12.088 79.5428 12.168 79.0948 12.168ZM86.7172 12.072C86.2372 12.072 85.8212 12.004 85.4692 11.868C85.1252 11.732 84.8572 11.5 84.6652 11.172C84.4812 10.836 84.3892 10.384 84.3892 9.816V3.648H85.4932V9.96C85.4932 10.304 85.5852 10.572 85.7692 10.764C85.9612 10.948 86.2292 11.04 86.5732 11.04H87.7012V12.072H86.7172ZM83.2852 6.456V5.592H87.7012V6.456H83.2852ZM91.5506 12.192C90.7906 12.192 90.2066 11.944 89.7986 11.448C89.3906 10.952 89.1866 10.236 89.1866 9.3V5.58H90.3386V9.528C90.3386 10.032 90.4746 10.428 90.7466 10.716C91.0186 10.996 91.3866 11.136 91.8506 11.136C92.3306 11.136 92.7226 10.984 93.0266 10.68C93.3306 10.368 93.4826 9.944 93.4826 9.408V5.58H94.6346V12H93.7226V9.252H93.8666C93.8666 9.884 93.7826 10.42 93.6146 10.86C93.4466 11.292 93.1946 11.624 92.8586 11.856C92.5306 12.08 92.1106 12.192 91.5986 12.192H91.5506ZM98.9657 12.192C98.1257 12.192 97.4737 12.012 97.0097 11.652C96.5537 11.292 96.3177 10.8 96.3017 10.176H97.3817C97.3977 10.424 97.5217 10.66 97.7537 10.884C97.9937 11.1 98.3977 11.208 98.9657 11.208C99.4777 11.208 99.8697 11.108 100.142 10.908C100.414 10.7 100.55 10.448 100.55 10.152C100.55 9.888 100.45 9.684 100.25 9.54C100.05 9.388 99.7257 9.288 99.2777 9.24L98.5817 9.168C97.9737 9.104 97.4777 8.924 97.0937 8.628C96.7097 8.324 96.5177 7.9 96.5177 7.356C96.5177 6.948 96.6217 6.6 96.8297 6.312C97.0377 6.016 97.3257 5.792 97.6937 5.64C98.0617 5.48 98.4857 5.4 98.9657 5.4C99.6857 5.4 100.27 5.56 100.718 5.88C101.166 6.2 101.398 6.676 101.414 7.308H100.334C100.326 7.052 100.206 6.836 99.9737 6.66C99.7497 6.476 99.4137 6.384 98.9657 6.384C98.5177 6.384 98.1777 6.476 97.9457 6.66C97.7137 6.844 97.5977 7.076 97.5977 7.356C97.5977 7.596 97.6777 7.788 97.8377 7.932C98.0057 8.076 98.2777 8.168 98.6537 8.208L99.3497 8.28C100.038 8.352 100.59 8.544 101.006 8.856C101.422 9.16 101.63 9.592 101.63 10.152C101.63 10.552 101.514 10.908 101.282 11.22C101.058 11.524 100.746 11.764 100.346 11.94C99.9457 12.108 99.4857 12.192 98.9657 12.192Z" fill="#E8E8E8"/>
<defs>
<clipPath id="clip0_223_755">
<rect width="16" height="16" fill="white"/>
</clipPath>
</defs>
</svg>
