<svg width="113" height="16" viewBox="0 0 113 16" fill="none" xmlns="http://www.w3.org/2000/svg">
<path d="M2.6665 4.66666C2.6665 4.0454 2.6665 3.73477 2.768 3.48975C2.90332 3.16304 3.16289 2.90348 3.48959 2.76815C3.73462 2.66666 4.04525 2.66666 4.6665 2.66666C5.28776 2.66666 5.59839 2.66666 5.84342 2.76815C6.17012 2.90348 6.42968 3.16304 6.56501 3.48975C6.6665 3.73477 6.6665 4.0454 6.6665 4.66666C6.6665 5.28791 6.6665 5.59854 6.56501 5.84357C6.42968 6.17027 6.17012 6.42984 5.84342 6.56516C5.59839 6.66666 5.28776 6.66666 4.6665 6.66666C4.04525 6.66666 3.73462 6.66666 3.48959 6.56516C3.16289 6.42984 2.90332 6.17027 2.768 5.84357C2.6665 5.59854 2.6665 5.28791 2.6665 4.66666Z" stroke="#E8E8E8" stroke-width="1.5"/>
<path d="M9.33317 4.66666C9.33317 4.0454 9.33317 3.73477 9.43466 3.48975C9.56999 3.16304 9.82956 2.90348 10.1563 2.76815C10.4013 2.66666 10.7119 2.66666 11.3332 2.66666C11.9544 2.66666 12.2651 2.66666 12.5101 2.76815C12.8368 2.90348 13.0964 3.16304 13.2317 3.48975C13.3332 3.73477 13.3332 4.0454 13.3332 4.66666C13.3332 5.28791 13.3332 5.59854 13.2317 5.84357C13.0964 6.17027 12.8368 6.42984 12.5101 6.56516C12.2651 6.66666 11.9544 6.66666 11.3332 6.66666C10.7119 6.66666 10.4013 6.66666 10.1563 6.56516C9.82956 6.42984 9.56999 6.17027 9.43466 5.84357C9.33317 5.59854 9.33317 5.28791 9.33317 4.66666Z" stroke="#E8E8E8" stroke-width="1.5"/>
<path d="M2.6665 11.3333C2.6665 10.7121 2.6665 10.4014 2.768 10.1564C2.90332 9.82971 3.16289 9.57014 3.48959 9.43482C3.73462 9.33332 4.04525 9.33332 4.6665 9.33332C5.28776 9.33332 5.59839 9.33332 5.84342 9.43482C6.17012 9.57014 6.42968 9.82971 6.56501 10.1564C6.6665 10.4014 6.6665 10.7121 6.6665 11.3333C6.6665 11.9546 6.6665 12.2652 6.56501 12.5102C6.42968 12.8369 6.17012 13.0965 5.84342 13.2318C5.59839 13.3333 5.28776 13.3333 4.6665 13.3333C4.04525 13.3333 3.73462 13.3333 3.48959 13.2318C3.16289 13.0965 2.90332 12.8369 2.768 12.5102C2.6665 12.2652 2.6665 11.9546 2.6665 11.3333Z" stroke="#E8E8E8" stroke-width="1.5"/>
<path d="M9.33317 11.3333C9.33317 10.7121 9.33317 10.4014 9.43466 10.1564C9.56999 9.82971 9.82956 9.57014 10.1563 9.43482C10.4013 9.33332 10.7119 9.33332 11.3332 9.33332C11.9544 9.33332 12.2651 9.33332 12.5101 9.43482C12.8368 9.57014 13.0964 9.82971 13.2317 10.1564C13.3332 10.4014 13.3332 10.7121 13.3332 11.3333C13.3332 11.9546 13.3332 12.2652 13.2317 12.5102C13.0964 12.8369 12.8368 13.0965 12.5101 13.2318C12.2651 13.3333 11.9544 13.3333 11.3332 13.3333C10.7119 13.3333 10.4013 13.3333 10.1563 13.2318C9.82956 13.0965 9.56999 12.8369 9.43466 12.5102C9.33317 12.2652 9.33317 11.9546 9.33317 11.3333Z" stroke="#E8E8E8" stroke-width="1.5"/>
<path d="M25.184 12.216C24.504 12.216 23.888 12.104 23.336 11.88C22.784 11.656 22.308 11.34 21.908 10.932C21.516 10.524 21.212 10.044 20.996 9.492C20.78 8.932 20.672 8.324 20.672 7.668V7.404C20.672 6.844 20.768 6.304 20.96 5.784C21.16 5.256 21.444 4.784 21.812 4.368C22.188 3.944 22.644 3.612 23.18 3.372C23.716 3.124 24.32 3 24.992 3C25.72 3 26.368 3.14 26.936 3.42C27.504 3.692 27.96 4.076 28.304 4.572C28.648 5.06 28.848 5.628 28.904 6.276H27.704C27.648 5.788 27.488 5.384 27.224 5.064C26.96 4.736 26.632 4.492 26.24 4.332C25.856 4.164 25.44 4.08 24.992 4.08C24.536 4.08 24.116 4.164 23.732 4.332C23.348 4.492 23.016 4.724 22.736 5.028C22.464 5.332 22.252 5.696 22.1 6.12C21.948 6.544 21.872 7.02 21.872 7.548C21.872 8.148 21.952 8.676 22.112 9.132C22.28 9.58 22.512 9.956 22.808 10.26C23.104 10.556 23.452 10.78 23.852 10.932C24.26 11.084 24.704 11.16 25.184 11.16C25.864 11.16 26.46 11.024 26.972 10.752C27.492 10.472 27.884 10.112 28.148 9.672L27.716 11.1V8.496H28.82V10.584C28.428 11.096 27.924 11.496 27.308 11.784C26.692 12.072 25.984 12.216 25.184 12.216ZM24.872 8.736V7.752H29.564V8.736H24.872ZM31.1487 12V3.24H32.3007V12H31.1487ZM30.2607 4.152V3.24H32.3007V4.152H30.2607ZM37.4623 12.216C36.9023 12.216 36.4103 12.12 35.9863 11.928C35.5623 11.736 35.2023 11.484 34.9062 11.172C34.6183 10.852 34.3983 10.496 34.2463 10.104C34.1023 9.712 34.0303 9.312 34.0303 8.904V8.688C34.0303 8.28 34.1063 7.88 34.2583 7.488C34.4103 7.088 34.6343 6.732 34.9303 6.42C35.2263 6.1 35.5863 5.848 36.0103 5.664C36.4343 5.472 36.9183 5.376 37.4623 5.376C38.0063 5.376 38.4903 5.472 38.9143 5.664C39.3383 5.848 39.6983 6.1 39.9943 6.42C40.2903 6.732 40.5143 7.088 40.6663 7.488C40.8183 7.88 40.8943 8.28 40.8943 8.688V8.904C40.8943 9.312 40.8183 9.712 40.6663 10.104C40.5223 10.496 40.3023 10.852 40.0063 11.172C39.7183 11.484 39.3623 11.736 38.9383 11.928C38.5143 12.12 38.0223 12.216 37.4623 12.216ZM37.4623 11.184C37.9423 11.184 38.3503 11.08 38.6863 10.872C39.0303 10.656 39.2903 10.368 39.4662 10.008C39.6502 9.648 39.7422 9.244 39.7422 8.796C39.7422 8.34 39.6502 7.932 39.4662 7.572C39.2823 7.212 39.0183 6.928 38.6743 6.72C38.3383 6.512 37.9343 6.408 37.4623 6.408C36.9983 6.408 36.5943 6.512 36.2503 6.72C35.9063 6.928 35.6423 7.212 35.4583 7.572C35.2743 7.932 35.1823 8.34 35.1823 8.796C35.1823 9.244 35.2703 9.648 35.4463 10.008C35.6303 10.368 35.8903 10.656 36.2263 10.872C36.5703 11.08 36.9823 11.184 37.4623 11.184ZM46.0036 12.216C45.4756 12.216 45.0036 12.1 44.5876 11.868C44.1796 11.636 43.8556 11.3 43.6156 10.86C43.3756 10.412 43.2436 9.876 43.2196 9.252H43.5316V12H42.6196V3.24H43.7716V7.5L43.3636 8.376C43.3956 7.68 43.5356 7.112 43.7836 6.672C44.0316 6.232 44.3556 5.908 44.7556 5.7C45.1636 5.484 45.6116 5.376 46.0996 5.376C46.5556 5.376 46.9716 5.464 47.3476 5.64C47.7236 5.808 48.0476 6.044 48.3196 6.348C48.5916 6.644 48.7996 6.992 48.9436 7.392C49.0876 7.784 49.1596 8.208 49.1596 8.664V8.88C49.1596 9.336 49.0836 9.764 48.9316 10.164C48.7876 10.564 48.5756 10.92 48.2956 11.232C48.0156 11.536 47.6796 11.776 47.2876 11.952C46.9036 12.128 46.4756 12.216 46.0036 12.216ZM45.8716 11.208C46.3036 11.208 46.6796 11.104 46.9996 10.896C47.3196 10.688 47.5676 10.404 47.7436 10.044C47.9196 9.676 48.0076 9.252 48.0076 8.772C48.0076 8.292 47.9156 7.872 47.7316 7.512C47.5556 7.152 47.3076 6.876 46.9876 6.684C46.6676 6.484 46.2956 6.384 45.8716 6.384C45.4876 6.384 45.1316 6.472 44.8036 6.648C44.4756 6.816 44.2116 7.064 44.0116 7.392C43.8196 7.712 43.7236 8.1 43.7236 8.556V9.108C43.7236 9.548 43.8236 9.924 44.0236 10.236C44.2236 10.548 44.4876 10.788 44.8156 10.956C45.1436 11.124 45.4956 11.208 45.8716 11.208ZM54.7691 12V10.08H54.5771V7.86C54.5771 7.42 54.4611 7.088 54.2291 6.864C54.0051 6.64 53.6731 6.528 53.2331 6.528C52.9851 6.528 52.7291 6.532 52.4651 6.54C52.2011 6.548 51.9491 6.556 51.7091 6.564C51.4691 6.572 51.2611 6.584 51.0851 6.6V5.592C51.2611 5.576 51.4451 5.564 51.6371 5.556C51.8371 5.54 52.0411 5.532 52.2491 5.532C52.4571 5.524 52.6571 5.52 52.8491 5.52C53.5051 5.52 54.0411 5.6 54.4571 5.76C54.8731 5.912 55.1811 6.164 55.3811 6.516C55.5811 6.868 55.6811 7.344 55.6811 7.944V12H54.7691ZM52.6691 12.168C52.1891 12.168 51.7731 12.088 51.4211 11.928C51.0771 11.76 50.8091 11.52 50.6171 11.208C50.4331 10.896 50.3411 10.52 50.3411 10.08C50.3411 9.624 50.4411 9.244 50.6411 8.94C50.8491 8.636 51.1491 8.408 51.5411 8.256C51.9331 8.096 52.4051 8.016 52.9571 8.016H54.6971V8.88H52.9091C52.4451 8.88 52.0891 8.992 51.8411 9.216C51.5931 9.44 51.4691 9.728 51.4691 10.08C51.4691 10.432 51.5931 10.716 51.8411 10.932C52.0891 11.148 52.4451 11.256 52.9091 11.256C53.1811 11.256 53.4411 11.208 53.6891 11.112C53.9371 11.008 54.1411 10.84 54.3011 10.608C54.4691 10.368 54.5611 10.04 54.5771 9.624L54.8891 10.08C54.8491 10.536 54.7371 10.92 54.5531 11.232C54.3771 11.536 54.1291 11.768 53.8091 11.928C53.4971 12.088 53.1171 12.168 52.6691 12.168ZM57.8674 12V3.24H59.0194V12H57.8674ZM56.9794 4.152V3.24H59.0194V4.152H56.9794ZM68.0515 12.216C67.2675 12.216 66.5915 12.076 66.0235 11.796C65.4555 11.516 64.9875 11.148 64.6195 10.692C64.2515 10.236 63.9755 9.748 63.7915 9.228C63.6155 8.708 63.5275 8.208 63.5275 7.728V7.464C63.5275 6.944 63.6195 6.42 63.8035 5.892C63.9875 5.364 64.2675 4.884 64.6435 4.452C65.0195 4.012 65.4875 3.66 66.0475 3.396C66.6155 3.132 67.2835 3 68.0515 3C68.8195 3 69.4835 3.132 70.0435 3.396C70.6115 3.66 71.0835 4.012 71.4595 4.452C71.8355 4.884 72.1155 5.364 72.2995 5.892C72.4835 6.42 72.5755 6.944 72.5755 7.464V7.728C72.5755 8.208 72.4835 8.708 72.2995 9.228C72.1235 9.748 71.8515 10.236 71.4835 10.692C71.1155 11.148 70.6475 11.516 70.0795 11.796C69.5115 12.076 68.8355 12.216 68.0515 12.216ZM68.0515 11.136C68.5635 11.136 69.0235 11.04 69.4315 10.848C69.8475 10.656 70.1995 10.396 70.4875 10.068C70.7755 9.732 70.9955 9.356 71.1475 8.94C71.2995 8.516 71.3755 8.072 71.3755 7.608C71.3755 7.12 71.2995 6.664 71.1475 6.24C70.9955 5.816 70.7755 5.444 70.4875 5.124C70.1995 4.796 69.8475 4.54 69.4315 4.356C69.0235 4.172 68.5635 4.08 68.0515 4.08C67.5395 4.08 67.0755 4.172 66.6595 4.356C66.2515 4.54 65.9035 4.796 65.6155 5.124C65.3275 5.444 65.1075 5.816 64.9555 6.24C64.8035 6.664 64.7275 7.12 64.7275 7.608C64.7275 8.072 64.8035 8.516 64.9555 8.94C65.1075 9.356 65.3275 9.732 65.6155 10.068C65.9035 10.396 66.2515 10.656 66.6595 10.848C67.0755 11.04 67.5395 11.136 68.0515 11.136ZM74.3423 14.4V5.592H75.2543V8.364L75.0383 8.34C75.0783 7.652 75.2223 7.092 75.4703 6.66C75.7263 6.22 76.0583 5.896 76.4663 5.688C76.8743 5.48 77.3183 5.376 77.7983 5.376C78.2623 5.376 78.6823 5.464 79.0583 5.64C79.4423 5.816 79.7703 6.056 80.0423 6.36C80.3143 6.664 80.5223 7.016 80.6663 7.416C80.8103 7.816 80.8823 8.24 80.8823 8.688V8.904C80.8823 9.352 80.8063 9.776 80.6543 10.176C80.5023 10.576 80.2863 10.928 80.0063 11.232C79.7343 11.536 79.4063 11.776 79.0223 11.952C78.6463 12.128 78.2303 12.216 77.7743 12.216C77.3183 12.216 76.8823 12.116 76.4663 11.916C76.0503 11.716 75.7063 11.392 75.4343 10.944C75.1623 10.496 75.0063 9.908 74.9663 9.18L75.4943 10.14V14.4H74.3423ZM77.5943 11.208C78.0263 11.208 78.4023 11.108 78.7223 10.908C79.0423 10.7 79.2903 10.416 79.4663 10.056C79.6423 9.688 79.7303 9.268 79.7303 8.796C79.7303 8.316 79.6423 7.896 79.4663 7.536C79.2903 7.176 79.0423 6.896 78.7223 6.696C78.4023 6.488 78.0263 6.384 77.5943 6.384C77.2103 6.384 76.8543 6.472 76.5263 6.648C76.1983 6.816 75.9343 7.064 75.7343 7.392C75.5423 7.712 75.4463 8.1 75.4463 8.556V9.108C75.4463 9.548 75.5463 9.924 75.7463 10.236C75.9463 10.548 76.2103 10.788 76.5383 10.956C76.8663 11.124 77.2183 11.208 77.5943 11.208ZM85.1117 12.072C84.6317 12.072 84.2157 12.004 83.8637 11.868C83.5197 11.732 83.2517 11.5 83.0597 11.172C82.8757 10.836 82.7837 10.384 82.7837 9.816V3.648H83.8877V9.96C83.8877 10.304 83.9797 10.572 84.1637 10.764C84.3557 10.948 84.6237 11.04 84.9677 11.04H86.0957V12.072H85.1117ZM81.6797 6.456V5.592H86.0957V6.456H81.6797ZM88.0371 12V5.592H89.1891V12H88.0371ZM87.0531 6.504V5.592H89.1891V6.504H87.0531ZM88.3611 4.56C88.1051 4.56 87.9131 4.492 87.7851 4.356C87.6651 4.22 87.6051 4.048 87.6051 3.84C87.6051 3.632 87.6651 3.46 87.7851 3.324C87.9131 3.188 88.1051 3.12 88.3611 3.12C88.6171 3.12 88.8051 3.188 88.9251 3.324C89.0531 3.46 89.1171 3.632 89.1171 3.84C89.1171 4.048 89.0531 4.22 88.9251 4.356C88.8051 4.492 88.6171 4.56 88.3611 4.56ZM94.3685 12.216C93.8085 12.216 93.3165 12.12 92.8925 11.928C92.4685 11.736 92.1085 11.484 91.8125 11.172C91.5245 10.852 91.3045 10.496 91.1525 10.104C91.0085 9.712 90.9365 9.312 90.9365 8.904V8.688C90.9365 8.28 91.0125 7.88 91.1645 7.488C91.3165 7.088 91.5405 6.732 91.8365 6.42C92.1325 6.1 92.4925 5.848 92.9165 5.664C93.3405 5.472 93.8245 5.376 94.3685 5.376C94.9125 5.376 95.3965 5.472 95.8205 5.664C96.2445 5.848 96.6045 6.1 96.9005 6.42C97.1965 6.732 97.4205 7.088 97.5725 7.488C97.7245 7.88 97.8005 8.28 97.8005 8.688V8.904C97.8005 9.312 97.7245 9.712 97.5725 10.104C97.4285 10.496 97.2085 10.852 96.9125 11.172C96.6245 11.484 96.2685 11.736 95.8445 11.928C95.4205 12.12 94.9285 12.216 94.3685 12.216ZM94.3685 11.184C94.8485 11.184 95.2565 11.08 95.5925 10.872C95.9365 10.656 96.1965 10.368 96.3725 10.008C96.5565 9.648 96.6485 9.244 96.6485 8.796C96.6485 8.34 96.5565 7.932 96.3725 7.572C96.1885 7.212 95.9245 6.928 95.5805 6.72C95.2445 6.512 94.8405 6.408 94.3685 6.408C93.9045 6.408 93.5005 6.512 93.1565 6.72C92.8125 6.928 92.5485 7.212 92.3645 7.572C92.1805 7.932 92.0885 8.34 92.0885 8.796C92.0885 9.244 92.1765 9.648 92.3525 10.008C92.5365 10.368 92.7965 10.656 93.1325 10.872C93.4765 11.08 93.8885 11.184 94.3685 11.184ZM99.5259 12V5.592H100.438V8.34H100.294C100.294 7.708 100.378 7.176 100.546 6.744C100.722 6.304 100.986 5.972 101.338 5.748C101.69 5.516 102.134 5.4 102.67 5.4H102.718C103.526 5.4 104.122 5.652 104.506 6.156C104.898 6.66 105.094 7.388 105.094 8.34V12H103.942V8.1C103.942 7.604 103.802 7.208 103.522 6.912C103.242 6.608 102.858 6.456 102.37 6.456C101.866 6.456 101.458 6.612 101.146 6.924C100.834 7.236 100.678 7.652 100.678 8.172V12H99.5259ZM109.302 12.192C108.462 12.192 107.81 12.012 107.346 11.652C106.89 11.292 106.654 10.8 106.638 10.176H107.718C107.734 10.424 107.858 10.66 108.09 10.884C108.33 11.1 108.734 11.208 109.302 11.208C109.814 11.208 110.206 11.108 110.478 10.908C110.75 10.7 110.886 10.448 110.886 10.152C110.886 9.888 110.786 9.684 110.586 9.54C110.386 9.388 110.062 9.288 109.614 9.24L108.918 9.168C108.31 9.104 107.814 8.924 107.43 8.628C107.046 8.324 106.854 7.9 106.854 7.356C106.854 6.948 106.958 6.6 107.166 6.312C107.374 6.016 107.662 5.792 108.03 5.64C108.398 5.48 108.822 5.4 109.302 5.4C110.022 5.4 110.606 5.56 111.054 5.88C111.502 6.2 111.734 6.676 111.75 7.308H110.67C110.662 7.052 110.542 6.836 110.31 6.66C110.086 6.476 109.75 6.384 109.302 6.384C108.854 6.384 108.514 6.476 108.282 6.66C108.05 6.844 107.934 7.076 107.934 7.356C107.934 7.596 108.014 7.788 108.174 7.932C108.342 8.076 108.614 8.168 108.99 8.208L109.686 8.28C110.374 8.352 110.926 8.544 111.342 8.856C111.758 9.16 111.966 9.592 111.966 10.152C111.966 10.552 111.85 10.908 111.618 11.22C111.394 11.524 111.082 11.764 110.682 11.94C110.282 12.108 109.822 12.192 109.302 12.192Z" fill="#E8E8E8"/>
</svg>
