<svg width="83" height="16" viewBox="0 0 83 16" fill="none" xmlns="http://www.w3.org/2000/svg">
<g clip-path="url(#clip0_223_867)">
<path d="M15.3332 8.75C15.7474 8.75 16.0832 8.41421 16.0832 8C16.0832 7.58579 15.7474 7.25 15.3332 7.25V8.75ZM0.666504 7.25C0.25229 7.25 -0.0834961 7.58579 -0.0834961 8C-0.0834961 8.41421 0.25229 8.75 0.666504 8.75V7.25ZM1.99984 10.6667H1.24984H1.99984ZM2.74984 10C2.74984 9.58579 2.41405 9.25 1.99984 9.25C1.58562 9.25 1.24984 9.58579 1.24984 10H2.74984ZM5.99984 14.75C6.41405 14.75 6.74984 14.4142 6.74984 14C6.74984 13.5858 6.41405 13.25 5.99984 13.25V14.75ZM5.33317 14V13.25V14ZM5.99984 2.75C6.41405 2.75 6.74984 2.41421 6.74984 2C6.74984 1.58579 6.41405 1.25 5.99984 1.25V2.75ZM1.24984 6C1.24984 6.41421 1.58562 6.75 1.99984 6.75C2.41405 6.75 2.74984 6.41421 2.74984 6H1.24984ZM13.9998 5.33333H13.2498H13.9998ZM13.2498 6C13.2498 6.41421 13.5856 6.75 13.9998 6.75C14.4141 6.75 14.7498 6.41421 14.7498 6H13.2498ZM9.99984 1.25C9.58562 1.25 9.24984 1.58579 9.24984 2C9.24984 2.41421 9.58562 2.75 9.99984 2.75V1.25ZM10.6665 2V1.25V2ZM10.6665 14V13.25V14ZM9.99984 13.25C9.58562 13.25 9.24984 13.5858 9.24984 14C9.24984 14.4142 9.58562 14.75 9.99984 14.75V13.25ZM14.7498 10C14.7498 9.58579 14.4141 9.25 13.9998 9.25C13.5856 9.25 13.2498 9.58579 13.2498 10H14.7498ZM13.9998 10.6667H14.7498H13.9998ZM15.3332 7.25H0.666504V8.75H15.3332V7.25ZM2.74984 10.6667V10H1.24984V10.6667H2.74984ZM5.99984 13.25H5.33317V14.75H5.99984V13.25ZM1.24984 10.6667C1.24984 12.9218 3.07801 14.75 5.33317 14.75V13.25C3.90644 13.25 2.74984 12.0934 2.74984 10.6667H1.24984ZM5.33317 2.75H5.99984V1.25H5.33317V2.75ZM2.74984 6V5.33333H1.24984V6H2.74984ZM5.33317 1.25C3.07801 1.25 1.24984 3.07817 1.24984 5.33333H2.74984C2.74984 3.9066 3.90643 2.75 5.33317 2.75V1.25ZM13.2498 5.33333V6H14.7498V5.33333H13.2498ZM9.99984 2.75H10.6665V1.25H9.99984V2.75ZM14.7498 5.33333C14.7498 3.07817 12.9217 1.25 10.6665 1.25V2.75C12.0932 2.75 13.2498 3.9066 13.2498 5.33333H14.7498ZM10.6665 13.25H9.99984V14.75H10.6665V13.25ZM13.2498 10V10.6667H14.7498V10H13.2498ZM10.6665 14.75C12.9217 14.75 14.7498 12.9218 14.7498 10.6667H13.2498C13.2498 12.0934 12.0932 13.25 10.6665 13.25V14.75Z" fill="#FAFAFA"/>
</g>
<path d="M21.272 12V3.24H22.448V12H21.272ZM22.208 12V10.944H26.216V12H22.208ZM31.5073 12V10.08H31.3153V7.86C31.3153 7.42 31.1993 7.088 30.9673 6.864C30.7433 6.64 30.4113 6.528 29.9713 6.528C29.7233 6.528 29.4673 6.532 29.2033 6.54C28.9393 6.548 28.6873 6.556 28.4473 6.564C28.2073 6.572 27.9993 6.584 27.8233 6.6V5.592C27.9993 5.576 28.1833 5.564 28.3753 5.556C28.5753 5.54 28.7793 5.532 28.9873 5.532C29.1953 5.524 29.3953 5.52 29.5873 5.52C30.2433 5.52 30.7793 5.6 31.1953 5.76C31.6113 5.912 31.9193 6.164 32.1193 6.516C32.3193 6.868 32.4193 7.344 32.4193 7.944V12H31.5073ZM29.4073 12.168C28.9273 12.168 28.5113 12.088 28.1593 11.928C27.8153 11.76 27.5473 11.52 27.3553 11.208C27.1713 10.896 27.0793 10.52 27.0793 10.08C27.0793 9.624 27.1793 9.244 27.3793 8.94C27.5873 8.636 27.8873 8.408 28.2793 8.256C28.6713 8.096 29.1433 8.016 29.6953 8.016H31.4353V8.88H29.6473C29.1833 8.88 28.8273 8.992 28.5793 9.216C28.3313 9.44 28.2073 9.728 28.2073 10.08C28.2073 10.432 28.3313 10.716 28.5793 10.932C28.8273 11.148 29.1833 11.256 29.6473 11.256C29.9193 11.256 30.1793 11.208 30.4273 11.112C30.6753 11.008 30.8793 10.84 31.0393 10.608C31.2073 10.368 31.2993 10.04 31.3153 9.624L31.6273 10.08C31.5873 10.536 31.4753 10.92 31.2913 11.232C31.1153 11.536 30.8673 11.768 30.5473 11.928C30.2353 12.088 29.8553 12.168 29.4073 12.168ZM36.6337 12.192C35.7937 12.192 35.1417 12.012 34.6777 11.652C34.2217 11.292 33.9857 10.8 33.9697 10.176H35.0497C35.0657 10.424 35.1897 10.66 35.4217 10.884C35.6617 11.1 36.0657 11.208 36.6337 11.208C37.1457 11.208 37.5377 11.108 37.8097 10.908C38.0817 10.7 38.2177 10.448 38.2177 10.152C38.2177 9.888 38.1177 9.684 37.9177 9.54C37.7177 9.388 37.3937 9.288 36.9457 9.24L36.2497 9.168C35.6417 9.104 35.1457 8.924 34.7617 8.628C34.3777 8.324 34.1857 7.9 34.1857 7.356C34.1857 6.948 34.2897 6.6 34.4977 6.312C34.7057 6.016 34.9937 5.792 35.3617 5.64C35.7297 5.48 36.1537 5.4 36.6337 5.4C37.3537 5.4 37.9377 5.56 38.3857 5.88C38.8337 6.2 39.0657 6.676 39.0817 7.308H38.0017C37.9937 7.052 37.8737 6.836 37.6417 6.66C37.4177 6.476 37.0817 6.384 36.6337 6.384C36.1857 6.384 35.8457 6.476 35.6137 6.66C35.3817 6.844 35.2657 7.076 35.2657 7.356C35.2657 7.596 35.3457 7.788 35.5057 7.932C35.6737 8.076 35.9457 8.168 36.3217 8.208L37.0177 8.28C37.7057 8.352 38.2577 8.544 38.6737 8.856C39.0897 9.16 39.2977 9.592 39.2977 10.152C39.2977 10.552 39.1817 10.908 38.9497 11.22C38.7257 11.524 38.4137 11.764 38.0137 11.94C37.6137 12.108 37.1537 12.192 36.6337 12.192ZM43.6913 12.216C43.1313 12.216 42.6473 12.12 42.2393 11.928C41.8313 11.736 41.4993 11.484 41.2433 11.172C40.9873 10.852 40.7953 10.496 40.6673 10.104C40.5473 9.712 40.4873 9.312 40.4873 8.904V8.688C40.4873 8.272 40.5473 7.868 40.6673 7.476C40.7953 7.084 40.9873 6.732 41.2433 6.42C41.4993 6.1 41.8233 5.848 42.2153 5.664C42.6153 5.472 43.0833 5.376 43.6193 5.376C44.3153 5.376 44.8873 5.528 45.3353 5.832C45.7913 6.128 46.1273 6.512 46.3433 6.984C46.5673 7.456 46.6793 7.96 46.6793 8.496V9.012H40.9913V8.148H45.8393L45.5753 8.616C45.5753 8.16 45.5033 7.768 45.3593 7.44C45.2153 7.104 44.9993 6.844 44.7113 6.66C44.4233 6.476 44.0593 6.384 43.6193 6.384C43.1633 6.384 42.7833 6.488 42.4793 6.696C42.1833 6.904 41.9593 7.188 41.8073 7.548C41.6633 7.908 41.5913 8.324 41.5913 8.796C41.5913 9.252 41.6633 9.664 41.8073 10.032C41.9593 10.392 42.1913 10.68 42.5033 10.896C42.8153 11.104 43.2113 11.208 43.6913 11.208C44.1953 11.208 44.6033 11.096 44.9153 10.872C45.2353 10.648 45.4273 10.388 45.4913 10.092H46.5713C46.4833 10.532 46.3073 10.912 46.0433 11.232C45.7793 11.552 45.4473 11.796 45.0473 11.964C44.6473 12.132 44.1953 12.216 43.6913 12.216ZM48.3149 12V5.592H49.2269V8.232H49.1789C49.1789 7.296 49.3829 6.612 49.7909 6.18C50.2069 5.74 50.8269 5.52 51.6509 5.52H51.8669V6.552H51.4589C50.8189 6.552 50.3269 6.724 49.9829 7.068C49.6389 7.404 49.4669 7.892 49.4669 8.532V12H48.3149ZM56.2488 12.216C55.5208 12.216 54.9008 12.096 54.3888 11.856C53.8768 11.616 53.4848 11.284 53.2128 10.86C52.9408 10.436 52.8048 9.956 52.8048 9.42H53.9808C53.9808 9.684 54.0488 9.948 54.1848 10.212C54.3288 10.476 54.5648 10.696 54.8928 10.872C55.2288 11.048 55.6808 11.136 56.2488 11.136C56.7768 11.136 57.2088 11.06 57.5448 10.908C57.8808 10.748 58.1288 10.544 58.2888 10.296C58.4488 10.04 58.5288 9.764 58.5288 9.468C58.5288 9.108 58.3728 8.812 58.0608 8.58C57.7488 8.34 57.2928 8.192 56.6928 8.136L55.7208 8.052C54.9448 7.988 54.3248 7.748 53.8608 7.332C53.3968 6.916 53.1648 6.368 53.1648 5.688C53.1648 5.152 53.2928 4.684 53.5488 4.284C53.8128 3.884 54.1768 3.572 54.6408 3.348C55.1048 3.116 55.6448 3 56.2608 3C56.8688 3 57.4048 3.112 57.8688 3.336C58.3328 3.56 58.6928 3.876 58.9488 4.284C59.2128 4.684 59.3448 5.164 59.3448 5.724H58.1688C58.1688 5.444 58.1008 5.18 57.9648 4.932C57.8368 4.684 57.6328 4.48 57.3528 4.32C57.0728 4.16 56.7088 4.08 56.2608 4.08C55.8288 4.08 55.4688 4.156 55.1808 4.308C54.9008 4.46 54.6888 4.66 54.5448 4.908C54.4088 5.148 54.3408 5.408 54.3408 5.688C54.3408 6.008 54.4648 6.292 54.7128 6.54C54.9608 6.788 55.3288 6.932 55.8168 6.972L56.7888 7.056C57.3888 7.104 57.9048 7.232 58.3368 7.44C58.7768 7.64 59.1128 7.912 59.3448 8.256C59.5848 8.592 59.7048 8.996 59.7048 9.468C59.7048 10.004 59.5608 10.48 59.2728 10.896C58.9848 11.312 58.5808 11.636 58.0608 11.868C57.5408 12.1 56.9368 12.216 56.2488 12.216ZM64.2583 12.216C63.7063 12.216 63.2263 12.12 62.8183 11.928C62.4183 11.736 62.0863 11.48 61.8223 11.16C61.5583 10.832 61.3583 10.472 61.2223 10.08C61.0943 9.688 61.0303 9.296 61.0303 8.904V8.688C61.0303 8.28 61.0943 7.88 61.2223 7.488C61.3583 7.096 61.5583 6.744 61.8223 6.432C62.0943 6.112 62.4303 5.856 62.8303 5.664C63.2303 5.472 63.6983 5.376 64.2343 5.376C64.7703 5.376 65.2503 5.476 65.6743 5.676C66.1063 5.876 66.4503 6.16 66.7063 6.528C66.9703 6.888 67.1183 7.316 67.1503 7.812H66.0463C65.9903 7.412 65.8063 7.08 65.4943 6.816C65.1823 6.544 64.7623 6.408 64.2343 6.408C63.7783 6.408 63.3983 6.512 63.0943 6.72C62.7903 6.928 62.5623 7.212 62.4103 7.572C62.2583 7.932 62.1823 8.34 62.1823 8.796C62.1823 9.236 62.2583 9.64 62.4103 10.008C62.5623 10.368 62.7903 10.656 63.0943 10.872C63.4063 11.08 63.7943 11.184 64.2583 11.184C64.6183 11.184 64.9303 11.12 65.1943 10.992C65.4583 10.864 65.6703 10.692 65.8303 10.476C65.9903 10.26 66.0863 10.016 66.1183 9.744H67.2223C67.1983 10.248 67.0503 10.684 66.7783 11.052C66.5143 11.42 66.1623 11.708 65.7223 11.916C65.2903 12.116 64.8023 12.216 64.2583 12.216ZM72.6636 12V10.08H72.4716V7.86C72.4716 7.42 72.3556 7.088 72.1236 6.864C71.8996 6.64 71.5676 6.528 71.1276 6.528C70.8796 6.528 70.6236 6.532 70.3596 6.54C70.0956 6.548 69.8436 6.556 69.6036 6.564C69.3636 6.572 69.1556 6.584 68.9796 6.6V5.592C69.1556 5.576 69.3396 5.564 69.5316 5.556C69.7316 5.54 69.9356 5.532 70.1436 5.532C70.3516 5.524 70.5516 5.52 70.7436 5.52C71.3996 5.52 71.9356 5.6 72.3516 5.76C72.7676 5.912 73.0756 6.164 73.2756 6.516C73.4756 6.868 73.5756 7.344 73.5756 7.944V12H72.6636ZM70.5636 12.168C70.0836 12.168 69.6676 12.088 69.3156 11.928C68.9716 11.76 68.7036 11.52 68.5116 11.208C68.3276 10.896 68.2356 10.52 68.2356 10.08C68.2356 9.624 68.3356 9.244 68.5356 8.94C68.7436 8.636 69.0436 8.408 69.4356 8.256C69.8276 8.096 70.2996 8.016 70.8516 8.016H72.5916V8.88H70.8036C70.3396 8.88 69.9836 8.992 69.7356 9.216C69.4876 9.44 69.3636 9.728 69.3636 10.08C69.3636 10.432 69.4876 10.716 69.7356 10.932C69.9836 11.148 70.3396 11.256 70.8036 11.256C71.0756 11.256 71.3356 11.208 71.5836 11.112C71.8316 11.008 72.0356 10.84 72.1956 10.608C72.3636 10.368 72.4556 10.04 72.4716 9.624L72.7836 10.08C72.7436 10.536 72.6316 10.92 72.4476 11.232C72.2716 11.536 72.0236 11.768 71.7036 11.928C71.3916 12.088 71.0116 12.168 70.5636 12.168ZM75.6899 12V5.592H76.6019V8.34H76.4579C76.4579 7.708 76.5419 7.176 76.7099 6.744C76.8859 6.304 77.1499 5.972 77.5019 5.748C77.8539 5.516 78.2979 5.4 78.8339 5.4H78.8819C79.6899 5.4 80.2859 5.652 80.6699 6.156C81.0619 6.66 81.2579 7.388 81.2579 8.34V12H80.1059V8.1C80.1059 7.604 79.9659 7.208 79.6859 6.912C79.4059 6.608 79.0219 6.456 78.5339 6.456C78.0299 6.456 77.6219 6.612 77.3099 6.924C76.9979 7.236 76.8419 7.652 76.8419 8.172V12H75.6899Z" fill="#E8E8E8"/>
<defs>
<clipPath id="clip0_223_867">
<rect width="16" height="16" fill="white"/>
</clipPath>
</defs>
</svg>
