<svg width="50" height="16" viewBox="0 0 50 16" fill="none" xmlns="http://www.w3.org/2000/svg">
<path d="M4.66667 9.90476L5.64022 7.92006C6.13196 6.9176 7.57723 6.96656 8 8C8.42277 9.03344 9.86804 9.0824 10.3598 8.07994L11.3333 6.09524M8 14C5.50018 14 4.25027 14 3.37405 13.3634C3.09107 13.1578 2.84221 12.9089 2.63661 12.626C2 11.7497 2 10.4998 2 8C2 5.50018 2 4.25027 2.63661 3.37405C2.84221 3.09107 3.09107 2.84221 3.37405 2.63661C4.25027 2 5.50018 2 8 2C10.4998 2 11.7497 2 12.626 2.63661C12.9089 2.84221 13.1578 3.09107 13.3634 3.37405C14 4.25027 14 5.50018 14 8C14 10.4998 14 11.7497 13.3634 12.626C13.1578 12.9089 12.9089 13.1578 12.626 13.3634C11.7497 14 10.4998 14 8 14Z" stroke="#FAFAFA" stroke-width="1.5" stroke-linecap="round"/>
<path d="M22.208 8.952V7.92H24.164C24.58 7.92 24.924 7.84 25.196 7.68C25.468 7.512 25.672 7.288 25.808 7.008C25.952 6.728 26.024 6.416 26.024 6.072C26.024 5.72 25.952 5.404 25.808 5.124C25.672 4.844 25.468 4.624 25.196 4.464C24.924 4.304 24.58 4.224 24.164 4.224H22.208V3.192H23.948C24.668 3.192 25.268 3.308 25.748 3.54C26.236 3.764 26.604 4.084 26.852 4.5C27.1 4.916 27.224 5.408 27.224 5.976V6.168C27.224 6.728 27.1 7.22 26.852 7.644C26.604 8.06 26.236 8.384 25.748 8.616C25.268 8.84 24.668 8.952 23.948 8.952H22.208ZM21.272 12V3.192H22.448V12H21.272ZM31.6146 12.216C31.0546 12.216 30.5626 12.12 30.1386 11.928C29.7146 11.736 29.3546 11.484 29.0586 11.172C28.7706 10.852 28.5506 10.496 28.3986 10.104C28.2546 9.712 28.1826 9.312 28.1826 8.904V8.688C28.1826 8.28 28.2586 7.88 28.4106 7.488C28.5626 7.088 28.7866 6.732 29.0826 6.42C29.3786 6.1 29.7386 5.848 30.1626 5.664C30.5866 5.472 31.0706 5.376 31.6146 5.376C32.1586 5.376 32.6426 5.472 33.0666 5.664C33.4906 5.848 33.8506 6.1 34.1466 6.42C34.4426 6.732 34.6666 7.088 34.8186 7.488C34.9706 7.88 35.0466 8.28 35.0466 8.688V8.904C35.0466 9.312 34.9706 9.712 34.8186 10.104C34.6746 10.496 34.4546 10.852 34.1586 11.172C33.8706 11.484 33.5146 11.736 33.0906 11.928C32.6666 12.12 32.1746 12.216 31.6146 12.216ZM31.6146 11.184C32.0946 11.184 32.5026 11.08 32.8386 10.872C33.1826 10.656 33.4426 10.368 33.6186 10.008C33.8026 9.648 33.8946 9.244 33.8946 8.796C33.8946 8.34 33.8026 7.932 33.6186 7.572C33.4346 7.212 33.1706 6.928 32.8266 6.72C32.4906 6.512 32.0866 6.408 31.6146 6.408C31.1506 6.408 30.7466 6.512 30.4026 6.72C30.0586 6.928 29.7946 7.212 29.6106 7.572C29.4266 7.932 29.3346 8.34 29.3346 8.796C29.3346 9.244 29.4226 9.648 29.5986 10.008C29.7826 10.368 30.0426 10.656 30.3786 10.872C30.7226 11.08 31.1346 11.184 31.6146 11.184ZM38.872 12.192C38.032 12.192 37.38 12.012 36.916 11.652C36.46 11.292 36.224 10.8 36.208 10.176H37.288C37.304 10.424 37.428 10.66 37.66 10.884C37.9 11.1 38.304 11.208 38.872 11.208C39.384 11.208 39.776 11.108 40.048 10.908C40.32 10.7 40.456 10.448 40.456 10.152C40.456 9.888 40.356 9.684 40.156 9.54C39.956 9.388 39.632 9.288 39.184 9.24L38.488 9.168C37.88 9.104 37.384 8.924 37 8.628C36.616 8.324 36.424 7.9 36.424 7.356C36.424 6.948 36.528 6.6 36.736 6.312C36.944 6.016 37.232 5.792 37.6 5.64C37.968 5.48 38.392 5.4 38.872 5.4C39.592 5.4 40.176 5.56 40.624 5.88C41.072 6.2 41.304 6.676 41.32 7.308H40.24C40.232 7.052 40.112 6.836 39.88 6.66C39.656 6.476 39.32 6.384 38.872 6.384C38.424 6.384 38.084 6.476 37.852 6.66C37.62 6.844 37.504 7.076 37.504 7.356C37.504 7.596 37.584 7.788 37.744 7.932C37.912 8.076 38.184 8.168 38.56 8.208L39.256 8.28C39.944 8.352 40.496 8.544 40.912 8.856C41.328 9.16 41.536 9.592 41.536 10.152C41.536 10.552 41.42 10.908 41.188 11.22C40.964 11.524 40.652 11.764 40.252 11.94C39.852 12.108 39.392 12.192 38.872 12.192ZM45.9296 12.216C45.3696 12.216 44.8856 12.12 44.4776 11.928C44.0696 11.736 43.7376 11.484 43.4816 11.172C43.2256 10.852 43.0336 10.496 42.9056 10.104C42.7856 9.712 42.7256 9.312 42.7256 8.904V8.688C42.7256 8.272 42.7856 7.868 42.9056 7.476C43.0336 7.084 43.2256 6.732 43.4816 6.42C43.7376 6.1 44.0616 5.848 44.4536 5.664C44.8536 5.472 45.3216 5.376 45.8576 5.376C46.5536 5.376 47.1256 5.528 47.5736 5.832C48.0296 6.128 48.3656 6.512 48.5816 6.984C48.8056 7.456 48.9176 7.96 48.9176 8.496V9.012H43.2296V8.148H48.0776L47.8136 8.616C47.8136 8.16 47.7416 7.768 47.5976 7.44C47.4536 7.104 47.2376 6.844 46.9496 6.66C46.6616 6.476 46.2976 6.384 45.8576 6.384C45.4016 6.384 45.0216 6.488 44.7176 6.696C44.4216 6.904 44.1976 7.188 44.0456 7.548C43.9016 7.908 43.8296 8.324 43.8296 8.796C43.8296 9.252 43.9016 9.664 44.0456 10.032C44.1976 10.392 44.4296 10.68 44.7416 10.896C45.0536 11.104 45.4496 11.208 45.9296 11.208C46.4336 11.208 46.8416 11.096 47.1536 10.872C47.4736 10.648 47.6656 10.388 47.7296 10.092H48.8096C48.7216 10.532 48.5456 10.912 48.2816 11.232C48.0176 11.552 47.6856 11.796 47.2856 11.964C46.8856 12.132 46.4336 12.216 45.9296 12.216Z" fill="#E8E8E8"/>
</svg>
