<svg width="47" height="16" viewBox="0 0 47 16" fill="none" xmlns="http://www.w3.org/2000/svg">
<path d="M3.37405 13.3634L3.81489 12.7566L3.37405 13.3634ZM2.63661 12.626L3.24337 12.1851L2.63661 12.626ZM13.3634 12.626L12.7566 12.1851L13.3634 12.626ZM12.626 13.3634L12.1851 12.7566L12.626 13.3634ZM12.626 2.63661L12.1851 3.24337L12.626 2.63661ZM13.3634 3.37405L12.7566 3.81489L13.3634 3.37405ZM3.37405 2.63661L3.81489 3.24337L3.37405 2.63661ZM2.63661 3.37405L3.24337 3.81489L2.63661 3.37405ZM5.91667 11.3333C5.91667 11.7475 6.25245 12.0833 6.66667 12.0833C7.08088 12.0833 7.41667 11.7475 7.41667 11.3333H5.91667ZM7.41667 4.66667C7.41667 4.25245 7.08088 3.91667 6.66667 3.91667C6.25245 3.91667 5.91667 4.25245 5.91667 4.66667H7.41667ZM8.58333 11.3333C8.58333 11.7475 8.91912 12.0833 9.33333 12.0833C9.74755 12.0833 10.0833 11.7475 10.0833 11.3333H8.58333ZM10.0833 4.66667C10.0833 4.25245 9.74755 3.91667 9.33333 3.91667C8.91912 3.91667 8.58333 4.25245 8.58333 4.66667H10.0833ZM11.3333 7.41667C11.7475 7.41667 12.0833 7.08088 12.0833 6.66667C12.0833 6.25245 11.7475 5.91667 11.3333 5.91667V7.41667ZM4.66667 5.91667C4.25245 5.91667 3.91667 6.25245 3.91667 6.66667C3.91667 7.08088 4.25245 7.41667 4.66667 7.41667V5.91667ZM11.3333 10.0833C11.7475 10.0833 12.0833 9.74755 12.0833 9.33333C12.0833 8.91912 11.7475 8.58333 11.3333 8.58333V10.0833ZM4.66667 8.58333C4.25245 8.58333 3.91667 8.91912 3.91667 9.33333C3.91667 9.74755 4.25245 10.0833 4.66667 10.0833V8.58333ZM8 13.25C6.73338 13.25 5.84366 13.249 5.15896 13.1748C4.48829 13.1021 4.10384 12.9666 3.81489 12.7566L2.93321 13.9702C3.52048 14.3968 4.19909 14.5796 4.99739 14.6661C5.78165 14.751 6.7668 14.75 8 14.75V13.25ZM1.25 8C1.25 9.2332 1.24897 10.2184 1.33394 11.0026C1.42043 11.8009 1.60317 12.4795 2.02985 13.0668L3.24337 12.1851C3.03344 11.8962 2.89788 11.5117 2.82521 10.841C2.75103 10.1563 2.75 9.26662 2.75 8H1.25ZM3.81489 12.7566C3.59558 12.5973 3.40271 12.4044 3.24337 12.1851L2.02985 13.0668C2.28171 13.4134 2.58656 13.7183 2.93321 13.9702L3.81489 12.7566ZM13.25 8C13.25 9.26662 13.249 10.1563 13.1748 10.841C13.1021 11.5117 12.9666 11.8962 12.7566 12.1851L13.9702 13.0668C14.3968 12.4795 14.5796 11.8009 14.6661 11.0026C14.751 10.2184 14.75 9.2332 14.75 8H13.25ZM8 14.75C9.2332 14.75 10.2184 14.751 11.0026 14.6661C11.8009 14.5796 12.4795 14.3968 13.0668 13.9702L12.1851 12.7566C11.8962 12.9666 11.5117 13.1021 10.841 13.1748C10.1563 13.249 9.26662 13.25 8 13.25V14.75ZM12.7566 12.1851C12.5973 12.4044 12.4044 12.5973 12.1851 12.7566L13.0668 13.9702C13.4134 13.7183 13.7183 13.4134 13.9702 13.0668L12.7566 12.1851ZM8 2.75C9.26662 2.75 10.1563 2.75103 10.841 2.82521C11.5117 2.89788 11.8962 3.03344 12.1851 3.24337L13.0668 2.02985C12.4795 1.60317 11.8009 1.42043 11.0026 1.33394C10.2184 1.24897 9.2332 1.25 8 1.25V2.75ZM14.75 8C14.75 6.7668 14.751 5.78165 14.6661 4.99739C14.5796 4.19909 14.3968 3.52048 13.9702 2.93321L12.7566 3.81489C12.9666 4.10384 13.1021 4.48829 13.1748 5.15896C13.249 5.84366 13.25 6.73338 13.25 8H14.75ZM12.1851 3.24337C12.4044 3.40271 12.5973 3.59558 12.7566 3.81489L13.9702 2.93321C13.7183 2.58656 13.4134 2.28171 13.0668 2.02985L12.1851 3.24337ZM8 1.25C6.7668 1.25 5.78165 1.24897 4.99739 1.33394C4.19909 1.42043 3.52048 1.60317 2.93321 2.02985L3.81489 3.24337C4.10384 3.03344 4.48829 2.89788 5.15896 2.82521C5.84366 2.75103 6.73338 2.75 8 2.75V1.25ZM2.75 8C2.75 6.73338 2.75103 5.84366 2.82521 5.15896C2.89788 4.48829 3.03344 4.10384 3.24337 3.81489L2.02985 2.93321C1.60317 3.52048 1.42043 4.19909 1.33394 4.99739C1.24897 5.78165 1.25 6.7668 1.25 8H2.75ZM2.93321 2.02985C2.58656 2.28171 2.28171 2.58656 2.02985 2.93321L3.24337 3.81489C3.40271 3.59558 3.59558 3.40271 3.81489 3.24337L2.93321 2.02985ZM11.3333 8.58333H9.33333V10.0833H11.3333V8.58333ZM10.0833 11.3333V9.33333H8.58333V11.3333H10.0833ZM9.33333 8.58333H6.66667V10.0833H9.33333V8.58333ZM6.66667 8.58333H4.66667V10.0833H6.66667V8.58333ZM7.41667 11.3333V9.33333H5.91667V11.3333H7.41667ZM7.41667 9.33333V6.66667H5.91667V9.33333H7.41667ZM7.41667 6.66667V4.66667H5.91667V6.66667H7.41667ZM6.66667 5.91667H4.66667V7.41667H6.66667V5.91667ZM11.3333 5.91667H9.33333V7.41667H11.3333V5.91667ZM9.33333 5.91667H6.66667V7.41667H9.33333V5.91667ZM10.0833 9.33333V6.66667H8.58333V9.33333H10.0833ZM10.0833 6.66667V4.66667H8.58333V6.66667H10.0833Z" fill="#FAFAFA"/>
<path d="M25.184 12.216C24.504 12.216 23.888 12.104 23.336 11.88C22.784 11.656 22.308 11.34 21.908 10.932C21.516 10.524 21.212 10.044 20.996 9.492C20.78 8.932 20.672 8.324 20.672 7.668V7.404C20.672 6.844 20.768 6.304 20.96 5.784C21.16 5.256 21.444 4.784 21.812 4.368C22.188 3.944 22.644 3.612 23.18 3.372C23.716 3.124 24.32 3 24.992 3C25.72 3 26.368 3.14 26.936 3.42C27.504 3.692 27.96 4.076 28.304 4.572C28.648 5.06 28.848 5.628 28.904 6.276H27.704C27.648 5.788 27.488 5.384 27.224 5.064C26.96 4.736 26.632 4.492 26.24 4.332C25.856 4.164 25.44 4.08 24.992 4.08C24.536 4.08 24.116 4.164 23.732 4.332C23.348 4.492 23.016 4.724 22.736 5.028C22.464 5.332 22.252 5.696 22.1 6.12C21.948 6.544 21.872 7.02 21.872 7.548C21.872 8.148 21.952 8.676 22.112 9.132C22.28 9.58 22.512 9.956 22.808 10.26C23.104 10.556 23.452 10.78 23.852 10.932C24.26 11.084 24.704 11.16 25.184 11.16C25.864 11.16 26.46 11.024 26.972 10.752C27.492 10.472 27.884 10.112 28.148 9.672L27.716 11.1V8.496H28.82V10.584C28.428 11.096 27.924 11.496 27.308 11.784C26.692 12.072 25.984 12.216 25.184 12.216ZM24.872 8.736V7.752H29.564V8.736H24.872ZM31.0767 12V5.592H31.9887V8.232H31.9407C31.9407 7.296 32.1447 6.612 32.5527 6.18C32.9687 5.74 33.5887 5.52 34.4127 5.52H34.6287V6.552H34.2207C33.5807 6.552 33.0887 6.724 32.7447 7.068C32.4007 7.404 32.2287 7.892 32.2287 8.532V12H31.0767ZM36.3105 12V5.592H37.4625V12H36.3105ZM35.3265 6.504V5.592H37.4625V6.504H35.3265ZM36.6345 4.56C36.3785 4.56 36.1865 4.492 36.0585 4.356C35.9385 4.22 35.8785 4.048 35.8785 3.84C35.8785 3.632 35.9385 3.46 36.0585 3.324C36.1865 3.188 36.3785 3.12 36.6345 3.12C36.8905 3.12 37.0785 3.188 37.1985 3.324C37.3265 3.46 37.3905 3.632 37.3905 3.84C37.3905 4.048 37.3265 4.22 37.1985 4.356C37.0785 4.492 36.8905 4.56 36.6345 4.56ZM42.3659 12.216C41.9099 12.216 41.4899 12.132 41.1059 11.964C40.7219 11.796 40.3859 11.56 40.0979 11.256C39.8179 10.952 39.5979 10.6 39.4379 10.2C39.2859 9.8 39.2099 9.368 39.2099 8.904V8.688C39.2099 8.232 39.2859 7.804 39.4379 7.404C39.5899 7.004 39.8019 6.652 40.0739 6.348C40.3539 6.044 40.6819 5.808 41.0579 5.64C41.4419 5.464 41.8659 5.376 42.3299 5.376C42.8179 5.376 43.2619 5.48 43.6619 5.688C44.0619 5.888 44.3899 6.204 44.6459 6.636C44.9019 7.068 45.0459 7.628 45.0779 8.316L44.5979 7.548V3.24H45.7499V12H44.8379V9.156H45.1739C45.1419 9.884 44.9899 10.476 44.7179 10.932C44.4459 11.38 44.1019 11.708 43.6859 11.916C43.2779 12.116 42.8379 12.216 42.3659 12.216ZM42.5219 11.208C42.9139 11.208 43.2699 11.12 43.5899 10.944C43.9099 10.768 44.1659 10.516 44.3579 10.188C44.5499 9.852 44.6459 9.46 44.6459 9.012V8.46C44.6459 8.02 44.5459 7.648 44.3459 7.344C44.1539 7.032 43.8939 6.796 43.5659 6.636C43.2459 6.468 42.8939 6.384 42.5099 6.384C42.0859 6.384 41.7099 6.484 41.3819 6.684C41.0619 6.884 40.8099 7.164 40.6259 7.524C40.4499 7.884 40.3619 8.308 40.3619 8.796C40.3619 9.284 40.4539 9.712 40.6379 10.08C40.8219 10.44 41.0779 10.72 41.4059 10.92C41.7339 11.112 42.1059 11.208 42.5219 11.208Z" fill="#E8E8E8"/>
</svg>
