<svg width="106" height="16" viewBox="0 0 106 16" fill="none" xmlns="http://www.w3.org/2000/svg">
<g clip-path="url(#clip0_223_5271)">
<path d="M5.63669 12.5035L5.86845 11.7902L5.63669 12.5035ZM3.49656 10.3634L4.20985 10.1316L3.49656 10.3634ZM12.5036 10.3634L11.7903 10.1316L12.5036 10.3634ZM10.3635 12.5035L10.1317 11.7902L10.3635 12.5035ZM10.3635 3.49647L10.1317 4.20976L10.3635 3.49647ZM12.5036 5.6366L11.7903 5.86836L12.5036 5.6366ZM5.63669 3.49647L5.86845 4.20976L5.63669 3.49647ZM3.49656 5.6366L4.20985 5.86836L3.49656 5.6366ZM4.00008 8.74999C4.41429 8.74999 4.75008 8.4142 4.75008 7.99999C4.75008 7.58578 4.41429 7.24999 4.00008 7.24999V8.74999ZM0.666748 7.24999C0.252534 7.24999 -0.083252 7.58578 -0.083252 7.99999C-0.083252 8.4142 0.252534 8.74999 0.666748 8.74999V7.24999ZM7.25008 3.99999C7.25008 4.4142 7.58587 4.74999 8.00008 4.74999C8.41429 4.74999 8.75008 4.4142 8.75008 3.99999H7.25008ZM8.75008 0.666656C8.75008 0.252443 8.41429 -0.0833435 8.00008 -0.0833435C7.58587 -0.0833435 7.25008 0.252443 7.25008 0.666656H8.75008ZM7.25008 15.3333C7.25008 15.7475 7.58587 16.0833 8.00008 16.0833C8.41429 16.0833 8.75008 15.7475 8.75008 15.3333H7.25008ZM8.75008 12C8.75008 11.5858 8.41429 11.25 8.00008 11.25C7.58587 11.25 7.25008 11.5858 7.25008 12H8.75008ZM15.3334 8.74999C15.7476 8.74999 16.0834 8.4142 16.0834 7.99999C16.0834 7.58578 15.7476 7.24999 15.3334 7.24999V8.74999ZM12.0001 7.24999C11.5859 7.24999 11.2501 7.58578 11.2501 7.99999C11.2501 8.4142 11.5859 8.74999 12.0001 8.74999V7.24999ZM8.00008 11.9167C6.70085 11.9167 6.22911 11.9074 5.86845 11.7902L5.40493 13.2168C6.04849 13.4259 6.8176 13.4167 8.00008 13.4167V11.9167ZM2.58341 7.99999C2.58341 9.18247 2.57416 9.95158 2.78327 10.5951L4.20985 10.1316C4.09267 9.77096 4.08341 9.29922 4.08341 7.99999H2.58341ZM5.86845 11.7902C5.08199 11.5347 4.46539 10.9181 4.20985 10.1316L2.78327 10.5951C3.18718 11.8383 4.16181 12.8129 5.40493 13.2168L5.86845 11.7902ZM11.9167 7.99999C11.9167 9.29922 11.9075 9.77096 11.7903 10.1316L13.2169 10.5951C13.426 9.95158 13.4167 9.18247 13.4167 7.99999H11.9167ZM8.00008 13.4167C9.18256 13.4167 9.95167 13.4259 10.5952 13.2168L10.1317 11.7902C9.77105 11.9074 9.29931 11.9167 8.00008 11.9167V13.4167ZM11.7903 10.1316C11.5348 10.9181 10.9182 11.5347 10.1317 11.7902L10.5952 13.2168C11.8384 12.8129 12.813 11.8383 13.2169 10.5951L11.7903 10.1316ZM8.00008 4.08332C9.29931 4.08332 9.77105 4.09258 10.1317 4.20976L10.5952 2.78318C9.95167 2.57407 9.18256 2.58332 8.00008 2.58332V4.08332ZM13.4167 7.99999C13.4167 6.81751 13.426 6.0484 13.2169 5.40484L11.7903 5.86836C11.9075 6.22902 11.9167 6.70076 11.9167 7.99999H13.4167ZM10.1317 4.20976C10.9182 4.4653 11.5348 5.0819 11.7903 5.86836L13.2169 5.40484C12.813 4.16172 11.8384 3.18709 10.5952 2.78318L10.1317 4.20976ZM8.00008 2.58332C6.8176 2.58332 6.04849 2.57407 5.40493 2.78318L5.86845 4.20976C6.22911 4.09258 6.70085 4.08332 8.00008 4.08332V2.58332ZM4.08341 7.99999C4.08341 6.70076 4.09267 6.22902 4.20985 5.86836L2.78327 5.40484C2.57416 6.0484 2.58341 6.81751 2.58341 7.99999H4.08341ZM5.40493 2.78318C4.16181 3.18709 3.18718 4.16172 2.78327 5.40484L4.20985 5.86836C4.46539 5.0819 5.08199 4.4653 5.86845 4.20976L5.40493 2.78318ZM4.00008 7.24999H0.666748V8.74999H4.00008V7.24999ZM8.75008 3.99999V0.666656H7.25008V3.99999H8.75008ZM8.75008 15.3333V12H7.25008V15.3333H8.75008ZM15.3334 7.24999H12.0001V8.74999H15.3334V7.24999Z" fill="#E8E8E8"/>
<path d="M6.5835 7.99998C6.5835 8.78238 7.21776 9.41665 8.00016 9.41665C8.78257 9.41665 9.41683 8.78238 9.41683 7.99998C9.41683 7.21758 8.78257 6.58331 8.00016 6.58331C7.21776 6.58331 6.5835 7.21758 6.5835 7.99998Z" stroke="#FAFAFA" stroke-width="1.5"/>
</g>
<path d="M21.272 12V3.24H22.448V12H21.272ZM22.208 8.1V7.044L25.964 7.032V8.088L22.208 8.1ZM22.208 4.296V3.24H26.168V4.296H22.208ZM30.6537 12.216C30.0937 12.216 29.6017 12.12 29.1777 11.928C28.7537 11.736 28.3937 11.484 28.0977 11.172C27.8097 10.852 27.5897 10.496 27.4377 10.104C27.2937 9.712 27.2217 9.312 27.2217 8.904V8.688C27.2217 8.28 27.2977 7.88 27.4497 7.488C27.6017 7.088 27.8257 6.732 28.1217 6.42C28.4177 6.1 28.7777 5.848 29.2017 5.664C29.6257 5.472 30.1097 5.376 30.6537 5.376C31.1977 5.376 31.6817 5.472 32.1057 5.664C32.5297 5.848 32.8897 6.1 33.1857 6.42C33.4817 6.732 33.7057 7.088 33.8577 7.488C34.0097 7.88 34.0857 8.28 34.0857 8.688V8.904C34.0857 9.312 34.0097 9.712 33.8577 10.104C33.7137 10.496 33.4937 10.852 33.1977 11.172C32.9097 11.484 32.5537 11.736 32.1297 11.928C31.7057 12.12 31.2137 12.216 30.6537 12.216ZM30.6537 11.184C31.1337 11.184 31.5417 11.08 31.8777 10.872C32.2217 10.656 32.4817 10.368 32.6577 10.008C32.8417 9.648 32.9337 9.244 32.9337 8.796C32.9337 8.34 32.8417 7.932 32.6577 7.572C32.4737 7.212 32.2097 6.928 31.8657 6.72C31.5297 6.512 31.1257 6.408 30.6537 6.408C30.1897 6.408 29.7857 6.512 29.4417 6.72C29.0977 6.928 28.8337 7.212 28.6497 7.572C28.4657 7.932 28.3737 8.34 28.3737 8.796C28.3737 9.244 28.4617 9.648 28.6377 10.008C28.8217 10.368 29.0817 10.656 29.4177 10.872C29.7617 11.08 30.1737 11.184 30.6537 11.184ZM38.559 12.216C38.007 12.216 37.527 12.12 37.119 11.928C36.719 11.736 36.387 11.48 36.123 11.16C35.859 10.832 35.659 10.472 35.523 10.08C35.395 9.688 35.331 9.296 35.331 8.904V8.688C35.331 8.28 35.395 7.88 35.523 7.488C35.659 7.096 35.859 6.744 36.123 6.432C36.395 6.112 36.731 5.856 37.131 5.664C37.531 5.472 37.999 5.376 38.535 5.376C39.071 5.376 39.551 5.476 39.975 5.676C40.407 5.876 40.751 6.16 41.007 6.528C41.271 6.888 41.419 7.316 41.451 7.812H40.347C40.291 7.412 40.107 7.08 39.795 6.816C39.483 6.544 39.063 6.408 38.535 6.408C38.079 6.408 37.699 6.512 37.395 6.72C37.091 6.928 36.863 7.212 36.711 7.572C36.559 7.932 36.483 8.34 36.483 8.796C36.483 9.236 36.559 9.64 36.711 10.008C36.863 10.368 37.091 10.656 37.395 10.872C37.707 11.08 38.095 11.184 38.559 11.184C38.919 11.184 39.231 11.12 39.495 10.992C39.759 10.864 39.971 10.692 40.131 10.476C40.291 10.26 40.387 10.016 40.419 9.744H41.523C41.499 10.248 41.351 10.684 41.079 11.052C40.815 11.42 40.463 11.708 40.023 11.916C39.591 12.116 39.103 12.216 38.559 12.216ZM45.3084 12.192C44.5484 12.192 43.9644 11.944 43.5564 11.448C43.1484 10.952 42.9444 10.236 42.9444 9.3V5.58H44.0964V9.528C44.0964 10.032 44.2324 10.428 44.5044 10.716C44.7764 10.996 45.1444 11.136 45.6084 11.136C46.0884 11.136 46.4804 10.984 46.7844 10.68C47.0884 10.368 47.2404 9.944 47.2404 9.408V5.58H48.3924V12H47.4804V9.252H47.6244C47.6244 9.884 47.5404 10.42 47.3724 10.86C47.2044 11.292 46.9524 11.624 46.6164 11.856C46.2884 12.08 45.8684 12.192 45.3564 12.192H45.3084ZM52.7235 12.192C51.8835 12.192 51.2315 12.012 50.7675 11.652C50.3115 11.292 50.0755 10.8 50.0595 10.176H51.1395C51.1555 10.424 51.2795 10.66 51.5115 10.884C51.7515 11.1 52.1555 11.208 52.7235 11.208C53.2355 11.208 53.6275 11.108 53.8995 10.908C54.1715 10.7 54.3075 10.448 54.3075 10.152C54.3075 9.888 54.2075 9.684 54.0075 9.54C53.8075 9.388 53.4835 9.288 53.0355 9.24L52.3395 9.168C51.7315 9.104 51.2355 8.924 50.8515 8.628C50.4675 8.324 50.2755 7.9 50.2755 7.356C50.2755 6.948 50.3795 6.6 50.5875 6.312C50.7955 6.016 51.0835 5.792 51.4515 5.64C51.8195 5.48 52.2435 5.4 52.7235 5.4C53.4435 5.4 54.0275 5.56 54.4755 5.88C54.9235 6.2 55.1555 6.676 55.1715 7.308H54.0915C54.0835 7.052 53.9635 6.836 53.7315 6.66C53.5075 6.476 53.1715 6.384 52.7235 6.384C52.2755 6.384 51.9355 6.476 51.7035 6.66C51.4715 6.844 51.3555 7.076 51.3555 7.356C51.3555 7.596 51.4355 7.788 51.5955 7.932C51.7635 8.076 52.0355 8.168 52.4115 8.208L53.1075 8.28C53.7955 8.352 54.3475 8.544 54.7635 8.856C55.1795 9.16 55.3875 9.592 55.3875 10.152C55.3875 10.552 55.2715 10.908 55.0395 11.22C54.8155 11.524 54.5035 11.764 54.1035 11.94C53.7035 12.108 53.2435 12.192 52.7235 12.192ZM63.7596 12.216C62.9596 12.216 62.2756 12.076 61.7076 11.796C61.1476 11.516 60.6956 11.152 60.3516 10.704C60.0076 10.256 59.7556 9.772 59.5956 9.252C59.4356 8.724 59.3556 8.216 59.3556 7.728V7.464C59.3556 6.936 59.4356 6.408 59.5956 5.88C59.7636 5.352 60.0196 4.872 60.3636 4.44C60.7076 4.008 61.1556 3.66 61.7076 3.396C62.2596 3.132 62.9196 3 63.6876 3C64.4716 3 65.1436 3.136 65.7036 3.408C66.2636 3.68 66.7076 4.06 67.0356 4.548C67.3636 5.036 67.5636 5.612 67.6356 6.276H66.4356C66.3716 5.78 66.2116 5.372 65.9556 5.052C65.6996 4.724 65.3756 4.48 64.9836 4.32C64.5996 4.16 64.1676 4.08 63.6876 4.08C63.1676 4.08 62.7116 4.172 62.3196 4.356C61.9276 4.532 61.5996 4.784 61.3356 5.112C61.0796 5.432 60.8836 5.804 60.7476 6.228C60.6196 6.652 60.5556 7.112 60.5556 7.608C60.5556 8.08 60.6196 8.528 60.7476 8.952C60.8836 9.376 61.0836 9.752 61.3476 10.08C61.6196 10.408 61.9556 10.668 62.3556 10.86C62.7556 11.044 63.2236 11.136 63.7596 11.136C64.5116 11.136 65.1436 10.948 65.6556 10.572C66.1676 10.196 66.4796 9.652 66.5916 8.94H67.7916C67.7116 9.54 67.5076 10.088 67.1796 10.584C66.8596 11.08 66.4116 11.476 65.8356 11.772C65.2676 12.068 64.5756 12.216 63.7596 12.216ZM73.2027 12V10.08H73.0107V7.86C73.0107 7.42 72.8947 7.088 72.6627 6.864C72.4387 6.64 72.1067 6.528 71.6667 6.528C71.4187 6.528 71.1627 6.532 70.8987 6.54C70.6347 6.548 70.3827 6.556 70.1427 6.564C69.9027 6.572 69.6947 6.584 69.5187 6.6V5.592C69.6947 5.576 69.8787 5.564 70.0707 5.556C70.2707 5.54 70.4747 5.532 70.6827 5.532C70.8907 5.524 71.0907 5.52 71.2827 5.52C71.9387 5.52 72.4747 5.6 72.8907 5.76C73.3067 5.912 73.6147 6.164 73.8147 6.516C74.0147 6.868 74.1147 7.344 74.1147 7.944V12H73.2027ZM71.1027 12.168C70.6227 12.168 70.2067 12.088 69.8547 11.928C69.5107 11.76 69.2427 11.52 69.0507 11.208C68.8667 10.896 68.7747 10.52 68.7747 10.08C68.7747 9.624 68.8747 9.244 69.0747 8.94C69.2827 8.636 69.5827 8.408 69.9747 8.256C70.3667 8.096 70.8387 8.016 71.3907 8.016H73.1307V8.88H71.3427C70.8787 8.88 70.5227 8.992 70.2747 9.216C70.0267 9.44 69.9027 9.728 69.9027 10.08C69.9027 10.432 70.0267 10.716 70.2747 10.932C70.5227 11.148 70.8787 11.256 71.3427 11.256C71.6147 11.256 71.8747 11.208 72.1227 11.112C72.3707 11.008 72.5747 10.84 72.7347 10.608C72.9027 10.368 72.9947 10.04 73.0107 9.624L73.3227 10.08C73.2827 10.536 73.1707 10.92 72.9867 11.232C72.8107 11.536 72.5627 11.768 72.2427 11.928C71.9307 12.088 71.5507 12.168 71.1027 12.168ZM76.229 12V5.592H77.141V8.34H76.997C76.997 7.716 77.077 7.188 77.237 6.756C77.405 6.316 77.653 5.98 77.981 5.748C78.309 5.516 78.725 5.4 79.229 5.4H79.277C79.781 5.4 80.197 5.516 80.525 5.748C80.861 5.98 81.109 6.316 81.269 6.756C81.429 7.188 81.509 7.716 81.509 8.34H81.173C81.173 7.716 81.257 7.188 81.425 6.756C81.593 6.316 81.841 5.98 82.169 5.748C82.505 5.516 82.925 5.4 83.429 5.4H83.477C83.981 5.4 84.401 5.516 84.737 5.748C85.073 5.98 85.321 6.316 85.481 6.756C85.649 7.188 85.733 7.716 85.733 8.34V12H84.581V8.088C84.581 7.568 84.453 7.168 84.197 6.888C83.941 6.6 83.585 6.456 83.129 6.456C82.657 6.456 82.277 6.608 81.989 6.912C81.701 7.208 81.557 7.624 81.557 8.16V12H80.405V8.088C80.405 7.568 80.277 7.168 80.021 6.888C79.765 6.6 79.409 6.456 78.953 6.456C78.481 6.456 78.101 6.608 77.813 6.912C77.525 7.208 77.381 7.624 77.381 8.16V12H76.229ZM90.5663 12.216C90.0063 12.216 89.5223 12.12 89.1143 11.928C88.7063 11.736 88.3743 11.484 88.1183 11.172C87.8623 10.852 87.6703 10.496 87.5423 10.104C87.4223 9.712 87.3623 9.312 87.3623 8.904V8.688C87.3623 8.272 87.4223 7.868 87.5423 7.476C87.6703 7.084 87.8623 6.732 88.1183 6.42C88.3743 6.1 88.6983 5.848 89.0903 5.664C89.4903 5.472 89.9583 5.376 90.4943 5.376C91.1903 5.376 91.7623 5.528 92.2103 5.832C92.6663 6.128 93.0023 6.512 93.2183 6.984C93.4423 7.456 93.5543 7.96 93.5543 8.496V9.012H87.8663V8.148H92.7143L92.4503 8.616C92.4503 8.16 92.3783 7.768 92.2343 7.44C92.0903 7.104 91.8743 6.844 91.5863 6.66C91.2983 6.476 90.9343 6.384 90.4943 6.384C90.0383 6.384 89.6583 6.488 89.3543 6.696C89.0583 6.904 88.8343 7.188 88.6823 7.548C88.5383 7.908 88.4663 8.324 88.4663 8.796C88.4663 9.252 88.5383 9.664 88.6823 10.032C88.8343 10.392 89.0663 10.68 89.3783 10.896C89.6903 11.104 90.0863 11.208 90.5663 11.208C91.0703 11.208 91.4783 11.096 91.7903 10.872C92.1103 10.648 92.3023 10.388 92.3663 10.092H93.4463C93.3583 10.532 93.1823 10.912 92.9183 11.232C92.6543 11.552 92.3223 11.796 91.9223 11.964C91.5223 12.132 91.0703 12.216 90.5663 12.216ZM95.1899 12V5.592H96.1019V8.232H96.0539C96.0539 7.296 96.2579 6.612 96.6659 6.18C97.0819 5.74 97.7019 5.52 98.5259 5.52H98.7419V6.552H98.3339C97.6939 6.552 97.2019 6.724 96.8579 7.068C96.5139 7.404 96.3419 7.892 96.3419 8.532V12H95.1899ZM103.964 12V10.08H103.772V7.86C103.772 7.42 103.656 7.088 103.424 6.864C103.2 6.64 102.868 6.528 102.428 6.528C102.18 6.528 101.924 6.532 101.66 6.54C101.396 6.548 101.144 6.556 100.904 6.564C100.664 6.572 100.456 6.584 100.28 6.6V5.592C100.456 5.576 100.64 5.564 100.832 5.556C101.032 5.54 101.236 5.532 101.444 5.532C101.652 5.524 101.852 5.52 102.044 5.52C102.7 5.52 103.236 5.6 103.652 5.76C104.068 5.912 104.376 6.164 104.576 6.516C104.776 6.868 104.876 7.344 104.876 7.944V12H103.964ZM101.864 12.168C101.384 12.168 100.968 12.088 100.616 11.928C100.272 11.76 100.004 11.52 99.8124 11.208C99.6284 10.896 99.5364 10.52 99.5364 10.08C99.5364 9.624 99.6364 9.244 99.8364 8.94C100.044 8.636 100.344 8.408 100.736 8.256C101.128 8.096 101.6 8.016 102.152 8.016H103.892V8.88H102.104C101.64 8.88 101.284 8.992 101.036 9.216C100.788 9.44 100.664 9.728 100.664 10.08C100.664 10.432 100.788 10.716 101.036 10.932C101.284 11.148 101.64 11.256 102.104 11.256C102.376 11.256 102.636 11.208 102.884 11.112C103.132 11.008 103.336 10.84 103.496 10.608C103.664 10.368 103.756 10.04 103.772 9.624L104.084 10.08C104.044 10.536 103.932 10.92 103.748 11.232C103.572 11.536 103.324 11.768 103.004 11.928C102.692 12.088 102.312 12.168 101.864 12.168Z" fill="#E8E8E8"/>
<defs>
<clipPath id="clip0_223_5271">
<rect width="16" height="16" fill="white"/>
</clipPath>
</defs>
</svg>
