<svg width="106" height="14" viewBox="0 0 106 14" fill="none" xmlns="http://www.w3.org/2000/svg">
<path d="M0.912 11V9.56C0.912 9.208 0.96 8.908 1.056 8.66C1.16 8.412 1.336 8.188 1.584 7.988C1.832 7.78 2.168 7.58 2.592 7.388L4.236 6.632C4.636 6.448 4.952 6.212 5.184 5.924C5.416 5.628 5.532 5.248 5.532 4.784C5.532 4.224 5.376 3.788 5.064 3.476C4.752 3.164 4.312 3.008 3.744 3.008C3.184 3.008 2.744 3.164 2.424 3.476C2.104 3.788 1.944 4.224 1.944 4.784H0.816C0.816 4.28 0.92 3.816 1.128 3.392C1.344 2.968 1.668 2.632 2.1 2.384C2.532 2.128 3.08 2 3.744 2C4.408 2 4.952 2.128 5.376 2.384C5.808 2.632 6.128 2.96 6.336 3.368C6.552 3.776 6.66 4.22 6.66 4.7V4.868C6.66 5.5 6.476 6.032 6.108 6.464C5.748 6.896 5.26 7.252 4.644 7.532L3 8.288C2.632 8.456 2.384 8.624 2.256 8.792C2.128 8.96 2.064 9.184 2.064 9.464V10.568L1.752 10.016H6.768V11H0.912ZM9.62597 11.048V9.968H11.81C12.338 9.968 12.806 9.884 13.214 9.716C13.63 9.54 13.982 9.3 14.27 8.996C14.566 8.692 14.79 8.336 14.942 7.928C15.094 7.52 15.17 7.08 15.17 6.608C15.17 6.112 15.094 5.664 14.942 5.264C14.79 4.856 14.566 4.504 14.27 4.208C13.982 3.904 13.63 3.672 13.214 3.512C12.806 3.352 12.338 3.272 11.81 3.272H9.62597V2.192H11.69C12.482 2.192 13.17 2.316 13.754 2.564C14.338 2.804 14.822 3.132 15.206 3.548C15.598 3.956 15.89 4.416 16.082 4.928C16.274 5.432 16.37 5.948 16.37 6.476V6.74C16.37 7.252 16.274 7.764 16.082 8.276C15.89 8.788 15.598 9.252 15.206 9.668C14.822 10.084 14.338 10.42 13.754 10.676C13.17 10.924 12.482 11.048 11.69 11.048H9.62597ZM8.68997 11.048V2.192H9.86597V11.048H8.68997ZM21.8486 7.952V6.92H23.8046C24.2206 6.92 24.5646 6.84 24.8366 6.68C25.1086 6.512 25.3126 6.288 25.4486 6.008C25.5926 5.728 25.6646 5.416 25.6646 5.072C25.6646 4.72 25.5926 4.404 25.4486 4.124C25.3126 3.844 25.1086 3.624 24.8366 3.464C24.5646 3.304 24.2206 3.224 23.8046 3.224H21.8486V2.192H23.5886C24.3086 2.192 24.9086 2.308 25.3886 2.54C25.8766 2.764 26.2446 3.084 26.4926 3.5C26.7406 3.916 26.8646 4.408 26.8646 4.976V5.168C26.8646 5.728 26.7406 6.22 26.4926 6.644C26.2446 7.06 25.8766 7.384 25.3886 7.616C24.9086 7.84 24.3086 7.952 23.5886 7.952H21.8486ZM20.9126 11V2.192H22.0886V11H20.9126ZM31.2552 11.216C30.6952 11.216 30.2032 11.12 29.7792 10.928C29.3552 10.736 28.9952 10.484 28.6992 10.172C28.4112 9.852 28.1912 9.496 28.0392 9.104C27.8952 8.712 27.8232 8.312 27.8232 7.904V7.688C27.8232 7.28 27.8992 6.88 28.0512 6.488C28.2032 6.088 28.4272 5.732 28.7232 5.42C29.0192 5.1 29.3792 4.848 29.8032 4.664C30.2272 4.472 30.7112 4.376 31.2552 4.376C31.7992 4.376 32.2832 4.472 32.7072 4.664C33.1312 4.848 33.4912 5.1 33.7872 5.42C34.0832 5.732 34.3072 6.088 34.4592 6.488C34.6112 6.88 34.6872 7.28 34.6872 7.688V7.904C34.6872 8.312 34.6112 8.712 34.4592 9.104C34.3152 9.496 34.0952 9.852 33.7992 10.172C33.5112 10.484 33.1552 10.736 32.7312 10.928C32.3072 11.12 31.8152 11.216 31.2552 11.216ZM31.2552 10.184C31.7352 10.184 32.1432 10.08 32.4792 9.872C32.8232 9.656 33.0832 9.368 33.2592 9.008C33.4432 8.648 33.5352 8.244 33.5352 7.796C33.5352 7.34 33.4432 6.932 33.2592 6.572C33.0752 6.212 32.8112 5.928 32.4672 5.72C32.1312 5.512 31.7272 5.408 31.2552 5.408C30.7912 5.408 30.3872 5.512 30.0432 5.72C29.6992 5.928 29.4352 6.212 29.2512 6.572C29.0672 6.932 28.9752 7.34 28.9752 7.796C28.9752 8.244 29.0632 8.648 29.2392 9.008C29.4232 9.368 29.6832 9.656 30.0192 9.872C30.3632 10.08 30.7752 10.184 31.2552 10.184ZM38.5126 11.192C37.6726 11.192 37.0206 11.012 36.5566 10.652C36.1006 10.292 35.8646 9.8 35.8486 9.176H36.9286C36.9446 9.424 37.0686 9.66 37.3006 9.884C37.5406 10.1 37.9446 10.208 38.5126 10.208C39.0246 10.208 39.4166 10.108 39.6886 9.908C39.9606 9.7 40.0966 9.448 40.0966 9.152C40.0966 8.888 39.9966 8.684 39.7966 8.54C39.5966 8.388 39.2726 8.288 38.8246 8.24L38.1286 8.168C37.5206 8.104 37.0246 7.924 36.6406 7.628C36.2566 7.324 36.0646 6.9 36.0646 6.356C36.0646 5.948 36.1686 5.6 36.3766 5.312C36.5846 5.016 36.8726 4.792 37.2406 4.64C37.6086 4.48 38.0326 4.4 38.5126 4.4C39.2326 4.4 39.8166 4.56 40.2646 4.88C40.7126 5.2 40.9446 5.676 40.9606 6.308H39.8806C39.8726 6.052 39.7526 5.836 39.5206 5.66C39.2966 5.476 38.9606 5.384 38.5126 5.384C38.0646 5.384 37.7246 5.476 37.4926 5.66C37.2606 5.844 37.1446 6.076 37.1446 6.356C37.1446 6.596 37.2246 6.788 37.3846 6.932C37.5526 7.076 37.8246 7.168 38.2006 7.208L38.8966 7.28C39.5846 7.352 40.1366 7.544 40.5526 7.856C40.9686 8.16 41.1766 8.592 41.1766 9.152C41.1766 9.552 41.0606 9.908 40.8286 10.22C40.6046 10.524 40.2926 10.764 39.8926 10.94C39.4926 11.108 39.0326 11.192 38.5126 11.192ZM45.5702 11.216C45.0102 11.216 44.5262 11.12 44.1182 10.928C43.7102 10.736 43.3782 10.484 43.1222 10.172C42.8662 9.852 42.6742 9.496 42.5462 9.104C42.4262 8.712 42.3662 8.312 42.3662 7.904V7.688C42.3662 7.272 42.4262 6.868 42.5462 6.476C42.6742 6.084 42.8662 5.732 43.1222 5.42C43.3782 5.1 43.7022 4.848 44.0942 4.664C44.4942 4.472 44.9622 4.376 45.4982 4.376C46.1942 4.376 46.7662 4.528 47.2142 4.832C47.6702 5.128 48.0062 5.512 48.2222 5.984C48.4462 6.456 48.5582 6.96 48.5582 7.496V8.012H42.8702V7.148H47.7182L47.4542 7.616C47.4542 7.16 47.3822 6.768 47.2382 6.44C47.0942 6.104 46.8782 5.844 46.5902 5.66C46.3022 5.476 45.9382 5.384 45.4982 5.384C45.0422 5.384 44.6622 5.488 44.3582 5.696C44.0622 5.904 43.8382 6.188 43.6862 6.548C43.5422 6.908 43.4702 7.324 43.4702 7.796C43.4702 8.252 43.5422 8.664 43.6862 9.032C43.8382 9.392 44.0702 9.68 44.3822 9.896C44.6942 10.104 45.0902 10.208 45.5702 10.208C46.0742 10.208 46.4822 10.096 46.7942 9.872C47.1142 9.648 47.3062 9.388 47.3702 9.092H48.4502C48.3622 9.532 48.1862 9.912 47.9222 10.232C47.6582 10.552 47.3262 10.796 46.9262 10.964C46.5262 11.132 46.0742 11.216 45.5702 11.216ZM53.0923 11V2.24H54.2683V11H53.0923ZM54.0283 11V9.944H58.2763V11H54.0283ZM54.0283 7.076V6.02H57.9043V7.076H54.0283ZM54.0283 3.296V2.24H58.1563V3.296H54.0283ZM62.1024 11.192C61.2624 11.192 60.6104 11.012 60.1464 10.652C59.6904 10.292 59.4544 9.8 59.4384 9.176H60.5184C60.5344 9.424 60.6584 9.66 60.8904 9.884C61.1304 10.1 61.5344 10.208 62.1024 10.208C62.6144 10.208 63.0064 10.108 63.2784 9.908C63.5504 9.7 63.6864 9.448 63.6864 9.152C63.6864 8.888 63.5864 8.684 63.3864 8.54C63.1864 8.388 62.8624 8.288 62.4144 8.24L61.7184 8.168C61.1104 8.104 60.6144 7.924 60.2304 7.628C59.8464 7.324 59.6544 6.9 59.6544 6.356C59.6544 5.948 59.7584 5.6 59.9664 5.312C60.1744 5.016 60.4624 4.792 60.8304 4.64C61.1984 4.48 61.6224 4.4 62.1024 4.4C62.8224 4.4 63.4064 4.56 63.8544 4.88C64.3024 5.2 64.5344 5.676 64.5504 6.308H63.4704C63.4624 6.052 63.3424 5.836 63.1104 5.66C62.8864 5.476 62.5504 5.384 62.1024 5.384C61.6544 5.384 61.3144 5.476 61.0824 5.66C60.8504 5.844 60.7344 6.076 60.7344 6.356C60.7344 6.596 60.8144 6.788 60.9744 6.932C61.1424 7.076 61.4144 7.168 61.7904 7.208L62.4864 7.28C63.1744 7.352 63.7264 7.544 64.1424 7.856C64.5584 8.16 64.7664 8.592 64.7664 9.152C64.7664 9.552 64.6504 9.908 64.4184 10.22C64.1944 10.524 63.8824 10.764 63.4824 10.94C63.0824 11.108 62.6224 11.192 62.1024 11.192ZM68.932 11.072C68.452 11.072 68.036 11.004 67.684 10.868C67.34 10.732 67.072 10.5 66.88 10.172C66.696 9.836 66.604 9.384 66.604 8.816V2.648H67.708V8.96C67.708 9.304 67.8 9.572 67.984 9.764C68.176 9.948 68.444 10.04 68.788 10.04H69.916V11.072H68.932ZM65.5 5.456V4.592H69.916V5.456H65.5ZM71.8574 11V4.592H73.0094V11H71.8574ZM70.8734 5.504V4.592H73.0094V5.504H70.8734ZM72.1814 3.56C71.9254 3.56 71.7334 3.492 71.6054 3.356C71.4854 3.22 71.4254 3.048 71.4254 2.84C71.4254 2.632 71.4854 2.46 71.6054 2.324C71.7334 2.188 71.9254 2.12 72.1814 2.12C72.4374 2.12 72.6254 2.188 72.7454 2.324C72.8734 2.46 72.9374 2.632 72.9374 2.84C72.9374 3.048 72.8734 3.22 72.7454 3.356C72.6254 3.492 72.4374 3.56 72.1814 3.56ZM75.2368 11V4.592H76.1488V7.34H76.0048C76.0048 6.716 76.0848 6.188 76.2448 5.756C76.4128 5.316 76.6608 4.98 76.9888 4.748C77.3168 4.516 77.7328 4.4 78.2368 4.4H78.2848C78.7888 4.4 79.2048 4.516 79.5328 4.748C79.8688 4.98 80.1168 5.316 80.2768 5.756C80.4368 6.188 80.5168 6.716 80.5168 7.34H80.1808C80.1808 6.716 80.2648 6.188 80.4328 5.756C80.6008 5.316 80.8488 4.98 81.1768 4.748C81.5128 4.516 81.9328 4.4 82.4368 4.4H82.4848C82.9888 4.4 83.4088 4.516 83.7448 4.748C84.0808 4.98 84.3288 5.316 84.4888 5.756C84.6568 6.188 84.7408 6.716 84.7408 7.34V11H83.5888V7.088C83.5888 6.568 83.4608 6.168 83.2048 5.888C82.9488 5.6 82.5928 5.456 82.1368 5.456C81.6648 5.456 81.2848 5.608 80.9968 5.912C80.7088 6.208 80.5648 6.624 80.5648 7.16V11H79.4128V7.088C79.4128 6.568 79.2848 6.168 79.0288 5.888C78.7728 5.6 78.4168 5.456 77.9608 5.456C77.4888 5.456 77.1088 5.608 76.8208 5.912C76.5328 6.208 76.3888 6.624 76.3888 7.16V11H75.2368ZM90.7261 11V9.08H90.5341V6.86C90.5341 6.42 90.4181 6.088 90.1861 5.864C89.9621 5.64 89.6301 5.528 89.1901 5.528C88.9421 5.528 88.6861 5.532 88.4221 5.54C88.1581 5.548 87.9061 5.556 87.6661 5.564C87.4261 5.572 87.2181 5.584 87.0421 5.6V4.592C87.2181 4.576 87.4021 4.564 87.5941 4.556C87.7941 4.54 87.9981 4.532 88.2061 4.532C88.4141 4.524 88.6141 4.52 88.8061 4.52C89.4621 4.52 89.9981 4.6 90.4141 4.76C90.8301 4.912 91.1381 5.164 91.3381 5.516C91.5381 5.868 91.6381 6.344 91.6381 6.944V11H90.7261ZM88.6261 11.168C88.1461 11.168 87.7301 11.088 87.3781 10.928C87.0341 10.76 86.7661 10.52 86.5741 10.208C86.3901 9.896 86.2981 9.52 86.2981 9.08C86.2981 8.624 86.3981 8.244 86.5981 7.94C86.8061 7.636 87.1061 7.408 87.4981 7.256C87.8901 7.096 88.3621 7.016 88.9141 7.016H90.6541V7.88H88.8661C88.4021 7.88 88.0461 7.992 87.7981 8.216C87.5501 8.44 87.4261 8.728 87.4261 9.08C87.4261 9.432 87.5501 9.716 87.7981 9.932C88.0461 10.148 88.4021 10.256 88.8661 10.256C89.1381 10.256 89.3981 10.208 89.6461 10.112C89.8941 10.008 90.0981 9.84 90.2581 9.608C90.4261 9.368 90.5181 9.04 90.5341 8.624L90.8461 9.08C90.8061 9.536 90.6941 9.92 90.5101 10.232C90.3341 10.536 90.0861 10.768 89.7661 10.928C89.4541 11.088 89.0741 11.168 88.6261 11.168ZM96.2484 11.072C95.7684 11.072 95.3524 11.004 95.0004 10.868C94.6564 10.732 94.3884 10.5 94.1964 10.172C94.0124 9.836 93.9204 9.384 93.9204 8.816V2.648H95.0244V8.96C95.0244 9.304 95.1164 9.572 95.3004 9.764C95.4924 9.948 95.7604 10.04 96.1044 10.04H97.2324V11.072H96.2484ZM92.8164 5.456V4.592H97.2324V5.456H92.8164ZM101.539 11.216C100.979 11.216 100.495 11.12 100.087 10.928C99.6789 10.736 99.3469 10.484 99.0909 10.172C98.8349 9.852 98.6429 9.496 98.5149 9.104C98.3949 8.712 98.3349 8.312 98.3349 7.904V7.688C98.3349 7.272 98.3949 6.868 98.5149 6.476C98.6429 6.084 98.8349 5.732 99.0909 5.42C99.3469 5.1 99.6709 4.848 100.063 4.664C100.463 4.472 100.931 4.376 101.467 4.376C102.163 4.376 102.735 4.528 103.183 4.832C103.639 5.128 103.975 5.512 104.191 5.984C104.415 6.456 104.527 6.96 104.527 7.496V8.012H98.8389V7.148H103.687L103.423 7.616C103.423 7.16 103.351 6.768 103.207 6.44C103.063 6.104 102.847 5.844 102.559 5.66C102.271 5.476 101.907 5.384 101.467 5.384C101.011 5.384 100.631 5.488 100.327 5.696C100.031 5.904 99.8069 6.188 99.6549 6.548C99.5109 6.908 99.4389 7.324 99.4389 7.796C99.4389 8.252 99.5109 8.664 99.6549 9.032C99.8069 9.392 100.039 9.68 100.351 9.896C100.663 10.104 101.059 10.208 101.539 10.208C102.043 10.208 102.451 10.096 102.763 9.872C103.083 9.648 103.275 9.388 103.339 9.092H104.419C104.331 9.532 104.155 9.912 103.891 10.232C103.627 10.552 103.295 10.796 102.895 10.964C102.495 11.132 102.043 11.216 101.539 11.216Z" fill="#E8E8E8"/>
</svg>
