<svg width="75" height="14" viewBox="0 0 75 14" fill="none" xmlns="http://www.w3.org/2000/svg">
<path d="M0.912 11V9.56C0.912 9.208 0.96 8.908 1.056 8.66C1.16 8.412 1.336 8.188 1.584 7.988C1.832 7.78 2.168 7.58 2.592 7.388L4.236 6.632C4.636 6.448 4.952 6.212 5.184 5.924C5.416 5.628 5.532 5.248 5.532 4.784C5.532 4.224 5.376 3.788 5.064 3.476C4.752 3.164 4.312 3.008 3.744 3.008C3.184 3.008 2.744 3.164 2.424 3.476C2.104 3.788 1.944 4.224 1.944 4.784H0.816C0.816 4.28 0.92 3.816 1.128 3.392C1.344 2.968 1.668 2.632 2.1 2.384C2.532 2.128 3.08 2 3.744 2C4.408 2 4.952 2.128 5.376 2.384C5.808 2.632 6.128 2.96 6.336 3.368C6.552 3.776 6.66 4.22 6.66 4.7V4.868C6.66 5.5 6.476 6.032 6.108 6.464C5.748 6.896 5.26 7.252 4.644 7.532L3 8.288C2.632 8.456 2.384 8.624 2.256 8.792C2.128 8.96 2.064 9.184 2.064 9.464V10.568L1.752 10.016H6.768V11H0.912ZM9.62597 11.048V9.968H11.81C12.338 9.968 12.806 9.884 13.214 9.716C13.63 9.54 13.982 9.3 14.27 8.996C14.566 8.692 14.79 8.336 14.942 7.928C15.094 7.52 15.17 7.08 15.17 6.608C15.17 6.112 15.094 5.664 14.942 5.264C14.79 4.856 14.566 4.504 14.27 4.208C13.982 3.904 13.63 3.672 13.214 3.512C12.806 3.352 12.338 3.272 11.81 3.272H9.62597V2.192H11.69C12.482 2.192 13.17 2.316 13.754 2.564C14.338 2.804 14.822 3.132 15.206 3.548C15.598 3.956 15.89 4.416 16.082 4.928C16.274 5.432 16.37 5.948 16.37 6.476V6.74C16.37 7.252 16.274 7.764 16.082 8.276C15.89 8.788 15.598 9.252 15.206 9.668C14.822 10.084 14.338 10.42 13.754 10.676C13.17 10.924 12.482 11.048 11.69 11.048H9.62597ZM8.68997 11.048V2.192H9.86597V11.048H8.68997ZM20.9126 11V2.24H22.8326L27.2846 9.944H27.6686L27.4286 10.16V2.24H28.5566V11H26.6126L22.1606 3.296H21.7766L22.0166 3.08V11H20.9126ZM34.8042 11V9.08H34.6122V6.86C34.6122 6.42 34.4962 6.088 34.2642 5.864C34.0402 5.64 33.7082 5.528 33.2682 5.528C33.0202 5.528 32.7642 5.532 32.5002 5.54C32.2362 5.548 31.9842 5.556 31.7442 5.564C31.5042 5.572 31.2962 5.584 31.1202 5.6V4.592C31.2962 4.576 31.4802 4.564 31.6722 4.556C31.8722 4.54 32.0762 4.532 32.2842 4.532C32.4922 4.524 32.6922 4.52 32.8842 4.52C33.5402 4.52 34.0762 4.6 34.4922 4.76C34.9082 4.912 35.2162 5.164 35.4162 5.516C35.6162 5.868 35.7162 6.344 35.7162 6.944V11H34.8042ZM32.7042 11.168C32.2242 11.168 31.8082 11.088 31.4562 10.928C31.1122 10.76 30.8442 10.52 30.6522 10.208C30.4682 9.896 30.3762 9.52 30.3762 9.08C30.3762 8.624 30.4762 8.244 30.6762 7.94C30.8842 7.636 31.1842 7.408 31.5762 7.256C31.9682 7.096 32.4402 7.016 32.9922 7.016H34.7322V7.88H32.9442C32.4802 7.88 32.1242 7.992 31.8762 8.216C31.6282 8.44 31.5042 8.728 31.5042 9.08C31.5042 9.432 31.6282 9.716 31.8762 9.932C32.1242 10.148 32.4802 10.256 32.9442 10.256C33.2162 10.256 33.4762 10.208 33.7242 10.112C33.9722 10.008 34.1762 9.84 34.3362 9.608C34.5042 9.368 34.5962 9.04 34.6122 8.624L34.9242 9.08C34.8842 9.536 34.7722 9.92 34.5882 10.232C34.4122 10.536 34.1642 10.768 33.8442 10.928C33.5322 11.088 33.1522 11.168 32.7042 11.168ZM39.1751 11L36.9911 4.592H38.1911L40.3271 11H39.1751ZM39.4631 11V10.088H40.8551V11H39.4631ZM40.0151 11L41.8751 4.592H43.0031L41.1071 11H40.0151ZM51.3207 11.216C50.6407 11.216 50.0247 11.104 49.4727 10.88C48.9207 10.656 48.4447 10.34 48.0447 9.932C47.6527 9.524 47.3487 9.044 47.1327 8.492C46.9167 7.932 46.8087 7.324 46.8087 6.668V6.404C46.8087 5.844 46.9047 5.304 47.0967 4.784C47.2967 4.256 47.5807 3.784 47.9487 3.368C48.3247 2.944 48.7807 2.612 49.3167 2.372C49.8527 2.124 50.4567 2 51.1287 2C51.8567 2 52.5047 2.14 53.0727 2.42C53.6407 2.692 54.0967 3.076 54.4407 3.572C54.7847 4.06 54.9847 4.628 55.0407 5.276H53.8407C53.7847 4.788 53.6247 4.384 53.3607 4.064C53.0967 3.736 52.7687 3.492 52.3767 3.332C51.9927 3.164 51.5767 3.08 51.1287 3.08C50.6727 3.08 50.2527 3.164 49.8687 3.332C49.4847 3.492 49.1527 3.724 48.8727 4.028C48.6007 4.332 48.3887 4.696 48.2367 5.12C48.0847 5.544 48.0087 6.02 48.0087 6.548C48.0087 7.148 48.0887 7.676 48.2487 8.132C48.4167 8.58 48.6487 8.956 48.9447 9.26C49.2407 9.556 49.5887 9.78 49.9887 9.932C50.3967 10.084 50.8407 10.16 51.3207 10.16C52.0007 10.16 52.5967 10.024 53.1087 9.752C53.6287 9.472 54.0207 9.112 54.2847 8.672L53.8527 10.1V7.496H54.9567V9.584C54.5647 10.096 54.0607 10.496 53.4447 10.784C52.8287 11.072 52.1207 11.216 51.3207 11.216ZM51.0087 7.736V6.752H55.7007V7.736H51.0087ZM60.1654 11.216C59.6054 11.216 59.1134 11.12 58.6894 10.928C58.2654 10.736 57.9054 10.484 57.6094 10.172C57.3214 9.852 57.1014 9.496 56.9494 9.104C56.8054 8.712 56.7334 8.312 56.7334 7.904V7.688C56.7334 7.28 56.8094 6.88 56.9614 6.488C57.1134 6.088 57.3374 5.732 57.6334 5.42C57.9294 5.1 58.2894 4.848 58.7134 4.664C59.1374 4.472 59.6214 4.376 60.1654 4.376C60.7094 4.376 61.1934 4.472 61.6174 4.664C62.0414 4.848 62.4014 5.1 62.6974 5.42C62.9934 5.732 63.2174 6.088 63.3694 6.488C63.5214 6.88 63.5974 7.28 63.5974 7.688V7.904C63.5974 8.312 63.5214 8.712 63.3694 9.104C63.2254 9.496 63.0054 9.852 62.7094 10.172C62.4214 10.484 62.0654 10.736 61.6414 10.928C61.2174 11.12 60.7254 11.216 60.1654 11.216ZM60.1654 10.184C60.6454 10.184 61.0534 10.08 61.3894 9.872C61.7334 9.656 61.9934 9.368 62.1694 9.008C62.3534 8.648 62.4454 8.244 62.4454 7.796C62.4454 7.34 62.3534 6.932 62.1694 6.572C61.9854 6.212 61.7214 5.928 61.3774 5.72C61.0414 5.512 60.6374 5.408 60.1654 5.408C59.7014 5.408 59.2974 5.512 58.9534 5.72C58.6094 5.928 58.3454 6.212 58.1614 6.572C57.9774 6.932 57.8854 7.34 57.8854 7.796C57.8854 8.244 57.9734 8.648 58.1494 9.008C58.3334 9.368 58.5934 9.656 58.9294 9.872C59.2734 10.08 59.6854 10.184 60.1654 10.184ZM69.1988 11V9.08H69.0068V6.86C69.0068 6.42 68.8908 6.088 68.6588 5.864C68.4348 5.64 68.1028 5.528 67.6628 5.528C67.4148 5.528 67.1588 5.532 66.8948 5.54C66.6308 5.548 66.3788 5.556 66.1388 5.564C65.8988 5.572 65.6908 5.584 65.5148 5.6V4.592C65.6908 4.576 65.8748 4.564 66.0668 4.556C66.2668 4.54 66.4708 4.532 66.6788 4.532C66.8868 4.524 67.0868 4.52 67.2788 4.52C67.9348 4.52 68.4708 4.6 68.8868 4.76C69.3028 4.912 69.6108 5.164 69.8108 5.516C70.0108 5.868 70.1108 6.344 70.1108 6.944V11H69.1988ZM67.0988 11.168C66.6188 11.168 66.2028 11.088 65.8508 10.928C65.5068 10.76 65.2388 10.52 65.0468 10.208C64.8628 9.896 64.7708 9.52 64.7708 9.08C64.7708 8.624 64.8708 8.244 65.0708 7.94C65.2788 7.636 65.5788 7.408 65.9708 7.256C66.3628 7.096 66.8348 7.016 67.3867 7.016H69.1268V7.88H67.3388C66.8748 7.88 66.5188 7.992 66.2708 8.216C66.0228 8.44 65.8988 8.728 65.8988 9.08C65.8988 9.432 66.0228 9.716 66.2708 9.932C66.5188 10.148 66.8748 10.256 67.3388 10.256C67.6108 10.256 67.8708 10.208 68.1188 10.112C68.3668 10.008 68.5708 9.84 68.7308 9.608C68.8988 9.368 68.9908 9.04 69.0068 8.624L69.3188 9.08C69.2788 9.536 69.1668 9.92 68.9828 10.232C68.8068 10.536 68.5588 10.768 68.2388 10.928C67.9268 11.088 67.5468 11.168 67.0988 11.168ZM72.2971 11V2.24H73.4491V11H72.2971ZM71.4091 3.152V2.24H73.4491V3.152H71.4091Z" fill="#E8E8E8"/>
</svg>
