<svg width="69" height="16" viewBox="0 0 69 16" fill="none" xmlns="http://www.w3.org/2000/svg">
<g clip-path="url(#clip0_223_5258)">
<path d="M3.3335 6.00001L1.3335 8.00001M1.3335 8.00001L3.3335 10M1.3335 8.00001H14.6668M6.00016 3.33334L8.00016 1.33334M8.00016 1.33334L10.0002 3.33334M8.00016 1.33334V14.6667M10.0002 12.6667L8.00016 14.6667M8.00016 14.6667L6.00016 12.6667M12.6668 6.00001L14.6668 8.00001M14.6668 8.00001L12.6668 10" stroke="#00C0FF" stroke-linecap="round" stroke-linejoin="round"/>
</g>
<path d="M21.296 12V3.24H22.472V12H21.296ZM24.8774 12V5.592H25.7894V8.34H25.6454C25.6454 7.708 25.7294 7.176 25.8974 6.744C26.0734 6.304 26.3374 5.972 26.6894 5.748C27.0414 5.516 27.4854 5.4 28.0214 5.4H28.0694C28.8774 5.4 29.4734 5.652 29.8574 6.156C30.2494 6.66 30.4454 7.388 30.4454 8.34V12H29.2934V8.1C29.2934 7.604 29.1534 7.208 28.8734 6.912C28.5934 6.608 28.2094 6.456 27.7214 6.456C27.2174 6.456 26.8094 6.612 26.4974 6.924C26.1854 7.236 26.0294 7.652 26.0294 8.172V12H24.8774ZM35.0492 12.072C34.5692 12.072 34.1532 12.004 33.8012 11.868C33.4572 11.732 33.1892 11.5 32.9972 11.172C32.8132 10.836 32.7212 10.384 32.7212 9.816V3.648H33.8252V9.96C33.8252 10.304 33.9172 10.572 34.1012 10.764C34.2932 10.948 34.5612 11.04 34.9052 11.04H36.0332V12.072H35.0492ZM31.6172 6.456V5.592H36.0332V6.456H31.6172ZM40.3397 12.216C39.7797 12.216 39.2957 12.12 38.8877 11.928C38.4797 11.736 38.1477 11.484 37.8917 11.172C37.6357 10.852 37.4437 10.496 37.3157 10.104C37.1957 9.712 37.1357 9.312 37.1357 8.904V8.688C37.1357 8.272 37.1957 7.868 37.3157 7.476C37.4437 7.084 37.6357 6.732 37.8917 6.42C38.1477 6.1 38.4717 5.848 38.8637 5.664C39.2637 5.472 39.7317 5.376 40.2677 5.376C40.9637 5.376 41.5357 5.528 41.9837 5.832C42.4397 6.128 42.7757 6.512 42.9917 6.984C43.2157 7.456 43.3277 7.96 43.3277 8.496V9.012H37.6397V8.148H42.4877L42.2237 8.616C42.2237 8.16 42.1517 7.768 42.0077 7.44C41.8637 7.104 41.6477 6.844 41.3597 6.66C41.0717 6.476 40.7077 6.384 40.2677 6.384C39.8117 6.384 39.4317 6.488 39.1277 6.696C38.8317 6.904 38.6077 7.188 38.4557 7.548C38.3117 7.908 38.2397 8.324 38.2397 8.796C38.2397 9.252 38.3117 9.664 38.4557 10.032C38.6077 10.392 38.8397 10.68 39.1517 10.896C39.4637 11.104 39.8597 11.208 40.3397 11.208C40.8437 11.208 41.2517 11.096 41.5637 10.872C41.8837 10.648 42.0757 10.388 42.1397 10.092H43.2197C43.1317 10.532 42.9557 10.912 42.6917 11.232C42.4277 11.552 42.0957 11.796 41.6957 11.964C41.2957 12.132 40.8437 12.216 40.3397 12.216ZM44.9634 12V5.592H45.8754V8.232H45.8274C45.8274 7.296 46.0314 6.612 46.4394 6.18C46.8554 5.74 47.4754 5.52 48.2994 5.52H48.5154V6.552H48.1074C47.4674 6.552 46.9754 6.724 46.6314 7.068C46.2874 7.404 46.1154 7.892 46.1154 8.532V12H44.9634ZM53.7378 12V10.08H53.5458V7.86C53.5458 7.42 53.4298 7.088 53.1978 6.864C52.9738 6.64 52.6418 6.528 52.2018 6.528C51.9538 6.528 51.6978 6.532 51.4338 6.54C51.1698 6.548 50.9178 6.556 50.6778 6.564C50.4378 6.572 50.2298 6.584 50.0538 6.6V5.592C50.2298 5.576 50.4138 5.564 50.6058 5.556C50.8058 5.54 51.0098 5.532 51.2178 5.532C51.4258 5.524 51.6258 5.52 51.8178 5.52C52.4738 5.52 53.0098 5.6 53.4258 5.76C53.8418 5.912 54.1498 6.164 54.3498 6.516C54.5498 6.868 54.6498 7.344 54.6498 7.944V12H53.7378ZM51.6378 12.168C51.1578 12.168 50.7418 12.088 50.3898 11.928C50.0458 11.76 49.7778 11.52 49.5858 11.208C49.4018 10.896 49.3098 10.52 49.3098 10.08C49.3098 9.624 49.4098 9.244 49.6098 8.94C49.8178 8.636 50.1178 8.408 50.5098 8.256C50.9018 8.096 51.3738 8.016 51.9258 8.016H53.6658V8.88H51.8778C51.4138 8.88 51.0578 8.992 50.8098 9.216C50.5618 9.44 50.4378 9.728 50.4378 10.08C50.4378 10.432 50.5618 10.716 50.8098 10.932C51.0578 11.148 51.4138 11.256 51.8778 11.256C52.1498 11.256 52.4098 11.208 52.6578 11.112C52.9058 11.008 53.1098 10.84 53.2698 10.608C53.4378 10.368 53.5298 10.04 53.5458 9.624L53.8578 10.08C53.8178 10.536 53.7058 10.92 53.5218 11.232C53.3458 11.536 53.0978 11.768 52.7778 11.928C52.4658 12.088 52.0858 12.168 51.6378 12.168ZM59.5122 12.216C58.9602 12.216 58.4802 12.12 58.0722 11.928C57.6722 11.736 57.3402 11.48 57.0762 11.16C56.8122 10.832 56.6122 10.472 56.4762 10.08C56.3482 9.688 56.2842 9.296 56.2842 8.904V8.688C56.2842 8.28 56.3482 7.88 56.4762 7.488C56.6122 7.096 56.8122 6.744 57.0762 6.432C57.3482 6.112 57.6842 5.856 58.0842 5.664C58.4842 5.472 58.9522 5.376 59.4882 5.376C60.0242 5.376 60.5042 5.476 60.9282 5.676C61.3602 5.876 61.7042 6.16 61.9602 6.528C62.2242 6.888 62.3722 7.316 62.4042 7.812H61.3002C61.2442 7.412 61.0602 7.08 60.7482 6.816C60.4362 6.544 60.0162 6.408 59.4882 6.408C59.0322 6.408 58.6522 6.512 58.3482 6.72C58.0442 6.928 57.8162 7.212 57.6642 7.572C57.5122 7.932 57.4362 8.34 57.4362 8.796C57.4362 9.236 57.5122 9.64 57.6642 10.008C57.8162 10.368 58.0442 10.656 58.3482 10.872C58.6602 11.08 59.0482 11.184 59.5122 11.184C59.8722 11.184 60.1842 11.12 60.4482 10.992C60.7122 10.864 60.9242 10.692 61.0842 10.476C61.2442 10.26 61.3402 10.016 61.3722 9.744H62.4762C62.4522 10.248 62.3042 10.684 62.0322 11.052C61.7682 11.42 61.4162 11.708 60.9762 11.916C60.5442 12.116 60.0562 12.216 59.5122 12.216ZM66.5375 12.072C66.0575 12.072 65.6415 12.004 65.2895 11.868C64.9455 11.732 64.6775 11.5 64.4855 11.172C64.3015 10.836 64.2095 10.384 64.2095 9.816V3.648H65.3135V9.96C65.3135 10.304 65.4055 10.572 65.5895 10.764C65.7815 10.948 66.0495 11.04 66.3935 11.04H67.5215V12.072H66.5375ZM63.1055 6.456V5.592H67.5215V6.456H63.1055Z" fill="#00C0FF"/>
<defs>
<clipPath id="clip0_223_5258">
<rect width="16" height="16" fill="white"/>
</clipPath>
</defs>
</svg>
