<svg width="103" height="16" viewBox="0 0 103 16" fill="none" xmlns="http://www.w3.org/2000/svg">
<g clip-path="url(#clip0_223_5262)">
<path d="M3.3335 6.00001L1.3335 8.00001M1.3335 8.00001L3.3335 10M1.3335 8.00001H14.6668M6.00016 3.33334L8.00016 1.33334M8.00016 1.33334L10.0002 3.33334M8.00016 1.33334V14.6667M10.0002 12.6667L8.00016 14.6667M8.00016 14.6667L6.00016 12.6667M12.6668 6.00001L14.6668 8.00001M14.6668 8.00001L12.6668 10" stroke="#F3F3F3" stroke-linecap="round" stroke-linejoin="round"/>
</g>
<path d="M21.272 12V3.24H22.832L25.424 9.084H25.616L28.196 3.24H29.768V12H28.592V4.524L28.676 4.548L26.192 10.188H24.752L22.256 4.548L22.352 4.524V12H21.272ZM35.0951 12.216C34.5351 12.216 34.0431 12.12 33.6191 11.928C33.1951 11.736 32.8351 11.484 32.5391 11.172C32.2511 10.852 32.0311 10.496 31.8791 10.104C31.7351 9.712 31.6631 9.312 31.6631 8.904V8.688C31.6631 8.28 31.7391 7.88 31.8911 7.488C32.0431 7.088 32.2671 6.732 32.5631 6.42C32.8591 6.1 33.2191 5.848 33.6431 5.664C34.0671 5.472 34.5511 5.376 35.0951 5.376C35.6391 5.376 36.1231 5.472 36.5471 5.664C36.9711 5.848 37.3311 6.1 37.6271 6.42C37.9231 6.732 38.1471 7.088 38.2991 7.488C38.4511 7.88 38.5271 8.28 38.5271 8.688V8.904C38.5271 9.312 38.4511 9.712 38.2991 10.104C38.1551 10.496 37.9351 10.852 37.6391 11.172C37.3511 11.484 36.9951 11.736 36.5711 11.928C36.1471 12.12 35.6551 12.216 35.0951 12.216ZM35.0951 11.184C35.5751 11.184 35.9831 11.08 36.3191 10.872C36.6631 10.656 36.9231 10.368 37.0991 10.008C37.2831 9.648 37.3751 9.244 37.3751 8.796C37.3751 8.34 37.2831 7.932 37.0991 7.572C36.9151 7.212 36.6511 6.928 36.3071 6.72C35.9711 6.512 35.5671 6.408 35.0951 6.408C34.6311 6.408 34.2271 6.512 33.8831 6.72C33.5391 6.928 33.2751 7.212 33.0911 7.572C32.9071 7.932 32.8151 8.34 32.8151 8.796C32.8151 9.244 32.9031 9.648 33.0791 10.008C33.2631 10.368 33.5231 10.656 33.8591 10.872C34.2031 11.08 34.6151 11.184 35.0951 11.184ZM41.5033 12L39.3193 5.592H40.5193L42.6553 12H41.5033ZM41.7913 12V11.088H43.1833V12H41.7913ZM42.3433 12L44.2033 5.592H45.3313L43.4353 12H42.3433ZM49.4452 12.216C48.8852 12.216 48.4012 12.12 47.9932 11.928C47.5852 11.736 47.2532 11.484 46.9972 11.172C46.7412 10.852 46.5492 10.496 46.4212 10.104C46.3012 9.712 46.2412 9.312 46.2412 8.904V8.688C46.2412 8.272 46.3012 7.868 46.4212 7.476C46.5492 7.084 46.7412 6.732 46.9972 6.42C47.2532 6.1 47.5772 5.848 47.9692 5.664C48.3692 5.472 48.8372 5.376 49.3732 5.376C50.0692 5.376 50.6412 5.528 51.0892 5.832C51.5452 6.128 51.8812 6.512 52.0972 6.984C52.3212 7.456 52.4332 7.96 52.4332 8.496V9.012H46.7452V8.148H51.5932L51.3292 8.616C51.3292 8.16 51.2572 7.768 51.1132 7.44C50.9692 7.104 50.7532 6.844 50.4652 6.66C50.1772 6.476 49.8132 6.384 49.3732 6.384C48.9172 6.384 48.5372 6.488 48.2332 6.696C47.9372 6.904 47.7132 7.188 47.5612 7.548C47.4172 7.908 47.3452 8.324 47.3452 8.796C47.3452 9.252 47.4172 9.664 47.5612 10.032C47.7132 10.392 47.9452 10.68 48.2572 10.896C48.5692 11.104 48.9652 11.208 49.4452 11.208C49.9492 11.208 50.3572 11.096 50.6692 10.872C50.9892 10.648 51.1812 10.388 51.2452 10.092H52.3252C52.2372 10.532 52.0612 10.912 51.7972 11.232C51.5332 11.552 51.2012 11.796 50.8012 11.964C50.4012 12.132 49.9492 12.216 49.4452 12.216ZM60.7713 12.216C59.9713 12.216 59.2873 12.076 58.7193 11.796C58.1593 11.516 57.7073 11.152 57.3633 10.704C57.0193 10.256 56.7673 9.772 56.6073 9.252C56.4473 8.724 56.3673 8.216 56.3673 7.728V7.464C56.3673 6.936 56.4473 6.408 56.6073 5.88C56.7753 5.352 57.0313 4.872 57.3753 4.44C57.7193 4.008 58.1673 3.66 58.7193 3.396C59.2713 3.132 59.9313 3 60.6993 3C61.4833 3 62.1553 3.136 62.7153 3.408C63.2753 3.68 63.7193 4.06 64.0473 4.548C64.3753 5.036 64.5753 5.612 64.6473 6.276H63.4473C63.3833 5.78 63.2233 5.372 62.9673 5.052C62.7113 4.724 62.3873 4.48 61.9953 4.32C61.6113 4.16 61.1793 4.08 60.6993 4.08C60.1793 4.08 59.7233 4.172 59.3313 4.356C58.9393 4.532 58.6113 4.784 58.3473 5.112C58.0913 5.432 57.8953 5.804 57.7593 6.228C57.6313 6.652 57.5673 7.112 57.5673 7.608C57.5673 8.08 57.6313 8.528 57.7593 8.952C57.8953 9.376 58.0953 9.752 58.3593 10.08C58.6313 10.408 58.9673 10.668 59.3673 10.86C59.7673 11.044 60.2353 11.136 60.7713 11.136C61.5233 11.136 62.1553 10.948 62.6673 10.572C63.1793 10.196 63.4913 9.652 63.6033 8.94H64.8033C64.7233 9.54 64.5193 10.088 64.1913 10.584C63.8713 11.08 63.4233 11.476 62.8473 11.772C62.2793 12.068 61.5873 12.216 60.7713 12.216ZM70.2144 12V10.08H70.0224V7.86C70.0224 7.42 69.9064 7.088 69.6744 6.864C69.4504 6.64 69.1184 6.528 68.6784 6.528C68.4304 6.528 68.1744 6.532 67.9104 6.54C67.6464 6.548 67.3944 6.556 67.1544 6.564C66.9144 6.572 66.7064 6.584 66.5304 6.6V5.592C66.7064 5.576 66.8904 5.564 67.0824 5.556C67.2824 5.54 67.4864 5.532 67.6944 5.532C67.9024 5.524 68.1024 5.52 68.2944 5.52C68.9504 5.52 69.4864 5.6 69.9024 5.76C70.3184 5.912 70.6264 6.164 70.8264 6.516C71.0264 6.868 71.1264 7.344 71.1264 7.944V12H70.2144ZM68.1144 12.168C67.6344 12.168 67.2184 12.088 66.8664 11.928C66.5224 11.76 66.2544 11.52 66.0624 11.208C65.8784 10.896 65.7864 10.52 65.7864 10.08C65.7864 9.624 65.8864 9.244 66.0864 8.94C66.2944 8.636 66.5944 8.408 66.9864 8.256C67.3784 8.096 67.8504 8.016 68.4024 8.016H70.1424V8.88H68.3544C67.8904 8.88 67.5344 8.992 67.2864 9.216C67.0384 9.44 66.9144 9.728 66.9144 10.08C66.9144 10.432 67.0384 10.716 67.2864 10.932C67.5344 11.148 67.8904 11.256 68.3544 11.256C68.6264 11.256 68.8864 11.208 69.1344 11.112C69.3824 11.008 69.5864 10.84 69.7464 10.608C69.9144 10.368 70.0064 10.04 70.0224 9.624L70.3344 10.08C70.2944 10.536 70.1824 10.92 69.9984 11.232C69.8224 11.536 69.5744 11.768 69.2544 11.928C68.9424 12.088 68.5624 12.168 68.1144 12.168ZM73.2407 12V5.592H74.1527V8.34H74.0087C74.0087 7.716 74.0887 7.188 74.2487 6.756C74.4167 6.316 74.6647 5.98 74.9927 5.748C75.3207 5.516 75.7367 5.4 76.2407 5.4H76.2887C76.7927 5.4 77.2087 5.516 77.5367 5.748C77.8727 5.98 78.1207 6.316 78.2807 6.756C78.4407 7.188 78.5207 7.716 78.5207 8.34H78.1847C78.1847 7.716 78.2687 7.188 78.4367 6.756C78.6047 6.316 78.8527 5.98 79.1807 5.748C79.5167 5.516 79.9367 5.4 80.4407 5.4H80.4887C80.9927 5.4 81.4127 5.516 81.7487 5.748C82.0847 5.98 82.3327 6.316 82.4927 6.756C82.6607 7.188 82.7447 7.716 82.7447 8.34V12H81.5927V8.088C81.5927 7.568 81.4647 7.168 81.2087 6.888C80.9527 6.6 80.5967 6.456 80.1407 6.456C79.6687 6.456 79.2887 6.608 79.0007 6.912C78.7127 7.208 78.5687 7.624 78.5687 8.16V12H77.4167V8.088C77.4167 7.568 77.2887 7.168 77.0327 6.888C76.7767 6.6 76.4207 6.456 75.9647 6.456C75.4927 6.456 75.1127 6.608 74.8247 6.912C74.5367 7.208 74.3927 7.624 74.3927 8.16V12H73.2407ZM87.578 12.216C87.018 12.216 86.534 12.12 86.126 11.928C85.718 11.736 85.386 11.484 85.13 11.172C84.874 10.852 84.682 10.496 84.554 10.104C84.434 9.712 84.374 9.312 84.374 8.904V8.688C84.374 8.272 84.434 7.868 84.554 7.476C84.682 7.084 84.874 6.732 85.13 6.42C85.386 6.1 85.71 5.848 86.102 5.664C86.502 5.472 86.97 5.376 87.506 5.376C88.202 5.376 88.774 5.528 89.222 5.832C89.678 6.128 90.014 6.512 90.23 6.984C90.454 7.456 90.566 7.96 90.566 8.496V9.012H84.878V8.148H89.726L89.462 8.616C89.462 8.16 89.39 7.768 89.246 7.44C89.102 7.104 88.886 6.844 88.598 6.66C88.31 6.476 87.946 6.384 87.506 6.384C87.05 6.384 86.67 6.488 86.366 6.696C86.07 6.904 85.846 7.188 85.694 7.548C85.55 7.908 85.478 8.324 85.478 8.796C85.478 9.252 85.55 9.664 85.694 10.032C85.846 10.392 86.078 10.68 86.39 10.896C86.702 11.104 87.098 11.208 87.578 11.208C88.082 11.208 88.49 11.096 88.802 10.872C89.122 10.648 89.314 10.388 89.378 10.092H90.458C90.37 10.532 90.194 10.912 89.93 11.232C89.666 11.552 89.334 11.796 88.934 11.964C88.534 12.132 88.082 12.216 87.578 12.216ZM92.2017 12V5.592H93.1137V8.232H93.0657C93.0657 7.296 93.2697 6.612 93.6777 6.18C94.0937 5.74 94.7137 5.52 95.5377 5.52H95.7537V6.552H95.3457C94.7057 6.552 94.2137 6.724 93.8697 7.068C93.5257 7.404 93.3537 7.892 93.3537 8.532V12H92.2017ZM100.976 12V10.08H100.784V7.86C100.784 7.42 100.668 7.088 100.436 6.864C100.212 6.64 99.8801 6.528 99.4401 6.528C99.1921 6.528 98.9361 6.532 98.6721 6.54C98.4081 6.548 98.1561 6.556 97.9161 6.564C97.6761 6.572 97.4681 6.584 97.2921 6.6V5.592C97.4681 5.576 97.6521 5.564 97.8441 5.556C98.0441 5.54 98.2481 5.532 98.4561 5.532C98.6641 5.524 98.8641 5.52 99.0561 5.52C99.7121 5.52 100.248 5.6 100.664 5.76C101.08 5.912 101.388 6.164 101.588 6.516C101.788 6.868 101.888 7.344 101.888 7.944V12H100.976ZM98.8761 12.168C98.3961 12.168 97.9801 12.088 97.6281 11.928C97.2841 11.76 97.0161 11.52 96.8241 11.208C96.6401 10.896 96.5481 10.52 96.5481 10.08C96.5481 9.624 96.6481 9.244 96.8481 8.94C97.0561 8.636 97.3561 8.408 97.7481 8.256C98.1401 8.096 98.6121 8.016 99.1641 8.016H100.904V8.88H99.1161C98.6521 8.88 98.2961 8.992 98.0481 9.216C97.8001 9.44 97.6761 9.728 97.6761 10.08C97.6761 10.432 97.8001 10.716 98.0481 10.932C98.2961 11.148 98.6521 11.256 99.1161 11.256C99.3881 11.256 99.6481 11.208 99.8961 11.112C100.144 11.008 100.348 10.84 100.508 10.608C100.676 10.368 100.768 10.04 100.784 9.624L101.096 10.08C101.056 10.536 100.944 10.92 100.76 11.232C100.584 11.536 100.336 11.768 100.016 11.928C99.7041 12.088 99.3241 12.168 98.8761 12.168Z" fill="#939394"/>
<defs>
<clipPath id="clip0_223_5262">
<rect width="16" height="16" fill="white"/>
</clipPath>
</defs>
</svg>
