<svg width="100" height="16" viewBox="0 0 100 16" fill="none" xmlns="http://www.w3.org/2000/svg">
<g clip-path="url(#clip0_223_5287)">
<path d="M9.85394 13.1336L9.26377 12.6708L9.85394 13.1336ZM6.14622 13.1336L5.55604 13.5965L6.14622 13.1336ZM8.00008 14.6703V13.9203V14.6703ZM12.5834 6.40579C12.5834 7.15441 12.1862 8.20005 11.5183 9.38093C10.867 10.5324 10.0224 11.7034 9.26377 12.6708L10.4441 13.5965C11.2253 12.6003 12.1205 11.3631 12.8239 10.1194C13.5108 8.90513 14.0834 7.56864 14.0834 6.40579H12.5834ZM6.73639 12.6708C5.97775 11.7034 5.13319 10.5324 4.48185 9.38093C3.81391 8.20005 3.41675 7.15441 3.41675 6.40579H1.91675C1.91675 7.56864 2.4894 8.90513 3.17624 10.1194C3.87968 11.3631 4.77485 12.6003 5.55604 13.5965L6.73639 12.6708ZM3.41675 6.40579C3.41675 3.59762 5.51962 1.41666 8.00008 1.41666V-0.0833435C4.5895 -0.0833435 1.91675 2.87468 1.91675 6.40579H3.41675ZM8.00008 1.41666C10.4805 1.41666 12.5834 3.59762 12.5834 6.40579H14.0834C14.0834 2.87468 11.4107 -0.0833435 8.00008 -0.0833435V1.41666ZM9.26377 12.6708C8.84565 13.204 8.58875 13.5275 8.36477 13.731C8.17291 13.9053 8.08205 13.9203 8.00008 13.9203V15.4203C8.56693 15.4203 9.00132 15.1792 9.37335 14.8413C9.71326 14.5325 10.0589 14.0877 10.4441 13.5965L9.26377 12.6708ZM5.55604 13.5965C5.94128 14.0877 6.2869 14.5325 6.62681 14.8413C6.99884 15.1792 7.43323 15.4203 8.00008 15.4203V13.9203C7.91811 13.9203 7.82725 13.9053 7.63539 13.731C7.41142 13.5275 7.15452 13.204 6.73639 12.6708L5.55604 13.5965ZM5.25008 6.66666C5.25008 8.18544 6.4813 9.41666 8.00008 9.41666V7.91666C7.30973 7.91666 6.75008 7.35701 6.75008 6.66666H5.25008ZM8.00008 9.41666C9.51886 9.41666 10.7501 8.18544 10.7501 6.66666H9.25008C9.25008 7.35701 8.69044 7.91666 8.00008 7.91666V9.41666ZM10.7501 6.66666C10.7501 5.14787 9.51886 3.91666 8.00008 3.91666V5.41666C8.69044 5.41666 9.25008 5.9763 9.25008 6.66666H10.7501ZM8.00008 3.91666C6.4813 3.91666 5.25008 5.14787 5.25008 6.66666H6.75008C6.75008 5.9763 7.30973 5.41666 8.00008 5.41666V3.91666Z" fill="#E8E8E8"/>
</g>
<path d="M22.208 8.952V7.92H24.164C24.58 7.92 24.924 7.84 25.196 7.68C25.468 7.512 25.672 7.288 25.808 7.008C25.952 6.728 26.024 6.416 26.024 6.072C26.024 5.72 25.952 5.404 25.808 5.124C25.672 4.844 25.468 4.624 25.196 4.464C24.924 4.304 24.58 4.224 24.164 4.224H22.208V3.192H23.948C24.668 3.192 25.268 3.308 25.748 3.54C26.236 3.764 26.604 4.084 26.852 4.5C27.1 4.916 27.224 5.408 27.224 5.976V6.168C27.224 6.728 27.1 7.22 26.852 7.644C26.604 8.06 26.236 8.384 25.748 8.616C25.268 8.84 24.668 8.952 23.948 8.952H22.208ZM21.272 12V3.192H22.448V12H21.272ZM30.9998 12.192C30.2398 12.192 29.6558 11.944 29.2478 11.448C28.8398 10.952 28.6358 10.236 28.6358 9.3V5.58H29.7878V9.528C29.7878 10.032 29.9238 10.428 30.1958 10.716C30.4678 10.996 30.8358 11.136 31.2998 11.136C31.7798 11.136 32.1718 10.984 32.4758 10.68C32.7798 10.368 32.9318 9.944 32.9318 9.408V5.58H34.0838V12H33.1718V9.252H33.3158C33.3158 9.884 33.2318 10.42 33.0638 10.86C32.8958 11.292 32.6438 11.624 32.3078 11.856C31.9798 12.08 31.5598 12.192 31.0478 12.192H30.9998ZM39.6989 12.216C39.1709 12.216 38.6989 12.1 38.2829 11.868C37.8749 11.636 37.5509 11.3 37.3109 10.86C37.0709 10.412 36.9389 9.876 36.9149 9.252H37.2269V12H36.3149V3.24H37.4669V7.5L37.0589 8.376C37.0909 7.68 37.2309 7.112 37.4789 6.672C37.7269 6.232 38.0509 5.908 38.4509 5.7C38.8589 5.484 39.3069 5.376 39.7949 5.376C40.2509 5.376 40.6669 5.464 41.0429 5.64C41.4189 5.808 41.7429 6.044 42.0149 6.348C42.2869 6.644 42.4949 6.992 42.6389 7.392C42.7829 7.784 42.8549 8.208 42.8549 8.664V8.88C42.8549 9.336 42.7789 9.764 42.6269 10.164C42.4829 10.564 42.2709 10.92 41.9909 11.232C41.7109 11.536 41.3749 11.776 40.9829 11.952C40.5989 12.128 40.1709 12.216 39.6989 12.216ZM39.5669 11.208C39.9989 11.208 40.3749 11.104 40.6949 10.896C41.0149 10.688 41.2629 10.404 41.4389 10.044C41.6149 9.676 41.7029 9.252 41.7029 8.772C41.7029 8.292 41.6109 7.872 41.4269 7.512C41.2509 7.152 41.0029 6.876 40.6829 6.684C40.3629 6.484 39.9909 6.384 39.5669 6.384C39.1829 6.384 38.8269 6.472 38.4989 6.648C38.1709 6.816 37.9069 7.064 37.7069 7.392C37.5149 7.712 37.4189 8.1 37.4189 8.556V9.108C37.4189 9.548 37.5189 9.924 37.7189 10.236C37.9189 10.548 38.1829 10.788 38.5109 10.956C38.8389 11.124 39.1909 11.208 39.5669 11.208ZM44.6604 12V3.24H45.8124V12H44.6604ZM43.7724 4.152V3.24H45.8124V4.152H43.7724ZM48.334 12V5.592H49.486V12H48.334ZM47.35 6.504V5.592H49.486V6.504H47.35ZM48.658 4.56C48.402 4.56 48.21 4.492 48.082 4.356C47.962 4.22 47.902 4.048 47.902 3.84C47.902 3.632 47.962 3.46 48.082 3.324C48.21 3.188 48.402 3.12 48.658 3.12C48.914 3.12 49.102 3.188 49.222 3.324C49.35 3.46 49.414 3.632 49.414 3.84C49.414 4.048 49.35 4.22 49.222 4.356C49.102 4.492 48.914 4.56 48.658 4.56ZM53.8134 12.192C52.9734 12.192 52.3214 12.012 51.8574 11.652C51.4014 11.292 51.1654 10.8 51.1494 10.176H52.2294C52.2454 10.424 52.3694 10.66 52.6014 10.884C52.8414 11.1 53.2454 11.208 53.8134 11.208C54.3254 11.208 54.7174 11.108 54.9894 10.908C55.2614 10.7 55.3974 10.448 55.3974 10.152C55.3974 9.888 55.2974 9.684 55.0974 9.54C54.8974 9.388 54.5734 9.288 54.1254 9.24L53.4294 9.168C52.8214 9.104 52.3254 8.924 51.9414 8.628C51.5574 8.324 51.3654 7.9 51.3654 7.356C51.3654 6.948 51.4694 6.6 51.6774 6.312C51.8854 6.016 52.1734 5.792 52.5414 5.64C52.9094 5.48 53.3334 5.4 53.8134 5.4C54.5334 5.4 55.1174 5.56 55.5654 5.88C56.0134 6.2 56.2454 6.676 56.2614 7.308H55.1814C55.1734 7.052 55.0534 6.836 54.8214 6.66C54.5974 6.476 54.2614 6.384 53.8134 6.384C53.3654 6.384 53.0254 6.476 52.7934 6.66C52.5614 6.844 52.4454 7.076 52.4454 7.356C52.4454 7.596 52.5254 7.788 52.6854 7.932C52.8534 8.076 53.1254 8.168 53.5014 8.208L54.1974 8.28C54.8854 8.352 55.4374 8.544 55.8534 8.856C56.2694 9.16 56.4774 9.592 56.4774 10.152C56.4774 10.552 56.3614 10.908 56.1294 11.22C55.9054 11.524 55.5934 11.764 55.1934 11.94C54.7934 12.108 54.3334 12.192 53.8134 12.192ZM58.147 12V3.24H59.299V8.472H59.011C59.011 7.84 59.091 7.296 59.251 6.84C59.419 6.376 59.675 6.02 60.019 5.772C60.363 5.524 60.803 5.4 61.339 5.4H61.387C62.155 5.4 62.735 5.656 63.127 6.168C63.519 6.672 63.715 7.396 63.715 8.34V12H62.563V8.1C62.563 7.58 62.415 7.176 62.119 6.888C61.831 6.6 61.455 6.456 60.991 6.456C60.479 6.456 60.067 6.628 59.755 6.972C59.451 7.308 59.299 7.752 59.299 8.304V12H58.147ZM69.6572 8.952V7.92H71.6132C72.0292 7.92 72.3732 7.84 72.6452 7.68C72.9172 7.512 73.1212 7.288 73.2572 7.008C73.4012 6.728 73.4732 6.416 73.4732 6.072C73.4732 5.72 73.4012 5.404 73.2572 5.124C73.1212 4.844 72.9172 4.624 72.6452 4.464C72.3732 4.304 72.0292 4.224 71.6132 4.224H69.6572V3.192H71.3972C72.1172 3.192 72.7172 3.308 73.1972 3.54C73.6852 3.764 74.0532 4.084 74.3012 4.5C74.5492 4.916 74.6732 5.408 74.6732 5.976V6.168C74.6732 6.728 74.5492 7.22 74.3012 7.644C74.0532 8.06 73.6852 8.384 73.1972 8.616C72.7172 8.84 72.1172 8.952 71.3972 8.952H69.6572ZM68.7212 12V3.192H69.8972V12H68.7212ZM79.0638 12.216C78.5038 12.216 78.0118 12.12 77.5878 11.928C77.1638 11.736 76.8038 11.484 76.5078 11.172C76.2198 10.852 75.9998 10.496 75.8478 10.104C75.7038 9.712 75.6318 9.312 75.6318 8.904V8.688C75.6318 8.28 75.7078 7.88 75.8598 7.488C76.0118 7.088 76.2358 6.732 76.5318 6.42C76.8278 6.1 77.1878 5.848 77.6118 5.664C78.0358 5.472 78.5198 5.376 79.0638 5.376C79.6078 5.376 80.0918 5.472 80.5158 5.664C80.9398 5.848 81.2998 6.1 81.5958 6.42C81.8918 6.732 82.1158 7.088 82.2678 7.488C82.4198 7.88 82.4958 8.28 82.4958 8.688V8.904C82.4958 9.312 82.4198 9.712 82.2678 10.104C82.1238 10.496 81.9038 10.852 81.6078 11.172C81.3198 11.484 80.9638 11.736 80.5398 11.928C80.1158 12.12 79.6238 12.216 79.0638 12.216ZM79.0638 11.184C79.5438 11.184 79.9518 11.08 80.2878 10.872C80.6318 10.656 80.8918 10.368 81.0678 10.008C81.2518 9.648 81.3438 9.244 81.3438 8.796C81.3438 8.34 81.2518 7.932 81.0678 7.572C80.8838 7.212 80.6198 6.928 80.2758 6.72C79.9398 6.512 79.5358 6.408 79.0638 6.408C78.5998 6.408 78.1958 6.512 77.8518 6.72C77.5078 6.928 77.2438 7.212 77.0598 7.572C76.8758 7.932 76.7838 8.34 76.7838 8.796C76.7838 9.244 76.8718 9.648 77.0478 10.008C77.2318 10.368 77.4918 10.656 77.8278 10.872C78.1718 11.08 78.5838 11.184 79.0638 11.184ZM84.5332 12V5.592H85.6852V12H84.5332ZM83.5492 6.504V5.592H85.6852V6.504H83.5492ZM84.8572 4.56C84.6012 4.56 84.4092 4.492 84.2812 4.356C84.1612 4.22 84.1012 4.048 84.1012 3.84C84.1012 3.632 84.1612 3.46 84.2812 3.324C84.4092 3.188 84.6012 3.12 84.8572 3.12C85.1132 3.12 85.3012 3.188 85.4212 3.324C85.5492 3.46 85.6132 3.632 85.6132 3.84C85.6132 4.048 85.5492 4.22 85.4212 4.356C85.3012 4.492 85.1132 4.56 84.8572 4.56ZM87.9126 12V5.592H88.8246V8.34H88.6806C88.6806 7.708 88.7646 7.176 88.9326 6.744C89.1086 6.304 89.3726 5.972 89.7246 5.748C90.0766 5.516 90.5206 5.4 91.0566 5.4H91.1046C91.9126 5.4 92.5086 5.652 92.8926 6.156C93.2846 6.66 93.4806 7.388 93.4806 8.34V12H92.3286V8.1C92.3286 7.604 92.1886 7.208 91.9086 6.912C91.6286 6.608 91.2446 6.456 90.7566 6.456C90.2526 6.456 89.8446 6.612 89.5326 6.924C89.2206 7.236 89.0646 7.652 89.0646 8.172V12H87.9126ZM98.0844 12.072C97.6044 12.072 97.1884 12.004 96.8364 11.868C96.4924 11.732 96.2244 11.5 96.0324 11.172C95.8484 10.836 95.7564 10.384 95.7564 9.816V3.648H96.8604V9.96C96.8604 10.304 96.9524 10.572 97.1364 10.764C97.3284 10.948 97.5964 11.04 97.9404 11.04H99.0684V12.072H98.0844ZM94.6524 6.456V5.592H99.0684V6.456H94.6524Z" fill="#E8E8E8"/>
<defs>
<clipPath id="clip0_223_5287">
<rect width="16" height="16" fill="white"/>
</clipPath>
</defs>
</svg>
