<svg width="59" height="16" viewBox="0 0 59 16" fill="none" xmlns="http://www.w3.org/2000/svg">
<path d="M10.5304 2.04713C12.3077 1.70626 13.8681 3.26663 13.5272 5.04395L12.3575 11.1433C12.1399 12.2779 11.28 13.1876 10.1614 13.4766C7.92717 14.0537 5.89422 11.9807 6.54525 9.76689C6.67796 9.31562 6.25869 8.89636 5.80743 9.02907C3.5936 9.68011 1.52063 7.64716 2.09779 5.41292C2.38674 4.29439 3.29643 3.43448 4.431 3.21689L10.5304 2.04713Z" stroke="#E8E8E8" stroke-width="1.5"/>
<path d="M24.116 12.216C23.388 12.216 22.768 12.096 22.256 11.856C21.744 11.616 21.352 11.284 21.08 10.86C20.808 10.436 20.672 9.956 20.672 9.42H21.848C21.848 9.684 21.916 9.948 22.052 10.212C22.196 10.476 22.432 10.696 22.76 10.872C23.096 11.048 23.548 11.136 24.116 11.136C24.644 11.136 25.076 11.06 25.412 10.908C25.748 10.748 25.996 10.544 26.156 10.296C26.316 10.04 26.396 9.764 26.396 9.468C26.396 9.108 26.24 8.812 25.928 8.58C25.616 8.34 25.16 8.192 24.56 8.136L23.588 8.052C22.812 7.988 22.192 7.748 21.728 7.332C21.264 6.916 21.032 6.368 21.032 5.688C21.032 5.152 21.16 4.684 21.416 4.284C21.68 3.884 22.044 3.572 22.508 3.348C22.972 3.116 23.512 3 24.128 3C24.736 3 25.272 3.112 25.736 3.336C26.2 3.56 26.56 3.876 26.816 4.284C27.08 4.684 27.212 5.164 27.212 5.724H26.036C26.036 5.444 25.968 5.18 25.832 4.932C25.704 4.684 25.5 4.48 25.22 4.32C24.94 4.16 24.576 4.08 24.128 4.08C23.696 4.08 23.336 4.156 23.048 4.308C22.768 4.46 22.556 4.66 22.412 4.908C22.276 5.148 22.208 5.408 22.208 5.688C22.208 6.008 22.332 6.292 22.58 6.54C22.828 6.788 23.196 6.932 23.684 6.972L24.656 7.056C25.256 7.104 25.772 7.232 26.204 7.44C26.644 7.64 26.98 7.912 27.212 8.256C27.452 8.592 27.572 8.996 27.572 9.468C27.572 10.004 27.428 10.48 27.14 10.896C26.852 11.312 26.448 11.636 25.928 11.868C25.408 12.1 24.804 12.216 24.116 12.216ZM32.1014 12.216C31.5414 12.216 31.0574 12.12 30.6494 11.928C30.2414 11.736 29.9094 11.484 29.6534 11.172C29.3974 10.852 29.2054 10.496 29.0774 10.104C28.9574 9.712 28.8974 9.312 28.8974 8.904V8.688C28.8974 8.272 28.9574 7.868 29.0774 7.476C29.2054 7.084 29.3974 6.732 29.6534 6.42C29.9094 6.1 30.2334 5.848 30.6254 5.664C31.0254 5.472 31.4934 5.376 32.0294 5.376C32.7254 5.376 33.2974 5.528 33.7454 5.832C34.2014 6.128 34.5374 6.512 34.7534 6.984C34.9774 7.456 35.0894 7.96 35.0894 8.496V9.012H29.4014V8.148H34.2494L33.9854 8.616C33.9854 8.16 33.9134 7.768 33.7694 7.44C33.6254 7.104 33.4094 6.844 33.1214 6.66C32.8334 6.476 32.4694 6.384 32.0294 6.384C31.5734 6.384 31.1934 6.488 30.8894 6.696C30.5934 6.904 30.3694 7.188 30.2174 7.548C30.0734 7.908 30.0014 8.324 30.0014 8.796C30.0014 9.252 30.0734 9.664 30.2174 10.032C30.3694 10.392 30.6014 10.68 30.9134 10.896C31.2254 11.104 31.6214 11.208 32.1014 11.208C32.6054 11.208 33.0134 11.096 33.3254 10.872C33.6454 10.648 33.8374 10.388 33.9014 10.092H34.9814C34.8934 10.532 34.7174 10.912 34.4534 11.232C34.1894 11.552 33.8574 11.796 33.4574 11.964C33.0574 12.132 32.6054 12.216 32.1014 12.216ZM36.7971 12V3.24H37.9491V12H36.7971ZM35.9091 4.152V3.24H37.9491V4.152H35.9091ZM42.8827 12.216C42.3227 12.216 41.8387 12.12 41.4307 11.928C41.0227 11.736 40.6907 11.484 40.4347 11.172C40.1787 10.852 39.9867 10.496 39.8587 10.104C39.7387 9.712 39.6787 9.312 39.6787 8.904V8.688C39.6787 8.272 39.7387 7.868 39.8587 7.476C39.9867 7.084 40.1787 6.732 40.4347 6.42C40.6907 6.1 41.0147 5.848 41.4067 5.664C41.8067 5.472 42.2747 5.376 42.8107 5.376C43.5067 5.376 44.0787 5.528 44.5267 5.832C44.9827 6.128 45.3187 6.512 45.5347 6.984C45.7587 7.456 45.8707 7.96 45.8707 8.496V9.012H40.1827V8.148H45.0307L44.7667 8.616C44.7667 8.16 44.6947 7.768 44.5507 7.44C44.4067 7.104 44.1907 6.844 43.9027 6.66C43.6147 6.476 43.2507 6.384 42.8107 6.384C42.3547 6.384 41.9747 6.488 41.6707 6.696C41.3747 6.904 41.1507 7.188 40.9987 7.548C40.8547 7.908 40.7827 8.324 40.7827 8.796C40.7827 9.252 40.8547 9.664 40.9987 10.032C41.1507 10.392 41.3827 10.68 41.6947 10.896C42.0067 11.104 42.4027 11.208 42.8827 11.208C43.3867 11.208 43.7947 11.096 44.1067 10.872C44.4267 10.648 44.6187 10.388 44.6827 10.092H45.7627C45.6747 10.532 45.4987 10.912 45.2347 11.232C44.9707 11.552 44.6387 11.796 44.2387 11.964C43.8387 12.132 43.3867 12.216 42.8827 12.216ZM50.2543 12.216C49.7023 12.216 49.2223 12.12 48.8143 11.928C48.4143 11.736 48.0823 11.48 47.8183 11.16C47.5543 10.832 47.3543 10.472 47.2183 10.08C47.0903 9.688 47.0263 9.296 47.0263 8.904V8.688C47.0263 8.28 47.0903 7.88 47.2183 7.488C47.3543 7.096 47.5543 6.744 47.8183 6.432C48.0903 6.112 48.4263 5.856 48.8263 5.664C49.2263 5.472 49.6943 5.376 50.2303 5.376C50.7663 5.376 51.2463 5.476 51.6703 5.676C52.1023 5.876 52.4463 6.16 52.7023 6.528C52.9663 6.888 53.1143 7.316 53.1463 7.812H52.0423C51.9863 7.412 51.8023 7.08 51.4903 6.816C51.1783 6.544 50.7583 6.408 50.2303 6.408C49.7743 6.408 49.3943 6.512 49.0903 6.72C48.7863 6.928 48.5583 7.212 48.4063 7.572C48.2543 7.932 48.1783 8.34 48.1783 8.796C48.1783 9.236 48.2543 9.64 48.4063 10.008C48.5583 10.368 48.7863 10.656 49.0903 10.872C49.4023 11.08 49.7903 11.184 50.2543 11.184C50.6143 11.184 50.9263 11.12 51.1903 10.992C51.4543 10.864 51.6663 10.692 51.8263 10.476C51.9863 10.26 52.0823 10.016 52.1143 9.744H53.2183C53.1943 10.248 53.0463 10.684 52.7743 11.052C52.5103 11.42 52.1583 11.708 51.7183 11.916C51.2863 12.116 50.7983 12.216 50.2543 12.216ZM57.2797 12.072C56.7997 12.072 56.3837 12.004 56.0317 11.868C55.6877 11.732 55.4197 11.5 55.2277 11.172C55.0437 10.836 54.9517 10.384 54.9517 9.816V3.648H56.0557V9.96C56.0557 10.304 56.1477 10.572 56.3317 10.764C56.5237 10.948 56.7917 11.04 57.1357 11.04H58.2637V12.072H57.2797ZM53.8477 6.456V5.592H58.2637V6.456H53.8477Z" fill="#939394"/>
</svg>
