<svg width="72" height="16" viewBox="0 0 72 16" fill="none" xmlns="http://www.w3.org/2000/svg">
<path d="M3.37405 13.3634L3.81489 12.7566L3.37405 13.3634ZM2.63661 12.626L3.24337 12.1851L2.63661 12.626ZM13.3634 12.626L12.7566 12.1851L13.3634 12.626ZM12.626 13.3634L12.1851 12.7566L12.626 13.3634ZM12.626 2.63661L12.1851 3.24337L12.626 2.63661ZM13.3634 3.37405L12.7566 3.81489L13.3634 3.37405ZM3.37405 2.63661L3.81489 3.24337L3.37405 2.63661ZM2.63661 3.37405L3.24337 3.81489L2.63661 3.37405ZM8 13.25C6.73338 13.25 5.84366 13.249 5.15896 13.1748C4.48829 13.1021 4.10384 12.9666 3.81489 12.7566L2.93321 13.9702C3.52048 14.3968 4.19909 14.5796 4.99739 14.6661C5.78165 14.751 6.7668 14.75 8 14.75V13.25ZM1.25 8C1.25 9.2332 1.24897 10.2184 1.33394 11.0026C1.42043 11.8009 1.60317 12.4795 2.02985 13.0668L3.24337 12.1851C3.03344 11.8962 2.89788 11.5117 2.82521 10.841C2.75103 10.1563 2.75 9.26662 2.75 8H1.25ZM3.81489 12.7566C3.59558 12.5973 3.40271 12.4044 3.24337 12.1851L2.02985 13.0668C2.28171 13.4134 2.58656 13.7183 2.93321 13.9702L3.81489 12.7566ZM13.25 8C13.25 9.26662 13.249 10.1563 13.1748 10.841C13.1021 11.5117 12.9666 11.8962 12.7566 12.1851L13.9702 13.0668C14.3968 12.4795 14.5796 11.8009 14.6661 11.0026C14.751 10.2184 14.75 9.2332 14.75 8H13.25ZM8 14.75C9.2332 14.75 10.2184 14.751 11.0026 14.6661C11.8009 14.5796 12.4795 14.3968 13.0668 13.9702L12.1851 12.7566C11.8962 12.9666 11.5117 13.1021 10.841 13.1748C10.1563 13.249 9.26662 13.25 8 13.25V14.75ZM12.7566 12.1851C12.5973 12.4044 12.4044 12.5973 12.1851 12.7566L13.0668 13.9702C13.4134 13.7183 13.7183 13.4134 13.9702 13.0668L12.7566 12.1851ZM8 2.75C9.26662 2.75 10.1563 2.75103 10.841 2.82521C11.5117 2.89788 11.8962 3.03344 12.1851 3.24337L13.0668 2.02985C12.4795 1.60317 11.8009 1.42043 11.0026 1.33394C10.2184 1.24897 9.2332 1.25 8 1.25V2.75ZM14.75 8C14.75 6.7668 14.751 5.78165 14.6661 4.99739C14.5796 4.19909 14.3968 3.52048 13.9702 2.93321L12.7566 3.81489C12.9666 4.10384 13.1021 4.48829 13.1748 5.15896C13.249 5.84366 13.25 6.73338 13.25 8H14.75ZM12.1851 3.24337C12.4044 3.40271 12.5973 3.59558 12.7566 3.81489L13.9702 2.93321C13.7183 2.58656 13.4134 2.28171 13.0668 2.02985L12.1851 3.24337ZM8 1.25C6.7668 1.25 5.78165 1.24897 4.99739 1.33394C4.19909 1.42043 3.52048 1.60317 2.93321 2.02985L3.81489 3.24337C4.10384 3.03344 4.48829 2.89788 5.15896 2.82521C5.84366 2.75103 6.73338 2.75 8 2.75V1.25ZM2.75 8C2.75 6.73338 2.75103 5.84366 2.82521 5.15896C2.89788 4.48829 3.03344 4.10384 3.24337 3.81489L2.02985 2.93321C1.60317 3.52048 1.42043 4.19909 1.33394 4.99739C1.24897 5.78165 1.25 6.7668 1.25 8H2.75ZM2.93321 2.02985C2.58656 2.28171 2.28171 2.58656 2.02985 2.93321L3.24337 3.81489C3.40271 3.59558 3.59558 3.40271 3.81489 3.24337L2.93321 2.02985Z" fill="#E8E8E8"/>
<path fill-rule="evenodd" clip-rule="evenodd" d="M6.81481 6C7.06027 6 7.25926 6.23359 7.25926 6.52174L7.25926 13.4783C7.25926 13.7664 7.06027 14 6.81481 14C6.56935 14 6.37037 13.7664 6.37037 13.4783V6.52174C6.37037 6.23359 6.56935 6 6.81481 6ZM4.44444 8.08696C4.6899 8.08696 4.88889 8.32055 4.88889 8.6087L4.88889 13.4783C4.88889 13.7664 4.6899 14 4.44444 14C4.19898 14 4 13.7664 4 13.4783L4 8.6087C4 8.32055 4.19898 8.08696 4.44444 8.08696ZM11.5556 8.08696C11.801 8.08696 12 8.32055 12 8.6087V13.4783C12 13.7664 11.801 14 11.5556 14C11.3101 14 11.1111 13.7664 11.1111 13.4783V8.6087C11.1111 8.32055 11.3101 8.08696 11.5556 8.08696ZM9.18519 10.1739C9.43064 10.1739 9.62963 10.4075 9.62963 10.6957L9.62963 13.4783C9.62963 13.7664 9.43064 14 9.18519 14C8.93973 14 8.74074 13.7664 8.74074 13.4783L8.74074 10.6957C8.74074 10.4075 8.93973 10.1739 9.18519 10.1739Z" fill="#E8E8E8"/>
<path d="M21.272 12V3.24H22.832L25.424 9.084H25.616L28.196 3.24H29.768V12H28.592V4.524L28.676 4.548L26.192 10.188H24.752L22.256 4.548L22.352 4.524V12H21.272ZM34.8671 12.216C34.3071 12.216 33.8231 12.12 33.4151 11.928C33.0071 11.736 32.6751 11.484 32.4191 11.172C32.1631 10.852 31.9711 10.496 31.8431 10.104C31.7231 9.712 31.6631 9.312 31.6631 8.904V8.688C31.6631 8.272 31.7231 7.868 31.8431 7.476C31.9711 7.084 32.1631 6.732 32.4191 6.42C32.6751 6.1 32.9991 5.848 33.3911 5.664C33.7911 5.472 34.2591 5.376 34.7951 5.376C35.4911 5.376 36.0631 5.528 36.5111 5.832C36.9671 6.128 37.3031 6.512 37.5191 6.984C37.7431 7.456 37.8551 7.96 37.8551 8.496V9.012H32.1671V8.148H37.0151L36.7511 8.616C36.7511 8.16 36.6791 7.768 36.5351 7.44C36.3911 7.104 36.1751 6.844 35.8871 6.66C35.5991 6.476 35.2351 6.384 34.7951 6.384C34.3391 6.384 33.9591 6.488 33.6551 6.696C33.3591 6.904 33.1351 7.188 32.9831 7.548C32.8391 7.908 32.7671 8.324 32.7671 8.796C32.7671 9.252 32.8391 9.664 32.9831 10.032C33.1351 10.392 33.3671 10.68 33.6791 10.896C33.9911 11.104 34.3871 11.208 34.8671 11.208C35.3711 11.208 35.7791 11.096 36.0911 10.872C36.4111 10.648 36.6031 10.388 36.6671 10.092H37.7471C37.6591 10.532 37.4831 10.912 37.2191 11.232C36.9551 11.552 36.6231 11.796 36.2231 11.964C35.8231 12.132 35.3711 12.216 34.8671 12.216ZM43.3667 12V10.08H43.1747V7.86C43.1747 7.42 43.0587 7.088 42.8267 6.864C42.6027 6.64 42.2707 6.528 41.8307 6.528C41.5827 6.528 41.3267 6.532 41.0627 6.54C40.7987 6.548 40.5467 6.556 40.3067 6.564C40.0667 6.572 39.8587 6.584 39.6827 6.6V5.592C39.8587 5.576 40.0427 5.564 40.2347 5.556C40.4347 5.54 40.6387 5.532 40.8467 5.532C41.0547 5.524 41.2547 5.52 41.4467 5.52C42.1027 5.52 42.6387 5.6 43.0547 5.76C43.4707 5.912 43.7787 6.164 43.9787 6.516C44.1787 6.868 44.2787 7.344 44.2787 7.944V12H43.3667ZM41.2667 12.168C40.7867 12.168 40.3707 12.088 40.0187 11.928C39.6747 11.76 39.4067 11.52 39.2147 11.208C39.0307 10.896 38.9387 10.52 38.9387 10.08C38.9387 9.624 39.0387 9.244 39.2387 8.94C39.4467 8.636 39.7467 8.408 40.1387 8.256C40.5307 8.096 41.0027 8.016 41.5547 8.016H43.2947V8.88H41.5067C41.0427 8.88 40.6867 8.992 40.4387 9.216C40.1907 9.44 40.0667 9.728 40.0667 10.08C40.0667 10.432 40.1907 10.716 40.4387 10.932C40.6867 11.148 41.0427 11.256 41.5067 11.256C41.7787 11.256 42.0387 11.208 42.2867 11.112C42.5347 11.008 42.7387 10.84 42.8987 10.608C43.0667 10.368 43.1587 10.04 43.1747 9.624L43.4867 10.08C43.4467 10.536 43.3347 10.92 43.1507 11.232C42.9747 11.536 42.7267 11.768 42.4067 11.928C42.0947 12.088 41.7147 12.168 41.2667 12.168ZM48.4931 12.192C47.6531 12.192 47.0011 12.012 46.5371 11.652C46.0811 11.292 45.8451 10.8 45.8291 10.176H46.9091C46.9251 10.424 47.0491 10.66 47.2811 10.884C47.5211 11.1 47.9251 11.208 48.4931 11.208C49.0051 11.208 49.3971 11.108 49.6691 10.908C49.9411 10.7 50.0771 10.448 50.0771 10.152C50.0771 9.888 49.9771 9.684 49.7771 9.54C49.5771 9.388 49.2531 9.288 48.8051 9.24L48.1091 9.168C47.5011 9.104 47.0051 8.924 46.6211 8.628C46.2371 8.324 46.0451 7.9 46.0451 7.356C46.0451 6.948 46.1491 6.6 46.3571 6.312C46.5651 6.016 46.8531 5.792 47.2211 5.64C47.5891 5.48 48.0131 5.4 48.4931 5.4C49.2131 5.4 49.7971 5.56 50.2451 5.88C50.6931 6.2 50.9251 6.676 50.9411 7.308H49.8611C49.8531 7.052 49.7331 6.836 49.5011 6.66C49.2771 6.476 48.9411 6.384 48.4931 6.384C48.0451 6.384 47.7051 6.476 47.4731 6.66C47.2411 6.844 47.1251 7.076 47.1251 7.356C47.1251 7.596 47.2051 7.788 47.3651 7.932C47.5331 8.076 47.8051 8.168 48.1811 8.208L48.8771 8.28C49.5651 8.352 50.1171 8.544 50.5331 8.856C50.9491 9.16 51.1571 9.592 51.1571 10.152C51.1571 10.552 51.0411 10.908 50.8091 11.22C50.5851 11.524 50.2731 11.764 49.8731 11.94C49.4731 12.108 49.0131 12.192 48.4931 12.192ZM55.0467 12.192C54.2867 12.192 53.7027 11.944 53.2947 11.448C52.8867 10.952 52.6827 10.236 52.6827 9.3V5.58H53.8347V9.528C53.8347 10.032 53.9707 10.428 54.2427 10.716C54.5147 10.996 54.8827 11.136 55.3467 11.136C55.8267 11.136 56.2187 10.984 56.5227 10.68C56.8267 10.368 56.9787 9.944 56.9787 9.408V5.58H58.1307V12H57.2187V9.252H57.3627C57.3627 9.884 57.2787 10.42 57.1107 10.86C56.9427 11.292 56.6907 11.624 56.3547 11.856C56.0267 12.08 55.6067 12.192 55.0947 12.192H55.0467ZM60.3618 12V5.592H61.2738V8.232H61.2258C61.2258 7.296 61.4298 6.612 61.8378 6.18C62.2538 5.74 62.8738 5.52 63.6978 5.52H63.9138V6.552H63.5058C62.8658 6.552 62.3738 6.724 62.0298 7.068C61.6858 7.404 61.5138 7.892 61.5138 8.532V12H60.3618ZM67.9374 12.216C67.3774 12.216 66.8934 12.12 66.4854 11.928C66.0774 11.736 65.7454 11.484 65.4894 11.172C65.2334 10.852 65.0414 10.496 64.9134 10.104C64.7934 9.712 64.7334 9.312 64.7334 8.904V8.688C64.7334 8.272 64.7934 7.868 64.9134 7.476C65.0414 7.084 65.2334 6.732 65.4894 6.42C65.7454 6.1 66.0694 5.848 66.4614 5.664C66.8614 5.472 67.3294 5.376 67.8654 5.376C68.5614 5.376 69.1334 5.528 69.5814 5.832C70.0374 6.128 70.3734 6.512 70.5894 6.984C70.8134 7.456 70.9254 7.96 70.9254 8.496V9.012H65.2374V8.148H70.0854L69.8214 8.616C69.8214 8.16 69.7494 7.768 69.6054 7.44C69.4614 7.104 69.2454 6.844 68.9574 6.66C68.6694 6.476 68.3054 6.384 67.8654 6.384C67.4094 6.384 67.0294 6.488 66.7254 6.696C66.4294 6.904 66.2054 7.188 66.0534 7.548C65.9094 7.908 65.8374 8.324 65.8374 8.796C65.8374 9.252 65.9094 9.664 66.0534 10.032C66.2054 10.392 66.4374 10.68 66.7494 10.896C67.0614 11.104 67.4574 11.208 67.9374 11.208C68.4414 11.208 68.8494 11.096 69.1614 10.872C69.4814 10.648 69.6734 10.388 69.7374 10.092H70.8174C70.7294 10.532 70.5534 10.912 70.2894 11.232C70.0254 11.552 69.6934 11.796 69.2934 11.964C68.8934 12.132 68.4414 12.216 67.9374 12.216Z" fill="#E8E8E8"/>
</svg>
