<svg width="24" height="24" viewBox="0 0 24 24" fill="none" xmlns="http://www.w3.org/2000/svg">
<path d="M12 14.25C11.5858 14.25 11.25 14.5858 11.25 15C11.25 15.4142 11.5858 15.75 12 15.75V14.25ZM15.75 12C15.75 11.5858 15.4142 11.25 15 11.25C14.5858 11.25 14.25 11.5858 14.25 12H15.75ZM3.22067 10.1254L2.61141 9.68801L3.22067 10.1254ZM3.22045 13.8743L3.82971 13.4369L3.82971 13.4369L3.22045 13.8743ZM5.78797 16.8928L6.35092 16.3972L6.33191 16.3756L6.3113 16.3556L5.78797 16.8928ZM18.101 7L17.5824 7.54174L17.6037 7.56213L17.6265 7.58079L18.101 7ZM2.33692 12L1.58692 12L2.33692 12ZM20.7793 13.8746L21.3886 14.312V14.312L20.7793 13.8746ZM20.7793 10.1253L20.17 10.5627L20.17 10.5627L20.7793 10.1253ZM20.3953 8.39076C20.1332 8.07003 19.6607 8.02252 19.34 8.28464C19.0193 8.54676 18.9718 9.01925 19.2339 9.33998L20.3953 8.39076ZM7.93753 17.7322C7.60111 17.4905 7.13249 17.5674 6.89085 17.9038C6.64921 18.2402 6.72604 18.7088 7.06247 18.9505L7.93753 17.7322ZM21.6631 12L20.9131 12L21.6631 12ZM1.53148 19.4143C1.20803 19.6731 1.15559 20.1451 1.41435 20.4685C1.67311 20.792 2.14507 20.8444 2.46852 20.5857L1.53148 19.4143ZM22.4685 4.58565C22.792 4.32689 22.8444 3.85493 22.5857 3.53148C22.3269 3.20803 21.8549 3.15559 21.5315 3.41435L22.4685 4.58565ZM18.1747 7.06021L18.6433 7.64586L18.1747 7.06021ZM5.82765 16.9379L6.29617 17.5235L5.82765 16.9379ZM12 8.25C9.92893 8.25 8.25 9.92893 8.25 12H9.75C9.75 10.7574 10.7574 9.75 12 9.75V8.25ZM8.25 12C8.25 12.8808 8.5546 13.6925 9.06365 14.3326L10.2377 13.399C9.93209 13.0148 9.75 12.5297 9.75 12H8.25ZM14.9274 9.65611C14.2414 8.80021 13.1847 8.25 12 8.25V9.75C12.7103 9.75 13.3434 10.0782 13.7569 10.5942L14.9274 9.65611ZM12 15.75C14.0711 15.75 15.75 14.0711 15.75 12H14.25C14.25 13.2426 13.2426 14.25 12 14.25V15.75ZM12 3.25C9.85904 3.25 7.92324 4.30899 6.35173 5.59572C4.77163 6.88946 3.47961 8.47865 2.61141 9.68801L3.82992 10.5628C4.65919 9.40765 5.86348 7.93414 7.302 6.75631C8.7491 5.57146 10.3542 4.75 12 4.75V3.25ZM2.61118 14.3117C3.27304 15.2336 4.17749 16.371 5.26464 17.4301L6.3113 16.3556C5.30603 15.3763 4.45829 14.3125 3.82971 13.4369L2.61118 14.3117ZM18.6197 6.45826C16.8873 4.79958 14.5908 3.25 12 3.25V4.75C14.0028 4.75 15.9382 5.96762 17.5824 7.54174L18.6197 6.45826ZM2.61141 9.68801C2.05704 10.4602 1.58692 11.0714 1.58692 12L3.08692 12C3.08692 11.6415 3.20597 11.4319 3.82992 10.5628L2.61141 9.68801ZM3.82971 13.4369C3.20592 12.568 3.08691 12.3585 3.08692 12L1.58692 12C1.58691 12.9286 2.05693 13.5396 2.61119 14.3117L3.82971 13.4369ZM12 20.75C14.141 20.75 16.0768 19.691 17.6483 18.4043C19.2284 17.1105 20.5204 15.5214 21.3886 14.312L20.1701 13.4372C19.3408 14.5923 18.1365 16.0659 16.698 17.2437C15.2509 18.4285 13.6458 19.25 12 19.25V20.75ZM21.3885 9.68793C21.1009 9.28722 20.7682 8.84694 20.3953 8.39076L19.2339 9.33998C19.5844 9.76885 19.8981 10.1839 20.17 10.5627L21.3885 9.68793ZM7.06247 18.9505C8.487 19.9737 10.1676 20.75 12 20.75V19.25C10.5952 19.25 9.21818 18.652 7.93753 17.7322L7.06247 18.9505ZM21.3886 14.312C21.943 13.5398 22.4131 12.9286 22.4131 12L20.9131 12C20.9131 12.3585 20.794 12.5681 20.1701 13.4372L21.3886 14.312ZM20.17 10.5627C20.794 11.4319 20.9131 11.6415 20.9131 12L22.4131 12C22.4131 11.0714 21.9429 10.4602 21.3885 9.68793L20.17 10.5627ZM18.6433 7.64586L22.4685 4.58565L21.5315 3.41435L17.7062 6.47456L18.6433 7.64586ZM17.6265 7.58079L17.7002 7.64101L18.6493 6.47942L18.5756 6.41921L17.6265 7.58079ZM2.46852 20.5857L6.29617 17.5235L5.35913 16.3522L1.53148 19.4143L2.46852 20.5857ZM6.29617 17.5235L18.6433 7.64586L17.7062 6.47456L5.35913 16.3522L6.29617 17.5235ZM5.22503 17.3884L5.2647 17.4335L6.39059 16.4423L6.35092 16.3972L5.22503 17.3884Z" fill="#FAFAFA"/>
</svg>
