<svg width="24" height="24" viewBox="0 0 24 24" fill="none" xmlns="http://www.w3.org/2000/svg">
<path d="M17 14L17.0528 13.8944C17.3343 13.3314 17.3343 12.6686 17.0528 12.1056V12.1056C17.0204 12.0409 16.9543 12 16.882 12L11 12H10.923M14 14L14.0528 13.8944C14.3343 13.3314 14.3343 12.6686 14.0528 12.1056L14 12M10.923 12C10.923 11.8739 10.8991 11.7478 10.8514 11.6286L10.4514 10.6286C10.2996 10.249 9.93187 10 9.52297 10H8C7.44772 10 7 10.4477 7 11V13C7 13.5523 7.44772 14 8 14H9.52297C9.93187 14 10.2996 13.751 10.4514 13.3714L10.8514 12.3714C10.8991 12.2522 10.923 12.1261 10.923 12ZM22 12C22 17.5228 17.5228 22 12 22C6.47715 22 2 17.5228 2 12C2 6.47715 6.47715 2 12 2C17.5228 2 22 6.47715 22 12Z" stroke="#FAFAFA" stroke-width="1.5" stroke-linecap="round"/>
</svg>
