<svg width="24" height="24" viewBox="0 0 24 24" fill="none" xmlns="http://www.w3.org/2000/svg">
<path d="M5.06107 20.0451L5.50191 19.4383L5.06107 20.0451ZM3.95491 18.9389L4.56168 18.4981L3.95491 18.9389ZM20.0451 18.9389L19.4383 18.4981L20.0451 18.9389ZM18.9389 20.0451L18.4981 19.4383L18.9389 20.0451ZM18.9389 3.95491L18.4981 4.56168L18.9389 3.95491ZM20.0451 5.06107L19.4383 5.50191L20.0451 5.06107ZM5.06107 3.95491L5.50191 4.56168L5.06107 3.95491ZM3.95491 5.06107L4.56168 5.50191L3.95491 5.06107ZM11 12V11.25V12ZM16.3292 13.6646C16.1439 14.0351 16.2941 14.4856 16.6646 14.6708C17.0351 14.8561 17.4856 14.7059 17.6708 14.3354L16.3292 13.6646ZM17.0528 13.8944L17.7236 14.2298L17.7236 14.2298L17.0528 13.8944ZM13.3292 13.6646C13.1439 14.0351 13.2941 14.4856 13.6646 14.6708C14.0351 14.8561 14.4856 14.7059 14.6708 14.3354L13.3292 13.6646ZM14.0528 13.8944L14.7236 14.2298L14.7236 14.2298L14.0528 13.8944ZM14.0528 12.1056L14.7236 11.7702L14.7236 11.7702L14.0528 12.1056ZM14.6708 11.6646C14.4856 11.2941 14.0351 11.1439 13.6646 11.3292C13.2941 11.5144 13.1439 11.9649 13.3292 12.3354L14.6708 11.6646ZM10.8514 11.6286L10.1551 11.9072V11.9072L10.8514 11.6286ZM10.8514 12.3714L11.5478 12.6499L10.8514 12.3714ZM10.4514 13.3714L9.75509 13.0928L10.4514 13.3714ZM10.4514 10.6286L11.1478 10.3501L10.4514 10.6286ZM16.882 12V11.25V12ZM12 20.25C10.1084 20.25 8.74999 20.249 7.69804 20.135C6.66013 20.0225 6.00992 19.8074 5.50191 19.4383L4.62023 20.6518C5.42656 21.2377 6.37094 21.5 7.53648 21.6263C8.68798 21.751 10.1418 21.75 12 21.75V20.25ZM2.25 12C2.25 13.8582 2.24897 15.312 2.37373 16.4635C2.50001 17.6291 2.76232 18.5734 3.34815 19.3798L4.56168 18.4981C4.19259 17.9901 3.97745 17.3399 3.865 16.302C3.75103 15.25 3.75 13.8916 3.75 12H2.25ZM5.50191 19.4383C5.14111 19.1762 4.82382 18.8589 4.56168 18.4981L3.34815 19.3798C3.70281 19.8679 4.13209 20.2972 4.62023 20.6518L5.50191 19.4383ZM20.25 12C20.25 13.8916 20.249 15.25 20.135 16.302C20.0225 17.3399 19.8074 17.9901 19.4383 18.4981L20.6518 19.3798C21.2377 18.5734 21.5 17.6291 21.6263 16.4635C21.751 15.312 21.75 13.8582 21.75 12H20.25ZM12 21.75C13.8582 21.75 15.312 21.751 16.4635 21.6263C17.6291 21.5 18.5734 21.2377 19.3798 20.6518L18.4981 19.4383C17.9901 19.8074 17.3399 20.0225 16.302 20.135C15.25 20.249 13.8916 20.25 12 20.25V21.75ZM19.4383 18.4981C19.1762 18.8589 18.8589 19.1762 18.4981 19.4383L19.3798 20.6518C19.8679 20.2972 20.2972 19.8679 20.6518 19.3798L19.4383 18.4981ZM12 3.75C13.8916 3.75 15.25 3.75103 16.302 3.865C17.3399 3.97745 17.9901 4.19259 18.4981 4.56168L19.3798 3.34815C18.5734 2.76232 17.6291 2.50001 16.4635 2.37373C15.312 2.24897 13.8582 2.25 12 2.25V3.75ZM21.75 12C21.75 10.1418 21.751 8.68798 21.6263 7.53648C21.5 6.37094 21.2377 5.42656 20.6518 4.62023L19.4383 5.50191C19.8074 6.00992 20.0225 6.66013 20.135 7.69804C20.249 8.74999 20.25 10.1084 20.25 12H21.75ZM18.4981 4.56168C18.8589 4.82382 19.1762 5.14111 19.4383 5.50191L20.6518 4.62023C20.2972 4.13209 19.8679 3.70281 19.3798 3.34815L18.4981 4.56168ZM12 2.25C10.1418 2.25 8.68798 2.24897 7.53648 2.37373C6.37094 2.50001 5.42656 2.76232 4.62023 3.34815L5.50191 4.56168C6.00992 4.19259 6.66013 3.97745 7.69804 3.865C8.74999 3.75103 10.1084 3.75 12 3.75V2.25ZM3.75 12C3.75 10.1084 3.75103 8.74999 3.865 7.69804C3.97745 6.66013 4.19259 6.00992 4.56168 5.50191L3.34815 4.62023C2.76232 5.42656 2.50001 6.37094 2.37373 7.53648C2.24897 8.68798 2.25 10.1418 2.25 12H3.75ZM4.62023 3.34815C4.13209 3.70281 3.70281 4.13209 3.34815 4.62023L4.56168 5.50191C4.82382 5.14111 5.14111 4.82382 5.50191 4.56168L4.62023 3.34815ZM11 12.75L16.882 12.75V11.25L11 11.25V12.75ZM17.6708 14.3354L17.7236 14.2298L16.382 13.559L16.3292 13.6646L17.6708 14.3354ZM17.7236 14.2298C18.1107 13.4556 18.1107 12.5444 17.7236 11.7702L16.382 12.441C16.5579 12.7929 16.5579 13.2071 16.382 13.559L17.7236 14.2298ZM14.6708 14.3354L14.7236 14.2298L13.382 13.559L13.3292 13.6646L14.6708 14.3354ZM14.7236 11.7702L14.6708 11.6646L13.3292 12.3354L13.382 12.441L14.7236 11.7702ZM14.7236 14.2298C15.1107 13.4556 15.1107 12.5444 14.7236 11.7702L13.382 12.441C13.5579 12.7929 13.5579 13.2071 13.382 13.559L14.7236 14.2298ZM8 10.75H9.52297V9.25H8V10.75ZM9.52297 13.25H8V14.75H9.52297V13.25ZM7.75 13V11H6.25V13H7.75ZM9.75509 10.9072L10.1551 11.9072L11.5478 11.3501L11.1478 10.3501L9.75509 10.9072ZM10.1551 12.0928L9.75509 13.0928L11.1478 13.6499L11.5478 12.6499L10.1551 12.0928ZM8 13.25C7.86193 13.25 7.75 13.1381 7.75 13H6.25C6.25 13.9665 7.0335 14.75 8 14.75V13.25ZM9.52297 14.75C10.2386 14.75 10.882 14.3143 11.1478 13.6499L9.75509 13.0928C9.71712 13.1878 9.62519 13.25 9.52297 13.25V14.75ZM9.52297 10.75C9.62519 10.75 9.71712 10.8122 9.75509 10.9072L11.1478 10.3501C10.882 9.68566 10.2385 9.25 9.52297 9.25V10.75ZM8 9.25C7.0335 9.25 6.25 10.0335 6.25 11H7.75C7.75 10.8619 7.86193 10.75 8 10.75V9.25ZM10.1551 11.9072C10.167 11.937 10.173 11.9684 10.173 12H11.673C11.673 11.7794 11.6312 11.5587 11.5478 11.3501L10.1551 11.9072ZM10.173 12C10.173 12.0316 10.167 12.063 10.1551 12.0928L11.5478 12.6499C11.6312 12.4413 11.673 12.2206 11.673 12H10.173ZM11 11.25H10.923V12.75H11V11.25ZM16.882 12.75C16.6702 12.75 16.4767 12.6304 16.382 12.441L17.7236 11.7702C17.5642 11.4514 17.2384 11.25 16.882 11.25V12.75Z" fill="#FAFAFA"/>
</svg>
