<svg width="24" height="24" viewBox="0 0 24 24" fill="none" xmlns="http://www.w3.org/2000/svg">
<path d="M11 12C11 13.1046 10.1046 14 9 14C7.89543 14 7 13.1046 7 12C7 10.8954 7.89543 10 9 10C10.1046 10 11 10.8954 11 12ZM11 12L16.882 12C16.9543 12 17.0204 12.0409 17.0528 12.1056V12.1056C17.3343 12.6686 17.3343 13.3314 17.0528 13.8944L17 14M14 14L14.0528 13.8944C14.3343 13.3314 14.3343 12.6686 14.0528 12.1056L14 12M22 12C22 17.5228 17.5228 22 12 22C6.47715 22 2 17.5228 2 12C2 6.47715 6.47715 2 12 2C17.5228 2 22 6.47715 22 12Z" stroke="#FAFAFA" stroke-width="1.5" stroke-linecap="round"/>
</svg>
