<svg width="24" height="24" viewBox="0 0 24 24" fill="none" xmlns="http://www.w3.org/2000/svg">
<path d="M11 12.0001C11 13.1046 10.1046 14.0001 9.00003 14.0001C7.89546 14.0001 7.00003 13.1046 7.00003 12.0001C7.00003 10.8955 7.89546 10.0001 9.00003 10.0001C10.1046 10.0001 11 10.8955 11 12.0001ZM11 12.0001H16.882C16.9543 12.0001 17.0205 12.0409 17.0528 12.1056V12.1056C17.3343 12.6687 17.3343 13.3314 17.0528 13.8945L17 14.0001M14 14.0001L14.0528 13.8945C14.3343 13.3314 14.3343 12.6687 14.0528 12.1056L14 12.0001M2.47375 12.0001C2.47375 9.45278 2.47375 8.17914 3.02499 7.1046C3.10048 6.95744 3.18323 6.81412 3.27292 6.67516C3.92788 5.66052 5.03088 5.0237 7.23689 3.75006C9.4429 2.47642 10.5459 1.8396 11.7521 1.77971C11.9173 1.77151 12.0828 1.77151 12.248 1.77971C13.4542 1.8396 14.5572 2.47642 16.7632 3.75006C18.9692 5.0237 20.0722 5.66052 20.7271 6.67516C20.8168 6.81412 20.8996 6.95744 20.9751 7.1046C21.5263 8.17914 21.5263 9.45278 21.5263 12.0001C21.5263 14.5473 21.5263 15.821 20.9751 16.8955C20.8996 17.0427 20.8168 17.186 20.7271 17.325C20.0722 18.3396 18.9692 18.9764 16.7632 20.2501C14.5572 21.5237 13.4542 22.1605 12.248 22.2204C12.0828 22.2286 11.9173 22.2286 11.7521 22.2204C10.5459 22.1605 9.4429 21.5237 7.23689 20.2501C5.03088 18.9764 3.92788 18.3396 3.27292 17.325C3.18323 17.186 3.10048 17.0427 3.02499 16.8955C2.47375 15.821 2.47375 14.5473 2.47375 12.0001Z" stroke="#FAFAFA" stroke-width="1.5" stroke-linecap="round"/>
</svg>
