<svg width="24" height="24" viewBox="0 0 24 24" fill="none" xmlns="http://www.w3.org/2000/svg">
<path d="M3 16H2.25H3ZM3.75 15C3.75 14.5858 3.41421 14.25 3 14.25C2.58579 14.25 2.25 14.5858 2.25 15H3.75ZM9 21.75C9.41422 21.75 9.75 21.4142 9.75 21C9.75 20.5858 9.41422 20.25 9 20.25V21.75ZM8 21V20.25V21ZM9 3.75C9.41421 3.75 9.75 3.41421 9.75 3C9.75 2.58579 9.41421 2.25 9 2.25V3.75ZM2.25 9C2.25 9.41421 2.58579 9.75 3 9.75C3.41421 9.75 3.75 9.41421 3.75 9H2.25ZM21 8H20.25H21ZM20.25 9C20.25 9.41421 20.5858 9.75 21 9.75C21.4142 9.75 21.75 9.41421 21.75 9H20.25ZM15 2.25C14.5858 2.25 14.25 2.58579 14.25 3C14.25 3.41421 14.5858 3.75 15 3.75V2.25ZM16 3V2.25V3ZM16 21V20.25V21ZM15 20.25C14.5858 20.25 14.25 20.5858 14.25 21C14.25 21.4142 14.5858 21.75 15 21.75V20.25ZM21.75 15C21.75 14.5858 21.4142 14.25 21 14.25C20.5858 14.25 20.25 14.5858 20.25 15H21.75ZM21 16H21.75H21ZM3.75 16L3.75 15H2.25L2.25 16H3.75ZM9 20.25H8V21.75H9V20.25ZM2.25 16C2.25 19.1756 4.82436 21.75 8 21.75V20.25C5.65279 20.25 3.75 18.3472 3.75 16H2.25ZM8 3.75H9V2.25H8V3.75ZM3.75 9V8H2.25V9H3.75ZM8 2.25C4.82436 2.25 2.25 4.82436 2.25 8H3.75C3.75 5.65279 5.65279 3.75 8 3.75V2.25ZM20.25 8V9H21.75V8H20.25ZM15 3.75L16 3.75V2.25L15 2.25V3.75ZM21.75 8C21.75 4.82436 19.1756 2.25 16 2.25V3.75C18.3472 3.75 20.25 5.65279 20.25 8H21.75ZM16 20.25H15V21.75H16V20.25ZM20.25 15V16H21.75V15H20.25ZM16 21.75C19.1756 21.75 21.75 19.1756 21.75 16H20.25C20.25 18.3472 18.3472 20.25 16 20.25V21.75ZM8 9.25C7.50739 9.25 7.21339 9.24841 7.00266 9.22008C6.90611 9.20709 6.85774 9.1918 6.83596 9.18284C6.83092 9.18077 6.8276 9.17915 6.82567 9.17814C6.82376 9.17714 6.82292 9.17659 6.82283 9.17653C6.82277 9.17649 6.823 9.17665 6.82335 9.17693C6.8237 9.17721 6.82368 9.17723 6.82322 9.17678L5.76256 10.2374C6.07159 10.5465 6.44731 10.6589 6.80279 10.7067C7.1367 10.7516 7.5498 10.75 8 10.75V9.25ZM5.25 8C5.25 8.4502 5.24841 8.8633 5.2933 9.19721C5.34109 9.55269 5.45354 9.92841 5.76256 10.2374L6.82322 9.17678C6.82277 9.17632 6.82279 9.1763 6.82307 9.17665C6.82335 9.177 6.82351 9.17724 6.82347 9.17717C6.82341 9.17708 6.82286 9.17624 6.82186 9.17433C6.82085 9.1724 6.81923 9.16908 6.81716 9.16404C6.8082 9.14226 6.79291 9.09389 6.77992 8.99734C6.75159 8.78661 6.75 8.49261 6.75 8H5.25ZM9.25 8C9.25 8.49261 9.24841 8.78661 9.22008 8.99734C9.20709 9.09389 9.1918 9.14226 9.18284 9.16404C9.18077 9.16908 9.17915 9.1724 9.17814 9.17433C9.17714 9.17624 9.17659 9.17708 9.17653 9.17717C9.17649 9.17724 9.17665 9.177 9.17693 9.17665C9.17721 9.1763 9.17723 9.17632 9.17678 9.17678L10.2374 10.2374C10.5465 9.92841 10.6589 9.55269 10.7067 9.19721C10.7516 8.8633 10.75 8.4502 10.75 8H9.25ZM8 10.75C8.4502 10.75 8.8633 10.7516 9.19721 10.7067C9.55269 10.6589 9.92841 10.5465 10.2374 10.2374L9.17678 9.17678C9.17632 9.17723 9.1763 9.17721 9.17665 9.17693C9.177 9.17665 9.17724 9.17649 9.17717 9.17653C9.17708 9.17659 9.17624 9.17714 9.17433 9.17814C9.1724 9.17915 9.16908 9.18077 9.16404 9.18284C9.14226 9.1918 9.09389 9.20709 8.99734 9.22008C8.78661 9.24841 8.49261 9.25 8 9.25V10.75ZM8 6.75C8.49261 6.75 8.78661 6.75159 8.99734 6.77992C9.09389 6.79291 9.14226 6.8082 9.16404 6.81716C9.16908 6.81923 9.1724 6.82085 9.17433 6.82186C9.17624 6.82286 9.17708 6.82341 9.17717 6.82347C9.17724 6.82351 9.177 6.82335 9.17665 6.82307C9.1763 6.82279 9.17632 6.82277 9.17678 6.82322L10.2374 5.76256C9.92841 5.45354 9.55269 5.34109 9.19721 5.2933C8.8633 5.24841 8.4502 5.25 8 5.25V6.75ZM10.75 8C10.75 7.5498 10.7516 7.1367 10.7067 6.80279C10.6589 6.44731 10.5465 6.07159 10.2374 5.76256L9.17678 6.82322C9.17723 6.82368 9.17721 6.8237 9.17693 6.82335C9.17665 6.823 9.17649 6.82277 9.17653 6.82283C9.17659 6.82292 9.17714 6.82376 9.17814 6.82567C9.17915 6.8276 9.18077 6.83092 9.18284 6.83596C9.1918 6.85774 9.20709 6.90611 9.22008 7.00266C9.24841 7.21339 9.25 7.50739 9.25 8H10.75ZM8 5.25C7.5498 5.25 7.1367 5.24841 6.80279 5.2933C6.44731 5.34109 6.07159 5.45354 5.76256 5.76256L6.82322 6.82322C6.82368 6.82277 6.8237 6.82279 6.82335 6.82307C6.823 6.82335 6.82277 6.82351 6.82283 6.82347C6.82292 6.82341 6.82376 6.82286 6.82567 6.82186C6.8276 6.82085 6.83092 6.81923 6.83596 6.81716C6.85774 6.8082 6.90611 6.79291 7.00266 6.77992C7.21339 6.75159 7.50739 6.75 8 6.75V5.25ZM6.75 8C6.75 7.50739 6.75159 7.21339 6.77992 7.00266C6.79291 6.90611 6.8082 6.85774 6.81716 6.83596C6.81923 6.83092 6.82085 6.8276 6.82186 6.82567C6.82286 6.82376 6.82341 6.82292 6.82347 6.82283C6.82351 6.82277 6.82335 6.823 6.82307 6.82335C6.82279 6.8237 6.82277 6.82368 6.82322 6.82322L5.76256 5.76256C5.45354 6.07159 5.34109 6.44731 5.2933 6.80279C5.24841 7.1367 5.25 7.5498 5.25 8H6.75ZM16 9.25C15.5074 9.25 15.2134 9.24841 15.0027 9.22008C14.9061 9.20709 14.8577 9.1918 14.836 9.18284C14.8309 9.18077 14.8276 9.17915 14.8257 9.17814C14.8238 9.17714 14.8229 9.17659 14.8228 9.17653C14.8228 9.17649 14.823 9.17665 14.8234 9.17693C14.8237 9.17721 14.8237 9.17723 14.8232 9.17678L13.7626 10.2374C14.0716 10.5465 14.4473 10.6589 14.8028 10.7067C15.1367 10.7516 15.5498 10.75 16 10.75V9.25ZM13.25 8C13.25 8.4502 13.2484 8.8633 13.2933 9.19721C13.3411 9.55269 13.4535 9.92841 13.7626 10.2374L14.8232 9.17678C14.8228 9.17632 14.8228 9.1763 14.8231 9.17665C14.8234 9.177 14.8235 9.17724 14.8235 9.17717C14.8234 9.17708 14.8229 9.17624 14.8219 9.17433C14.8209 9.1724 14.8192 9.16908 14.8172 9.16404C14.8082 9.14226 14.7929 9.09389 14.7799 8.99734C14.7516 8.78661 14.75 8.49261 14.75 8H13.25ZM17.25 8C17.25 8.49261 17.2484 8.78661 17.2201 8.99734C17.2071 9.09389 17.1918 9.14226 17.1828 9.16404C17.1808 9.16908 17.1791 9.1724 17.1781 9.17433C17.1771 9.17624 17.1766 9.17708 17.1765 9.17717C17.1765 9.17724 17.1766 9.177 17.1769 9.17665C17.1772 9.1763 17.1772 9.17632 17.1768 9.17678L18.2374 10.2374C18.5465 9.92841 18.6589 9.55269 18.7067 9.19721C18.7516 8.8633 18.75 8.4502 18.75 8H17.25ZM16 10.75C16.4502 10.75 16.8633 10.7516 17.1972 10.7067C17.5527 10.6589 17.9284 10.5465 18.2374 10.2374L17.1768 9.17678C17.1763 9.17723 17.1763 9.17721 17.1766 9.17693C17.177 9.17665 17.1772 9.17649 17.1772 9.17653C17.1771 9.17659 17.1762 9.17714 17.1743 9.17814C17.1724 9.17915 17.1691 9.18077 17.164 9.18284C17.1423 9.1918 17.0939 9.20709 16.9973 9.22008C16.7866 9.24841 16.4926 9.25 16 9.25V10.75ZM16 6.75C16.4926 6.75 16.7866 6.75159 16.9973 6.77992C17.0939 6.79291 17.1423 6.8082 17.164 6.81716C17.1691 6.81923 17.1724 6.82085 17.1743 6.82186C17.1762 6.82286 17.1771 6.82341 17.1772 6.82347C17.1772 6.82351 17.177 6.82335 17.1766 6.82307C17.1763 6.82279 17.1763 6.82277 17.1768 6.82322L18.2374 5.76256C17.9284 5.45354 17.5527 5.34109 17.1972 5.2933C16.8633 5.24841 16.4502 5.25 16 5.25V6.75ZM18.75 8C18.75 7.5498 18.7516 7.1367 18.7067 6.80279C18.6589 6.44731 18.5465 6.07159 18.2374 5.76256L17.1768 6.82322C17.1772 6.82368 17.1772 6.8237 17.1769 6.82335C17.1766 6.823 17.1765 6.82277 17.1765 6.82283C17.1766 6.82292 17.1771 6.82376 17.1781 6.82567C17.1791 6.8276 17.1808 6.83092 17.1828 6.83596C17.1918 6.85774 17.2071 6.90611 17.2201 7.00266C17.2484 7.21339 17.25 7.50739 17.25 8H18.75ZM16 5.25C15.5498 5.25 15.1367 5.24841 14.8028 5.2933C14.4473 5.34109 14.0716 5.45354 13.7626 5.76256L14.8232 6.82322C14.8237 6.82277 14.8237 6.82279 14.8234 6.82307C14.823 6.82335 14.8228 6.82351 14.8228 6.82347C14.8229 6.82341 14.8238 6.82286 14.8257 6.82186C14.8276 6.82085 14.8309 6.81923 14.836 6.81716C14.8577 6.8082 14.9061 6.79291 15.0027 6.77992C15.2134 6.75159 15.5074 6.75 16 6.75V5.25ZM14.75 8C14.75 7.50739 14.7516 7.21339 14.7799 7.00266C14.7929 6.90611 14.8082 6.85774 14.8172 6.83596C14.8192 6.83092 14.8209 6.8276 14.8219 6.82567C14.8229 6.82376 14.8234 6.82292 14.8235 6.82283C14.8235 6.82277 14.8234 6.823 14.8231 6.82335C14.8228 6.8237 14.8228 6.82368 14.8232 6.82322L13.7626 5.76256C13.4535 6.07159 13.3411 6.44731 13.2933 6.80279C13.2484 7.1367 13.25 7.5498 13.25 8H14.75ZM16 17.25C15.5074 17.25 15.2134 17.2484 15.0027 17.2201C14.9061 17.2071 14.8577 17.1918 14.836 17.1828C14.8309 17.1808 14.8276 17.1791 14.8257 17.1781C14.8238 17.1771 14.8229 17.1766 14.8228 17.1765C14.8228 17.1765 14.823 17.1766 14.8234 17.1769C14.8237 17.1772 14.8237 17.1772 14.8232 17.1768L13.7626 18.2374C14.0716 18.5465 14.4473 18.6589 14.8028 18.7067C15.1367 18.7516 15.5498 18.75 16 18.75V17.25ZM13.25 16C13.25 16.4502 13.2484 16.8633 13.2933 17.1972C13.3411 17.5527 13.4535 17.9284 13.7626 18.2374L14.8232 17.1768C14.8228 17.1763 14.8228 17.1763 14.8231 17.1766C14.8234 17.177 14.8235 17.1772 14.8235 17.1772C14.8234 17.1771 14.8229 17.1762 14.8219 17.1743C14.8209 17.1724 14.8192 17.1691 14.8172 17.164C14.8082 17.1423 14.7929 17.0939 14.7799 16.9973C14.7516 16.7866 14.75 16.4926 14.75 16H13.25ZM17.25 16C17.25 16.4926 17.2484 16.7866 17.2201 16.9973C17.2071 17.0939 17.1918 17.1423 17.1828 17.164C17.1808 17.1691 17.1791 17.1724 17.1781 17.1743C17.1771 17.1762 17.1766 17.1771 17.1765 17.1772C17.1765 17.1772 17.1766 17.177 17.1769 17.1766C17.1772 17.1763 17.1772 17.1763 17.1768 17.1768L18.2374 18.2374C18.5465 17.9284 18.6589 17.5527 18.7067 17.1972C18.7516 16.8633 18.75 16.4502 18.75 16H17.25ZM16 18.75C16.4502 18.75 16.8633 18.7516 17.1972 18.7067C17.5527 18.6589 17.9284 18.5465 18.2374 18.2374L17.1768 17.1768C17.1763 17.1772 17.1763 17.1772 17.1766 17.1769C17.177 17.1766 17.1772 17.1765 17.1772 17.1765C17.1771 17.1766 17.1762 17.1771 17.1743 17.1781C17.1724 17.1791 17.1691 17.1808 17.164 17.1828C17.1423 17.1918 17.0939 17.2071 16.9973 17.2201C16.7866 17.2484 16.4926 17.25 16 17.25V18.75ZM16 14.75C16.4926 14.75 16.7866 14.7516 16.9973 14.7799C17.0939 14.7929 17.1423 14.8082 17.164 14.8172C17.1691 14.8192 17.1724 14.8209 17.1743 14.8219C17.1762 14.8229 17.1771 14.8234 17.1772 14.8235C17.1772 14.8235 17.177 14.8234 17.1766 14.8231C17.1763 14.8228 17.1763 14.8228 17.1768 14.8232L18.2374 13.7626C17.9284 13.4535 17.5527 13.3411 17.1972 13.2933C16.8633 13.2484 16.4502 13.25 16 13.25V14.75ZM18.75 16C18.75 15.5498 18.7516 15.1367 18.7067 14.8028C18.6589 14.4473 18.5465 14.0716 18.2374 13.7626L17.1768 14.8232C17.1772 14.8237 17.1772 14.8237 17.1769 14.8234C17.1766 14.823 17.1765 14.8228 17.1765 14.8228C17.1766 14.8229 17.1771 14.8238 17.1781 14.8257C17.1791 14.8276 17.1808 14.8309 17.1828 14.836C17.1918 14.8577 17.2071 14.9061 17.2201 15.0027C17.2484 15.2134 17.25 15.5074 17.25 16H18.75ZM16 13.25C15.5498 13.25 15.1367 13.2484 14.8028 13.2933C14.4473 13.3411 14.0716 13.4535 13.7626 13.7626L14.8232 14.8232C14.8237 14.8228 14.8237 14.8228 14.8234 14.8231C14.823 14.8234 14.8228 14.8235 14.8228 14.8235C14.8229 14.8234 14.8238 14.8229 14.8257 14.8219C14.8276 14.8209 14.8309 14.8192 14.836 14.8172C14.8577 14.8082 14.9061 14.7929 15.0027 14.7799C15.2134 14.7516 15.5074 14.75 16 14.75V13.25ZM14.75 16C14.75 15.5074 14.7516 15.2134 14.7799 15.0027C14.7929 14.9061 14.8082 14.8577 14.8172 14.836C14.8192 14.8309 14.8209 14.8276 14.8219 14.8257C14.8229 14.8238 14.8234 14.8229 14.8235 14.8228C14.8235 14.8228 14.8234 14.823 14.8231 14.8234C14.8228 14.8237 14.8228 14.8237 14.8232 14.8232L13.7626 13.7626C13.4535 14.0716 13.3411 14.4473 13.2933 14.8028C13.2484 15.1367 13.25 15.5498 13.25 16H14.75Z" fill="#FAFAFA"/>
</svg>
