<svg width="24" height="24" viewBox="0 0 24 24" fill="none" xmlns="http://www.w3.org/2000/svg">
<path d="M3 16H2.25H3ZM3.75 15C3.75 14.5858 3.41421 14.25 3 14.25C2.58579 14.25 2.25 14.5858 2.25 15H3.75ZM9 21.75C9.41422 21.75 9.75 21.4142 9.75 21C9.75 20.5858 9.41422 20.25 9 20.25V21.75ZM8 21V20.25V21ZM9 3.75C9.41421 3.75 9.75 3.41421 9.75 3C9.75 2.58579 9.41421 2.25 9 2.25V3.75ZM2.25 9C2.25 9.41421 2.58579 9.75 3 9.75C3.41421 9.75 3.75 9.41421 3.75 9H2.25ZM21 8H20.25H21ZM20.25 9C20.25 9.41421 20.5858 9.75 21 9.75C21.4142 9.75 21.75 9.41421 21.75 9H20.25ZM15 2.25C14.5858 2.25 14.25 2.58579 14.25 3C14.25 3.41421 14.5858 3.75 15 3.75V2.25ZM16 3V2.25V3ZM16 21V20.25V21ZM15 20.25C14.5858 20.25 14.25 20.5858 14.25 21C14.25 21.4142 14.5858 21.75 15 21.75V20.25ZM21.75 15C21.75 14.5858 21.4142 14.25 21 14.25C20.5858 14.25 20.25 14.5858 20.25 15H21.75ZM21 16H21.75H21ZM12 15.25C10.2051 15.25 8.75 13.7949 8.75 12H7.25C7.25 14.6234 9.37665 16.75 12 16.75V15.25ZM15.25 12C15.25 13.7949 13.7949 15.25 12 15.25V16.75C14.6234 16.75 16.75 14.6234 16.75 12H15.25ZM12 8.75C13.7949 8.75 15.25 10.2051 15.25 12H16.75C16.75 9.37665 14.6234 7.25 12 7.25V8.75ZM12 7.25C9.37665 7.25 7.25 9.37665 7.25 12H8.75C8.75 10.2051 10.2051 8.75 12 8.75V7.25ZM3.75 16L3.75 15H2.25L2.25 16H3.75ZM9 20.25H8V21.75H9V20.25ZM2.25 16C2.25 19.1756 4.82436 21.75 8 21.75V20.25C5.65279 20.25 3.75 18.3472 3.75 16H2.25ZM8 3.75H9V2.25H8V3.75ZM3.75 9V8H2.25V9H3.75ZM8 2.25C4.82436 2.25 2.25 4.82436 2.25 8H3.75C3.75 5.65279 5.65279 3.75 8 3.75V2.25ZM20.25 8V9H21.75V8H20.25ZM15 3.75L16 3.75V2.25L15 2.25V3.75ZM21.75 8C21.75 4.82436 19.1756 2.25 16 2.25V3.75C18.3472 3.75 20.25 5.65279 20.25 8H21.75ZM16 20.25H15V21.75H16V20.25ZM20.25 15V16H21.75V15H20.25ZM16 21.75C19.1756 21.75 21.75 19.1756 21.75 16H20.25C20.25 18.3472 18.3472 20.25 16 20.25V21.75Z" fill="#FAFAFA"/>
</svg>
