<svg width="24" height="24" viewBox="0 0 24 24" fill="none" xmlns="http://www.w3.org/2000/svg">
<path d="M3 15L3 16C3 18.7614 5.23858 21 8 21H9M9 3H8C5.23858 3 3 5.23858 3 8V9M21 9V8C21 5.23858 18.7614 3 16 3L15 3M15 21H16C18.7614 21 21 18.7614 21 16V15M6 8C6 9.10457 6.89543 10 8 10C9.10457 10 10 9.10457 10 8C10 6.89543 9.10457 6 8 6C6.89543 6 6 6.89543 6 8ZM15 8C15 8.55229 15.4477 9 16 9C16.5523 9 17 8.55229 17 8C17 7.44772 16.5523 7 16 7C15.4477 7 15 7.44772 15 8ZM14 16C14 17.1046 14.8954 18 16 18C17.1046 18 18 17.1046 18 16C18 14.8954 17.1046 14 16 14C14.8954 14 14 14.8954 14 16Z" stroke="#FAFAFA" stroke-width="1.5" stroke-linecap="round"/>
</svg>
