<svg width="24" height="24" viewBox="0 0 24 24" fill="none" xmlns="http://www.w3.org/2000/svg">
<path d="M2.4893 14C2.52475 15.3031 2.64138 16.1475 3.02505 16.8954C3.10055 17.0426 3.18329 17.1859 3.27299 17.3249C3.92795 18.3395 5.03095 18.9763 7.23696 20.25C8.4091 20.9267 9.26992 21.4237 10.0002 21.7498M21.5109 14C21.4755 15.3031 21.3588 16.1475 20.9752 16.8954C20.8997 17.0426 20.8169 17.1859 20.7272 17.3249C20.0723 18.3395 18.9693 18.9763 16.7632 20.25C15.5911 20.9267 14.7303 21.4237 14 21.7498M21.5109 10C21.4755 8.69683 21.3588 7.85245 20.9752 7.10453C20.8997 6.95737 20.8169 6.81405 20.7272 6.67509C20.0723 5.66044 18.9693 5.02362 16.7632 3.74998C15.5911 3.07322 14.7303 2.57626 14 2.25012M2.4893 10C2.52475 8.69683 2.64137 7.85245 3.02505 7.10453C3.10055 6.95737 3.18329 6.81405 3.27299 6.67509C3.92795 5.66044 5.03095 5.02362 7.23696 3.74998C8.40914 3.07322 9.2699 2.57626 10.0002 2.25012M23 14H1" stroke="#FAFAFA" stroke-width="1.5" stroke-linecap="round"/>
</svg>
