<svg width="24" height="24" viewBox="0 0 24 24" fill="none" xmlns="http://www.w3.org/2000/svg">
<path d="M3 16H2.25H3ZM3.75 15C3.75 14.5858 3.41421 14.25 3 14.25C2.58579 14.25 2.25 14.5858 2.25 15H3.75ZM9 21.75C9.41421 21.75 9.75 21.4142 9.75 21C9.75 20.5858 9.41421 20.25 9 20.25V21.75ZM8 21V20.25V21ZM9 3.75C9.41421 3.75 9.75 3.41421 9.75 3C9.75 2.58579 9.41421 2.25 9 2.25V3.75ZM2.25 9C2.25 9.41421 2.58579 9.75 3 9.75C3.41421 9.75 3.75 9.41421 3.75 9H2.25ZM21 8H20.25H21ZM20.25 9C20.25 9.41421 20.5858 9.75 21 9.75C21.4142 9.75 21.75 9.41421 21.75 9H20.25ZM15 2.25C14.5858 2.25 14.25 2.58579 14.25 3C14.25 3.41421 14.5858 3.75 15 3.75V2.25ZM16 3V2.25V3ZM16 21V20.25V21ZM15 20.25C14.5858 20.25 14.25 20.5858 14.25 21C14.25 21.4142 14.5858 21.75 15 21.75V20.25ZM21.75 15C21.75 14.5858 21.4142 14.25 21 14.25C20.5858 14.25 20.25 14.5858 20.25 15H21.75ZM21 16H21.75H21ZM17.7998 13.7228C18.199 13.8334 18.6122 13.5994 18.7228 13.2002C18.8334 12.801 18.5994 12.3878 18.2002 12.2772L17.7998 13.7228ZM12 12V11.25V12ZM5.79981 12.2772C5.40062 12.3878 5.16665 12.801 5.27721 13.2002C5.38778 13.5994 5.80101 13.8334 6.20019 13.7228L5.79981 12.2772ZM3.75 16L3.75 15H2.25L2.25 16H3.75ZM9 20.25H8V21.75H9V20.25ZM2.25 16C2.25 19.1756 4.82436 21.75 8 21.75V20.25C5.65279 20.25 3.75 18.3472 3.75 16H2.25ZM8 3.75H9V2.25H8V3.75ZM3.75 9V8H2.25V9H3.75ZM8 2.25C4.82436 2.25 2.25 4.82436 2.25 8H3.75C3.75 5.65279 5.65279 3.75 8 3.75V2.25ZM20.25 8V9H21.75V8H20.25ZM15 3.75L16 3.75V2.25L15 2.25V3.75ZM21.75 8C21.75 4.82436 19.1756 2.25 16 2.25V3.75C18.3472 3.75 20.25 5.65279 20.25 8H21.75ZM16 20.25H15V21.75H16V20.25ZM20.25 15V16H21.75V15H20.25ZM16 21.75C19.1756 21.75 21.75 19.1756 21.75 16H20.25C20.25 18.3472 18.3472 20.25 16 20.25V21.75ZM18 13C18.2002 12.2772 18.2001 12.2772 18.2 12.2772C18.2 12.2772 18.1999 12.2771 18.1998 12.2771C18.1996 12.277 18.1994 12.277 18.1991 12.2769C18.1985 12.2767 18.1976 12.2765 18.1966 12.2762C18.1945 12.2756 18.1916 12.2748 18.1878 12.2738C18.1802 12.2717 18.1693 12.2687 18.155 12.2649C18.1266 12.2572 18.0852 12.246 18.032 12.232C17.9255 12.2038 17.7717 12.1639 17.5801 12.1161C17.1971 12.0205 16.6613 11.8932 16.0489 11.7657C14.8383 11.5138 13.2757 11.25 12 11.25V12.75C13.1139 12.75 14.5513 12.9862 15.7433 13.2343C16.3322 13.3568 16.8484 13.4795 17.217 13.5715C17.4012 13.6174 17.5481 13.6556 17.6484 13.6821C17.6986 13.6954 17.7371 13.7057 17.7627 13.7127C17.7755 13.7161 17.7851 13.7188 17.7913 13.7205C17.7945 13.7213 17.7967 13.7219 17.7982 13.7223C17.7989 13.7225 17.7994 13.7227 17.7996 13.7227C17.7998 13.7228 17.7999 13.7228 17.7999 13.7228C17.7999 13.7228 17.7999 13.7228 17.7999 13.7228C17.7999 13.7228 17.7998 13.7228 18 13ZM12 11.25C10.7243 11.25 9.16171 11.5138 7.95111 11.7657C7.33874 11.8932 6.80295 12.0205 6.41994 12.116C6.22828 12.1639 6.07449 12.2038 5.96804 12.232C5.91481 12.246 5.87339 12.2572 5.84496 12.2649C5.83075 12.2687 5.81978 12.2717 5.8122 12.2738C5.80842 12.2748 5.80548 12.2756 5.8034 12.2762C5.80237 12.2765 5.80155 12.2767 5.80095 12.2769C5.80065 12.277 5.8004 12.277 5.80021 12.2771C5.80012 12.2771 5.80002 12.2772 5.79997 12.2772C5.79988 12.2772 5.79981 12.2772 6 13C6.20019 13.7228 6.20015 13.7228 6.20011 13.7228C6.20012 13.7228 6.2001 13.7228 6.20012 13.7228C6.20015 13.7228 6.20023 13.7228 6.20037 13.7227C6.20065 13.7227 6.20114 13.7225 6.20185 13.7223C6.20326 13.7219 6.20554 13.7213 6.20866 13.7205C6.21489 13.7188 6.22449 13.7161 6.2373 13.7127C6.26293 13.7057 6.30141 13.6954 6.35156 13.6821C6.4519 13.6556 6.59884 13.6174 6.783 13.5714C7.15163 13.4795 7.66779 13.3568 8.25673 13.2343C9.44874 12.9862 10.8861 12.75 12 12.75V11.25Z" fill="#FAFAFA"/>
</svg>
