<svg width="24" height="24" viewBox="0 0 24 24" fill="none" xmlns="http://www.w3.org/2000/svg">
<path d="M23 12.75C23.4142 12.75 23.75 12.4142 23.75 12C23.75 11.5858 23.4142 11.25 23 11.25V12.75ZM1 11.25C0.585786 11.25 0.25 11.5858 0.25 12C0.25 12.4142 0.585786 12.75 1 12.75V11.25ZM3 16H2.25H3ZM3.75 15C3.75 14.5858 3.41421 14.25 3 14.25C2.58579 14.25 2.25 14.5858 2.25 15H3.75ZM9 21.75C9.41421 21.75 9.75 21.4142 9.75 21C9.75 20.5858 9.41421 20.25 9 20.25V21.75ZM8 21V20.25V21ZM9 3.75C9.41421 3.75 9.75 3.41421 9.75 3C9.75 2.58579 9.41421 2.25 9 2.25V3.75ZM2.25 9C2.25 9.41421 2.58579 9.75 3 9.75C3.41421 9.75 3.75 9.41421 3.75 9H2.25ZM21 8H20.25H21ZM20.25 9C20.25 9.41421 20.5858 9.75 21 9.75C21.4142 9.75 21.75 9.41421 21.75 9H20.25ZM15 2.25C14.5858 2.25 14.25 2.58579 14.25 3C14.25 3.41421 14.5858 3.75 15 3.75V2.25ZM16 3V2.25V3ZM16 21V20.25V21ZM15 20.25C14.5858 20.25 14.25 20.5858 14.25 21C14.25 21.4142 14.5858 21.75 15 21.75V20.25ZM21.75 15C21.75 14.5858 21.4142 14.25 21 14.25C20.5858 14.25 20.25 14.5858 20.25 15H21.75ZM21 16H21.75H21ZM23 11.25H1V12.75H23V11.25ZM3.75 16V15H2.25V16H3.75ZM9 20.25H8V21.75H9V20.25ZM2.25 16C2.25 19.1756 4.82436 21.75 8 21.75V20.25C5.65279 20.25 3.75 18.3472 3.75 16H2.25ZM8 3.75H9V2.25H8V3.75ZM3.75 9V8H2.25V9H3.75ZM8 2.25C4.82436 2.25 2.25 4.82436 2.25 8H3.75C3.75 5.65279 5.65279 3.75 8 3.75V2.25ZM20.25 8V9H21.75V8H20.25ZM15 3.75L16 3.75V2.25L15 2.25V3.75ZM21.75 8C21.75 4.82436 19.1756 2.25 16 2.25V3.75C18.3472 3.75 20.25 5.65279 20.25 8H21.75ZM16 20.25H15V21.75H16V20.25ZM20.25 15V16H21.75V15H20.25ZM16 21.75C19.1756 21.75 21.75 19.1756 21.75 16H20.25C20.25 18.3472 18.3472 20.25 16 20.25V21.75Z" fill="#FAFAFA"/>
</svg>
