<svg width="24" height="24" viewBox="0 0 24 24" fill="none" xmlns="http://www.w3.org/2000/svg">
<path d="M3 16H2.25H3ZM3.75 15C3.75 14.5858 3.41421 14.25 3 14.25C2.58579 14.25 2.25 14.5858 2.25 15H3.75ZM9 21.75C9.41421 21.75 9.75 21.4142 9.75 21C9.75 20.5858 9.41421 20.25 9 20.25V21.75ZM8 21V20.25V21ZM9 3.75C9.41421 3.75 9.75 3.41421 9.75 3C9.75 2.58579 9.41421 2.25 9 2.25V3.75ZM2.25 9C2.25 9.41421 2.58579 9.75 3 9.75C3.41421 9.75 3.75 9.41421 3.75 9H2.25ZM21 8H20.25H21ZM20.25 9C20.25 9.41421 20.5858 9.75 21 9.75C21.4142 9.75 21.75 9.41421 21.75 9H20.25ZM15 2.25C14.5858 2.25 14.25 2.58579 14.25 3C14.25 3.41421 14.5858 3.75 15 3.75V2.25ZM16 3V2.25V3ZM16 21V20.25V21ZM15 20.25C14.5858 20.25 14.25 20.5858 14.25 21C14.25 21.4142 14.5858 21.75 15 21.75V20.25ZM21.75 15C21.75 14.5858 21.4142 14.25 21 14.25C20.5858 14.25 20.25 14.5858 20.25 15H21.75ZM21 16H21.75H21ZM18.2002 12.7228C18.5994 12.6122 18.8334 12.199 18.7228 11.7998C18.6122 11.4006 18.199 11.1666 17.7998 11.2772L18.2002 12.7228ZM12 13V13.75V13ZM6.20019 11.2772C5.80101 11.1666 5.38778 11.4006 5.27721 11.7998C5.16665 12.199 5.40062 12.6122 5.79981 12.7228L6.20019 11.2772ZM3.75 16L3.75 15H2.25L2.25 16H3.75ZM9 20.25H8V21.75H9V20.25ZM2.25 16C2.25 19.1756 4.82436 21.75 8 21.75V20.25C5.65279 20.25 3.75 18.3472 3.75 16H2.25ZM8 3.75H9V2.25H8V3.75ZM3.75 9V8H2.25V9H3.75ZM8 2.25C4.82436 2.25 2.25 4.82436 2.25 8H3.75C3.75 5.65279 5.65279 3.75 8 3.75V2.25ZM20.25 8V9H21.75V8H20.25ZM15 3.75L16 3.75V2.25L15 2.25V3.75ZM21.75 8C21.75 4.82436 19.1756 2.25 16 2.25V3.75C18.3472 3.75 20.25 5.65279 20.25 8H21.75ZM16 20.25H15V21.75H16V20.25ZM20.25 15V16H21.75V15H20.25ZM16 21.75C19.1756 21.75 21.75 19.1756 21.75 16H20.25C20.25 18.3472 18.3472 20.25 16 20.25V21.75ZM18 12C17.7998 11.2772 17.7999 11.2772 17.7999 11.2772C17.7999 11.2772 17.7999 11.2772 17.7999 11.2772C17.7999 11.2772 17.7998 11.2772 17.7996 11.2773C17.7994 11.2773 17.7989 11.2775 17.7982 11.2777C17.7967 11.2781 17.7945 11.2787 17.7913 11.2795C17.7851 11.2812 17.7755 11.2839 17.7627 11.2873C17.7371 11.2943 17.6986 11.3046 17.6484 11.3179C17.5481 11.3444 17.4012 11.3826 17.217 11.4286C16.8484 11.5205 16.3322 11.6432 15.7433 11.7657C14.5513 12.0138 13.1139 12.25 12 12.25V13.75C13.2757 13.75 14.8383 13.4862 16.0489 13.2343C16.6613 13.1068 17.1971 12.9795 17.5801 12.884C17.7717 12.8361 17.9255 12.7962 18.032 12.768C18.0852 12.754 18.1266 12.7428 18.155 12.7351C18.1693 12.7313 18.1802 12.7283 18.1878 12.7262C18.1916 12.7252 18.1945 12.7244 18.1966 12.7238C18.1976 12.7235 18.1985 12.7233 18.1991 12.7231C18.1994 12.723 18.1996 12.723 18.1998 12.7229C18.1999 12.7229 18.2 12.7228 18.2 12.7228C18.2001 12.7228 18.2002 12.7228 18 12ZM12 12.25C10.8861 12.25 9.44875 12.0138 8.25673 11.7657C7.66779 11.6432 7.15163 11.5205 6.783 11.4286C6.59884 11.3826 6.4519 11.3444 6.35156 11.3179C6.30141 11.3046 6.26293 11.2943 6.2373 11.2873C6.22449 11.2839 6.21489 11.2812 6.20866 11.2795C6.20554 11.2787 6.20326 11.2781 6.20185 11.2777C6.20114 11.2775 6.20065 11.2773 6.20037 11.2773C6.20023 11.2772 6.20015 11.2772 6.20012 11.2772C6.2001 11.2772 6.20012 11.2772 6.20011 11.2772C6.20015 11.2772 6.20019 11.2772 6 12C5.79981 12.7228 5.79988 12.7228 5.79997 12.7228C5.80002 12.7228 5.80012 12.7229 5.80021 12.7229C5.8004 12.723 5.80065 12.723 5.80095 12.7231C5.80155 12.7233 5.80237 12.7235 5.8034 12.7238C5.80548 12.7244 5.80842 12.7252 5.8122 12.7262C5.81978 12.7283 5.83075 12.7313 5.84496 12.7351C5.87339 12.7428 5.91481 12.754 5.96804 12.768C6.07449 12.7962 6.22828 12.8361 6.41994 12.884C6.80295 12.9795 7.33874 13.1068 7.95111 13.2343C9.16171 13.4862 10.7243 13.75 12 13.75V12.25Z" fill="#FAFAFA"/>
</svg>
