<svg width="24" height="24" viewBox="0 0 24 24" fill="none" xmlns="http://www.w3.org/2000/svg">
<path d="M14.729 2C15.6955 2 16.479 2.7835 16.479 3.75C16.479 4.7165 17.2625 5.5 18.229 5.5H18.8183C20.0296 5.5 21.0294 6.42655 20.983 7.6369C20.9021 9.7498 20.4909 13.0809 18.8891 16C18.4665 16.7702 17.8925 17.543 17.2551 18.2795C15.2752 20.567 14.2852 21.7107 12.0001 21.7107C9.71504 21.7107 8.72508 20.567 6.74517 18.2795C6.10775 17.543 5.53377 16.7702 5.11115 16C3.55733 13.1683 3.12384 10.1595 3.02535 8.20867C2.96444 7.00211 3.96268 6.08333 5.17077 6.08333H5.47964C6.60722 6.08333 7.5213 5.16925 7.5213 4.04167C7.5213 2.91409 8.43539 2 9.56297 2H14.729Z" stroke="#FAFAFA" stroke-width="1.5"/>
</svg>
