<svg width="24" height="24" viewBox="0 0 24 24" fill="none" xmlns="http://www.w3.org/2000/svg">
<path d="M18.8891 16L18.2316 15.6392L18.8891 16ZM5.11115 16L4.45364 16.3608L5.11115 16ZM3.02535 8.20867L2.27631 8.24648L3.02535 8.20867ZM17.2551 18.2795L17.8222 18.7703L17.2551 18.2795ZM6.74517 18.2795L7.31225 17.7886L6.74517 18.2795ZM20.983 7.6369L21.7325 7.66561L20.983 7.6369ZM10.6518 9.59099C10.3589 9.2981 9.88401 9.2981 9.59111 9.59099C9.29822 9.88388 9.29822 10.3588 9.59111 10.6517L10.6518 9.59099ZM13.8338 14.8943C14.1266 15.1872 14.6015 15.1872 14.8944 14.8943C15.1873 14.6014 15.1873 14.1265 14.8944 13.8336L13.8338 14.8943ZM9.59111 13.8336C9.29822 14.1265 9.29822 14.6014 9.59111 14.8943C9.88401 15.1872 10.3589 15.1872 10.6518 14.8943L9.59111 13.8336ZM14.8944 10.6516C15.1873 10.3588 15.1873 9.88388 14.8944 9.59099C14.6015 9.2981 14.1266 9.2981 13.8338 9.59099L14.8944 10.6516ZM12.2428 12.2426L11.7124 12.773V12.773L12.2428 12.2426ZM20.2336 7.60819C20.1545 9.67293 19.7519 12.8686 18.2316 15.6392L19.5466 16.3608C21.23 13.2931 21.6497 9.82667 21.7325 7.66561L20.2336 7.60819ZM18.2316 15.6392C17.8427 16.348 17.3041 17.0768 16.688 17.7886L17.8222 18.7703C18.481 18.0092 19.0904 17.1923 19.5466 16.3608L18.2316 15.6392ZM7.31225 17.7886C6.69617 17.0768 6.15761 16.348 5.76867 15.6392L4.45364 16.3608C4.90993 17.1923 5.51932 18.0092 6.17808 18.7703L7.31225 17.7886ZM5.76867 15.6392C4.29018 12.9448 3.86985 10.0616 3.7744 8.17085L2.27631 8.24648C2.37783 10.2575 2.82448 13.3918 4.45364 16.3608L5.76867 15.6392ZM5.17077 6.83333H5.47964V5.33333H5.17077V6.83333ZM18.229 6.25H18.8183V4.75H18.229V6.25ZM15.729 3.75C15.729 5.13071 16.8483 6.25 18.229 6.25V4.75C17.6767 4.75 17.229 4.30228 17.229 3.75H15.729ZM5.47964 6.83333C7.02143 6.83333 8.2713 5.58346 8.2713 4.04167H6.7713C6.7713 4.75503 6.193 5.33333 5.47964 5.33333V6.83333ZM9.56297 1.25C8.02118 1.25 6.7713 2.49987 6.7713 4.04167H8.2713C8.2713 3.3283 8.8496 2.75 9.56297 2.75V1.25ZM3.7744 8.17085C3.73808 7.45149 4.33063 6.83333 5.17077 6.83333V5.33333C3.59472 5.33333 2.1908 6.55273 2.27631 8.24648L3.7744 8.17085ZM16.688 17.7886C15.6779 18.9557 14.9958 19.7373 14.2988 20.2479C13.6513 20.7223 12.9889 20.9607 12.0001 20.9607V22.4607C13.2964 22.4607 14.2716 22.1273 15.1853 21.4579C16.0496 20.8248 16.8524 19.8908 17.8222 18.7703L16.688 17.7886ZM6.17808 18.7703C7.14788 19.8908 7.95073 20.8248 8.81498 21.4579C9.72866 22.1273 10.7038 22.4607 12.0001 22.4607V20.9607C11.0113 20.9607 10.349 20.7223 9.70144 20.2479C9.00446 19.7373 8.32237 18.9557 7.31225 17.7886L6.17808 18.7703ZM14.729 2.75C15.2813 2.75 15.729 3.19772 15.729 3.75H17.229C17.229 2.36929 16.1097 1.25 14.729 1.25V2.75ZM21.7325 7.66561C21.7971 5.97999 20.4032 4.75 18.8183 4.75V6.25C19.656 6.25 20.2618 6.8731 20.2336 7.60819L21.7325 7.66561ZM10.6518 14.8943L14.8944 10.6516L13.8338 9.59099L9.59111 13.8336L10.6518 14.8943ZM9.56297 2.75H14.729V1.25H9.56297V2.75ZM9.59111 10.6517L11.7124 12.773L12.7731 11.7123L10.6518 9.59099L9.59111 10.6517ZM11.7124 12.773L13.8338 14.8943L14.8944 13.8336L12.7731 11.7123L11.7124 12.773Z" fill="#FAFAFA"/>
</svg>
