<svg width="24" height="24" viewBox="0 0 24 24" fill="none" xmlns="http://www.w3.org/2000/svg">
<path d="M15.0001 10L12.9786 12.5088C12.1775 13.5029 11.777 14 11.2501 14C10.7232 14 10.3226 13.5029 9.52159 12.5088L9.00009 11.8616M18.8891 16C20.4909 13.0809 20.9021 9.7498 20.983 7.6369C21.0294 6.42655 20.0296 5.5 18.8183 5.5H18.229C17.2625 5.5 16.479 4.7165 16.479 3.75C16.479 2.7835 15.6955 2 14.729 2H9.56297C8.43539 2 7.5213 2.91409 7.5213 4.04167C7.5213 5.16925 6.60722 6.08333 5.47964 6.08333H5.17077C3.96268 6.08333 2.96444 7.00211 3.02535 8.20867C3.12384 10.1595 3.55733 13.1683 5.11115 16C5.53377 16.7702 6.10775 17.543 6.74517 18.2795C8.72508 20.567 9.71504 21.7107 12.0001 21.7107C14.2852 21.7107 15.2752 20.567 17.2551 18.2795C17.8925 17.543 18.4665 16.7702 18.8891 16Z" stroke="#FAFAFA" stroke-width="1.5" stroke-linecap="round"/>
</svg>
