<svg width="24" height="24" viewBox="0 0 24 24" fill="none" xmlns="http://www.w3.org/2000/svg">
<path d="M6.45492 21.7553L6.68668 21.042L6.45492 21.7553ZM3.24472 18.5451L3.95801 18.3133L3.24472 18.5451ZM20.7553 18.5451L20.042 18.3133L20.7553 18.5451ZM17.5451 21.7553L17.3133 21.042L17.5451 21.7553ZM17.5451 8.24472L17.3133 8.95801L17.5451 8.24472ZM20.7553 11.4549L20.042 11.6867L20.7553 11.4549ZM6.45492 8.24472L6.68668 8.95801L6.45492 8.24472ZM3.24472 11.4549L3.95801 11.6867L3.24472 11.4549ZM14.55 3.59962C14.8811 3.84843 15.3513 3.78167 15.6001 3.45051C15.8489 3.11935 15.7822 2.64919 15.451 2.40038L14.55 3.59962ZM12.75 13C12.75 12.5858 12.4142 12.25 12 12.25C11.5858 12.25 11.25 12.5858 11.25 13H12.75ZM11.25 17C11.25 17.4142 11.5858 17.75 12 17.75C12.4142 17.75 12.75 17.4142 12.75 17H11.25ZM10 8.75H14V7.25H10V8.75ZM14 21.25H10V22.75H14V21.25ZM10 21.25C8.08034 21.25 7.29839 21.2407 6.68668 21.042L6.22315 22.4686C7.11777 22.7593 8.19709 22.75 10 22.75V21.25ZM2.25 15C2.25 16.8029 2.24075 17.8822 2.53142 18.7768L3.95801 18.3133C3.75925 17.7016 3.75 16.9197 3.75 15H2.25ZM6.68668 21.042C5.39282 20.6216 4.37841 19.6072 3.95801 18.3133L2.53142 18.7768C3.1002 20.5274 4.47263 21.8998 6.22315 22.4686L6.68668 21.042ZM20.25 15C20.25 16.9197 20.2407 17.7016 20.042 18.3133L21.4686 18.7768C21.7593 17.8822 21.75 16.8029 21.75 15H20.25ZM14 22.75C15.8029 22.75 16.8822 22.7593 17.7768 22.4686L17.3133 21.042C16.7016 21.2407 15.9197 21.25 14 21.25V22.75ZM20.042 18.3133C19.6216 19.6072 18.6072 20.6216 17.3133 21.042L17.7768 22.4686C19.5274 21.8998 20.8998 20.5274 21.4686 18.7768L20.042 18.3133ZM14 8.75C15.9197 8.75 16.7016 8.75925 17.3133 8.95801L17.7768 7.53142C16.8822 7.24075 15.8029 7.25 14 7.25V8.75ZM21.75 15C21.75 13.1971 21.7593 12.1178 21.4686 11.2232L20.042 11.6867C20.2407 12.2984 20.25 13.0803 20.25 15H21.75ZM17.3133 8.95801C18.6072 9.37841 19.6216 10.3928 20.042 11.6867L21.4686 11.2232C20.8998 9.47263 19.5274 8.1002 17.7768 7.53142L17.3133 8.95801ZM3.75 15C3.75 13.0803 3.75925 12.2984 3.95801 11.6867L2.53142 11.2232C2.24075 12.1178 2.25 13.1971 2.25 15H3.75ZM6.22315 7.53142C4.47263 8.1002 3.1002 9.47263 2.53142 11.2232L3.95801 11.6867C4.37841 10.3928 5.39282 9.37841 6.68668 8.95801L6.22315 7.53142ZM7.75 8V7H6.25V8H7.75ZM12 1.25C8.82436 1.25 6.25 3.82436 6.25 7H7.75C7.75 4.65279 9.65279 2.75 12 2.75V1.25ZM12 2.75C12.9578 2.75 13.8397 3.06595 14.55 3.59962L15.451 2.40038C14.4898 1.67823 13.2938 1.25 12 1.25V2.75ZM11.25 13V17H12.75V13H11.25ZM10 7.25C8.58853 7.25 7.6278 7.24738 6.8754 7.37414L7.1246 8.85329C7.7222 8.75262 8.52815 8.75 10 8.75V7.25ZM6.8754 7.37414C6.64772 7.4125 6.43257 7.46338 6.22315 7.53142L6.68668 8.95801C6.81685 8.91571 6.95935 8.88113 7.1246 8.85329L6.8754 7.37414ZM6.25 8V8.11372H7.75V8H6.25Z" fill="#FAFAFA"/>
</svg>
